G04*
G04 #@! TF.GenerationSoftware,Altium Limited,Altium Designer,18.1.9 (240)*
G04*
G04 Layer_Physical_Order=2*
G04 Layer_Color=36540*
%FSLAX25Y25*%
%MOIN*%
G70*
G01*
G75*
%ADD13C,0.01000*%
%ADD53C,0.04000*%
%ADD55R,0.07087X0.07087*%
%ADD56C,0.07087*%
%ADD57C,0.06693*%
%ADD58R,0.07087X0.07087*%
%ADD61C,0.06000*%
%ADD63C,0.06102*%
%ADD64C,0.08661*%
%ADD66C,0.10827*%
%ADD67C,0.05000*%
G36*
X399997Y3D02*
X354Y-0D01*
X0Y353D01*
X166Y479814D01*
X106331Y479814D01*
X106448Y479361D01*
X106443Y479314D01*
X105611Y478676D01*
X104961Y477830D01*
X104553Y476844D01*
X104414Y475787D01*
X104553Y474729D01*
X104961Y473743D01*
X105611Y472897D01*
X106457Y472248D01*
X107442Y471840D01*
X108500Y471700D01*
X109558Y471840D01*
X110543Y472248D01*
X111389Y472897D01*
X112039Y473743D01*
X112447Y474729D01*
X112586Y475787D01*
X112447Y476844D01*
X112039Y477830D01*
X111389Y478676D01*
X110557Y479314D01*
X110552Y479361D01*
X110669Y479814D01*
X116331D01*
X116448Y479361D01*
X116443Y479314D01*
X115611Y478676D01*
X114961Y477830D01*
X114553Y476844D01*
X114480Y476287D01*
X118500D01*
X122520D01*
X122447Y476844D01*
X122039Y477830D01*
X121389Y478676D01*
X120557Y479314D01*
X120552Y479361D01*
X120669Y479814D01*
X276331Y479814D01*
X276448Y479361D01*
X276443Y479314D01*
X275611Y478676D01*
X274961Y477830D01*
X274553Y476844D01*
X274414Y475787D01*
X274553Y474729D01*
X274961Y473743D01*
X275611Y472897D01*
X276457Y472248D01*
X277442Y471840D01*
X278500Y471700D01*
X279558Y471840D01*
X280543Y472248D01*
X281389Y472897D01*
X282039Y473743D01*
X282447Y474729D01*
X282586Y475787D01*
X282447Y476844D01*
X282039Y477830D01*
X281389Y478676D01*
X280557Y479314D01*
X280552Y479361D01*
X280669Y479814D01*
X286331D01*
X286448Y479361D01*
X286443Y479314D01*
X285611Y478676D01*
X284961Y477830D01*
X284553Y476844D01*
X284414Y475787D01*
X284553Y474729D01*
X284961Y473743D01*
X285611Y472897D01*
X286457Y472248D01*
X287442Y471840D01*
X288500Y471700D01*
X289558Y471840D01*
X290543Y472248D01*
X291389Y472897D01*
X292039Y473743D01*
X292447Y474729D01*
X292586Y475787D01*
X292447Y476844D01*
X292039Y477830D01*
X291389Y478676D01*
X290557Y479314D01*
X290552Y479361D01*
X290669Y479814D01*
X368604Y479814D01*
Y221284D01*
X360692Y213372D01*
X360654Y213375D01*
X359705Y214103D01*
X358600Y214561D01*
X357414Y214717D01*
X356228Y214561D01*
X355123Y214103D01*
X354174Y213375D01*
X353446Y212426D01*
X352988Y211320D01*
X352832Y210134D01*
X352988Y208948D01*
X353446Y207843D01*
X354174Y206894D01*
X355123Y206166D01*
X356228Y205708D01*
X357414Y205552D01*
X358600Y205708D01*
X359705Y206166D01*
X360654Y206894D01*
X360819Y207108D01*
X361733D01*
X362517Y207212D01*
X363246Y207514D01*
X363873Y207995D01*
X373770Y217891D01*
X373770Y217891D01*
X374251Y218518D01*
X374553Y219248D01*
X374656Y220031D01*
X374656Y220031D01*
Y479814D01*
X399997D01*
Y3D01*
D02*
G37*
G36*
X400000Y480834D02*
X374656D01*
Y500628D01*
X374553Y501411D01*
X374251Y502141D01*
X373770Y502768D01*
X361818Y514720D01*
X361811Y514771D01*
X361458Y515622D01*
X360897Y516353D01*
X360166Y516914D01*
X359315Y517267D01*
X358901Y517321D01*
Y513857D01*
X358401D01*
Y513357D01*
X354937D01*
X354991Y512943D01*
X355344Y512092D01*
X355905Y511361D01*
X356636Y510800D01*
X357487Y510447D01*
X357538Y510440D01*
X368604Y499375D01*
Y480834D01*
X-0Y480834D01*
X0Y700000D01*
X400000Y700000D01*
X400000Y480834D01*
D02*
G37*
%LPC*%
G36*
X78928Y478955D02*
Y475991D01*
X81892D01*
X81838Y476405D01*
X81485Y477256D01*
X80924Y477987D01*
X80193Y478548D01*
X79342Y478901D01*
X78928Y478955D01*
D02*
G37*
G36*
X77928D02*
X77514Y478901D01*
X76663Y478548D01*
X75932Y477987D01*
X75371Y477256D01*
X75018Y476405D01*
X74964Y475991D01*
X77928D01*
Y478955D01*
D02*
G37*
G36*
X81892Y474991D02*
X78928D01*
Y472027D01*
X79342Y472081D01*
X80193Y472434D01*
X80924Y472995D01*
X81485Y473726D01*
X81838Y474577D01*
X81892Y474991D01*
D02*
G37*
G36*
X77928D02*
X74964D01*
X75018Y474577D01*
X75371Y473726D01*
X75932Y472995D01*
X76663Y472434D01*
X77514Y472081D01*
X77928Y472027D01*
Y474991D01*
D02*
G37*
G36*
X118000Y475287D02*
X114480D01*
X114553Y474729D01*
X114961Y473743D01*
X115611Y472897D01*
X116457Y472248D01*
X117442Y471840D01*
X118000Y471766D01*
Y475287D01*
D02*
G37*
G36*
X122520D02*
X119000D01*
Y471766D01*
X119558Y471840D01*
X120543Y472248D01*
X121389Y472897D01*
X122039Y473743D01*
X122447Y474729D01*
X122520Y475287D01*
D02*
G37*
G36*
X53837Y469098D02*
Y466134D01*
X56802D01*
X56747Y466547D01*
X56395Y467399D01*
X55834Y468130D01*
X55102Y468691D01*
X54251Y469044D01*
X53837Y469098D01*
D02*
G37*
G36*
X52837D02*
X52424Y469044D01*
X51572Y468691D01*
X50841Y468130D01*
X50280Y467399D01*
X49927Y466547D01*
X49873Y466134D01*
X52837D01*
Y469098D01*
D02*
G37*
G36*
X56802Y465134D02*
X53837D01*
Y462169D01*
X54251Y462224D01*
X55102Y462576D01*
X55834Y463137D01*
X56395Y463869D01*
X56747Y464720D01*
X56802Y465134D01*
D02*
G37*
G36*
X52837D02*
X49873D01*
X49927Y464720D01*
X50280Y463869D01*
X50841Y463137D01*
X51572Y462576D01*
X52424Y462224D01*
X52837Y462169D01*
Y465134D01*
D02*
G37*
G36*
X288500Y469873D02*
X287442Y469733D01*
X286457Y469325D01*
X285611Y468676D01*
X284961Y467830D01*
X284553Y466844D01*
X284414Y465787D01*
X284553Y464729D01*
X284961Y463743D01*
X285611Y462897D01*
X286457Y462248D01*
X287442Y461840D01*
X288500Y461700D01*
X289558Y461840D01*
X290543Y462248D01*
X291389Y462897D01*
X292039Y463743D01*
X292447Y464729D01*
X292586Y465787D01*
X292447Y466844D01*
X292039Y467830D01*
X291389Y468676D01*
X290543Y469325D01*
X289558Y469733D01*
X288500Y469873D01*
D02*
G37*
G36*
X278500D02*
X277442Y469733D01*
X276457Y469325D01*
X275611Y468676D01*
X274961Y467830D01*
X274553Y466844D01*
X274414Y465787D01*
X274553Y464729D01*
X274961Y463743D01*
X275611Y462897D01*
X276457Y462248D01*
X277442Y461840D01*
X278500Y461700D01*
X279558Y461840D01*
X280543Y462248D01*
X281389Y462897D01*
X282039Y463743D01*
X282447Y464729D01*
X282586Y465787D01*
X282447Y466844D01*
X282039Y467830D01*
X281389Y468676D01*
X280543Y469325D01*
X279558Y469733D01*
X278500Y469873D01*
D02*
G37*
G36*
X118500D02*
X117442Y469733D01*
X116457Y469325D01*
X115611Y468676D01*
X114961Y467830D01*
X114553Y466844D01*
X114414Y465787D01*
X114553Y464729D01*
X114961Y463743D01*
X115611Y462897D01*
X116457Y462248D01*
X117442Y461840D01*
X118500Y461700D01*
X119558Y461840D01*
X120543Y462248D01*
X121389Y462897D01*
X122039Y463743D01*
X122447Y464729D01*
X122586Y465787D01*
X122447Y466844D01*
X122039Y467830D01*
X121389Y468676D01*
X120543Y469325D01*
X119558Y469733D01*
X118500Y469873D01*
D02*
G37*
G36*
X108500D02*
X107442Y469733D01*
X106457Y469325D01*
X105611Y468676D01*
X104961Y467830D01*
X104553Y466844D01*
X104414Y465787D01*
X104553Y464729D01*
X104961Y463743D01*
X105611Y462897D01*
X106457Y462248D01*
X107442Y461840D01*
X108500Y461700D01*
X109558Y461840D01*
X110543Y462248D01*
X111389Y462897D01*
X112039Y463743D01*
X112447Y464729D01*
X112586Y465787D01*
X112447Y466844D01*
X112039Y467830D01*
X111389Y468676D01*
X110543Y469325D01*
X109558Y469733D01*
X108500Y469873D01*
D02*
G37*
G36*
X358776Y459442D02*
Y456478D01*
X361740D01*
X361686Y456892D01*
X361333Y457743D01*
X360772Y458474D01*
X360041Y459035D01*
X359190Y459388D01*
X358776Y459442D01*
D02*
G37*
G36*
X357776D02*
X357362Y459388D01*
X356511Y459035D01*
X355780Y458474D01*
X355219Y457743D01*
X354866Y456892D01*
X354812Y456478D01*
X357776D01*
Y459442D01*
D02*
G37*
G36*
X361740Y455478D02*
X358776D01*
Y452514D01*
X359190Y452568D01*
X360041Y452921D01*
X360772Y453482D01*
X361333Y454213D01*
X361686Y455064D01*
X361740Y455478D01*
D02*
G37*
G36*
X357776D02*
X354812D01*
X354866Y455064D01*
X355219Y454213D01*
X355780Y453482D01*
X356511Y452921D01*
X357362Y452568D01*
X357776Y452514D01*
Y455478D01*
D02*
G37*
G36*
X288500Y459873D02*
X287442Y459733D01*
X286457Y459325D01*
X285611Y458676D01*
X284961Y457830D01*
X284553Y456844D01*
X284414Y455787D01*
X284553Y454729D01*
X284961Y453744D01*
X285611Y452897D01*
X286457Y452248D01*
X287442Y451840D01*
X288500Y451700D01*
X289558Y451840D01*
X290543Y452248D01*
X291389Y452897D01*
X292039Y453744D01*
X292447Y454729D01*
X292586Y455787D01*
X292447Y456844D01*
X292039Y457830D01*
X291389Y458676D01*
X290543Y459325D01*
X289558Y459733D01*
X288500Y459873D01*
D02*
G37*
G36*
X278500D02*
X277442Y459733D01*
X276457Y459325D01*
X275611Y458676D01*
X274961Y457830D01*
X274553Y456844D01*
X274414Y455787D01*
X274553Y454729D01*
X274961Y453744D01*
X275611Y452897D01*
X276457Y452248D01*
X277442Y451840D01*
X278500Y451700D01*
X279558Y451840D01*
X280543Y452248D01*
X281389Y452897D01*
X282039Y453744D01*
X282447Y454729D01*
X282586Y455787D01*
X282447Y456844D01*
X282039Y457830D01*
X281389Y458676D01*
X280543Y459325D01*
X279558Y459733D01*
X278500Y459873D01*
D02*
G37*
G36*
X118500D02*
X117442Y459733D01*
X116457Y459325D01*
X115611Y458676D01*
X114961Y457830D01*
X114553Y456844D01*
X114414Y455787D01*
X114553Y454729D01*
X114961Y453744D01*
X115611Y452897D01*
X116457Y452248D01*
X117442Y451840D01*
X118500Y451700D01*
X119558Y451840D01*
X120543Y452248D01*
X121389Y452897D01*
X122039Y453744D01*
X122447Y454729D01*
X122586Y455787D01*
X122447Y456844D01*
X122039Y457830D01*
X121389Y458676D01*
X120543Y459325D01*
X119558Y459733D01*
X118500Y459873D01*
D02*
G37*
G36*
X108500D02*
X107442Y459733D01*
X106457Y459325D01*
X105611Y458676D01*
X104961Y457830D01*
X104553Y456844D01*
X104414Y455787D01*
X104553Y454729D01*
X104766Y454215D01*
X85746Y435195D01*
X85414Y434699D01*
X85298Y434114D01*
Y383512D01*
X84810Y383310D01*
X83974Y382669D01*
X83333Y381833D01*
X83161Y381417D01*
X82619D01*
X82447Y381833D01*
X81806Y382669D01*
X80970Y383310D01*
X79997Y383713D01*
X78953Y383851D01*
X77909Y383713D01*
X76936Y383310D01*
X76100Y382669D01*
X75459Y381833D01*
X75287Y381417D01*
X74745D01*
X74573Y381833D01*
X73932Y382669D01*
X73096Y383310D01*
X72123Y383713D01*
X71079Y383851D01*
X70035Y383713D01*
X69062Y383310D01*
X68226Y382669D01*
X67585Y381833D01*
X67413Y381417D01*
X66871D01*
X66699Y381833D01*
X66058Y382669D01*
X65222Y383310D01*
X64249Y383713D01*
X63205Y383851D01*
X62161Y383713D01*
X61188Y383310D01*
X60352Y382669D01*
X59711Y381833D01*
X59539Y381417D01*
X58997D01*
X58825Y381833D01*
X58184Y382669D01*
X57348Y383310D01*
X56375Y383713D01*
X55331Y383851D01*
X54287Y383713D01*
X53314Y383310D01*
X52478Y382669D01*
X51837Y381833D01*
X51665Y381417D01*
X51123D01*
X50951Y381833D01*
X50310Y382669D01*
X49474Y383310D01*
X48501Y383713D01*
X47457Y383851D01*
X46413Y383713D01*
X45440Y383310D01*
X44604Y382669D01*
X43963Y381833D01*
X43791Y381417D01*
X43249D01*
X43077Y381833D01*
X42436Y382669D01*
X41600Y383310D01*
X40627Y383713D01*
X39583Y383851D01*
X38539Y383713D01*
X37566Y383310D01*
X36730Y382669D01*
X36089Y381833D01*
X35917Y381417D01*
X35375D01*
X35203Y381833D01*
X34562Y382669D01*
X33726Y383310D01*
X32753Y383713D01*
X32209Y383785D01*
Y379816D01*
Y375847D01*
X32753Y375919D01*
X33726Y376322D01*
X34562Y376963D01*
X35203Y377799D01*
X35375Y378215D01*
X35917D01*
X36089Y377799D01*
X36730Y376963D01*
X37566Y376322D01*
X38539Y375919D01*
X39583Y375782D01*
X40627Y375919D01*
X41600Y376322D01*
X42436Y376963D01*
X43077Y377799D01*
X43249Y378215D01*
X43791D01*
X43963Y377799D01*
X44604Y376963D01*
X45440Y376322D01*
X46413Y375919D01*
X47457Y375782D01*
X48501Y375919D01*
X49474Y376322D01*
X50310Y376963D01*
X50951Y377799D01*
X51123Y378215D01*
X51665D01*
X51837Y377799D01*
X52478Y376963D01*
X53314Y376322D01*
X54287Y375919D01*
X55331Y375782D01*
X56375Y375919D01*
X57348Y376322D01*
X58184Y376963D01*
X58825Y377799D01*
X58997Y378215D01*
X59539D01*
X59711Y377799D01*
X60352Y376963D01*
X61188Y376322D01*
X62161Y375919D01*
X63205Y375782D01*
X64249Y375919D01*
X65222Y376322D01*
X66058Y376963D01*
X66699Y377799D01*
X66871Y378215D01*
X67413D01*
X67585Y377799D01*
X68226Y376963D01*
X69062Y376322D01*
X70035Y375919D01*
X71079Y375782D01*
X72123Y375919D01*
X73096Y376322D01*
X73932Y376963D01*
X74573Y377799D01*
X74745Y378215D01*
X75287D01*
X75459Y377799D01*
X76100Y376963D01*
X76936Y376322D01*
X77909Y375919D01*
X78953Y375782D01*
X79997Y375919D01*
X80970Y376322D01*
X81806Y376963D01*
X82447Y377799D01*
X82619Y378215D01*
X83161D01*
X83333Y377799D01*
X83974Y376963D01*
X84810Y376322D01*
X85783Y375919D01*
X86827Y375782D01*
X87871Y375919D01*
X88844Y376322D01*
X89680Y376963D01*
X90321Y377799D01*
X90493Y378215D01*
X91035D01*
X91207Y377799D01*
X91848Y376963D01*
X92684Y376322D01*
X93657Y375919D01*
X94701Y375782D01*
X95745Y375919D01*
X96718Y376322D01*
X97554Y376963D01*
X98195Y377799D01*
X98368Y378215D01*
X98909D01*
X99081Y377799D01*
X99722Y376963D01*
X100558Y376322D01*
X101531Y375919D01*
X102575Y375782D01*
X103619Y375919D01*
X104592Y376322D01*
X105428Y376963D01*
X106069Y377799D01*
X106472Y378772D01*
X106610Y379816D01*
X106472Y380860D01*
X106069Y381833D01*
X105428Y382669D01*
X104592Y383310D01*
X103619Y383713D01*
X102575Y383851D01*
X101531Y383713D01*
X100558Y383310D01*
X99722Y382669D01*
X99081Y381833D01*
X98909Y381417D01*
X98368D01*
X98195Y381833D01*
X97554Y382669D01*
X96718Y383310D01*
X95745Y383713D01*
X94701Y383851D01*
X93657Y383713D01*
X92684Y383310D01*
X91848Y382669D01*
X91207Y381833D01*
X91035Y381417D01*
X90493D01*
X90321Y381833D01*
X89680Y382669D01*
X88844Y383310D01*
X88356Y383512D01*
Y433480D01*
X106929Y452052D01*
X107442Y451840D01*
X108500Y451700D01*
X109558Y451840D01*
X110543Y452248D01*
X111389Y452897D01*
X112039Y453744D01*
X112447Y454729D01*
X112586Y455787D01*
X112447Y456844D01*
X112039Y457830D01*
X111389Y458676D01*
X110543Y459325D01*
X109558Y459733D01*
X108500Y459873D01*
D02*
G37*
G36*
X288500Y449873D02*
X287442Y449733D01*
X286457Y449325D01*
X285611Y448676D01*
X284961Y447830D01*
X284553Y446844D01*
X284414Y445787D01*
X284553Y444729D01*
X284961Y443744D01*
X285611Y442897D01*
X286457Y442248D01*
X287442Y441840D01*
X288500Y441701D01*
X289558Y441840D01*
X290543Y442248D01*
X291389Y442897D01*
X292039Y443744D01*
X292447Y444729D01*
X292586Y445787D01*
X292447Y446844D01*
X292039Y447830D01*
X291389Y448676D01*
X290543Y449325D01*
X289558Y449733D01*
X288500Y449873D01*
D02*
G37*
G36*
X278500D02*
X277442Y449733D01*
X276457Y449325D01*
X275611Y448676D01*
X274961Y447830D01*
X274553Y446844D01*
X274414Y445787D01*
X274553Y444729D01*
X274961Y443744D01*
X275611Y442897D01*
X276457Y442248D01*
X277442Y441840D01*
X278500Y441701D01*
X279558Y441840D01*
X280543Y442248D01*
X281389Y442897D01*
X282039Y443744D01*
X282447Y444729D01*
X282586Y445787D01*
X282447Y446844D01*
X282039Y447830D01*
X281389Y448676D01*
X280543Y449325D01*
X279558Y449733D01*
X278500Y449873D01*
D02*
G37*
G36*
X118500D02*
X117442Y449733D01*
X116457Y449325D01*
X115611Y448676D01*
X114961Y447830D01*
X114553Y446844D01*
X114414Y445787D01*
X114553Y444729D01*
X114961Y443744D01*
X115611Y442897D01*
X116457Y442248D01*
X117442Y441840D01*
X118500Y441701D01*
X119558Y441840D01*
X120543Y442248D01*
X121389Y442897D01*
X122039Y443744D01*
X122447Y444729D01*
X122586Y445787D01*
X122447Y446844D01*
X122039Y447830D01*
X121389Y448676D01*
X120543Y449325D01*
X119558Y449733D01*
X118500Y449873D01*
D02*
G37*
G36*
X108500D02*
X107442Y449733D01*
X106457Y449325D01*
X105611Y448676D01*
X104961Y447830D01*
X104553Y446844D01*
X104414Y445787D01*
X104553Y444729D01*
X104961Y443744D01*
X105611Y442897D01*
X106457Y442248D01*
X107442Y441840D01*
X108500Y441701D01*
X109558Y441840D01*
X110543Y442248D01*
X111389Y442897D01*
X112039Y443744D01*
X112447Y444729D01*
X112586Y445787D01*
X112447Y446844D01*
X112039Y447830D01*
X111389Y448676D01*
X110543Y449325D01*
X109558Y449733D01*
X108500Y449873D01*
D02*
G37*
G36*
X288500Y439873D02*
X287442Y439734D01*
X286457Y439325D01*
X285611Y438676D01*
X284961Y437830D01*
X284553Y436844D01*
X284414Y435787D01*
X284553Y434729D01*
X284961Y433743D01*
X285611Y432897D01*
X286457Y432248D01*
X287442Y431840D01*
X288500Y431701D01*
X289558Y431840D01*
X290543Y432248D01*
X291389Y432897D01*
X292039Y433743D01*
X292447Y434729D01*
X292586Y435787D01*
X292447Y436844D01*
X292039Y437830D01*
X291389Y438676D01*
X290543Y439325D01*
X289558Y439734D01*
X288500Y439873D01*
D02*
G37*
G36*
X278500D02*
X277442Y439734D01*
X276457Y439325D01*
X275611Y438676D01*
X274961Y437830D01*
X274553Y436844D01*
X274414Y435787D01*
X274553Y434729D01*
X274961Y433743D01*
X275611Y432897D01*
X276457Y432248D01*
X277442Y431840D01*
X278500Y431701D01*
X279558Y431840D01*
X280543Y432248D01*
X281389Y432897D01*
X282039Y433743D01*
X282447Y434729D01*
X282586Y435787D01*
X282447Y436844D01*
X282039Y437830D01*
X281389Y438676D01*
X280543Y439325D01*
X279558Y439734D01*
X278500Y439873D01*
D02*
G37*
G36*
X118500D02*
X117442Y439734D01*
X116457Y439325D01*
X115611Y438676D01*
X114961Y437830D01*
X114553Y436844D01*
X114414Y435787D01*
X114553Y434729D01*
X114961Y433743D01*
X115611Y432897D01*
X116457Y432248D01*
X117442Y431840D01*
X118500Y431701D01*
X119558Y431840D01*
X120543Y432248D01*
X121389Y432897D01*
X122039Y433743D01*
X122447Y434729D01*
X122586Y435787D01*
X122447Y436844D01*
X122039Y437830D01*
X121389Y438676D01*
X120543Y439325D01*
X119558Y439734D01*
X118500Y439873D01*
D02*
G37*
G36*
X108500D02*
X107442Y439734D01*
X106457Y439325D01*
X105611Y438676D01*
X104961Y437830D01*
X104553Y436844D01*
X104414Y435787D01*
X104553Y434729D01*
X104961Y433743D01*
X105611Y432897D01*
X106457Y432248D01*
X107442Y431840D01*
X108500Y431701D01*
X109558Y431840D01*
X110543Y432248D01*
X111389Y432897D01*
X112039Y433743D01*
X112447Y434729D01*
X112586Y435787D01*
X112447Y436844D01*
X112039Y437830D01*
X111389Y438676D01*
X110543Y439325D01*
X109558Y439734D01*
X108500Y439873D01*
D02*
G37*
G36*
X62537Y437284D02*
X61624Y437164D01*
X60772Y436811D01*
X60041Y436250D01*
X59480Y435519D01*
X59127Y434667D01*
X59007Y433754D01*
X59127Y432840D01*
X59480Y431989D01*
X60041Y431257D01*
X60772Y430696D01*
X61624Y430344D01*
X62537Y430224D01*
X63451Y430344D01*
X64302Y430696D01*
X65034Y431257D01*
X65595Y431989D01*
X65947Y432840D01*
X66068Y433754D01*
X65947Y434667D01*
X65595Y435519D01*
X65034Y436250D01*
X64302Y436811D01*
X63451Y437164D01*
X62537Y437284D01*
D02*
G37*
G36*
X288500Y429873D02*
X287442Y429734D01*
X286457Y429325D01*
X285611Y428676D01*
X284961Y427830D01*
X284553Y426844D01*
X284414Y425787D01*
X284553Y424729D01*
X284961Y423743D01*
X285611Y422897D01*
X286457Y422248D01*
X287442Y421840D01*
X288500Y421700D01*
X289558Y421840D01*
X290543Y422248D01*
X291389Y422897D01*
X292039Y423743D01*
X292447Y424729D01*
X292586Y425787D01*
X292447Y426844D01*
X292039Y427830D01*
X291389Y428676D01*
X290543Y429325D01*
X289558Y429734D01*
X288500Y429873D01*
D02*
G37*
G36*
X278500D02*
X277442Y429734D01*
X276457Y429325D01*
X275611Y428676D01*
X274961Y427830D01*
X274553Y426844D01*
X274414Y425787D01*
X274553Y424729D01*
X274961Y423743D01*
X275611Y422897D01*
X276457Y422248D01*
X277442Y421840D01*
X278500Y421700D01*
X279558Y421840D01*
X280543Y422248D01*
X281389Y422897D01*
X282039Y423743D01*
X282447Y424729D01*
X282586Y425787D01*
X282447Y426844D01*
X282039Y427830D01*
X281389Y428676D01*
X280543Y429325D01*
X279558Y429734D01*
X278500Y429873D01*
D02*
G37*
G36*
X118500D02*
X117442Y429734D01*
X116457Y429325D01*
X115611Y428676D01*
X114961Y427830D01*
X114553Y426844D01*
X114414Y425787D01*
X114553Y424729D01*
X114961Y423743D01*
X115611Y422897D01*
X116457Y422248D01*
X117442Y421840D01*
X118500Y421700D01*
X119558Y421840D01*
X120543Y422248D01*
X121389Y422897D01*
X122039Y423743D01*
X122447Y424729D01*
X122586Y425787D01*
X122447Y426844D01*
X122039Y427830D01*
X121389Y428676D01*
X120543Y429325D01*
X119558Y429734D01*
X118500Y429873D01*
D02*
G37*
G36*
X108500D02*
X107442Y429734D01*
X106457Y429325D01*
X105611Y428676D01*
X104961Y427830D01*
X104553Y426844D01*
X104414Y425787D01*
X104553Y424729D01*
X104961Y423743D01*
X105611Y422897D01*
X106457Y422248D01*
X107442Y421840D01*
X108500Y421700D01*
X109558Y421840D01*
X110543Y422248D01*
X111389Y422897D01*
X112039Y423743D01*
X112447Y424729D01*
X112586Y425787D01*
X112447Y426844D01*
X112039Y427830D01*
X111389Y428676D01*
X110543Y429325D01*
X109558Y429734D01*
X108500Y429873D01*
D02*
G37*
G36*
X288500Y419873D02*
X287442Y419733D01*
X286457Y419325D01*
X285611Y418676D01*
X284961Y417830D01*
X284553Y416844D01*
X284414Y415787D01*
X284553Y414729D01*
X284961Y413743D01*
X285611Y412897D01*
X286457Y412248D01*
X287442Y411840D01*
X288500Y411700D01*
X289558Y411840D01*
X290543Y412248D01*
X291389Y412897D01*
X292039Y413743D01*
X292447Y414729D01*
X292586Y415787D01*
X292447Y416844D01*
X292039Y417830D01*
X291389Y418676D01*
X290543Y419325D01*
X289558Y419733D01*
X288500Y419873D01*
D02*
G37*
G36*
X278500D02*
X277442Y419733D01*
X276457Y419325D01*
X275611Y418676D01*
X274961Y417830D01*
X274553Y416844D01*
X274414Y415787D01*
X274553Y414729D01*
X274961Y413743D01*
X275611Y412897D01*
X276457Y412248D01*
X277442Y411840D01*
X278500Y411700D01*
X279558Y411840D01*
X280543Y412248D01*
X281389Y412897D01*
X282039Y413743D01*
X282447Y414729D01*
X282586Y415787D01*
X282447Y416844D01*
X282039Y417830D01*
X281389Y418676D01*
X280543Y419325D01*
X279558Y419733D01*
X278500Y419873D01*
D02*
G37*
G36*
X118500D02*
X117442Y419733D01*
X116457Y419325D01*
X115611Y418676D01*
X114961Y417830D01*
X114553Y416844D01*
X114414Y415787D01*
X114553Y414729D01*
X114961Y413743D01*
X115611Y412897D01*
X116457Y412248D01*
X117442Y411840D01*
X118500Y411700D01*
X119558Y411840D01*
X120543Y412248D01*
X121389Y412897D01*
X122039Y413743D01*
X122447Y414729D01*
X122586Y415787D01*
X122447Y416844D01*
X122039Y417830D01*
X121389Y418676D01*
X120543Y419325D01*
X119558Y419733D01*
X118500Y419873D01*
D02*
G37*
G36*
X108500D02*
X107442Y419733D01*
X106457Y419325D01*
X105611Y418676D01*
X104961Y417830D01*
X104553Y416844D01*
X104414Y415787D01*
X104553Y414729D01*
X104961Y413743D01*
X105611Y412897D01*
X106457Y412248D01*
X107442Y411840D01*
X108500Y411700D01*
X109558Y411840D01*
X110543Y412248D01*
X111389Y412897D01*
X112039Y413743D01*
X112447Y414729D01*
X112586Y415787D01*
X112447Y416844D01*
X112039Y417830D01*
X111389Y418676D01*
X110543Y419325D01*
X109558Y419733D01*
X108500Y419873D01*
D02*
G37*
G36*
X288500Y409873D02*
X287442Y409733D01*
X286457Y409325D01*
X285611Y408676D01*
X284961Y407830D01*
X284553Y406844D01*
X284414Y405787D01*
X284553Y404729D01*
X284961Y403744D01*
X285611Y402897D01*
X286457Y402248D01*
X287442Y401840D01*
X288500Y401700D01*
X289558Y401840D01*
X290543Y402248D01*
X291389Y402897D01*
X292039Y403744D01*
X292447Y404729D01*
X292586Y405787D01*
X292447Y406844D01*
X292039Y407830D01*
X291389Y408676D01*
X290543Y409325D01*
X289558Y409733D01*
X288500Y409873D01*
D02*
G37*
G36*
X278500D02*
X277442Y409733D01*
X276457Y409325D01*
X275611Y408676D01*
X274961Y407830D01*
X274553Y406844D01*
X274414Y405787D01*
X274553Y404729D01*
X274961Y403744D01*
X275611Y402897D01*
X276457Y402248D01*
X277442Y401840D01*
X278500Y401700D01*
X279558Y401840D01*
X280543Y402248D01*
X281389Y402897D01*
X282039Y403744D01*
X282447Y404729D01*
X282586Y405787D01*
X282447Y406844D01*
X282039Y407830D01*
X281389Y408676D01*
X280543Y409325D01*
X279558Y409733D01*
X278500Y409873D01*
D02*
G37*
G36*
X118500D02*
X117442Y409733D01*
X116457Y409325D01*
X115611Y408676D01*
X114961Y407830D01*
X114553Y406844D01*
X114414Y405787D01*
X114553Y404729D01*
X114961Y403744D01*
X115611Y402897D01*
X116457Y402248D01*
X117442Y401840D01*
X118500Y401700D01*
X119558Y401840D01*
X120543Y402248D01*
X121389Y402897D01*
X122039Y403744D01*
X122447Y404729D01*
X122586Y405787D01*
X122447Y406844D01*
X122039Y407830D01*
X121389Y408676D01*
X120543Y409325D01*
X119558Y409733D01*
X118500Y409873D01*
D02*
G37*
G36*
X108500D02*
X107442Y409733D01*
X106457Y409325D01*
X105611Y408676D01*
X104961Y407830D01*
X104553Y406844D01*
X104414Y405787D01*
X104553Y404729D01*
X104961Y403744D01*
X105611Y402897D01*
X106457Y402248D01*
X107442Y401840D01*
X108500Y401700D01*
X109558Y401840D01*
X110543Y402248D01*
X111389Y402897D01*
X112039Y403744D01*
X112447Y404729D01*
X112586Y405787D01*
X112447Y406844D01*
X112039Y407830D01*
X111389Y408676D01*
X110543Y409325D01*
X109558Y409733D01*
X108500Y409873D01*
D02*
G37*
G36*
X288500Y399873D02*
X287442Y399733D01*
X286457Y399325D01*
X285611Y398676D01*
X284961Y397830D01*
X284553Y396844D01*
X284414Y395787D01*
X284553Y394729D01*
X284961Y393743D01*
X285611Y392897D01*
X286457Y392248D01*
X287442Y391840D01*
X288500Y391701D01*
X289558Y391840D01*
X290543Y392248D01*
X291389Y392897D01*
X292039Y393743D01*
X292447Y394729D01*
X292586Y395787D01*
X292447Y396844D01*
X292039Y397830D01*
X291389Y398676D01*
X290543Y399325D01*
X289558Y399733D01*
X288500Y399873D01*
D02*
G37*
G36*
X278500D02*
X277442Y399733D01*
X276457Y399325D01*
X275611Y398676D01*
X274961Y397830D01*
X274553Y396844D01*
X274414Y395787D01*
X274553Y394729D01*
X274961Y393743D01*
X275611Y392897D01*
X276457Y392248D01*
X277442Y391840D01*
X278500Y391701D01*
X279558Y391840D01*
X280543Y392248D01*
X281389Y392897D01*
X282039Y393743D01*
X282447Y394729D01*
X282586Y395787D01*
X282447Y396844D01*
X282039Y397830D01*
X281389Y398676D01*
X280543Y399325D01*
X279558Y399733D01*
X278500Y399873D01*
D02*
G37*
G36*
X118500D02*
X117442Y399733D01*
X116457Y399325D01*
X115611Y398676D01*
X114961Y397830D01*
X114553Y396844D01*
X114414Y395787D01*
X114553Y394729D01*
X114961Y393743D01*
X115611Y392897D01*
X116457Y392248D01*
X117442Y391840D01*
X118500Y391701D01*
X119558Y391840D01*
X120543Y392248D01*
X121389Y392897D01*
X122039Y393743D01*
X122447Y394729D01*
X122586Y395787D01*
X122447Y396844D01*
X122039Y397830D01*
X121389Y398676D01*
X120543Y399325D01*
X119558Y399733D01*
X118500Y399873D01*
D02*
G37*
G36*
X108500D02*
X107442Y399733D01*
X106457Y399325D01*
X105611Y398676D01*
X104961Y397830D01*
X104553Y396844D01*
X104414Y395787D01*
X104553Y394729D01*
X104961Y393743D01*
X105611Y392897D01*
X106457Y392248D01*
X107442Y391840D01*
X108500Y391701D01*
X109558Y391840D01*
X110543Y392248D01*
X111389Y392897D01*
X112039Y393743D01*
X112447Y394729D01*
X112586Y395787D01*
X112447Y396844D01*
X112039Y397830D01*
X111389Y398676D01*
X110543Y399325D01*
X109558Y399733D01*
X108500Y399873D01*
D02*
G37*
G36*
X31209Y383785D02*
X30665Y383713D01*
X29692Y383310D01*
X28856Y382669D01*
X28215Y381833D01*
X27812Y380860D01*
X27740Y380316D01*
X31209D01*
Y383785D01*
D02*
G37*
G36*
Y379316D02*
X27740D01*
X27812Y378772D01*
X28215Y377799D01*
X28856Y376963D01*
X29692Y376322D01*
X30665Y375919D01*
X31209Y375847D01*
Y379316D01*
D02*
G37*
G36*
X83352Y340120D02*
Y337156D01*
X86316D01*
X86262Y337570D01*
X85909Y338421D01*
X85348Y339152D01*
X84617Y339713D01*
X83766Y340066D01*
X83352Y340120D01*
D02*
G37*
G36*
X82352D02*
X81938Y340066D01*
X81087Y339713D01*
X80356Y339152D01*
X79795Y338421D01*
X79442Y337570D01*
X79388Y337156D01*
X82352D01*
Y340120D01*
D02*
G37*
G36*
X86316Y336156D02*
X83352D01*
Y333192D01*
X83766Y333246D01*
X84617Y333599D01*
X85348Y334160D01*
X85909Y334891D01*
X86262Y335742D01*
X86316Y336156D01*
D02*
G37*
G36*
X82352D02*
X79388D01*
X79442Y335742D01*
X79795Y334891D01*
X80356Y334160D01*
X81087Y333599D01*
X81938Y333246D01*
X82352Y333192D01*
Y336156D01*
D02*
G37*
G36*
X104026Y310703D02*
X103112Y310583D01*
X102261Y310230D01*
X101530Y309669D01*
X100969Y308938D01*
X100616Y308087D01*
X100496Y307173D01*
X100616Y306259D01*
X100969Y305408D01*
X101530Y304677D01*
X102261Y304116D01*
X103112Y303763D01*
X104026Y303643D01*
X104940Y303763D01*
X105791Y304116D01*
X106522Y304677D01*
X107083Y305408D01*
X107436Y306259D01*
X107556Y307173D01*
X107436Y308087D01*
X107083Y308938D01*
X106522Y309669D01*
X105791Y310230D01*
X104940Y310583D01*
X104026Y310703D01*
D02*
G37*
G36*
X89847Y310557D02*
X88933Y310437D01*
X88082Y310084D01*
X87351Y309523D01*
X86790Y308792D01*
X86437Y307941D01*
X86317Y307027D01*
X86437Y306113D01*
X86790Y305262D01*
X87351Y304531D01*
X88082Y303970D01*
X88933Y303617D01*
X89847Y303497D01*
X90761Y303617D01*
X91612Y303970D01*
X92343Y304531D01*
X92904Y305262D01*
X93257Y306113D01*
X93377Y307027D01*
X93257Y307941D01*
X92904Y308792D01*
X92343Y309523D01*
X91612Y310084D01*
X90761Y310437D01*
X89847Y310557D01*
D02*
G37*
G36*
X102575Y297236D02*
X101531Y297099D01*
X100558Y296696D01*
X99722Y296055D01*
X99081Y295219D01*
X98909Y294803D01*
X98368D01*
X98195Y295219D01*
X97554Y296055D01*
X96718Y296696D01*
X95745Y297099D01*
X94701Y297236D01*
X93657Y297099D01*
X92684Y296696D01*
X91848Y296055D01*
X91207Y295219D01*
X91035Y294803D01*
X90493D01*
X90321Y295219D01*
X89680Y296055D01*
X88844Y296696D01*
X87871Y297099D01*
X86827Y297236D01*
X85783Y297099D01*
X84810Y296696D01*
X83974Y296055D01*
X83333Y295219D01*
X83161Y294803D01*
X82619D01*
X82447Y295219D01*
X81806Y296055D01*
X80970Y296696D01*
X79997Y297099D01*
X78953Y297236D01*
X77909Y297099D01*
X76936Y296696D01*
X76100Y296055D01*
X75459Y295219D01*
X75287Y294803D01*
X74745D01*
X74573Y295219D01*
X73932Y296055D01*
X73096Y296696D01*
X72123Y297099D01*
X71079Y297236D01*
X70035Y297099D01*
X69062Y296696D01*
X68226Y296055D01*
X67585Y295219D01*
X67413Y294803D01*
X66871D01*
X66699Y295219D01*
X66058Y296055D01*
X65222Y296696D01*
X64249Y297099D01*
X63205Y297236D01*
X62161Y297099D01*
X61188Y296696D01*
X60352Y296055D01*
X59711Y295219D01*
X59539Y294803D01*
X58997D01*
X58825Y295219D01*
X58184Y296055D01*
X57348Y296696D01*
X56375Y297099D01*
X55831Y297171D01*
Y293202D01*
Y289233D01*
X56375Y289305D01*
X57348Y289708D01*
X58184Y290349D01*
X58825Y291185D01*
X58997Y291601D01*
X59539D01*
X59711Y291185D01*
X60352Y290349D01*
X61188Y289708D01*
X62161Y289305D01*
X63205Y289167D01*
X64249Y289305D01*
X65222Y289708D01*
X66058Y290349D01*
X66699Y291185D01*
X66871Y291601D01*
X67413D01*
X67585Y291185D01*
X68226Y290349D01*
X69062Y289708D01*
X70035Y289305D01*
X71079Y289167D01*
X72123Y289305D01*
X73096Y289708D01*
X73932Y290349D01*
X74573Y291185D01*
X74745Y291601D01*
X75287D01*
X75459Y291185D01*
X76100Y290349D01*
X76936Y289708D01*
X77909Y289305D01*
X78953Y289167D01*
X79997Y289305D01*
X80970Y289708D01*
X81806Y290349D01*
X82447Y291185D01*
X82619Y291601D01*
X83161D01*
X83333Y291185D01*
X83974Y290349D01*
X84810Y289708D01*
X85783Y289305D01*
X86827Y289167D01*
X87871Y289305D01*
X88844Y289708D01*
X89680Y290349D01*
X90321Y291185D01*
X90493Y291601D01*
X91035D01*
X91207Y291185D01*
X91848Y290349D01*
X92684Y289708D01*
X93657Y289305D01*
X94701Y289167D01*
X95745Y289305D01*
X96718Y289708D01*
X97554Y290349D01*
X98195Y291185D01*
X98368Y291601D01*
X98909D01*
X99081Y291185D01*
X99722Y290349D01*
X100558Y289708D01*
X101531Y289305D01*
X102575Y289167D01*
X103619Y289305D01*
X104592Y289708D01*
X105428Y290349D01*
X106069Y291185D01*
X106472Y292158D01*
X106610Y293202D01*
X106472Y294246D01*
X106069Y295219D01*
X105428Y296055D01*
X104592Y296696D01*
X103619Y297099D01*
X102575Y297236D01*
D02*
G37*
G36*
X47457D02*
X46413Y297099D01*
X45440Y296696D01*
X44604Y296055D01*
X43963Y295219D01*
X43791Y294803D01*
X43249D01*
X43077Y295219D01*
X42436Y296055D01*
X41600Y296696D01*
X40627Y297099D01*
X39583Y297236D01*
X38539Y297099D01*
X37566Y296696D01*
X36730Y296055D01*
X36089Y295219D01*
X35917Y294803D01*
X35375D01*
X35203Y295219D01*
X34562Y296055D01*
X33726Y296696D01*
X32753Y297099D01*
X31709Y297236D01*
X30665Y297099D01*
X29692Y296696D01*
X28856Y296055D01*
X28215Y295219D01*
X27812Y294246D01*
X27674Y293202D01*
X27812Y292158D01*
X28215Y291185D01*
X28856Y290349D01*
X29692Y289708D01*
X30665Y289305D01*
X31709Y289167D01*
X32753Y289305D01*
X33726Y289708D01*
X34562Y290349D01*
X35203Y291185D01*
X35375Y291601D01*
X35917D01*
X36089Y291185D01*
X36730Y290349D01*
X37566Y289708D01*
X38539Y289305D01*
X39583Y289167D01*
X40627Y289305D01*
X41600Y289708D01*
X42436Y290349D01*
X43077Y291185D01*
X43249Y291601D01*
X43791D01*
X43963Y291185D01*
X44604Y290349D01*
X45440Y289708D01*
X46413Y289305D01*
X47457Y289167D01*
X48501Y289305D01*
X49474Y289708D01*
X50310Y290349D01*
X50951Y291185D01*
X51123Y291601D01*
X51665D01*
X51837Y291185D01*
X52478Y290349D01*
X53314Y289708D01*
X54287Y289305D01*
X54831Y289233D01*
Y293202D01*
Y297171D01*
X54287Y297099D01*
X53314Y296696D01*
X52478Y296055D01*
X51837Y295219D01*
X51665Y294803D01*
X51123D01*
X50951Y295219D01*
X50310Y296055D01*
X49474Y296696D01*
X48501Y297099D01*
X47457Y297236D01*
D02*
G37*
G36*
X357673Y297522D02*
Y293505D01*
X361690D01*
X361600Y294191D01*
X361142Y295296D01*
X360414Y296245D01*
X359464Y296974D01*
X358359Y297431D01*
X357673Y297522D01*
D02*
G37*
G36*
X356673Y297522D02*
X355987Y297431D01*
X354882Y296974D01*
X353933Y296245D01*
X353205Y295296D01*
X352747Y294191D01*
X352657Y293505D01*
X356673D01*
Y297522D01*
D02*
G37*
G36*
X266546Y298105D02*
X265632Y297985D01*
X264781Y297632D01*
X264050Y297071D01*
X263489Y296340D01*
X263136Y295489D01*
X263016Y294575D01*
X263136Y293661D01*
X263489Y292810D01*
X264050Y292079D01*
X264781Y291518D01*
X265632Y291165D01*
X266546Y291045D01*
X267460Y291165D01*
X268311Y291518D01*
X269042Y292079D01*
X269603Y292810D01*
X269956Y293661D01*
X270076Y294575D01*
X269956Y295489D01*
X269603Y296340D01*
X269042Y297071D01*
X268311Y297632D01*
X267460Y297985D01*
X266546Y298105D01*
D02*
G37*
G36*
X385441Y297389D02*
X384306Y297240D01*
X383249Y296802D01*
X382341Y296105D01*
X381644Y295197D01*
X381206Y294140D01*
X381057Y293005D01*
X381206Y291870D01*
X381644Y290813D01*
X382341Y289905D01*
X383249Y289208D01*
X384306Y288770D01*
X385441Y288621D01*
X386576Y288770D01*
X387633Y289208D01*
X388541Y289905D01*
X389238Y290813D01*
X389676Y291870D01*
X389825Y293005D01*
X389676Y294140D01*
X389238Y295197D01*
X388541Y296105D01*
X387633Y296802D01*
X386576Y297240D01*
X385441Y297389D01*
D02*
G37*
G36*
X356673Y292505D02*
X352657D01*
X352747Y291819D01*
X353205Y290714D01*
X353933Y289765D01*
X354882Y289036D01*
X355987Y288579D01*
X356673Y288488D01*
Y292505D01*
D02*
G37*
G36*
X361690D02*
X357673D01*
Y288488D01*
X358359Y288579D01*
X359464Y289036D01*
X360414Y289765D01*
X361142Y290714D01*
X361600Y291819D01*
X361690Y292505D01*
D02*
G37*
G36*
X385441Y287546D02*
X384306Y287397D01*
X383249Y286959D01*
X382341Y286262D01*
X381644Y285354D01*
X381206Y284297D01*
X381057Y283162D01*
X381206Y282028D01*
X381644Y280970D01*
X382341Y280063D01*
X383249Y279366D01*
X384306Y278928D01*
X385441Y278778D01*
X386576Y278928D01*
X387633Y279366D01*
X388541Y280063D01*
X389238Y280970D01*
X389676Y282028D01*
X389825Y283162D01*
X389676Y284297D01*
X389238Y285354D01*
X388541Y286262D01*
X387633Y286959D01*
X386576Y287397D01*
X385441Y287546D01*
D02*
G37*
G36*
X357173Y287745D02*
X355987Y287589D01*
X354882Y287131D01*
X353933Y286403D01*
X353205Y285454D01*
X352747Y284348D01*
X352591Y283162D01*
X352747Y281976D01*
X353205Y280871D01*
X353933Y279922D01*
X354882Y279194D01*
X355987Y278736D01*
X357173Y278580D01*
X358359Y278736D01*
X359464Y279194D01*
X360414Y279922D01*
X361142Y280871D01*
X361600Y281976D01*
X361756Y283162D01*
X361600Y284348D01*
X361142Y285454D01*
X360414Y286403D01*
X359464Y287131D01*
X358359Y287589D01*
X357173Y287745D01*
D02*
G37*
G36*
X219325Y257255D02*
X218088Y257092D01*
X216934Y256614D01*
X215944Y255855D01*
X215184Y254865D01*
X214707Y253711D01*
X214544Y252474D01*
X214707Y251237D01*
X215184Y250083D01*
X215944Y249093D01*
X216934Y248334D01*
X218088Y247856D01*
X219325Y247693D01*
X220562Y247856D01*
X221715Y248334D01*
X222706Y249093D01*
X223465Y250083D01*
X223943Y251237D01*
X224106Y252474D01*
X223943Y253711D01*
X223465Y254865D01*
X222706Y255855D01*
X221715Y256614D01*
X220562Y257092D01*
X219325Y257255D01*
D02*
G37*
G36*
X177593Y251539D02*
X176239Y251406D01*
X174937Y251011D01*
X173738Y250370D01*
X172686Y249507D01*
X171823Y248455D01*
X171182Y247255D01*
X170787Y245954D01*
X170654Y244600D01*
X170787Y243246D01*
X171182Y241945D01*
X171823Y240745D01*
X172686Y239693D01*
X173738Y238830D01*
X174937Y238189D01*
X176239Y237794D01*
X177593Y237661D01*
X178946Y237794D01*
X180248Y238189D01*
X181448Y238830D01*
X182499Y239693D01*
X183362Y240745D01*
X184003Y241945D01*
X184398Y243246D01*
X184532Y244600D01*
X184398Y245954D01*
X184003Y247255D01*
X183362Y248455D01*
X182499Y249507D01*
X181448Y250370D01*
X180248Y251011D01*
X178946Y251406D01*
X177593Y251539D01*
D02*
G37*
G36*
X385682Y244046D02*
X384547Y243897D01*
X383490Y243459D01*
X382582Y242762D01*
X381885Y241854D01*
X381447Y240797D01*
X381298Y239662D01*
X381447Y238527D01*
X381885Y237470D01*
X382582Y236562D01*
X383490Y235865D01*
X384547Y235427D01*
X385682Y235278D01*
X386817Y235427D01*
X387874Y235865D01*
X388782Y236562D01*
X389479Y237470D01*
X389917Y238527D01*
X390066Y239662D01*
X389917Y240797D01*
X389479Y241854D01*
X388782Y242762D01*
X387874Y243459D01*
X386817Y243897D01*
X385682Y244046D01*
D02*
G37*
G36*
X352115Y244205D02*
X343028D01*
Y235119D01*
X352115D01*
Y244205D01*
D02*
G37*
G36*
X357414Y244245D02*
X356228Y244088D01*
X355123Y243631D01*
X354174Y242902D01*
X353446Y241953D01*
X352988Y240848D01*
X352832Y239662D01*
X352988Y238476D01*
X353446Y237371D01*
X354174Y236422D01*
X355123Y235693D01*
X356228Y235236D01*
X357414Y235080D01*
X358600Y235236D01*
X359705Y235693D01*
X360654Y236422D01*
X361383Y237371D01*
X361841Y238476D01*
X361997Y239662D01*
X361841Y240848D01*
X361383Y241953D01*
X360654Y242902D01*
X359705Y243631D01*
X358600Y244088D01*
X357414Y244245D01*
D02*
G37*
G36*
X229168Y247602D02*
X227814Y247469D01*
X226512Y247074D01*
X225312Y246432D01*
X224261Y245570D01*
X223398Y244518D01*
X222757Y243318D01*
X222362Y242017D01*
X222229Y240663D01*
X222362Y239309D01*
X222757Y238008D01*
X223398Y236808D01*
X224261Y235756D01*
X225312Y234893D01*
X226512Y234252D01*
X227814Y233857D01*
X229168Y233724D01*
X230521Y233857D01*
X231823Y234252D01*
X233023Y234893D01*
X234074Y235756D01*
X234937Y236808D01*
X235578Y238008D01*
X235973Y239309D01*
X236106Y240663D01*
X235973Y242017D01*
X235578Y243318D01*
X234937Y244518D01*
X234074Y245570D01*
X233023Y246432D01*
X231823Y247074D01*
X230521Y247469D01*
X229168Y247602D01*
D02*
G37*
G36*
X248836Y235632D02*
Y232668D01*
X251800D01*
X251746Y233082D01*
X251393Y233933D01*
X250832Y234664D01*
X250101Y235225D01*
X249250Y235578D01*
X248836Y235632D01*
D02*
G37*
G36*
X247836D02*
X247422Y235578D01*
X246571Y235225D01*
X245840Y234664D01*
X245279Y233933D01*
X244926Y233082D01*
X244872Y232668D01*
X247836D01*
Y235632D01*
D02*
G37*
G36*
X281368Y239861D02*
X275632D01*
X275170Y239769D01*
X274779Y239508D01*
X274517Y239116D01*
X274426Y238655D01*
Y232919D01*
X274517Y232457D01*
X274779Y232066D01*
X275170Y231804D01*
X275632Y231712D01*
X281368D01*
X281830Y231804D01*
X282221Y232066D01*
X282483Y232457D01*
X282574Y232919D01*
Y238655D01*
X282483Y239116D01*
X282221Y239508D01*
X281830Y239769D01*
X281368Y239861D01*
D02*
G37*
G36*
X111368D02*
X105632D01*
X105170Y239769D01*
X104779Y239508D01*
X104517Y239116D01*
X104426Y238655D01*
Y232919D01*
X104517Y232457D01*
X104779Y232066D01*
X105170Y231804D01*
X105632Y231712D01*
X111368D01*
X111830Y231804D01*
X112221Y232066D01*
X112483Y232457D01*
X112574Y232919D01*
Y238655D01*
X112483Y239116D01*
X112221Y239508D01*
X111830Y239769D01*
X111368Y239861D01*
D02*
G37*
G36*
X288500Y239873D02*
X287442Y239734D01*
X286457Y239325D01*
X285611Y238676D01*
X284961Y237830D01*
X284553Y236844D01*
X284414Y235787D01*
X284553Y234729D01*
X284961Y233744D01*
X285611Y232897D01*
X286457Y232248D01*
X287442Y231840D01*
X288500Y231700D01*
X289558Y231840D01*
X290543Y232248D01*
X291389Y232897D01*
X292039Y233744D01*
X292447Y234729D01*
X292586Y235787D01*
X292447Y236844D01*
X292039Y237830D01*
X291389Y238676D01*
X290543Y239325D01*
X289558Y239734D01*
X288500Y239873D01*
D02*
G37*
G36*
X118500D02*
X117442Y239734D01*
X116457Y239325D01*
X115611Y238676D01*
X114961Y237830D01*
X114553Y236844D01*
X114414Y235787D01*
X114553Y234729D01*
X114961Y233744D01*
X115611Y232897D01*
X116457Y232248D01*
X117442Y231840D01*
X118500Y231700D01*
X119558Y231840D01*
X120543Y232248D01*
X121389Y232897D01*
X122039Y233744D01*
X122447Y234729D01*
X122586Y235787D01*
X122447Y236844D01*
X122039Y237830D01*
X121389Y238676D01*
X120543Y239325D01*
X119558Y239734D01*
X118500Y239873D01*
D02*
G37*
G36*
X251800Y231668D02*
X248836D01*
Y228704D01*
X249250Y228758D01*
X250101Y229111D01*
X250832Y229672D01*
X251393Y230403D01*
X251746Y231254D01*
X251800Y231668D01*
D02*
G37*
G36*
X247836D02*
X244872D01*
X244926Y231254D01*
X245279Y230403D01*
X245840Y229672D01*
X246571Y229111D01*
X247422Y228758D01*
X247836Y228704D01*
Y231668D01*
D02*
G37*
G36*
X119000Y229807D02*
Y226287D01*
X122520D01*
X122447Y226844D01*
X122039Y227830D01*
X121389Y228676D01*
X120543Y229325D01*
X119558Y229733D01*
X119000Y229807D01*
D02*
G37*
G36*
X118000Y229807D02*
X117442Y229733D01*
X116457Y229325D01*
X115611Y228676D01*
X114961Y227830D01*
X114553Y226844D01*
X114480Y226287D01*
X118000D01*
Y229807D01*
D02*
G37*
G36*
X357414Y234402D02*
X356228Y234246D01*
X355123Y233788D01*
X354174Y233060D01*
X353446Y232111D01*
X352988Y231005D01*
X352832Y229819D01*
X352988Y228633D01*
X353446Y227528D01*
X354174Y226579D01*
X355123Y225851D01*
X356228Y225393D01*
X357414Y225237D01*
X358600Y225393D01*
X359705Y225851D01*
X360654Y226579D01*
X361383Y227528D01*
X361841Y228633D01*
X361997Y229819D01*
X361841Y231005D01*
X361383Y232111D01*
X360654Y233060D01*
X359705Y233788D01*
X358600Y234246D01*
X357414Y234402D01*
D02*
G37*
G36*
X347572D02*
X346386Y234246D01*
X345281Y233788D01*
X344332Y233060D01*
X343603Y232111D01*
X343145Y231005D01*
X342989Y229819D01*
X343145Y228633D01*
X343603Y227528D01*
X344332Y226579D01*
X345281Y225851D01*
X346386Y225393D01*
X347572Y225237D01*
X348758Y225393D01*
X349863Y225851D01*
X350812Y226579D01*
X351540Y227528D01*
X351998Y228633D01*
X352154Y229819D01*
X351998Y231005D01*
X351540Y232111D01*
X350812Y233060D01*
X349863Y233788D01*
X348758Y234246D01*
X347572Y234402D01*
D02*
G37*
G36*
X118000Y225287D02*
X114480D01*
X114553Y224729D01*
X114961Y223744D01*
X115611Y222897D01*
X116457Y222248D01*
X117442Y221840D01*
X118000Y221766D01*
Y225287D01*
D02*
G37*
G36*
X122520D02*
X119000D01*
Y221766D01*
X119558Y221840D01*
X120543Y222248D01*
X121389Y222897D01*
X122039Y223744D01*
X122447Y224729D01*
X122520Y225287D01*
D02*
G37*
G36*
X288500Y229873D02*
X287442Y229733D01*
X286457Y229325D01*
X285611Y228676D01*
X284961Y227830D01*
X284553Y226844D01*
X284414Y225787D01*
X284553Y224729D01*
X284961Y223744D01*
X285611Y222897D01*
X286457Y222248D01*
X287442Y221840D01*
X288500Y221701D01*
X289558Y221840D01*
X290543Y222248D01*
X291389Y222897D01*
X292039Y223744D01*
X292447Y224729D01*
X292586Y225787D01*
X292447Y226844D01*
X292039Y227830D01*
X291389Y228676D01*
X290543Y229325D01*
X289558Y229733D01*
X288500Y229873D01*
D02*
G37*
G36*
X278500D02*
X277442Y229733D01*
X276457Y229325D01*
X275611Y228676D01*
X274961Y227830D01*
X274553Y226844D01*
X274414Y225787D01*
X274553Y224729D01*
X274961Y223744D01*
X275611Y222897D01*
X276457Y222248D01*
X277442Y221840D01*
X278500Y221701D01*
X279558Y221840D01*
X280543Y222248D01*
X281389Y222897D01*
X282039Y223744D01*
X282447Y224729D01*
X282586Y225787D01*
X282447Y226844D01*
X282039Y227830D01*
X281389Y228676D01*
X280543Y229325D01*
X279558Y229733D01*
X278500Y229873D01*
D02*
G37*
G36*
X108500D02*
X107442Y229733D01*
X106457Y229325D01*
X105611Y228676D01*
X104961Y227830D01*
X104553Y226844D01*
X104414Y225787D01*
X104553Y224729D01*
X104961Y223744D01*
X105611Y222897D01*
X106457Y222248D01*
X107442Y221840D01*
X108500Y221701D01*
X109558Y221840D01*
X110543Y222248D01*
X111389Y222897D01*
X112039Y223744D01*
X112447Y224729D01*
X112586Y225787D01*
X112447Y226844D01*
X112039Y227830D01*
X111389Y228676D01*
X110543Y229325D01*
X109558Y229733D01*
X108500Y229873D01*
D02*
G37*
G36*
X229168Y231854D02*
X227814Y231721D01*
X226512Y231326D01*
X225312Y230684D01*
X224261Y229822D01*
X223398Y228770D01*
X222757Y227570D01*
X222362Y226269D01*
X222229Y224915D01*
X222362Y223561D01*
X222757Y222260D01*
X223398Y221060D01*
X224261Y220008D01*
X225312Y219145D01*
X226512Y218504D01*
X227814Y218109D01*
X229168Y217976D01*
X230521Y218109D01*
X231823Y218504D01*
X233023Y219145D01*
X234074Y220008D01*
X234937Y221060D01*
X235578Y222260D01*
X235973Y223561D01*
X236106Y224915D01*
X235973Y226269D01*
X235578Y227570D01*
X234937Y228770D01*
X234074Y229822D01*
X233023Y230684D01*
X231823Y231326D01*
X230521Y231721D01*
X229168Y231854D01*
D02*
G37*
G36*
X357414Y224559D02*
X356228Y224403D01*
X355123Y223945D01*
X354174Y223217D01*
X353446Y222268D01*
X352988Y221163D01*
X352832Y219977D01*
X352988Y218791D01*
X353446Y217686D01*
X354174Y216737D01*
X355123Y216008D01*
X356228Y215550D01*
X357414Y215394D01*
X358600Y215550D01*
X359705Y216008D01*
X360654Y216737D01*
X361383Y217686D01*
X361841Y218791D01*
X361997Y219977D01*
X361841Y221163D01*
X361383Y222268D01*
X360654Y223217D01*
X359705Y223945D01*
X358600Y224403D01*
X357414Y224559D01*
D02*
G37*
G36*
X347572D02*
X346386Y224403D01*
X345281Y223945D01*
X344332Y223217D01*
X343603Y222268D01*
X343145Y221163D01*
X342989Y219977D01*
X343145Y218791D01*
X343603Y217686D01*
X344332Y216737D01*
X345281Y216008D01*
X346386Y215550D01*
X347572Y215394D01*
X348758Y215550D01*
X349863Y216008D01*
X350812Y216737D01*
X351540Y217686D01*
X351998Y218791D01*
X352154Y219977D01*
X351998Y221163D01*
X351540Y222268D01*
X350812Y223217D01*
X349863Y223945D01*
X348758Y224403D01*
X347572Y224559D01*
D02*
G37*
G36*
X177593Y227917D02*
X176239Y227784D01*
X174937Y227389D01*
X173738Y226747D01*
X172686Y225885D01*
X171823Y224833D01*
X171182Y223633D01*
X170787Y222332D01*
X170654Y220978D01*
X170787Y219624D01*
X171182Y218323D01*
X171823Y217123D01*
X172686Y216071D01*
X173738Y215209D01*
X174937Y214567D01*
X176239Y214172D01*
X177593Y214039D01*
X178946Y214172D01*
X180248Y214567D01*
X181448Y215209D01*
X182499Y216071D01*
X183362Y217123D01*
X184003Y218323D01*
X184398Y219624D01*
X184532Y220978D01*
X184398Y222332D01*
X184003Y223633D01*
X183362Y224833D01*
X182499Y225885D01*
X181448Y226747D01*
X180248Y227389D01*
X178946Y227784D01*
X177593Y227917D01*
D02*
G37*
G36*
X288500Y219873D02*
X287442Y219734D01*
X286457Y219325D01*
X285611Y218676D01*
X284961Y217830D01*
X284553Y216844D01*
X284414Y215787D01*
X284553Y214729D01*
X284961Y213743D01*
X285611Y212897D01*
X286457Y212248D01*
X287442Y211840D01*
X288500Y211701D01*
X289558Y211840D01*
X290543Y212248D01*
X291389Y212897D01*
X292039Y213743D01*
X292447Y214729D01*
X292586Y215787D01*
X292447Y216844D01*
X292039Y217830D01*
X291389Y218676D01*
X290543Y219325D01*
X289558Y219734D01*
X288500Y219873D01*
D02*
G37*
G36*
X278500D02*
X277442Y219734D01*
X276457Y219325D01*
X275611Y218676D01*
X274961Y217830D01*
X274553Y216844D01*
X274414Y215787D01*
X274553Y214729D01*
X274961Y213743D01*
X275611Y212897D01*
X276457Y212248D01*
X277442Y211840D01*
X278500Y211701D01*
X279558Y211840D01*
X280543Y212248D01*
X281389Y212897D01*
X282039Y213743D01*
X282447Y214729D01*
X282586Y215787D01*
X282447Y216844D01*
X282039Y217830D01*
X281389Y218676D01*
X280543Y219325D01*
X279558Y219734D01*
X278500Y219873D01*
D02*
G37*
G36*
X118500D02*
X117442Y219734D01*
X116457Y219325D01*
X115611Y218676D01*
X114961Y217830D01*
X114553Y216844D01*
X114414Y215787D01*
X114553Y214729D01*
X114961Y213743D01*
X115611Y212897D01*
X116457Y212248D01*
X117442Y211840D01*
X118500Y211701D01*
X119558Y211840D01*
X120543Y212248D01*
X121389Y212897D01*
X122039Y213743D01*
X122447Y214729D01*
X122586Y215787D01*
X122447Y216844D01*
X122039Y217830D01*
X121389Y218676D01*
X120543Y219325D01*
X119558Y219734D01*
X118500Y219873D01*
D02*
G37*
G36*
X108500D02*
X107442Y219734D01*
X106457Y219325D01*
X105611Y218676D01*
X104961Y217830D01*
X104553Y216844D01*
X104414Y215787D01*
X104553Y214729D01*
X104961Y213743D01*
X105611Y212897D01*
X106457Y212248D01*
X107442Y211840D01*
X108500Y211701D01*
X109558Y211840D01*
X110543Y212248D01*
X111389Y212897D01*
X112039Y213743D01*
X112447Y214729D01*
X112586Y215787D01*
X112447Y216844D01*
X112039Y217830D01*
X111389Y218676D01*
X110543Y219325D01*
X109558Y219734D01*
X108500Y219873D01*
D02*
G37*
G36*
X16102Y220368D02*
X14968Y220219D01*
X13910Y219781D01*
X13002Y219084D01*
X12306Y218176D01*
X11868Y217119D01*
X11718Y215984D01*
X11868Y214850D01*
X12306Y213792D01*
X13002Y212884D01*
X13910Y212188D01*
X14968Y211750D01*
X16102Y211600D01*
X17237Y211750D01*
X18294Y212188D01*
X19202Y212884D01*
X19899Y213792D01*
X20337Y214850D01*
X20486Y215984D01*
X20337Y217119D01*
X19899Y218176D01*
X19202Y219084D01*
X18294Y219781D01*
X17237Y220219D01*
X16102Y220368D01*
D02*
G37*
G36*
X54213Y220567D02*
X53027Y220411D01*
X51921Y219953D01*
X50972Y219225D01*
X50244Y218275D01*
X49786Y217170D01*
X49630Y215984D01*
X49786Y214798D01*
X50244Y213693D01*
X50972Y212744D01*
X51921Y212016D01*
X53027Y211558D01*
X54213Y211402D01*
X55399Y211558D01*
X56504Y212016D01*
X57453Y212744D01*
X58181Y213693D01*
X58639Y214798D01*
X58795Y215984D01*
X58639Y217170D01*
X58181Y218275D01*
X57453Y219225D01*
X56504Y219953D01*
X55399Y220411D01*
X54213Y220567D01*
D02*
G37*
G36*
X44370D02*
X43184Y220411D01*
X42079Y219953D01*
X41130Y219225D01*
X40402Y218275D01*
X39944Y217170D01*
X39788Y215984D01*
X39944Y214798D01*
X40402Y213693D01*
X41130Y212744D01*
X42079Y212016D01*
X43184Y211558D01*
X44370Y211402D01*
X45556Y211558D01*
X46661Y212016D01*
X47610Y212744D01*
X48339Y213693D01*
X48796Y214798D01*
X48953Y215984D01*
X48796Y217170D01*
X48339Y218275D01*
X47610Y219225D01*
X46661Y219953D01*
X45556Y220411D01*
X44370Y220567D01*
D02*
G37*
G36*
X219325Y217885D02*
X218088Y217722D01*
X216934Y217245D01*
X215944Y216485D01*
X215184Y215494D01*
X214707Y214341D01*
X214544Y213104D01*
X214707Y211867D01*
X215184Y210714D01*
X215944Y209723D01*
X216934Y208963D01*
X218088Y208486D01*
X219325Y208323D01*
X220562Y208486D01*
X221715Y208963D01*
X222706Y209723D01*
X223465Y210714D01*
X223943Y211867D01*
X224106Y213104D01*
X223943Y214341D01*
X223465Y215494D01*
X222706Y216485D01*
X221715Y217245D01*
X220562Y217722D01*
X219325Y217885D01*
D02*
G37*
G36*
X44870Y210658D02*
Y206641D01*
X48887D01*
X48796Y207328D01*
X48339Y208433D01*
X47610Y209382D01*
X46661Y210110D01*
X45556Y210568D01*
X44870Y210658D01*
D02*
G37*
G36*
X43870Y210658D02*
X43184Y210568D01*
X42079Y210110D01*
X41130Y209382D01*
X40402Y208433D01*
X39944Y207328D01*
X39853Y206641D01*
X43870D01*
Y210658D01*
D02*
G37*
G36*
X347572Y214717D02*
X346386Y214561D01*
X345281Y214103D01*
X344332Y213375D01*
X343603Y212426D01*
X343145Y211320D01*
X342989Y210134D01*
X343145Y208948D01*
X343603Y207843D01*
X344332Y206894D01*
X345281Y206166D01*
X346386Y205708D01*
X347572Y205552D01*
X348758Y205708D01*
X349863Y206166D01*
X350812Y206894D01*
X351540Y207843D01*
X351998Y208948D01*
X352154Y210134D01*
X351998Y211320D01*
X351540Y212426D01*
X350812Y213375D01*
X349863Y214103D01*
X348758Y214561D01*
X347572Y214717D01*
D02*
G37*
G36*
X288500Y209873D02*
X287442Y209734D01*
X286457Y209325D01*
X285611Y208676D01*
X284961Y207830D01*
X284553Y206844D01*
X284414Y205787D01*
X284553Y204729D01*
X284961Y203744D01*
X285611Y202897D01*
X286457Y202248D01*
X287442Y201840D01*
X288500Y201700D01*
X289558Y201840D01*
X290543Y202248D01*
X291389Y202897D01*
X292039Y203744D01*
X292447Y204729D01*
X292586Y205787D01*
X292447Y206844D01*
X292039Y207830D01*
X291389Y208676D01*
X290543Y209325D01*
X289558Y209734D01*
X288500Y209873D01*
D02*
G37*
G36*
X278500D02*
X277442Y209734D01*
X276457Y209325D01*
X275611Y208676D01*
X274961Y207830D01*
X274553Y206844D01*
X274414Y205787D01*
X274553Y204729D01*
X274961Y203744D01*
X275611Y202897D01*
X276457Y202248D01*
X277442Y201840D01*
X278500Y201700D01*
X279558Y201840D01*
X280543Y202248D01*
X281389Y202897D01*
X282039Y203744D01*
X282447Y204729D01*
X282586Y205787D01*
X282447Y206844D01*
X282039Y207830D01*
X281389Y208676D01*
X280543Y209325D01*
X279558Y209734D01*
X278500Y209873D01*
D02*
G37*
G36*
X118500D02*
X117442Y209734D01*
X116457Y209325D01*
X115611Y208676D01*
X114961Y207830D01*
X114553Y206844D01*
X114414Y205787D01*
X114553Y204729D01*
X114961Y203744D01*
X115611Y202897D01*
X116457Y202248D01*
X117442Y201840D01*
X118500Y201700D01*
X119558Y201840D01*
X120543Y202248D01*
X121389Y202897D01*
X122039Y203744D01*
X122447Y204729D01*
X122586Y205787D01*
X122447Y206844D01*
X122039Y207830D01*
X121389Y208676D01*
X120543Y209325D01*
X119558Y209734D01*
X118500Y209873D01*
D02*
G37*
G36*
X108500D02*
X107442Y209734D01*
X106457Y209325D01*
X105611Y208676D01*
X104961Y207830D01*
X104553Y206844D01*
X104414Y205787D01*
X104553Y204729D01*
X104961Y203744D01*
X105611Y202897D01*
X106457Y202248D01*
X107442Y201840D01*
X108500Y201700D01*
X109558Y201840D01*
X110543Y202248D01*
X111389Y202897D01*
X112039Y203744D01*
X112447Y204729D01*
X112586Y205787D01*
X112447Y206844D01*
X112039Y207830D01*
X111389Y208676D01*
X110543Y209325D01*
X109558Y209734D01*
X108500Y209873D01*
D02*
G37*
G36*
X48887Y205641D02*
X44870D01*
Y201625D01*
X45556Y201715D01*
X46661Y202173D01*
X47610Y202901D01*
X48339Y203851D01*
X48796Y204956D01*
X48887Y205641D01*
D02*
G37*
G36*
X43870D02*
X39853D01*
X39944Y204956D01*
X40402Y203851D01*
X41130Y202901D01*
X42079Y202173D01*
X43184Y201715D01*
X43870Y201625D01*
Y205641D01*
D02*
G37*
G36*
X54213Y210724D02*
X53027Y210568D01*
X51921Y210110D01*
X50972Y209382D01*
X50244Y208433D01*
X49786Y207328D01*
X49630Y206142D01*
X49786Y204956D01*
X50244Y203851D01*
X50972Y202901D01*
X51921Y202173D01*
X53027Y201715D01*
X54213Y201559D01*
X55399Y201715D01*
X56504Y202173D01*
X57453Y202901D01*
X58181Y203851D01*
X58639Y204956D01*
X58795Y206142D01*
X58639Y207328D01*
X58181Y208433D01*
X57453Y209382D01*
X56504Y210110D01*
X55399Y210568D01*
X54213Y210724D01*
D02*
G37*
G36*
X357914Y204808D02*
Y200792D01*
X361931D01*
X361841Y201478D01*
X361383Y202583D01*
X360654Y203532D01*
X359705Y204260D01*
X358600Y204718D01*
X357914Y204808D01*
D02*
G37*
G36*
X356914Y204808D02*
X356228Y204718D01*
X355123Y204260D01*
X354174Y203532D01*
X353446Y202583D01*
X352988Y201478D01*
X352898Y200792D01*
X356914D01*
Y204808D01*
D02*
G37*
G36*
X259365Y200114D02*
Y197150D01*
X262329D01*
X262275Y197564D01*
X261922Y198415D01*
X261361Y199146D01*
X260630Y199707D01*
X259779Y200060D01*
X259365Y200114D01*
D02*
G37*
G36*
X258365D02*
X257951Y200060D01*
X257100Y199707D01*
X256369Y199146D01*
X255808Y198415D01*
X255455Y197564D01*
X255401Y197150D01*
X258365D01*
Y200114D01*
D02*
G37*
G36*
X361931Y199792D02*
X357914D01*
Y195775D01*
X358600Y195865D01*
X359705Y196323D01*
X360654Y197052D01*
X361383Y198001D01*
X361841Y199106D01*
X361931Y199792D01*
D02*
G37*
G36*
X356914D02*
X352898D01*
X352988Y199106D01*
X353446Y198001D01*
X354174Y197052D01*
X355123Y196323D01*
X356228Y195865D01*
X356914Y195775D01*
Y199792D01*
D02*
G37*
G36*
X347572Y204874D02*
X346386Y204718D01*
X345281Y204260D01*
X344332Y203532D01*
X343603Y202583D01*
X343145Y201478D01*
X342989Y200292D01*
X343145Y199106D01*
X343603Y198001D01*
X344332Y197052D01*
X345281Y196323D01*
X346386Y195865D01*
X347572Y195709D01*
X348758Y195865D01*
X349863Y196323D01*
X350812Y197052D01*
X351540Y198001D01*
X351998Y199106D01*
X352154Y200292D01*
X351998Y201478D01*
X351540Y202583D01*
X350812Y203532D01*
X349863Y204260D01*
X348758Y204718D01*
X347572Y204874D01*
D02*
G37*
G36*
X262329Y196150D02*
X259365D01*
Y193186D01*
X259779Y193240D01*
X260630Y193593D01*
X261361Y194154D01*
X261922Y194885D01*
X262275Y195736D01*
X262329Y196150D01*
D02*
G37*
G36*
X258365D02*
X255401D01*
X255455Y195736D01*
X255808Y194885D01*
X256369Y194154D01*
X257100Y193593D01*
X257951Y193240D01*
X258365Y193186D01*
Y196150D01*
D02*
G37*
G36*
X54213Y200882D02*
X53027Y200726D01*
X51921Y200268D01*
X50972Y199539D01*
X50244Y198591D01*
X49786Y197485D01*
X49630Y196299D01*
X49786Y195113D01*
X50244Y194008D01*
X50972Y193059D01*
X51921Y192331D01*
X53027Y191873D01*
X54213Y191717D01*
X55399Y191873D01*
X56504Y192331D01*
X57453Y193059D01*
X58181Y194008D01*
X58639Y195113D01*
X58795Y196299D01*
X58639Y197485D01*
X58181Y198591D01*
X57453Y199539D01*
X56504Y200268D01*
X55399Y200726D01*
X54213Y200882D01*
D02*
G37*
G36*
X44370D02*
X43184Y200726D01*
X42079Y200268D01*
X41130Y199539D01*
X40402Y198591D01*
X39944Y197485D01*
X39788Y196299D01*
X39944Y195113D01*
X40402Y194008D01*
X41130Y193059D01*
X42079Y192331D01*
X43184Y191873D01*
X44370Y191717D01*
X45556Y191873D01*
X46661Y192331D01*
X47610Y193059D01*
X48339Y194008D01*
X48796Y195113D01*
X48953Y196299D01*
X48796Y197485D01*
X48339Y198591D01*
X47610Y199539D01*
X46661Y200268D01*
X45556Y200726D01*
X44370Y200882D01*
D02*
G37*
G36*
X288500Y199873D02*
X287442Y199733D01*
X286457Y199325D01*
X285611Y198676D01*
X284961Y197830D01*
X284553Y196844D01*
X284414Y195787D01*
X284553Y194729D01*
X284961Y193744D01*
X285611Y192897D01*
X286457Y192248D01*
X287442Y191840D01*
X288500Y191700D01*
X289558Y191840D01*
X290543Y192248D01*
X291389Y192897D01*
X292039Y193744D01*
X292447Y194729D01*
X292586Y195787D01*
X292447Y196844D01*
X292039Y197830D01*
X291389Y198676D01*
X290543Y199325D01*
X289558Y199733D01*
X288500Y199873D01*
D02*
G37*
G36*
X278500D02*
X277442Y199733D01*
X276457Y199325D01*
X275611Y198676D01*
X274961Y197830D01*
X274553Y196844D01*
X274414Y195787D01*
X274553Y194729D01*
X274961Y193744D01*
X275611Y192897D01*
X276457Y192248D01*
X277442Y191840D01*
X278500Y191700D01*
X279558Y191840D01*
X280543Y192248D01*
X281389Y192897D01*
X282039Y193744D01*
X282447Y194729D01*
X282586Y195787D01*
X282447Y196844D01*
X282039Y197830D01*
X281389Y198676D01*
X280543Y199325D01*
X279558Y199733D01*
X278500Y199873D01*
D02*
G37*
G36*
X118500D02*
X117442Y199733D01*
X116457Y199325D01*
X115611Y198676D01*
X114961Y197830D01*
X114553Y196844D01*
X114414Y195787D01*
X114553Y194729D01*
X114961Y193744D01*
X115611Y192897D01*
X116457Y192248D01*
X117442Y191840D01*
X118500Y191700D01*
X119558Y191840D01*
X120543Y192248D01*
X121389Y192897D01*
X122039Y193744D01*
X122447Y194729D01*
X122586Y195787D01*
X122447Y196844D01*
X122039Y197830D01*
X121389Y198676D01*
X120543Y199325D01*
X119558Y199733D01*
X118500Y199873D01*
D02*
G37*
G36*
X108500D02*
X107442Y199733D01*
X106457Y199325D01*
X105611Y198676D01*
X104961Y197830D01*
X104553Y196844D01*
X104414Y195787D01*
X104553Y194729D01*
X104961Y193744D01*
X105611Y192897D01*
X106457Y192248D01*
X107442Y191840D01*
X108500Y191700D01*
X109558Y191840D01*
X110543Y192248D01*
X111389Y192897D01*
X112039Y193744D01*
X112447Y194729D01*
X112586Y195787D01*
X112447Y196844D01*
X112039Y197830D01*
X111389Y198676D01*
X110543Y199325D01*
X109558Y199733D01*
X108500Y199873D01*
D02*
G37*
G36*
X187700Y200119D02*
X186462Y199956D01*
X185309Y199478D01*
X184319Y198719D01*
X183559Y197729D01*
X183081Y196575D01*
X182919Y195338D01*
X183081Y194101D01*
X183559Y192947D01*
X184319Y191957D01*
X185309Y191198D01*
X186462Y190720D01*
X187700Y190557D01*
X188937Y190720D01*
X190090Y191198D01*
X191080Y191957D01*
X191840Y192947D01*
X192318Y194101D01*
X192481Y195338D01*
X192318Y196575D01*
X191840Y197729D01*
X191080Y198719D01*
X190090Y199478D01*
X188937Y199956D01*
X187700Y200119D01*
D02*
G37*
G36*
X385682Y194833D02*
X384547Y194684D01*
X383490Y194246D01*
X382582Y193549D01*
X381885Y192641D01*
X381447Y191584D01*
X381298Y190449D01*
X381447Y189315D01*
X381885Y188257D01*
X382582Y187349D01*
X383490Y186653D01*
X384547Y186215D01*
X385682Y186065D01*
X386817Y186215D01*
X387874Y186653D01*
X388782Y187349D01*
X389479Y188257D01*
X389917Y189315D01*
X390066Y190449D01*
X389917Y191584D01*
X389479Y192641D01*
X388782Y193549D01*
X387874Y194246D01*
X386817Y194684D01*
X385682Y194833D01*
D02*
G37*
G36*
X357414Y195032D02*
X356228Y194876D01*
X355123Y194418D01*
X354174Y193690D01*
X353446Y192741D01*
X352988Y191635D01*
X352832Y190449D01*
X352988Y189263D01*
X353446Y188158D01*
X354174Y187209D01*
X355123Y186481D01*
X356228Y186023D01*
X357414Y185867D01*
X358600Y186023D01*
X359705Y186481D01*
X360654Y187209D01*
X361383Y188158D01*
X361841Y189263D01*
X361997Y190449D01*
X361841Y191635D01*
X361383Y192741D01*
X360654Y193690D01*
X359705Y194418D01*
X358600Y194876D01*
X357414Y195032D01*
D02*
G37*
G36*
X347572D02*
X346386Y194876D01*
X345281Y194418D01*
X344332Y193690D01*
X343603Y192741D01*
X343145Y191635D01*
X342989Y190449D01*
X343145Y189263D01*
X343603Y188158D01*
X344332Y187209D01*
X345281Y186481D01*
X346386Y186023D01*
X347572Y185867D01*
X348758Y186023D01*
X349863Y186481D01*
X350812Y187209D01*
X351540Y188158D01*
X351998Y189263D01*
X352154Y190449D01*
X351998Y191635D01*
X351540Y192741D01*
X350812Y193690D01*
X349863Y194418D01*
X348758Y194876D01*
X347572Y195032D01*
D02*
G37*
G36*
X54213Y191039D02*
X53027Y190883D01*
X51921Y190425D01*
X50972Y189697D01*
X50244Y188748D01*
X49786Y187643D01*
X49630Y186457D01*
X49786Y185271D01*
X50244Y184165D01*
X50972Y183216D01*
X51921Y182488D01*
X53027Y182030D01*
X54213Y181874D01*
X55399Y182030D01*
X56504Y182488D01*
X57453Y183216D01*
X58181Y184165D01*
X58639Y185271D01*
X58795Y186457D01*
X58639Y187643D01*
X58181Y188748D01*
X57453Y189697D01*
X56504Y190425D01*
X55399Y190883D01*
X54213Y191039D01*
D02*
G37*
G36*
X44370D02*
X43184Y190883D01*
X42079Y190425D01*
X41130Y189697D01*
X40402Y188748D01*
X39944Y187643D01*
X39788Y186457D01*
X39944Y185271D01*
X40402Y184165D01*
X41130Y183216D01*
X42079Y182488D01*
X43184Y182030D01*
X44370Y181874D01*
X45556Y182030D01*
X46661Y182488D01*
X47610Y183216D01*
X48339Y184165D01*
X48796Y185271D01*
X48953Y186457D01*
X48796Y187643D01*
X48339Y188748D01*
X47610Y189697D01*
X46661Y190425D01*
X45556Y190883D01*
X44370Y191039D01*
D02*
G37*
G36*
X288500Y189873D02*
X287442Y189734D01*
X286457Y189325D01*
X285611Y188676D01*
X284961Y187830D01*
X284553Y186844D01*
X284414Y185787D01*
X284553Y184729D01*
X284961Y183744D01*
X285611Y182897D01*
X286457Y182248D01*
X287442Y181840D01*
X288500Y181701D01*
X289558Y181840D01*
X290543Y182248D01*
X291389Y182897D01*
X292039Y183744D01*
X292447Y184729D01*
X292586Y185787D01*
X292447Y186844D01*
X292039Y187830D01*
X291389Y188676D01*
X290543Y189325D01*
X289558Y189734D01*
X288500Y189873D01*
D02*
G37*
G36*
X278500D02*
X277442Y189734D01*
X276457Y189325D01*
X275611Y188676D01*
X274961Y187830D01*
X274553Y186844D01*
X274414Y185787D01*
X274553Y184729D01*
X274961Y183744D01*
X275611Y182897D01*
X276457Y182248D01*
X277442Y181840D01*
X278500Y181701D01*
X279558Y181840D01*
X280543Y182248D01*
X281389Y182897D01*
X282039Y183744D01*
X282447Y184729D01*
X282586Y185787D01*
X282447Y186844D01*
X282039Y187830D01*
X281389Y188676D01*
X280543Y189325D01*
X279558Y189734D01*
X278500Y189873D01*
D02*
G37*
G36*
X118500D02*
X117442Y189734D01*
X116457Y189325D01*
X115611Y188676D01*
X114961Y187830D01*
X114553Y186844D01*
X114414Y185787D01*
X114553Y184729D01*
X114961Y183744D01*
X115611Y182897D01*
X116457Y182248D01*
X117442Y181840D01*
X118500Y181701D01*
X119558Y181840D01*
X120543Y182248D01*
X121389Y182897D01*
X122039Y183744D01*
X122447Y184729D01*
X122586Y185787D01*
X122447Y186844D01*
X122039Y187830D01*
X121389Y188676D01*
X120543Y189325D01*
X119558Y189734D01*
X118500Y189873D01*
D02*
G37*
G36*
X108500D02*
X107442Y189734D01*
X106457Y189325D01*
X105611Y188676D01*
X104961Y187830D01*
X104553Y186844D01*
X104414Y185787D01*
X104553Y184729D01*
X104961Y183744D01*
X105611Y182897D01*
X106457Y182248D01*
X107442Y181840D01*
X108500Y181701D01*
X109558Y181840D01*
X110543Y182248D01*
X111389Y182897D01*
X112039Y183744D01*
X112447Y184729D01*
X112586Y185787D01*
X112447Y186844D01*
X112039Y187830D01*
X111389Y188676D01*
X110543Y189325D01*
X109558Y189734D01*
X108500Y189873D01*
D02*
G37*
G36*
X229432Y194403D02*
X228078Y194270D01*
X226776Y193875D01*
X225577Y193234D01*
X224525Y192371D01*
X223662Y191319D01*
X223021Y190119D01*
X222626Y188818D01*
X222493Y187464D01*
X222626Y186110D01*
X223021Y184809D01*
X223662Y183609D01*
X224525Y182557D01*
X225577Y181694D01*
X226776Y181053D01*
X228078Y180658D01*
X229432Y180525D01*
X230785Y180658D01*
X232087Y181053D01*
X233287Y181694D01*
X234338Y182557D01*
X235201Y183609D01*
X235842Y184809D01*
X236237Y186110D01*
X236371Y187464D01*
X236237Y188818D01*
X235842Y190119D01*
X235201Y191319D01*
X234338Y192371D01*
X233287Y193234D01*
X232087Y193875D01*
X230785Y194270D01*
X229432Y194403D01*
D02*
G37*
G36*
X58756Y181158D02*
X54712D01*
Y177114D01*
X58756D01*
Y181158D01*
D02*
G37*
G36*
X53712D02*
X49669D01*
Y177114D01*
X53712D01*
Y181158D01*
D02*
G37*
G36*
X44870Y181131D02*
Y177114D01*
X48887D01*
X48796Y177800D01*
X48339Y178905D01*
X47610Y179855D01*
X46661Y180583D01*
X45556Y181041D01*
X44870Y181131D01*
D02*
G37*
G36*
X43870Y181131D02*
X43184Y181041D01*
X42079Y180583D01*
X41130Y179855D01*
X40402Y178905D01*
X39944Y177800D01*
X39853Y177114D01*
X43870D01*
Y181131D01*
D02*
G37*
G36*
X177857Y190466D02*
X176503Y190333D01*
X175201Y189938D01*
X174002Y189296D01*
X172950Y188434D01*
X172088Y187382D01*
X171446Y186182D01*
X171051Y184881D01*
X170918Y183527D01*
X171051Y182173D01*
X171446Y180872D01*
X172088Y179672D01*
X172950Y178620D01*
X174002Y177758D01*
X175201Y177116D01*
X176503Y176721D01*
X177857Y176588D01*
X179211Y176721D01*
X180512Y177116D01*
X181712Y177758D01*
X182764Y178620D01*
X183626Y179672D01*
X184268Y180872D01*
X184663Y182173D01*
X184796Y183527D01*
X184663Y184881D01*
X184268Y186182D01*
X183626Y187382D01*
X182764Y188434D01*
X181712Y189296D01*
X180512Y189938D01*
X179211Y190333D01*
X177857Y190466D01*
D02*
G37*
G36*
X16102Y180998D02*
X14968Y180849D01*
X13910Y180411D01*
X13002Y179714D01*
X12306Y178806D01*
X11868Y177749D01*
X11718Y176614D01*
X11868Y175479D01*
X12306Y174422D01*
X13002Y173514D01*
X13910Y172818D01*
X14968Y172380D01*
X16102Y172230D01*
X17237Y172380D01*
X18294Y172818D01*
X19202Y173514D01*
X19899Y174422D01*
X20337Y175479D01*
X20486Y176614D01*
X20337Y177749D01*
X19899Y178806D01*
X19202Y179714D01*
X18294Y180411D01*
X17237Y180849D01*
X16102Y180998D01*
D02*
G37*
G36*
X43870Y176114D02*
X39853D01*
X39944Y175428D01*
X40402Y174323D01*
X41130Y173374D01*
X42079Y172646D01*
X43184Y172188D01*
X43870Y172098D01*
Y176114D01*
D02*
G37*
G36*
X48887D02*
X44870D01*
Y172098D01*
X45556Y172188D01*
X46661Y172646D01*
X47610Y173374D01*
X48339Y174323D01*
X48796Y175428D01*
X48887Y176114D01*
D02*
G37*
G36*
X58756Y176114D02*
X54712D01*
Y172071D01*
X58756D01*
Y176114D01*
D02*
G37*
G36*
X53712D02*
X49669D01*
Y172071D01*
X53712D01*
Y176114D01*
D02*
G37*
G36*
X288500Y179873D02*
X287442Y179734D01*
X286457Y179325D01*
X285611Y178676D01*
X284961Y177830D01*
X284553Y176844D01*
X284414Y175787D01*
X284553Y174729D01*
X284961Y173743D01*
X285611Y172897D01*
X286457Y172248D01*
X287442Y171840D01*
X288500Y171701D01*
X289558Y171840D01*
X290543Y172248D01*
X291389Y172897D01*
X292039Y173743D01*
X292447Y174729D01*
X292586Y175787D01*
X292447Y176844D01*
X292039Y177830D01*
X291389Y178676D01*
X290543Y179325D01*
X289558Y179734D01*
X288500Y179873D01*
D02*
G37*
G36*
X278500D02*
X277442Y179734D01*
X276457Y179325D01*
X275611Y178676D01*
X274961Y177830D01*
X274553Y176844D01*
X274414Y175787D01*
X274553Y174729D01*
X274961Y173743D01*
X275611Y172897D01*
X276457Y172248D01*
X277442Y171840D01*
X278500Y171701D01*
X279558Y171840D01*
X280543Y172248D01*
X281389Y172897D01*
X282039Y173743D01*
X282447Y174729D01*
X282586Y175787D01*
X282447Y176844D01*
X282039Y177830D01*
X281389Y178676D01*
X280543Y179325D01*
X279558Y179734D01*
X278500Y179873D01*
D02*
G37*
G36*
X118500D02*
X117442Y179734D01*
X116457Y179325D01*
X115611Y178676D01*
X114961Y177830D01*
X114553Y176844D01*
X114414Y175787D01*
X114553Y174729D01*
X114961Y173743D01*
X115611Y172897D01*
X116457Y172248D01*
X117442Y171840D01*
X118500Y171701D01*
X119558Y171840D01*
X120543Y172248D01*
X121389Y172897D01*
X122039Y173743D01*
X122447Y174729D01*
X122586Y175787D01*
X122447Y176844D01*
X122039Y177830D01*
X121389Y178676D01*
X120543Y179325D01*
X119558Y179734D01*
X118500Y179873D01*
D02*
G37*
G36*
X108500D02*
X107442Y179734D01*
X106457Y179325D01*
X105611Y178676D01*
X104961Y177830D01*
X104553Y176844D01*
X104414Y175787D01*
X104553Y174729D01*
X104961Y173743D01*
X105611Y172897D01*
X106457Y172248D01*
X107442Y171840D01*
X108500Y171701D01*
X109558Y171840D01*
X110543Y172248D01*
X111389Y172897D01*
X112039Y173743D01*
X112447Y174729D01*
X112586Y175787D01*
X112447Y176844D01*
X112039Y177830D01*
X111389Y178676D01*
X110543Y179325D01*
X109558Y179734D01*
X108500Y179873D01*
D02*
G37*
G36*
X288500Y169873D02*
X287442Y169734D01*
X286457Y169325D01*
X285611Y168676D01*
X284961Y167830D01*
X284553Y166844D01*
X284414Y165787D01*
X284553Y164729D01*
X284961Y163743D01*
X285611Y162897D01*
X286457Y162248D01*
X287442Y161840D01*
X288500Y161700D01*
X289558Y161840D01*
X290543Y162248D01*
X291389Y162897D01*
X292039Y163743D01*
X292447Y164729D01*
X292586Y165787D01*
X292447Y166844D01*
X292039Y167830D01*
X291389Y168676D01*
X290543Y169325D01*
X289558Y169734D01*
X288500Y169873D01*
D02*
G37*
G36*
X278500D02*
X277442Y169734D01*
X276457Y169325D01*
X275611Y168676D01*
X274961Y167830D01*
X274553Y166844D01*
X274414Y165787D01*
X274553Y164729D01*
X274961Y163743D01*
X275611Y162897D01*
X276457Y162248D01*
X277442Y161840D01*
X278500Y161700D01*
X279558Y161840D01*
X280543Y162248D01*
X281389Y162897D01*
X282039Y163743D01*
X282447Y164729D01*
X282586Y165787D01*
X282447Y166844D01*
X282039Y167830D01*
X281389Y168676D01*
X280543Y169325D01*
X279558Y169734D01*
X278500Y169873D01*
D02*
G37*
G36*
X118500D02*
X117442Y169734D01*
X116457Y169325D01*
X115611Y168676D01*
X114961Y167830D01*
X114553Y166844D01*
X114414Y165787D01*
X114553Y164729D01*
X114961Y163743D01*
X115611Y162897D01*
X116457Y162248D01*
X117442Y161840D01*
X118500Y161700D01*
X119558Y161840D01*
X120543Y162248D01*
X121389Y162897D01*
X122039Y163743D01*
X122447Y164729D01*
X122586Y165787D01*
X122447Y166844D01*
X122039Y167830D01*
X121389Y168676D01*
X120543Y169325D01*
X119558Y169734D01*
X118500Y169873D01*
D02*
G37*
G36*
X108500D02*
X107442Y169734D01*
X106457Y169325D01*
X105611Y168676D01*
X104961Y167830D01*
X104553Y166844D01*
X104414Y165787D01*
X104553Y164729D01*
X104961Y163743D01*
X105611Y162897D01*
X106457Y162248D01*
X107442Y161840D01*
X108500Y161700D01*
X109558Y161840D01*
X110543Y162248D01*
X111389Y162897D01*
X112039Y163743D01*
X112447Y164729D01*
X112586Y165787D01*
X112447Y166844D01*
X112039Y167830D01*
X111389Y168676D01*
X110543Y169325D01*
X109558Y169734D01*
X108500Y169873D01*
D02*
G37*
G36*
X177857Y174718D02*
X176503Y174585D01*
X175201Y174190D01*
X174002Y173548D01*
X172950Y172686D01*
X172088Y171634D01*
X171446Y170434D01*
X171051Y169133D01*
X170918Y167779D01*
X171051Y166425D01*
X171446Y165124D01*
X172088Y163924D01*
X172950Y162872D01*
X174002Y162010D01*
X175201Y161368D01*
X176503Y160973D01*
X177857Y160840D01*
X179211Y160973D01*
X180512Y161368D01*
X181712Y162010D01*
X182764Y162872D01*
X183626Y163924D01*
X184268Y165124D01*
X184663Y166425D01*
X184796Y167779D01*
X184663Y169133D01*
X184268Y170434D01*
X183626Y171634D01*
X182764Y172686D01*
X181712Y173548D01*
X180512Y174190D01*
X179211Y174585D01*
X177857Y174718D01*
D02*
G37*
G36*
X229432Y170781D02*
X228078Y170648D01*
X226776Y170253D01*
X225577Y169612D01*
X224525Y168749D01*
X223662Y167697D01*
X223021Y166497D01*
X222626Y165196D01*
X222493Y163842D01*
X222626Y162488D01*
X223021Y161187D01*
X223662Y159987D01*
X224525Y158935D01*
X225577Y158072D01*
X226776Y157431D01*
X228078Y157036D01*
X229432Y156903D01*
X230785Y157036D01*
X232087Y157431D01*
X233287Y158072D01*
X234338Y158935D01*
X235201Y159987D01*
X235842Y161187D01*
X236237Y162488D01*
X236371Y163842D01*
X236237Y165196D01*
X235842Y166497D01*
X235201Y167697D01*
X234338Y168749D01*
X233287Y169612D01*
X232087Y170253D01*
X230785Y170648D01*
X229432Y170781D01*
D02*
G37*
G36*
X288500Y159873D02*
X287442Y159733D01*
X286457Y159325D01*
X285611Y158676D01*
X284961Y157830D01*
X284553Y156844D01*
X284414Y155787D01*
X284553Y154729D01*
X284961Y153744D01*
X285611Y152897D01*
X286457Y152248D01*
X287442Y151840D01*
X288500Y151700D01*
X289558Y151840D01*
X290543Y152248D01*
X291389Y152897D01*
X292039Y153744D01*
X292447Y154729D01*
X292586Y155787D01*
X292447Y156844D01*
X292039Y157830D01*
X291389Y158676D01*
X290543Y159325D01*
X289558Y159733D01*
X288500Y159873D01*
D02*
G37*
G36*
X278500D02*
X277442Y159733D01*
X276457Y159325D01*
X275611Y158676D01*
X274961Y157830D01*
X274553Y156844D01*
X274414Y155787D01*
X274553Y154729D01*
X274766Y154215D01*
X256027Y135477D01*
X255696Y134980D01*
X255579Y134395D01*
Y57051D01*
X254817Y56735D01*
X253868Y56007D01*
X253140Y55058D01*
X252682Y53952D01*
X252526Y52766D01*
X252682Y51580D01*
X253140Y50475D01*
X253868Y49526D01*
X254817Y48798D01*
X255923Y48340D01*
X257109Y48184D01*
X258295Y48340D01*
X259400Y48798D01*
X260349Y49526D01*
X261077Y50475D01*
X261535Y51580D01*
X261691Y52766D01*
X261535Y53952D01*
X261077Y55058D01*
X260349Y56007D01*
X259400Y56735D01*
X258638Y57051D01*
Y133762D01*
X276929Y152052D01*
X277442Y151840D01*
X278500Y151700D01*
X279558Y151840D01*
X280543Y152248D01*
X281389Y152897D01*
X282039Y153744D01*
X282447Y154729D01*
X282586Y155787D01*
X282447Y156844D01*
X282039Y157830D01*
X281389Y158676D01*
X280543Y159325D01*
X279558Y159733D01*
X278500Y159873D01*
D02*
G37*
G36*
X118500D02*
X117442Y159733D01*
X116457Y159325D01*
X115611Y158676D01*
X114961Y157830D01*
X114553Y156844D01*
X114414Y155787D01*
X114553Y154729D01*
X114961Y153744D01*
X115611Y152897D01*
X116457Y152248D01*
X117442Y151840D01*
X118500Y151700D01*
X119558Y151840D01*
X120543Y152248D01*
X121389Y152897D01*
X122039Y153744D01*
X122447Y154729D01*
X122586Y155787D01*
X122447Y156844D01*
X122039Y157830D01*
X121389Y158676D01*
X120543Y159325D01*
X119558Y159733D01*
X118500Y159873D01*
D02*
G37*
G36*
X108500D02*
X107442Y159733D01*
X106457Y159325D01*
X105611Y158676D01*
X104961Y157830D01*
X104553Y156844D01*
X104414Y155787D01*
X104553Y154729D01*
X104961Y153744D01*
X105611Y152897D01*
X106457Y152248D01*
X107442Y151840D01*
X108500Y151700D01*
X109558Y151840D01*
X110543Y152248D01*
X111389Y152897D01*
X112039Y153744D01*
X112447Y154729D01*
X112586Y155787D01*
X112447Y156844D01*
X112039Y157830D01*
X111389Y158676D01*
X110543Y159325D01*
X109558Y159733D01*
X108500Y159873D01*
D02*
G37*
G36*
X386011Y160280D02*
X384876Y160131D01*
X383819Y159693D01*
X382911Y158996D01*
X382214Y158088D01*
X381776Y157031D01*
X381627Y155896D01*
X381776Y154761D01*
X382214Y153704D01*
X382911Y152796D01*
X383819Y152099D01*
X384876Y151661D01*
X386011Y151512D01*
X387145Y151661D01*
X388203Y152099D01*
X389111Y152796D01*
X389807Y153704D01*
X390245Y154761D01*
X390395Y155896D01*
X390245Y157031D01*
X389807Y158088D01*
X389111Y158996D01*
X388203Y159693D01*
X387145Y160131D01*
X386011Y160280D01*
D02*
G37*
G36*
X352444Y160439D02*
X343357D01*
Y151353D01*
X352444D01*
Y160439D01*
D02*
G37*
G36*
X357743Y160478D02*
X356557Y160322D01*
X355452Y159865D01*
X354503Y159136D01*
X353774Y158187D01*
X353317Y157082D01*
X353161Y155896D01*
X353317Y154710D01*
X353774Y153605D01*
X354503Y152656D01*
X355452Y151927D01*
X356557Y151470D01*
X357743Y151313D01*
X358929Y151470D01*
X360034Y151927D01*
X360983Y152656D01*
X361712Y153605D01*
X362169Y154710D01*
X362326Y155896D01*
X362169Y157082D01*
X361712Y158187D01*
X360983Y159136D01*
X360034Y159865D01*
X358929Y160322D01*
X357743Y160478D01*
D02*
G37*
G36*
X187700Y160749D02*
X186462Y160586D01*
X185309Y160108D01*
X184319Y159349D01*
X183559Y158359D01*
X183081Y157205D01*
X182919Y155968D01*
X183081Y154731D01*
X183559Y153577D01*
X184319Y152587D01*
X185309Y151828D01*
X186462Y151350D01*
X187700Y151187D01*
X188937Y151350D01*
X190090Y151828D01*
X191080Y152587D01*
X191840Y153577D01*
X192318Y154731D01*
X192481Y155968D01*
X192318Y157205D01*
X191840Y158359D01*
X191080Y159349D01*
X190090Y160108D01*
X188937Y160586D01*
X187700Y160749D01*
D02*
G37*
G36*
X288500Y149873D02*
X287442Y149733D01*
X286457Y149325D01*
X285611Y148676D01*
X284961Y147830D01*
X284553Y146844D01*
X284414Y145787D01*
X284553Y144729D01*
X284961Y143744D01*
X285611Y142897D01*
X286457Y142248D01*
X287442Y141840D01*
X288500Y141700D01*
X289558Y141840D01*
X290543Y142248D01*
X291389Y142897D01*
X292039Y143744D01*
X292447Y144729D01*
X292586Y145787D01*
X292447Y146844D01*
X292039Y147830D01*
X291389Y148676D01*
X290543Y149325D01*
X289558Y149733D01*
X288500Y149873D01*
D02*
G37*
G36*
X278500D02*
X277442Y149733D01*
X276457Y149325D01*
X275611Y148676D01*
X274961Y147830D01*
X274553Y146844D01*
X274414Y145787D01*
X274553Y144729D01*
X274766Y144215D01*
X266452Y135901D01*
X266120Y135405D01*
X266004Y134820D01*
Y57310D01*
X262408D01*
Y48223D01*
X271495D01*
Y57310D01*
X269062D01*
Y134186D01*
X276929Y142052D01*
X277442Y141840D01*
X278500Y141700D01*
X279558Y141840D01*
X280543Y142248D01*
X281389Y142897D01*
X282039Y143744D01*
X282447Y144729D01*
X282586Y145787D01*
X282447Y146844D01*
X282039Y147830D01*
X281389Y148676D01*
X280543Y149325D01*
X279558Y149733D01*
X278500Y149873D01*
D02*
G37*
G36*
X118500D02*
X117442Y149733D01*
X116457Y149325D01*
X115611Y148676D01*
X114961Y147830D01*
X114553Y146844D01*
X114414Y145787D01*
X114553Y144729D01*
X114961Y143744D01*
X115611Y142897D01*
X116457Y142248D01*
X117442Y141840D01*
X118500Y141700D01*
X119558Y141840D01*
X120543Y142248D01*
X121389Y142897D01*
X122039Y143744D01*
X122447Y144729D01*
X122586Y145787D01*
X122447Y146844D01*
X122039Y147830D01*
X121389Y148676D01*
X120543Y149325D01*
X119558Y149733D01*
X118500Y149873D01*
D02*
G37*
G36*
X108500D02*
X107442Y149733D01*
X106457Y149325D01*
X105611Y148676D01*
X104961Y147830D01*
X104553Y146844D01*
X104414Y145787D01*
X104553Y144729D01*
X104961Y143744D01*
X105611Y142897D01*
X106457Y142248D01*
X107442Y141840D01*
X108500Y141700D01*
X109558Y141840D01*
X110543Y142248D01*
X111389Y142897D01*
X112039Y143744D01*
X112447Y144729D01*
X112586Y145787D01*
X112447Y146844D01*
X112039Y147830D01*
X111389Y148676D01*
X110543Y149325D01*
X109558Y149733D01*
X108500Y149873D01*
D02*
G37*
G36*
X357743Y150636D02*
X356557Y150480D01*
X355452Y150022D01*
X354503Y149294D01*
X353774Y148345D01*
X353317Y147240D01*
X353161Y146054D01*
X353317Y144868D01*
X353774Y143762D01*
X354503Y142813D01*
X355452Y142085D01*
X356557Y141627D01*
X357743Y141471D01*
X358929Y141627D01*
X360034Y142085D01*
X360983Y142813D01*
X361712Y143762D01*
X362169Y144868D01*
X362326Y146054D01*
X362169Y147240D01*
X361712Y148345D01*
X360983Y149294D01*
X360034Y150022D01*
X358929Y150480D01*
X357743Y150636D01*
D02*
G37*
G36*
X347901D02*
X346715Y150480D01*
X345609Y150022D01*
X344660Y149294D01*
X343932Y148345D01*
X343474Y147240D01*
X343318Y146054D01*
X343474Y144868D01*
X343932Y143762D01*
X344660Y142813D01*
X345609Y142085D01*
X346715Y141627D01*
X347901Y141471D01*
X349087Y141627D01*
X350192Y142085D01*
X351141Y142813D01*
X351869Y143762D01*
X352327Y144868D01*
X352483Y146054D01*
X352327Y147240D01*
X351869Y148345D01*
X351141Y149294D01*
X350192Y150022D01*
X349087Y150480D01*
X347901Y150636D01*
D02*
G37*
G36*
X358243Y140728D02*
Y136711D01*
X362260D01*
X362169Y137397D01*
X361712Y138502D01*
X360983Y139451D01*
X360034Y140180D01*
X358929Y140637D01*
X358243Y140728D01*
D02*
G37*
G36*
X357243Y140728D02*
X356557Y140637D01*
X355452Y140180D01*
X354503Y139451D01*
X353774Y138502D01*
X353317Y137397D01*
X353226Y136711D01*
X357243D01*
Y140728D01*
D02*
G37*
G36*
X362260Y135711D02*
X358243D01*
Y131694D01*
X358929Y131785D01*
X360034Y132242D01*
X360983Y132971D01*
X361712Y133920D01*
X362169Y135025D01*
X362260Y135711D01*
D02*
G37*
G36*
X357243D02*
X353226D01*
X353317Y135025D01*
X353774Y133920D01*
X354503Y132971D01*
X355452Y132242D01*
X356557Y131785D01*
X357243Y131694D01*
Y135711D01*
D02*
G37*
G36*
X347901Y140794D02*
X346715Y140637D01*
X345609Y140180D01*
X344660Y139451D01*
X343932Y138502D01*
X343474Y137397D01*
X343318Y136211D01*
X343474Y135025D01*
X343932Y133920D01*
X344660Y132971D01*
X345609Y132242D01*
X346715Y131785D01*
X347901Y131629D01*
X349087Y131785D01*
X350192Y132242D01*
X351141Y132971D01*
X351869Y133920D01*
X352327Y135025D01*
X352483Y136211D01*
X352327Y137397D01*
X351869Y138502D01*
X351141Y139451D01*
X350192Y140180D01*
X349087Y140637D01*
X347901Y140794D01*
D02*
G37*
G36*
X358243Y130885D02*
Y126869D01*
X362260D01*
X362169Y127555D01*
X361712Y128660D01*
X360983Y129609D01*
X360034Y130337D01*
X358929Y130795D01*
X358243Y130885D01*
D02*
G37*
G36*
X357243Y130885D02*
X356557Y130795D01*
X355452Y130337D01*
X354503Y129609D01*
X353774Y128660D01*
X353317Y127555D01*
X353226Y126869D01*
X357243D01*
Y130885D01*
D02*
G37*
G36*
X362260Y125869D02*
X358243D01*
Y121852D01*
X358929Y121942D01*
X360034Y122400D01*
X360983Y123128D01*
X361712Y124077D01*
X362169Y125183D01*
X362260Y125869D01*
D02*
G37*
G36*
X357243D02*
X353226D01*
X353317Y125183D01*
X353774Y124077D01*
X354503Y123128D01*
X355452Y122400D01*
X356557Y121942D01*
X357243Y121852D01*
Y125869D01*
D02*
G37*
G36*
X347901Y130951D02*
X346715Y130795D01*
X345609Y130337D01*
X344660Y129609D01*
X343932Y128660D01*
X343474Y127555D01*
X343318Y126369D01*
X343474Y125183D01*
X343932Y124077D01*
X344660Y123128D01*
X345609Y122400D01*
X346715Y121942D01*
X347901Y121786D01*
X349087Y121942D01*
X350192Y122400D01*
X351141Y123128D01*
X351869Y124077D01*
X352327Y125183D01*
X352483Y126369D01*
X352327Y127555D01*
X351869Y128660D01*
X351141Y129609D01*
X350192Y130337D01*
X349087Y130795D01*
X347901Y130951D01*
D02*
G37*
G36*
X15432Y127948D02*
X14297Y127799D01*
X13240Y127361D01*
X12332Y126664D01*
X11635Y125757D01*
X11197Y124699D01*
X11048Y123565D01*
X11197Y122430D01*
X11635Y121372D01*
X12332Y120465D01*
X13240Y119768D01*
X14297Y119330D01*
X15432Y119181D01*
X16567Y119330D01*
X17624Y119768D01*
X18532Y120465D01*
X19229Y121372D01*
X19667Y122430D01*
X19816Y123565D01*
X19667Y124699D01*
X19229Y125757D01*
X18532Y126664D01*
X17624Y127361D01*
X16567Y127799D01*
X15432Y127948D01*
D02*
G37*
G36*
X53542Y128147D02*
X52356Y127991D01*
X51251Y127533D01*
X50302Y126805D01*
X49574Y125856D01*
X49116Y124751D01*
X48960Y123565D01*
X49116Y122379D01*
X49574Y121273D01*
X50302Y120324D01*
X51251Y119596D01*
X52356Y119138D01*
X53542Y118982D01*
X54728Y119138D01*
X55834Y119596D01*
X56783Y120324D01*
X57511Y121273D01*
X57969Y122379D01*
X58125Y123565D01*
X57969Y124751D01*
X57511Y125856D01*
X56783Y126805D01*
X55834Y127533D01*
X54728Y127991D01*
X53542Y128147D01*
D02*
G37*
G36*
X43700D02*
X42514Y127991D01*
X41409Y127533D01*
X40459Y126805D01*
X39731Y125856D01*
X39273Y124751D01*
X39117Y123565D01*
X39273Y122379D01*
X39731Y121273D01*
X40459Y120324D01*
X41409Y119596D01*
X42514Y119138D01*
X43700Y118982D01*
X44886Y119138D01*
X45991Y119596D01*
X46940Y120324D01*
X47668Y121273D01*
X48126Y122379D01*
X48282Y123565D01*
X48126Y124751D01*
X47668Y125856D01*
X46940Y126805D01*
X45991Y127533D01*
X44886Y127991D01*
X43700Y128147D01*
D02*
G37*
G36*
X44200Y118239D02*
Y114222D01*
X48216D01*
X48126Y114908D01*
X47668Y116013D01*
X46940Y116962D01*
X45991Y117691D01*
X44886Y118148D01*
X44200Y118239D01*
D02*
G37*
G36*
X43200Y118239D02*
X42514Y118148D01*
X41409Y117691D01*
X40459Y116962D01*
X39731Y116013D01*
X39273Y114908D01*
X39183Y114222D01*
X43200D01*
Y118239D01*
D02*
G37*
G36*
X386011Y120910D02*
X384876Y120761D01*
X383819Y120323D01*
X382911Y119626D01*
X382214Y118718D01*
X381776Y117661D01*
X381627Y116526D01*
X381776Y115391D01*
X382214Y114334D01*
X382911Y113426D01*
X383819Y112729D01*
X384876Y112291D01*
X386011Y112142D01*
X387145Y112291D01*
X388203Y112729D01*
X389111Y113426D01*
X389807Y114334D01*
X390245Y115391D01*
X390395Y116526D01*
X390245Y117661D01*
X389807Y118718D01*
X389111Y119626D01*
X388203Y120323D01*
X387145Y120761D01*
X386011Y120910D01*
D02*
G37*
G36*
X357743Y121108D02*
X356557Y120952D01*
X355452Y120495D01*
X354503Y119766D01*
X353774Y118817D01*
X353317Y117712D01*
X353161Y116526D01*
X353317Y115340D01*
X353774Y114235D01*
X354503Y113286D01*
X355452Y112557D01*
X356557Y112100D01*
X357743Y111943D01*
X358929Y112100D01*
X360034Y112557D01*
X360983Y113286D01*
X361712Y114235D01*
X362169Y115340D01*
X362326Y116526D01*
X362169Y117712D01*
X361712Y118817D01*
X360983Y119766D01*
X360034Y120495D01*
X358929Y120952D01*
X357743Y121108D01*
D02*
G37*
G36*
X347901D02*
X346715Y120952D01*
X345609Y120495D01*
X344660Y119766D01*
X343932Y118817D01*
X343474Y117712D01*
X343318Y116526D01*
X343474Y115340D01*
X343932Y114235D01*
X344660Y113286D01*
X345609Y112557D01*
X346715Y112100D01*
X347901Y111943D01*
X349087Y112100D01*
X350192Y112557D01*
X351141Y113286D01*
X351869Y114235D01*
X352327Y115340D01*
X352483Y116526D01*
X352327Y117712D01*
X351869Y118817D01*
X351141Y119766D01*
X350192Y120495D01*
X349087Y120952D01*
X347901Y121108D01*
D02*
G37*
G36*
X15432Y118106D02*
X14297Y117957D01*
X13240Y117519D01*
X12332Y116822D01*
X11635Y115914D01*
X11197Y114857D01*
X11048Y113722D01*
X11197Y112587D01*
X11635Y111530D01*
X12332Y110622D01*
X13240Y109925D01*
X14297Y109487D01*
X15432Y109338D01*
X16567Y109487D01*
X17624Y109925D01*
X18532Y110622D01*
X19229Y111530D01*
X19667Y112587D01*
X19816Y113722D01*
X19667Y114857D01*
X19229Y115914D01*
X18532Y116822D01*
X17624Y117519D01*
X16567Y117957D01*
X15432Y118106D01*
D02*
G37*
G36*
X43200Y113222D02*
X39183D01*
X39273Y112536D01*
X39731Y111431D01*
X40459Y110482D01*
X41409Y109753D01*
X42514Y109296D01*
X43200Y109205D01*
Y113222D01*
D02*
G37*
G36*
X48216D02*
X44200D01*
Y109205D01*
X44886Y109296D01*
X45991Y109753D01*
X46940Y110482D01*
X47668Y111431D01*
X48126Y112536D01*
X48216Y113222D01*
D02*
G37*
G36*
X58086Y118265D02*
X48999D01*
Y109179D01*
X58086D01*
Y118265D01*
D02*
G37*
G36*
X188897Y94061D02*
Y91097D01*
X191861D01*
X191807Y91511D01*
X191454Y92362D01*
X190893Y93093D01*
X190162Y93654D01*
X189311Y94007D01*
X188897Y94061D01*
D02*
G37*
G36*
X187897D02*
X187483Y94007D01*
X186632Y93654D01*
X185901Y93093D01*
X185340Y92362D01*
X184987Y91511D01*
X184933Y91097D01*
X187897D01*
Y94061D01*
D02*
G37*
G36*
X191861Y90097D02*
X188897D01*
Y87133D01*
X189311Y87187D01*
X190162Y87540D01*
X190893Y88101D01*
X191454Y88832D01*
X191807Y89683D01*
X191861Y90097D01*
D02*
G37*
G36*
X187897D02*
X184933D01*
X184987Y89683D01*
X185340Y88832D01*
X185901Y88101D01*
X186632Y87540D01*
X187483Y87187D01*
X187897Y87133D01*
Y90097D01*
D02*
G37*
G36*
X163915Y93076D02*
X163001Y92956D01*
X162150Y92603D01*
X161418Y92042D01*
X160857Y91311D01*
X160505Y90460D01*
X160385Y89546D01*
X160505Y88632D01*
X160857Y87781D01*
X161418Y87050D01*
X162150Y86489D01*
X163001Y86136D01*
X163915Y86016D01*
X164828Y86136D01*
X165680Y86489D01*
X166411Y87050D01*
X166972Y87781D01*
X167325Y88632D01*
X167445Y89546D01*
X167325Y90460D01*
X166972Y91311D01*
X166411Y92042D01*
X165680Y92603D01*
X164828Y92956D01*
X163915Y93076D01*
D02*
G37*
G36*
X307289Y57310D02*
X298203D01*
Y48224D01*
X307289D01*
Y57310D01*
D02*
G37*
G36*
X292903Y57350D02*
X291717Y57194D01*
X290612Y56736D01*
X289663Y56007D01*
X288935Y55058D01*
X288477Y53953D01*
X288321Y52767D01*
X288477Y51581D01*
X288935Y50476D01*
X289663Y49527D01*
X290612Y48799D01*
X291717Y48341D01*
X292903Y48185D01*
X294089Y48341D01*
X295195Y48799D01*
X296144Y49527D01*
X296872Y50476D01*
X297330Y51581D01*
X297486Y52767D01*
X297330Y53953D01*
X296872Y55058D01*
X296144Y56007D01*
X295195Y56736D01*
X294089Y57194D01*
X292903Y57350D01*
D02*
G37*
G36*
X283061D02*
X281875Y57194D01*
X280770Y56736D01*
X279821Y56007D01*
X279092Y55058D01*
X278635Y53953D01*
X278479Y52767D01*
X278635Y51581D01*
X279092Y50476D01*
X279821Y49527D01*
X280770Y48799D01*
X281875Y48341D01*
X283061Y48185D01*
X284247Y48341D01*
X285352Y48799D01*
X286301Y49527D01*
X287030Y50476D01*
X287487Y51581D01*
X287644Y52767D01*
X287487Y53953D01*
X287030Y55058D01*
X286301Y56007D01*
X285352Y56736D01*
X284247Y57194D01*
X283061Y57350D01*
D02*
G37*
G36*
X247266Y57349D02*
X246080Y57193D01*
X244975Y56735D01*
X244026Y56007D01*
X243297Y55058D01*
X242840Y53952D01*
X242684Y52766D01*
X242840Y51580D01*
X243297Y50475D01*
X244026Y49526D01*
X244975Y48798D01*
X246080Y48340D01*
X247266Y48184D01*
X248452Y48340D01*
X249557Y48798D01*
X250506Y49526D01*
X251235Y50475D01*
X251692Y51580D01*
X251849Y52766D01*
X251692Y53952D01*
X251235Y55058D01*
X250506Y56007D01*
X249557Y56735D01*
X248452Y57193D01*
X247266Y57349D01*
D02*
G37*
G36*
X183266Y122856D02*
X182352Y122736D01*
X181501Y122384D01*
X180770Y121823D01*
X180209Y121091D01*
X179856Y120240D01*
X179736Y119326D01*
X179856Y118413D01*
X180209Y117561D01*
X180770Y116830D01*
X181501Y116269D01*
X182352Y115916D01*
X183266Y115796D01*
X184180Y115916D01*
X184415Y116014D01*
X229042Y71387D01*
Y57260D01*
X226028D01*
Y48173D01*
X235115D01*
Y57260D01*
X232101D01*
Y72021D01*
X231985Y72606D01*
X231653Y73102D01*
X186578Y118177D01*
X186676Y118413D01*
X186796Y119326D01*
X186676Y120240D01*
X186323Y121091D01*
X185762Y121823D01*
X185031Y122384D01*
X184180Y122736D01*
X183266Y122856D01*
D02*
G37*
G36*
X220729Y57299D02*
X219543Y57143D01*
X218438Y56685D01*
X217489Y55957D01*
X216760Y55007D01*
X216303Y53902D01*
X216146Y52716D01*
X216303Y51530D01*
X216760Y50425D01*
X217489Y49476D01*
X218438Y48748D01*
X219543Y48290D01*
X220729Y48134D01*
X221915Y48290D01*
X223020Y48748D01*
X223969Y49476D01*
X224698Y50425D01*
X225155Y51530D01*
X225311Y52716D01*
X225155Y53902D01*
X224698Y55007D01*
X223969Y55957D01*
X223020Y56685D01*
X221915Y57143D01*
X220729Y57299D01*
D02*
G37*
G36*
X156367Y56951D02*
X147281D01*
Y47865D01*
X156367D01*
Y56951D01*
D02*
G37*
G36*
X141982Y56991D02*
X140796Y56835D01*
X139690Y56377D01*
X138741Y55648D01*
X138013Y54699D01*
X137555Y53594D01*
X137399Y52408D01*
X137555Y51222D01*
X138013Y50117D01*
X138741Y49168D01*
X139690Y48440D01*
X140796Y47982D01*
X141982Y47826D01*
X143168Y47982D01*
X144273Y48440D01*
X145222Y49168D01*
X145950Y50117D01*
X146408Y51222D01*
X146564Y52408D01*
X146408Y53594D01*
X145950Y54699D01*
X145222Y55648D01*
X144273Y56377D01*
X143168Y56835D01*
X141982Y56991D01*
D02*
G37*
G36*
X132139D02*
X130953Y56835D01*
X129848Y56377D01*
X128899Y55648D01*
X128170Y54699D01*
X127713Y53594D01*
X127557Y52408D01*
X127713Y51222D01*
X128170Y50117D01*
X128899Y49168D01*
X129848Y48440D01*
X130953Y47982D01*
X132139Y47826D01*
X133325Y47982D01*
X134430Y48440D01*
X135379Y49168D01*
X136108Y50117D01*
X136565Y51222D01*
X136722Y52408D01*
X136565Y53594D01*
X136108Y54699D01*
X135379Y55648D01*
X134430Y56377D01*
X133325Y56835D01*
X132139Y56991D01*
D02*
G37*
G36*
X83273Y53090D02*
X82036Y52927D01*
X80883Y52450D01*
X79892Y51690D01*
X79132Y50700D01*
X78655Y49546D01*
X78492Y48309D01*
X78655Y47072D01*
X79132Y45919D01*
X79892Y44928D01*
X80883Y44168D01*
X82036Y43691D01*
X83273Y43528D01*
X84510Y43691D01*
X85663Y44168D01*
X86654Y44928D01*
X87414Y45919D01*
X87891Y47072D01*
X88054Y48309D01*
X87891Y49546D01*
X87414Y50700D01*
X86654Y51690D01*
X85663Y52450D01*
X84510Y52927D01*
X83273Y53090D01*
D02*
G37*
G36*
X293403Y47442D02*
Y43425D01*
X297420D01*
X297330Y44111D01*
X296872Y45216D01*
X296144Y46165D01*
X295195Y46893D01*
X294089Y47351D01*
X293403Y47442D01*
D02*
G37*
G36*
X292403D02*
X291717Y47351D01*
X290612Y46893D01*
X289663Y46165D01*
X288935Y45216D01*
X288477Y44111D01*
X288387Y43425D01*
X292403D01*
Y47442D01*
D02*
G37*
G36*
X283561D02*
Y43425D01*
X287578D01*
X287487Y44111D01*
X287030Y45216D01*
X286301Y46165D01*
X285352Y46893D01*
X284247Y47351D01*
X283561Y47442D01*
D02*
G37*
G36*
X282561D02*
X281875Y47351D01*
X280770Y46893D01*
X279821Y46165D01*
X279092Y45216D01*
X278635Y44111D01*
X278544Y43425D01*
X282561D01*
Y47442D01*
D02*
G37*
G36*
X257609Y47440D02*
Y43424D01*
X261625D01*
X261535Y44110D01*
X261077Y45215D01*
X260349Y46164D01*
X259400Y46892D01*
X258295Y47350D01*
X257609Y47440D01*
D02*
G37*
G36*
X256609D02*
X255923Y47350D01*
X254817Y46892D01*
X253868Y46164D01*
X253140Y45215D01*
X252682Y44110D01*
X252592Y43424D01*
X256609D01*
Y47440D01*
D02*
G37*
G36*
X142482Y47082D02*
Y43066D01*
X146498D01*
X146408Y43752D01*
X145950Y44857D01*
X145222Y45806D01*
X144273Y46534D01*
X143168Y46992D01*
X142482Y47082D01*
D02*
G37*
G36*
X141482D02*
X140796Y46992D01*
X139690Y46534D01*
X138741Y45806D01*
X138013Y44857D01*
X137555Y43752D01*
X137465Y43066D01*
X141482D01*
Y47082D01*
D02*
G37*
G36*
X132639D02*
Y43066D01*
X136656D01*
X136565Y43752D01*
X136108Y44857D01*
X135379Y45806D01*
X134430Y46534D01*
X133325Y46992D01*
X132639Y47082D01*
D02*
G37*
G36*
X131639D02*
X130953Y46992D01*
X129848Y46534D01*
X128899Y45806D01*
X128170Y44857D01*
X127713Y43752D01*
X127622Y43066D01*
X131639D01*
Y47082D01*
D02*
G37*
G36*
X297420Y42425D02*
X293403D01*
Y38408D01*
X294089Y38498D01*
X295195Y38956D01*
X296144Y39685D01*
X296872Y40634D01*
X297330Y41739D01*
X297420Y42425D01*
D02*
G37*
G36*
X292403D02*
X288387D01*
X288477Y41739D01*
X288935Y40634D01*
X289663Y39685D01*
X290612Y38956D01*
X291717Y38498D01*
X292403Y38408D01*
Y42425D01*
D02*
G37*
G36*
X287578D02*
X283561D01*
Y38408D01*
X284247Y38498D01*
X285352Y38956D01*
X286301Y39685D01*
X287030Y40634D01*
X287487Y41739D01*
X287578Y42425D01*
D02*
G37*
G36*
X282561D02*
X278544D01*
X278635Y41739D01*
X279092Y40634D01*
X279821Y39685D01*
X280770Y38956D01*
X281875Y38498D01*
X282561Y38408D01*
Y42425D01*
D02*
G37*
G36*
X261625Y42424D02*
X257609D01*
Y38407D01*
X258295Y38497D01*
X259400Y38955D01*
X260349Y39683D01*
X261077Y40633D01*
X261535Y41738D01*
X261625Y42424D01*
D02*
G37*
G36*
X256609D02*
X252592D01*
X252682Y41738D01*
X253140Y40633D01*
X253868Y39683D01*
X254817Y38955D01*
X255923Y38497D01*
X256609Y38407D01*
Y42424D01*
D02*
G37*
G36*
X302746Y47507D02*
X301560Y47351D01*
X300455Y46893D01*
X299506Y46165D01*
X298777Y45216D01*
X298320Y44111D01*
X298164Y42925D01*
X298320Y41739D01*
X298777Y40634D01*
X299506Y39685D01*
X300455Y38956D01*
X301560Y38498D01*
X302746Y38342D01*
X303932Y38498D01*
X305037Y38956D01*
X305986Y39685D01*
X306715Y40634D01*
X307172Y41739D01*
X307329Y42925D01*
X307172Y44111D01*
X306715Y45216D01*
X305986Y46165D01*
X305037Y46893D01*
X303932Y47351D01*
X302746Y47507D01*
D02*
G37*
G36*
X266951Y47506D02*
X265765Y47350D01*
X264660Y46892D01*
X263711Y46164D01*
X262983Y45215D01*
X262525Y44110D01*
X262369Y42924D01*
X262525Y41738D01*
X262983Y40633D01*
X263711Y39683D01*
X264660Y38955D01*
X265765Y38497D01*
X266951Y38341D01*
X268137Y38497D01*
X269243Y38955D01*
X270192Y39683D01*
X270920Y40633D01*
X271378Y41738D01*
X271534Y42924D01*
X271378Y44110D01*
X270920Y45215D01*
X270192Y46164D01*
X269243Y46892D01*
X268137Y47350D01*
X266951Y47506D01*
D02*
G37*
G36*
X247266D02*
X246080Y47350D01*
X244975Y46892D01*
X244026Y46164D01*
X243297Y45215D01*
X242840Y44110D01*
X242684Y42924D01*
X242840Y41738D01*
X243297Y40633D01*
X244026Y39683D01*
X244975Y38955D01*
X246080Y38497D01*
X247266Y38341D01*
X248452Y38497D01*
X249557Y38955D01*
X250506Y39683D01*
X251235Y40633D01*
X251692Y41738D01*
X251849Y42924D01*
X251692Y44110D01*
X251235Y45215D01*
X250506Y46164D01*
X249557Y46892D01*
X248452Y47350D01*
X247266Y47506D01*
D02*
G37*
G36*
X230572Y47456D02*
X229386Y47300D01*
X228280Y46842D01*
X227331Y46114D01*
X226603Y45165D01*
X226145Y44060D01*
X225989Y42874D01*
X226145Y41688D01*
X226603Y40582D01*
X227331Y39634D01*
X228280Y38905D01*
X229386Y38447D01*
X230572Y38291D01*
X231758Y38447D01*
X232863Y38905D01*
X233812Y39634D01*
X234540Y40582D01*
X234998Y41688D01*
X235154Y42874D01*
X234998Y44060D01*
X234540Y45165D01*
X233812Y46114D01*
X232863Y46842D01*
X231758Y47300D01*
X230572Y47456D01*
D02*
G37*
G36*
X220729D02*
X219543Y47300D01*
X218438Y46842D01*
X217489Y46114D01*
X216760Y45165D01*
X216303Y44060D01*
X216146Y42874D01*
X216303Y41688D01*
X216760Y40582D01*
X217489Y39634D01*
X218438Y38905D01*
X219543Y38447D01*
X220729Y38291D01*
X221915Y38447D01*
X223020Y38905D01*
X223969Y39634D01*
X224698Y40582D01*
X225155Y41688D01*
X225311Y42874D01*
X225155Y44060D01*
X224698Y45165D01*
X223969Y46114D01*
X223020Y46842D01*
X221915Y47300D01*
X220729Y47456D01*
D02*
G37*
G36*
X146498Y42066D02*
X142482D01*
Y38049D01*
X143168Y38139D01*
X144273Y38597D01*
X145222Y39325D01*
X145950Y40275D01*
X146408Y41380D01*
X146498Y42066D01*
D02*
G37*
G36*
X141482D02*
X137465D01*
X137555Y41380D01*
X138013Y40275D01*
X138741Y39325D01*
X139690Y38597D01*
X140796Y38139D01*
X141482Y38049D01*
Y42066D01*
D02*
G37*
G36*
X136656D02*
X132639D01*
Y38049D01*
X133325Y38139D01*
X134430Y38597D01*
X135379Y39325D01*
X136108Y40275D01*
X136565Y41380D01*
X136656Y42066D01*
D02*
G37*
G36*
X131639D02*
X127622D01*
X127713Y41380D01*
X128170Y40275D01*
X128899Y39325D01*
X129848Y38597D01*
X130953Y38139D01*
X131639Y38049D01*
Y42066D01*
D02*
G37*
G36*
X151824Y47148D02*
X150638Y46992D01*
X149533Y46534D01*
X148584Y45806D01*
X147855Y44857D01*
X147398Y43752D01*
X147241Y42566D01*
X147398Y41380D01*
X147855Y40275D01*
X148584Y39325D01*
X149533Y38597D01*
X150638Y38139D01*
X151824Y37983D01*
X153010Y38139D01*
X154115Y38597D01*
X155064Y39325D01*
X155793Y40275D01*
X156250Y41380D01*
X156406Y42566D01*
X156250Y43752D01*
X155793Y44857D01*
X155064Y45806D01*
X154115Y46534D01*
X153010Y46992D01*
X151824Y47148D01*
D02*
G37*
G36*
X41541Y47374D02*
X40187Y47241D01*
X38885Y46846D01*
X37685Y46205D01*
X36634Y45342D01*
X35771Y44290D01*
X35130Y43090D01*
X34735Y41789D01*
X34602Y40435D01*
X34735Y39081D01*
X35130Y37780D01*
X35771Y36580D01*
X36634Y35528D01*
X37685Y34666D01*
X38885Y34024D01*
X40187Y33629D01*
X41541Y33496D01*
X42894Y33629D01*
X44196Y34024D01*
X45396Y34666D01*
X46447Y35528D01*
X47310Y36580D01*
X47951Y37780D01*
X48346Y39081D01*
X48480Y40435D01*
X48346Y41789D01*
X47951Y43090D01*
X47310Y44290D01*
X46447Y45342D01*
X45396Y46205D01*
X44196Y46846D01*
X42894Y47241D01*
X41541Y47374D01*
D02*
G37*
G36*
X93115Y43437D02*
X91762Y43304D01*
X90460Y42909D01*
X89260Y42268D01*
X88209Y41405D01*
X87346Y40353D01*
X86705Y39153D01*
X86310Y37852D01*
X86177Y36498D01*
X86310Y35144D01*
X86705Y33843D01*
X87346Y32643D01*
X88209Y31591D01*
X89260Y30729D01*
X90460Y30087D01*
X91762Y29692D01*
X93115Y29559D01*
X94469Y29692D01*
X95771Y30087D01*
X96970Y30729D01*
X98022Y31591D01*
X98885Y32643D01*
X99526Y33843D01*
X99921Y35144D01*
X100054Y36498D01*
X99921Y37852D01*
X99526Y39153D01*
X98885Y40353D01*
X98022Y41405D01*
X96970Y42268D01*
X95771Y42909D01*
X94469Y43304D01*
X93115Y43437D01*
D02*
G37*
G36*
X141982Y21923D02*
X141068Y21802D01*
X140217Y21450D01*
X139486Y20889D01*
X138925Y20157D01*
X138572Y19306D01*
X138452Y18392D01*
X138572Y17479D01*
X138925Y16627D01*
X139486Y15896D01*
X140217Y15335D01*
X141068Y14982D01*
X141982Y14862D01*
X142895Y14982D01*
X143747Y15335D01*
X144478Y15896D01*
X145039Y16627D01*
X145392Y17479D01*
X145512Y18392D01*
X145392Y19306D01*
X145039Y20157D01*
X144478Y20889D01*
X143747Y21450D01*
X142895Y21802D01*
X141982Y21923D01*
D02*
G37*
G36*
X93115Y27689D02*
X91762Y27556D01*
X90460Y27161D01*
X89260Y26520D01*
X88209Y25657D01*
X87346Y24605D01*
X86705Y23405D01*
X86310Y22104D01*
X86177Y20750D01*
X86310Y19396D01*
X86705Y18095D01*
X87346Y16895D01*
X88209Y15843D01*
X89260Y14980D01*
X90460Y14339D01*
X91762Y13944D01*
X93115Y13811D01*
X94469Y13944D01*
X95771Y14339D01*
X96970Y14980D01*
X98022Y15843D01*
X98885Y16895D01*
X99526Y18095D01*
X99921Y19396D01*
X100054Y20750D01*
X99921Y22104D01*
X99526Y23405D01*
X98885Y24605D01*
X98022Y25657D01*
X96970Y26520D01*
X95771Y27161D01*
X94469Y27556D01*
X93115Y27689D01*
D02*
G37*
G36*
X302746Y19041D02*
X301611Y18892D01*
X300554Y18454D01*
X299646Y17757D01*
X298949Y16849D01*
X298511Y15792D01*
X298362Y14657D01*
X298511Y13522D01*
X298949Y12465D01*
X299646Y11557D01*
X300554Y10860D01*
X301611Y10422D01*
X302746Y10273D01*
X303881Y10422D01*
X304938Y10860D01*
X305846Y11557D01*
X306543Y12465D01*
X306981Y13522D01*
X307130Y14657D01*
X306981Y15792D01*
X306543Y16849D01*
X305846Y17757D01*
X304938Y18454D01*
X303881Y18892D01*
X302746Y19041D01*
D02*
G37*
G36*
X283061D02*
X281926Y18892D01*
X280869Y18454D01*
X279961Y17757D01*
X279264Y16849D01*
X278826Y15792D01*
X278677Y14657D01*
X278826Y13522D01*
X279264Y12465D01*
X279961Y11557D01*
X280869Y10860D01*
X281926Y10422D01*
X283061Y10273D01*
X284196Y10422D01*
X285253Y10860D01*
X286161Y11557D01*
X286858Y12465D01*
X287296Y13522D01*
X287445Y14657D01*
X287296Y15792D01*
X286858Y16849D01*
X286161Y17757D01*
X285253Y18454D01*
X284196Y18892D01*
X283061Y19041D01*
D02*
G37*
G36*
X266951Y19040D02*
X265817Y18891D01*
X264759Y18453D01*
X263851Y17756D01*
X263155Y16848D01*
X262717Y15791D01*
X262567Y14656D01*
X262717Y13521D01*
X263155Y12464D01*
X263851Y11556D01*
X264759Y10859D01*
X265817Y10421D01*
X266951Y10272D01*
X268086Y10421D01*
X269143Y10859D01*
X270051Y11556D01*
X270748Y12464D01*
X271186Y13521D01*
X271335Y14656D01*
X271186Y15791D01*
X270748Y16848D01*
X270051Y17756D01*
X269143Y18453D01*
X268086Y18891D01*
X266951Y19040D01*
D02*
G37*
G36*
X247266D02*
X246131Y18891D01*
X245074Y18453D01*
X244166Y17756D01*
X243469Y16848D01*
X243031Y15791D01*
X242882Y14656D01*
X243031Y13521D01*
X243469Y12464D01*
X244166Y11556D01*
X245074Y10859D01*
X246131Y10421D01*
X247266Y10272D01*
X248401Y10421D01*
X249458Y10859D01*
X250366Y11556D01*
X251063Y12464D01*
X251501Y13521D01*
X251650Y14656D01*
X251501Y15791D01*
X251063Y16848D01*
X250366Y17756D01*
X249458Y18453D01*
X248401Y18891D01*
X247266Y19040D01*
D02*
G37*
G36*
X230572Y18990D02*
X229437Y18841D01*
X228380Y18403D01*
X227472Y17706D01*
X226775Y16798D01*
X226337Y15741D01*
X226188Y14606D01*
X226337Y13471D01*
X226775Y12414D01*
X227472Y11506D01*
X228380Y10809D01*
X229437Y10371D01*
X230572Y10222D01*
X231706Y10371D01*
X232764Y10809D01*
X233671Y11506D01*
X234368Y12414D01*
X234806Y13471D01*
X234956Y14606D01*
X234806Y15741D01*
X234368Y16798D01*
X233671Y17706D01*
X232764Y18403D01*
X231706Y18841D01*
X230572Y18990D01*
D02*
G37*
G36*
X220729D02*
X219594Y18841D01*
X218537Y18403D01*
X217629Y17706D01*
X216932Y16798D01*
X216494Y15741D01*
X216345Y14606D01*
X216494Y13471D01*
X216932Y12414D01*
X217629Y11506D01*
X218537Y10809D01*
X219594Y10371D01*
X220729Y10222D01*
X221864Y10371D01*
X222921Y10809D01*
X223829Y11506D01*
X224526Y12414D01*
X224964Y13471D01*
X225113Y14606D01*
X224964Y15741D01*
X224526Y16798D01*
X223829Y17706D01*
X222921Y18403D01*
X221864Y18841D01*
X220729Y18990D01*
D02*
G37*
G36*
X151824Y18682D02*
X150689Y18533D01*
X149632Y18095D01*
X148724Y17398D01*
X148027Y16490D01*
X147589Y15433D01*
X147440Y14298D01*
X147589Y13163D01*
X148027Y12106D01*
X148724Y11198D01*
X149632Y10501D01*
X150689Y10063D01*
X151824Y9914D01*
X152959Y10063D01*
X154016Y10501D01*
X154924Y11198D01*
X155621Y12106D01*
X156059Y13163D01*
X156208Y14298D01*
X156059Y15433D01*
X155621Y16490D01*
X154924Y17398D01*
X154016Y18095D01*
X152959Y18533D01*
X151824Y18682D01*
D02*
G37*
G36*
X132139D02*
X131004Y18533D01*
X129947Y18095D01*
X129039Y17398D01*
X128342Y16490D01*
X127904Y15433D01*
X127755Y14298D01*
X127904Y13163D01*
X128342Y12106D01*
X129039Y11198D01*
X129947Y10501D01*
X131004Y10063D01*
X132139Y9914D01*
X133274Y10063D01*
X134331Y10501D01*
X135239Y11198D01*
X135936Y12106D01*
X136374Y13163D01*
X136523Y14298D01*
X136374Y15433D01*
X135936Y16490D01*
X135239Y17398D01*
X134331Y18095D01*
X133274Y18533D01*
X132139Y18682D01*
D02*
G37*
G36*
X41541Y23752D02*
X40187Y23619D01*
X38885Y23224D01*
X37685Y22582D01*
X36634Y21720D01*
X35771Y20668D01*
X35130Y19468D01*
X34735Y18167D01*
X34602Y16813D01*
X34735Y15459D01*
X35130Y14158D01*
X35771Y12958D01*
X36634Y11906D01*
X37685Y11044D01*
X38885Y10402D01*
X40187Y10007D01*
X41541Y9874D01*
X42894Y10007D01*
X44196Y10402D01*
X45396Y11044D01*
X46447Y11906D01*
X47310Y12958D01*
X47951Y14158D01*
X48346Y15459D01*
X48480Y16813D01*
X48346Y18167D01*
X47951Y19468D01*
X47310Y20668D01*
X46447Y21720D01*
X45396Y22582D01*
X44196Y23224D01*
X42894Y23619D01*
X41541Y23752D01*
D02*
G37*
G36*
X83273Y13720D02*
X82036Y13557D01*
X80883Y13080D01*
X79892Y12320D01*
X79132Y11329D01*
X78655Y10176D01*
X78492Y8939D01*
X78655Y7702D01*
X79132Y6549D01*
X79892Y5558D01*
X80883Y4798D01*
X82036Y4321D01*
X83273Y4158D01*
X84510Y4321D01*
X85663Y4798D01*
X86654Y5558D01*
X87414Y6549D01*
X87891Y7702D01*
X88054Y8939D01*
X87891Y10176D01*
X87414Y11329D01*
X86654Y12320D01*
X85663Y13080D01*
X84510Y13557D01*
X83273Y13720D01*
D02*
G37*
G36*
X388189Y19541D02*
X386681Y19393D01*
X385231Y18953D01*
X383894Y18238D01*
X382723Y17277D01*
X381762Y16106D01*
X381047Y14769D01*
X380607Y13319D01*
X380459Y11811D01*
X380607Y10303D01*
X381047Y8853D01*
X381762Y7516D01*
X382723Y6345D01*
X383894Y5384D01*
X385231Y4669D01*
X386681Y4229D01*
X388189Y4081D01*
X389697Y4229D01*
X391147Y4669D01*
X392484Y5384D01*
X393655Y6345D01*
X394616Y7516D01*
X395331Y8853D01*
X395771Y10303D01*
X395919Y11811D01*
X395771Y13319D01*
X395331Y14769D01*
X394616Y16106D01*
X393655Y17277D01*
X392484Y18238D01*
X391147Y18953D01*
X389697Y19393D01*
X388189Y19541D01*
D02*
G37*
G36*
X11811D02*
X10303Y19393D01*
X8853Y18953D01*
X7516Y18238D01*
X6345Y17277D01*
X5384Y16106D01*
X4669Y14769D01*
X4229Y13319D01*
X4081Y11811D01*
X4229Y10303D01*
X4669Y8853D01*
X5384Y7516D01*
X6345Y6345D01*
X7516Y5384D01*
X8853Y4669D01*
X10303Y4229D01*
X11811Y4081D01*
X13319Y4229D01*
X14769Y4669D01*
X16106Y5384D01*
X17277Y6345D01*
X18238Y7516D01*
X18953Y8853D01*
X19393Y10303D01*
X19541Y11811D01*
X19393Y13319D01*
X18953Y14769D01*
X18238Y16106D01*
X17277Y17277D01*
X16106Y18238D01*
X14769Y18953D01*
X13319Y19393D01*
X11811Y19541D01*
D02*
G37*
G36*
X142190Y690674D02*
Y687710D01*
X145154D01*
X145100Y688124D01*
X144747Y688975D01*
X144186Y689706D01*
X143455Y690267D01*
X142604Y690620D01*
X142190Y690674D01*
D02*
G37*
G36*
X141190D02*
X140776Y690620D01*
X139925Y690267D01*
X139194Y689706D01*
X138633Y688975D01*
X138280Y688124D01*
X138226Y687710D01*
X141190D01*
Y690674D01*
D02*
G37*
G36*
X270276Y695481D02*
X269038Y695318D01*
X267885Y694840D01*
X266895Y694081D01*
X266135Y693090D01*
X265657Y691937D01*
X265494Y690700D01*
X265657Y689463D01*
X266135Y688309D01*
X266895Y687319D01*
X267885Y686559D01*
X269038Y686082D01*
X270276Y685919D01*
X271513Y686082D01*
X272666Y686559D01*
X273656Y687319D01*
X274416Y688309D01*
X274894Y689463D01*
X275057Y690700D01*
X274894Y691937D01*
X274416Y693090D01*
X273656Y694081D01*
X272666Y694840D01*
X271513Y695318D01*
X270276Y695481D01*
D02*
G37*
G36*
X145154Y686710D02*
X142190D01*
Y683746D01*
X142604Y683800D01*
X143455Y684153D01*
X144186Y684714D01*
X144747Y685445D01*
X145100Y686296D01*
X145154Y686710D01*
D02*
G37*
G36*
X141190D02*
X138226D01*
X138280Y686296D01*
X138633Y685445D01*
X139194Y684714D01*
X139925Y684153D01*
X140776Y683800D01*
X141190Y683746D01*
Y686710D01*
D02*
G37*
G36*
X367126Y690211D02*
X365991Y690061D01*
X364934Y689623D01*
X364026Y688927D01*
X363329Y688019D01*
X362891Y686961D01*
X362742Y685827D01*
X362891Y684692D01*
X363329Y683635D01*
X364026Y682727D01*
X364934Y682030D01*
X365991Y681592D01*
X367126Y681443D01*
X368261Y681592D01*
X369318Y682030D01*
X370226Y682727D01*
X370923Y683635D01*
X371361Y684692D01*
X371510Y685827D01*
X371361Y686961D01*
X370923Y688019D01*
X370226Y688927D01*
X369318Y689623D01*
X368261Y690061D01*
X367126Y690211D01*
D02*
G37*
G36*
X357283D02*
X356149Y690061D01*
X355091Y689623D01*
X354184Y688927D01*
X353487Y688019D01*
X353049Y686961D01*
X352899Y685827D01*
X353049Y684692D01*
X353487Y683635D01*
X354184Y682727D01*
X355091Y682030D01*
X356149Y681592D01*
X357283Y681443D01*
X358418Y681592D01*
X359475Y682030D01*
X360383Y682727D01*
X361080Y683635D01*
X361518Y684692D01*
X361667Y685827D01*
X361518Y686961D01*
X361080Y688019D01*
X360383Y688927D01*
X359475Y689623D01*
X358418Y690061D01*
X357283Y690211D01*
D02*
G37*
G36*
X388189Y695919D02*
X386681Y695771D01*
X385231Y695331D01*
X383894Y694616D01*
X382723Y693655D01*
X381762Y692484D01*
X381047Y691147D01*
X380607Y689697D01*
X380459Y688189D01*
X380607Y686681D01*
X381047Y685231D01*
X381762Y683894D01*
X382723Y682723D01*
X383894Y681762D01*
X385231Y681047D01*
X386681Y680607D01*
X388189Y680459D01*
X389697Y680607D01*
X391147Y681047D01*
X392484Y681762D01*
X393655Y682723D01*
X394616Y683894D01*
X395331Y685231D01*
X395771Y686681D01*
X395919Y688189D01*
X395771Y689697D01*
X395331Y691147D01*
X394616Y692484D01*
X393655Y693655D01*
X392484Y694616D01*
X391147Y695331D01*
X389697Y695771D01*
X388189Y695919D01*
D02*
G37*
G36*
X11811D02*
X10303Y695771D01*
X8853Y695331D01*
X7516Y694616D01*
X6345Y693655D01*
X5384Y692484D01*
X4669Y691147D01*
X4229Y689697D01*
X4081Y688189D01*
X4229Y686681D01*
X4669Y685231D01*
X5384Y683894D01*
X6345Y682723D01*
X7516Y681762D01*
X8853Y681047D01*
X10303Y680607D01*
X11811Y680459D01*
X13319Y680607D01*
X14769Y681047D01*
X16106Y681762D01*
X17277Y682723D01*
X18238Y683894D01*
X18953Y685231D01*
X19393Y686681D01*
X19541Y688189D01*
X19393Y689697D01*
X18953Y691147D01*
X18238Y692484D01*
X17277Y693655D01*
X16106Y694616D01*
X14769Y695331D01*
X13319Y695771D01*
X11811Y695919D01*
D02*
G37*
G36*
X162660Y681114D02*
Y678150D01*
X165624D01*
X165570Y678564D01*
X165217Y679415D01*
X164656Y680146D01*
X163925Y680707D01*
X163074Y681060D01*
X162660Y681114D01*
D02*
G37*
G36*
X161660D02*
X161246Y681060D01*
X160395Y680707D01*
X159664Y680146D01*
X159103Y679415D01*
X158750Y678564D01*
X158696Y678150D01*
X161660D01*
Y681114D01*
D02*
G37*
G36*
X312008Y689765D02*
X310654Y689632D01*
X309352Y689237D01*
X308153Y688595D01*
X307101Y687733D01*
X306238Y686681D01*
X305597Y685481D01*
X305202Y684180D01*
X305069Y682826D01*
X305202Y681472D01*
X305597Y680171D01*
X306238Y678971D01*
X307101Y677919D01*
X308153Y677057D01*
X309352Y676415D01*
X310654Y676020D01*
X312008Y675887D01*
X313362Y676020D01*
X314663Y676415D01*
X315863Y677057D01*
X316914Y677919D01*
X317777Y678971D01*
X318419Y680171D01*
X318813Y681472D01*
X318947Y682826D01*
X318813Y684180D01*
X318419Y685481D01*
X317777Y686681D01*
X316914Y687733D01*
X315863Y688595D01*
X314663Y689237D01*
X313362Y689632D01*
X312008Y689765D01*
D02*
G37*
G36*
X165624Y677150D02*
X162660D01*
Y674186D01*
X163074Y674240D01*
X163925Y674593D01*
X164656Y675154D01*
X165217Y675885D01*
X165570Y676736D01*
X165624Y677150D01*
D02*
G37*
G36*
X161660D02*
X158696D01*
X158750Y676736D01*
X159103Y675885D01*
X159664Y675154D01*
X160395Y674593D01*
X161246Y674240D01*
X161660Y674186D01*
Y677150D01*
D02*
G37*
G36*
X14610Y676878D02*
Y673914D01*
X17574D01*
X17520Y674328D01*
X17167Y675179D01*
X16606Y675910D01*
X15875Y676471D01*
X15024Y676824D01*
X14610Y676878D01*
D02*
G37*
G36*
X13610D02*
X13196Y676824D01*
X12345Y676471D01*
X11614Y675910D01*
X11053Y675179D01*
X10700Y674328D01*
X10646Y673914D01*
X13610D01*
Y676878D01*
D02*
G37*
G36*
X260433Y685828D02*
X259079Y685695D01*
X257778Y685300D01*
X256578Y684658D01*
X255526Y683796D01*
X254663Y682744D01*
X254022Y681544D01*
X253627Y680243D01*
X253494Y678889D01*
X253627Y677535D01*
X254022Y676234D01*
X254663Y675034D01*
X255526Y673982D01*
X256578Y673119D01*
X257778Y672478D01*
X259079Y672083D01*
X260433Y671950D01*
X261787Y672083D01*
X263088Y672478D01*
X264288Y673119D01*
X265340Y673982D01*
X266202Y675034D01*
X266844Y676234D01*
X267239Y677535D01*
X267372Y678889D01*
X267239Y680243D01*
X266844Y681544D01*
X266202Y682744D01*
X265340Y683796D01*
X264288Y684658D01*
X263088Y685300D01*
X261787Y685695D01*
X260433Y685828D01*
D02*
G37*
G36*
X17574Y672914D02*
X14610D01*
Y669950D01*
X15024Y670004D01*
X15875Y670357D01*
X16606Y670918D01*
X17167Y671649D01*
X17520Y672500D01*
X17574Y672914D01*
D02*
G37*
G36*
X13610D02*
X10646D01*
X10700Y672500D01*
X11053Y671649D01*
X11614Y670918D01*
X12345Y670357D01*
X13196Y670004D01*
X13610Y669950D01*
Y672914D01*
D02*
G37*
G36*
X260433Y670080D02*
X259079Y669947D01*
X257778Y669552D01*
X256578Y668911D01*
X255526Y668048D01*
X254663Y666996D01*
X254022Y665796D01*
X253627Y664495D01*
X253494Y663141D01*
X253627Y661787D01*
X254022Y660486D01*
X254663Y659286D01*
X255526Y658234D01*
X256578Y657372D01*
X257778Y656730D01*
X259079Y656335D01*
X260433Y656202D01*
X261787Y656335D01*
X263088Y656730D01*
X264288Y657372D01*
X265340Y658234D01*
X266202Y659286D01*
X266844Y660486D01*
X267239Y661787D01*
X267372Y663141D01*
X267239Y664495D01*
X266844Y665796D01*
X266202Y666996D01*
X265340Y668048D01*
X264288Y668911D01*
X263088Y669552D01*
X261787Y669947D01*
X260433Y670080D01*
D02*
G37*
G36*
X367126Y662142D02*
X365940Y661985D01*
X364835Y661528D01*
X363886Y660799D01*
X363157Y659850D01*
X362700Y658745D01*
X362544Y657559D01*
X362700Y656373D01*
X363157Y655268D01*
X363886Y654319D01*
X364835Y653590D01*
X365940Y653133D01*
X367126Y652977D01*
X368312Y653133D01*
X369417Y653590D01*
X370366Y654319D01*
X371095Y655268D01*
X371552Y656373D01*
X371708Y657559D01*
X371552Y658745D01*
X371095Y659850D01*
X370366Y660799D01*
X369417Y661528D01*
X368312Y661985D01*
X367126Y662142D01*
D02*
G37*
G36*
X357283D02*
X356097Y661985D01*
X354992Y661528D01*
X354043Y660799D01*
X353315Y659850D01*
X352857Y658745D01*
X352701Y657559D01*
X352857Y656373D01*
X353315Y655268D01*
X354043Y654319D01*
X354992Y653590D01*
X356097Y653133D01*
X357283Y652977D01*
X358469Y653133D01*
X359575Y653590D01*
X360524Y654319D01*
X361252Y655268D01*
X361710Y656373D01*
X361866Y657559D01*
X361710Y658745D01*
X361252Y659850D01*
X360524Y660799D01*
X359575Y661528D01*
X358469Y661985D01*
X357283Y662142D01*
D02*
G37*
G36*
X312008Y666143D02*
X310654Y666010D01*
X309352Y665615D01*
X308153Y664973D01*
X307101Y664111D01*
X306238Y663059D01*
X305597Y661859D01*
X305202Y660558D01*
X305069Y659204D01*
X305202Y657850D01*
X305597Y656549D01*
X306238Y655349D01*
X307101Y654297D01*
X308153Y653435D01*
X309352Y652793D01*
X310654Y652398D01*
X312008Y652265D01*
X313362Y652398D01*
X314663Y652793D01*
X315863Y653435D01*
X316914Y654297D01*
X317777Y655349D01*
X318419Y656549D01*
X318813Y657850D01*
X318947Y659204D01*
X318813Y660558D01*
X318419Y661859D01*
X317777Y663059D01*
X316914Y664111D01*
X315863Y664973D01*
X314663Y665615D01*
X313362Y666010D01*
X312008Y666143D01*
D02*
G37*
G36*
X361827Y652260D02*
X357784D01*
Y648216D01*
X361827D01*
Y652260D01*
D02*
G37*
G36*
X367626Y652233D02*
Y648216D01*
X371643D01*
X371552Y648903D01*
X371095Y650008D01*
X370366Y650957D01*
X369417Y651685D01*
X368312Y652143D01*
X367626Y652233D01*
D02*
G37*
G36*
X366626Y652233D02*
X365940Y652143D01*
X364835Y651685D01*
X363886Y650957D01*
X363157Y650008D01*
X362700Y648903D01*
X362609Y648216D01*
X366626D01*
Y652233D01*
D02*
G37*
G36*
X356784Y652260D02*
X352740D01*
Y648216D01*
X356784D01*
Y652260D01*
D02*
G37*
G36*
X270276Y656111D02*
X269038Y655948D01*
X267885Y655471D01*
X266895Y654711D01*
X266135Y653721D01*
X265657Y652567D01*
X265494Y651330D01*
X265657Y650093D01*
X266135Y648940D01*
X266895Y647949D01*
X267885Y647190D01*
X269038Y646712D01*
X270276Y646549D01*
X271513Y646712D01*
X272666Y647190D01*
X273656Y647949D01*
X274416Y648940D01*
X274894Y650093D01*
X275057Y651330D01*
X274894Y652567D01*
X274416Y653721D01*
X273656Y654711D01*
X272666Y655471D01*
X271513Y655948D01*
X270276Y656111D01*
D02*
G37*
G36*
X371643Y647216D02*
X367626D01*
Y643200D01*
X368312Y643290D01*
X369417Y643748D01*
X370366Y644476D01*
X371095Y645425D01*
X371552Y646531D01*
X371643Y647216D01*
D02*
G37*
G36*
X366626D02*
X362609D01*
X362700Y646531D01*
X363157Y645425D01*
X363886Y644476D01*
X364835Y643748D01*
X365940Y643290D01*
X366626Y643200D01*
Y647216D01*
D02*
G37*
G36*
X361827D02*
X357784D01*
Y643173D01*
X361827D01*
Y647216D01*
D02*
G37*
G36*
X356784D02*
X352740D01*
Y643173D01*
X356784D01*
Y647216D01*
D02*
G37*
G36*
X20185Y647373D02*
Y642562D01*
X24996D01*
X24879Y643454D01*
X24341Y644750D01*
X23487Y645864D01*
X22373Y646718D01*
X21077Y647256D01*
X20185Y647373D01*
D02*
G37*
G36*
X19185D02*
X18293Y647256D01*
X16997Y646718D01*
X15883Y645864D01*
X15029Y644750D01*
X14491Y643454D01*
X14374Y642562D01*
X19185D01*
Y647373D01*
D02*
G37*
G36*
X199894Y643007D02*
Y639189D01*
X203712D01*
X203628Y639824D01*
X203190Y640881D01*
X202494Y641789D01*
X201586Y642486D01*
X200528Y642924D01*
X199894Y643007D01*
D02*
G37*
G36*
X198894D02*
X198259Y642924D01*
X197202Y642486D01*
X196294Y641789D01*
X195597Y640881D01*
X195159Y639824D01*
X195076Y639189D01*
X198894D01*
Y643007D01*
D02*
G37*
G36*
X24996Y641562D02*
X20185D01*
Y636751D01*
X21077Y636868D01*
X22373Y637406D01*
X23487Y638260D01*
X24341Y639374D01*
X24879Y640670D01*
X24996Y641562D01*
D02*
G37*
G36*
X19185D02*
X14374D01*
X14491Y640670D01*
X15029Y639374D01*
X15883Y638260D01*
X16997Y637406D01*
X18293Y636868D01*
X19185Y636751D01*
Y641562D01*
D02*
G37*
G36*
X84858Y647393D02*
X74197D01*
Y636731D01*
X84858D01*
Y647393D01*
D02*
G37*
G36*
X49606Y647439D02*
X48215Y647256D01*
X46918Y646718D01*
X45805Y645864D01*
X44950Y644750D01*
X44413Y643454D01*
X44230Y642062D01*
X44413Y640670D01*
X44950Y639374D01*
X45805Y638260D01*
X46918Y637406D01*
X48215Y636868D01*
X49606Y636685D01*
X50998Y636868D01*
X52295Y637406D01*
X53408Y638260D01*
X54263Y639374D01*
X54800Y640670D01*
X54983Y642062D01*
X54800Y643454D01*
X54263Y644750D01*
X53408Y645864D01*
X52295Y646718D01*
X50998Y647256D01*
X49606Y647439D01*
D02*
G37*
G36*
X203712Y638189D02*
X199894D01*
Y634371D01*
X200528Y634455D01*
X201586Y634893D01*
X202494Y635589D01*
X203190Y636497D01*
X203628Y637555D01*
X203712Y638189D01*
D02*
G37*
G36*
X198894D02*
X195076D01*
X195159Y637555D01*
X195597Y636497D01*
X196294Y635589D01*
X197202Y634893D01*
X198259Y634455D01*
X198894Y634371D01*
Y638189D01*
D02*
G37*
G36*
X229394Y643073D02*
X228259Y642924D01*
X227202Y642486D01*
X226294Y641789D01*
X225597Y640881D01*
X225159Y639824D01*
X225010Y638689D01*
X225159Y637555D01*
X225597Y636497D01*
X226294Y635589D01*
X227202Y634893D01*
X228259Y634455D01*
X229394Y634305D01*
X230528Y634455D01*
X231586Y634893D01*
X232494Y635589D01*
X233190Y636497D01*
X233628Y637555D01*
X233778Y638689D01*
X233628Y639824D01*
X233190Y640881D01*
X232494Y641789D01*
X231586Y642486D01*
X230528Y642924D01*
X229394Y643073D01*
D02*
G37*
G36*
X179394D02*
X178259Y642924D01*
X177202Y642486D01*
X176294Y641789D01*
X175597Y640881D01*
X175159Y639824D01*
X175010Y638689D01*
X175159Y637555D01*
X175597Y636497D01*
X176294Y635589D01*
X177202Y634893D01*
X178259Y634455D01*
X179394Y634305D01*
X180528Y634455D01*
X181586Y634893D01*
X182494Y635589D01*
X183190Y636497D01*
X183628Y637555D01*
X183778Y638689D01*
X183628Y639824D01*
X183190Y640881D01*
X182494Y641789D01*
X181586Y642486D01*
X180528Y642924D01*
X179394Y643073D01*
D02*
G37*
G36*
X108444Y576918D02*
Y573954D01*
X111408D01*
X111354Y574368D01*
X111001Y575219D01*
X110440Y575950D01*
X109709Y576511D01*
X108858Y576864D01*
X108444Y576918D01*
D02*
G37*
G36*
X107444D02*
X107030Y576864D01*
X106179Y576511D01*
X105448Y575950D01*
X104887Y575219D01*
X104534Y574368D01*
X104480Y573954D01*
X107444D01*
Y576918D01*
D02*
G37*
G36*
X111408Y572954D02*
X108444D01*
Y569990D01*
X108858Y570044D01*
X109709Y570397D01*
X110440Y570958D01*
X111001Y571689D01*
X111354Y572540D01*
X111408Y572954D01*
D02*
G37*
G36*
X107444D02*
X104480D01*
X104534Y572540D01*
X104887Y571689D01*
X105448Y570958D01*
X106179Y570397D01*
X107030Y570044D01*
X107444Y569990D01*
Y572954D01*
D02*
G37*
G36*
X229894Y563007D02*
Y559189D01*
X233712D01*
X233628Y559824D01*
X233190Y560881D01*
X232494Y561789D01*
X231586Y562486D01*
X230528Y562924D01*
X229894Y563007D01*
D02*
G37*
G36*
X228894D02*
X228259Y562924D01*
X227202Y562486D01*
X226294Y561789D01*
X225597Y560881D01*
X225159Y559824D01*
X225076Y559189D01*
X228894D01*
Y563007D01*
D02*
G37*
G36*
X233712Y558189D02*
X229894D01*
Y554371D01*
X230528Y554455D01*
X231586Y554893D01*
X232494Y555589D01*
X233190Y556497D01*
X233628Y557555D01*
X233712Y558189D01*
D02*
G37*
G36*
X228894D02*
X225076D01*
X225159Y557555D01*
X225597Y556497D01*
X226294Y555589D01*
X227202Y554893D01*
X228259Y554455D01*
X228894Y554371D01*
Y558189D01*
D02*
G37*
G36*
X189394Y563073D02*
X188259Y562924D01*
X187202Y562486D01*
X186294Y561789D01*
X185597Y560881D01*
X185159Y559824D01*
X185010Y558689D01*
X185159Y557555D01*
X185597Y556497D01*
X186294Y555589D01*
X187202Y554893D01*
X188259Y554455D01*
X189394Y554305D01*
X190528Y554455D01*
X191586Y554893D01*
X192494Y555589D01*
X193190Y556497D01*
X193628Y557555D01*
X193778Y558689D01*
X193628Y559824D01*
X193190Y560881D01*
X192494Y561789D01*
X191586Y562486D01*
X190528Y562924D01*
X189394Y563073D01*
D02*
G37*
G36*
X149394D02*
X148259Y562924D01*
X147202Y562486D01*
X146294Y561789D01*
X145597Y560881D01*
X145159Y559824D01*
X145010Y558689D01*
X145159Y557555D01*
X145597Y556497D01*
X146294Y555589D01*
X147202Y554893D01*
X148259Y554455D01*
X149394Y554305D01*
X150528Y554455D01*
X151586Y554893D01*
X152494Y555589D01*
X153190Y556497D01*
X153628Y557555D01*
X153778Y558689D01*
X153628Y559824D01*
X153190Y560881D01*
X152494Y561789D01*
X151586Y562486D01*
X150528Y562924D01*
X149394Y563073D01*
D02*
G37*
G36*
X20185Y538615D02*
Y532720D01*
X26080D01*
X26006Y533477D01*
X25639Y534686D01*
X25043Y535800D01*
X24242Y536776D01*
X23265Y537578D01*
X22151Y538173D01*
X20942Y538540D01*
X20185Y538615D01*
D02*
G37*
G36*
X19185Y538615D02*
X18428Y538540D01*
X17219Y538173D01*
X16105Y537578D01*
X15128Y536776D01*
X14327Y535800D01*
X13731Y534686D01*
X13364Y533477D01*
X13290Y532720D01*
X19185D01*
Y538615D01*
D02*
G37*
G36*
X64567Y537596D02*
X63175Y537413D01*
X61879Y536876D01*
X60765Y536022D01*
X59911Y534908D01*
X59373Y533611D01*
X59190Y532220D01*
X59373Y530828D01*
X59911Y529531D01*
X60765Y528418D01*
X61879Y527563D01*
X63175Y527026D01*
X64567Y526843D01*
X65959Y527026D01*
X67255Y527563D01*
X68369Y528418D01*
X69223Y529531D01*
X69761Y530828D01*
X69944Y532220D01*
X69761Y533611D01*
X69223Y534908D01*
X68369Y536022D01*
X67255Y536876D01*
X65959Y537413D01*
X64567Y537596D01*
D02*
G37*
G36*
X49606D02*
X48215Y537413D01*
X46918Y536876D01*
X45805Y536022D01*
X44950Y534908D01*
X44413Y533611D01*
X44230Y532220D01*
X44413Y530828D01*
X44950Y529531D01*
X45805Y528418D01*
X46918Y527563D01*
X48215Y527026D01*
X49606Y526843D01*
X50998Y527026D01*
X52295Y527563D01*
X53408Y528418D01*
X54263Y529531D01*
X54800Y530828D01*
X54983Y532220D01*
X54800Y533611D01*
X54263Y534908D01*
X53408Y536022D01*
X52295Y536876D01*
X50998Y537413D01*
X49606Y537596D01*
D02*
G37*
G36*
X26080Y531720D02*
X20185D01*
Y525824D01*
X20942Y525899D01*
X22151Y526266D01*
X23265Y526861D01*
X24242Y527663D01*
X25043Y528639D01*
X25639Y529753D01*
X26006Y530962D01*
X26080Y531720D01*
D02*
G37*
G36*
X19185D02*
X13290D01*
X13364Y530962D01*
X13731Y529753D01*
X14327Y528639D01*
X15128Y527663D01*
X16105Y526861D01*
X17219Y526266D01*
X18428Y525899D01*
X19185Y525824D01*
Y531720D01*
D02*
G37*
G36*
X79528Y538664D02*
X78270Y538540D01*
X77061Y538173D01*
X75947Y537578D01*
X74971Y536776D01*
X74169Y535800D01*
X73574Y534686D01*
X73207Y533477D01*
X73083Y532220D01*
X73207Y530962D01*
X73574Y529753D01*
X74169Y528639D01*
X74971Y527663D01*
X75947Y526861D01*
X77061Y526266D01*
X78270Y525899D01*
X79528Y525775D01*
X80785Y525899D01*
X81994Y526266D01*
X83108Y526861D01*
X84084Y527663D01*
X84886Y528639D01*
X85482Y529753D01*
X85848Y530962D01*
X85972Y532220D01*
X85848Y533477D01*
X85482Y534686D01*
X84886Y535800D01*
X84084Y536776D01*
X83108Y537578D01*
X81994Y538173D01*
X80785Y538540D01*
X79528Y538664D01*
D02*
G37*
G36*
X357901Y517321D02*
X357487Y517267D01*
X356636Y516914D01*
X355905Y516353D01*
X355344Y515622D01*
X354991Y514771D01*
X354937Y514357D01*
X357901D01*
Y517321D01*
D02*
G37*
G36*
X51530Y514144D02*
Y511180D01*
X54494D01*
X54440Y511594D01*
X54087Y512445D01*
X53526Y513176D01*
X52795Y513737D01*
X51944Y514090D01*
X51530Y514144D01*
D02*
G37*
G36*
X50530D02*
X50116Y514090D01*
X49265Y513737D01*
X48534Y513176D01*
X47973Y512445D01*
X47620Y511594D01*
X47566Y511180D01*
X50530D01*
Y514144D01*
D02*
G37*
G36*
X138080Y514730D02*
X137166Y514610D01*
X136315Y514257D01*
X135584Y513696D01*
X135023Y512965D01*
X134670Y512114D01*
X134550Y511200D01*
X134670Y510286D01*
X135023Y509435D01*
X135584Y508704D01*
X136315Y508143D01*
X137166Y507790D01*
X138080Y507670D01*
X138994Y507790D01*
X139845Y508143D01*
X140576Y508704D01*
X141137Y509435D01*
X141490Y510286D01*
X141610Y511200D01*
X141490Y512114D01*
X141137Y512965D01*
X140576Y513696D01*
X139845Y514257D01*
X138994Y514610D01*
X138080Y514730D01*
D02*
G37*
G36*
X54494Y510180D02*
X51530D01*
Y507216D01*
X51944Y507270D01*
X52795Y507623D01*
X53526Y508184D01*
X54087Y508915D01*
X54440Y509766D01*
X54494Y510180D01*
D02*
G37*
G36*
X50530D02*
X47566D01*
X47620Y509766D01*
X47973Y508915D01*
X48534Y508184D01*
X49265Y507623D01*
X50116Y507270D01*
X50530Y507216D01*
Y510180D01*
D02*
G37*
G36*
X192770Y505760D02*
X191856Y505640D01*
X191005Y505287D01*
X190274Y504726D01*
X189713Y503995D01*
X189360Y503144D01*
X189240Y502230D01*
X189360Y501316D01*
X189713Y500465D01*
X190274Y499734D01*
X191005Y499173D01*
X191856Y498820D01*
X192770Y498700D01*
X193684Y498820D01*
X194535Y499173D01*
X195266Y499734D01*
X195827Y500465D01*
X196180Y501316D01*
X196300Y502230D01*
X196180Y503144D01*
X195827Y503995D01*
X195266Y504726D01*
X194535Y505287D01*
X193684Y505640D01*
X192770Y505760D01*
D02*
G37*
G36*
X51376Y493277D02*
Y490313D01*
X54340D01*
X54286Y490727D01*
X53933Y491578D01*
X53372Y492309D01*
X52641Y492870D01*
X51790Y493223D01*
X51376Y493277D01*
D02*
G37*
G36*
X50376D02*
X49962Y493223D01*
X49111Y492870D01*
X48380Y492309D01*
X47819Y491578D01*
X47466Y490727D01*
X47412Y490313D01*
X50376D01*
Y493277D01*
D02*
G37*
G36*
X54340Y489313D02*
X51376D01*
Y486349D01*
X51790Y486403D01*
X52641Y486756D01*
X53372Y487317D01*
X53933Y488048D01*
X54286Y488899D01*
X54340Y489313D01*
D02*
G37*
G36*
X50376D02*
X47412D01*
X47466Y488899D01*
X47819Y488048D01*
X48380Y487317D01*
X49111Y486756D01*
X49962Y486403D01*
X50376Y486349D01*
Y489313D01*
D02*
G37*
G36*
X281368Y489861D02*
X275632D01*
X275170Y489769D01*
X274779Y489508D01*
X274517Y489116D01*
X274426Y488655D01*
Y482919D01*
X274517Y482457D01*
X274779Y482065D01*
X275170Y481804D01*
X275632Y481712D01*
X281368D01*
X281830Y481804D01*
X282221Y482065D01*
X282483Y482457D01*
X282574Y482919D01*
Y488655D01*
X282483Y489116D01*
X282221Y489508D01*
X281830Y489769D01*
X281368Y489861D01*
D02*
G37*
G36*
X111368D02*
X105632D01*
X105170Y489769D01*
X104779Y489508D01*
X104517Y489116D01*
X104426Y488655D01*
Y482919D01*
X104517Y482457D01*
X104779Y482065D01*
X105170Y481804D01*
X105632Y481712D01*
X111368D01*
X111830Y481804D01*
X112221Y482065D01*
X112483Y482457D01*
X112574Y482919D01*
Y488655D01*
X112483Y489116D01*
X112221Y489508D01*
X111830Y489769D01*
X111368Y489861D01*
D02*
G37*
G36*
X288500Y489873D02*
X287442Y489734D01*
X286457Y489325D01*
X285611Y488676D01*
X284961Y487830D01*
X284553Y486844D01*
X284414Y485787D01*
X284553Y484729D01*
X284961Y483743D01*
X285611Y482897D01*
X286457Y482248D01*
X287442Y481840D01*
X288500Y481701D01*
X289558Y481840D01*
X290543Y482248D01*
X291389Y482897D01*
X292039Y483743D01*
X292447Y484729D01*
X292586Y485787D01*
X292447Y486844D01*
X292039Y487830D01*
X291389Y488676D01*
X290543Y489325D01*
X289558Y489734D01*
X288500Y489873D01*
D02*
G37*
G36*
X118500D02*
X117442Y489734D01*
X116457Y489325D01*
X115611Y488676D01*
X114961Y487830D01*
X114553Y486844D01*
X114414Y485787D01*
X114553Y484729D01*
X114961Y483743D01*
X115611Y482897D01*
X116457Y482248D01*
X117442Y481840D01*
X118500Y481701D01*
X119558Y481840D01*
X120543Y482248D01*
X121389Y482897D01*
X122039Y483743D01*
X122447Y484729D01*
X122586Y485787D01*
X122447Y486844D01*
X122039Y487830D01*
X121389Y488676D01*
X120543Y489325D01*
X119558Y489734D01*
X118500Y489873D01*
D02*
G37*
%LPD*%
D13*
X86827Y434114D02*
X108500Y455787D01*
X86827Y379816D02*
Y434114D01*
X257109Y134395D02*
X278500Y155787D01*
X267533Y134820D02*
X278500Y145787D01*
X267533Y53348D02*
Y134820D01*
X257109Y52766D02*
Y134395D01*
X230572Y52716D02*
Y72021D01*
X183266Y119326D02*
X230572Y72021D01*
D53*
X371630Y220031D02*
Y500628D01*
X361733Y210134D02*
X371630Y220031D01*
X357414Y210134D02*
X361733D01*
X358401Y513857D02*
X371630Y500628D01*
D55*
X230572Y52716D02*
D03*
X266951Y52766D02*
D03*
X357283Y647717D02*
D03*
D56*
X141982Y42566D02*
D03*
X132139D02*
D03*
X43700Y113722D02*
D03*
X357743Y126369D02*
D03*
Y136211D02*
D03*
X44370Y206142D02*
D03*
Y176614D02*
D03*
X357414Y210134D02*
D03*
Y200292D02*
D03*
X257109Y42924D02*
D03*
Y52766D02*
D03*
X283061Y42925D02*
D03*
X292903D02*
D03*
X367126Y647717D02*
D03*
X357173Y293005D02*
D03*
D57*
X229394Y558689D02*
D03*
X199394Y638689D02*
D03*
D58*
X54213Y176614D02*
D03*
D61*
X31709Y379816D02*
D03*
X86827D02*
D03*
X55331Y293202D02*
D03*
D63*
X108500Y455787D02*
D03*
X118500Y475787D02*
D03*
Y225787D02*
D03*
X278500Y145787D02*
D03*
Y155787D02*
D03*
D64*
X19685Y642062D02*
D03*
D66*
Y532220D02*
D03*
D67*
X358276Y455978D02*
D03*
X358401Y513857D02*
D03*
X14110Y673414D02*
D03*
X183266Y119326D02*
D03*
X188397Y90597D02*
D03*
X258865Y196650D02*
D03*
X248336Y232168D02*
D03*
X82852Y336656D02*
D03*
X53337Y465634D02*
D03*
X78428Y475491D02*
D03*
X107944Y573454D02*
D03*
X162160Y677650D02*
D03*
X141690Y687210D02*
D03*
X50876Y489813D02*
D03*
X51030Y510680D02*
D03*
M02*
