G04*
G04 #@! TF.GenerationSoftware,Altium Limited,Altium Designer,18.1.9 (240)*
G04*
G04 Layer_Color=32896*
%FSLAX25Y25*%
%MOIN*%
G70*
G01*
G75*
%ADD10C,0.00787*%
%ADD12C,0.01000*%
%ADD13C,0.00600*%
%ADD72C,0.01500*%
%ADD93C,0.00984*%
%ADD94C,0.00200*%
D10*
X103780Y139784D02*
X123280D01*
X103780D02*
Y241784D01*
X123280D01*
Y139784D02*
Y241784D01*
X293280Y139784D02*
Y241784D01*
X273780D02*
X293280D01*
X273780Y139784D02*
Y241784D01*
Y139784D02*
X293280D01*
Y389784D02*
Y491784D01*
X273780D02*
X293280D01*
X273780Y389784D02*
Y491784D01*
Y389784D02*
X293280D01*
X103780D02*
X123280D01*
X103780D02*
Y491784D01*
X123280D01*
Y389784D02*
Y491784D01*
D12*
X155109Y122942D02*
Y138690D01*
X129125Y122942D02*
Y138690D01*
X284727Y251742D02*
X286727D01*
X285727D01*
Y246743D01*
X286727Y245744D01*
X287726D01*
X288726Y246743D01*
X282728Y251742D02*
Y245744D01*
X279729D01*
X278729Y246743D01*
Y250742D01*
X279729Y251742D01*
X282728D01*
X114255Y251584D02*
X116254D01*
X115254D01*
Y246586D01*
X116254Y245586D01*
X117254D01*
X118254Y246586D01*
X108257Y250585D02*
X109256Y251584D01*
X111256D01*
X112255Y250585D01*
Y246586D01*
X111256Y245586D01*
X109256D01*
X108257Y246586D01*
X114963Y500718D02*
X116963D01*
X115963D01*
Y495720D01*
X116963Y494720D01*
X117963D01*
X118962Y495720D01*
X112964Y494720D02*
Y498719D01*
X110965Y500718D01*
X108965Y498719D01*
Y494720D01*
Y497719D01*
X112964D01*
X286066Y501191D02*
X288065D01*
X287066D01*
Y496192D01*
X288065Y495192D01*
X289065D01*
X290065Y496192D01*
X284067Y501191D02*
Y495192D01*
X281067D01*
X280068Y496192D01*
Y497192D01*
X281067Y498192D01*
X284067D01*
X281067D01*
X280068Y499191D01*
Y500191D01*
X281067Y501191D01*
X284067D01*
X114404Y313396D02*
X111405D01*
Y315395D01*
X114404Y316394D02*
X111405D01*
Y317894D01*
X111904Y318394D01*
X113904D01*
X114404Y317894D01*
Y316394D01*
Y320893D02*
Y319893D01*
X113904Y319394D01*
X111904D01*
X111405Y319893D01*
Y320893D01*
X111904Y321393D01*
X113904D01*
X114404Y320893D01*
X111405Y324392D02*
Y322393D01*
X113404Y324392D01*
X113904D01*
X114404Y323892D01*
Y322892D01*
X113904Y322393D01*
X108718Y370190D02*
X109218Y369690D01*
Y368690D01*
X108718Y368190D01*
X106719D01*
X106219Y368690D01*
Y369690D01*
X106719Y370190D01*
X106219Y371189D02*
Y372189D01*
Y371689D01*
X109218D01*
X108718Y371189D01*
X109218Y373689D02*
Y375688D01*
X108718D01*
X106719Y373689D01*
X106219D01*
X107388Y359950D02*
X107888Y359450D01*
Y358450D01*
X107388Y357950D01*
X105389D01*
X104889Y358450D01*
Y359450D01*
X105389Y359950D01*
X104889Y360949D02*
Y361949D01*
Y361449D01*
X107888D01*
X107388Y360949D01*
X107888Y365448D02*
X107388Y364448D01*
X106389Y363449D01*
X105389D01*
X104889Y363948D01*
Y364948D01*
X105389Y365448D01*
X105889D01*
X106389Y364948D01*
Y363449D01*
X112263Y349905D02*
X112763Y349405D01*
Y348405D01*
X112263Y347905D01*
X110264D01*
X109764Y348405D01*
Y349405D01*
X110264Y349905D01*
X109764Y350904D02*
Y351904D01*
Y351404D01*
X112763D01*
X112263Y350904D01*
X112763Y355403D02*
Y353404D01*
X111264D01*
X111763Y354403D01*
Y354903D01*
X111264Y355403D01*
X110264D01*
X109764Y354903D01*
Y353904D01*
X110264Y353404D01*
X106699Y340697D02*
X107199Y340197D01*
Y339197D01*
X106699Y338697D01*
X104700D01*
X104200Y339197D01*
Y340197D01*
X104700Y340697D01*
X104200Y341696D02*
Y342696D01*
Y342196D01*
X107199D01*
X106699Y341696D01*
X104200Y346195D02*
Y344196D01*
X106199Y346195D01*
X106699D01*
X107199Y345695D01*
Y344695D01*
X106699Y344196D01*
X108914Y330014D02*
X109414Y329514D01*
Y328514D01*
X108914Y328014D01*
X106915D01*
X106415Y328514D01*
Y329514D01*
X106915Y330014D01*
X106415Y331013D02*
Y332013D01*
Y331513D01*
X109414D01*
X108914Y331013D01*
X106415Y333513D02*
Y334512D01*
Y334013D01*
X109414D01*
X108914Y333513D01*
X201482Y126925D02*
Y129924D01*
X199982D01*
X199483Y129424D01*
Y128424D01*
X199982Y127925D01*
X201482D01*
X200482D02*
X199483Y126925D01*
X198483D02*
X197483D01*
X197983D01*
Y129924D01*
X198483Y129424D01*
X193984Y126925D02*
X195984D01*
X193984Y128924D01*
Y129424D01*
X194484Y129924D01*
X195484D01*
X195984Y129424D01*
X269064Y159697D02*
Y165696D01*
X266065D01*
X265065Y164696D01*
Y162696D01*
X266065Y161697D01*
X269064D01*
X267065D02*
X265065Y159697D01*
X259067Y165696D02*
X263066D01*
Y162696D01*
X261067Y163696D01*
X260067D01*
X259067Y162696D01*
Y160697D01*
X260067Y159697D01*
X262066D01*
X263066Y160697D01*
X270087Y231867D02*
Y237865D01*
X267088D01*
X266089Y236866D01*
Y234866D01*
X267088Y233867D01*
X270087D01*
X268088D02*
X266089Y231867D01*
X261090D02*
Y237865D01*
X264089Y234866D01*
X260091D01*
X40268Y556567D02*
Y562566D01*
X37269D01*
X36269Y561566D01*
Y559566D01*
X37269Y558567D01*
X40268D01*
X38269D02*
X36269Y556567D01*
X34270Y561566D02*
X33270Y562566D01*
X31271D01*
X30271Y561566D01*
Y560566D01*
X31271Y559566D01*
X32270D01*
X31271D01*
X30271Y558567D01*
Y557567D01*
X31271Y556567D01*
X33270D01*
X34270Y557567D01*
X221049Y671374D02*
Y677372D01*
X218050D01*
X217050Y676372D01*
Y674373D01*
X218050Y673373D01*
X221049D01*
X219049D02*
X217050Y671374D01*
X211052D02*
X215051D01*
X211052Y675372D01*
Y676372D01*
X212052Y677372D01*
X214051D01*
X215051Y676372D01*
X221521Y690153D02*
Y696151D01*
X218522D01*
X217523Y695152D01*
Y693152D01*
X218522Y692153D01*
X221521D01*
X219522D02*
X217523Y690153D01*
X215523D02*
X213524D01*
X214524D01*
Y696151D01*
X215523Y695152D01*
X249804Y173624D02*
Y177623D01*
X250804Y178622D01*
X252803D01*
X253803Y177623D01*
Y173624D01*
X252803Y172624D01*
X250804D01*
X251804Y174624D02*
X249804Y172624D01*
X250804D02*
X249804Y173624D01*
X243806Y172624D02*
X247805D01*
X243806Y176623D01*
Y177623D01*
X244806Y178622D01*
X246805D01*
X247805Y177623D01*
X248754Y202185D02*
Y206184D01*
X249754Y207184D01*
X251753D01*
X252753Y206184D01*
Y202185D01*
X251753Y201185D01*
X249754D01*
X250754Y203185D02*
X248754Y201185D01*
X249754D02*
X248754Y202185D01*
X246755Y201185D02*
X244756D01*
X245755D01*
Y207184D01*
X246755Y206184D01*
X79727Y438980D02*
Y435981D01*
X77728D01*
X76728Y438980D02*
Y435981D01*
X75229D01*
X74729Y436481D01*
Y438480D01*
X75229Y438980D01*
X76728D01*
X72230D02*
X73229D01*
X73729Y438480D01*
Y436481D01*
X73229Y435981D01*
X72230D01*
X71730Y436481D01*
Y438480D01*
X72230Y438980D01*
X70730Y435981D02*
X69731D01*
X70231D01*
Y438980D01*
X70730Y438480D01*
X28929Y35342D02*
X30261D01*
Y34342D01*
X29595D01*
X30261D01*
Y33342D01*
X28262D02*
X27596D01*
X27929D01*
Y35342D01*
X28262Y35008D01*
X25263Y33342D02*
X26596D01*
X25263Y34675D01*
Y35008D01*
X25596Y35342D01*
X26263D01*
X26596Y35008D01*
X265429Y33660D02*
X267428D01*
Y32161D01*
X266428D01*
X267428D01*
Y30661D01*
X264429Y31161D02*
X263929Y30661D01*
X262930D01*
X262430Y31161D01*
Y33161D01*
X262930Y33660D01*
X263929D01*
X264429Y33161D01*
Y32661D01*
X263929Y32161D01*
X262430D01*
X190115Y62346D02*
Y64346D01*
X191614D01*
Y63346D01*
Y64346D01*
X193114D01*
X190614Y61347D02*
X190115Y60847D01*
Y59847D01*
X190614Y59347D01*
X191114D01*
X191614Y59847D01*
X192114Y59347D01*
X192614D01*
X193114Y59847D01*
Y60847D01*
X192614Y61347D01*
X192114D01*
X191614Y60847D01*
X191114Y61347D01*
X190614D01*
X191614Y60847D02*
Y59847D01*
X185921Y131089D02*
X187920D01*
Y129590D01*
X186920D01*
X187920D01*
Y128090D01*
X184921Y131089D02*
X182922D01*
Y130590D01*
X184921Y128590D01*
Y128090D01*
X41192Y128868D02*
Y122870D01*
X38193D01*
X37193Y123870D01*
Y127868D01*
X38193Y128868D01*
X41192D01*
X32195Y122870D02*
Y128868D01*
X35194Y125869D01*
X31195D01*
X125787Y133633D02*
Y127634D01*
X122788D01*
X121788Y128634D01*
Y132633D01*
X122788Y133633D01*
X125787D01*
X119789D02*
X115790D01*
Y132633D01*
X119789Y128634D01*
Y127634D01*
X209041Y158789D02*
Y152791D01*
X206042D01*
X205042Y153791D01*
Y157789D01*
X206042Y158789D01*
X209041D01*
X203043Y157789D02*
X202043Y158789D01*
X200044D01*
X199044Y157789D01*
Y156790D01*
X200044Y155790D01*
X201044D01*
X200044D01*
X199044Y154790D01*
Y153791D01*
X200044Y152791D01*
X202043D01*
X203043Y153791D01*
X193349Y229482D02*
X187351D01*
Y232481D01*
X188351Y233481D01*
X192349D01*
X193349Y232481D01*
Y229482D01*
X187351Y239479D02*
Y235480D01*
X191350Y239479D01*
X192349D01*
X193349Y238479D01*
Y236480D01*
X192349Y235480D01*
X281918Y658022D02*
Y652024D01*
X278919D01*
X277919Y653024D01*
Y657022D01*
X278919Y658022D01*
X281918D01*
X275920Y652024D02*
X273921D01*
X274920D01*
Y658022D01*
X275920Y657022D01*
X186637Y98872D02*
Y95873D01*
X185137D01*
X184638Y96373D01*
Y98373D01*
X185137Y98872D01*
X186637D01*
X181639D02*
X183638D01*
Y97373D01*
X182638Y97873D01*
X182139D01*
X181639Y97373D01*
Y96373D01*
X182139Y95873D01*
X183138D01*
X183638Y96373D01*
X79343Y469480D02*
X79843Y469979D01*
X80842D01*
X81342Y469480D01*
Y467480D01*
X80842Y466980D01*
X79843D01*
X79343Y467480D01*
X78343Y466980D02*
X77343D01*
X77843D01*
Y469979D01*
X78343Y469480D01*
X75844D02*
X75344Y469979D01*
X74344D01*
X73844Y469480D01*
Y467480D01*
X74344Y466980D01*
X75344D01*
X75844Y467480D01*
Y469480D01*
X55951Y473813D02*
X56450Y474312D01*
X57450D01*
X57950Y473813D01*
Y471813D01*
X57450Y471313D01*
X56450D01*
X55951Y471813D01*
X54951D02*
X54451Y471313D01*
X53452D01*
X52952Y471813D01*
Y473813D01*
X53452Y474312D01*
X54451D01*
X54951Y473813D01*
Y473313D01*
X54451Y472813D01*
X52952D01*
X176536Y574029D02*
Y578028D01*
X174537Y580027D01*
X172538Y578028D01*
Y574029D01*
Y577028D01*
X176536D01*
X170538Y580027D02*
Y574029D01*
X167539D01*
X166540Y575029D01*
Y579027D01*
X167539Y580027D01*
X170538D01*
X160542D02*
X162541D01*
X161541D01*
Y575029D01*
X162541Y574029D01*
X163541D01*
X164540Y575029D01*
X158542Y577028D02*
X154544D01*
X215228Y575110D02*
Y579109D01*
X213229Y581108D01*
X211230Y579109D01*
Y575110D01*
Y578109D01*
X215228D01*
X209230Y581108D02*
Y575110D01*
X206231D01*
X205232Y576110D01*
Y580108D01*
X206231Y581108D01*
X209230D01*
X199234D02*
X201233D01*
X200233D01*
Y576110D01*
X201233Y575110D01*
X202233D01*
X203232Y576110D01*
X197234Y578109D02*
X193236D01*
X195235Y580108D02*
Y576110D01*
D13*
X35868Y26850D02*
G03*
X35868Y26850I-300J0D01*
G01*
X85337Y351908D02*
G03*
X85337Y351908I-300J0D01*
G01*
X257321Y25764D02*
G03*
X257321Y25764I-300J0D01*
G01*
X49142Y457779D02*
G03*
X49142Y457779I-500J0D01*
G01*
X83172Y327523D02*
G03*
X83172Y327523I-500J0D01*
G01*
X176342Y122445D02*
G03*
X176342Y122445I-300J0D01*
G01*
X209506Y62115D02*
G03*
X209506Y62115I-300J0D01*
G01*
X232366Y672172D02*
Y676444D01*
X225067Y672172D02*
Y676444D01*
X233037Y689753D02*
X237309D01*
X233037Y697052D02*
X237309D01*
X32392Y552869D02*
X36663D01*
X32392Y542026D02*
X36663D01*
X195904Y140805D02*
X200176D01*
X195904Y133506D02*
X200176D01*
X267867Y176952D02*
Y181223D01*
X260567Y176952D02*
Y181223D01*
X267157Y217290D02*
Y221561D01*
X259857Y217290D02*
Y221561D01*
X53142Y443743D02*
Y454979D01*
X67707Y443743D02*
X72253D01*
Y454979D01*
X53142Y443743D02*
X57687D01*
X70863Y454979D02*
X72253D01*
X65107D02*
X66343D01*
X59052D02*
X60287D01*
X53142D02*
X54532D01*
X37247Y116575D02*
X37653Y117143D01*
X30999Y114079D02*
X32728D01*
X30999Y91071D02*
Y114079D01*
X41765Y91071D02*
X43495D01*
Y114079D01*
X34747Y116579D02*
X39747D01*
X37247Y119579D02*
X37653Y117143D01*
X37247Y119579D02*
X38247Y116579D01*
X37247Y119579D02*
X38747Y116579D01*
X37247Y119579D02*
X39247Y116579D01*
X37247Y119579D02*
X39747Y116579D01*
X36841Y117143D02*
X37247Y119579D01*
X36247Y116579D02*
X37247Y119579D01*
X35747Y116579D02*
X37247Y119579D01*
X35247Y116579D02*
X37247Y119579D01*
X34747Y116579D02*
X37247Y119579D01*
X34747D02*
X39747D01*
X41765Y114079D02*
X43495D01*
X30999Y91071D02*
X32728D01*
X87172Y324724D02*
X88561D01*
X93081D02*
X94317D01*
X99137D02*
X100373D01*
X104893D02*
X106282D01*
X87172Y313487D02*
X91717D01*
X106282D02*
Y324724D01*
X101737Y313487D02*
X106282D01*
X87172D02*
Y324724D01*
X160898Y562949D02*
X165169D01*
X160898Y570249D02*
X165169D01*
X203506Y99031D02*
Y100071D01*
X195406D02*
X203506D01*
X195406Y93771D02*
Y94511D01*
Y93771D02*
X203506D01*
Y94811D01*
X195406Y99331D02*
Y100071D01*
X199590Y571329D02*
X203861D01*
X199590Y564030D02*
X203861D01*
X203365Y246521D02*
X203771Y247090D01*
X197117Y244025D02*
X198846D01*
X197117Y221018D02*
Y244025D01*
X207884Y221018D02*
X209613D01*
Y244025D01*
X200865Y246525D02*
X205865D01*
X203365Y249525D02*
X203771Y247090D01*
X203365Y249525D02*
X204365Y246525D01*
X203365Y249525D02*
X204865Y246525D01*
X203365Y249525D02*
X205365Y246525D01*
X203365Y249525D02*
X205865Y246525D01*
X202959Y247089D02*
X203365Y249525D01*
X202365Y246525D02*
X203365Y249525D01*
X201865Y246525D02*
X203365Y249525D01*
X201365Y246525D02*
X203365Y249525D01*
X200865Y246525D02*
X203365Y249525D01*
X200865D02*
X205865D01*
X207884Y244025D02*
X209613D01*
X197117Y221018D02*
X198846D01*
X208410Y189514D02*
X210139D01*
X197643Y166507D02*
X199372D01*
X201391Y161006D02*
X206391D01*
X203891D02*
X206391Y164006D01*
X203891Y161006D02*
X205891Y164006D01*
X203891Y161006D02*
X205391Y164006D01*
X203891Y161006D02*
X204891Y164006D01*
X203891Y161006D02*
X204297Y163443D01*
X201391Y164006D02*
X203891Y161006D01*
X201891Y164006D02*
X203891Y161006D01*
X202391Y164006D02*
X203891Y161006D01*
X202891Y164006D02*
X203891Y161006D01*
X203485Y163442D02*
X203891Y161006D01*
X201391Y164006D02*
X206391D01*
X197643Y166507D02*
Y189514D01*
X199372D01*
X210139Y166507D02*
Y189514D01*
X208410Y166507D02*
X210139D01*
X203485Y163442D02*
X203891Y164010D01*
X281818Y689848D02*
X283547D01*
X271051Y666840D02*
X272780D01*
X274799Y661340D02*
X279799D01*
X277299D02*
X279799Y664340D01*
X277299Y661340D02*
X279299Y664340D01*
X277299Y661340D02*
X278799Y664340D01*
X277299Y661340D02*
X278299Y664340D01*
X277299Y661340D02*
X277705Y663776D01*
X274799Y664340D02*
X277299Y661340D01*
X275299Y664340D02*
X277299Y661340D01*
X275799Y664340D02*
X277299Y661340D01*
X276299Y664340D02*
X277299Y661340D01*
X276893Y663776D02*
X277299Y661340D01*
X274799Y664340D02*
X279799D01*
X271051Y666840D02*
Y689848D01*
X272780D01*
X283547Y666840D02*
Y689848D01*
X281818Y666840D02*
X283547D01*
X276893Y663776D02*
X277299Y664344D01*
D72*
X36841Y117143D02*
Y118143D01*
X202959Y247089D02*
Y248089D01*
X204297Y162443D02*
Y163443D01*
X277705Y662776D02*
Y663776D01*
D93*
X243004Y220085D02*
X245169D01*
X243004Y217132D02*
Y220085D01*
X251666D02*
X253634D01*
Y217131D02*
Y220085D01*
X242743Y193352D02*
X244908D01*
X242743Y190399D02*
Y193352D01*
X251405D02*
X253373D01*
Y190398D02*
Y193352D01*
D94*
X208256Y97588D02*
X206923Y96255D01*
X208256D02*
X206923Y97588D01*
X208256Y96921D02*
X206923D01*
X207590Y96255D02*
Y97588D01*
M02*
