G04*
G04 #@! TF.GenerationSoftware,Altium Limited,Altium Designer,18.1.9 (240)*
G04*
G04 Layer_Color=16711935*
%FSLAX25Y25*%
%MOIN*%
G70*
G01*
G75*
%ADD98C,0.00000*%
%ADD99C,0.00100*%
%ADD100C,0.00300*%
D98*
X-77661Y-408733D02*
G03*
X-77661Y-408733I-300J0D01*
G01*
X-7599Y88664D02*
G03*
X-7599Y88664I-300J0D01*
G01*
X28161Y99824D02*
G03*
X28161Y99824I-300J0D01*
G01*
X-25961Y-359433D02*
G03*
X-25961Y-359433I-300J0D01*
G01*
X88765Y-397429D02*
G03*
X88765Y-397429I-300J0D01*
G01*
X167474Y-368214D02*
G03*
X167474Y-368214I-300J0D01*
G01*
X184688Y-366392D02*
G03*
X184688Y-366392I-300J0D01*
G01*
X226579Y-397574D02*
G03*
X226579Y-400274I0J-1350D01*
G01*
X213579D02*
G03*
X213579Y-397574I0J1350D01*
G01*
X229890Y250867D02*
G03*
X229890Y250867I-300J0D01*
G01*
X-23592Y-88875D02*
G03*
X-23592Y-88875I-300J0D01*
G01*
X148992Y-415019D02*
G03*
X148992Y-415019I-300J0D01*
G01*
X-58387Y12696D02*
G03*
X-58387Y12696I-500J0D01*
G01*
X-24357Y-117560D02*
G03*
X-24357Y-117560I-500J0D01*
G01*
X62813Y-313138D02*
G03*
X62813Y-313138I-300J0D01*
G01*
X90777Y-378668D02*
G03*
X90777Y-378668I-300J0D01*
G01*
D99*
X-88844Y-264208D02*
X-82545D01*
Y-267161D02*
Y-264208D01*
X-88844Y-267161D02*
X-82545D01*
X-88844D02*
Y-264208D01*
Y-257515D02*
X-82545D01*
X-88844D02*
Y-254563D01*
X-82545D01*
Y-257515D02*
Y-254563D01*
X-88844Y-267161D02*
Y-254563D01*
X-82545D01*
Y-267161D02*
Y-254563D01*
X-88844Y-267161D02*
X-82545D01*
X-33372Y-208067D02*
Y-201767D01*
Y-208067D02*
X-30419D01*
Y-201767D01*
X-33372D02*
X-30419D01*
X-40064Y-208067D02*
Y-201767D01*
X-43017D02*
X-40064D01*
X-43017Y-208067D02*
Y-201767D01*
Y-208067D02*
X-40064D01*
X-43017Y-201767D02*
X-30419D01*
X-43017Y-208067D02*
Y-201767D01*
Y-208067D02*
X-30419D01*
Y-201767D01*
X112038Y236872D02*
X118337D01*
X112038D02*
Y239824D01*
X118337D01*
Y236872D02*
Y239824D01*
X112038Y230179D02*
X118337D01*
Y227226D02*
Y230179D01*
X112038Y227226D02*
X118337D01*
X112038D02*
Y230179D01*
X118337Y227226D02*
Y239824D01*
X112038Y227226D02*
X118337D01*
X112038D02*
Y239824D01*
X118337D01*
X124990Y249470D02*
Y255769D01*
X127943D01*
Y249470D02*
Y255769D01*
X124990Y249470D02*
X127943D01*
X118298D02*
Y255769D01*
X115345Y249470D02*
X118298D01*
X115345D02*
Y255769D01*
X118298D01*
X115345Y249470D02*
X127943D01*
X115345D02*
Y255769D01*
X127943D01*
Y249470D02*
Y255769D01*
X4467Y154038D02*
Y160337D01*
Y154038D02*
X7419D01*
Y160337D01*
X4467D02*
X7419D01*
X-2226Y154038D02*
Y160337D01*
X-5179D02*
X-2226D01*
X-5179Y154038D02*
Y160337D01*
Y154038D02*
X-2226D01*
X-5179Y160337D02*
X7419D01*
X-5179Y154038D02*
Y160337D01*
Y154038D02*
X7419D01*
Y160337D01*
X-79861Y-407833D02*
X-76061D01*
Y-409833D02*
Y-407833D01*
X-79861Y-409833D02*
X-76061D01*
X-79861D02*
Y-407833D01*
Y-404933D02*
X-76061D01*
X-79861D02*
Y-402933D01*
X-76061D01*
Y-404933D02*
Y-402933D01*
X-79861Y-409833D02*
Y-402933D01*
X-76061D01*
Y-409833D02*
Y-402933D01*
X-79861Y-409833D02*
X-76061D01*
X-100009Y68384D02*
X-70509D01*
X-100009Y50684D02*
Y68384D01*
Y50684D02*
X-70509D01*
Y68384D01*
X-87559Y215754D02*
X-58059D01*
Y233454D01*
X-87559D02*
X-58059D01*
X-87559Y215754D02*
Y233454D01*
X-87289Y237384D02*
Y255084D01*
X-57789D01*
Y237384D02*
Y255084D01*
X-87289Y237384D02*
X-57789D01*
X-53429Y51014D02*
Y68714D01*
X-23929D01*
Y51014D02*
Y68714D01*
X-53429Y51014D02*
X-23929D01*
X47461Y64864D02*
X65161D01*
X47461D02*
Y94364D01*
X65161D01*
Y64864D02*
Y94364D01*
X59858Y234174D02*
X89358D01*
X59858Y216474D02*
Y234174D01*
Y216474D02*
X89358D01*
Y234174D01*
X89358Y237784D02*
Y255484D01*
X59858Y237784D02*
X89358D01*
X59858D02*
Y255484D01*
X89358D01*
X113751Y64994D02*
Y94494D01*
X96051D02*
X113751D01*
X96051Y64994D02*
Y94494D01*
Y64994D02*
X113751D01*
X-11049Y76364D02*
Y88964D01*
Y76364D02*
X-4749D01*
Y88964D01*
X-11049D02*
X-4749D01*
X168948Y-121079D02*
X175248D01*
X168948D02*
Y-108481D01*
X175248D01*
Y-121079D02*
Y-108481D01*
X168948Y-111433D02*
Y-108481D01*
X175248D01*
Y-111433D02*
Y-108481D01*
X168948Y-111433D02*
X175248D01*
Y-121079D02*
Y-118126D01*
X168948Y-121079D02*
X175248D01*
X168948D02*
Y-118126D01*
X175248D01*
X-8300Y169990D02*
X-2001D01*
X-8300D02*
Y182589D01*
X-2001D01*
Y169990D02*
Y182589D01*
X-8300Y179636D02*
Y182589D01*
X-2001D01*
Y179636D02*
Y182589D01*
X-8300Y179636D02*
X-2001D01*
Y169990D02*
Y172943D01*
X-8300Y169990D02*
X-2001D01*
X-8300D02*
Y172943D01*
X-2001D01*
X4544Y143513D02*
Y149812D01*
Y143513D02*
X7497D01*
Y149812D01*
X4544D02*
X7497D01*
X-2149Y143513D02*
Y149812D01*
X-5101D02*
X-2149D01*
X-5101Y143513D02*
Y149812D01*
Y143513D02*
X-2149D01*
X-5101Y149812D02*
X7497D01*
X-5101Y143513D02*
Y149812D01*
Y143513D02*
X7497D01*
Y149812D01*
X24711Y100124D02*
X31011D01*
Y87524D02*
Y100124D01*
X24711Y87524D02*
X31011D01*
X24711D02*
Y100124D01*
X-28161Y-360533D02*
X-24361D01*
X-28161D02*
Y-353633D01*
X-24361D01*
Y-360533D02*
Y-353633D01*
X-28161Y-355633D02*
Y-353633D01*
X-24361D01*
Y-355633D02*
Y-353633D01*
X-28161Y-355633D02*
X-24361D01*
Y-360533D02*
Y-358533D01*
X-28161Y-360533D02*
X-24361D01*
X-28161D02*
Y-358533D01*
X-24361D01*
X86565Y-398529D02*
X90365D01*
X86565D02*
Y-391629D01*
X90365D01*
Y-398529D02*
Y-391629D01*
X86565Y-393629D02*
Y-391629D01*
X90365D01*
Y-393629D02*
Y-391629D01*
X86565Y-393629D02*
X90365D01*
Y-398529D02*
Y-396529D01*
X86565Y-398529D02*
X90365D01*
X86565D02*
Y-396529D01*
X90365D01*
X139315Y-349029D02*
X145615D01*
Y-361628D02*
Y-349029D01*
X139315Y-361628D02*
X145615D01*
X139315D02*
Y-349029D01*
X145615Y-361628D02*
Y-358675D01*
X139315Y-361628D02*
X145615D01*
X139315D02*
Y-358675D01*
X145615D01*
X139315Y-351982D02*
Y-349029D01*
X145615D01*
Y-351982D02*
Y-349029D01*
X139315Y-351982D02*
X145615D01*
X165274Y-369314D02*
X169074D01*
X165274D02*
Y-362414D01*
X169074D01*
Y-369314D02*
Y-362414D01*
X165274Y-364414D02*
Y-362414D01*
X169074D01*
Y-364414D02*
Y-362414D01*
X165274Y-364414D02*
X169074D01*
Y-369314D02*
Y-367314D01*
X165274Y-369314D02*
X169074D01*
X165274D02*
Y-367314D01*
X169074D01*
X183909Y-338746D02*
Y-332447D01*
X171311Y-338746D02*
X183909D01*
X171311D02*
Y-332447D01*
X183909D01*
X171311Y-338746D02*
X174264D01*
X171311D02*
Y-332447D01*
X174264D01*
Y-338746D02*
Y-332447D01*
X180956D02*
X183909D01*
Y-338746D02*
Y-332447D01*
X180956Y-338746D02*
X183909D01*
X180956D02*
Y-332447D01*
Y-349035D02*
Y-342736D01*
Y-349035D02*
X183909D01*
Y-342736D01*
X180956D02*
X183909D01*
X174264Y-349035D02*
Y-342736D01*
X171311D02*
X174264D01*
X171311Y-349035D02*
Y-342736D01*
Y-349035D02*
X174264D01*
X171311Y-342736D02*
X183909D01*
X171311Y-349035D02*
Y-342736D01*
Y-349035D02*
X183909D01*
Y-342736D01*
X182488Y-367493D02*
X186288D01*
X182488D02*
Y-360593D01*
X186288D01*
Y-367493D02*
Y-360593D01*
X182488Y-362593D02*
Y-360593D01*
X186288D01*
Y-362593D02*
Y-360593D01*
X182488Y-362593D02*
X186288D01*
Y-367493D02*
Y-365493D01*
X182488Y-367493D02*
X186288D01*
X182488D02*
Y-365493D01*
X186288D01*
X213579Y-395674D02*
X226579D01*
X213579Y-402174D02*
X226579D01*
X213579D02*
Y-400274D01*
X226579Y-402174D02*
Y-400274D01*
X213579Y-397574D02*
Y-395674D01*
X226579Y-397574D02*
Y-395674D01*
X213579Y-396674D02*
X214579Y-395674D01*
X211367Y-111246D02*
Y-104947D01*
X198769Y-111246D02*
X211367D01*
X198769D02*
Y-104947D01*
X211367D01*
X198769Y-111246D02*
X201722D01*
X198769D02*
Y-104947D01*
X201722D01*
Y-111246D02*
Y-104947D01*
X208414D02*
X211367D01*
Y-111246D02*
Y-104947D01*
X208414Y-111246D02*
X211367D01*
X208414D02*
Y-104947D01*
X217290Y254017D02*
X229890D01*
X217290Y247717D02*
Y254017D01*
Y247717D02*
X229890D01*
Y254017D01*
X241622Y36645D02*
X247921D01*
X241622Y33692D02*
Y36645D01*
Y33692D02*
X247921D01*
Y36645D01*
X241622Y43338D02*
X247921D01*
Y46290D01*
X241622D02*
X247921D01*
X241622Y43338D02*
Y46290D01*
X247921Y33692D02*
Y46290D01*
X241622D02*
X247921D01*
X241622Y33692D02*
Y46290D01*
Y33692D02*
X247921D01*
X-82348Y101743D02*
Y111586D01*
X-85300Y101743D02*
X-82348D01*
X-85300D02*
Y111586D01*
X-82348D01*
X-75655Y101743D02*
Y111586D01*
X-72702D01*
Y101743D02*
Y111586D01*
X-75655Y101743D02*
X-72702D01*
X-85300Y111586D02*
X-72702D01*
Y101743D02*
Y111586D01*
X-85300Y101743D02*
X-72702D01*
X-85300D02*
Y111586D01*
X90810Y-306777D02*
Y-300478D01*
X78212D02*
X90810D01*
X78212Y-306777D02*
Y-300478D01*
Y-306777D02*
X90810D01*
X78212Y-300478D02*
X81164D01*
X78212Y-306777D02*
Y-300478D01*
Y-306777D02*
X81164D01*
Y-300478D01*
X87858Y-306777D02*
X90810D01*
Y-300478D01*
X87858D02*
X90810D01*
X87858Y-306777D02*
Y-300478D01*
X147538Y-258349D02*
X153838D01*
X147538D02*
Y-255397D01*
X153838D01*
Y-258349D02*
Y-255397D01*
X147538Y-265042D02*
X153838D01*
Y-267995D02*
Y-265042D01*
X147538Y-267995D02*
X153838D01*
X147538D02*
Y-265042D01*
X153838Y-267995D02*
Y-255397D01*
X147538Y-267995D02*
X153838D01*
X147538D02*
Y-255397D01*
X153838D01*
X146828Y-227657D02*
X153128D01*
Y-215058D01*
X146828D02*
X153128D01*
X146828Y-227657D02*
Y-215058D01*
X153128Y-218011D02*
Y-215058D01*
X146828D02*
X153128D01*
X146828Y-218011D02*
Y-215058D01*
Y-218011D02*
X153128D01*
X146828Y-227657D02*
Y-224704D01*
Y-227657D02*
X153128D01*
Y-224704D01*
X146828D02*
X153128D01*
X149592Y-416919D02*
Y-413119D01*
X147592Y-416919D02*
X149592D01*
X147592D02*
Y-413119D01*
X149592D01*
X152492Y-416919D02*
Y-413119D01*
X154492D01*
Y-416919D02*
Y-413119D01*
X152492Y-416919D02*
X154492D01*
X147592Y-413119D02*
X154492D01*
Y-416919D02*
Y-413119D01*
X147592Y-416919D02*
X154492D01*
X147592D02*
Y-413119D01*
X-59887Y3460D02*
Y13696D01*
Y3460D02*
X-41776D01*
Y13696D01*
X-59887D02*
X-41776D01*
X-49732D02*
Y18496D01*
X-51932D02*
X-49732D01*
X-51932Y13696D02*
Y18496D01*
Y13696D02*
X-49732D01*
X-43976D02*
Y18496D01*
X-45876D02*
X-43976D01*
X-45876Y13696D02*
Y18496D01*
Y13696D02*
X-43976D01*
X-55787D02*
Y18496D01*
X-57687D02*
X-55787D01*
X-57687Y13696D02*
Y18496D01*
Y13696D02*
X-55787D01*
X-77782Y-324204D02*
X-77407Y-323454D01*
X-76282Y-323079D01*
X-76657Y-321954D02*
X-76282Y-321204D01*
X-76657Y-321954D02*
X-76282Y-323079D01*
X-82030Y-327204D02*
X-70534D01*
X-82030Y-349212D02*
Y-327204D01*
Y-349212D02*
X-70534D01*
Y-327204D01*
X-78782Y-324204D02*
X-73782D01*
X-76282Y-321204D02*
X-75782Y-324204D01*
X-76282Y-321204D02*
X-75282Y-324204D01*
X-76282Y-321204D02*
X-74782Y-324204D01*
X-76282Y-321204D02*
X-74282Y-324204D01*
X-76282Y-321204D02*
X-73782Y-324204D01*
X-76782D02*
X-76282Y-321204D01*
X-77282Y-324204D02*
X-76282Y-321204D01*
X-78282Y-324204D02*
X-76282Y-321204D01*
X-78782Y-324204D02*
X-76282Y-321204D01*
X-78782D02*
X-73782D01*
X-23658Y-116560D02*
X-21758D01*
X-23658D02*
Y-111760D01*
X-21758D01*
Y-116560D02*
Y-111760D01*
X-11847Y-116560D02*
X-9947D01*
X-11847D02*
Y-111760D01*
X-9947D01*
Y-116560D02*
Y-111760D01*
X-17902Y-116560D02*
X-15702D01*
X-17902D02*
Y-111760D01*
X-15702D01*
Y-116560D02*
Y-111760D01*
X-25857Y-116560D02*
X-7747D01*
Y-126796D02*
Y-116560D01*
X-25857Y-126796D02*
X-7747D01*
X-25857D02*
Y-116560D01*
X52850Y122666D02*
Y128965D01*
X55803D01*
Y122666D02*
Y128965D01*
X52850Y122666D02*
X55803D01*
X46158D02*
Y128965D01*
X43205Y122666D02*
X46158D01*
X43205D02*
Y128965D01*
X46158D01*
X43205Y122666D02*
X55803D01*
X43205D02*
Y128965D01*
X55803D01*
Y122666D02*
Y128965D01*
X60613Y-314238D02*
X64413D01*
Y-307338D01*
X60613D02*
X64413D01*
X60613Y-314238D02*
Y-307338D01*
X64413Y-309338D02*
Y-307338D01*
X60613D02*
X64413D01*
X60613Y-309338D02*
Y-307338D01*
Y-309338D02*
X64413D01*
X60613Y-314238D02*
Y-312238D01*
Y-314238D02*
X64413D01*
Y-312238D01*
X60613D02*
X64413D01*
X89477Y-346512D02*
Y-341212D01*
X82377D02*
X89477D01*
X82377Y-346512D02*
Y-341212D01*
Y-346512D02*
X89477D01*
X88152D02*
X89477Y-345187D01*
X88152Y-341212D02*
X89477Y-342537D01*
X80627Y-342762D02*
X82377D01*
X80627Y-344962D02*
Y-342762D01*
Y-344962D02*
X82377D01*
Y-342762D01*
X89477Y-344662D02*
X91227D01*
Y-343062D01*
X89477D02*
X91227D01*
X89477Y-344662D02*
Y-343062D01*
X94495Y123747D02*
Y130046D01*
X81897D02*
X94495D01*
X81897Y123747D02*
Y130046D01*
Y123747D02*
X94495D01*
X81897Y130046D02*
X84850D01*
X81897Y123747D02*
Y130046D01*
Y123747D02*
X84850D01*
Y130046D01*
X91542Y123747D02*
X94495D01*
Y130046D01*
X91542D02*
X94495D01*
X91542Y123747D02*
Y130046D01*
X88336Y-194258D02*
X88711Y-193508D01*
X89836Y-193133D01*
X89461Y-192008D02*
X89836Y-191258D01*
X89461Y-192008D02*
X89836Y-193133D01*
X84088Y-197258D02*
X95584D01*
X84088Y-219266D02*
Y-197258D01*
Y-219266D02*
X95584D01*
Y-197258D01*
X87336Y-194258D02*
X92336D01*
X89836Y-191258D02*
X90336Y-194258D01*
X89836Y-191258D02*
X90836Y-194258D01*
X89836Y-191258D02*
X91336Y-194258D01*
X89836Y-191258D02*
X91836Y-194258D01*
X89836Y-191258D02*
X92336Y-194258D01*
X89336D02*
X89836Y-191258D01*
X88836Y-194258D02*
X89836Y-191258D01*
X87836Y-194258D02*
X89836Y-191258D01*
X87336Y-194258D02*
X89836Y-191258D01*
X87336D02*
X92336D01*
X87862Y-279777D02*
X92862D01*
X90362D02*
X92862Y-276777D01*
X90362Y-279777D02*
X92362Y-276777D01*
X90362Y-279777D02*
X91362Y-276777D01*
X90362Y-279777D02*
X90862Y-276777D01*
X87862D02*
X90362Y-279777D01*
X88362Y-276777D02*
X90362Y-279777D01*
X88862Y-276777D02*
X90362Y-279777D01*
X89362Y-276777D02*
X90362Y-279777D01*
X89862Y-276777D02*
X90362Y-279777D01*
X87862Y-276777D02*
X92862D01*
X84614Y-273777D02*
Y-251769D01*
X96110D01*
Y-273777D02*
Y-251769D01*
X84614Y-273777D02*
X96110D01*
X90362Y-277902D02*
X90737Y-279027D01*
X90362Y-279777D02*
X90737Y-279027D01*
X90362Y-277902D02*
X91487Y-277527D01*
X91862Y-276777D01*
X91577Y-380568D02*
Y-376768D01*
X84677D02*
X91577D01*
X84677Y-380568D02*
Y-376768D01*
Y-380568D02*
X91577D01*
X84677Y-376768D02*
X86677D01*
X84677Y-380568D02*
Y-376768D01*
Y-380568D02*
X86677D01*
Y-376768D01*
X89577Y-380568D02*
X91577D01*
Y-376768D01*
X89577D02*
X91577D01*
X89577Y-380568D02*
Y-376768D01*
X161270Y220557D02*
X166270D01*
X163770D02*
X166270Y223557D01*
X163770Y220557D02*
X165770Y223557D01*
X163770Y220557D02*
X164770Y223557D01*
X163770Y220557D02*
X164270Y223557D01*
X161270D02*
X163770Y220557D01*
X161770Y223557D02*
X163770Y220557D01*
X162270Y223557D02*
X163770Y220557D01*
X162770Y223557D02*
X163770Y220557D01*
X163270Y223557D02*
X163770Y220557D01*
X161270Y223557D02*
X166270D01*
X158022Y226557D02*
Y248565D01*
X169518D01*
Y226557D02*
Y248565D01*
X158022Y226557D02*
X169518D01*
X163770Y222432D02*
X164145Y221307D01*
X163770Y220557D02*
X164145Y221307D01*
X163770Y222432D02*
X164895Y222807D01*
X165270Y223557D01*
D100*
X214829Y-396009D02*
X218161Y-399341D01*
X214829D02*
X218161Y-396009D01*
X214829Y-397675D02*
X218161D01*
X216495Y-399341D02*
Y-396009D01*
X89727Y-342196D02*
X86395Y-345529D01*
X89727D02*
X86395Y-342196D01*
X89727Y-343863D02*
X86395D01*
X88061Y-345529D02*
Y-342196D01*
M02*
