G04*
G04 #@! TF.GenerationSoftware,Altium Limited,Altium Designer,18.1.9 (240)*
G04*
G04 Layer_Physical_Order=3*
G04 Layer_Color=16440176*
%FSLAX25Y25*%
%MOIN*%
G70*
G01*
G75*
%ADD12C,0.01000*%
%ADD54C,0.01378*%
%ADD56C,0.01968*%
%ADD58C,0.02000*%
%ADD60R,0.07087X0.07087*%
%ADD61C,0.07087*%
%ADD64C,0.06102*%
%ADD69C,0.11811*%
%ADD70C,0.07480*%
%ADD71C,0.05000*%
%ADD72C,0.01500*%
G36*
X286471Y-440786D02*
X71584Y-440786D01*
Y-361728D01*
X71437Y-370259D01*
X-17961D01*
Y-439886D01*
X-18861Y-440786D01*
X-113529Y-440786D01*
Y259214D01*
X286471Y259214D01*
X286471Y-440786D01*
D02*
G37*
%LPC*%
G36*
X147234Y257549D02*
X145997Y257386D01*
X144844Y256909D01*
X143854Y256149D01*
X143094Y255159D01*
X142616Y254006D01*
X142454Y252768D01*
X142616Y251531D01*
X143094Y250378D01*
X143854Y249388D01*
X144844Y248628D01*
X145997Y248150D01*
X147234Y247987D01*
X148472Y248150D01*
X149625Y248628D01*
X150615Y249388D01*
X151375Y250378D01*
X151853Y251531D01*
X152016Y252768D01*
X151853Y254006D01*
X151375Y255159D01*
X150615Y256149D01*
X149625Y256909D01*
X148472Y257386D01*
X147234Y257549D01*
D02*
G37*
G36*
X28161Y249955D02*
X27247Y249834D01*
X26396Y249482D01*
X25665Y248921D01*
X25104Y248189D01*
X24751Y247338D01*
X24631Y246424D01*
X24751Y245511D01*
X25104Y244659D01*
X25665Y243928D01*
X26396Y243367D01*
X27247Y243014D01*
X28161Y242894D01*
X29075Y243014D01*
X29926Y243367D01*
X30657Y243928D01*
X31218Y244659D01*
X31571Y245511D01*
X31691Y246424D01*
X31571Y247338D01*
X31218Y248189D01*
X30657Y248921D01*
X29926Y249482D01*
X29075Y249834D01*
X28161Y249955D01*
D02*
G37*
G36*
X253597Y249425D02*
X252462Y249276D01*
X251405Y248838D01*
X250497Y248141D01*
X249800Y247233D01*
X249362Y246176D01*
X249213Y245041D01*
X249362Y243906D01*
X249800Y242849D01*
X250497Y241941D01*
X251405Y241245D01*
X252462Y240807D01*
X253597Y240657D01*
X254732Y240807D01*
X255789Y241245D01*
X256697Y241941D01*
X257394Y242849D01*
X257832Y243906D01*
X257981Y245041D01*
X257832Y246176D01*
X257394Y247233D01*
X256697Y248141D01*
X255789Y248838D01*
X254732Y249276D01*
X253597Y249425D01*
D02*
G37*
G36*
X243754D02*
X242620Y249276D01*
X241562Y248838D01*
X240654Y248141D01*
X239958Y247233D01*
X239520Y246176D01*
X239370Y245041D01*
X239520Y243906D01*
X239958Y242849D01*
X240654Y241941D01*
X241562Y241245D01*
X242620Y240807D01*
X243754Y240657D01*
X244889Y240807D01*
X245946Y241245D01*
X246854Y241941D01*
X247551Y242849D01*
X247989Y243906D01*
X248138Y245041D01*
X247989Y246176D01*
X247551Y247233D01*
X246854Y248141D01*
X245946Y248838D01*
X244889Y249276D01*
X243754Y249425D01*
D02*
G37*
G36*
X274660Y255133D02*
X273152Y254985D01*
X271702Y254545D01*
X270365Y253831D01*
X269194Y252869D01*
X268233Y251698D01*
X267518Y250361D01*
X267078Y248911D01*
X266930Y247403D01*
X267078Y245895D01*
X267518Y244445D01*
X268233Y243109D01*
X269194Y241937D01*
X270365Y240976D01*
X271702Y240262D01*
X273152Y239822D01*
X274660Y239673D01*
X276168Y239822D01*
X277618Y240262D01*
X278955Y240976D01*
X280126Y241937D01*
X281087Y243109D01*
X281802Y244445D01*
X282242Y245895D01*
X282390Y247403D01*
X282242Y248911D01*
X281802Y250361D01*
X281087Y251698D01*
X280126Y252869D01*
X278955Y253831D01*
X277618Y254545D01*
X276168Y254985D01*
X274660Y255133D01*
D02*
G37*
G36*
X-101718D02*
X-103226Y254985D01*
X-104676Y254545D01*
X-106013Y253831D01*
X-107184Y252869D01*
X-108145Y251698D01*
X-108860Y250361D01*
X-109300Y248911D01*
X-109448Y247403D01*
X-109300Y245895D01*
X-108860Y244445D01*
X-108145Y243109D01*
X-107184Y241937D01*
X-106013Y240976D01*
X-104676Y240262D01*
X-103226Y239822D01*
X-101718Y239673D01*
X-100210Y239822D01*
X-98760Y240262D01*
X-97423Y240976D01*
X-96252Y241937D01*
X-95291Y243109D01*
X-94576Y244445D01*
X-94137Y245895D01*
X-93988Y247403D01*
X-94137Y248911D01*
X-94576Y250361D01*
X-95291Y251698D01*
X-96252Y252869D01*
X-97423Y253831D01*
X-98760Y254545D01*
X-100210Y254985D01*
X-101718Y255133D01*
D02*
G37*
G36*
X188967Y251833D02*
X187613Y251700D01*
X186311Y251305D01*
X185112Y250664D01*
X184060Y249801D01*
X183197Y248749D01*
X182556Y247550D01*
X182161Y246248D01*
X182028Y244894D01*
X182161Y243541D01*
X182556Y242239D01*
X183197Y241039D01*
X184060Y239988D01*
X185112Y239125D01*
X186311Y238484D01*
X187613Y238089D01*
X188967Y237955D01*
X190321Y238089D01*
X191622Y238484D01*
X192822Y239125D01*
X193873Y239988D01*
X194736Y241039D01*
X195378Y242239D01*
X195772Y243541D01*
X195906Y244894D01*
X195772Y246248D01*
X195378Y247550D01*
X194736Y248749D01*
X193873Y249801D01*
X192822Y250664D01*
X191622Y251305D01*
X190321Y251700D01*
X188967Y251833D01*
D02*
G37*
G36*
X137392Y247896D02*
X136038Y247763D01*
X134737Y247368D01*
X133537Y246727D01*
X132485Y245864D01*
X131622Y244812D01*
X130981Y243613D01*
X130586Y242311D01*
X130453Y240957D01*
X130586Y239604D01*
X130981Y238302D01*
X131622Y237102D01*
X132485Y236051D01*
X133537Y235188D01*
X134737Y234547D01*
X136038Y234152D01*
X137392Y234018D01*
X138746Y234152D01*
X140047Y234547D01*
X141247Y235188D01*
X142298Y236051D01*
X143161Y237102D01*
X143803Y238302D01*
X144197Y239604D01*
X144331Y240957D01*
X144197Y242311D01*
X143803Y243613D01*
X143161Y244812D01*
X142298Y245864D01*
X141247Y246727D01*
X140047Y247368D01*
X138746Y247763D01*
X137392Y247896D01*
D02*
G37*
G36*
X48631Y240394D02*
X47717Y240274D01*
X46866Y239922D01*
X46135Y239361D01*
X45574Y238629D01*
X45221Y237778D01*
X45101Y236864D01*
X45221Y235951D01*
X45574Y235099D01*
X46135Y234368D01*
X46866Y233807D01*
X47717Y233454D01*
X48631Y233334D01*
X49545Y233454D01*
X50396Y233807D01*
X51127Y234368D01*
X51688Y235099D01*
X52041Y235951D01*
X52161Y236864D01*
X52041Y237778D01*
X51688Y238629D01*
X51127Y239361D01*
X50396Y239922D01*
X49545Y240274D01*
X48631Y240394D01*
D02*
G37*
G36*
X-99419Y236158D02*
X-100333Y236038D01*
X-101184Y235686D01*
X-101915Y235124D01*
X-102476Y234393D01*
X-102829Y233542D01*
X-102949Y232628D01*
X-102829Y231715D01*
X-102476Y230863D01*
X-101915Y230132D01*
X-101184Y229571D01*
X-100333Y229218D01*
X-99419Y229098D01*
X-98505Y229218D01*
X-97654Y229571D01*
X-96923Y230132D01*
X-96362Y230863D01*
X-96009Y231715D01*
X-95889Y232628D01*
X-96009Y233542D01*
X-96362Y234393D01*
X-96923Y235124D01*
X-97654Y235686D01*
X-98505Y236038D01*
X-99419Y236158D01*
D02*
G37*
G36*
X210000Y242285D02*
X208579Y242145D01*
X207212Y241730D01*
X205953Y241057D01*
X204849Y240151D01*
X203943Y239047D01*
X203270Y237788D01*
X202855Y236421D01*
X202715Y235000D01*
X202855Y233579D01*
X203270Y232212D01*
X203943Y230953D01*
X204849Y229849D01*
X205953Y228943D01*
X207212Y228270D01*
X208579Y227855D01*
X210000Y227715D01*
X211421Y227855D01*
X212788Y228270D01*
X214047Y228943D01*
X215151Y229849D01*
X216057Y230953D01*
X216730Y232212D01*
X217145Y233579D01*
X217285Y235000D01*
X217145Y236421D01*
X216730Y237788D01*
X216057Y239047D01*
X215151Y240151D01*
X214047Y241057D01*
X212788Y241730D01*
X211421Y242145D01*
X210000Y242285D01*
D02*
G37*
G36*
X-20000D02*
X-21421Y242145D01*
X-22788Y241730D01*
X-24047Y241057D01*
X-25151Y240151D01*
X-26057Y239047D01*
X-26730Y237788D01*
X-27145Y236421D01*
X-27285Y235000D01*
X-27145Y233579D01*
X-26730Y232212D01*
X-26057Y230953D01*
X-25151Y229849D01*
X-24047Y228943D01*
X-22788Y228270D01*
X-21421Y227855D01*
X-20000Y227715D01*
X-18579Y227855D01*
X-17212Y228270D01*
X-15953Y228943D01*
X-14849Y229849D01*
X-13943Y230953D01*
X-13270Y232212D01*
X-12855Y233579D01*
X-12715Y235000D01*
X-12855Y236421D01*
X-13270Y237788D01*
X-13943Y239047D01*
X-14849Y240151D01*
X-15953Y241057D01*
X-17212Y241730D01*
X-18579Y242145D01*
X-20000Y242285D01*
D02*
G37*
G36*
X137392Y232148D02*
X136038Y232015D01*
X134737Y231620D01*
X133537Y230979D01*
X132485Y230116D01*
X131622Y229064D01*
X130981Y227865D01*
X130586Y226563D01*
X130453Y225209D01*
X130586Y223856D01*
X130981Y222554D01*
X131622Y221354D01*
X132485Y220303D01*
X133537Y219440D01*
X134737Y218799D01*
X136038Y218404D01*
X137392Y218270D01*
X138746Y218404D01*
X140047Y218799D01*
X141247Y219440D01*
X142298Y220303D01*
X143161Y221354D01*
X143803Y222554D01*
X144197Y223856D01*
X144331Y225209D01*
X144197Y226563D01*
X143803Y227865D01*
X143161Y229064D01*
X142298Y230116D01*
X141247Y230979D01*
X140047Y231620D01*
X138746Y232015D01*
X137392Y232148D01*
D02*
G37*
G36*
X188967Y228211D02*
X187613Y228078D01*
X186311Y227683D01*
X185112Y227042D01*
X184060Y226179D01*
X183197Y225127D01*
X182556Y223928D01*
X182161Y222626D01*
X182028Y221272D01*
X182161Y219919D01*
X182556Y218617D01*
X183197Y217417D01*
X184060Y216366D01*
X185112Y215503D01*
X186311Y214862D01*
X187613Y214467D01*
X188967Y214333D01*
X190321Y214467D01*
X191622Y214862D01*
X192822Y215503D01*
X193873Y216366D01*
X194736Y217417D01*
X195378Y218617D01*
X195772Y219919D01*
X195906Y221272D01*
X195772Y222626D01*
X195378Y223928D01*
X194736Y225127D01*
X193873Y226179D01*
X192822Y227042D01*
X191622Y227683D01*
X190321Y228078D01*
X188967Y228211D01*
D02*
G37*
G36*
X253597Y221356D02*
X252411Y221200D01*
X251306Y220742D01*
X250357Y220014D01*
X249628Y219065D01*
X249171Y217959D01*
X249014Y216773D01*
X249171Y215587D01*
X249628Y214482D01*
X250357Y213533D01*
X251306Y212805D01*
X252411Y212347D01*
X253597Y212191D01*
X254783Y212347D01*
X255888Y212805D01*
X256837Y213533D01*
X257565Y214482D01*
X258023Y215587D01*
X258179Y216773D01*
X258023Y217959D01*
X257565Y219065D01*
X256837Y220014D01*
X255888Y220742D01*
X254783Y221200D01*
X253597Y221356D01*
D02*
G37*
G36*
X243754D02*
X242568Y221200D01*
X241463Y220742D01*
X240514Y220014D01*
X239786Y219065D01*
X239328Y217959D01*
X239172Y216773D01*
X239328Y215587D01*
X239786Y214482D01*
X240514Y213533D01*
X241463Y212805D01*
X242568Y212347D01*
X243754Y212191D01*
X244940Y212347D01*
X246046Y212805D01*
X246995Y213533D01*
X247723Y214482D01*
X248181Y215587D01*
X248337Y216773D01*
X248181Y217959D01*
X247723Y219065D01*
X246995Y220014D01*
X246046Y220742D01*
X244940Y221200D01*
X243754Y221356D01*
D02*
G37*
G36*
X147234Y218179D02*
X145997Y218017D01*
X144844Y217539D01*
X143854Y216779D01*
X143094Y215789D01*
X142616Y214636D01*
X142454Y213398D01*
X142616Y212161D01*
X143094Y211008D01*
X143854Y210018D01*
X144844Y209258D01*
X145997Y208780D01*
X147234Y208617D01*
X148472Y208780D01*
X149625Y209258D01*
X150615Y210018D01*
X151375Y211008D01*
X151853Y212161D01*
X152016Y213398D01*
X151853Y214636D01*
X151375Y215789D01*
X150615Y216779D01*
X149625Y217539D01*
X148472Y218017D01*
X147234Y218179D01*
D02*
G37*
G36*
X248298Y211474D02*
X239211D01*
Y202388D01*
X248298D01*
Y211474D01*
D02*
G37*
G36*
X253597Y211513D02*
X252411Y211357D01*
X251306Y210899D01*
X250357Y210171D01*
X249628Y209222D01*
X249171Y208117D01*
X249014Y206931D01*
X249171Y205745D01*
X249628Y204640D01*
X250357Y203691D01*
X251306Y202962D01*
X252411Y202505D01*
X253597Y202348D01*
X254783Y202505D01*
X255888Y202962D01*
X256837Y203691D01*
X257565Y204640D01*
X258023Y205745D01*
X258179Y206931D01*
X258023Y208117D01*
X257565Y209222D01*
X256837Y210171D01*
X255888Y210899D01*
X254783Y211357D01*
X253597Y211513D01*
D02*
G37*
G36*
X-28671Y206607D02*
X-39332D01*
Y195946D01*
X-28671D01*
Y206607D01*
D02*
G37*
G36*
X-63923Y206653D02*
X-65314Y206470D01*
X-66611Y205933D01*
X-67725Y205078D01*
X-68579Y203965D01*
X-69116Y202668D01*
X-69299Y201276D01*
X-69116Y199885D01*
X-68579Y198588D01*
X-67725Y197474D01*
X-66611Y196620D01*
X-65314Y196083D01*
X-63923Y195900D01*
X-62531Y196083D01*
X-61234Y196620D01*
X-60121Y197474D01*
X-59266Y198588D01*
X-58729Y199885D01*
X-58546Y201276D01*
X-58729Y202668D01*
X-59266Y203965D01*
X-60121Y205078D01*
X-61234Y205933D01*
X-62531Y206470D01*
X-63923Y206653D01*
D02*
G37*
G36*
X-93844D02*
X-95236Y206470D01*
X-96532Y205933D01*
X-97646Y205078D01*
X-98500Y203965D01*
X-99038Y202668D01*
X-99221Y201276D01*
X-99038Y199885D01*
X-98500Y198588D01*
X-97646Y197474D01*
X-96532Y196620D01*
X-95236Y196083D01*
X-93844Y195900D01*
X-92453Y196083D01*
X-91156Y196620D01*
X-90042Y197474D01*
X-89188Y198588D01*
X-88651Y199885D01*
X-88467Y201276D01*
X-88651Y202668D01*
X-89188Y203965D01*
X-90042Y205078D01*
X-91156Y205933D01*
X-92453Y206470D01*
X-93844Y206653D01*
D02*
G37*
G36*
X108951Y202138D02*
X107816Y201988D01*
X106759Y201550D01*
X105851Y200854D01*
X105154Y199946D01*
X104717Y198888D01*
X104567Y197754D01*
X104717Y196619D01*
X105154Y195562D01*
X105851Y194654D01*
X106759Y193957D01*
X107816Y193519D01*
X108951Y193370D01*
X110086Y193519D01*
X111143Y193957D01*
X112051Y194654D01*
X112748Y195562D01*
X113186Y196619D01*
X113335Y197754D01*
X113186Y198888D01*
X112748Y199946D01*
X112051Y200854D01*
X111143Y201550D01*
X110086Y201988D01*
X108951Y202138D01*
D02*
G37*
G36*
X78951D02*
X77816Y201988D01*
X76759Y201550D01*
X75851Y200854D01*
X75154Y199946D01*
X74717Y198888D01*
X74567Y197754D01*
X74717Y196619D01*
X75154Y195562D01*
X75851Y194654D01*
X76759Y193957D01*
X77816Y193519D01*
X78951Y193370D01*
X80086Y193519D01*
X81143Y193957D01*
X82051Y194654D01*
X82748Y195562D01*
X83186Y196619D01*
X83335Y197754D01*
X83186Y198888D01*
X82748Y199946D01*
X82051Y200854D01*
X81143Y201550D01*
X80086Y201988D01*
X78951Y202138D01*
D02*
G37*
G36*
X58951D02*
X57816Y201988D01*
X56759Y201550D01*
X55851Y200854D01*
X55154Y199946D01*
X54716Y198888D01*
X54567Y197754D01*
X54716Y196619D01*
X55154Y195562D01*
X55851Y194654D01*
X56759Y193957D01*
X57816Y193519D01*
X58951Y193370D01*
X60086Y193519D01*
X61143Y193957D01*
X62051Y194654D01*
X62748Y195562D01*
X63186Y196619D01*
X63335Y197754D01*
X63186Y198888D01*
X62748Y199946D01*
X62051Y200854D01*
X61143Y201550D01*
X60086Y201988D01*
X58951Y202138D01*
D02*
G37*
G36*
X-5585Y136198D02*
X-6499Y136078D01*
X-7350Y135726D01*
X-8081Y135165D01*
X-8642Y134433D01*
X-8995Y133582D01*
X-9115Y132668D01*
X-8995Y131755D01*
X-8642Y130903D01*
X-8081Y130172D01*
X-7350Y129611D01*
X-6499Y129258D01*
X-5585Y129138D01*
X-4671Y129258D01*
X-3820Y129611D01*
X-3089Y130172D01*
X-2528Y130903D01*
X-2175Y131755D01*
X-2055Y132668D01*
X-2175Y133582D01*
X-2528Y134433D01*
X-3089Y135165D01*
X-3820Y135726D01*
X-4671Y136078D01*
X-5585Y136198D01*
D02*
G37*
G36*
X108951Y122138D02*
X107816Y121988D01*
X106759Y121550D01*
X105851Y120854D01*
X105154Y119946D01*
X104717Y118888D01*
X104567Y117754D01*
X104717Y116619D01*
X105154Y115562D01*
X105851Y114654D01*
X106759Y113957D01*
X107816Y113519D01*
X108951Y113370D01*
X110086Y113519D01*
X111143Y113957D01*
X112051Y114654D01*
X112748Y115562D01*
X113186Y116619D01*
X113335Y117754D01*
X113186Y118888D01*
X112748Y119946D01*
X112051Y120854D01*
X111143Y121550D01*
X110086Y121988D01*
X108951Y122138D01*
D02*
G37*
G36*
X68951D02*
X67816Y121988D01*
X66759Y121550D01*
X65851Y120854D01*
X65154Y119946D01*
X64717Y118888D01*
X64567Y117754D01*
X64717Y116619D01*
X65154Y115562D01*
X65851Y114654D01*
X66759Y113957D01*
X67816Y113519D01*
X68951Y113370D01*
X70086Y113519D01*
X71143Y113957D01*
X72051Y114654D01*
X72748Y115562D01*
X73186Y116619D01*
X73335Y117754D01*
X73186Y118888D01*
X72748Y119946D01*
X72051Y120854D01*
X71143Y121550D01*
X70086Y121988D01*
X68951Y122138D01*
D02*
G37*
G36*
X28951D02*
X27816Y121988D01*
X26759Y121550D01*
X25851Y120854D01*
X25154Y119946D01*
X24716Y118888D01*
X24567Y117754D01*
X24716Y116619D01*
X25154Y115562D01*
X25851Y114654D01*
X26759Y113957D01*
X27816Y113519D01*
X28951Y113370D01*
X30086Y113519D01*
X31143Y113957D01*
X32051Y114654D01*
X32748Y115562D01*
X33186Y116619D01*
X33335Y117754D01*
X33186Y118888D01*
X32748Y119946D01*
X32051Y120854D01*
X31143Y121550D01*
X30086Y121988D01*
X28951Y122138D01*
D02*
G37*
G36*
X-48962Y96811D02*
X-50354Y96627D01*
X-51650Y96090D01*
X-52764Y95236D01*
X-53618Y94122D01*
X-54156Y92826D01*
X-54339Y91434D01*
X-54156Y90042D01*
X-53618Y88746D01*
X-52764Y87632D01*
X-51650Y86778D01*
X-50354Y86240D01*
X-48962Y86057D01*
X-47570Y86240D01*
X-46274Y86778D01*
X-45160Y87632D01*
X-44306Y88746D01*
X-43769Y90042D01*
X-43585Y91434D01*
X-43769Y92826D01*
X-44306Y94122D01*
X-45160Y95236D01*
X-46274Y96090D01*
X-47570Y96627D01*
X-48962Y96811D01*
D02*
G37*
G36*
X-63923D02*
X-65314Y96627D01*
X-66611Y96090D01*
X-67725Y95236D01*
X-68579Y94122D01*
X-69116Y92826D01*
X-69299Y91434D01*
X-69116Y90042D01*
X-68579Y88746D01*
X-67725Y87632D01*
X-66611Y86778D01*
X-65314Y86240D01*
X-63923Y86057D01*
X-62531Y86240D01*
X-61234Y86778D01*
X-60121Y87632D01*
X-59266Y88746D01*
X-58729Y90042D01*
X-58546Y91434D01*
X-58729Y92826D01*
X-59266Y94122D01*
X-60121Y95236D01*
X-61234Y96090D01*
X-62531Y96627D01*
X-63923Y96811D01*
D02*
G37*
G36*
X-34001Y97878D02*
X-35259Y97755D01*
X-36468Y97388D01*
X-37582Y96792D01*
X-38558Y95991D01*
X-39360Y95014D01*
X-39955Y93900D01*
X-40322Y92691D01*
X-40446Y91434D01*
X-40322Y90177D01*
X-39955Y88968D01*
X-39360Y87854D01*
X-38558Y86877D01*
X-37582Y86076D01*
X-36468Y85480D01*
X-35259Y85113D01*
X-34001Y84990D01*
X-32744Y85113D01*
X-31535Y85480D01*
X-30421Y86076D01*
X-29445Y86877D01*
X-28643Y87854D01*
X-28048Y88968D01*
X-27681Y90177D01*
X-27557Y91434D01*
X-27681Y92691D01*
X-28048Y93900D01*
X-28643Y95014D01*
X-29445Y95991D01*
X-30421Y96792D01*
X-31535Y97388D01*
X-32744Y97755D01*
X-34001Y97878D01*
D02*
G37*
G36*
X-93844D02*
X-95101Y97755D01*
X-96310Y97388D01*
X-97424Y96792D01*
X-98401Y95991D01*
X-99202Y95014D01*
X-99798Y93900D01*
X-100165Y92691D01*
X-100288Y91434D01*
X-100165Y90177D01*
X-99798Y88968D01*
X-99202Y87854D01*
X-98401Y86877D01*
X-97424Y86076D01*
X-96310Y85480D01*
X-95101Y85113D01*
X-93844Y84990D01*
X-92587Y85113D01*
X-91378Y85480D01*
X-90264Y86076D01*
X-89287Y86877D01*
X-88486Y87854D01*
X-87890Y88968D01*
X-87524Y90177D01*
X-87400Y91434D01*
X-87524Y92691D01*
X-87890Y93900D01*
X-88486Y95014D01*
X-89287Y95991D01*
X-90264Y96792D01*
X-91378Y97388D01*
X-92587Y97755D01*
X-93844Y97878D01*
D02*
G37*
G36*
X-62499Y73425D02*
X-63413Y73304D01*
X-64264Y72952D01*
X-64995Y72391D01*
X-65556Y71659D01*
X-65909Y70808D01*
X-66029Y69894D01*
X-65909Y68981D01*
X-65556Y68129D01*
X-64995Y67398D01*
X-64264Y66837D01*
X-63413Y66484D01*
X-62499Y66364D01*
X-61585Y66484D01*
X-60734Y66837D01*
X-60003Y67398D01*
X-59442Y68129D01*
X-59089Y68981D01*
X-58969Y69894D01*
X-59089Y70808D01*
X-59442Y71659D01*
X-60003Y72391D01*
X-60734Y72952D01*
X-61585Y73304D01*
X-62499Y73425D01*
D02*
G37*
G36*
X244876Y71895D02*
X243962Y71775D01*
X243111Y71422D01*
X242380Y70861D01*
X241819Y70130D01*
X241466Y69279D01*
X241346Y68365D01*
X241466Y67451D01*
X241819Y66600D01*
X242015Y66344D01*
X241852Y66132D01*
X241499Y65280D01*
X241379Y64367D01*
X241499Y63453D01*
X241852Y62602D01*
X241986Y62427D01*
X241874Y62281D01*
X241521Y61430D01*
X241401Y60516D01*
X241521Y59602D01*
X241874Y58751D01*
X242435Y58020D01*
X243166Y57459D01*
X244017Y57106D01*
X244931Y56986D01*
X245845Y57106D01*
X246696Y57459D01*
X247427Y58020D01*
X247988Y58751D01*
X248341Y59602D01*
X248461Y60516D01*
X248341Y61430D01*
X247988Y62281D01*
X247854Y62456D01*
X247966Y62602D01*
X248319Y63453D01*
X248439Y64367D01*
X248319Y65280D01*
X247966Y66132D01*
X247770Y66387D01*
X247933Y66600D01*
X248286Y67451D01*
X248406Y68365D01*
X248286Y69279D01*
X247933Y70130D01*
X247372Y70861D01*
X246641Y71422D01*
X245790Y71775D01*
X244876Y71895D01*
D02*
G37*
G36*
X-62653Y52557D02*
X-63567Y52437D01*
X-64418Y52085D01*
X-65149Y51524D01*
X-65710Y50792D01*
X-66063Y49941D01*
X-66183Y49027D01*
X-66063Y48114D01*
X-65710Y47262D01*
X-65149Y46531D01*
X-64418Y45970D01*
X-63567Y45617D01*
X-62653Y45497D01*
X-61739Y45617D01*
X-60888Y45970D01*
X-60157Y46531D01*
X-59596Y47262D01*
X-59243Y48114D01*
X-59123Y49027D01*
X-59243Y49941D01*
X-59596Y50792D01*
X-60157Y51524D01*
X-60888Y52085D01*
X-61739Y52437D01*
X-62653Y52557D01*
D02*
G37*
G36*
X167869Y49075D02*
X162132D01*
X161671Y48983D01*
X161279Y48722D01*
X161018Y48331D01*
X160926Y47869D01*
Y42133D01*
X161018Y41671D01*
X161279Y41280D01*
X161671Y41018D01*
X162132Y40927D01*
X167869D01*
X168330Y41018D01*
X168722Y41280D01*
X168983Y41671D01*
X169075Y42133D01*
Y47869D01*
X168983Y48331D01*
X168722Y48722D01*
X168330Y48983D01*
X167869Y49075D01*
D02*
G37*
G36*
X-2131D02*
X-7868D01*
X-8329Y48983D01*
X-8721Y48722D01*
X-8982Y48331D01*
X-9074Y47869D01*
Y42133D01*
X-8982Y41671D01*
X-8721Y41280D01*
X-8329Y41018D01*
X-7868Y40927D01*
X-2131D01*
X-1670Y41018D01*
X-1278Y41280D01*
X-1017Y41671D01*
X-925Y42133D01*
Y47869D01*
X-1017Y48331D01*
X-1278Y48722D01*
X-1670Y48983D01*
X-2131Y49075D01*
D02*
G37*
G36*
X175001Y49087D02*
X173943Y48948D01*
X172958Y48540D01*
X172111Y47890D01*
X171462Y47044D01*
X171054Y46058D01*
X170914Y45001D01*
X171054Y43943D01*
X171462Y42958D01*
X172111Y42112D01*
X172958Y41462D01*
X173943Y41054D01*
X175001Y40915D01*
X176058Y41054D01*
X177044Y41462D01*
X177890Y42112D01*
X178539Y42958D01*
X178947Y43943D01*
X179087Y45001D01*
X178947Y46058D01*
X178539Y47044D01*
X177890Y47890D01*
X177044Y48540D01*
X176058Y48948D01*
X175001Y49087D01*
D02*
G37*
G36*
X5001D02*
X3943Y48948D01*
X2957Y48540D01*
X2111Y47890D01*
X1462Y47044D01*
X1054Y46058D01*
X914Y45001D01*
X1054Y43943D01*
X1462Y42958D01*
X2111Y42112D01*
X2957Y41462D01*
X3943Y41054D01*
X5001Y40915D01*
X6058Y41054D01*
X7044Y41462D01*
X7890Y42112D01*
X8539Y42958D01*
X8947Y43943D01*
X9087Y45001D01*
X8947Y46058D01*
X8539Y47044D01*
X7890Y47890D01*
X7044Y48540D01*
X6058Y48948D01*
X5001Y49087D01*
D02*
G37*
G36*
X-35101Y38236D02*
X-36015Y38115D01*
X-36866Y37763D01*
X-37597Y37201D01*
X-38158Y36470D01*
X-38511Y35619D01*
X-38631Y34705D01*
X-38511Y33792D01*
X-38158Y32940D01*
X-37597Y32209D01*
X-36866Y31648D01*
X-36015Y31295D01*
X-35101Y31175D01*
X-34187Y31295D01*
X-33336Y31648D01*
X-32605Y32209D01*
X-32044Y32940D01*
X-31691Y33792D01*
X-31571Y34705D01*
X-31691Y35619D01*
X-32044Y36470D01*
X-32605Y37201D01*
X-33336Y37763D01*
X-34187Y38115D01*
X-35101Y38236D01*
D02*
G37*
G36*
X175001Y39087D02*
X173943Y38948D01*
X172958Y38540D01*
X172111Y37890D01*
X171462Y37044D01*
X171054Y36059D01*
X170914Y35001D01*
X171054Y33943D01*
X171462Y32958D01*
X172111Y32112D01*
X172958Y31462D01*
X173943Y31054D01*
X175001Y30915D01*
X176058Y31054D01*
X177044Y31462D01*
X177890Y32112D01*
X178539Y32958D01*
X178947Y33943D01*
X179087Y35001D01*
X178947Y36059D01*
X178539Y37044D01*
X177890Y37890D01*
X177044Y38540D01*
X176058Y38948D01*
X175001Y39087D01*
D02*
G37*
G36*
X165000D02*
X163943Y38948D01*
X162958Y38540D01*
X162111Y37890D01*
X161462Y37044D01*
X161054Y36059D01*
X160914Y35001D01*
X161054Y33943D01*
X161462Y32958D01*
X162111Y32112D01*
X162958Y31462D01*
X163943Y31054D01*
X165000Y30915D01*
X166058Y31054D01*
X167044Y31462D01*
X167890Y32112D01*
X168539Y32958D01*
X168948Y33943D01*
X169087Y35001D01*
X168948Y36059D01*
X168539Y37044D01*
X167890Y37890D01*
X167044Y38540D01*
X166058Y38948D01*
X165000Y39087D01*
D02*
G37*
G36*
X5001D02*
X3943Y38948D01*
X2957Y38540D01*
X2111Y37890D01*
X1462Y37044D01*
X1054Y36059D01*
X914Y35001D01*
X1054Y33943D01*
X1462Y32958D01*
X2111Y32112D01*
X2957Y31462D01*
X3943Y31054D01*
X5001Y30915D01*
X6058Y31054D01*
X7044Y31462D01*
X7890Y32112D01*
X8539Y32958D01*
X8947Y33943D01*
X9087Y35001D01*
X8947Y36059D01*
X8539Y37044D01*
X7890Y37890D01*
X7044Y38540D01*
X6058Y38948D01*
X5001Y39087D01*
D02*
G37*
G36*
X-5000D02*
X-6057Y38948D01*
X-7042Y38540D01*
X-7889Y37890D01*
X-8538Y37044D01*
X-8946Y36059D01*
X-9086Y35001D01*
X-8946Y33943D01*
X-8538Y32958D01*
X-7889Y32112D01*
X-7042Y31462D01*
X-6057Y31054D01*
X-5000Y30915D01*
X-3942Y31054D01*
X-2956Y31462D01*
X-2110Y32112D01*
X-1461Y32958D01*
X-1053Y33943D01*
X-913Y35001D01*
X-1053Y36059D01*
X-1461Y37044D01*
X-2110Y37890D01*
X-2956Y38540D01*
X-3942Y38948D01*
X-5000Y39087D01*
D02*
G37*
G36*
X-60192Y28378D02*
X-61105Y28258D01*
X-61957Y27905D01*
X-62688Y27344D01*
X-63249Y26613D01*
X-63602Y25762D01*
X-63722Y24848D01*
X-63602Y23934D01*
X-63249Y23083D01*
X-62688Y22352D01*
X-61957Y21791D01*
X-61105Y21438D01*
X-60192Y21318D01*
X-59278Y21438D01*
X-58427Y21791D01*
X-57695Y22352D01*
X-57134Y23083D01*
X-56782Y23934D01*
X-56661Y24848D01*
X-56782Y25762D01*
X-57134Y26613D01*
X-57695Y27344D01*
X-58427Y27905D01*
X-59278Y28258D01*
X-60192Y28378D01*
D02*
G37*
G36*
X175001Y29087D02*
X173943Y28948D01*
X172958Y28540D01*
X172111Y27890D01*
X171462Y27044D01*
X171054Y26059D01*
X170914Y25001D01*
X171054Y23943D01*
X171462Y22958D01*
X172111Y22112D01*
X172958Y21462D01*
X173943Y21054D01*
X175001Y20915D01*
X176058Y21054D01*
X177044Y21462D01*
X177890Y22112D01*
X178539Y22958D01*
X178947Y23943D01*
X179087Y25001D01*
X178947Y26059D01*
X178539Y27044D01*
X177890Y27890D01*
X177044Y28540D01*
X176058Y28948D01*
X175001Y29087D01*
D02*
G37*
G36*
X165000D02*
X163943Y28948D01*
X162958Y28540D01*
X162111Y27890D01*
X161462Y27044D01*
X161054Y26059D01*
X160914Y25001D01*
X161054Y23943D01*
X161462Y22958D01*
X162111Y22112D01*
X162958Y21462D01*
X163943Y21054D01*
X165000Y20915D01*
X166058Y21054D01*
X167044Y21462D01*
X167890Y22112D01*
X168539Y22958D01*
X168948Y23943D01*
X169087Y25001D01*
X168948Y26059D01*
X168539Y27044D01*
X167890Y27890D01*
X167044Y28540D01*
X166058Y28948D01*
X165000Y29087D01*
D02*
G37*
G36*
X5001D02*
X3943Y28948D01*
X2957Y28540D01*
X2111Y27890D01*
X1462Y27044D01*
X1054Y26059D01*
X914Y25001D01*
X1054Y23943D01*
X1462Y22958D01*
X2111Y22112D01*
X2957Y21462D01*
X3943Y21054D01*
X5001Y20915D01*
X6058Y21054D01*
X7044Y21462D01*
X7890Y22112D01*
X8539Y22958D01*
X8947Y23943D01*
X9087Y25001D01*
X8947Y26059D01*
X8539Y27044D01*
X7890Y27890D01*
X7044Y28540D01*
X6058Y28948D01*
X5001Y29087D01*
D02*
G37*
G36*
X-5000D02*
X-6057Y28948D01*
X-7042Y28540D01*
X-7889Y27890D01*
X-8538Y27044D01*
X-8946Y26059D01*
X-9086Y25001D01*
X-8946Y23943D01*
X-8538Y22958D01*
X-7889Y22112D01*
X-7042Y21462D01*
X-6057Y21054D01*
X-5000Y20915D01*
X-3942Y21054D01*
X-2956Y21462D01*
X-2110Y22112D01*
X-1461Y22958D01*
X-1053Y23943D01*
X-913Y25001D01*
X-1053Y26059D01*
X-1461Y27044D01*
X-2110Y27890D01*
X-2956Y28540D01*
X-3942Y28948D01*
X-5000Y29087D01*
D02*
G37*
G36*
X175001Y19087D02*
X173943Y18948D01*
X172958Y18540D01*
X172111Y17890D01*
X171462Y17044D01*
X171054Y16059D01*
X170914Y15001D01*
X171054Y13943D01*
X171462Y12958D01*
X172111Y12112D01*
X172958Y11462D01*
X173943Y11054D01*
X175001Y10915D01*
X176058Y11054D01*
X177044Y11462D01*
X177890Y12112D01*
X178539Y12958D01*
X178947Y13943D01*
X179087Y15001D01*
X178947Y16059D01*
X178539Y17044D01*
X177890Y17890D01*
X177044Y18540D01*
X176058Y18948D01*
X175001Y19087D01*
D02*
G37*
G36*
X165000D02*
X163943Y18948D01*
X162958Y18540D01*
X162111Y17890D01*
X161462Y17044D01*
X161054Y16059D01*
X160914Y15001D01*
X161054Y13943D01*
X161462Y12958D01*
X162111Y12112D01*
X162958Y11462D01*
X163943Y11054D01*
X165000Y10915D01*
X166058Y11054D01*
X167044Y11462D01*
X167890Y12112D01*
X168539Y12958D01*
X168948Y13943D01*
X169087Y15001D01*
X168948Y16059D01*
X168539Y17044D01*
X167890Y17890D01*
X167044Y18540D01*
X166058Y18948D01*
X165000Y19087D01*
D02*
G37*
G36*
X5001D02*
X3943Y18948D01*
X2957Y18540D01*
X2111Y17890D01*
X1462Y17044D01*
X1054Y16059D01*
X914Y15001D01*
X1054Y13943D01*
X1462Y12958D01*
X2111Y12112D01*
X2957Y11462D01*
X3943Y11054D01*
X5001Y10915D01*
X6058Y11054D01*
X7044Y11462D01*
X7890Y12112D01*
X8539Y12958D01*
X8947Y13943D01*
X9087Y15001D01*
X8947Y16059D01*
X8539Y17044D01*
X7890Y17890D01*
X7044Y18540D01*
X6058Y18948D01*
X5001Y19087D01*
D02*
G37*
G36*
X-5000D02*
X-6057Y18948D01*
X-7042Y18540D01*
X-7889Y17890D01*
X-8538Y17044D01*
X-8946Y16059D01*
X-9086Y15001D01*
X-8946Y13943D01*
X-8538Y12958D01*
X-7889Y12112D01*
X-7042Y11462D01*
X-6057Y11054D01*
X-5000Y10915D01*
X-3942Y11054D01*
X-2956Y11462D01*
X-2110Y12112D01*
X-1461Y12958D01*
X-1053Y13943D01*
X-913Y15001D01*
X-1053Y16059D01*
X-1461Y17044D01*
X-2110Y17890D01*
X-2956Y18540D01*
X-3942Y18948D01*
X-5000Y19087D01*
D02*
G37*
G36*
X244932Y25480D02*
X244018Y25360D01*
X243167Y25007D01*
X242436Y24446D01*
X241875Y23715D01*
X241522Y22863D01*
X241402Y21950D01*
X241522Y21036D01*
X241875Y20185D01*
X242023Y19992D01*
X241908Y19842D01*
X241555Y18991D01*
X241435Y18077D01*
X241555Y17163D01*
X241908Y16312D01*
X242038Y16142D01*
X241842Y15886D01*
X241489Y15034D01*
X241369Y14121D01*
X241489Y13207D01*
X241842Y12356D01*
X242403Y11625D01*
X243134Y11064D01*
X243985Y10711D01*
X244899Y10591D01*
X245813Y10711D01*
X246664Y11064D01*
X247395Y11625D01*
X247956Y12356D01*
X248309Y13207D01*
X248429Y14121D01*
X248309Y15034D01*
X247956Y15886D01*
X247826Y16056D01*
X248022Y16312D01*
X248375Y17163D01*
X248495Y18077D01*
X248375Y18991D01*
X248022Y19842D01*
X247874Y20035D01*
X247989Y20185D01*
X248342Y21036D01*
X248462Y21950D01*
X248342Y22863D01*
X247989Y23715D01*
X247428Y24446D01*
X246697Y25007D01*
X245846Y25360D01*
X244932Y25480D01*
D02*
G37*
G36*
X175001Y9087D02*
X173943Y8948D01*
X172958Y8540D01*
X172111Y7890D01*
X171462Y7044D01*
X171054Y6058D01*
X170914Y5001D01*
X171054Y3943D01*
X171462Y2958D01*
X172111Y2112D01*
X172958Y1462D01*
X173943Y1054D01*
X175001Y915D01*
X176058Y1054D01*
X177044Y1462D01*
X177890Y2112D01*
X178539Y2958D01*
X178947Y3943D01*
X179087Y5001D01*
X178947Y6058D01*
X178539Y7044D01*
X177890Y7890D01*
X177044Y8540D01*
X176058Y8948D01*
X175001Y9087D01*
D02*
G37*
G36*
X165000D02*
X163943Y8948D01*
X162958Y8540D01*
X162111Y7890D01*
X161462Y7044D01*
X161054Y6058D01*
X160914Y5001D01*
X161054Y3943D01*
X161462Y2958D01*
X162111Y2112D01*
X162958Y1462D01*
X163943Y1054D01*
X165000Y915D01*
X166058Y1054D01*
X167044Y1462D01*
X167890Y2112D01*
X168539Y2958D01*
X168948Y3943D01*
X169087Y5001D01*
X168948Y6058D01*
X168539Y7044D01*
X167890Y7890D01*
X167044Y8540D01*
X166058Y8948D01*
X165000Y9087D01*
D02*
G37*
G36*
X5001D02*
X3943Y8948D01*
X2957Y8540D01*
X2111Y7890D01*
X1462Y7044D01*
X1054Y6058D01*
X914Y5001D01*
X1054Y3943D01*
X1462Y2958D01*
X2111Y2112D01*
X2957Y1462D01*
X3943Y1054D01*
X5001Y915D01*
X6058Y1054D01*
X7044Y1462D01*
X7890Y2112D01*
X8539Y2958D01*
X8947Y3943D01*
X9087Y5001D01*
X8947Y6058D01*
X8539Y7044D01*
X7890Y7890D01*
X7044Y8540D01*
X6058Y8948D01*
X5001Y9087D01*
D02*
G37*
G36*
X-5000D02*
X-6057Y8948D01*
X-7042Y8540D01*
X-7889Y7890D01*
X-8538Y7044D01*
X-8946Y6058D01*
X-9086Y5001D01*
X-8946Y3943D01*
X-8538Y2958D01*
X-7889Y2112D01*
X-7042Y1462D01*
X-6057Y1054D01*
X-5000Y915D01*
X-3942Y1054D01*
X-2956Y1462D01*
X-2110Y2112D01*
X-1461Y2958D01*
X-1053Y3943D01*
X-913Y5001D01*
X-1053Y6058D01*
X-1461Y7044D01*
X-2110Y7890D01*
X-2956Y8540D01*
X-3942Y8948D01*
X-5000Y9087D01*
D02*
G37*
G36*
X175001Y-913D02*
X173943Y-1052D01*
X172958Y-1460D01*
X172111Y-2110D01*
X171462Y-2956D01*
X171054Y-3941D01*
X170914Y-4999D01*
X171054Y-6057D01*
X171462Y-7042D01*
X172111Y-7888D01*
X172958Y-8538D01*
X173943Y-8946D01*
X175001Y-9085D01*
X176058Y-8946D01*
X177044Y-8538D01*
X177890Y-7888D01*
X178539Y-7042D01*
X178947Y-6057D01*
X179087Y-4999D01*
X178947Y-3941D01*
X178539Y-2956D01*
X177890Y-2110D01*
X177044Y-1460D01*
X176058Y-1052D01*
X175001Y-913D01*
D02*
G37*
G36*
X165000D02*
X163943Y-1052D01*
X162958Y-1460D01*
X162111Y-2110D01*
X161462Y-2956D01*
X161054Y-3941D01*
X160914Y-4999D01*
X161054Y-6057D01*
X161462Y-7042D01*
X162111Y-7888D01*
X162958Y-8538D01*
X163943Y-8946D01*
X165000Y-9085D01*
X166058Y-8946D01*
X167044Y-8538D01*
X167890Y-7888D01*
X168539Y-7042D01*
X168948Y-6057D01*
X169087Y-4999D01*
X168948Y-3941D01*
X168539Y-2956D01*
X167890Y-2110D01*
X167044Y-1460D01*
X166058Y-1052D01*
X165000Y-913D01*
D02*
G37*
G36*
X5001D02*
X3943Y-1052D01*
X2957Y-1460D01*
X2111Y-2110D01*
X1462Y-2956D01*
X1054Y-3941D01*
X914Y-4999D01*
X1054Y-6057D01*
X1462Y-7042D01*
X2111Y-7888D01*
X2957Y-8538D01*
X3943Y-8946D01*
X5001Y-9085D01*
X6058Y-8946D01*
X7044Y-8538D01*
X7890Y-7888D01*
X8539Y-7042D01*
X8947Y-6057D01*
X9087Y-4999D01*
X8947Y-3941D01*
X8539Y-2956D01*
X7890Y-2110D01*
X7044Y-1460D01*
X6058Y-1052D01*
X5001Y-913D01*
D02*
G37*
G36*
X-5000D02*
X-6057Y-1052D01*
X-7042Y-1460D01*
X-7889Y-2110D01*
X-8538Y-2956D01*
X-8946Y-3941D01*
X-9086Y-4999D01*
X-8946Y-6057D01*
X-8538Y-7042D01*
X-7889Y-7888D01*
X-7042Y-8538D01*
X-6057Y-8946D01*
X-5000Y-9085D01*
X-3942Y-8946D01*
X-2956Y-8538D01*
X-2110Y-7888D01*
X-1461Y-7042D01*
X-1053Y-6057D01*
X-913Y-4999D01*
X-1053Y-3941D01*
X-1461Y-2956D01*
X-2110Y-2110D01*
X-2956Y-1460D01*
X-3942Y-1052D01*
X-5000Y-913D01*
D02*
G37*
G36*
X175001Y-10913D02*
X173943Y-11052D01*
X172958Y-11460D01*
X172111Y-12110D01*
X171462Y-12956D01*
X171054Y-13941D01*
X170914Y-14999D01*
X171054Y-16057D01*
X171462Y-17042D01*
X172111Y-17888D01*
X172958Y-18538D01*
X173943Y-18946D01*
X175001Y-19085D01*
X176058Y-18946D01*
X177044Y-18538D01*
X177890Y-17888D01*
X178539Y-17042D01*
X178947Y-16057D01*
X179087Y-14999D01*
X178947Y-13941D01*
X178539Y-12956D01*
X177890Y-12110D01*
X177044Y-11460D01*
X176058Y-11052D01*
X175001Y-10913D01*
D02*
G37*
G36*
X165000D02*
X163943Y-11052D01*
X162958Y-11460D01*
X162111Y-12110D01*
X161462Y-12956D01*
X161054Y-13941D01*
X160914Y-14999D01*
X161054Y-16057D01*
X161462Y-17042D01*
X162111Y-17888D01*
X162958Y-18538D01*
X163943Y-18946D01*
X165000Y-19085D01*
X166058Y-18946D01*
X167044Y-18538D01*
X167890Y-17888D01*
X168539Y-17042D01*
X168948Y-16057D01*
X169087Y-14999D01*
X168948Y-13941D01*
X168539Y-12956D01*
X167890Y-12110D01*
X167044Y-11460D01*
X166058Y-11052D01*
X165000Y-10913D01*
D02*
G37*
G36*
X5001D02*
X3943Y-11052D01*
X2957Y-11460D01*
X2111Y-12110D01*
X1462Y-12956D01*
X1054Y-13941D01*
X914Y-14999D01*
X1054Y-16057D01*
X1462Y-17042D01*
X2111Y-17888D01*
X2957Y-18538D01*
X3943Y-18946D01*
X5001Y-19085D01*
X6058Y-18946D01*
X7044Y-18538D01*
X7890Y-17888D01*
X8539Y-17042D01*
X8947Y-16057D01*
X9087Y-14999D01*
X8947Y-13941D01*
X8539Y-12956D01*
X7890Y-12110D01*
X7044Y-11460D01*
X6058Y-11052D01*
X5001Y-10913D01*
D02*
G37*
G36*
X-5000D02*
X-6057Y-11052D01*
X-7042Y-11460D01*
X-7889Y-12110D01*
X-8538Y-12956D01*
X-8946Y-13941D01*
X-9086Y-14999D01*
X-8946Y-16057D01*
X-8538Y-17042D01*
X-7889Y-17888D01*
X-7042Y-18538D01*
X-6057Y-18946D01*
X-5000Y-19085D01*
X-3942Y-18946D01*
X-2956Y-18538D01*
X-2110Y-17888D01*
X-1461Y-17042D01*
X-1053Y-16057D01*
X-913Y-14999D01*
X-1053Y-13941D01*
X-1461Y-12956D01*
X-2110Y-12110D01*
X-2956Y-11460D01*
X-3942Y-11052D01*
X-5000Y-10913D01*
D02*
G37*
G36*
X175001Y-20913D02*
X173943Y-21052D01*
X172958Y-21460D01*
X172111Y-22110D01*
X171462Y-22956D01*
X171054Y-23942D01*
X170914Y-24999D01*
X171054Y-26057D01*
X171462Y-27042D01*
X172111Y-27888D01*
X172958Y-28538D01*
X173943Y-28946D01*
X175001Y-29085D01*
X176058Y-28946D01*
X177044Y-28538D01*
X177890Y-27888D01*
X178539Y-27042D01*
X178947Y-26057D01*
X179087Y-24999D01*
X178947Y-23942D01*
X178539Y-22956D01*
X177890Y-22110D01*
X177044Y-21460D01*
X176058Y-21052D01*
X175001Y-20913D01*
D02*
G37*
G36*
X165000D02*
X163943Y-21052D01*
X162958Y-21460D01*
X162111Y-22110D01*
X161462Y-22956D01*
X161054Y-23942D01*
X160914Y-24999D01*
X161054Y-26057D01*
X161462Y-27042D01*
X162111Y-27888D01*
X162958Y-28538D01*
X163943Y-28946D01*
X165000Y-29085D01*
X166058Y-28946D01*
X167044Y-28538D01*
X167890Y-27888D01*
X168539Y-27042D01*
X168948Y-26057D01*
X169087Y-24999D01*
X168948Y-23942D01*
X168539Y-22956D01*
X167890Y-22110D01*
X167044Y-21460D01*
X166058Y-21052D01*
X165000Y-20913D01*
D02*
G37*
G36*
X5001D02*
X3943Y-21052D01*
X2957Y-21460D01*
X2111Y-22110D01*
X1462Y-22956D01*
X1054Y-23942D01*
X914Y-24999D01*
X1054Y-26057D01*
X1462Y-27042D01*
X2111Y-27888D01*
X2957Y-28538D01*
X3943Y-28946D01*
X5001Y-29085D01*
X6058Y-28946D01*
X7044Y-28538D01*
X7890Y-27888D01*
X8539Y-27042D01*
X8947Y-26057D01*
X9087Y-24999D01*
X8947Y-23942D01*
X8539Y-22956D01*
X7890Y-22110D01*
X7044Y-21460D01*
X6058Y-21052D01*
X5001Y-20913D01*
D02*
G37*
G36*
X-5000D02*
X-6057Y-21052D01*
X-7042Y-21460D01*
X-7889Y-22110D01*
X-8538Y-22956D01*
X-8946Y-23942D01*
X-9086Y-24999D01*
X-8946Y-26057D01*
X-8538Y-27042D01*
X-7889Y-27888D01*
X-7042Y-28538D01*
X-6057Y-28946D01*
X-5000Y-29085D01*
X-3942Y-28946D01*
X-2956Y-28538D01*
X-2110Y-27888D01*
X-1461Y-27042D01*
X-1053Y-26057D01*
X-913Y-24999D01*
X-1053Y-23942D01*
X-1461Y-22956D01*
X-2110Y-22110D01*
X-2956Y-21460D01*
X-3942Y-21052D01*
X-5000Y-20913D01*
D02*
G37*
G36*
X175001Y-30913D02*
X173943Y-31052D01*
X172958Y-31460D01*
X172111Y-32110D01*
X171462Y-32956D01*
X171054Y-33942D01*
X170914Y-34999D01*
X171054Y-36057D01*
X171462Y-37042D01*
X172111Y-37888D01*
X172958Y-38538D01*
X173943Y-38946D01*
X175001Y-39085D01*
X176058Y-38946D01*
X177044Y-38538D01*
X177890Y-37888D01*
X178539Y-37042D01*
X178947Y-36057D01*
X179087Y-34999D01*
X178947Y-33942D01*
X178539Y-32956D01*
X177890Y-32110D01*
X177044Y-31460D01*
X176058Y-31052D01*
X175001Y-30913D01*
D02*
G37*
G36*
X165000D02*
X163943Y-31052D01*
X162958Y-31460D01*
X162111Y-32110D01*
X161462Y-32956D01*
X161329Y-33277D01*
X130486D01*
X129827Y-33408D01*
X129268Y-33781D01*
X-57561Y-220611D01*
X-58130Y-220375D01*
X-59316Y-220219D01*
X-60502Y-220375D01*
X-61608Y-220833D01*
X-62557Y-221561D01*
X-63285Y-222510D01*
X-63743Y-223615D01*
X-63899Y-224801D01*
X-63743Y-225988D01*
X-63285Y-227093D01*
X-62557Y-228042D01*
X-61608Y-228770D01*
X-60502Y-229228D01*
X-59316Y-229384D01*
X-58130Y-229228D01*
X-57025Y-228770D01*
X-56076Y-228042D01*
X-55348Y-227093D01*
X-54890Y-225988D01*
X-54734Y-224801D01*
X-54890Y-223615D01*
X-55126Y-223046D01*
X131199Y-36721D01*
X161329D01*
X161462Y-37042D01*
X162111Y-37888D01*
X162958Y-38538D01*
X163943Y-38946D01*
X165000Y-39085D01*
X166058Y-38946D01*
X167044Y-38538D01*
X167890Y-37888D01*
X168539Y-37042D01*
X168948Y-36057D01*
X169087Y-34999D01*
X168948Y-33942D01*
X168539Y-32956D01*
X167890Y-32110D01*
X167044Y-31460D01*
X166058Y-31052D01*
X165000Y-30913D01*
D02*
G37*
G36*
X5001D02*
X3943Y-31052D01*
X2957Y-31460D01*
X2111Y-32110D01*
X1462Y-32956D01*
X1054Y-33942D01*
X914Y-34999D01*
X1054Y-36057D01*
X1462Y-37042D01*
X2111Y-37888D01*
X2957Y-38538D01*
X3943Y-38946D01*
X5001Y-39085D01*
X6058Y-38946D01*
X7044Y-38538D01*
X7890Y-37888D01*
X8539Y-37042D01*
X8947Y-36057D01*
X9087Y-34999D01*
X8947Y-33942D01*
X8539Y-32956D01*
X7890Y-32110D01*
X7044Y-31460D01*
X6058Y-31052D01*
X5001Y-30913D01*
D02*
G37*
G36*
X-5000D02*
X-6057Y-31052D01*
X-7042Y-31460D01*
X-7889Y-32110D01*
X-8538Y-32956D01*
X-8946Y-33942D01*
X-9086Y-34999D01*
X-8946Y-36057D01*
X-8538Y-37042D01*
X-7889Y-37888D01*
X-7042Y-38538D01*
X-6057Y-38946D01*
X-5000Y-39085D01*
X-3942Y-38946D01*
X-2956Y-38538D01*
X-2110Y-37888D01*
X-1461Y-37042D01*
X-1053Y-36057D01*
X-913Y-34999D01*
X-1053Y-33942D01*
X-1461Y-32956D01*
X-2110Y-32110D01*
X-2956Y-31460D01*
X-3942Y-31052D01*
X-5000Y-30913D01*
D02*
G37*
G36*
X165000Y-40913D02*
X163943Y-41052D01*
X162958Y-41460D01*
X162111Y-42110D01*
X161462Y-42956D01*
X161329Y-43277D01*
X130328D01*
X129669Y-43408D01*
X129111Y-43781D01*
X-57561Y-230453D01*
X-58130Y-230218D01*
X-59316Y-230062D01*
X-60502Y-230218D01*
X-61608Y-230675D01*
X-62557Y-231404D01*
X-63285Y-232353D01*
X-63743Y-233458D01*
X-63899Y-234644D01*
X-63743Y-235830D01*
X-63285Y-236935D01*
X-62557Y-237884D01*
X-61608Y-238613D01*
X-60502Y-239070D01*
X-59316Y-239227D01*
X-58130Y-239070D01*
X-57025Y-238613D01*
X-56076Y-237884D01*
X-55348Y-236935D01*
X-54890Y-235830D01*
X-54734Y-234644D01*
X-54890Y-233458D01*
X-55126Y-232889D01*
X131042Y-46721D01*
X161329D01*
X161462Y-47042D01*
X162111Y-47888D01*
X162958Y-48538D01*
X163943Y-48946D01*
X165000Y-49085D01*
X166058Y-48946D01*
X167044Y-48538D01*
X167890Y-47888D01*
X168539Y-47042D01*
X168948Y-46057D01*
X169087Y-44999D01*
X168948Y-43942D01*
X168539Y-42956D01*
X167890Y-42110D01*
X167044Y-41460D01*
X166058Y-41052D01*
X165000Y-40913D01*
D02*
G37*
G36*
X5001D02*
X3943Y-41052D01*
X2957Y-41460D01*
X2111Y-42110D01*
X1462Y-42956D01*
X1054Y-43942D01*
X914Y-44999D01*
X1054Y-46057D01*
X1462Y-47042D01*
X2111Y-47888D01*
X2957Y-48538D01*
X3943Y-48946D01*
X5001Y-49085D01*
X6058Y-48946D01*
X7044Y-48538D01*
X7890Y-47888D01*
X8539Y-47042D01*
X8947Y-46057D01*
X9087Y-44999D01*
X8947Y-43942D01*
X8539Y-42956D01*
X7890Y-42110D01*
X7044Y-41460D01*
X6058Y-41052D01*
X5001Y-40913D01*
D02*
G37*
G36*
X-5000D02*
X-6057Y-41052D01*
X-7042Y-41460D01*
X-7889Y-42110D01*
X-8538Y-42956D01*
X-8946Y-43942D01*
X-9086Y-44999D01*
X-8946Y-46057D01*
X-8538Y-47042D01*
X-7889Y-47888D01*
X-7042Y-48538D01*
X-6057Y-48946D01*
X-5000Y-49085D01*
X-3942Y-48946D01*
X-2956Y-48538D01*
X-2110Y-47888D01*
X-1461Y-47042D01*
X-1053Y-46057D01*
X-913Y-44999D01*
X-1053Y-43942D01*
X-1461Y-42956D01*
X-2110Y-42110D01*
X-2956Y-41460D01*
X-3942Y-41052D01*
X-5000Y-40913D01*
D02*
G37*
G36*
X-10954Y-56935D02*
X-11998Y-57073D01*
X-12971Y-57476D01*
X-13807Y-58117D01*
X-14448Y-58952D01*
X-14620Y-59369D01*
X-15162D01*
X-15334Y-58952D01*
X-15975Y-58117D01*
X-16811Y-57476D01*
X-17784Y-57073D01*
X-18828Y-56935D01*
X-19872Y-57073D01*
X-20845Y-57476D01*
X-21681Y-58117D01*
X-22322Y-58952D01*
X-22494Y-59369D01*
X-23036D01*
X-23208Y-58952D01*
X-23849Y-58117D01*
X-24685Y-57476D01*
X-25658Y-57073D01*
X-26702Y-56935D01*
X-27746Y-57073D01*
X-28719Y-57476D01*
X-29555Y-58117D01*
X-30196Y-58952D01*
X-30368Y-59369D01*
X-30910D01*
X-31082Y-58952D01*
X-31723Y-58117D01*
X-32559Y-57476D01*
X-33532Y-57073D01*
X-34576Y-56935D01*
X-35620Y-57073D01*
X-36593Y-57476D01*
X-37429Y-58117D01*
X-38070Y-58952D01*
X-38242Y-59369D01*
X-38784D01*
X-38956Y-58952D01*
X-39597Y-58117D01*
X-40433Y-57476D01*
X-41406Y-57073D01*
X-42450Y-56935D01*
X-43494Y-57073D01*
X-44467Y-57476D01*
X-45303Y-58117D01*
X-45944Y-58952D01*
X-46117Y-59369D01*
X-46658D01*
X-46830Y-58952D01*
X-47471Y-58117D01*
X-48307Y-57476D01*
X-49280Y-57073D01*
X-50324Y-56935D01*
X-51368Y-57073D01*
X-52341Y-57476D01*
X-53177Y-58117D01*
X-53818Y-58952D01*
X-53991Y-59369D01*
X-54532D01*
X-54704Y-58952D01*
X-55345Y-58117D01*
X-56181Y-57476D01*
X-57154Y-57073D01*
X-58198Y-56935D01*
X-59242Y-57073D01*
X-60215Y-57476D01*
X-61051Y-58117D01*
X-61692Y-58952D01*
X-61865Y-59369D01*
X-62406D01*
X-62578Y-58952D01*
X-63219Y-58117D01*
X-64055Y-57476D01*
X-65028Y-57073D01*
X-66072Y-56935D01*
X-67116Y-57073D01*
X-68089Y-57476D01*
X-68925Y-58117D01*
X-69566Y-58952D01*
X-69739Y-59369D01*
X-70280D01*
X-70452Y-58952D01*
X-71093Y-58117D01*
X-71929Y-57476D01*
X-72902Y-57073D01*
X-73946Y-56935D01*
X-74990Y-57073D01*
X-75963Y-57476D01*
X-76799Y-58117D01*
X-77440Y-58952D01*
X-77613Y-59369D01*
X-78154D01*
X-78326Y-58952D01*
X-78967Y-58117D01*
X-79803Y-57476D01*
X-80776Y-57073D01*
X-81820Y-56935D01*
X-82864Y-57073D01*
X-83837Y-57476D01*
X-84673Y-58117D01*
X-85314Y-58952D01*
X-85717Y-59925D01*
X-85855Y-60970D01*
X-85717Y-62014D01*
X-85314Y-62987D01*
X-84673Y-63822D01*
X-83837Y-64464D01*
X-82864Y-64867D01*
X-81820Y-65004D01*
X-80776Y-64867D01*
X-79803Y-64464D01*
X-78967Y-63822D01*
X-78326Y-62987D01*
X-78154Y-62571D01*
X-77613D01*
X-77440Y-62987D01*
X-76799Y-63822D01*
X-75963Y-64464D01*
X-74990Y-64867D01*
X-73946Y-65004D01*
X-72902Y-64867D01*
X-71929Y-64464D01*
X-71093Y-63822D01*
X-70452Y-62987D01*
X-70280Y-62571D01*
X-69739D01*
X-69566Y-62987D01*
X-68925Y-63822D01*
X-68089Y-64464D01*
X-67116Y-64867D01*
X-66072Y-65004D01*
X-65028Y-64867D01*
X-64055Y-64464D01*
X-63219Y-63822D01*
X-62578Y-62987D01*
X-62406Y-62571D01*
X-61865D01*
X-61692Y-62987D01*
X-61051Y-63822D01*
X-60215Y-64464D01*
X-59242Y-64867D01*
X-58198Y-65004D01*
X-57154Y-64867D01*
X-56181Y-64464D01*
X-55345Y-63822D01*
X-54704Y-62987D01*
X-54532Y-62571D01*
X-53991D01*
X-53818Y-62987D01*
X-53177Y-63822D01*
X-52341Y-64464D01*
X-51368Y-64867D01*
X-50324Y-65004D01*
X-49280Y-64867D01*
X-48307Y-64464D01*
X-47471Y-63822D01*
X-46830Y-62987D01*
X-46658Y-62571D01*
X-46117D01*
X-45944Y-62987D01*
X-45303Y-63822D01*
X-44467Y-64464D01*
X-43494Y-64867D01*
X-42450Y-65004D01*
X-41406Y-64867D01*
X-40433Y-64464D01*
X-39597Y-63822D01*
X-38956Y-62987D01*
X-38784Y-62571D01*
X-38242D01*
X-38070Y-62987D01*
X-37429Y-63822D01*
X-36593Y-64464D01*
X-35620Y-64867D01*
X-34576Y-65004D01*
X-33532Y-64867D01*
X-32559Y-64464D01*
X-31723Y-63822D01*
X-31082Y-62987D01*
X-30910Y-62571D01*
X-30368D01*
X-30196Y-62987D01*
X-29555Y-63822D01*
X-28719Y-64464D01*
X-27746Y-64867D01*
X-26702Y-65004D01*
X-25658Y-64867D01*
X-24685Y-64464D01*
X-23849Y-63822D01*
X-23208Y-62987D01*
X-23036Y-62571D01*
X-22494D01*
X-22322Y-62987D01*
X-21681Y-63822D01*
X-20845Y-64464D01*
X-19872Y-64867D01*
X-18828Y-65004D01*
X-17784Y-64867D01*
X-16811Y-64464D01*
X-15975Y-63822D01*
X-15334Y-62987D01*
X-15162Y-62571D01*
X-14620D01*
X-14448Y-62987D01*
X-13807Y-63822D01*
X-12971Y-64464D01*
X-11998Y-64867D01*
X-10954Y-65004D01*
X-9910Y-64867D01*
X-8937Y-64464D01*
X-8101Y-63822D01*
X-7460Y-62987D01*
X-7057Y-62014D01*
X-6920Y-60970D01*
X-7057Y-59925D01*
X-7460Y-58952D01*
X-8101Y-58117D01*
X-8937Y-57476D01*
X-9910Y-57073D01*
X-10954Y-56935D01*
D02*
G37*
G36*
X-30677Y-100600D02*
X-31591Y-100720D01*
X-32442Y-101072D01*
X-33173Y-101634D01*
X-33734Y-102365D01*
X-34087Y-103216D01*
X-34207Y-104130D01*
X-34087Y-105043D01*
X-33734Y-105895D01*
X-33173Y-106626D01*
X-32442Y-107187D01*
X-31591Y-107540D01*
X-30677Y-107660D01*
X-29763Y-107540D01*
X-28912Y-107187D01*
X-28181Y-106626D01*
X-27620Y-105895D01*
X-27267Y-105043D01*
X-27147Y-104130D01*
X-27267Y-103216D01*
X-27620Y-102365D01*
X-28181Y-101634D01*
X-28912Y-101072D01*
X-29763Y-100720D01*
X-30677Y-100600D01*
D02*
G37*
G36*
X-10954Y-143549D02*
X-11998Y-143687D01*
X-12971Y-144090D01*
X-13807Y-144731D01*
X-14448Y-145566D01*
X-14620Y-145983D01*
X-15162D01*
X-15334Y-145566D01*
X-15975Y-144731D01*
X-16811Y-144090D01*
X-17784Y-143687D01*
X-18828Y-143549D01*
X-19872Y-143687D01*
X-20845Y-144090D01*
X-21681Y-144731D01*
X-22322Y-145566D01*
X-22494Y-145983D01*
X-23036D01*
X-23208Y-145566D01*
X-23849Y-144731D01*
X-24685Y-144090D01*
X-25658Y-143687D01*
X-26702Y-143549D01*
X-27746Y-143687D01*
X-28719Y-144090D01*
X-29555Y-144731D01*
X-30196Y-145566D01*
X-30368Y-145983D01*
X-30910D01*
X-31082Y-145566D01*
X-31723Y-144731D01*
X-32559Y-144090D01*
X-33532Y-143687D01*
X-34576Y-143549D01*
X-35620Y-143687D01*
X-36593Y-144090D01*
X-37429Y-144731D01*
X-38070Y-145566D01*
X-38242Y-145983D01*
X-38784D01*
X-38956Y-145566D01*
X-39597Y-144731D01*
X-40433Y-144090D01*
X-41406Y-143687D01*
X-42450Y-143549D01*
X-43494Y-143687D01*
X-44467Y-144090D01*
X-45303Y-144731D01*
X-45944Y-145566D01*
X-46117Y-145983D01*
X-46658D01*
X-46830Y-145566D01*
X-47471Y-144731D01*
X-48307Y-144090D01*
X-49280Y-143687D01*
X-50324Y-143549D01*
X-51368Y-143687D01*
X-52341Y-144090D01*
X-53177Y-144731D01*
X-53818Y-145566D01*
X-53991Y-145983D01*
X-54532D01*
X-54704Y-145566D01*
X-55345Y-144731D01*
X-56181Y-144090D01*
X-57154Y-143687D01*
X-58198Y-143549D01*
X-59242Y-143687D01*
X-60215Y-144090D01*
X-61051Y-144731D01*
X-61692Y-145566D01*
X-61865Y-145983D01*
X-62406D01*
X-62578Y-145566D01*
X-63219Y-144731D01*
X-64055Y-144090D01*
X-65028Y-143687D01*
X-66072Y-143549D01*
X-67116Y-143687D01*
X-68089Y-144090D01*
X-68925Y-144731D01*
X-69566Y-145566D01*
X-69739Y-145983D01*
X-70280D01*
X-70452Y-145566D01*
X-71093Y-144731D01*
X-71929Y-144090D01*
X-72902Y-143687D01*
X-73946Y-143549D01*
X-74990Y-143687D01*
X-75963Y-144090D01*
X-76799Y-144731D01*
X-77440Y-145566D01*
X-77613Y-145983D01*
X-78154D01*
X-78326Y-145566D01*
X-78967Y-144731D01*
X-79803Y-144090D01*
X-80776Y-143687D01*
X-81820Y-143549D01*
X-82864Y-143687D01*
X-83837Y-144090D01*
X-84673Y-144731D01*
X-85314Y-145566D01*
X-85717Y-146540D01*
X-85855Y-147584D01*
X-85717Y-148628D01*
X-85314Y-149601D01*
X-84673Y-150437D01*
X-83837Y-151078D01*
X-82864Y-151481D01*
X-81820Y-151618D01*
X-80776Y-151481D01*
X-79803Y-151078D01*
X-78967Y-150437D01*
X-78326Y-149601D01*
X-78154Y-149185D01*
X-77613D01*
X-77440Y-149601D01*
X-76799Y-150437D01*
X-75963Y-151078D01*
X-74990Y-151481D01*
X-73946Y-151618D01*
X-72902Y-151481D01*
X-71929Y-151078D01*
X-71093Y-150437D01*
X-70452Y-149601D01*
X-70280Y-149185D01*
X-69739D01*
X-69566Y-149601D01*
X-68925Y-150437D01*
X-68089Y-151078D01*
X-67116Y-151481D01*
X-66072Y-151618D01*
X-65028Y-151481D01*
X-64055Y-151078D01*
X-63219Y-150437D01*
X-62578Y-149601D01*
X-62406Y-149185D01*
X-61865D01*
X-61692Y-149601D01*
X-61051Y-150437D01*
X-60215Y-151078D01*
X-59242Y-151481D01*
X-58198Y-151618D01*
X-57154Y-151481D01*
X-56181Y-151078D01*
X-55345Y-150437D01*
X-54704Y-149601D01*
X-54532Y-149185D01*
X-53991D01*
X-53818Y-149601D01*
X-53177Y-150437D01*
X-52341Y-151078D01*
X-51368Y-151481D01*
X-50324Y-151618D01*
X-49280Y-151481D01*
X-48307Y-151078D01*
X-47471Y-150437D01*
X-46830Y-149601D01*
X-46658Y-149185D01*
X-46117D01*
X-45944Y-149601D01*
X-45303Y-150437D01*
X-44467Y-151078D01*
X-43494Y-151481D01*
X-42450Y-151618D01*
X-41406Y-151481D01*
X-40433Y-151078D01*
X-39597Y-150437D01*
X-38956Y-149601D01*
X-38784Y-149185D01*
X-38242D01*
X-38070Y-149601D01*
X-37429Y-150437D01*
X-36593Y-151078D01*
X-35620Y-151481D01*
X-34576Y-151618D01*
X-33532Y-151481D01*
X-32559Y-151078D01*
X-31723Y-150437D01*
X-31082Y-149601D01*
X-30910Y-149185D01*
X-30368D01*
X-30196Y-149601D01*
X-29555Y-150437D01*
X-28719Y-151078D01*
X-27746Y-151481D01*
X-26702Y-151618D01*
X-25658Y-151481D01*
X-24685Y-151078D01*
X-23849Y-150437D01*
X-23208Y-149601D01*
X-23036Y-149185D01*
X-22494D01*
X-22322Y-149601D01*
X-21681Y-150437D01*
X-20845Y-151078D01*
X-19872Y-151481D01*
X-18828Y-151618D01*
X-17784Y-151481D01*
X-16811Y-151078D01*
X-15975Y-150437D01*
X-15334Y-149601D01*
X-15162Y-149185D01*
X-14620D01*
X-14448Y-149601D01*
X-13807Y-150437D01*
X-12971Y-151078D01*
X-11998Y-151481D01*
X-10954Y-151618D01*
X-9910Y-151481D01*
X-8937Y-151078D01*
X-8101Y-150437D01*
X-7460Y-149601D01*
X-7057Y-148628D01*
X-6920Y-147584D01*
X-7057Y-146540D01*
X-7460Y-145566D01*
X-8101Y-144731D01*
X-8937Y-144090D01*
X-9910Y-143687D01*
X-10954Y-143549D01*
D02*
G37*
G36*
X271912Y-143397D02*
X270777Y-143546D01*
X269720Y-143984D01*
X268812Y-144681D01*
X268115Y-145589D01*
X267677Y-146646D01*
X267528Y-147781D01*
X267677Y-148915D01*
X268115Y-149973D01*
X268812Y-150881D01*
X269720Y-151577D01*
X270777Y-152015D01*
X271912Y-152165D01*
X273047Y-152015D01*
X274104Y-151577D01*
X275012Y-150881D01*
X275709Y-149973D01*
X276147Y-148915D01*
X276296Y-147781D01*
X276147Y-146646D01*
X275709Y-145589D01*
X275012Y-144681D01*
X274104Y-143984D01*
X273047Y-143546D01*
X271912Y-143397D01*
D02*
G37*
G36*
X243644Y-143198D02*
X242458Y-143354D01*
X241353Y-143812D01*
X240404Y-144540D01*
X239676Y-145489D01*
X239218Y-146595D01*
X239062Y-147781D01*
X239218Y-148967D01*
X239676Y-150072D01*
X240404Y-151021D01*
X241353Y-151749D01*
X242458Y-152207D01*
X243644Y-152363D01*
X244830Y-152207D01*
X245935Y-151749D01*
X246884Y-151021D01*
X247613Y-150072D01*
X248071Y-148967D01*
X248227Y-147781D01*
X248071Y-146595D01*
X247613Y-145489D01*
X246884Y-144540D01*
X245935Y-143812D01*
X244830Y-143354D01*
X243644Y-143198D01*
D02*
G37*
G36*
X271912Y-153239D02*
X270777Y-153389D01*
X269720Y-153827D01*
X268812Y-154523D01*
X268115Y-155431D01*
X267677Y-156489D01*
X267528Y-157623D01*
X267677Y-158758D01*
X268115Y-159815D01*
X268812Y-160723D01*
X269720Y-161420D01*
X270777Y-161858D01*
X271912Y-162007D01*
X273047Y-161858D01*
X274104Y-161420D01*
X275012Y-160723D01*
X275709Y-159815D01*
X276147Y-158758D01*
X276296Y-157623D01*
X276147Y-156489D01*
X275709Y-155431D01*
X275012Y-154523D01*
X274104Y-153827D01*
X273047Y-153389D01*
X271912Y-153239D01*
D02*
G37*
G36*
X243644Y-153041D02*
X242458Y-153197D01*
X241353Y-153655D01*
X240404Y-154383D01*
X239676Y-155332D01*
X239218Y-156437D01*
X239062Y-157623D01*
X239218Y-158809D01*
X239676Y-159915D01*
X240404Y-160864D01*
X241353Y-161592D01*
X242458Y-162050D01*
X243644Y-162206D01*
X244830Y-162050D01*
X245935Y-161592D01*
X246884Y-160864D01*
X247613Y-159915D01*
X248071Y-158809D01*
X248227Y-157623D01*
X248071Y-156437D01*
X247613Y-155332D01*
X246884Y-154383D01*
X245935Y-153655D01*
X244830Y-153197D01*
X243644Y-153041D01*
D02*
G37*
G36*
X-96070Y-178510D02*
X-97205Y-178659D01*
X-98262Y-179097D01*
X-99170Y-179794D01*
X-99867Y-180702D01*
X-100305Y-181759D01*
X-100454Y-182894D01*
X-100305Y-184028D01*
X-99867Y-185086D01*
X-99170Y-185994D01*
X-98262Y-186690D01*
X-97205Y-187128D01*
X-96070Y-187278D01*
X-94935Y-187128D01*
X-93878Y-186690D01*
X-92970Y-185994D01*
X-92273Y-185086D01*
X-91835Y-184028D01*
X-91686Y-182894D01*
X-91835Y-181759D01*
X-92273Y-180702D01*
X-92970Y-179794D01*
X-93878Y-179097D01*
X-94935Y-178659D01*
X-96070Y-178510D01*
D02*
G37*
G36*
X-57960Y-178311D02*
X-59146Y-178467D01*
X-60251Y-178925D01*
X-61200Y-179653D01*
X-61928Y-180602D01*
X-62386Y-181708D01*
X-62542Y-182894D01*
X-62386Y-184080D01*
X-61928Y-185185D01*
X-61200Y-186134D01*
X-60251Y-186862D01*
X-59146Y-187320D01*
X-57960Y-187476D01*
X-56774Y-187320D01*
X-55669Y-186862D01*
X-54720Y-186134D01*
X-53991Y-185185D01*
X-53534Y-184080D01*
X-53377Y-182894D01*
X-53534Y-181708D01*
X-53991Y-180602D01*
X-54720Y-179653D01*
X-55669Y-178925D01*
X-56774Y-178467D01*
X-57960Y-178311D01*
D02*
G37*
G36*
X-67802D02*
X-68988Y-178467D01*
X-70094Y-178925D01*
X-71043Y-179653D01*
X-71771Y-180602D01*
X-72229Y-181708D01*
X-72385Y-182894D01*
X-72229Y-184080D01*
X-71771Y-185185D01*
X-71043Y-186134D01*
X-70094Y-186862D01*
X-68988Y-187320D01*
X-67802Y-187476D01*
X-66616Y-187320D01*
X-65511Y-186862D01*
X-64562Y-186134D01*
X-63834Y-185185D01*
X-63376Y-184080D01*
X-63220Y-182894D01*
X-63376Y-181708D01*
X-63834Y-180602D01*
X-64562Y-179653D01*
X-65511Y-178925D01*
X-66616Y-178467D01*
X-67802Y-178311D01*
D02*
G37*
G36*
X105796Y-183531D02*
X104559Y-183694D01*
X103405Y-184171D01*
X102415Y-184931D01*
X101655Y-185921D01*
X101178Y-187074D01*
X101015Y-188312D01*
X101178Y-189549D01*
X101655Y-190702D01*
X102415Y-191692D01*
X103405Y-192452D01*
X104559Y-192930D01*
X105796Y-193093D01*
X107033Y-192930D01*
X108186Y-192452D01*
X109177Y-191692D01*
X109936Y-190702D01*
X110414Y-189549D01*
X110577Y-188312D01*
X110414Y-187074D01*
X109936Y-185921D01*
X109177Y-184931D01*
X108186Y-184171D01*
X107033Y-183694D01*
X105796Y-183531D01*
D02*
G37*
G36*
X-96070Y-188352D02*
X-97205Y-188502D01*
X-98262Y-188940D01*
X-99170Y-189636D01*
X-99867Y-190544D01*
X-100305Y-191602D01*
X-100454Y-192736D01*
X-100305Y-193871D01*
X-99867Y-194928D01*
X-99170Y-195836D01*
X-98262Y-196533D01*
X-97205Y-196971D01*
X-96070Y-197120D01*
X-94935Y-196971D01*
X-93878Y-196533D01*
X-92970Y-195836D01*
X-92273Y-194928D01*
X-91835Y-193871D01*
X-91686Y-192736D01*
X-91835Y-191602D01*
X-92273Y-190544D01*
X-92970Y-189636D01*
X-93878Y-188940D01*
X-94935Y-188502D01*
X-96070Y-188352D01*
D02*
G37*
G36*
X-53417Y-188193D02*
X-62503D01*
Y-197280D01*
X-53417D01*
Y-188193D01*
D02*
G37*
G36*
X-67802Y-188154D02*
X-68988Y-188310D01*
X-70094Y-188768D01*
X-71043Y-189496D01*
X-71771Y-190445D01*
X-72229Y-191550D01*
X-72385Y-192736D01*
X-72229Y-193922D01*
X-71771Y-195027D01*
X-71043Y-195976D01*
X-70094Y-196705D01*
X-68988Y-197163D01*
X-67802Y-197319D01*
X-66616Y-197163D01*
X-65511Y-196705D01*
X-64562Y-195976D01*
X-63834Y-195027D01*
X-63376Y-193922D01*
X-63220Y-192736D01*
X-63376Y-191550D01*
X-63834Y-190445D01*
X-64562Y-189496D01*
X-65511Y-188768D01*
X-66616Y-188310D01*
X-67802Y-188154D01*
D02*
G37*
G36*
X64064Y-189247D02*
X62710Y-189380D01*
X61408Y-189775D01*
X60209Y-190416D01*
X59157Y-191279D01*
X58294Y-192331D01*
X57653Y-193530D01*
X57258Y-194832D01*
X57125Y-196186D01*
X57258Y-197539D01*
X57653Y-198841D01*
X58294Y-200041D01*
X59157Y-201092D01*
X60209Y-201955D01*
X61408Y-202596D01*
X62710Y-202991D01*
X64064Y-203125D01*
X65417Y-202991D01*
X66719Y-202596D01*
X67919Y-201955D01*
X68970Y-201092D01*
X69833Y-200041D01*
X70474Y-198841D01*
X70869Y-197539D01*
X71003Y-196186D01*
X70869Y-194832D01*
X70474Y-193530D01*
X69833Y-192331D01*
X68970Y-191279D01*
X67919Y-190416D01*
X66719Y-189775D01*
X65417Y-189380D01*
X64064Y-189247D01*
D02*
G37*
G36*
X272153Y-196740D02*
X271018Y-196889D01*
X269961Y-197327D01*
X269053Y-198024D01*
X268356Y-198932D01*
X267918Y-199989D01*
X267769Y-201124D01*
X267918Y-202258D01*
X268356Y-203316D01*
X269053Y-204224D01*
X269961Y-204920D01*
X271018Y-205358D01*
X272153Y-205508D01*
X273288Y-205358D01*
X274345Y-204920D01*
X275253Y-204224D01*
X275950Y-203316D01*
X276388Y-202258D01*
X276537Y-201124D01*
X276388Y-199989D01*
X275950Y-198932D01*
X275253Y-198024D01*
X274345Y-197327D01*
X273288Y-196889D01*
X272153Y-196740D01*
D02*
G37*
G36*
X238586Y-196580D02*
X229499D01*
Y-205667D01*
X238586D01*
Y-196580D01*
D02*
G37*
G36*
X243885Y-196541D02*
X242699Y-196697D01*
X241594Y-197155D01*
X240645Y-197883D01*
X239917Y-198832D01*
X239459Y-199938D01*
X239303Y-201124D01*
X239459Y-202310D01*
X239917Y-203415D01*
X240645Y-204364D01*
X241594Y-205092D01*
X242699Y-205550D01*
X243885Y-205706D01*
X245071Y-205550D01*
X246176Y-205092D01*
X247126Y-204364D01*
X247854Y-203415D01*
X248311Y-202310D01*
X248468Y-201124D01*
X248311Y-199938D01*
X247854Y-198832D01*
X247126Y-197883D01*
X246176Y-197155D01*
X245071Y-196697D01*
X243885Y-196541D01*
D02*
G37*
G36*
X115638Y-193184D02*
X114285Y-193317D01*
X112983Y-193712D01*
X111784Y-194353D01*
X110732Y-195216D01*
X109869Y-196268D01*
X109228Y-197467D01*
X108833Y-198769D01*
X108700Y-200123D01*
X108833Y-201476D01*
X109228Y-202778D01*
X109869Y-203978D01*
X110732Y-205029D01*
X111784Y-205892D01*
X112983Y-206533D01*
X114285Y-206928D01*
X115638Y-207062D01*
X116992Y-206928D01*
X118294Y-206533D01*
X119494Y-205892D01*
X120545Y-205029D01*
X121408Y-203978D01*
X122049Y-202778D01*
X122444Y-201476D01*
X122578Y-200123D01*
X122444Y-198769D01*
X122049Y-197467D01*
X121408Y-196268D01*
X120545Y-195216D01*
X119494Y-194353D01*
X118294Y-193712D01*
X116992Y-193317D01*
X115638Y-193184D01*
D02*
G37*
G36*
X167869Y-200925D02*
X162132D01*
X161671Y-201016D01*
X161279Y-201278D01*
X161018Y-201669D01*
X160926Y-202131D01*
Y-207867D01*
X161018Y-208329D01*
X161279Y-208720D01*
X161671Y-208982D01*
X162132Y-209073D01*
X167869D01*
X168330Y-208982D01*
X168722Y-208720D01*
X168983Y-208329D01*
X169075Y-207867D01*
Y-202131D01*
X168983Y-201669D01*
X168722Y-201278D01*
X168330Y-201016D01*
X167869Y-200925D01*
D02*
G37*
G36*
X-2131D02*
X-7868D01*
X-8329Y-201016D01*
X-8721Y-201278D01*
X-8982Y-201669D01*
X-9074Y-202131D01*
Y-207867D01*
X-8982Y-208329D01*
X-8721Y-208720D01*
X-8329Y-208982D01*
X-7868Y-209073D01*
X-2131D01*
X-1670Y-208982D01*
X-1278Y-208720D01*
X-1017Y-208329D01*
X-925Y-207867D01*
Y-202131D01*
X-1017Y-201669D01*
X-1278Y-201278D01*
X-1670Y-201016D01*
X-2131Y-200925D01*
D02*
G37*
G36*
X175001Y-200913D02*
X173943Y-201052D01*
X172958Y-201460D01*
X172111Y-202110D01*
X171462Y-202956D01*
X171054Y-203941D01*
X170914Y-204999D01*
X171054Y-206057D01*
X171462Y-207042D01*
X172111Y-207888D01*
X172958Y-208538D01*
X173943Y-208946D01*
X175001Y-209085D01*
X176058Y-208946D01*
X177044Y-208538D01*
X177890Y-207888D01*
X178539Y-207042D01*
X178947Y-206057D01*
X179087Y-204999D01*
X178947Y-203941D01*
X178539Y-202956D01*
X177890Y-202110D01*
X177044Y-201460D01*
X176058Y-201052D01*
X175001Y-200913D01*
D02*
G37*
G36*
X5001D02*
X3943Y-201052D01*
X2957Y-201460D01*
X2111Y-202110D01*
X1462Y-202956D01*
X1054Y-203941D01*
X914Y-204999D01*
X1054Y-206057D01*
X1462Y-207042D01*
X2111Y-207888D01*
X2957Y-208538D01*
X3943Y-208946D01*
X5001Y-209085D01*
X6058Y-208946D01*
X7044Y-208538D01*
X7890Y-207888D01*
X8539Y-207042D01*
X8947Y-206057D01*
X9087Y-204999D01*
X8947Y-203941D01*
X8539Y-202956D01*
X7890Y-202110D01*
X7044Y-201460D01*
X6058Y-201052D01*
X5001Y-200913D01*
D02*
G37*
G36*
X134807Y-205087D02*
X133893Y-205208D01*
X133042Y-205560D01*
X132311Y-206121D01*
X131750Y-206853D01*
X131397Y-207704D01*
X131277Y-208618D01*
X131397Y-209531D01*
X131750Y-210383D01*
X132311Y-211114D01*
X133042Y-211675D01*
X133893Y-212028D01*
X134807Y-212148D01*
X135721Y-212028D01*
X136572Y-211675D01*
X137303Y-211114D01*
X137864Y-210383D01*
X138217Y-209531D01*
X138337Y-208618D01*
X138217Y-207704D01*
X137864Y-206853D01*
X137303Y-206121D01*
X136572Y-205560D01*
X135721Y-205208D01*
X134807Y-205087D01*
D02*
G37*
G36*
X243885Y-206384D02*
X242699Y-206540D01*
X241594Y-206998D01*
X240645Y-207726D01*
X239917Y-208675D01*
X239459Y-209780D01*
X239303Y-210966D01*
X239459Y-212152D01*
X239917Y-213258D01*
X240645Y-214207D01*
X241594Y-214935D01*
X242699Y-215393D01*
X243885Y-215549D01*
X245071Y-215393D01*
X246176Y-214935D01*
X247126Y-214207D01*
X247854Y-213258D01*
X248311Y-212152D01*
X248468Y-210966D01*
X248311Y-209780D01*
X247854Y-208675D01*
X247126Y-207726D01*
X246176Y-206998D01*
X245071Y-206540D01*
X243885Y-206384D01*
D02*
G37*
G36*
X234043D02*
X232857Y-206540D01*
X231751Y-206998D01*
X230802Y-207726D01*
X230074Y-208675D01*
X229616Y-209780D01*
X229460Y-210966D01*
X229616Y-212152D01*
X229932Y-212914D01*
X224214Y-218632D01*
X177742D01*
X177572Y-218132D01*
X177890Y-217888D01*
X178539Y-217042D01*
X178947Y-216057D01*
X179087Y-214999D01*
X178947Y-213942D01*
X178539Y-212956D01*
X177890Y-212110D01*
X177044Y-211460D01*
X176058Y-211052D01*
X175001Y-210913D01*
X173943Y-211052D01*
X172958Y-211460D01*
X172111Y-212110D01*
X171462Y-212956D01*
X171054Y-213942D01*
X170914Y-214999D01*
X171054Y-216057D01*
X171462Y-217042D01*
X172111Y-217888D01*
X172429Y-218132D01*
X172259Y-218632D01*
X167742D01*
X167572Y-218132D01*
X167890Y-217888D01*
X168539Y-217042D01*
X168948Y-216057D01*
X169087Y-214999D01*
X168948Y-213942D01*
X168539Y-212956D01*
X167890Y-212110D01*
X167044Y-211460D01*
X166058Y-211052D01*
X165000Y-210913D01*
X163943Y-211052D01*
X162958Y-211460D01*
X162111Y-212110D01*
X161462Y-212956D01*
X161054Y-213942D01*
X160914Y-214999D01*
X161054Y-216057D01*
X161462Y-217042D01*
X162111Y-217888D01*
X162429Y-218132D01*
X162259Y-218632D01*
X132819D01*
X132234Y-218749D01*
X131737Y-219080D01*
X95088Y-255729D01*
X71080D01*
X70739Y-254603D01*
X70097Y-253404D01*
X69235Y-252352D01*
X68183Y-251489D01*
X66983Y-250848D01*
X65682Y-250453D01*
X64328Y-250320D01*
X62974Y-250453D01*
X61673Y-250848D01*
X60473Y-251489D01*
X59421Y-252352D01*
X58558Y-253404D01*
X57917Y-254603D01*
X57522Y-255905D01*
X57389Y-257259D01*
X57522Y-258612D01*
X57917Y-259914D01*
X58558Y-261114D01*
X59421Y-262165D01*
X60473Y-263028D01*
X61673Y-263669D01*
X62974Y-264064D01*
X64328Y-264198D01*
X65682Y-264064D01*
X66983Y-263669D01*
X68183Y-263028D01*
X69235Y-262165D01*
X70097Y-261114D01*
X70739Y-259914D01*
X71080Y-258788D01*
X95722D01*
X96307Y-258672D01*
X96803Y-258340D01*
X133452Y-221691D01*
X161913D01*
X162049Y-222191D01*
X161462Y-222956D01*
X161054Y-223941D01*
X160914Y-224999D01*
X161054Y-226057D01*
X161462Y-227042D01*
X162111Y-227888D01*
X162187Y-227947D01*
X162027Y-228420D01*
X139275D01*
X138689Y-228537D01*
X138193Y-228868D01*
X119596Y-247466D01*
X118558Y-246911D01*
X117256Y-246516D01*
X115903Y-246383D01*
X114549Y-246516D01*
X113247Y-246911D01*
X112048Y-247552D01*
X110996Y-248415D01*
X110133Y-249467D01*
X109492Y-250666D01*
X109097Y-251968D01*
X108964Y-253322D01*
X109097Y-254675D01*
X109492Y-255977D01*
X110133Y-257177D01*
X110996Y-258228D01*
X112048Y-259091D01*
X113247Y-259732D01*
X114549Y-260127D01*
X115903Y-260261D01*
X117256Y-260127D01*
X118392Y-259783D01*
X118657Y-260225D01*
X109979Y-268902D01*
X107431D01*
X106846Y-269019D01*
X106350Y-269350D01*
X92412Y-283288D01*
X78668D01*
X78311Y-282427D01*
X77551Y-281437D01*
X76561Y-280677D01*
X75408Y-280200D01*
X74171Y-280037D01*
X72933Y-280200D01*
X71780Y-280677D01*
X70790Y-281437D01*
X70030Y-282427D01*
X69552Y-283580D01*
X69389Y-284818D01*
X69552Y-286055D01*
X70030Y-287208D01*
X70790Y-288198D01*
X71780Y-288958D01*
X72933Y-289436D01*
X74171Y-289599D01*
X75408Y-289436D01*
X76561Y-288958D01*
X77551Y-288198D01*
X78311Y-287208D01*
X78668Y-286347D01*
X93045D01*
X93630Y-286231D01*
X94126Y-285899D01*
X108064Y-271961D01*
X110412D01*
X110663Y-272432D01*
X110664Y-272442D01*
X110133Y-273089D01*
X109492Y-274288D01*
X109097Y-275590D01*
X108964Y-276944D01*
X109097Y-278297D01*
X109492Y-279599D01*
X110133Y-280799D01*
X110996Y-281850D01*
X112048Y-282713D01*
X113247Y-283354D01*
X114549Y-283749D01*
X115903Y-283883D01*
X117256Y-283749D01*
X118558Y-283354D01*
X119758Y-282713D01*
X120809Y-281850D01*
X121672Y-280799D01*
X122313Y-279599D01*
X122708Y-278297D01*
X122842Y-276944D01*
X122708Y-275590D01*
X122313Y-274288D01*
X121672Y-273089D01*
X120809Y-272037D01*
X119758Y-271174D01*
X118558Y-270533D01*
X117256Y-270138D01*
X115903Y-270005D01*
X114549Y-270138D01*
X113440Y-270474D01*
X113175Y-270032D01*
X120951Y-262257D01*
X124984D01*
X124984Y-262257D01*
X130300D01*
X130886Y-262140D01*
X131382Y-261809D01*
X141744Y-251446D01*
X162155D01*
X162325Y-251946D01*
X162111Y-252110D01*
X161462Y-252956D01*
X161054Y-253941D01*
X160914Y-254999D01*
X161054Y-256057D01*
X161462Y-257042D01*
X162111Y-257888D01*
X162327Y-258054D01*
X162157Y-258554D01*
X160339D01*
X159753Y-258670D01*
X159257Y-259002D01*
X117285Y-300974D01*
X28469D01*
X27883Y-301091D01*
X27387Y-301422D01*
X-14812Y-343621D01*
X-15048Y-343524D01*
X-15961Y-343404D01*
X-16875Y-343524D01*
X-17726Y-343877D01*
X-18458Y-344438D01*
X-19019Y-345169D01*
X-19371Y-346020D01*
X-19491Y-346934D01*
X-19371Y-347848D01*
X-19019Y-348699D01*
X-18458Y-349430D01*
X-17726Y-349991D01*
X-16875Y-350344D01*
X-15961Y-350464D01*
X-15048Y-350344D01*
X-14196Y-349991D01*
X-13465Y-349430D01*
X-12904Y-348699D01*
X-12551Y-347848D01*
X-12431Y-346934D01*
X-12551Y-346020D01*
X-12649Y-345784D01*
X29102Y-304033D01*
X117918D01*
X118503Y-303917D01*
X119000Y-303585D01*
X160972Y-261613D01*
X161981D01*
X162142Y-262086D01*
X162111Y-262110D01*
X161462Y-262956D01*
X161054Y-263942D01*
X160914Y-264999D01*
X161054Y-266057D01*
X161462Y-267042D01*
X162111Y-267888D01*
X162958Y-268538D01*
X163943Y-268946D01*
X165000Y-269085D01*
X166058Y-268946D01*
X167044Y-268538D01*
X167890Y-267888D01*
X168539Y-267042D01*
X168948Y-266057D01*
X169087Y-264999D01*
X168948Y-263942D01*
X168539Y-262956D01*
X167890Y-262110D01*
X167859Y-262086D01*
X168020Y-261613D01*
X171982D01*
X172142Y-262086D01*
X172111Y-262110D01*
X171462Y-262956D01*
X171054Y-263942D01*
X170914Y-264999D01*
X171054Y-266057D01*
X171462Y-267042D01*
X172111Y-267888D01*
X172958Y-268538D01*
X173943Y-268946D01*
X175001Y-269085D01*
X176058Y-268946D01*
X177044Y-268538D01*
X177890Y-267888D01*
X178539Y-267042D01*
X178947Y-266057D01*
X179087Y-264999D01*
X178947Y-263942D01*
X178539Y-262956D01*
X177890Y-262110D01*
X177859Y-262086D01*
X178020Y-261613D01*
X214454D01*
X215039Y-261496D01*
X215535Y-261164D01*
X232095Y-244605D01*
X232857Y-244920D01*
X234043Y-245076D01*
X235229Y-244920D01*
X236334Y-244462D01*
X237283Y-243734D01*
X238011Y-242785D01*
X238469Y-241680D01*
X238625Y-240494D01*
X238469Y-239308D01*
X238011Y-238203D01*
X237283Y-237254D01*
X236334Y-236525D01*
X235229Y-236068D01*
X234043Y-235911D01*
X232857Y-236068D01*
X231751Y-236525D01*
X230802Y-237254D01*
X230074Y-238203D01*
X229616Y-239308D01*
X229460Y-240494D01*
X229616Y-241680D01*
X229932Y-242442D01*
X213820Y-258554D01*
X177844D01*
X177674Y-258054D01*
X177890Y-257888D01*
X178539Y-257042D01*
X178947Y-256057D01*
X179087Y-254999D01*
X178947Y-253941D01*
X178539Y-252956D01*
X177890Y-252110D01*
X177677Y-251946D01*
X177846Y-251446D01*
X214777D01*
X215363Y-251330D01*
X215859Y-250998D01*
X232095Y-234762D01*
X232857Y-235078D01*
X234043Y-235234D01*
X235229Y-235078D01*
X236334Y-234620D01*
X237283Y-233892D01*
X238011Y-232943D01*
X238469Y-231837D01*
X238625Y-230651D01*
X238469Y-229465D01*
X238011Y-228360D01*
X237283Y-227411D01*
X236334Y-226683D01*
X235229Y-226225D01*
X234043Y-226069D01*
X232857Y-226225D01*
X231751Y-226683D01*
X230802Y-227411D01*
X230074Y-228360D01*
X229616Y-229465D01*
X229460Y-230651D01*
X229616Y-231837D01*
X229932Y-232599D01*
X214144Y-248387D01*
X178017D01*
X177857Y-247914D01*
X177890Y-247888D01*
X178539Y-247042D01*
X178947Y-246057D01*
X179087Y-244999D01*
X178947Y-243941D01*
X178539Y-242956D01*
X177890Y-242110D01*
X177044Y-241460D01*
X176058Y-241052D01*
X175001Y-240913D01*
X173943Y-241052D01*
X172958Y-241460D01*
X172111Y-242110D01*
X171462Y-242956D01*
X171054Y-243941D01*
X170914Y-244999D01*
X171054Y-246057D01*
X171462Y-247042D01*
X172111Y-247888D01*
X172144Y-247914D01*
X171984Y-248387D01*
X168017D01*
X167857Y-247914D01*
X167890Y-247888D01*
X168539Y-247042D01*
X168948Y-246057D01*
X169087Y-244999D01*
X168948Y-243941D01*
X168539Y-242956D01*
X167890Y-242110D01*
X167044Y-241460D01*
X166058Y-241052D01*
X165000Y-240913D01*
X163943Y-241052D01*
X162958Y-241460D01*
X162111Y-242110D01*
X161462Y-242956D01*
X161054Y-243941D01*
X160914Y-244999D01*
X161054Y-246057D01*
X161462Y-247042D01*
X162111Y-247888D01*
X162144Y-247914D01*
X161984Y-248387D01*
X141111D01*
X140526Y-248504D01*
X140030Y-248835D01*
X129667Y-259198D01*
X124984D01*
X124984Y-259198D01*
X120416D01*
X120272Y-258959D01*
X120224Y-258708D01*
X120809Y-258228D01*
X121672Y-257177D01*
X122313Y-255977D01*
X122708Y-254675D01*
X122842Y-253322D01*
X122708Y-251968D01*
X122313Y-250666D01*
X121759Y-249628D01*
X139908Y-231479D01*
X162155D01*
X162316Y-231953D01*
X162111Y-232110D01*
X161462Y-232956D01*
X161054Y-233942D01*
X160914Y-234999D01*
X161054Y-236057D01*
X161462Y-237042D01*
X162111Y-237888D01*
X162958Y-238538D01*
X163943Y-238946D01*
X165000Y-239085D01*
X166058Y-238946D01*
X167044Y-238538D01*
X167890Y-237888D01*
X168539Y-237042D01*
X168948Y-236057D01*
X169087Y-234999D01*
X168948Y-233942D01*
X168539Y-232956D01*
X167890Y-232110D01*
X167685Y-231953D01*
X167846Y-231479D01*
X172155D01*
X172316Y-231953D01*
X172111Y-232110D01*
X171462Y-232956D01*
X171054Y-233942D01*
X170914Y-234999D01*
X171054Y-236057D01*
X171462Y-237042D01*
X172111Y-237888D01*
X172958Y-238538D01*
X173943Y-238946D01*
X175001Y-239085D01*
X176058Y-238946D01*
X177044Y-238538D01*
X177890Y-237888D01*
X178539Y-237042D01*
X178947Y-236057D01*
X179087Y-234999D01*
X178947Y-233942D01*
X178539Y-232956D01*
X177890Y-232110D01*
X177685Y-231953D01*
X177846Y-231479D01*
X224902D01*
X225487Y-231363D01*
X225983Y-231031D01*
X232095Y-224920D01*
X232857Y-225235D01*
X234043Y-225391D01*
X235229Y-225235D01*
X236334Y-224777D01*
X237283Y-224049D01*
X238011Y-223100D01*
X238469Y-221995D01*
X238625Y-220809D01*
X238469Y-219623D01*
X238011Y-218518D01*
X237283Y-217569D01*
X236334Y-216840D01*
X235229Y-216383D01*
X234043Y-216226D01*
X232857Y-216383D01*
X231751Y-216840D01*
X230802Y-217569D01*
X230074Y-218518D01*
X229616Y-219623D01*
X229460Y-220809D01*
X229616Y-221995D01*
X229932Y-222757D01*
X224268Y-228420D01*
X177974D01*
X177814Y-227947D01*
X177890Y-227888D01*
X178539Y-227042D01*
X178947Y-226057D01*
X179087Y-224999D01*
X178947Y-223941D01*
X178539Y-222956D01*
X177952Y-222191D01*
X178089Y-221691D01*
X224847D01*
X225433Y-221575D01*
X225929Y-221243D01*
X232095Y-215077D01*
X232857Y-215393D01*
X234043Y-215549D01*
X235229Y-215393D01*
X236334Y-214935D01*
X237283Y-214207D01*
X238011Y-213258D01*
X238469Y-212152D01*
X238625Y-210966D01*
X238469Y-209780D01*
X238011Y-208675D01*
X237283Y-207726D01*
X236334Y-206998D01*
X235229Y-206540D01*
X234043Y-206384D01*
D02*
G37*
G36*
X5001Y-210913D02*
X3943Y-211052D01*
X2957Y-211460D01*
X2111Y-212110D01*
X1462Y-212956D01*
X1054Y-213942D01*
X914Y-214999D01*
X1054Y-216057D01*
X1462Y-217042D01*
X2111Y-217888D01*
X2957Y-218538D01*
X3943Y-218946D01*
X5001Y-219085D01*
X6058Y-218946D01*
X7044Y-218538D01*
X7890Y-217888D01*
X8539Y-217042D01*
X8947Y-216057D01*
X9087Y-214999D01*
X8947Y-213942D01*
X8539Y-212956D01*
X7890Y-212110D01*
X7044Y-211460D01*
X6058Y-211052D01*
X5001Y-210913D01*
D02*
G37*
G36*
X-5000D02*
X-6057Y-211052D01*
X-7042Y-211460D01*
X-7889Y-212110D01*
X-8538Y-212956D01*
X-8946Y-213942D01*
X-9086Y-214999D01*
X-8946Y-216057D01*
X-8538Y-217042D01*
X-7889Y-217888D01*
X-7042Y-218538D01*
X-6057Y-218946D01*
X-5000Y-219085D01*
X-3942Y-218946D01*
X-2956Y-218538D01*
X-2110Y-217888D01*
X-1461Y-217042D01*
X-1053Y-216057D01*
X-913Y-214999D01*
X-1053Y-213942D01*
X-1461Y-212956D01*
X-2110Y-212110D01*
X-2956Y-211460D01*
X-3942Y-211052D01*
X-5000Y-210913D01*
D02*
G37*
G36*
X115638Y-208932D02*
X114285Y-209065D01*
X112983Y-209460D01*
X111784Y-210101D01*
X110732Y-210964D01*
X109869Y-212016D01*
X109228Y-213215D01*
X108833Y-214517D01*
X108700Y-215871D01*
X108833Y-217224D01*
X109228Y-218526D01*
X109869Y-219726D01*
X110732Y-220777D01*
X111784Y-221640D01*
X112983Y-222281D01*
X114285Y-222676D01*
X115638Y-222810D01*
X116992Y-222676D01*
X118294Y-222281D01*
X119494Y-221640D01*
X120545Y-220777D01*
X121408Y-219726D01*
X122049Y-218526D01*
X122444Y-217224D01*
X122578Y-215871D01*
X122444Y-214517D01*
X122049Y-213215D01*
X121408Y-212016D01*
X120545Y-210964D01*
X119494Y-210101D01*
X118294Y-209460D01*
X116992Y-209065D01*
X115638Y-208932D01*
D02*
G37*
G36*
X64064Y-212869D02*
X62710Y-213002D01*
X61408Y-213397D01*
X60209Y-214038D01*
X59157Y-214901D01*
X58294Y-215953D01*
X57653Y-217152D01*
X57258Y-218454D01*
X57125Y-219808D01*
X57258Y-221161D01*
X57653Y-222463D01*
X58294Y-223663D01*
X59157Y-224714D01*
X60209Y-225577D01*
X61408Y-226218D01*
X62710Y-226613D01*
X64064Y-226747D01*
X65417Y-226613D01*
X66719Y-226218D01*
X67919Y-225577D01*
X68970Y-224714D01*
X69833Y-223663D01*
X70474Y-222463D01*
X70869Y-221161D01*
X71003Y-219808D01*
X70869Y-218454D01*
X70474Y-217152D01*
X69833Y-215953D01*
X68970Y-214901D01*
X67919Y-214038D01*
X66719Y-213397D01*
X65417Y-213002D01*
X64064Y-212869D01*
D02*
G37*
G36*
X5001Y-220913D02*
X3943Y-221052D01*
X2957Y-221460D01*
X2111Y-222110D01*
X1462Y-222956D01*
X1054Y-223941D01*
X914Y-224999D01*
X1054Y-226057D01*
X1462Y-227042D01*
X2111Y-227888D01*
X2957Y-228538D01*
X3943Y-228946D01*
X5001Y-229085D01*
X6058Y-228946D01*
X7044Y-228538D01*
X7890Y-227888D01*
X8539Y-227042D01*
X8947Y-226057D01*
X9087Y-224999D01*
X8947Y-223941D01*
X8539Y-222956D01*
X7890Y-222110D01*
X7044Y-221460D01*
X6058Y-221052D01*
X5001Y-220913D01*
D02*
G37*
G36*
X-5000D02*
X-6057Y-221052D01*
X-7042Y-221460D01*
X-7889Y-222110D01*
X-8538Y-222956D01*
X-8946Y-223941D01*
X-9086Y-224999D01*
X-8946Y-226057D01*
X-8538Y-227042D01*
X-7889Y-227888D01*
X-7042Y-228538D01*
X-6057Y-228946D01*
X-5000Y-229085D01*
X-3942Y-228946D01*
X-2956Y-228538D01*
X-2110Y-227888D01*
X-1461Y-227042D01*
X-1053Y-226057D01*
X-913Y-224999D01*
X-1053Y-223941D01*
X-1461Y-222956D01*
X-2110Y-222110D01*
X-2956Y-221460D01*
X-3942Y-221052D01*
X-5000Y-220913D01*
D02*
G37*
G36*
X-97427Y-220417D02*
X-98561Y-220567D01*
X-99619Y-221005D01*
X-100527Y-221702D01*
X-101223Y-222609D01*
X-101661Y-223667D01*
X-101811Y-224801D01*
X-101661Y-225936D01*
X-101223Y-226993D01*
X-100527Y-227901D01*
X-99619Y-228598D01*
X-98561Y-229036D01*
X-97427Y-229185D01*
X-96292Y-229036D01*
X-95235Y-228598D01*
X-94327Y-227901D01*
X-93630Y-226993D01*
X-93192Y-225936D01*
X-93043Y-224801D01*
X-93192Y-223667D01*
X-93630Y-222609D01*
X-94327Y-221702D01*
X-95235Y-221005D01*
X-96292Y-220567D01*
X-97427Y-220417D01*
D02*
G37*
G36*
X-69159Y-220219D02*
X-70345Y-220375D01*
X-71450Y-220833D01*
X-72399Y-221561D01*
X-73128Y-222510D01*
X-73585Y-223615D01*
X-73742Y-224801D01*
X-73585Y-225988D01*
X-73128Y-227093D01*
X-72399Y-228042D01*
X-71450Y-228770D01*
X-70345Y-229228D01*
X-69159Y-229384D01*
X-67973Y-229228D01*
X-66868Y-228770D01*
X-65919Y-228042D01*
X-65190Y-227093D01*
X-64733Y-225988D01*
X-64577Y-224801D01*
X-64733Y-223615D01*
X-65190Y-222510D01*
X-65919Y-221561D01*
X-66868Y-220833D01*
X-67973Y-220375D01*
X-69159Y-220219D01*
D02*
G37*
G36*
X105796Y-222901D02*
X104559Y-223063D01*
X103405Y-223541D01*
X102415Y-224301D01*
X101655Y-225291D01*
X101178Y-226444D01*
X101015Y-227682D01*
X101178Y-228919D01*
X101655Y-230072D01*
X102415Y-231062D01*
X103405Y-231822D01*
X104559Y-232300D01*
X105796Y-232463D01*
X107033Y-232300D01*
X108186Y-231822D01*
X109177Y-231062D01*
X109936Y-230072D01*
X110414Y-228919D01*
X110577Y-227682D01*
X110414Y-226444D01*
X109936Y-225291D01*
X109177Y-224301D01*
X108186Y-223541D01*
X107033Y-223063D01*
X105796Y-222901D01*
D02*
G37*
G36*
X243885Y-226069D02*
X242699Y-226225D01*
X241594Y-226683D01*
X240645Y-227411D01*
X239917Y-228360D01*
X239459Y-229465D01*
X239303Y-230651D01*
X239459Y-231837D01*
X239917Y-232943D01*
X240645Y-233892D01*
X241594Y-234620D01*
X242699Y-235078D01*
X243885Y-235234D01*
X245071Y-235078D01*
X246176Y-234620D01*
X247126Y-233892D01*
X247854Y-232943D01*
X248311Y-231837D01*
X248468Y-230651D01*
X248311Y-229465D01*
X247854Y-228360D01*
X247126Y-227411D01*
X246176Y-226683D01*
X245071Y-226225D01*
X243885Y-226069D01*
D02*
G37*
G36*
X5001Y-230913D02*
X3943Y-231052D01*
X2957Y-231460D01*
X2111Y-232110D01*
X1462Y-232956D01*
X1054Y-233942D01*
X914Y-234999D01*
X1054Y-236057D01*
X1462Y-237042D01*
X2111Y-237888D01*
X2957Y-238538D01*
X3943Y-238946D01*
X5001Y-239085D01*
X6058Y-238946D01*
X7044Y-238538D01*
X7890Y-237888D01*
X8539Y-237042D01*
X8947Y-236057D01*
X9087Y-234999D01*
X8947Y-233942D01*
X8539Y-232956D01*
X7890Y-232110D01*
X7044Y-231460D01*
X6058Y-231052D01*
X5001Y-230913D01*
D02*
G37*
G36*
X-5000D02*
X-6057Y-231052D01*
X-7042Y-231460D01*
X-7889Y-232110D01*
X-8538Y-232956D01*
X-8946Y-233942D01*
X-9086Y-234999D01*
X-8946Y-236057D01*
X-8538Y-237042D01*
X-7889Y-237888D01*
X-7042Y-238538D01*
X-6057Y-238946D01*
X-5000Y-239085D01*
X-3942Y-238946D01*
X-2956Y-238538D01*
X-2110Y-237888D01*
X-1461Y-237042D01*
X-1053Y-236057D01*
X-913Y-234999D01*
X-1053Y-233942D01*
X-1461Y-232956D01*
X-2110Y-232110D01*
X-2956Y-231460D01*
X-3942Y-231052D01*
X-5000Y-230913D01*
D02*
G37*
G36*
X-69159Y-230062D02*
X-70345Y-230218D01*
X-71450Y-230675D01*
X-72399Y-231404D01*
X-73128Y-232353D01*
X-73585Y-233458D01*
X-73742Y-234644D01*
X-73585Y-235830D01*
X-73128Y-236935D01*
X-72399Y-237884D01*
X-71450Y-238613D01*
X-70345Y-239070D01*
X-69159Y-239227D01*
X-67973Y-239070D01*
X-66868Y-238613D01*
X-65919Y-237884D01*
X-65190Y-236935D01*
X-64733Y-235830D01*
X-64577Y-234644D01*
X-64733Y-233458D01*
X-65190Y-232353D01*
X-65919Y-231404D01*
X-66868Y-230675D01*
X-67973Y-230218D01*
X-69159Y-230062D01*
D02*
G37*
G36*
X143110Y-237533D02*
X142197Y-237653D01*
X141345Y-238006D01*
X140614Y-238567D01*
X140053Y-239298D01*
X139700Y-240149D01*
X139580Y-241063D01*
X139700Y-241977D01*
X140053Y-242828D01*
X140614Y-243559D01*
X141345Y-244120D01*
X142197Y-244473D01*
X143110Y-244593D01*
X144024Y-244473D01*
X144875Y-244120D01*
X145607Y-243559D01*
X146168Y-242828D01*
X146520Y-241977D01*
X146640Y-241063D01*
X146520Y-240149D01*
X146168Y-239298D01*
X145607Y-238567D01*
X144875Y-238006D01*
X144024Y-237653D01*
X143110Y-237533D01*
D02*
G37*
G36*
X243885Y-235911D02*
X242699Y-236068D01*
X241594Y-236525D01*
X240645Y-237254D01*
X239917Y-238203D01*
X239459Y-239308D01*
X239303Y-240494D01*
X239459Y-241680D01*
X239917Y-242785D01*
X240645Y-243734D01*
X241594Y-244462D01*
X242699Y-244920D01*
X243885Y-245076D01*
X245071Y-244920D01*
X246176Y-244462D01*
X247126Y-243734D01*
X247854Y-242785D01*
X248311Y-241680D01*
X248468Y-240494D01*
X248311Y-239308D01*
X247854Y-238203D01*
X247126Y-237254D01*
X246176Y-236525D01*
X245071Y-236068D01*
X243885Y-235911D01*
D02*
G37*
G36*
X175001Y-40913D02*
X173943Y-41052D01*
X172958Y-41460D01*
X172111Y-42110D01*
X171462Y-42956D01*
X171054Y-43942D01*
X170914Y-44999D01*
X171054Y-46057D01*
X171462Y-47042D01*
X172111Y-47888D01*
X172958Y-48538D01*
X173943Y-48946D01*
X175001Y-49085D01*
X176058Y-48946D01*
X176062Y-48944D01*
X253889Y-126771D01*
Y-241448D01*
X247878Y-247459D01*
X247379Y-247427D01*
X247126Y-247096D01*
X246176Y-246368D01*
X245071Y-245910D01*
X243885Y-245754D01*
X242699Y-245910D01*
X241594Y-246368D01*
X240645Y-247096D01*
X239917Y-248045D01*
X239459Y-249150D01*
X239303Y-250336D01*
X239459Y-251522D01*
X239917Y-252627D01*
X240645Y-253577D01*
X241594Y-254305D01*
X242699Y-254763D01*
X243885Y-254919D01*
X245071Y-254763D01*
X246176Y-254305D01*
X247126Y-253577D01*
X247854Y-252627D01*
X247965Y-252360D01*
X248665Y-252220D01*
X249327Y-251778D01*
X257370Y-243735D01*
X257812Y-243074D01*
X257967Y-242293D01*
Y-125927D01*
X257812Y-125146D01*
X257370Y-124485D01*
X178946Y-46060D01*
X178947Y-46057D01*
X179087Y-44999D01*
X178947Y-43942D01*
X178539Y-42956D01*
X177890Y-42110D01*
X177044Y-41460D01*
X176058Y-41052D01*
X175001Y-40913D01*
D02*
G37*
G36*
X-59316Y-239904D02*
X-60502Y-240060D01*
X-61608Y-240518D01*
X-62557Y-241246D01*
X-63285Y-242195D01*
X-63743Y-243300D01*
X-63899Y-244486D01*
X-63743Y-245672D01*
X-63285Y-246778D01*
X-62557Y-247727D01*
X-61608Y-248455D01*
X-60502Y-248913D01*
X-59316Y-249069D01*
X-58130Y-248913D01*
X-57025Y-248455D01*
X-56076Y-247727D01*
X-55348Y-246778D01*
X-54890Y-245672D01*
X-54734Y-244486D01*
X-54890Y-243300D01*
X-55348Y-242195D01*
X-56076Y-241246D01*
X-57025Y-240518D01*
X-58130Y-240060D01*
X-59316Y-239904D01*
D02*
G37*
G36*
X-69159D02*
X-70345Y-240060D01*
X-71450Y-240518D01*
X-72399Y-241246D01*
X-73128Y-242195D01*
X-73585Y-243300D01*
X-73742Y-244486D01*
X-73585Y-245672D01*
X-73128Y-246778D01*
X-72399Y-247727D01*
X-71450Y-248455D01*
X-70345Y-248913D01*
X-69159Y-249069D01*
X-67973Y-248913D01*
X-66868Y-248455D01*
X-65919Y-247727D01*
X-65190Y-246778D01*
X-64733Y-245672D01*
X-64577Y-244486D01*
X-64733Y-243300D01*
X-65190Y-242195D01*
X-65919Y-241246D01*
X-66868Y-240518D01*
X-67973Y-240060D01*
X-69159Y-239904D01*
D02*
G37*
G36*
X5001Y-240913D02*
X3943Y-241052D01*
X2957Y-241460D01*
X2111Y-242110D01*
X1462Y-242956D01*
X1054Y-243941D01*
X914Y-244999D01*
X1054Y-246057D01*
X1462Y-247042D01*
X2111Y-247888D01*
X2957Y-248538D01*
X3943Y-248946D01*
X5001Y-249085D01*
X6058Y-248946D01*
X7044Y-248538D01*
X7890Y-247888D01*
X8539Y-247042D01*
X8947Y-246057D01*
X9087Y-244999D01*
X8947Y-243941D01*
X8539Y-242956D01*
X7890Y-242110D01*
X7044Y-241460D01*
X6058Y-241052D01*
X5001Y-240913D01*
D02*
G37*
G36*
X-5000D02*
X-6057Y-241052D01*
X-7042Y-241460D01*
X-7889Y-242110D01*
X-8538Y-242956D01*
X-8946Y-243941D01*
X-9086Y-244999D01*
X-8946Y-246057D01*
X-8538Y-247042D01*
X-7889Y-247888D01*
X-7042Y-248538D01*
X-6057Y-248946D01*
X-5000Y-249085D01*
X-3942Y-248946D01*
X-2956Y-248538D01*
X-2110Y-247888D01*
X-1461Y-247042D01*
X-1053Y-246057D01*
X-913Y-244999D01*
X-1053Y-243941D01*
X-1461Y-242956D01*
X-2110Y-242110D01*
X-2956Y-241460D01*
X-3942Y-241052D01*
X-5000Y-240913D01*
D02*
G37*
G36*
X74171Y-240667D02*
X72933Y-240829D01*
X71780Y-241307D01*
X70790Y-242067D01*
X70030Y-243057D01*
X69552Y-244210D01*
X69389Y-245448D01*
X69552Y-246685D01*
X70030Y-247838D01*
X70790Y-248828D01*
X71780Y-249588D01*
X72933Y-250066D01*
X74171Y-250229D01*
X75408Y-250066D01*
X76561Y-249588D01*
X77551Y-248828D01*
X78311Y-247838D01*
X78789Y-246685D01*
X78952Y-245448D01*
X78789Y-244210D01*
X78311Y-243057D01*
X77551Y-242067D01*
X76561Y-241307D01*
X75408Y-240829D01*
X74171Y-240667D01*
D02*
G37*
G36*
X272153Y-245952D02*
X271018Y-246102D01*
X269961Y-246540D01*
X269053Y-247236D01*
X268356Y-248144D01*
X267918Y-249202D01*
X267769Y-250336D01*
X267918Y-251471D01*
X268356Y-252528D01*
X269053Y-253436D01*
X269961Y-254133D01*
X271018Y-254571D01*
X272153Y-254720D01*
X273288Y-254571D01*
X274345Y-254133D01*
X275253Y-253436D01*
X275950Y-252528D01*
X276388Y-251471D01*
X276537Y-250336D01*
X276388Y-249202D01*
X275950Y-248144D01*
X275253Y-247236D01*
X274345Y-246540D01*
X273288Y-246102D01*
X272153Y-245952D01*
D02*
G37*
G36*
X234043Y-245754D02*
X232857Y-245910D01*
X231751Y-246368D01*
X230802Y-247096D01*
X230074Y-248045D01*
X229616Y-249150D01*
X229460Y-250336D01*
X229616Y-251522D01*
X229852Y-252092D01*
X126783Y-355161D01*
X-54068D01*
X-54374Y-354764D01*
X-54374Y-354661D01*
X-54214Y-353446D01*
X-54377Y-352209D01*
X-54855Y-351056D01*
X-55615Y-350065D01*
X-56605Y-349306D01*
X-57758Y-348828D01*
X-58995Y-348665D01*
X-60233Y-348828D01*
X-61386Y-349306D01*
X-62376Y-350065D01*
X-63136Y-351056D01*
X-63613Y-352209D01*
X-63776Y-353446D01*
X-63613Y-354683D01*
X-63136Y-355837D01*
X-62376Y-356827D01*
X-61386Y-357587D01*
X-60233Y-358064D01*
X-58995Y-358227D01*
X-57758Y-358064D01*
X-57089Y-357787D01*
X-56776Y-358101D01*
X-56217Y-358474D01*
X-55558Y-358605D01*
X127496D01*
X128155Y-358474D01*
X128714Y-358101D01*
X232288Y-254527D01*
X232857Y-254763D01*
X234043Y-254919D01*
X235229Y-254763D01*
X236334Y-254305D01*
X237283Y-253577D01*
X238011Y-252627D01*
X238469Y-251522D01*
X238625Y-250336D01*
X238469Y-249150D01*
X238011Y-248045D01*
X237283Y-247096D01*
X236334Y-246368D01*
X235229Y-245910D01*
X234043Y-245754D01*
D02*
G37*
G36*
X-59316Y-249746D02*
X-60502Y-249903D01*
X-61608Y-250360D01*
X-62557Y-251089D01*
X-63285Y-252038D01*
X-63743Y-253143D01*
X-63899Y-254329D01*
X-63743Y-255515D01*
X-63285Y-256620D01*
X-62557Y-257569D01*
X-61608Y-258298D01*
X-60502Y-258755D01*
X-59316Y-258911D01*
X-58130Y-258755D01*
X-57025Y-258298D01*
X-56076Y-257569D01*
X-55348Y-256620D01*
X-55237Y-256352D01*
X-35972D01*
X-35609Y-256825D01*
X-34877Y-257386D01*
X-34026Y-257739D01*
X-33112Y-257859D01*
X-32199Y-257739D01*
X-31347Y-257386D01*
X-30616Y-256825D01*
X-30055Y-256094D01*
X-29702Y-255243D01*
X-29582Y-254329D01*
X-29702Y-253415D01*
X-30055Y-252564D01*
X-30616Y-251833D01*
X-31347Y-251272D01*
X-32199Y-250919D01*
X-33112Y-250799D01*
X-34026Y-250919D01*
X-34877Y-251272D01*
X-35609Y-251833D01*
X-35972Y-252306D01*
X-55237D01*
X-55348Y-252038D01*
X-56076Y-251089D01*
X-57025Y-250360D01*
X-58130Y-249903D01*
X-59316Y-249746D01*
D02*
G37*
G36*
X5001Y-250913D02*
X3943Y-251052D01*
X2957Y-251460D01*
X2111Y-252110D01*
X1462Y-252956D01*
X1054Y-253941D01*
X914Y-254999D01*
X1054Y-256057D01*
X1462Y-257042D01*
X2111Y-257888D01*
X2957Y-258538D01*
X3943Y-258946D01*
X5001Y-259085D01*
X6058Y-258946D01*
X7044Y-258538D01*
X7890Y-257888D01*
X8539Y-257042D01*
X8947Y-256057D01*
X9087Y-254999D01*
X8947Y-253941D01*
X8539Y-252956D01*
X7890Y-252110D01*
X7044Y-251460D01*
X6058Y-251052D01*
X5001Y-250913D01*
D02*
G37*
G36*
X-33112Y-240956D02*
X-34026Y-241077D01*
X-34877Y-241429D01*
X-35609Y-241990D01*
X-36170Y-242721D01*
X-36522Y-243573D01*
X-36643Y-244486D01*
X-36522Y-245400D01*
X-36170Y-246252D01*
X-35609Y-246983D01*
X-34877Y-247544D01*
X-34026Y-247896D01*
X-33112Y-248017D01*
X-32641Y-247955D01*
X-24166Y-256430D01*
X-23510Y-256868D01*
X-22736Y-257022D01*
X-8546D01*
X-8538Y-257042D01*
X-7889Y-257888D01*
X-7042Y-258538D01*
X-6057Y-258946D01*
X-5000Y-259085D01*
X-3942Y-258946D01*
X-2956Y-258538D01*
X-2110Y-257888D01*
X-1461Y-257042D01*
X-1053Y-256057D01*
X-913Y-254999D01*
X-1053Y-253941D01*
X-1461Y-252956D01*
X-2110Y-252110D01*
X-2956Y-251460D01*
X-3942Y-251052D01*
X-5000Y-250913D01*
X-6057Y-251052D01*
X-7042Y-251460D01*
X-7889Y-252110D01*
X-8538Y-252956D01*
X-8546Y-252976D01*
X-21898D01*
X-29676Y-245198D01*
X-29582Y-244486D01*
X-29702Y-243573D01*
X-30055Y-242721D01*
X-30616Y-241990D01*
X-31347Y-241429D01*
X-32199Y-241077D01*
X-33112Y-240956D01*
D02*
G37*
G36*
X-97427Y-259788D02*
X-98561Y-259937D01*
X-99619Y-260375D01*
X-100527Y-261072D01*
X-101223Y-261980D01*
X-101661Y-263037D01*
X-101811Y-264172D01*
X-101661Y-265306D01*
X-101223Y-266364D01*
X-100527Y-267271D01*
X-99619Y-267968D01*
X-98561Y-268406D01*
X-97427Y-268555D01*
X-96292Y-268406D01*
X-95235Y-267968D01*
X-94327Y-267271D01*
X-93630Y-266364D01*
X-93192Y-265306D01*
X-93043Y-264172D01*
X-93192Y-263037D01*
X-93630Y-261980D01*
X-94327Y-261072D01*
X-95235Y-260375D01*
X-96292Y-259937D01*
X-97427Y-259788D01*
D02*
G37*
G36*
X-54773Y-259628D02*
X-63860D01*
Y-268715D01*
X-54773D01*
Y-259628D01*
D02*
G37*
G36*
X-69159Y-259589D02*
X-70345Y-259745D01*
X-71450Y-260203D01*
X-72399Y-260931D01*
X-73128Y-261880D01*
X-73585Y-262985D01*
X-73742Y-264172D01*
X-73585Y-265357D01*
X-73128Y-266463D01*
X-72399Y-267412D01*
X-71450Y-268140D01*
X-70345Y-268598D01*
X-69159Y-268754D01*
X-67973Y-268598D01*
X-66868Y-268140D01*
X-65919Y-267412D01*
X-65190Y-266463D01*
X-64733Y-265357D01*
X-64577Y-264172D01*
X-64733Y-262985D01*
X-65190Y-261880D01*
X-65919Y-260931D01*
X-66868Y-260203D01*
X-67973Y-259745D01*
X-69159Y-259589D01*
D02*
G37*
G36*
X5001Y-260913D02*
X3943Y-261052D01*
X2957Y-261460D01*
X2111Y-262110D01*
X1462Y-262956D01*
X1054Y-263942D01*
X914Y-264999D01*
X1054Y-266057D01*
X1462Y-267042D01*
X2111Y-267888D01*
X2957Y-268538D01*
X3943Y-268946D01*
X5001Y-269085D01*
X6058Y-268946D01*
X7044Y-268538D01*
X7890Y-267888D01*
X8539Y-267042D01*
X8947Y-266057D01*
X9087Y-264999D01*
X8947Y-263942D01*
X8539Y-262956D01*
X7890Y-262110D01*
X7044Y-261460D01*
X6058Y-261052D01*
X5001Y-260913D01*
D02*
G37*
G36*
X-5000D02*
X-6057Y-261052D01*
X-7042Y-261460D01*
X-7889Y-262110D01*
X-8538Y-262956D01*
X-8946Y-263942D01*
X-9086Y-264999D01*
X-8946Y-266057D01*
X-8538Y-267042D01*
X-7889Y-267888D01*
X-7042Y-268538D01*
X-6057Y-268946D01*
X-5000Y-269085D01*
X-3942Y-268946D01*
X-2956Y-268538D01*
X-2110Y-267888D01*
X-1461Y-267042D01*
X-1053Y-266057D01*
X-913Y-264999D01*
X-1053Y-263942D01*
X-1461Y-262956D01*
X-2110Y-262110D01*
X-2956Y-261460D01*
X-3942Y-261052D01*
X-5000Y-260913D01*
D02*
G37*
G36*
X175001Y-270913D02*
X173943Y-271052D01*
X172958Y-271460D01*
X172111Y-272110D01*
X171462Y-272956D01*
X171054Y-273941D01*
X170914Y-274999D01*
X171054Y-276057D01*
X171462Y-277042D01*
X172111Y-277888D01*
X172958Y-278538D01*
X173943Y-278946D01*
X175001Y-279085D01*
X176058Y-278946D01*
X177044Y-278538D01*
X177890Y-277888D01*
X178539Y-277042D01*
X178947Y-276057D01*
X179087Y-274999D01*
X178947Y-273941D01*
X178539Y-272956D01*
X177890Y-272110D01*
X177044Y-271460D01*
X176058Y-271052D01*
X175001Y-270913D01*
D02*
G37*
G36*
X165000D02*
X163943Y-271052D01*
X162958Y-271460D01*
X162111Y-272110D01*
X161462Y-272956D01*
X161054Y-273941D01*
X160914Y-274999D01*
X161054Y-276057D01*
X161462Y-277042D01*
X162111Y-277888D01*
X162958Y-278538D01*
X163943Y-278946D01*
X165000Y-279085D01*
X166058Y-278946D01*
X167044Y-278538D01*
X167890Y-277888D01*
X168539Y-277042D01*
X168948Y-276057D01*
X169087Y-274999D01*
X168948Y-273941D01*
X168539Y-272956D01*
X167890Y-272110D01*
X167044Y-271460D01*
X166058Y-271052D01*
X165000Y-270913D01*
D02*
G37*
G36*
X5001D02*
X3943Y-271052D01*
X2957Y-271460D01*
X2111Y-272110D01*
X1462Y-272956D01*
X1054Y-273941D01*
X914Y-274999D01*
X1054Y-276057D01*
X1462Y-277042D01*
X2111Y-277888D01*
X2957Y-278538D01*
X3943Y-278946D01*
X5001Y-279085D01*
X6058Y-278946D01*
X7044Y-278538D01*
X7890Y-277888D01*
X8539Y-277042D01*
X8947Y-276057D01*
X9087Y-274999D01*
X8947Y-273941D01*
X8539Y-272956D01*
X7890Y-272110D01*
X7044Y-271460D01*
X6058Y-271052D01*
X5001Y-270913D01*
D02*
G37*
G36*
X-5000D02*
X-6057Y-271052D01*
X-7042Y-271460D01*
X-7889Y-272110D01*
X-8538Y-272956D01*
X-8946Y-273941D01*
X-9086Y-274999D01*
X-8946Y-276057D01*
X-8538Y-277042D01*
X-7889Y-277888D01*
X-7042Y-278538D01*
X-6057Y-278946D01*
X-5000Y-279085D01*
X-3942Y-278946D01*
X-2956Y-278538D01*
X-2110Y-277888D01*
X-1461Y-277042D01*
X-1053Y-276057D01*
X-913Y-274999D01*
X-1053Y-273941D01*
X-1461Y-272956D01*
X-2110Y-272110D01*
X-2956Y-271460D01*
X-3942Y-271052D01*
X-5000Y-270913D01*
D02*
G37*
G36*
X64328Y-266068D02*
X62974Y-266201D01*
X61673Y-266596D01*
X60473Y-267237D01*
X59421Y-268100D01*
X58558Y-269152D01*
X57917Y-270351D01*
X57522Y-271653D01*
X57389Y-273007D01*
X57522Y-274360D01*
X57917Y-275662D01*
X58558Y-276862D01*
X59421Y-277913D01*
X60473Y-278776D01*
X61673Y-279417D01*
X62974Y-279812D01*
X64328Y-279946D01*
X65682Y-279812D01*
X66983Y-279417D01*
X68183Y-278776D01*
X69235Y-277913D01*
X70097Y-276862D01*
X70739Y-275662D01*
X71134Y-274360D01*
X71267Y-273007D01*
X71134Y-271653D01*
X70739Y-270351D01*
X70097Y-269152D01*
X69235Y-268100D01*
X68183Y-267237D01*
X66983Y-266596D01*
X65682Y-266201D01*
X64328Y-266068D01*
D02*
G37*
G36*
X175001Y-280913D02*
X173943Y-281052D01*
X172958Y-281460D01*
X172111Y-282110D01*
X171462Y-282956D01*
X171054Y-283942D01*
X170914Y-284999D01*
X171054Y-286057D01*
X171462Y-287042D01*
X172111Y-287888D01*
X172958Y-288538D01*
X173943Y-288946D01*
X175001Y-289085D01*
X176058Y-288946D01*
X177044Y-288538D01*
X177890Y-287888D01*
X178539Y-287042D01*
X178947Y-286057D01*
X179087Y-284999D01*
X178947Y-283942D01*
X178539Y-282956D01*
X177890Y-282110D01*
X177044Y-281460D01*
X176058Y-281052D01*
X175001Y-280913D01*
D02*
G37*
G36*
X165000D02*
X163943Y-281052D01*
X162958Y-281460D01*
X162111Y-282110D01*
X161462Y-282956D01*
X161054Y-283942D01*
X160914Y-284999D01*
X161054Y-286057D01*
X161462Y-287042D01*
X162111Y-287888D01*
X162958Y-288538D01*
X163943Y-288946D01*
X165000Y-289085D01*
X166058Y-288946D01*
X167044Y-288538D01*
X167890Y-287888D01*
X168539Y-287042D01*
X168948Y-286057D01*
X169087Y-284999D01*
X168948Y-283942D01*
X168539Y-282956D01*
X167890Y-282110D01*
X167044Y-281460D01*
X166058Y-281052D01*
X165000Y-280913D01*
D02*
G37*
G36*
X5001D02*
X3943Y-281052D01*
X2957Y-281460D01*
X2111Y-282110D01*
X1462Y-282956D01*
X1054Y-283942D01*
X914Y-284999D01*
X1054Y-286057D01*
X1462Y-287042D01*
X2111Y-287888D01*
X2957Y-288538D01*
X3943Y-288946D01*
X5001Y-289085D01*
X6058Y-288946D01*
X7044Y-288538D01*
X7890Y-287888D01*
X8539Y-287042D01*
X8947Y-286057D01*
X9087Y-284999D01*
X8947Y-283942D01*
X8539Y-282956D01*
X7890Y-282110D01*
X7044Y-281460D01*
X6058Y-281052D01*
X5001Y-280913D01*
D02*
G37*
G36*
X-5000D02*
X-6057Y-281052D01*
X-7042Y-281460D01*
X-7889Y-282110D01*
X-8538Y-282956D01*
X-8946Y-283942D01*
X-9086Y-284999D01*
X-8946Y-286057D01*
X-8538Y-287042D01*
X-7889Y-287888D01*
X-7042Y-288538D01*
X-6057Y-288946D01*
X-5000Y-289085D01*
X-3942Y-288946D01*
X-2956Y-288538D01*
X-2110Y-287888D01*
X-1461Y-287042D01*
X-1053Y-286057D01*
X-913Y-284999D01*
X-1053Y-283942D01*
X-1461Y-282956D01*
X-2110Y-282110D01*
X-2956Y-281460D01*
X-3942Y-281052D01*
X-5000Y-280913D01*
D02*
G37*
G36*
X272482Y-280506D02*
X271347Y-280655D01*
X270290Y-281093D01*
X269382Y-281790D01*
X268685Y-282698D01*
X268247Y-283755D01*
X268098Y-284890D01*
X268247Y-286024D01*
X268685Y-287082D01*
X269382Y-287990D01*
X270290Y-288686D01*
X271347Y-289124D01*
X272482Y-289274D01*
X273616Y-289124D01*
X274674Y-288686D01*
X275582Y-287990D01*
X276278Y-287082D01*
X276716Y-286024D01*
X276866Y-284890D01*
X276716Y-283755D01*
X276278Y-282698D01*
X275582Y-281790D01*
X274674Y-281093D01*
X273616Y-280655D01*
X272482Y-280506D01*
D02*
G37*
G36*
X238915Y-280346D02*
X229828D01*
Y-289433D01*
X238915D01*
Y-280346D01*
D02*
G37*
G36*
X244214Y-280307D02*
X243028Y-280463D01*
X241923Y-280921D01*
X240974Y-281649D01*
X240245Y-282598D01*
X239788Y-283704D01*
X239631Y-284890D01*
X239788Y-286076D01*
X240245Y-287181D01*
X240974Y-288130D01*
X241923Y-288858D01*
X243028Y-289316D01*
X244214Y-289472D01*
X245400Y-289316D01*
X246505Y-288858D01*
X247454Y-288130D01*
X248183Y-287181D01*
X248640Y-286076D01*
X248796Y-284890D01*
X248640Y-283704D01*
X248183Y-282598D01*
X247454Y-281649D01*
X246505Y-280921D01*
X245400Y-280463D01*
X244214Y-280307D01*
D02*
G37*
G36*
X175001Y-290913D02*
X173943Y-291052D01*
X172958Y-291460D01*
X172111Y-292110D01*
X171462Y-292956D01*
X171054Y-293941D01*
X170914Y-294999D01*
X171054Y-296057D01*
X171462Y-297042D01*
X172111Y-297888D01*
X172958Y-298538D01*
X173943Y-298946D01*
X175001Y-299085D01*
X176058Y-298946D01*
X177044Y-298538D01*
X177890Y-297888D01*
X178539Y-297042D01*
X178947Y-296057D01*
X179087Y-294999D01*
X178947Y-293941D01*
X178539Y-292956D01*
X177890Y-292110D01*
X177044Y-291460D01*
X176058Y-291052D01*
X175001Y-290913D01*
D02*
G37*
G36*
X165000D02*
X163943Y-291052D01*
X162958Y-291460D01*
X162111Y-292110D01*
X161462Y-292956D01*
X161054Y-293941D01*
X160914Y-294999D01*
X161054Y-296057D01*
X161462Y-297042D01*
X162111Y-297888D01*
X162958Y-298538D01*
X163943Y-298946D01*
X165000Y-299085D01*
X166058Y-298946D01*
X167044Y-298538D01*
X167890Y-297888D01*
X168539Y-297042D01*
X168948Y-296057D01*
X169087Y-294999D01*
X168948Y-293941D01*
X168539Y-292956D01*
X167890Y-292110D01*
X167044Y-291460D01*
X166058Y-291052D01*
X165000Y-290913D01*
D02*
G37*
G36*
X5001D02*
X3943Y-291052D01*
X2957Y-291460D01*
X2111Y-292110D01*
X1462Y-292956D01*
X1054Y-293941D01*
X914Y-294999D01*
X1054Y-296057D01*
X1462Y-297042D01*
X2111Y-297888D01*
X2957Y-298538D01*
X3943Y-298946D01*
X5001Y-299085D01*
X6058Y-298946D01*
X7044Y-298538D01*
X7890Y-297888D01*
X8539Y-297042D01*
X8947Y-296057D01*
X9087Y-294999D01*
X8947Y-293941D01*
X8539Y-292956D01*
X7890Y-292110D01*
X7044Y-291460D01*
X6058Y-291052D01*
X5001Y-290913D01*
D02*
G37*
G36*
X-5000D02*
X-6057Y-291052D01*
X-7042Y-291460D01*
X-7889Y-292110D01*
X-8538Y-292956D01*
X-8946Y-293941D01*
X-9086Y-294999D01*
X-8946Y-296057D01*
X-8538Y-297042D01*
X-7889Y-297888D01*
X-7042Y-298538D01*
X-6057Y-298946D01*
X-5000Y-299085D01*
X-3942Y-298946D01*
X-2956Y-298538D01*
X-2110Y-297888D01*
X-1461Y-297042D01*
X-1053Y-296057D01*
X-913Y-294999D01*
X-1053Y-293941D01*
X-1461Y-292956D01*
X-2110Y-292110D01*
X-2956Y-291460D01*
X-3942Y-291052D01*
X-5000Y-290913D01*
D02*
G37*
G36*
X244214Y-290150D02*
X243028Y-290306D01*
X241923Y-290763D01*
X240974Y-291492D01*
X240245Y-292441D01*
X239788Y-293546D01*
X239631Y-294732D01*
X239788Y-295918D01*
X240245Y-297023D01*
X240974Y-297972D01*
X241923Y-298701D01*
X243028Y-299158D01*
X244214Y-299315D01*
X245400Y-299158D01*
X246505Y-298701D01*
X247454Y-297972D01*
X248183Y-297023D01*
X248640Y-295918D01*
X248796Y-294732D01*
X248640Y-293546D01*
X248183Y-292441D01*
X247454Y-291492D01*
X246505Y-290763D01*
X245400Y-290306D01*
X244214Y-290150D01*
D02*
G37*
G36*
X234371D02*
X233186Y-290306D01*
X232080Y-290763D01*
X231131Y-291492D01*
X230403Y-292441D01*
X229945Y-293546D01*
X229789Y-294732D01*
X229945Y-295918D01*
X230403Y-297023D01*
X231131Y-297972D01*
X232080Y-298701D01*
X233186Y-299158D01*
X234371Y-299315D01*
X235558Y-299158D01*
X236663Y-298701D01*
X237612Y-297972D01*
X238340Y-297023D01*
X238798Y-295918D01*
X238954Y-294732D01*
X238798Y-293546D01*
X238340Y-292441D01*
X237612Y-291492D01*
X236663Y-290763D01*
X235558Y-290306D01*
X234371Y-290150D01*
D02*
G37*
G36*
X244214Y-299992D02*
X243028Y-300148D01*
X241923Y-300606D01*
X240974Y-301334D01*
X240245Y-302283D01*
X239788Y-303389D01*
X239631Y-304575D01*
X239788Y-305761D01*
X240245Y-306866D01*
X240974Y-307815D01*
X241923Y-308543D01*
X243028Y-309001D01*
X244214Y-309157D01*
X245400Y-309001D01*
X246505Y-308543D01*
X247454Y-307815D01*
X248183Y-306866D01*
X248640Y-305761D01*
X248796Y-304575D01*
X248640Y-303389D01*
X248183Y-302283D01*
X247454Y-301334D01*
X246505Y-300606D01*
X245400Y-300148D01*
X244214Y-299992D01*
D02*
G37*
G36*
X234371D02*
X233186Y-300148D01*
X232080Y-300606D01*
X231131Y-301334D01*
X230403Y-302283D01*
X229945Y-303389D01*
X229789Y-304575D01*
X229945Y-305761D01*
X230403Y-306866D01*
X231131Y-307815D01*
X232080Y-308543D01*
X233186Y-309001D01*
X234371Y-309157D01*
X235558Y-309001D01*
X236663Y-308543D01*
X237612Y-307815D01*
X238340Y-306866D01*
X238798Y-305761D01*
X238954Y-304575D01*
X238798Y-303389D01*
X238340Y-302283D01*
X237612Y-301334D01*
X236663Y-300606D01*
X235558Y-300148D01*
X234371Y-299992D01*
D02*
G37*
G36*
X-58995Y-309295D02*
X-60233Y-309458D01*
X-61386Y-309936D01*
X-62376Y-310695D01*
X-63136Y-311686D01*
X-63613Y-312839D01*
X-63776Y-314076D01*
X-63613Y-315314D01*
X-63136Y-316467D01*
X-62376Y-317457D01*
X-61386Y-318217D01*
X-60233Y-318694D01*
X-58995Y-318857D01*
X-57758Y-318694D01*
X-56605Y-318217D01*
X-55615Y-317457D01*
X-54855Y-316467D01*
X-54377Y-315314D01*
X-54214Y-314076D01*
X-54377Y-312839D01*
X-54855Y-311686D01*
X-55615Y-310695D01*
X-56605Y-309936D01*
X-57758Y-309458D01*
X-58995Y-309295D01*
D02*
G37*
G36*
X244214Y-309835D02*
X243028Y-309991D01*
X241923Y-310449D01*
X240974Y-311177D01*
X240245Y-312126D01*
X239788Y-313231D01*
X239631Y-314417D01*
X239788Y-315603D01*
X240245Y-316708D01*
X240974Y-317657D01*
X241923Y-318386D01*
X243028Y-318843D01*
X244214Y-319000D01*
X245400Y-318843D01*
X246505Y-318386D01*
X247454Y-317657D01*
X248183Y-316708D01*
X248640Y-315603D01*
X248796Y-314417D01*
X248640Y-313231D01*
X248183Y-312126D01*
X247454Y-311177D01*
X246505Y-310449D01*
X245400Y-309991D01*
X244214Y-309835D01*
D02*
G37*
G36*
X234371D02*
X233186Y-309991D01*
X232080Y-310449D01*
X231131Y-311177D01*
X230403Y-312126D01*
X229945Y-313231D01*
X229789Y-314417D01*
X229945Y-315603D01*
X230403Y-316708D01*
X231131Y-317657D01*
X232080Y-318386D01*
X233186Y-318843D01*
X234371Y-319000D01*
X235558Y-318843D01*
X236663Y-318386D01*
X237612Y-317657D01*
X238340Y-316708D01*
X238798Y-315603D01*
X238954Y-314417D01*
X238798Y-313231D01*
X238340Y-312126D01*
X237612Y-311177D01*
X236663Y-310449D01*
X235558Y-309991D01*
X234371Y-309835D01*
D02*
G37*
G36*
X69737Y-317929D02*
X68823Y-318049D01*
X67972Y-318402D01*
X67241Y-318963D01*
X66680Y-319694D01*
X66327Y-320546D01*
X66207Y-321459D01*
X66327Y-322373D01*
X66680Y-323224D01*
X67241Y-323956D01*
X67972Y-324517D01*
X68823Y-324869D01*
X69737Y-324990D01*
X70651Y-324869D01*
X71502Y-324517D01*
X72233Y-323956D01*
X72794Y-323224D01*
X73147Y-322373D01*
X73267Y-321459D01*
X73147Y-320546D01*
X72794Y-319694D01*
X72233Y-318963D01*
X71502Y-318402D01*
X70651Y-318049D01*
X69737Y-317929D01*
D02*
G37*
G36*
X272482Y-319876D02*
X271347Y-320025D01*
X270290Y-320463D01*
X269382Y-321160D01*
X268685Y-322068D01*
X268247Y-323125D01*
X268098Y-324260D01*
X268247Y-325394D01*
X268685Y-326452D01*
X269382Y-327360D01*
X270290Y-328056D01*
X271347Y-328494D01*
X272482Y-328644D01*
X273616Y-328494D01*
X274674Y-328056D01*
X275582Y-327360D01*
X276278Y-326452D01*
X276716Y-325394D01*
X276866Y-324260D01*
X276716Y-323125D01*
X276278Y-322068D01*
X275582Y-321160D01*
X274674Y-320463D01*
X273616Y-320025D01*
X272482Y-319876D01*
D02*
G37*
G36*
X244214Y-319677D02*
X243028Y-319833D01*
X241923Y-320291D01*
X240974Y-321019D01*
X240245Y-321968D01*
X239788Y-323074D01*
X239631Y-324260D01*
X239788Y-325446D01*
X240245Y-326551D01*
X240974Y-327500D01*
X241923Y-328228D01*
X243028Y-328686D01*
X244214Y-328842D01*
X245400Y-328686D01*
X246505Y-328228D01*
X247454Y-327500D01*
X248183Y-326551D01*
X248640Y-325446D01*
X248796Y-324260D01*
X248640Y-323074D01*
X248183Y-321968D01*
X247454Y-321019D01*
X246505Y-320291D01*
X245400Y-319833D01*
X244214Y-319677D01*
D02*
G37*
G36*
X234371D02*
X233186Y-319833D01*
X232080Y-320291D01*
X231131Y-321019D01*
X230403Y-321968D01*
X229945Y-323074D01*
X229789Y-324260D01*
X229945Y-325446D01*
X230403Y-326551D01*
X231131Y-327500D01*
X232080Y-328228D01*
X233186Y-328686D01*
X234371Y-328842D01*
X235558Y-328686D01*
X236663Y-328228D01*
X237612Y-327500D01*
X238340Y-326551D01*
X238798Y-325446D01*
X238954Y-324260D01*
X238798Y-323074D01*
X238340Y-321968D01*
X237612Y-321019D01*
X236663Y-320291D01*
X235558Y-319833D01*
X234371Y-319677D01*
D02*
G37*
G36*
X-100728Y-315011D02*
X-102082Y-315144D01*
X-103383Y-315539D01*
X-104583Y-316181D01*
X-105634Y-317043D01*
X-106497Y-318095D01*
X-107139Y-319295D01*
X-107533Y-320596D01*
X-107667Y-321950D01*
X-107533Y-323304D01*
X-107139Y-324605D01*
X-106497Y-325805D01*
X-105634Y-326857D01*
X-104583Y-327720D01*
X-103383Y-328361D01*
X-102082Y-328756D01*
X-100728Y-328889D01*
X-99374Y-328756D01*
X-98072Y-328361D01*
X-96873Y-327720D01*
X-95821Y-326857D01*
X-94958Y-325805D01*
X-94317Y-324605D01*
X-93922Y-323304D01*
X-93789Y-321950D01*
X-93922Y-320596D01*
X-94317Y-319295D01*
X-94958Y-318095D01*
X-95821Y-317043D01*
X-96873Y-316181D01*
X-98072Y-315539D01*
X-99374Y-315144D01*
X-100728Y-315011D01*
D02*
G37*
G36*
X-49153Y-318948D02*
X-50507Y-319081D01*
X-51808Y-319476D01*
X-53008Y-320118D01*
X-54059Y-320981D01*
X-54922Y-322032D01*
X-55564Y-323232D01*
X-55958Y-324533D01*
X-56092Y-325887D01*
X-55958Y-327241D01*
X-55564Y-328542D01*
X-54922Y-329742D01*
X-54059Y-330794D01*
X-53008Y-331657D01*
X-51808Y-332298D01*
X-50507Y-332693D01*
X-49153Y-332826D01*
X-47799Y-332693D01*
X-46497Y-332298D01*
X-45298Y-331657D01*
X-44246Y-330794D01*
X-43383Y-329742D01*
X-42742Y-328542D01*
X-42347Y-327241D01*
X-42214Y-325887D01*
X-42347Y-324533D01*
X-42742Y-323232D01*
X-43383Y-322032D01*
X-44246Y-320981D01*
X-45298Y-320118D01*
X-46497Y-319476D01*
X-47799Y-319081D01*
X-49153Y-318948D01*
D02*
G37*
G36*
Y-334696D02*
X-50507Y-334829D01*
X-51808Y-335224D01*
X-53008Y-335866D01*
X-54059Y-336729D01*
X-54922Y-337780D01*
X-55564Y-338980D01*
X-55958Y-340281D01*
X-56092Y-341635D01*
X-55958Y-342989D01*
X-55564Y-344290D01*
X-54922Y-345490D01*
X-54059Y-346542D01*
X-53008Y-347405D01*
X-51808Y-348046D01*
X-50507Y-348441D01*
X-49153Y-348574D01*
X-47799Y-348441D01*
X-46497Y-348046D01*
X-45298Y-347405D01*
X-44246Y-346542D01*
X-43383Y-345490D01*
X-42742Y-344290D01*
X-42347Y-342989D01*
X-42214Y-341635D01*
X-42347Y-340281D01*
X-42742Y-338980D01*
X-43383Y-337780D01*
X-44246Y-336729D01*
X-45298Y-335866D01*
X-46497Y-335224D01*
X-47799Y-334829D01*
X-49153Y-334696D01*
D02*
G37*
G36*
X-100728Y-338633D02*
X-102082Y-338767D01*
X-103383Y-339161D01*
X-104583Y-339803D01*
X-105634Y-340666D01*
X-106497Y-341717D01*
X-107139Y-342917D01*
X-107533Y-344218D01*
X-107667Y-345572D01*
X-107533Y-346926D01*
X-107139Y-348228D01*
X-106497Y-349427D01*
X-105634Y-350479D01*
X-104583Y-351342D01*
X-103383Y-351983D01*
X-102082Y-352378D01*
X-100728Y-352511D01*
X-99374Y-352378D01*
X-98072Y-351983D01*
X-96873Y-351342D01*
X-95821Y-350479D01*
X-94958Y-349427D01*
X-94317Y-348228D01*
X-93922Y-346926D01*
X-93789Y-345572D01*
X-93922Y-344218D01*
X-94317Y-342917D01*
X-94958Y-341717D01*
X-95821Y-340666D01*
X-96873Y-339803D01*
X-98072Y-339161D01*
X-99374Y-338767D01*
X-100728Y-338633D01*
D02*
G37*
G36*
X74868Y-346658D02*
X73954Y-346779D01*
X73103Y-347131D01*
X72372Y-347692D01*
X71811Y-348424D01*
X71458Y-349275D01*
X71338Y-350189D01*
X71458Y-351102D01*
X71811Y-351954D01*
X72372Y-352685D01*
X73103Y-353246D01*
X73954Y-353599D01*
X74868Y-353719D01*
X75782Y-353599D01*
X76633Y-353246D01*
X77364Y-352685D01*
X77925Y-351954D01*
X78278Y-351102D01*
X78398Y-350189D01*
X78278Y-349275D01*
X77925Y-348424D01*
X77364Y-347692D01*
X76633Y-347131D01*
X75782Y-346779D01*
X74868Y-346658D01*
D02*
G37*
G36*
X157965Y-383476D02*
X148879D01*
Y-392563D01*
X157965D01*
Y-383476D01*
D02*
G37*
G36*
X143579Y-383437D02*
X142394Y-383593D01*
X141288Y-384051D01*
X140339Y-384779D01*
X139611Y-385728D01*
X139153Y-386833D01*
X138997Y-388019D01*
X139153Y-389205D01*
X139611Y-390311D01*
X140339Y-391260D01*
X141288Y-391988D01*
X142394Y-392446D01*
X143579Y-392602D01*
X144766Y-392446D01*
X145871Y-391988D01*
X146820Y-391260D01*
X147548Y-390311D01*
X148006Y-389205D01*
X148162Y-388019D01*
X148006Y-386833D01*
X147548Y-385728D01*
X146820Y-384779D01*
X145871Y-384051D01*
X144766Y-383593D01*
X143579Y-383437D01*
D02*
G37*
G36*
X133737D02*
X132551Y-383593D01*
X131446Y-384051D01*
X130497Y-384779D01*
X129768Y-385728D01*
X129311Y-386833D01*
X129154Y-388019D01*
X129311Y-389205D01*
X129768Y-390311D01*
X130497Y-391260D01*
X131446Y-391988D01*
X132551Y-392446D01*
X133737Y-392602D01*
X134923Y-392446D01*
X136028Y-391988D01*
X136977Y-391260D01*
X137706Y-390311D01*
X138163Y-389205D01*
X138319Y-388019D01*
X138163Y-386833D01*
X137706Y-385728D01*
X136977Y-384779D01*
X136028Y-384051D01*
X134923Y-383593D01*
X133737Y-383437D01*
D02*
G37*
G36*
X121586Y-383526D02*
X112499D01*
Y-392613D01*
X121586D01*
Y-383526D01*
D02*
G37*
G36*
X107200Y-383487D02*
X106014Y-383643D01*
X104909Y-384101D01*
X103960Y-384829D01*
X103231Y-385778D01*
X102774Y-386883D01*
X102617Y-388070D01*
X102774Y-389255D01*
X103231Y-390361D01*
X103960Y-391310D01*
X104909Y-392038D01*
X106014Y-392496D01*
X107200Y-392652D01*
X108386Y-392496D01*
X109491Y-392038D01*
X110440Y-391310D01*
X111169Y-390361D01*
X111626Y-389255D01*
X111782Y-388070D01*
X111626Y-386883D01*
X111169Y-385778D01*
X110440Y-384829D01*
X109491Y-384101D01*
X108386Y-383643D01*
X107200Y-383487D01*
D02*
G37*
G36*
X188839Y-383664D02*
X179752D01*
Y-392751D01*
X188839D01*
Y-383664D01*
D02*
G37*
G36*
X174453Y-383625D02*
X173267Y-383781D01*
X172162Y-384239D01*
X171213Y-384967D01*
X170485Y-385916D01*
X170027Y-387021D01*
X169871Y-388207D01*
X170027Y-389393D01*
X170485Y-390499D01*
X171213Y-391448D01*
X172162Y-392176D01*
X173267Y-392634D01*
X174453Y-392790D01*
X175639Y-392634D01*
X176744Y-392176D01*
X177693Y-391448D01*
X178422Y-390499D01*
X178879Y-389393D01*
X179036Y-388207D01*
X178879Y-387021D01*
X178422Y-385916D01*
X177693Y-384967D01*
X176744Y-384239D01*
X175639Y-383781D01*
X174453Y-383625D01*
D02*
G37*
G36*
X-36718Y-383830D02*
X-45805D01*
Y-392916D01*
X-36718D01*
Y-383830D01*
D02*
G37*
G36*
X-51104Y-383790D02*
X-52290Y-383946D01*
X-53395Y-384404D01*
X-54344Y-385133D01*
X-55072Y-386082D01*
X-55530Y-387187D01*
X-55686Y-388373D01*
X-55530Y-389559D01*
X-55072Y-390664D01*
X-54344Y-391613D01*
X-53395Y-392341D01*
X-52290Y-392799D01*
X-51104Y-392955D01*
X-49918Y-392799D01*
X-48812Y-392341D01*
X-47863Y-391613D01*
X-47135Y-390664D01*
X-46677Y-389559D01*
X-46521Y-388373D01*
X-46677Y-387187D01*
X-47135Y-386082D01*
X-47863Y-385133D01*
X-48812Y-384404D01*
X-49918Y-383946D01*
X-51104Y-383790D01*
D02*
G37*
G36*
X-60946D02*
X-62132Y-383946D01*
X-63238Y-384404D01*
X-64187Y-385133D01*
X-64915Y-386082D01*
X-65373Y-387187D01*
X-65529Y-388373D01*
X-65373Y-389559D01*
X-64915Y-390664D01*
X-64187Y-391613D01*
X-63238Y-392341D01*
X-62132Y-392799D01*
X-60946Y-392955D01*
X-59760Y-392799D01*
X-58655Y-392341D01*
X-57706Y-391613D01*
X-56978Y-390664D01*
X-56520Y-389559D01*
X-56364Y-388373D01*
X-56520Y-387187D01*
X-56978Y-386082D01*
X-57706Y-385133D01*
X-58655Y-384404D01*
X-59760Y-383946D01*
X-60946Y-383790D01*
D02*
G37*
G36*
X143579Y-393279D02*
X142394Y-393436D01*
X141288Y-393893D01*
X140339Y-394622D01*
X139611Y-395571D01*
X139153Y-396676D01*
X138997Y-397862D01*
X139153Y-399048D01*
X139611Y-400153D01*
X140339Y-401102D01*
X141288Y-401830D01*
X142394Y-402288D01*
X143579Y-402444D01*
X144766Y-402288D01*
X145871Y-401830D01*
X146820Y-401102D01*
X147548Y-400153D01*
X148006Y-399048D01*
X148162Y-397862D01*
X148006Y-396676D01*
X147548Y-395571D01*
X146820Y-394622D01*
X145871Y-393893D01*
X144766Y-393436D01*
X143579Y-393279D01*
D02*
G37*
G36*
X133737D02*
X132551Y-393436D01*
X131446Y-393893D01*
X130497Y-394622D01*
X129768Y-395571D01*
X129311Y-396676D01*
X129154Y-397862D01*
X129311Y-399048D01*
X129768Y-400153D01*
X130497Y-401102D01*
X131446Y-401830D01*
X132551Y-402288D01*
X133737Y-402444D01*
X134923Y-402288D01*
X136028Y-401830D01*
X136977Y-401102D01*
X137706Y-400153D01*
X138163Y-399048D01*
X138319Y-397862D01*
X138163Y-396676D01*
X137706Y-395571D01*
X136977Y-394622D01*
X136028Y-393893D01*
X134923Y-393436D01*
X133737Y-393279D01*
D02*
G37*
G36*
X117043Y-393329D02*
X115857Y-393485D01*
X114751Y-393943D01*
X113802Y-394672D01*
X113074Y-395621D01*
X112616Y-396726D01*
X112460Y-397912D01*
X112616Y-399098D01*
X113074Y-400203D01*
X113802Y-401152D01*
X114751Y-401880D01*
X115857Y-402338D01*
X117043Y-402494D01*
X118229Y-402338D01*
X119334Y-401880D01*
X120283Y-401152D01*
X121011Y-400203D01*
X121469Y-399098D01*
X121625Y-397912D01*
X121469Y-396726D01*
X121011Y-395621D01*
X120283Y-394672D01*
X119334Y-393943D01*
X118229Y-393485D01*
X117043Y-393329D01*
D02*
G37*
G36*
X107200D02*
X106014Y-393485D01*
X104909Y-393943D01*
X103960Y-394672D01*
X103231Y-395621D01*
X102774Y-396726D01*
X102617Y-397912D01*
X102774Y-399098D01*
X103231Y-400203D01*
X103960Y-401152D01*
X104909Y-401880D01*
X106014Y-402338D01*
X107200Y-402494D01*
X108386Y-402338D01*
X109491Y-401880D01*
X110440Y-401152D01*
X111169Y-400203D01*
X111626Y-399098D01*
X111782Y-397912D01*
X111626Y-396726D01*
X111169Y-395621D01*
X110440Y-394672D01*
X109491Y-393943D01*
X108386Y-393485D01*
X107200Y-393329D01*
D02*
G37*
G36*
X184296Y-393467D02*
X183110Y-393624D01*
X182004Y-394081D01*
X181055Y-394810D01*
X180327Y-395759D01*
X179869Y-396864D01*
X179713Y-398050D01*
X179869Y-399236D01*
X180327Y-400341D01*
X181055Y-401290D01*
X182004Y-402018D01*
X183110Y-402476D01*
X184296Y-402632D01*
X185482Y-402476D01*
X186587Y-402018D01*
X187536Y-401290D01*
X188264Y-400341D01*
X188722Y-399236D01*
X188878Y-398050D01*
X188722Y-396864D01*
X188264Y-395759D01*
X187536Y-394810D01*
X186587Y-394081D01*
X185482Y-393624D01*
X184296Y-393467D01*
D02*
G37*
G36*
X174453D02*
X173267Y-393624D01*
X172162Y-394081D01*
X171213Y-394810D01*
X170485Y-395759D01*
X170027Y-396864D01*
X169871Y-398050D01*
X170027Y-399236D01*
X170485Y-400341D01*
X171213Y-401290D01*
X172162Y-402018D01*
X173267Y-402476D01*
X174453Y-402632D01*
X175639Y-402476D01*
X176744Y-402018D01*
X177693Y-401290D01*
X178422Y-400341D01*
X178879Y-399236D01*
X179036Y-398050D01*
X178879Y-396864D01*
X178422Y-395759D01*
X177693Y-394810D01*
X176744Y-394081D01*
X175639Y-393624D01*
X174453Y-393467D01*
D02*
G37*
G36*
X-41261Y-393633D02*
X-42447Y-393789D01*
X-43553Y-394247D01*
X-44502Y-394975D01*
X-45230Y-395924D01*
X-45688Y-397029D01*
X-45844Y-398215D01*
X-45688Y-399401D01*
X-45230Y-400506D01*
X-44502Y-401456D01*
X-43553Y-402184D01*
X-42447Y-402642D01*
X-41261Y-402798D01*
X-40075Y-402642D01*
X-38970Y-402184D01*
X-38021Y-401456D01*
X-37293Y-400506D01*
X-36835Y-399401D01*
X-36679Y-398215D01*
X-36835Y-397029D01*
X-37293Y-395924D01*
X-38021Y-394975D01*
X-38970Y-394247D01*
X-40075Y-393789D01*
X-41261Y-393633D01*
D02*
G37*
G36*
X-51104D02*
X-52290Y-393789D01*
X-53395Y-394247D01*
X-54344Y-394975D01*
X-55072Y-395924D01*
X-55530Y-397029D01*
X-55686Y-398215D01*
X-55530Y-399401D01*
X-55072Y-400506D01*
X-54344Y-401456D01*
X-53395Y-402184D01*
X-52290Y-402642D01*
X-51104Y-402798D01*
X-49918Y-402642D01*
X-48812Y-402184D01*
X-47863Y-401456D01*
X-47135Y-400506D01*
X-46677Y-399401D01*
X-46521Y-398215D01*
X-46677Y-397029D01*
X-47135Y-395924D01*
X-47863Y-394975D01*
X-48812Y-394247D01*
X-49918Y-393789D01*
X-51104Y-393633D01*
D02*
G37*
G36*
X-60946D02*
X-62132Y-393789D01*
X-63238Y-394247D01*
X-64187Y-394975D01*
X-64915Y-395924D01*
X-65373Y-397029D01*
X-65529Y-398215D01*
X-65373Y-399401D01*
X-64915Y-400506D01*
X-64187Y-401456D01*
X-63238Y-402184D01*
X-62132Y-402642D01*
X-60946Y-402798D01*
X-59760Y-402642D01*
X-58655Y-402184D01*
X-57706Y-401456D01*
X-56978Y-400506D01*
X-56520Y-399401D01*
X-56364Y-398215D01*
X-56520Y-397029D01*
X-56978Y-395924D01*
X-57706Y-394975D01*
X-58655Y-394247D01*
X-59760Y-393789D01*
X-60946Y-393633D01*
D02*
G37*
G36*
X153422Y-421746D02*
X152287Y-421895D01*
X151230Y-422333D01*
X150322Y-423030D01*
X149626Y-423938D01*
X149188Y-424995D01*
X149038Y-426130D01*
X149188Y-427264D01*
X149626Y-428322D01*
X150322Y-429230D01*
X151230Y-429926D01*
X152287Y-430364D01*
X153422Y-430514D01*
X154557Y-430364D01*
X155614Y-429926D01*
X156522Y-429230D01*
X157219Y-428322D01*
X157657Y-427264D01*
X157806Y-426130D01*
X157657Y-424995D01*
X157219Y-423938D01*
X156522Y-423030D01*
X155614Y-422333D01*
X154557Y-421895D01*
X153422Y-421746D01*
D02*
G37*
G36*
X133737D02*
X132602Y-421895D01*
X131545Y-422333D01*
X130637Y-423030D01*
X129940Y-423938D01*
X129502Y-424995D01*
X129353Y-426130D01*
X129502Y-427264D01*
X129940Y-428322D01*
X130637Y-429230D01*
X131545Y-429926D01*
X132602Y-430364D01*
X133737Y-430514D01*
X134872Y-430364D01*
X135929Y-429926D01*
X136837Y-429230D01*
X137534Y-428322D01*
X137971Y-427264D01*
X138121Y-426130D01*
X137971Y-424995D01*
X137534Y-423938D01*
X136837Y-423030D01*
X135929Y-422333D01*
X134872Y-421895D01*
X133737Y-421746D01*
D02*
G37*
G36*
X117043Y-421796D02*
X115908Y-421945D01*
X114851Y-422383D01*
X113943Y-423080D01*
X113246Y-423988D01*
X112808Y-425045D01*
X112659Y-426180D01*
X112808Y-427314D01*
X113246Y-428372D01*
X113943Y-429280D01*
X114851Y-429976D01*
X115908Y-430414D01*
X117043Y-430564D01*
X118177Y-430414D01*
X119235Y-429976D01*
X120142Y-429280D01*
X120839Y-428372D01*
X121277Y-427314D01*
X121426Y-426180D01*
X121277Y-425045D01*
X120839Y-423988D01*
X120142Y-423080D01*
X119235Y-422383D01*
X118177Y-421945D01*
X117043Y-421796D01*
D02*
G37*
G36*
X107200D02*
X106065Y-421945D01*
X105008Y-422383D01*
X104100Y-423080D01*
X103403Y-423988D01*
X102965Y-425045D01*
X102816Y-426180D01*
X102965Y-427314D01*
X103403Y-428372D01*
X104100Y-429280D01*
X105008Y-429976D01*
X106065Y-430414D01*
X107200Y-430564D01*
X108335Y-430414D01*
X109392Y-429976D01*
X110300Y-429280D01*
X110997Y-428372D01*
X111434Y-427314D01*
X111584Y-426180D01*
X111434Y-425045D01*
X110997Y-423988D01*
X110300Y-423080D01*
X109392Y-422383D01*
X108335Y-421945D01*
X107200Y-421796D01*
D02*
G37*
G36*
X184296Y-421934D02*
X183161Y-422083D01*
X182104Y-422521D01*
X181196Y-423218D01*
X180499Y-424126D01*
X180061Y-425183D01*
X179912Y-426318D01*
X180061Y-427452D01*
X180499Y-428510D01*
X181196Y-429418D01*
X182104Y-430114D01*
X183161Y-430552D01*
X184296Y-430702D01*
X185430Y-430552D01*
X186488Y-430114D01*
X187396Y-429418D01*
X188092Y-428510D01*
X188530Y-427452D01*
X188680Y-426318D01*
X188530Y-425183D01*
X188092Y-424126D01*
X187396Y-423218D01*
X186488Y-422521D01*
X185430Y-422083D01*
X184296Y-421934D01*
D02*
G37*
G36*
X174453D02*
X173319Y-422083D01*
X172261Y-422521D01*
X171353Y-423218D01*
X170657Y-424126D01*
X170219Y-425183D01*
X170069Y-426318D01*
X170219Y-427452D01*
X170657Y-428510D01*
X171353Y-429418D01*
X172261Y-430114D01*
X173319Y-430552D01*
X174453Y-430702D01*
X175588Y-430552D01*
X176645Y-430114D01*
X177553Y-429418D01*
X178250Y-428510D01*
X178688Y-427452D01*
X178837Y-426318D01*
X178688Y-425183D01*
X178250Y-424126D01*
X177553Y-423218D01*
X176645Y-422521D01*
X175588Y-422083D01*
X174453Y-421934D01*
D02*
G37*
G36*
X-41261Y-422099D02*
X-42396Y-422249D01*
X-43453Y-422686D01*
X-44361Y-423383D01*
X-45058Y-424291D01*
X-45496Y-425348D01*
X-45645Y-426483D01*
X-45496Y-427618D01*
X-45058Y-428675D01*
X-44361Y-429583D01*
X-43453Y-430280D01*
X-42396Y-430718D01*
X-41261Y-430867D01*
X-40127Y-430718D01*
X-39069Y-430280D01*
X-38161Y-429583D01*
X-37465Y-428675D01*
X-37027Y-427618D01*
X-36877Y-426483D01*
X-37027Y-425348D01*
X-37465Y-424291D01*
X-38161Y-423383D01*
X-39069Y-422686D01*
X-40127Y-422249D01*
X-41261Y-422099D01*
D02*
G37*
G36*
X-60946D02*
X-62081Y-422249D01*
X-63138Y-422686D01*
X-64046Y-423383D01*
X-64743Y-424291D01*
X-65181Y-425348D01*
X-65330Y-426483D01*
X-65181Y-427618D01*
X-64743Y-428675D01*
X-64046Y-429583D01*
X-63138Y-430280D01*
X-62081Y-430718D01*
X-60946Y-430867D01*
X-59812Y-430718D01*
X-58754Y-430280D01*
X-57846Y-429583D01*
X-57150Y-428675D01*
X-56712Y-427618D01*
X-56562Y-426483D01*
X-56712Y-425348D01*
X-57150Y-424291D01*
X-57846Y-423383D01*
X-58754Y-422686D01*
X-59812Y-422249D01*
X-60946Y-422099D01*
D02*
G37*
G36*
X274660Y-421244D02*
X273152Y-421393D01*
X271702Y-421833D01*
X270365Y-422547D01*
X269194Y-423509D01*
X268232Y-424680D01*
X267518Y-426017D01*
X267078Y-427467D01*
X266930Y-428975D01*
X267078Y-430483D01*
X267518Y-431933D01*
X268232Y-433269D01*
X269194Y-434441D01*
X270365Y-435402D01*
X271702Y-436116D01*
X273152Y-436556D01*
X274660Y-436705D01*
X276168Y-436556D01*
X277618Y-436116D01*
X278955Y-435402D01*
X280126Y-434441D01*
X281087Y-433269D01*
X281802Y-431933D01*
X282242Y-430483D01*
X282390Y-428975D01*
X282242Y-427467D01*
X281802Y-426017D01*
X281087Y-424680D01*
X280126Y-423509D01*
X278955Y-422547D01*
X277618Y-421833D01*
X276168Y-421393D01*
X274660Y-421244D01*
D02*
G37*
G36*
X-101718D02*
X-103226Y-421393D01*
X-104676Y-421833D01*
X-106013Y-422547D01*
X-107184Y-423509D01*
X-108145Y-424680D01*
X-108860Y-426017D01*
X-109300Y-427467D01*
X-109448Y-428975D01*
X-109300Y-430483D01*
X-108860Y-431933D01*
X-108145Y-433269D01*
X-107184Y-434441D01*
X-106013Y-435402D01*
X-104676Y-436116D01*
X-103226Y-436556D01*
X-101718Y-436705D01*
X-100210Y-436556D01*
X-98760Y-436116D01*
X-97423Y-435402D01*
X-96252Y-434441D01*
X-95291Y-433269D01*
X-94576Y-431933D01*
X-94136Y-430483D01*
X-93988Y-428975D01*
X-94136Y-427467D01*
X-94576Y-426017D01*
X-95291Y-424680D01*
X-96252Y-423509D01*
X-97423Y-422547D01*
X-98760Y-421833D01*
X-100210Y-421393D01*
X-101718Y-421244D01*
D02*
G37*
%LPD*%
D12*
X64328Y-257259D02*
X95722D01*
X132819Y-220162D01*
X224847D01*
X234043Y-210966D01*
X115903Y-253322D02*
X139275Y-229950D01*
X224902D01*
X234043Y-220809D01*
X74171Y-284818D02*
X93045D01*
X107431Y-270432D01*
X110613D01*
X120317Y-260727D01*
X124984D01*
Y-260727D01*
X130300D01*
X141111Y-249917D01*
X214777D01*
X234043Y-230651D01*
X-15961Y-346934D02*
X28469Y-302504D01*
X117918D01*
X160339Y-260083D01*
X214454D01*
X234043Y-240494D01*
X153422Y-388019D02*
X154004Y-387438D01*
D54*
X-58995Y-353446D02*
X-55558Y-356883D01*
X127496D01*
X234043Y-250336D01*
X-59316Y-234644D02*
X130328Y-44999D01*
X164971D01*
X-59316Y-224801D02*
X130486Y-34999D01*
X164971D01*
D56*
X-59316Y-254329D02*
X-33112D01*
X-22736Y-254999D02*
X-5029D01*
X-33248Y-244486D02*
X-22736Y-254999D01*
D58*
X175001Y-44999D02*
X255928Y-125927D01*
X243885Y-250336D02*
X247885D01*
X255928Y-242293D02*
Y-125927D01*
X247885Y-250336D02*
X255928Y-242293D01*
D60*
X153422Y-388019D02*
D03*
D61*
X234043Y-230651D02*
D03*
Y-240494D02*
D03*
Y-250336D02*
D03*
Y-210966D02*
D03*
Y-220809D02*
D03*
X243885D02*
D03*
Y-250336D02*
D03*
X-59316Y-254329D02*
D03*
Y-244486D02*
D03*
X-69159Y-254329D02*
D03*
X-59316Y-224801D02*
D03*
Y-234644D02*
D03*
X153422Y-397862D02*
D03*
D64*
X-5000Y-254999D02*
D03*
X175001Y-44999D02*
D03*
X165000D02*
D03*
Y-34999D02*
D03*
D69*
X64328Y-257259D02*
D03*
X115903Y-253322D02*
D03*
D70*
X-58995Y-353446D02*
D03*
X74171Y-284818D02*
D03*
D71*
X-15961Y-346934D02*
D03*
X-16822Y-134680D02*
D03*
X-33112Y-254329D02*
D03*
X-33112Y-244486D02*
D03*
X153017Y-146211D02*
D03*
X-50992Y-7032D02*
D03*
X24551Y70414D02*
D03*
X79241Y61444D02*
D03*
D72*
X-59316Y-244486D02*
X-58804Y-244999D01*
M02*
