G04*
G04 #@! TF.GenerationSoftware,Altium Limited,Altium Designer,18.1.9 (240)*
G04*
G04 Layer_Color=65535*
%FSLAX25Y25*%
%MOIN*%
G70*
G01*
G75*
%ADD10C,0.00787*%
%ADD11C,0.01181*%
%ADD12C,0.01000*%
%ADD13C,0.00600*%
%ADD14C,0.00500*%
%ADD15C,0.02953*%
%ADD16C,0.00800*%
G36*
X253676Y139988D02*
X253891D01*
Y139934D01*
X254052D01*
Y139880D01*
X254159D01*
Y139826D01*
X254267D01*
Y139773D01*
X254374D01*
Y139719D01*
X254482D01*
Y139665D01*
X254536D01*
Y139611D01*
X254643D01*
Y139558D01*
X254697D01*
Y139504D01*
X254804D01*
Y139450D01*
X254858D01*
Y139397D01*
X254912D01*
Y139343D01*
X254965D01*
Y139289D01*
X255019D01*
Y139235D01*
X255073D01*
Y139182D01*
X255127D01*
Y139128D01*
X255234D01*
Y139074D01*
X255288D01*
Y139020D01*
X255341D01*
Y138967D01*
X255395D01*
Y138913D01*
X255503D01*
Y138859D01*
X255556D01*
Y138805D01*
X255610D01*
Y138752D01*
X255664D01*
Y138698D01*
X255717D01*
Y138644D01*
X255771D01*
Y138591D01*
X255825D01*
Y138537D01*
X255879D01*
Y138483D01*
X255932D01*
Y138429D01*
X255986D01*
Y138376D01*
X256040D01*
Y138322D01*
X256094D01*
Y138268D01*
X256147D01*
Y138214D01*
X256201D01*
Y138161D01*
X256255D01*
Y138107D01*
X256309D01*
Y138053D01*
X256362D01*
Y137999D01*
X256416D01*
Y137946D01*
X256470D01*
Y137892D01*
X256523D01*
Y137838D01*
X256577D01*
Y137785D01*
X256631D01*
Y137731D01*
X256685D01*
Y137677D01*
X256738D01*
Y137623D01*
X256792D01*
Y137570D01*
X256846D01*
Y137516D01*
X256900D01*
Y137462D01*
Y137408D01*
X256953D01*
Y137355D01*
X257007D01*
Y137301D01*
X257061D01*
Y137247D01*
X257115D01*
Y137194D01*
X257168D01*
Y137140D01*
X257222D01*
Y137086D01*
X257276D01*
Y137032D01*
X257329D01*
Y136979D01*
X257383D01*
Y136925D01*
X257437D01*
Y136871D01*
X257491D01*
Y136818D01*
X257544D01*
Y136764D01*
Y136710D01*
X257598D01*
Y136656D01*
X257652D01*
Y136602D01*
X257706D01*
Y136549D01*
X257759D01*
Y136495D01*
Y136441D01*
X257813D01*
Y136388D01*
X257867D01*
Y136334D01*
X257921D01*
Y136280D01*
X257974D01*
Y136226D01*
X258028D01*
Y136173D01*
X258082D01*
Y136119D01*
X258135D01*
Y136065D01*
X258189D01*
Y136012D01*
Y135958D01*
X258243D01*
Y135904D01*
X258297D01*
Y135850D01*
X258350D01*
Y135797D01*
X258404D01*
Y135743D01*
X258458D01*
Y135689D01*
Y135635D01*
X258511D01*
Y135582D01*
Y135528D01*
X258565D01*
Y135474D01*
X258619D01*
Y135421D01*
X258673D01*
Y135367D01*
Y135313D01*
X258726D01*
Y135259D01*
X258834D01*
Y135205D01*
Y135152D01*
X258888D01*
Y135098D01*
X258941D01*
Y135044D01*
X258995D01*
Y134991D01*
Y134937D01*
X259049D01*
Y134883D01*
Y134829D01*
X259103D01*
Y134776D01*
Y134722D01*
Y134668D01*
X259156D01*
Y134615D01*
Y134561D01*
X259210D01*
Y134507D01*
Y134453D01*
Y134400D01*
X259264D01*
Y134346D01*
Y134292D01*
X259317D01*
Y134238D01*
Y134185D01*
Y134131D01*
X259371D01*
Y134077D01*
Y134023D01*
Y133970D01*
X259425D01*
Y133916D01*
Y133862D01*
Y133809D01*
Y133755D01*
X259479D01*
Y133701D01*
Y133647D01*
Y133594D01*
Y133540D01*
X259532D01*
Y133486D01*
Y133432D01*
Y133379D01*
X259586D01*
Y133325D01*
Y133271D01*
Y133218D01*
Y133164D01*
X259640D01*
Y133110D01*
Y133056D01*
Y133003D01*
Y132949D01*
Y132895D01*
X259694D01*
Y132841D01*
Y132788D01*
Y132734D01*
Y132680D01*
Y132626D01*
Y132573D01*
X259747D01*
Y132519D01*
Y132465D01*
Y132412D01*
Y132358D01*
Y132304D01*
X259801D01*
Y132250D01*
Y132197D01*
Y132143D01*
Y132089D01*
Y132035D01*
Y131982D01*
Y131928D01*
X259855D01*
Y131874D01*
X259909D01*
Y131820D01*
Y131767D01*
Y131713D01*
Y131659D01*
Y131606D01*
Y131552D01*
Y131498D01*
Y131444D01*
X259962D01*
Y131391D01*
Y131337D01*
Y131283D01*
Y131229D01*
Y131176D01*
Y131122D01*
Y131068D01*
Y131015D01*
Y130961D01*
Y130907D01*
Y130853D01*
Y130800D01*
Y130746D01*
Y130692D01*
Y130638D01*
Y130585D01*
Y130531D01*
Y130477D01*
Y130423D01*
Y130370D01*
Y130316D01*
Y130262D01*
Y130209D01*
Y130155D01*
Y130101D01*
Y130047D01*
X259909D01*
Y129994D01*
Y129940D01*
Y129886D01*
Y129832D01*
Y129779D01*
Y129725D01*
X259855D01*
Y129671D01*
X259801D01*
Y129618D01*
X259855D01*
Y129564D01*
X259801D01*
Y129510D01*
X259747D01*
Y129456D01*
Y129403D01*
X259694D01*
Y129349D01*
Y129295D01*
Y129242D01*
X259640D01*
Y129188D01*
Y129134D01*
X259586D01*
Y129080D01*
X259532D01*
Y129026D01*
X259479D01*
Y128973D01*
X259425D01*
Y128919D01*
Y128865D01*
X259371D01*
Y128812D01*
X259264D01*
Y128758D01*
X259210D01*
Y128704D01*
X259156D01*
Y128650D01*
X259103D01*
Y128597D01*
X259049D01*
Y128543D01*
X258941D01*
Y128489D01*
X258888D01*
Y128436D01*
X258780D01*
Y128382D01*
Y128328D01*
X258726D01*
Y128274D01*
X258619D01*
Y128221D01*
X258565D01*
Y128167D01*
X258511D01*
Y128113D01*
X258404D01*
Y128059D01*
X258350D01*
Y128006D01*
X258243D01*
Y127952D01*
X258189D01*
Y127898D01*
X258082D01*
Y127845D01*
X258028D01*
Y127791D01*
X257921D01*
Y127737D01*
X257867D01*
Y127683D01*
X257759D01*
Y127630D01*
Y127576D01*
X257867D01*
Y127522D01*
X258028D01*
Y127468D01*
X258082D01*
Y127415D01*
X258243D01*
Y127361D01*
X258350D01*
Y127307D01*
X258511D01*
Y127253D01*
X258673D01*
Y127200D01*
X258780D01*
Y127146D01*
X258941D01*
Y127092D01*
X259049D01*
Y127039D01*
X259156D01*
Y126985D01*
X259264D01*
Y126931D01*
X259371D01*
Y126877D01*
X259425D01*
Y126824D01*
X259532D01*
Y126770D01*
X259640D01*
Y126716D01*
X259694D01*
Y126662D01*
X259801D01*
Y126609D01*
X259855D01*
Y126555D01*
Y126501D01*
X259962D01*
Y126447D01*
X260016D01*
Y126394D01*
X260070D01*
Y126340D01*
X260123D01*
Y126286D01*
X260177D01*
Y126233D01*
X260231D01*
Y126179D01*
X260285D01*
Y126125D01*
X260338D01*
Y126071D01*
X260392D01*
Y126018D01*
Y125964D01*
X260446D01*
Y125910D01*
Y125856D01*
X260500D01*
Y125803D01*
Y125749D01*
Y125695D01*
Y125642D01*
Y125588D01*
X260553D01*
Y125534D01*
X260500D01*
Y125480D01*
Y125427D01*
Y125373D01*
Y125319D01*
Y125265D01*
X260446D01*
Y125212D01*
Y125158D01*
X260392D01*
Y125104D01*
Y125050D01*
Y124997D01*
Y124943D01*
X260446D01*
Y124889D01*
X260500D01*
Y124836D01*
Y124782D01*
X260553D01*
Y124728D01*
Y124674D01*
X260607D01*
Y124621D01*
Y124567D01*
X260661D01*
Y124513D01*
Y124460D01*
X260715D01*
Y124406D01*
X260768D01*
Y124352D01*
Y124298D01*
X260822D01*
Y124244D01*
Y124191D01*
X260876D01*
Y124137D01*
Y124083D01*
X260929D01*
Y124030D01*
Y123976D01*
X260983D01*
Y123922D01*
Y123868D01*
Y123815D01*
Y123761D01*
X261037D01*
Y123707D01*
Y123653D01*
X261091D01*
Y123600D01*
Y123546D01*
Y123492D01*
X261144D01*
Y123439D01*
Y123385D01*
Y123331D01*
X261198D01*
Y123277D01*
Y123224D01*
Y123170D01*
X261252D01*
Y123116D01*
Y123063D01*
Y123009D01*
Y122955D01*
X261305D01*
Y122901D01*
Y122848D01*
Y122794D01*
Y122740D01*
Y122686D01*
X261359D01*
Y122633D01*
Y122579D01*
Y122525D01*
Y122471D01*
Y122418D01*
Y122364D01*
X261413D01*
Y122310D01*
Y122257D01*
Y122203D01*
Y122149D01*
Y122095D01*
Y122042D01*
X261467D01*
Y121988D01*
Y121934D01*
Y121880D01*
Y121827D01*
Y121773D01*
Y121719D01*
Y121666D01*
Y121612D01*
Y121558D01*
Y121504D01*
X261520D01*
Y121451D01*
Y121397D01*
Y121343D01*
Y121289D01*
Y121236D01*
Y121182D01*
Y121128D01*
Y121074D01*
Y121021D01*
Y120967D01*
Y120913D01*
Y120860D01*
Y120806D01*
Y120752D01*
Y120698D01*
Y120645D01*
Y120591D01*
Y120537D01*
Y120483D01*
Y120430D01*
Y120376D01*
Y120322D01*
Y120268D01*
Y120215D01*
Y120161D01*
Y120107D01*
X261467D01*
Y120054D01*
Y120000D01*
Y119946D01*
Y119892D01*
Y119839D01*
Y119785D01*
Y119731D01*
Y119677D01*
Y119624D01*
Y119570D01*
X261413D01*
Y119516D01*
Y119463D01*
Y119409D01*
Y119355D01*
Y119301D01*
Y119248D01*
Y119194D01*
X261359D01*
Y119140D01*
Y119086D01*
Y119033D01*
Y118979D01*
Y118925D01*
X261305D01*
Y118871D01*
Y118818D01*
Y118764D01*
Y118710D01*
Y118657D01*
X261252D01*
Y118603D01*
Y118549D01*
Y118495D01*
Y118442D01*
X261198D01*
Y118388D01*
Y118334D01*
Y118280D01*
Y118227D01*
X261144D01*
Y118173D01*
Y118119D01*
Y118066D01*
X261091D01*
Y118012D01*
Y117958D01*
Y117904D01*
X261037D01*
Y117851D01*
Y117797D01*
Y117743D01*
X260983D01*
Y117689D01*
Y117636D01*
Y117582D01*
X260929D01*
Y117528D01*
Y117474D01*
Y117421D01*
X260876D01*
Y117367D01*
Y117313D01*
Y117260D01*
X260822D01*
Y117206D01*
Y117152D01*
X260768D01*
Y117098D01*
Y117045D01*
X260661D01*
Y116991D01*
X260715D01*
Y116937D01*
X260607D01*
Y116884D01*
Y116830D01*
X260553D01*
Y116776D01*
Y116722D01*
X260500D01*
Y116669D01*
Y116615D01*
Y116561D01*
X260446D01*
Y116507D01*
Y116454D01*
X260392D01*
Y116400D01*
Y116346D01*
X260338D01*
Y116293D01*
X260285D01*
Y116239D01*
Y116185D01*
X260231D01*
Y116131D01*
Y116077D01*
X260177D01*
Y116024D01*
X260123D01*
Y115970D01*
Y115916D01*
X260070D01*
Y115863D01*
X260016D01*
Y115809D01*
X259962D01*
Y115755D01*
Y115701D01*
Y115648D01*
X259909D01*
Y115594D01*
X259855D01*
Y115540D01*
X259801D01*
Y115487D01*
X259747D01*
Y115433D01*
Y115379D01*
X259640D01*
Y115325D01*
Y115272D01*
X259586D01*
Y115218D01*
X259532D01*
Y115164D01*
X259479D01*
Y115110D01*
X259425D01*
Y115057D01*
X259371D01*
Y115003D01*
X259317D01*
Y114949D01*
X259264D01*
Y114895D01*
X259210D01*
Y114842D01*
X259156D01*
Y114788D01*
Y114734D01*
X259103D01*
Y114681D01*
X259049D01*
Y114627D01*
X258995D01*
Y114573D01*
X258941D01*
Y114519D01*
X258888D01*
Y114466D01*
X258780D01*
Y114412D01*
X258726D01*
Y114358D01*
X258673D01*
Y114304D01*
X258565D01*
Y114251D01*
X258511D01*
Y114197D01*
X258404D01*
Y114143D01*
X258350D01*
Y114090D01*
X258243D01*
Y114036D01*
X258189D01*
Y113982D01*
X258082D01*
Y113928D01*
X258028D01*
Y113875D01*
X257974D01*
Y113821D01*
X257867D01*
Y113767D01*
X257813D01*
Y113713D01*
X257706D01*
Y113660D01*
X257598D01*
Y113606D01*
X257491D01*
Y113552D01*
X257383D01*
Y113498D01*
X257276D01*
Y113445D01*
X257115D01*
Y113391D01*
X256953D01*
Y113337D01*
X256792D01*
Y113284D01*
X256631D01*
Y113230D01*
X256362D01*
Y113176D01*
X256094D01*
Y113122D01*
X255717D01*
Y113069D01*
X254589D01*
Y113122D01*
X254213D01*
Y113176D01*
X253783D01*
Y113230D01*
X253300D01*
Y113284D01*
X252816D01*
Y113337D01*
X252386D01*
Y113391D01*
X251903D01*
Y113445D01*
X251419D01*
Y113498D01*
X250936D01*
Y113552D01*
X250506D01*
Y113606D01*
X250022D01*
Y113660D01*
X249538D01*
Y113713D01*
X249109D01*
Y113767D01*
X248625D01*
Y113821D01*
X248142D01*
Y113875D01*
Y113928D01*
X247658D01*
Y113982D01*
X247174D01*
Y114036D01*
X246691D01*
Y114090D01*
X246261D01*
Y114143D01*
X245777D01*
Y114197D01*
X245294D01*
Y114251D01*
X244810D01*
Y114304D01*
X244380D01*
Y114358D01*
X243897D01*
Y114412D01*
X243413D01*
Y114466D01*
X242930D01*
Y114519D01*
X242500D01*
Y114573D01*
X242016D01*
Y114627D01*
X241586D01*
Y114681D01*
X241103D01*
Y114734D01*
X240619D01*
Y114788D01*
Y114842D01*
X240136D01*
Y114895D01*
X239652D01*
Y114949D01*
X239169D01*
Y115003D01*
X238685D01*
Y115057D01*
X238255D01*
Y115110D01*
X237772D01*
Y115164D01*
X237288D01*
Y115218D01*
X236804D01*
Y115272D01*
X236267D01*
Y115325D01*
X235730D01*
Y115379D01*
X235407D01*
Y115433D01*
X234924D01*
Y115487D01*
X234494D01*
Y115540D01*
X234011D01*
Y115594D01*
X233527D01*
Y115648D01*
X233097D01*
Y115701D01*
X233043D01*
Y115755D01*
X232560D01*
Y115809D01*
X232076D01*
Y115863D01*
X231539D01*
Y115916D01*
X232076D01*
Y115863D01*
X232667D01*
Y115809D01*
X233205D01*
Y115755D01*
X233796D01*
Y115701D01*
X233957D01*
Y115648D01*
X234387D01*
Y115594D01*
X234924D01*
Y115540D01*
X235031D01*
Y115594D01*
Y115648D01*
X234978D01*
Y115701D01*
X234924D01*
Y115755D01*
X234816D01*
Y115809D01*
X234763D01*
Y115863D01*
X234655D01*
Y115916D01*
X234601D01*
Y115970D01*
X234494D01*
Y116024D01*
X234440D01*
Y116077D01*
X234387D01*
Y116131D01*
X234333D01*
Y116185D01*
X234279D01*
Y116239D01*
X234225D01*
Y116293D01*
X234172D01*
Y116346D01*
X234118D01*
Y116400D01*
Y116454D01*
X234064D01*
Y116507D01*
X234011D01*
Y116561D01*
Y116615D01*
X233957D01*
Y116669D01*
X233903D01*
Y116722D01*
X233849D01*
Y116776D01*
X233796D01*
Y116830D01*
Y116884D01*
X233742D01*
Y116937D01*
X233688D01*
Y116991D01*
Y117045D01*
X233634D01*
Y117098D01*
Y117152D01*
X233581D01*
Y117206D01*
Y117260D01*
X233527D01*
Y117313D01*
Y117367D01*
X233473D01*
Y117421D01*
Y117474D01*
X233419D01*
Y117528D01*
Y117582D01*
Y117636D01*
Y117689D01*
X233366D01*
Y117743D01*
Y117797D01*
X233312D01*
Y117851D01*
Y117904D01*
Y117958D01*
X233258D01*
Y118012D01*
Y118066D01*
Y118119D01*
X233205D01*
Y118173D01*
Y118227D01*
Y118280D01*
Y118334D01*
X233151D01*
Y118388D01*
Y118442D01*
Y118495D01*
Y118549D01*
X233097D01*
Y118603D01*
Y118657D01*
Y118710D01*
Y118764D01*
Y118818D01*
X233043D01*
Y118871D01*
X232990D01*
Y118925D01*
Y118979D01*
Y119033D01*
Y119086D01*
Y119140D01*
Y119194D01*
X232936D01*
Y119248D01*
Y119301D01*
Y119355D01*
Y119409D01*
Y119463D01*
Y119516D01*
Y119570D01*
Y119624D01*
Y119677D01*
Y119731D01*
X232882D01*
Y119785D01*
Y119839D01*
Y119892D01*
Y119946D01*
Y120000D01*
Y120054D01*
Y120107D01*
Y120161D01*
Y120215D01*
Y120268D01*
Y120322D01*
Y120376D01*
Y120430D01*
Y120483D01*
Y120537D01*
Y120591D01*
Y120645D01*
Y120698D01*
Y120752D01*
Y120806D01*
Y120860D01*
X232936D01*
Y120913D01*
Y120967D01*
Y121021D01*
Y121074D01*
Y121128D01*
Y121182D01*
Y121236D01*
Y121289D01*
Y121343D01*
Y121397D01*
X232990D01*
Y121451D01*
Y121504D01*
Y121558D01*
Y121612D01*
Y121666D01*
Y121719D01*
Y121773D01*
X233043D01*
Y121827D01*
X233097D01*
Y121880D01*
Y121934D01*
Y121988D01*
Y122042D01*
Y122095D01*
X233151D01*
Y122149D01*
Y122203D01*
Y122257D01*
Y122310D01*
Y122364D01*
X233205D01*
Y122418D01*
Y122471D01*
Y122525D01*
Y122579D01*
X233258D01*
Y122633D01*
Y122686D01*
Y122740D01*
X233312D01*
Y122794D01*
Y122848D01*
Y122901D01*
Y122955D01*
X233366D01*
Y123009D01*
Y123063D01*
Y123116D01*
X233419D01*
Y123170D01*
Y123224D01*
Y123277D01*
X233473D01*
Y123331D01*
Y123385D01*
Y123439D01*
X233527D01*
Y123492D01*
Y123546D01*
X233581D01*
Y123600D01*
Y123653D01*
X233634D01*
Y123707D01*
Y123761D01*
Y123815D01*
Y123868D01*
X233688D01*
Y123922D01*
Y123976D01*
X233742D01*
Y124030D01*
Y124083D01*
X233796D01*
Y124137D01*
Y124191D01*
X233849D01*
Y124244D01*
Y124298D01*
X233903D01*
Y124352D01*
X233957D01*
Y124406D01*
Y124460D01*
X234064D01*
Y124513D01*
Y124567D01*
X234118D01*
Y124621D01*
X234172D01*
Y124674D01*
Y124728D01*
Y124782D01*
X234225D01*
Y124836D01*
X234279D01*
Y124889D01*
Y124943D01*
X234333D01*
Y124997D01*
X234387D01*
Y125050D01*
Y125104D01*
X234440D01*
Y125158D01*
X234494D01*
Y125212D01*
X234548D01*
Y125265D01*
X234601D01*
Y125319D01*
Y125373D01*
X234655D01*
Y125427D01*
X234709D01*
Y125480D01*
X234763D01*
Y125534D01*
X234816D01*
Y125588D01*
X234924D01*
Y125642D01*
Y125695D01*
X234978D01*
Y125749D01*
X235031D01*
Y125803D01*
X235085D01*
Y125856D01*
X235139D01*
Y125910D01*
X235246D01*
Y125964D01*
X235300D01*
Y126018D01*
X235354D01*
Y126071D01*
X235407D01*
Y126125D01*
X235515D01*
Y126179D01*
X235569D01*
Y126233D01*
Y126286D01*
X234225D01*
Y126340D01*
X232936D01*
Y126394D01*
X231646D01*
Y126447D01*
X230357D01*
Y126501D01*
X229067D01*
Y126555D01*
X229981D01*
Y126609D01*
X232291D01*
Y126662D01*
X234601D01*
Y126716D01*
X236912D01*
Y126770D01*
X237449D01*
Y126716D01*
X237664D01*
Y126770D01*
Y126824D01*
X237610D01*
Y126877D01*
X237557D01*
Y126931D01*
X237503D01*
Y126985D01*
X237396D01*
Y127039D01*
X237342D01*
Y127092D01*
X237234D01*
Y127146D01*
X237019D01*
Y127200D01*
X236590D01*
Y127253D01*
X236106D01*
Y127307D01*
X235999D01*
Y127361D01*
X235945D01*
Y127415D01*
X235891D01*
Y127468D01*
X235837D01*
Y127522D01*
X235784D01*
Y127576D01*
X235730D01*
Y127630D01*
X235676D01*
Y127683D01*
X235622D01*
Y127737D01*
X235569D01*
Y127791D01*
X235515D01*
Y127845D01*
X235461D01*
Y127898D01*
Y127952D01*
X235407D01*
Y128006D01*
X235354D01*
Y128059D01*
Y128113D01*
X235300D01*
Y128167D01*
Y128221D01*
X235246D01*
Y128274D01*
X235192D01*
Y128328D01*
Y128382D01*
Y128436D01*
X235139D01*
Y128489D01*
X235085D01*
Y128543D01*
Y128597D01*
X235031D01*
Y128650D01*
Y128704D01*
X234978D01*
Y128758D01*
Y128812D01*
X234870D01*
Y128865D01*
X234924D01*
Y128919D01*
X234816D01*
Y128973D01*
X234870D01*
Y129026D01*
X234763D01*
Y129080D01*
Y129134D01*
X234709D01*
Y129188D01*
Y129242D01*
X234655D01*
Y129295D01*
Y129349D01*
X234601D01*
Y129403D01*
Y129456D01*
X234548D01*
Y129510D01*
Y129564D01*
X234494D01*
Y129618D01*
Y129671D01*
X234440D01*
Y129725D01*
Y129779D01*
X234387D01*
Y129832D01*
Y129886D01*
Y129940D01*
X234333D01*
Y129994D01*
Y130047D01*
X234279D01*
Y130101D01*
Y130155D01*
X234225D01*
Y130209D01*
Y130262D01*
Y130316D01*
X234172D01*
Y130370D01*
Y130423D01*
X234118D01*
Y130477D01*
Y130531D01*
Y130585D01*
X234064D01*
Y130638D01*
Y130692D01*
X234011D01*
Y130746D01*
Y130800D01*
X233957D01*
Y130853D01*
X233903D01*
Y130907D01*
Y130961D01*
X233849D01*
Y131015D01*
Y131068D01*
Y131122D01*
X233796D01*
Y131176D01*
Y131229D01*
Y131283D01*
X233742D01*
Y131337D01*
Y131391D01*
Y131444D01*
X233688D01*
Y131498D01*
Y131552D01*
Y131606D01*
X233634D01*
Y131659D01*
Y131713D01*
Y131767D01*
Y131820D01*
Y131874D01*
Y131928D01*
Y131982D01*
Y132035D01*
X233688D01*
Y132089D01*
Y132143D01*
X233742D01*
Y132197D01*
X233849D01*
Y132250D01*
X233957D01*
Y132304D01*
X234172D01*
Y132358D01*
Y132412D01*
X231915D01*
Y132465D01*
X232882D01*
Y132519D01*
X233849D01*
Y132573D01*
X234816D01*
Y132626D01*
X235730D01*
Y132680D01*
X236536D01*
Y132734D01*
X237718D01*
Y132788D01*
X238470D01*
Y132841D01*
X239545D01*
Y132788D01*
X239760D01*
Y132734D01*
X239867D01*
Y132680D01*
X239974D01*
Y132626D01*
X240028D01*
Y132573D01*
X240136D01*
Y132519D01*
X240190D01*
Y132465D01*
X240243D01*
Y132412D01*
X240297D01*
Y132358D01*
X240351D01*
Y132304D01*
Y132250D01*
X240404D01*
Y132197D01*
X240458D01*
Y132143D01*
Y132089D01*
X240512D01*
Y132035D01*
Y131982D01*
X240566D01*
Y131928D01*
Y131874D01*
X240619D01*
Y131820D01*
Y131767D01*
X240673D01*
Y131713D01*
Y131659D01*
X240727D01*
Y131606D01*
Y131552D01*
X240780D01*
Y131498D01*
Y131444D01*
X240834D01*
Y131391D01*
Y131337D01*
X240888D01*
Y131283D01*
Y131229D01*
Y131176D01*
X240942D01*
Y131122D01*
Y131068D01*
X240995D01*
Y131015D01*
Y130961D01*
Y130907D01*
X241049D01*
Y130853D01*
X241103D01*
Y130800D01*
Y130746D01*
X241157D01*
Y130692D01*
Y130638D01*
X241210D01*
Y130585D01*
Y130531D01*
X241264D01*
Y130477D01*
Y130423D01*
Y130370D01*
X241318D01*
Y130316D01*
Y130262D01*
X241371D01*
Y130209D01*
X241425D01*
Y130155D01*
Y130101D01*
Y130047D01*
X241479D01*
Y129994D01*
X241533D01*
Y129940D01*
Y129886D01*
X241640D01*
Y129832D01*
X241909D01*
Y129886D01*
X241963D01*
Y129940D01*
X242070D01*
Y129994D01*
X242124D01*
Y130047D01*
X242231D01*
Y130101D01*
X242285D01*
Y130155D01*
Y130209D01*
X242339D01*
Y130262D01*
X242392D01*
Y130316D01*
X242446D01*
Y130370D01*
X242500D01*
Y130423D01*
X242554D01*
Y130477D01*
Y130531D01*
X242607D01*
Y130585D01*
X242661D01*
Y130638D01*
Y130692D01*
X242715D01*
Y130746D01*
Y130800D01*
Y130853D01*
X242769D01*
Y130907D01*
Y130961D01*
Y131015D01*
Y131068D01*
Y131122D01*
Y131176D01*
Y131229D01*
Y131283D01*
Y131337D01*
Y131391D01*
Y131444D01*
Y131498D01*
Y131552D01*
Y131606D01*
Y131659D01*
Y131713D01*
Y131767D01*
Y131820D01*
Y131874D01*
Y131928D01*
Y131982D01*
Y132035D01*
Y132089D01*
X242822D01*
Y132143D01*
Y132197D01*
Y132250D01*
Y132304D01*
X242930D01*
Y132358D01*
Y132412D01*
Y132465D01*
X242983D01*
Y132519D01*
Y132573D01*
X243037D01*
Y132626D01*
Y132680D01*
X243091D01*
Y132734D01*
X243145D01*
Y132788D01*
X243198D01*
Y132841D01*
Y132895D01*
X243252D01*
Y132949D01*
X243306D01*
Y133003D01*
X243360D01*
Y133056D01*
X243413D01*
Y133110D01*
X243467D01*
Y133164D01*
X243575D01*
Y133218D01*
X243628D01*
Y133271D01*
X243682D01*
Y133325D01*
X243789D01*
Y133379D01*
X243897D01*
Y133432D01*
X244004D01*
Y133486D01*
X244112D01*
Y133540D01*
X244165D01*
Y133594D01*
X244327D01*
Y133647D01*
X244434D01*
Y133701D01*
X244542D01*
Y133755D01*
X244649D01*
Y133809D01*
Y133862D01*
X244757D01*
Y133916D01*
X244864D01*
Y133970D01*
X245025D01*
Y134023D01*
X245133D01*
Y134077D01*
X245240D01*
Y134131D01*
X245401D01*
Y134185D01*
X245563D01*
Y134238D01*
X245777D01*
Y134292D01*
X246100D01*
Y134346D01*
X247551D01*
Y134292D01*
X248088D01*
Y134238D01*
X248518D01*
Y134185D01*
X248840D01*
Y134131D01*
X249162D01*
Y134077D01*
X249485D01*
Y134023D01*
X249753D01*
Y133970D01*
X250022D01*
Y133916D01*
X250291D01*
Y133862D01*
X250559D01*
Y133809D01*
X250613D01*
Y133755D01*
X250882D01*
Y133701D01*
X251150D01*
Y133647D01*
X251903D01*
Y133701D01*
X252171D01*
Y133755D01*
X252386D01*
Y133809D01*
Y133862D01*
X252601D01*
Y133916D01*
X252762D01*
Y133970D01*
X252924D01*
Y134023D01*
X252977D01*
Y134077D01*
X253031D01*
Y134131D01*
Y134185D01*
Y134238D01*
Y134292D01*
X252977D01*
Y134346D01*
Y134400D01*
Y134453D01*
X252924D01*
Y134507D01*
Y134561D01*
X252870D01*
Y134615D01*
Y134668D01*
X252816D01*
Y134722D01*
X252762D01*
Y134776D01*
Y134829D01*
X252709D01*
Y134883D01*
X252655D01*
Y134937D01*
X252601D01*
Y134991D01*
X252494D01*
Y135044D01*
X252440D01*
Y135098D01*
X252386D01*
Y135152D01*
X252332D01*
Y135205D01*
X252225D01*
Y135259D01*
X252064D01*
Y135313D01*
X251903D01*
Y135367D01*
X251688D01*
Y135421D01*
X251473D01*
Y135474D01*
X251258D01*
Y135528D01*
X250989D01*
Y135582D01*
X250774D01*
Y135635D01*
Y135689D01*
X250559D01*
Y135743D01*
X250344D01*
Y135797D01*
X250130D01*
Y135850D01*
X249915D01*
Y135904D01*
X249753D01*
Y135958D01*
X249646D01*
Y136012D01*
X249485D01*
Y136065D01*
X249377D01*
Y136119D01*
X249324D01*
Y136173D01*
X249216D01*
Y136226D01*
X249162D01*
Y136280D01*
X249109D01*
Y136334D01*
X249055D01*
Y136388D01*
X249001D01*
Y136441D01*
Y136495D01*
X248948D01*
Y136549D01*
Y136602D01*
Y136656D01*
Y136710D01*
Y136764D01*
Y136818D01*
Y136871D01*
Y136925D01*
Y136979D01*
X249001D01*
Y137032D01*
Y137086D01*
X249055D01*
Y137140D01*
Y137194D01*
X249109D01*
Y137247D01*
X249162D01*
Y137301D01*
X249216D01*
Y137355D01*
X249270D01*
Y137408D01*
Y137462D01*
X249324D01*
Y137516D01*
X249377D01*
Y137570D01*
X249431D01*
Y137623D01*
Y137677D01*
X249485D01*
Y137731D01*
X249538D01*
Y137785D01*
X249592D01*
Y137838D01*
X249646D01*
Y137892D01*
X249700D01*
Y137946D01*
Y137999D01*
X249753D01*
Y138053D01*
X249807D01*
Y138107D01*
X249861D01*
Y138161D01*
X249915D01*
Y138214D01*
X249968D01*
Y138268D01*
X250022D01*
Y138322D01*
X250076D01*
Y138376D01*
X250130D01*
Y138429D01*
X250183D01*
Y138483D01*
X250237D01*
Y138537D01*
X250291D01*
Y138591D01*
X250344D01*
Y138644D01*
X250398D01*
Y138698D01*
X250452D01*
Y138752D01*
X250506D01*
Y138805D01*
X250559D01*
Y138859D01*
X250613D01*
Y138913D01*
X250721D01*
Y138967D01*
X250774D01*
Y139020D01*
X250828D01*
Y139074D01*
X250936D01*
Y139128D01*
X250989D01*
Y139182D01*
X251097D01*
Y139235D01*
Y139289D01*
X251204D01*
Y139343D01*
Y139397D01*
X250559D01*
Y139343D01*
X249807D01*
Y139289D01*
X249109D01*
Y139235D01*
Y139182D01*
X248357D01*
Y139128D01*
X247658D01*
Y139074D01*
X246959D01*
Y139020D01*
X246207D01*
Y138967D01*
X245509D01*
Y138913D01*
X244757D01*
Y138859D01*
X244058D01*
Y138805D01*
X243360D01*
Y138752D01*
X242607D01*
Y138698D01*
X241909D01*
Y138644D01*
X241157D01*
Y138591D01*
X240458D01*
Y138537D01*
X239706D01*
Y138483D01*
X239007D01*
Y138429D01*
X238255D01*
Y138376D01*
X237557D01*
Y138322D01*
X237503D01*
Y138268D01*
X236858D01*
Y138322D01*
X236912D01*
Y138376D01*
X237449D01*
Y138429D01*
X237986D01*
Y138483D01*
X238470D01*
Y138537D01*
X239061D01*
Y138591D01*
X239545D01*
Y138644D01*
X240082D01*
Y138698D01*
X240619D01*
Y138752D01*
X241157D01*
Y138805D01*
X241694D01*
Y138859D01*
X242231D01*
Y138913D01*
X242769D01*
Y138967D01*
X243306D01*
Y139020D01*
X243843D01*
Y139074D01*
X244380D01*
Y139128D01*
X244918D01*
Y139182D01*
X245455D01*
Y139235D01*
X245509D01*
Y139289D01*
X245992D01*
Y139343D01*
X246530D01*
Y139397D01*
X247067D01*
Y139450D01*
X247604D01*
Y139504D01*
X248142D01*
Y139558D01*
X248679D01*
Y139611D01*
X249216D01*
Y139665D01*
X249753D01*
Y139719D01*
X250291D01*
Y139773D01*
X250828D01*
Y139826D01*
X251365D01*
Y139880D01*
X251849D01*
Y139934D01*
X252440D01*
Y139988D01*
X252816D01*
Y140041D01*
X253676D01*
Y139988D01*
D02*
G37*
%LPC*%
G36*
X253568Y139450D02*
X253031D01*
Y139397D01*
X252709D01*
Y139343D01*
X252547D01*
Y139289D01*
X252386D01*
Y139235D01*
X252332D01*
Y139182D01*
X252225D01*
Y139128D01*
X252118D01*
Y139074D01*
X252010D01*
Y139020D01*
X251903D01*
Y138967D01*
X251795D01*
Y138913D01*
X251742D01*
Y138859D01*
X251634D01*
Y138805D01*
X251527D01*
Y138752D01*
X251473D01*
Y138698D01*
X251365D01*
Y138644D01*
X251312D01*
Y138591D01*
X251258D01*
Y138537D01*
X251150D01*
Y138483D01*
X251097D01*
Y138429D01*
X251043D01*
Y138376D01*
X250989D01*
Y138322D01*
Y138268D01*
X250882D01*
Y138214D01*
X250828D01*
Y138161D01*
X250774D01*
Y138107D01*
X250721D01*
Y138053D01*
X250667D01*
Y137999D01*
X250613D01*
Y137946D01*
X250559D01*
Y137892D01*
X250506D01*
Y137838D01*
X250452D01*
Y137785D01*
X250398D01*
Y137731D01*
X250344D01*
Y137677D01*
X250291D01*
Y137623D01*
X250237D01*
Y137570D01*
X250183D01*
Y137516D01*
X250130D01*
Y137462D01*
Y137408D01*
X250076D01*
Y137355D01*
X250022D01*
Y137301D01*
X249968D01*
Y137247D01*
Y137194D01*
X249915D01*
Y137140D01*
X249807D01*
Y137086D01*
Y137032D01*
X249753D01*
Y136979D01*
X249700D01*
Y136925D01*
X249646D01*
Y136871D01*
Y136818D01*
X249592D01*
Y136764D01*
Y136710D01*
X249700D01*
Y136656D01*
X249807D01*
Y136602D01*
X249915D01*
Y136549D01*
X250022D01*
Y136495D01*
X250076D01*
Y136441D01*
X250237D01*
Y136388D01*
X250452D01*
Y136334D01*
X250667D01*
Y136280D01*
X250882D01*
Y136226D01*
X251097D01*
Y136173D01*
X251365D01*
Y136119D01*
X251580D01*
Y136065D01*
X251795D01*
Y136012D01*
X252010D01*
Y135958D01*
X252225D01*
Y135904D01*
X252386D01*
Y135850D01*
X252494D01*
Y135797D01*
X252601D01*
Y135743D01*
X252709D01*
Y135689D01*
X252762D01*
Y135635D01*
X252816D01*
Y135582D01*
X252870D01*
Y135528D01*
X252924D01*
Y135474D01*
X252977D01*
Y135421D01*
X253031D01*
Y135367D01*
X253085D01*
Y135313D01*
X253138D01*
Y135259D01*
X253192D01*
Y135205D01*
X253246D01*
Y135152D01*
X253300D01*
Y135098D01*
Y135044D01*
X253353D01*
Y134991D01*
X253407D01*
Y134937D01*
Y134883D01*
X253461D01*
Y134829D01*
Y134776D01*
X253515D01*
Y134722D01*
Y134668D01*
Y134615D01*
X253568D01*
Y134561D01*
X253622D01*
Y134507D01*
Y134453D01*
Y134400D01*
Y134346D01*
X253676D01*
Y134292D01*
Y134238D01*
Y134185D01*
Y134131D01*
Y134077D01*
Y134023D01*
X253622D01*
Y133970D01*
Y133916D01*
Y133862D01*
X253568D01*
Y133809D01*
X253515D01*
Y133755D01*
Y133701D01*
X253461D01*
Y133647D01*
Y133594D01*
Y133540D01*
X253353D01*
Y133486D01*
X253300D01*
Y133432D01*
X253246D01*
Y133379D01*
X253085D01*
Y133325D01*
X252924D01*
Y133271D01*
X252709D01*
Y133218D01*
X252494D01*
Y133164D01*
X252279D01*
Y133110D01*
X252010D01*
Y133056D01*
X251043D01*
Y133110D01*
X250774D01*
Y133164D01*
X250506D01*
Y133218D01*
X250237D01*
Y133271D01*
X249968D01*
Y133325D01*
X249646D01*
Y133379D01*
X249377D01*
Y133432D01*
X249109D01*
Y133486D01*
X248733D01*
Y133540D01*
X248410D01*
Y133594D01*
X248034D01*
Y133647D01*
X247497D01*
Y133701D01*
X246207D01*
Y133647D01*
X245885D01*
Y133594D01*
X245724D01*
Y133540D01*
X245563D01*
Y133486D01*
X245455D01*
Y133432D01*
X245294D01*
Y133379D01*
X245186D01*
Y133325D01*
X245079D01*
Y133271D01*
X244918D01*
Y133218D01*
X244810D01*
Y133164D01*
X244703D01*
Y133110D01*
X244595D01*
Y133056D01*
X244488D01*
Y133003D01*
X244380D01*
Y132949D01*
X244273D01*
Y132895D01*
Y132841D01*
X244165D01*
Y132788D01*
X244112D01*
Y132734D01*
X244004D01*
Y132680D01*
X243951D01*
Y132626D01*
X243843D01*
Y132573D01*
X243789D01*
Y132519D01*
X243736D01*
Y132465D01*
X243682D01*
Y132412D01*
X243575D01*
Y132358D01*
Y132304D01*
X243521D01*
Y132250D01*
Y132197D01*
X243467D01*
Y132143D01*
Y132089D01*
Y132035D01*
Y131982D01*
X243413D01*
Y131928D01*
Y131874D01*
Y131820D01*
Y131767D01*
Y131713D01*
Y131659D01*
Y131606D01*
Y131552D01*
Y131498D01*
Y131444D01*
Y131391D01*
Y131337D01*
Y131283D01*
Y131229D01*
Y131176D01*
Y131122D01*
Y131068D01*
Y131015D01*
Y130961D01*
Y130907D01*
Y130853D01*
Y130800D01*
X243360D01*
Y130746D01*
Y130692D01*
Y130638D01*
Y130585D01*
X243306D01*
Y130531D01*
Y130477D01*
X243252D01*
Y130423D01*
Y130370D01*
X243198D01*
Y130316D01*
Y130262D01*
X243145D01*
Y130209D01*
Y130155D01*
X243091D01*
Y130101D01*
Y130047D01*
X243037D01*
Y129994D01*
X242983D01*
Y129940D01*
X242930D01*
Y129886D01*
X242876D01*
Y129832D01*
X242822D01*
Y129779D01*
X242769D01*
Y129725D01*
X242715D01*
Y129671D01*
X242661D01*
Y129618D01*
X242607D01*
Y129564D01*
X242554D01*
Y129510D01*
X242446D01*
Y129456D01*
X242392D01*
Y129403D01*
X242285D01*
Y129349D01*
X242178D01*
Y129295D01*
Y129242D01*
X242070D01*
Y129188D01*
X241479D01*
Y129242D01*
X241371D01*
Y129295D01*
X241318D01*
Y129349D01*
X241210D01*
Y129403D01*
X241157D01*
Y129456D01*
X241103D01*
Y129510D01*
X241049D01*
Y129564D01*
X240995D01*
Y129618D01*
X240942D01*
Y129671D01*
Y129725D01*
X240888D01*
Y129779D01*
X240834D01*
Y129832D01*
Y129886D01*
X240780D01*
Y129940D01*
Y129994D01*
X240727D01*
Y130047D01*
Y130101D01*
X240673D01*
Y130155D01*
Y130209D01*
Y130262D01*
X240619D01*
Y130316D01*
Y130370D01*
X240566D01*
Y130423D01*
Y130477D01*
Y130531D01*
X240512D01*
Y130585D01*
Y130638D01*
X240458D01*
Y130692D01*
Y130746D01*
X240404D01*
Y130800D01*
Y130853D01*
Y130907D01*
X240351D01*
Y130961D01*
Y131015D01*
X240297D01*
Y131068D01*
Y131122D01*
Y131176D01*
X240243D01*
Y131229D01*
Y131283D01*
X240190D01*
Y131337D01*
X240136D01*
Y131391D01*
Y131444D01*
X240082D01*
Y131498D01*
X240028D01*
Y131552D01*
Y131606D01*
X239974D01*
Y131659D01*
Y131713D01*
X239921D01*
Y131767D01*
X239867D01*
Y131820D01*
Y131874D01*
X239813D01*
Y131928D01*
X239760D01*
Y131982D01*
Y132035D01*
X239706D01*
Y132089D01*
X239652D01*
Y132143D01*
X239598D01*
Y132197D01*
X239437D01*
Y132250D01*
X237718D01*
Y132197D01*
X237019D01*
Y132143D01*
X236482D01*
Y132089D01*
X235999D01*
Y132035D01*
X235622D01*
Y131982D01*
X235569D01*
Y131928D01*
X235246D01*
Y131874D01*
X234924D01*
Y131820D01*
X234655D01*
Y131767D01*
X234440D01*
Y131713D01*
X234333D01*
Y131659D01*
Y131606D01*
Y131552D01*
Y131498D01*
X234387D01*
Y131444D01*
Y131391D01*
X234440D01*
Y131337D01*
Y131283D01*
Y131229D01*
X234494D01*
Y131176D01*
Y131122D01*
X234548D01*
Y131068D01*
Y131015D01*
Y130961D01*
Y130907D01*
X234601D01*
Y130853D01*
Y130800D01*
X234655D01*
Y130746D01*
Y130692D01*
X234709D01*
Y130638D01*
Y130585D01*
X234763D01*
Y130531D01*
X234816D01*
Y130477D01*
X234763D01*
Y130423D01*
X234870D01*
Y130370D01*
Y130316D01*
X234924D01*
Y130262D01*
Y130209D01*
X234978D01*
Y130155D01*
Y130101D01*
Y130047D01*
X235031D01*
Y129994D01*
Y129940D01*
X235085D01*
Y129886D01*
Y129832D01*
X235139D01*
Y129779D01*
Y129725D01*
X235192D01*
Y129671D01*
Y129618D01*
X235246D01*
Y129564D01*
Y129510D01*
X235300D01*
Y129456D01*
Y129403D01*
X235354D01*
Y129349D01*
Y129295D01*
X235407D01*
Y129242D01*
Y129188D01*
X235461D01*
Y129134D01*
Y129080D01*
Y129026D01*
X235515D01*
Y128973D01*
X235569D01*
Y128919D01*
Y128865D01*
X235622D01*
Y128812D01*
Y128758D01*
X235730D01*
Y128704D01*
Y128650D01*
X235784D01*
Y128597D01*
X235837D01*
Y128543D01*
Y128489D01*
X235891D01*
Y128436D01*
X235945D01*
Y128382D01*
Y128328D01*
Y128274D01*
X235999D01*
Y128221D01*
X236052D01*
Y128167D01*
Y128113D01*
X236106D01*
Y128059D01*
X236160D01*
Y128006D01*
X236213D01*
Y127952D01*
X236267D01*
Y127898D01*
X236643D01*
Y127845D01*
X237127D01*
Y127791D01*
X237396D01*
Y127737D01*
X237557D01*
Y127683D01*
X237664D01*
Y127630D01*
X237718D01*
Y127576D01*
X237772D01*
Y127522D01*
X237879D01*
Y127468D01*
Y127415D01*
X237933D01*
Y127361D01*
X237986D01*
Y127307D01*
X238040D01*
Y127253D01*
X238094D01*
Y127200D01*
X238148D01*
Y127146D01*
X238201D01*
Y127092D01*
X238255D01*
Y127039D01*
X238309D01*
Y126985D01*
X238363D01*
Y126931D01*
X238416D01*
Y126877D01*
X238470D01*
Y126824D01*
Y126770D01*
X238524D01*
Y126716D01*
X238578D01*
Y126662D01*
X238631D01*
Y126609D01*
X238685D01*
Y126555D01*
Y126501D01*
Y126447D01*
X238739D01*
Y126394D01*
X238792D01*
Y126340D01*
X238846D01*
Y126286D01*
X238900D01*
Y126233D01*
Y126179D01*
X238954D01*
Y126125D01*
X239007D01*
Y126071D01*
X239061D01*
Y126018D01*
X239115D01*
Y125964D01*
Y125910D01*
Y125856D01*
Y125803D01*
Y125749D01*
Y125695D01*
Y125642D01*
Y125588D01*
X239061D01*
Y125534D01*
X239007D01*
Y125480D01*
X238685D01*
Y125534D01*
X238631D01*
Y125588D01*
X238578D01*
Y125642D01*
X238524D01*
Y125695D01*
X238470D01*
Y125749D01*
X238363D01*
Y125803D01*
X238309D01*
Y125856D01*
X238201D01*
Y125910D01*
X238040D01*
Y125964D01*
X237933D01*
Y126018D01*
X237718D01*
Y126071D01*
X237396D01*
Y126125D01*
X237127D01*
Y126071D01*
X236751D01*
Y126018D01*
X236590D01*
Y125964D01*
X236428D01*
Y125910D01*
X236321D01*
Y125856D01*
X236160D01*
Y125803D01*
X236106D01*
Y125749D01*
X235999D01*
Y125695D01*
X235891D01*
Y125642D01*
Y125588D01*
X235837D01*
Y125534D01*
X235730D01*
Y125480D01*
X235676D01*
Y125427D01*
X235622D01*
Y125373D01*
X235515D01*
Y125319D01*
X235461D01*
Y125265D01*
X235407D01*
Y125212D01*
X235354D01*
Y125158D01*
X235300D01*
Y125104D01*
X235246D01*
Y125050D01*
X235192D01*
Y124997D01*
X235139D01*
Y124943D01*
X235085D01*
Y124889D01*
X235031D01*
Y124836D01*
X234978D01*
Y124782D01*
Y124728D01*
Y124674D01*
X234924D01*
Y124621D01*
X234870D01*
Y124567D01*
X234816D01*
Y124513D01*
Y124460D01*
X234763D01*
Y124406D01*
X234709D01*
Y124352D01*
X234655D01*
Y124298D01*
X234601D01*
Y124244D01*
Y124191D01*
X234548D01*
Y124137D01*
Y124083D01*
X234494D01*
Y124030D01*
X234440D01*
Y123976D01*
Y123922D01*
X234387D01*
Y123868D01*
Y123815D01*
Y123761D01*
X234333D01*
Y123707D01*
Y123653D01*
X234279D01*
Y123600D01*
Y123546D01*
X234225D01*
Y123492D01*
Y123439D01*
X234172D01*
Y123385D01*
Y123331D01*
Y123277D01*
X234118D01*
Y123224D01*
Y123170D01*
X234064D01*
Y123116D01*
Y123063D01*
X234011D01*
Y123009D01*
Y122955D01*
Y122901D01*
Y122848D01*
X233957D01*
Y122794D01*
X233903D01*
Y122740D01*
X233957D01*
Y122686D01*
X233903D01*
Y122633D01*
X233849D01*
Y122579D01*
Y122525D01*
Y122471D01*
X233796D01*
Y122418D01*
Y122364D01*
Y122310D01*
Y122257D01*
X233742D01*
Y122203D01*
Y122149D01*
Y122095D01*
Y122042D01*
Y121988D01*
X233688D01*
Y121934D01*
Y121880D01*
Y121827D01*
Y121773D01*
Y121719D01*
X233634D01*
Y121666D01*
Y121612D01*
Y121558D01*
Y121504D01*
Y121451D01*
Y121397D01*
X233581D01*
Y121343D01*
Y121289D01*
Y121236D01*
Y121182D01*
Y121128D01*
Y121074D01*
Y121021D01*
Y120967D01*
Y120913D01*
Y120860D01*
X233527D01*
Y120806D01*
Y120752D01*
Y120698D01*
Y120645D01*
Y120591D01*
Y120537D01*
Y120483D01*
Y120430D01*
Y120376D01*
Y120322D01*
Y120268D01*
Y120215D01*
Y120161D01*
Y120107D01*
Y120054D01*
Y120000D01*
Y119946D01*
Y119892D01*
Y119839D01*
Y119785D01*
Y119731D01*
X233581D01*
Y119677D01*
Y119624D01*
Y119570D01*
Y119516D01*
Y119463D01*
Y119409D01*
Y119355D01*
Y119301D01*
Y119248D01*
Y119194D01*
X233634D01*
Y119140D01*
Y119086D01*
Y119033D01*
Y118979D01*
Y118925D01*
Y118871D01*
X233688D01*
Y118818D01*
Y118764D01*
Y118710D01*
Y118657D01*
X233742D01*
Y118603D01*
Y118549D01*
Y118495D01*
Y118442D01*
X233796D01*
Y118388D01*
Y118334D01*
Y118280D01*
Y118227D01*
X233849D01*
Y118173D01*
Y118119D01*
Y118066D01*
X233903D01*
Y118012D01*
X233957D01*
Y117958D01*
Y117904D01*
X234011D01*
Y117851D01*
Y117797D01*
X234064D01*
Y117743D01*
Y117689D01*
X234118D01*
Y117636D01*
Y117582D01*
X234172D01*
Y117528D01*
Y117474D01*
Y117421D01*
X234225D01*
Y117367D01*
Y117313D01*
X234279D01*
Y117260D01*
Y117206D01*
X234333D01*
Y117152D01*
X234387D01*
Y117098D01*
Y117045D01*
X234440D01*
Y116991D01*
X234494D01*
Y116937D01*
Y116884D01*
X234548D01*
Y116830D01*
X234601D01*
Y116776D01*
X234655D01*
Y116722D01*
X234709D01*
Y116669D01*
X234763D01*
Y116615D01*
X234816D01*
Y116561D01*
X234870D01*
Y116507D01*
X234924D01*
Y116454D01*
X234978D01*
Y116400D01*
X235031D01*
Y116346D01*
X235139D01*
Y116293D01*
X235192D01*
Y116239D01*
X235300D01*
Y116185D01*
X235407D01*
Y116131D01*
X235569D01*
Y116077D01*
X235676D01*
Y116024D01*
X235891D01*
Y115970D01*
X236697D01*
Y116024D01*
X236966D01*
Y116077D01*
X237127D01*
Y116131D01*
X237288D01*
Y116185D01*
X237449D01*
Y116239D01*
X237557D01*
Y116293D01*
X237664D01*
Y116346D01*
X237772D01*
Y116400D01*
X237879D01*
Y116454D01*
X237933D01*
Y116507D01*
X238040D01*
Y116561D01*
Y116615D01*
X238094D01*
Y116669D01*
X238201D01*
Y116722D01*
Y116776D01*
X238309D01*
Y116830D01*
X238363D01*
Y116884D01*
X238416D01*
Y116937D01*
X238470D01*
Y116991D01*
X238524D01*
Y117045D01*
X238578D01*
Y117098D01*
X238631D01*
Y117152D01*
Y117206D01*
X238685D01*
Y117260D01*
X238739D01*
Y117313D01*
Y117367D01*
X238792D01*
Y117421D01*
Y117474D01*
Y117528D01*
X238846D01*
Y117582D01*
Y117636D01*
Y117689D01*
X238900D01*
Y117743D01*
X238954D01*
Y117797D01*
X239061D01*
Y117851D01*
X239276D01*
Y117797D01*
X239813D01*
Y117743D01*
X240351D01*
Y117689D01*
X240888D01*
Y117636D01*
X241425D01*
Y117582D01*
X241963D01*
Y117528D01*
X242500D01*
Y117474D01*
X242554D01*
Y117421D01*
X243091D01*
Y117367D01*
X243682D01*
Y117313D01*
X244219D01*
Y117260D01*
X244864D01*
Y117206D01*
X245455D01*
Y117152D01*
X246046D01*
Y117098D01*
X246691D01*
Y117045D01*
X247389D01*
Y116991D01*
X248142D01*
Y116937D01*
X249646D01*
Y116991D01*
X249915D01*
Y117045D01*
X250130D01*
Y117098D01*
X250237D01*
Y117152D01*
X250291D01*
Y117206D01*
X250667D01*
Y117152D01*
X250721D01*
Y117098D01*
Y117045D01*
X250774D01*
Y116991D01*
Y116937D01*
Y116884D01*
X250828D01*
Y116830D01*
Y116776D01*
Y116722D01*
X250936D01*
Y116669D01*
Y116615D01*
Y116561D01*
Y116507D01*
X250989D01*
Y116454D01*
Y116400D01*
X251043D01*
Y116346D01*
Y116293D01*
X251097D01*
Y116239D01*
Y116185D01*
X251150D01*
Y116131D01*
X251204D01*
Y116077D01*
Y116024D01*
Y115970D01*
X251258D01*
Y115916D01*
X251312D01*
Y115863D01*
Y115809D01*
X251365D01*
Y115755D01*
Y115701D01*
X251419D01*
Y115648D01*
Y115594D01*
X251473D01*
Y115540D01*
X251527D01*
Y115487D01*
Y115433D01*
X251580D01*
Y115379D01*
X251634D01*
Y115325D01*
X251688D01*
Y115272D01*
X251742D01*
Y115218D01*
X251795D01*
Y115164D01*
X251849D01*
Y115110D01*
X251903D01*
Y115057D01*
X251956D01*
Y115003D01*
X252010D01*
Y114949D01*
X252064D01*
Y114895D01*
X252118D01*
Y114842D01*
X252171D01*
Y114788D01*
X252225D01*
Y114734D01*
X252279D01*
Y114681D01*
X252332D01*
Y114627D01*
X252386D01*
Y114573D01*
X252494D01*
Y114519D01*
X252601D01*
Y114466D01*
X252655D01*
Y114412D01*
X252762D01*
Y114358D01*
X252816D01*
Y114304D01*
X252924D01*
Y114251D01*
X253031D01*
Y114197D01*
X253192D01*
Y114143D01*
X253300D01*
Y114090D01*
X253407D01*
Y114036D01*
X253568D01*
Y113982D01*
X253730D01*
Y113928D01*
X253891D01*
Y113875D01*
Y113821D01*
X254159D01*
Y113767D01*
X254374D01*
Y113713D01*
X254804D01*
Y113660D01*
X255664D01*
Y113713D01*
X256040D01*
Y113767D01*
X256309D01*
Y113821D01*
X256470D01*
Y113875D01*
X256523D01*
Y113928D01*
X256685D01*
Y113982D01*
X256846D01*
Y114036D01*
X256953D01*
Y114090D01*
X257061D01*
Y114143D01*
X257222D01*
Y114197D01*
X257329D01*
Y114251D01*
X257437D01*
Y114304D01*
X257544D01*
Y114358D01*
X257598D01*
Y114412D01*
X257706D01*
Y114466D01*
X257813D01*
Y114519D01*
X257867D01*
Y114573D01*
X257974D01*
Y114627D01*
X258028D01*
Y114681D01*
X258135D01*
Y114734D01*
X258189D01*
Y114788D01*
X258243D01*
Y114842D01*
X258297D01*
Y114895D01*
X258350D01*
Y114949D01*
X258404D01*
Y115003D01*
X258458D01*
Y115057D01*
X258511D01*
Y115110D01*
X258619D01*
Y115164D01*
X258673D01*
Y115218D01*
X258726D01*
Y115272D01*
X258780D01*
Y115325D01*
X258834D01*
Y115379D01*
Y115433D01*
X258941D01*
Y115487D01*
X258995D01*
Y115540D01*
X259049D01*
Y115594D01*
X259103D01*
Y115648D01*
Y115701D01*
X259156D01*
Y115755D01*
X259210D01*
Y115809D01*
Y115863D01*
X259264D01*
Y115916D01*
X259317D01*
Y115970D01*
X259371D01*
Y116024D01*
X259425D01*
Y116077D01*
Y116131D01*
X259479D01*
Y116185D01*
X259532D01*
Y116239D01*
Y116293D01*
X259586D01*
Y116346D01*
X259640D01*
Y116400D01*
Y116454D01*
X259694D01*
Y116507D01*
X259747D01*
Y116561D01*
Y116615D01*
Y116669D01*
X259801D01*
Y116722D01*
X259855D01*
Y116776D01*
Y116830D01*
X259962D01*
Y116884D01*
Y116937D01*
X260016D01*
Y116991D01*
Y117045D01*
X260070D01*
Y117098D01*
Y117152D01*
Y117206D01*
X260123D01*
Y117260D01*
Y117313D01*
X260177D01*
Y117367D01*
Y117421D01*
X260231D01*
Y117474D01*
Y117528D01*
Y117582D01*
X260285D01*
Y117636D01*
Y117689D01*
X260338D01*
Y117743D01*
Y117797D01*
Y117851D01*
X260392D01*
Y117904D01*
Y117958D01*
Y118012D01*
X260446D01*
Y118066D01*
Y118119D01*
Y118173D01*
X260500D01*
Y118227D01*
Y118280D01*
Y118334D01*
X260553D01*
Y118388D01*
Y118442D01*
Y118495D01*
Y118549D01*
X260607D01*
Y118603D01*
Y118657D01*
Y118710D01*
X260661D01*
Y118764D01*
Y118818D01*
Y118871D01*
Y118925D01*
Y118979D01*
X260715D01*
Y119033D01*
Y119086D01*
X260768D01*
Y119140D01*
Y119194D01*
Y119248D01*
Y119301D01*
X260822D01*
Y119355D01*
Y119409D01*
Y119463D01*
Y119516D01*
Y119570D01*
Y119624D01*
X260876D01*
Y119677D01*
Y119731D01*
Y119785D01*
Y119839D01*
Y119892D01*
Y119946D01*
Y120000D01*
Y120054D01*
Y120107D01*
Y120161D01*
X260929D01*
Y120215D01*
Y120268D01*
Y120322D01*
Y120376D01*
Y120430D01*
Y120483D01*
Y120537D01*
Y120591D01*
Y120645D01*
Y120698D01*
Y120752D01*
Y120806D01*
Y120860D01*
Y120913D01*
Y120967D01*
Y121021D01*
Y121074D01*
Y121128D01*
Y121182D01*
Y121236D01*
Y121289D01*
Y121343D01*
Y121397D01*
Y121451D01*
Y121504D01*
X260876D01*
Y121558D01*
Y121612D01*
Y121666D01*
Y121719D01*
Y121773D01*
Y121827D01*
Y121880D01*
Y121934D01*
Y121988D01*
X260822D01*
Y122042D01*
Y122095D01*
Y122149D01*
Y122203D01*
Y122257D01*
Y122310D01*
Y122364D01*
X260715D01*
Y122418D01*
X260768D01*
Y122471D01*
Y122525D01*
Y122579D01*
X260715D01*
Y122633D01*
X260661D01*
Y122686D01*
Y122740D01*
Y122794D01*
Y122848D01*
X260607D01*
Y122901D01*
Y122955D01*
Y123009D01*
Y123063D01*
X260553D01*
Y123116D01*
Y123170D01*
Y123224D01*
X260500D01*
Y123277D01*
Y123331D01*
Y123385D01*
X260446D01*
Y123439D01*
Y123492D01*
Y123546D01*
X260392D01*
Y123600D01*
Y123653D01*
X260338D01*
Y123707D01*
Y123761D01*
Y123815D01*
X260285D01*
Y123868D01*
Y123922D01*
Y123976D01*
X260231D01*
Y124030D01*
Y124083D01*
X260177D01*
Y124137D01*
Y124191D01*
X260123D01*
Y124244D01*
Y124298D01*
X260070D01*
Y124352D01*
Y124406D01*
X260016D01*
Y124460D01*
X259962D01*
Y124513D01*
Y124567D01*
X259909D01*
Y124621D01*
Y124674D01*
X259801D01*
Y124728D01*
Y124782D01*
Y124836D01*
X259747D01*
Y124889D01*
X259694D01*
Y124943D01*
X259640D01*
Y124997D01*
Y125050D01*
Y125104D01*
X259586D01*
Y125158D01*
X259640D01*
Y125212D01*
Y125265D01*
Y125319D01*
X259694D01*
Y125373D01*
X259801D01*
Y125427D01*
X259855D01*
Y125480D01*
X259909D01*
Y125534D01*
Y125588D01*
Y125642D01*
Y125695D01*
X259855D01*
Y125749D01*
X259801D01*
Y125803D01*
X259747D01*
Y125856D01*
X259694D01*
Y125910D01*
X259640D01*
Y125964D01*
X259586D01*
Y126018D01*
X259479D01*
Y126071D01*
X259425D01*
Y126125D01*
X259317D01*
Y126179D01*
X259264D01*
Y126233D01*
X259156D01*
Y126286D01*
X259049D01*
Y126340D01*
X258941D01*
Y126394D01*
X258888D01*
Y126447D01*
X258726D01*
Y126501D01*
X258673D01*
Y126555D01*
X258619D01*
Y126609D01*
X258511D01*
Y126662D01*
X258404D01*
Y126716D01*
X258243D01*
Y126770D01*
X258082D01*
Y126824D01*
X257921D01*
Y126877D01*
X257813D01*
Y126931D01*
X257598D01*
Y126985D01*
X257383D01*
Y127039D01*
X257115D01*
Y127092D01*
X256792D01*
Y127146D01*
X256738D01*
Y127200D01*
X256685D01*
Y127253D01*
X256631D01*
Y127307D01*
Y127361D01*
Y127415D01*
Y127468D01*
Y127522D01*
Y127576D01*
X256685D01*
Y127630D01*
X256738D01*
Y127683D01*
Y127737D01*
X256846D01*
Y127791D01*
X256900D01*
Y127845D01*
X256953D01*
Y127898D01*
X257061D01*
Y127952D01*
X257115D01*
Y128006D01*
X257222D01*
Y128059D01*
X257276D01*
Y128113D01*
X257383D01*
Y128167D01*
X257437D01*
Y128221D01*
X257544D01*
Y128274D01*
X257652D01*
Y128328D01*
X257706D01*
Y128382D01*
Y128436D01*
X257813D01*
Y128489D01*
X257867D01*
Y128543D01*
X257921D01*
Y128597D01*
X258028D01*
Y128650D01*
X258082D01*
Y128704D01*
X258189D01*
Y128758D01*
X258243D01*
Y128812D01*
X258350D01*
Y128865D01*
X258404D01*
Y128919D01*
X258511D01*
Y128973D01*
X258565D01*
Y129026D01*
X258619D01*
Y129080D01*
X258673D01*
Y129134D01*
X258780D01*
Y129188D01*
X258834D01*
Y129242D01*
X258888D01*
Y129295D01*
Y129349D01*
X258941D01*
Y129403D01*
X258995D01*
Y129456D01*
X259103D01*
Y129510D01*
X259156D01*
Y129564D01*
Y129618D01*
X259210D01*
Y129671D01*
Y129725D01*
Y129779D01*
X259264D01*
Y129832D01*
Y129886D01*
Y129940D01*
Y129994D01*
Y130047D01*
X259317D01*
Y130101D01*
Y130155D01*
Y130209D01*
Y130262D01*
Y130316D01*
Y130370D01*
Y130423D01*
Y130477D01*
Y130531D01*
Y130585D01*
Y130638D01*
Y130692D01*
Y130746D01*
Y130800D01*
Y130853D01*
Y130907D01*
Y130961D01*
Y131015D01*
Y131068D01*
Y131122D01*
Y131176D01*
Y131229D01*
Y131283D01*
Y131337D01*
Y131391D01*
X259264D01*
Y131444D01*
Y131498D01*
Y131552D01*
Y131606D01*
Y131659D01*
Y131713D01*
Y131767D01*
Y131820D01*
X259210D01*
Y131874D01*
Y131928D01*
Y131982D01*
Y132035D01*
Y132089D01*
Y132143D01*
Y132197D01*
X259156D01*
Y132250D01*
Y132304D01*
Y132358D01*
Y132412D01*
Y132465D01*
Y132519D01*
X259103D01*
Y132573D01*
Y132626D01*
Y132680D01*
Y132734D01*
Y132788D01*
X259049D01*
Y132841D01*
Y132895D01*
Y132949D01*
Y133003D01*
X258995D01*
Y133056D01*
Y133110D01*
Y133164D01*
Y133218D01*
X258941D01*
Y133271D01*
X258888D01*
Y133325D01*
Y133379D01*
Y133432D01*
Y133486D01*
X258834D01*
Y133540D01*
Y133594D01*
Y133647D01*
X258780D01*
Y133701D01*
Y133755D01*
Y133809D01*
Y133862D01*
X258726D01*
Y133916D01*
Y133970D01*
Y134023D01*
X258673D01*
Y134077D01*
Y134131D01*
Y134185D01*
X258619D01*
Y134238D01*
Y134292D01*
X258565D01*
Y134346D01*
Y134400D01*
Y134453D01*
X258511D01*
Y134507D01*
Y134561D01*
X258458D01*
Y134615D01*
X258404D01*
Y134668D01*
Y134722D01*
Y134776D01*
X258350D01*
Y134829D01*
X258297D01*
Y134883D01*
Y134937D01*
X258243D01*
Y134991D01*
X258189D01*
Y135044D01*
X258135D01*
Y135098D01*
X258082D01*
Y135152D01*
X258028D01*
Y135205D01*
X257974D01*
Y135259D01*
X257921D01*
Y135313D01*
X257867D01*
Y135367D01*
Y135421D01*
X257813D01*
Y135474D01*
X257759D01*
Y135528D01*
X257706D01*
Y135582D01*
X257652D01*
Y135635D01*
Y135689D01*
X257598D01*
Y135743D01*
X257544D01*
Y135797D01*
Y135850D01*
X257491D01*
Y135904D01*
X257437D01*
Y135958D01*
X257383D01*
Y136012D01*
X257329D01*
Y136065D01*
X257276D01*
Y136119D01*
X257222D01*
Y136173D01*
X257168D01*
Y136226D01*
X257115D01*
Y136280D01*
X257061D01*
Y136334D01*
X257007D01*
Y136388D01*
X256953D01*
Y136441D01*
X256900D01*
Y136495D01*
Y136549D01*
X256846D01*
Y136602D01*
X256792D01*
Y136656D01*
Y136710D01*
X256738D01*
Y136764D01*
X256685D01*
Y136818D01*
X256631D01*
Y136871D01*
X256577D01*
Y136925D01*
X256523D01*
Y136979D01*
X256470D01*
Y137032D01*
X256416D01*
Y137086D01*
X256309D01*
Y137140D01*
Y137194D01*
X256255D01*
Y137247D01*
X256201D01*
Y137301D01*
X256147D01*
Y137355D01*
X256094D01*
Y137408D01*
X256040D01*
Y137462D01*
Y137516D01*
X255986D01*
Y137570D01*
X255932D01*
Y137623D01*
X255879D01*
Y137677D01*
X255825D01*
Y137731D01*
X255717D01*
Y137785D01*
X255664D01*
Y137838D01*
X255610D01*
Y137892D01*
X255556D01*
Y137946D01*
X255503D01*
Y137999D01*
X255449D01*
Y138053D01*
X255395D01*
Y138107D01*
X255341D01*
Y138161D01*
X255288D01*
Y138214D01*
X255234D01*
Y138268D01*
X255180D01*
Y138322D01*
X255127D01*
Y138376D01*
X255073D01*
Y138429D01*
X255019D01*
Y138483D01*
X254965D01*
Y138537D01*
X254912D01*
Y138591D01*
X254804D01*
Y138644D01*
X254750D01*
Y138698D01*
X254697D01*
Y138752D01*
X254589D01*
Y138805D01*
X254536D01*
Y138859D01*
X254482D01*
Y138913D01*
X254428D01*
Y138967D01*
X254321D01*
Y139020D01*
X254267D01*
Y139074D01*
X254159D01*
Y139128D01*
X254106D01*
Y139182D01*
X253998D01*
Y139235D01*
Y139289D01*
X253891D01*
Y139343D01*
X253730D01*
Y139397D01*
X253568D01*
Y139450D01*
D02*
G37*
G36*
X239706Y117152D02*
X239330D01*
Y117098D01*
Y117045D01*
X239276D01*
Y116991D01*
Y116937D01*
X239222D01*
Y116884D01*
X239169D01*
Y116830D01*
X239115D01*
Y116776D01*
X239061D01*
Y116722D01*
Y116669D01*
X239007D01*
Y116615D01*
Y116561D01*
X238954D01*
Y116507D01*
X238900D01*
Y116454D01*
X238846D01*
Y116400D01*
X238792D01*
Y116346D01*
X238739D01*
Y116293D01*
X238685D01*
Y116239D01*
X238631D01*
Y116185D01*
X238578D01*
Y116131D01*
X238470D01*
Y116077D01*
X238416D01*
Y116024D01*
X238309D01*
Y115970D01*
X238255D01*
Y115916D01*
X238148D01*
Y115863D01*
X238040D01*
Y115809D01*
X237933D01*
Y115755D01*
X237825D01*
Y115701D01*
Y115648D01*
X237718D01*
Y115594D01*
X237557D01*
Y115540D01*
X237449D01*
Y115487D01*
X237234D01*
Y115433D01*
X237181D01*
Y115379D01*
Y115325D01*
X237879D01*
Y115272D01*
X238416D01*
Y115218D01*
X239007D01*
Y115164D01*
X239598D01*
Y115110D01*
X240136D01*
Y115057D01*
X240727D01*
Y115003D01*
X241318D01*
Y114949D01*
X241855D01*
Y114895D01*
X242446D01*
Y114842D01*
X242983D01*
Y114788D01*
X243037D01*
Y114734D01*
X243575D01*
Y114681D01*
X244165D01*
Y114627D01*
X244757D01*
Y114573D01*
X245348D01*
Y114519D01*
X245939D01*
Y114466D01*
X246476D01*
Y114412D01*
X247067D01*
Y114358D01*
X247658D01*
Y114304D01*
X248249D01*
Y114251D01*
X248840D01*
Y114197D01*
X249377D01*
Y114143D01*
X249968D01*
Y114090D01*
X250559D01*
Y114036D01*
X251097D01*
Y113982D01*
X251688D01*
Y113928D01*
X252225D01*
Y113875D01*
X252332D01*
Y113928D01*
X252225D01*
Y113982D01*
Y114036D01*
X252118D01*
Y114090D01*
X252010D01*
Y114143D01*
X251956D01*
Y114197D01*
X251849D01*
Y114251D01*
X251795D01*
Y114304D01*
X251742D01*
Y114358D01*
X251688D01*
Y114412D01*
X251634D01*
Y114466D01*
X251580D01*
Y114519D01*
X251527D01*
Y114573D01*
X251473D01*
Y114627D01*
X251419D01*
Y114681D01*
X251365D01*
Y114734D01*
X251312D01*
Y114788D01*
Y114842D01*
X251258D01*
Y114895D01*
X251204D01*
Y114949D01*
X251150D01*
Y115003D01*
Y115057D01*
X251097D01*
Y115110D01*
X251043D01*
Y115164D01*
X250989D01*
Y115218D01*
X250936D01*
Y115272D01*
X250882D01*
Y115325D01*
X250828D01*
Y115379D01*
Y115433D01*
X250774D01*
Y115487D01*
Y115540D01*
X250721D01*
Y115594D01*
X250667D01*
Y115648D01*
Y115701D01*
Y115755D01*
X250613D01*
Y115809D01*
Y115863D01*
X250559D01*
Y115916D01*
Y115970D01*
X250506D01*
Y116024D01*
Y116077D01*
X250452D01*
Y116131D01*
Y116185D01*
X250398D01*
Y116239D01*
Y116293D01*
X250344D01*
Y116346D01*
Y116400D01*
Y116454D01*
X250291D01*
Y116400D01*
X250076D01*
Y116346D01*
X249700D01*
Y116293D01*
X248088D01*
Y116346D01*
X247336D01*
Y116400D01*
X246637D01*
Y116454D01*
X245992D01*
Y116507D01*
X245401D01*
Y116561D01*
X244864D01*
Y116615D01*
X244757D01*
Y116669D01*
X244165D01*
Y116722D01*
X243628D01*
Y116776D01*
X243037D01*
Y116830D01*
X242446D01*
Y116884D01*
X241909D01*
Y116937D01*
X241371D01*
Y116991D01*
X240780D01*
Y117045D01*
X240243D01*
Y117098D01*
X239706D01*
Y117152D01*
D02*
G37*
%LPD*%
G36*
X251312Y122095D02*
Y122042D01*
Y121988D01*
X251258D01*
Y122042D01*
Y122095D01*
Y122149D01*
X251312D01*
Y122095D01*
D02*
G37*
G36*
X234172D02*
Y122042D01*
Y121988D01*
X234118D01*
Y122042D01*
Y122095D01*
Y122149D01*
X234172D01*
Y122095D01*
D02*
G37*
G36*
X251258Y121880D02*
Y121827D01*
X251204D01*
Y121880D01*
Y121934D01*
X251258D01*
Y121880D01*
D02*
G37*
G36*
X251204Y121773D02*
Y121719D01*
X251150D01*
Y121773D01*
Y121827D01*
X251204D01*
Y121773D01*
D02*
G37*
G36*
X251150Y121612D02*
Y121558D01*
X251097D01*
Y121612D01*
Y121666D01*
X251150D01*
Y121612D01*
D02*
G37*
G36*
X251097Y121451D02*
Y121397D01*
X251043D01*
Y121451D01*
Y121504D01*
X251097D01*
Y121451D01*
D02*
G37*
G36*
X250237Y128597D02*
Y128543D01*
X250291D01*
Y128489D01*
Y128436D01*
Y128382D01*
X250237D01*
Y128328D01*
Y128274D01*
X250183D01*
Y128221D01*
X250130D01*
Y128167D01*
X250076D01*
Y128113D01*
X250022D01*
Y128059D01*
X249968D01*
Y128006D01*
X249915D01*
Y127952D01*
X249861D01*
Y127898D01*
X249807D01*
Y127845D01*
X249753D01*
Y127791D01*
X249700D01*
Y127737D01*
X249646D01*
Y127683D01*
X249592D01*
Y127630D01*
X249538D01*
Y127576D01*
X249485D01*
Y127522D01*
X249431D01*
Y127468D01*
Y127415D01*
X249377D01*
Y127361D01*
X249324D01*
Y127307D01*
X249270D01*
Y127253D01*
X249216D01*
Y127200D01*
X249162D01*
Y127146D01*
X249109D01*
Y127092D01*
X249055D01*
Y127039D01*
X249001D01*
Y126985D01*
X248948D01*
Y126931D01*
X248894D01*
Y126877D01*
X248840D01*
Y126824D01*
X248786D01*
Y126770D01*
X248733D01*
Y126716D01*
X248679D01*
Y126662D01*
X248625D01*
Y126609D01*
X248571D01*
Y126555D01*
Y126501D01*
X248518D01*
Y126447D01*
Y126394D01*
X248464D01*
Y126340D01*
X248410D01*
Y126286D01*
X248357D01*
Y126233D01*
X248303D01*
Y126179D01*
X248249D01*
Y126125D01*
X248195D01*
Y126071D01*
X248088D01*
Y126018D01*
Y125964D01*
X248034D01*
Y125910D01*
Y125856D01*
X248088D01*
Y125803D01*
X248142D01*
Y125749D01*
X248840D01*
Y125803D01*
X250183D01*
Y125749D01*
X250237D01*
Y125695D01*
Y125642D01*
Y125588D01*
Y125534D01*
Y125480D01*
X250183D01*
Y125427D01*
X250130D01*
Y125373D01*
X250076D01*
Y125319D01*
X250022D01*
Y125265D01*
X249968D01*
Y125212D01*
X249861D01*
Y125158D01*
X249807D01*
Y125104D01*
X249753D01*
Y125050D01*
X249700D01*
Y124997D01*
X249592D01*
Y124943D01*
X249538D01*
Y124889D01*
X249485D01*
Y124836D01*
X249431D01*
Y124782D01*
X249377D01*
Y124728D01*
X249324D01*
Y124674D01*
X249270D01*
Y124621D01*
X249216D01*
Y124567D01*
X249162D01*
Y124513D01*
X249109D01*
Y124460D01*
X249055D01*
Y124406D01*
X248948D01*
Y124352D01*
X248894D01*
Y124298D01*
X248840D01*
Y124244D01*
X248786D01*
Y124191D01*
X248733D01*
Y124137D01*
X248625D01*
Y124083D01*
X248571D01*
Y124030D01*
X248518D01*
Y123976D01*
X248464D01*
Y123922D01*
X248357D01*
Y123868D01*
Y123815D01*
X248303D01*
Y123761D01*
X248249D01*
Y123707D01*
X248195D01*
Y123653D01*
X248142D01*
Y123600D01*
X248034D01*
Y123546D01*
X247980D01*
Y123492D01*
X247927D01*
Y123439D01*
X247873D01*
Y123385D01*
X247765D01*
Y123331D01*
X247712D01*
Y123277D01*
X247658D01*
Y123224D01*
X247604D01*
Y123170D01*
X247551D01*
Y123116D01*
X247443D01*
Y123063D01*
X247389D01*
Y123009D01*
X247336D01*
Y122955D01*
X247282D01*
Y122901D01*
Y122848D01*
X247174D01*
Y122794D01*
X247121D01*
Y122740D01*
X247067D01*
Y122686D01*
X247013D01*
Y122633D01*
X246959D01*
Y122579D01*
X246906D01*
Y122525D01*
X246798D01*
Y122471D01*
X246745D01*
Y122418D01*
X246691D01*
Y122364D01*
X246637D01*
Y122310D01*
X246583D01*
Y122257D01*
X246476D01*
Y122203D01*
X246422D01*
Y122149D01*
X246368D01*
Y122095D01*
X246315D01*
Y122042D01*
X246261D01*
Y121988D01*
X246207D01*
Y121934D01*
X246153D01*
Y121880D01*
X246100D01*
Y121827D01*
X246046D01*
Y121773D01*
X245992D01*
Y121719D01*
X245885D01*
Y121666D01*
X245831D01*
Y121612D01*
X245777D01*
Y121558D01*
X245724D01*
Y121504D01*
X245670D01*
Y121451D01*
X245616D01*
Y121397D01*
X245509D01*
Y121343D01*
X245455D01*
Y121289D01*
X245401D01*
Y121236D01*
X245294D01*
Y121182D01*
X245240D01*
Y121128D01*
Y121074D01*
X245186D01*
Y121021D01*
X245133D01*
Y120967D01*
X245079D01*
Y120913D01*
X245025D01*
Y120860D01*
X244918D01*
Y120806D01*
X244864D01*
Y120752D01*
X244810D01*
Y120698D01*
X244757D01*
Y120645D01*
X244703D01*
Y120591D01*
X244595D01*
Y120537D01*
X244542D01*
Y120483D01*
X244488D01*
Y120430D01*
X244434D01*
Y120376D01*
X244327D01*
Y120322D01*
X244273D01*
Y120268D01*
X244219D01*
Y120215D01*
Y120161D01*
X244165D01*
Y120107D01*
X244112D01*
Y120054D01*
X244004D01*
Y120000D01*
X243951D01*
Y119946D01*
X243897D01*
Y119892D01*
X243843D01*
Y119839D01*
X243789D01*
Y119785D01*
X243736D01*
Y119731D01*
X243628D01*
Y119677D01*
X243575D01*
Y119624D01*
X243306D01*
Y119677D01*
X243252D01*
Y119731D01*
Y119785D01*
Y119839D01*
Y119892D01*
X243306D01*
Y119946D01*
Y120000D01*
X243360D01*
Y120054D01*
X243413D01*
Y120107D01*
X243467D01*
Y120161D01*
Y120215D01*
Y120268D01*
X243521D01*
Y120322D01*
X243575D01*
Y120376D01*
Y120430D01*
X243628D01*
Y120483D01*
X243682D01*
Y120537D01*
Y120591D01*
X243736D01*
Y120645D01*
X243789D01*
Y120698D01*
Y120752D01*
X243897D01*
Y120806D01*
Y120860D01*
X243951D01*
Y120913D01*
X244004D01*
Y120967D01*
Y121021D01*
X244058D01*
Y121074D01*
Y121128D01*
X244112D01*
Y121182D01*
Y121236D01*
X244165D01*
Y121289D01*
X244219D01*
Y121343D01*
Y121397D01*
X244273D01*
Y121451D01*
X244327D01*
Y121504D01*
Y121558D01*
X244380D01*
Y121612D01*
X244434D01*
Y121666D01*
Y121719D01*
X244488D01*
Y121773D01*
X244542D01*
Y121827D01*
Y121880D01*
X244595D01*
Y121934D01*
X244649D01*
Y121988D01*
X244703D01*
Y122042D01*
Y122095D01*
X244757D01*
Y122149D01*
X244810D01*
Y122203D01*
Y122257D01*
X244864D01*
Y122310D01*
Y122364D01*
X244918D01*
Y122418D01*
X244971D01*
Y122471D01*
Y122525D01*
X245025D01*
Y122579D01*
X245079D01*
Y122633D01*
Y122686D01*
X245133D01*
Y122740D01*
X245186D01*
Y122794D01*
Y122848D01*
X245240D01*
Y122901D01*
Y122955D01*
X245294D01*
Y123009D01*
Y123063D01*
X245348D01*
Y123116D01*
X245401D01*
Y123170D01*
Y123224D01*
X245455D01*
Y123277D01*
X245509D01*
Y123331D01*
Y123385D01*
X245563D01*
Y123439D01*
X245616D01*
Y123492D01*
X245670D01*
Y123546D01*
X245724D01*
Y123600D01*
X245777D01*
Y123653D01*
Y123707D01*
X245831D01*
Y123761D01*
X245885D01*
Y123815D01*
Y123868D01*
Y123922D01*
X245939D01*
Y123976D01*
X245992D01*
Y124030D01*
Y124083D01*
X246046D01*
Y124137D01*
Y124191D01*
X246100D01*
Y124244D01*
X246153D01*
Y124298D01*
X246207D01*
Y124352D01*
Y124406D01*
Y124460D01*
X246153D01*
Y124513D01*
X246100D01*
Y124567D01*
X243897D01*
Y124621D01*
X243843D01*
Y124674D01*
Y124728D01*
Y124782D01*
Y124836D01*
Y124889D01*
Y124943D01*
X243897D01*
Y124997D01*
Y125050D01*
X243951D01*
Y125104D01*
X244004D01*
Y125158D01*
Y125212D01*
X244058D01*
Y125265D01*
X244112D01*
Y125319D01*
Y125373D01*
X244165D01*
Y125427D01*
Y125480D01*
X244219D01*
Y125534D01*
X244273D01*
Y125588D01*
Y125642D01*
Y125695D01*
X244327D01*
Y125749D01*
X244380D01*
Y125803D01*
Y125856D01*
X244434D01*
Y125910D01*
X244488D01*
Y125964D01*
Y126018D01*
X244542D01*
Y126071D01*
Y126125D01*
X244595D01*
Y126179D01*
X244649D01*
Y126233D01*
Y126286D01*
X244703D01*
Y126340D01*
X244757D01*
Y126394D01*
X244810D01*
Y126447D01*
X244864D01*
Y126501D01*
Y126555D01*
Y126609D01*
X244918D01*
Y126662D01*
X244971D01*
Y126716D01*
Y126770D01*
X245025D01*
Y126824D01*
Y126877D01*
X245079D01*
Y126931D01*
X245133D01*
Y126985D01*
Y127039D01*
X245186D01*
Y127092D01*
X245240D01*
Y127146D01*
Y127200D01*
X245294D01*
Y127253D01*
X245348D01*
Y127307D01*
Y127361D01*
X245401D01*
Y127415D01*
Y127468D01*
X245455D01*
Y127522D01*
Y127576D01*
X245509D01*
Y127630D01*
Y127683D01*
X245563D01*
Y127737D01*
X245670D01*
Y127791D01*
X245616D01*
Y127845D01*
X245724D01*
Y127898D01*
Y127952D01*
X245777D01*
Y128006D01*
X245831D01*
Y128059D01*
Y128113D01*
X245885D01*
Y128167D01*
Y128221D01*
X245939D01*
Y128274D01*
X245992D01*
Y128328D01*
Y128382D01*
Y128436D01*
X246046D01*
Y128489D01*
X246100D01*
Y128543D01*
Y128597D01*
X246207D01*
Y128650D01*
X250237D01*
Y128597D01*
D02*
G37*
G36*
X236643Y124889D02*
X236912D01*
Y124836D01*
X237019D01*
Y124782D01*
X237181D01*
Y124728D01*
Y124674D01*
X237288D01*
Y124621D01*
X237342D01*
Y124567D01*
X237449D01*
Y124513D01*
X237503D01*
Y124460D01*
X237610D01*
Y124406D01*
X237664D01*
Y124352D01*
X237718D01*
Y124298D01*
Y124244D01*
X237772D01*
Y124191D01*
X237825D01*
Y124137D01*
X237879D01*
Y124083D01*
Y124030D01*
X237933D01*
Y123976D01*
X237986D01*
Y123922D01*
Y123868D01*
X238040D01*
Y123815D01*
Y123761D01*
X238094D01*
Y123707D01*
Y123653D01*
X238148D01*
Y123600D01*
Y123546D01*
X238201D01*
Y123492D01*
Y123439D01*
Y123385D01*
X238255D01*
Y123331D01*
Y123277D01*
X238309D01*
Y123224D01*
Y123170D01*
Y123116D01*
X238363D01*
Y123063D01*
Y123009D01*
Y122955D01*
Y122901D01*
X238416D01*
Y122848D01*
X238470D01*
Y122794D01*
Y122740D01*
Y122686D01*
Y122633D01*
Y122579D01*
X238524D01*
Y122525D01*
Y122471D01*
Y122418D01*
Y122364D01*
Y122310D01*
X238578D01*
Y122257D01*
Y122203D01*
Y122149D01*
Y122095D01*
Y122042D01*
Y121988D01*
Y121934D01*
Y121880D01*
Y121827D01*
Y121773D01*
Y121719D01*
Y121666D01*
Y121612D01*
X238631D01*
Y121558D01*
Y121504D01*
Y121451D01*
Y121397D01*
X238578D01*
Y121343D01*
Y121289D01*
Y121236D01*
Y121182D01*
Y121128D01*
Y121074D01*
Y121021D01*
Y120967D01*
Y120913D01*
Y120860D01*
Y120806D01*
Y120752D01*
Y120698D01*
X238524D01*
Y120645D01*
Y120591D01*
Y120537D01*
Y120483D01*
Y120430D01*
Y120376D01*
X238470D01*
Y120322D01*
Y120268D01*
Y120215D01*
Y120161D01*
Y120107D01*
X238416D01*
Y120054D01*
X238363D01*
Y120000D01*
Y119946D01*
X238416D01*
Y119892D01*
X238363D01*
Y119839D01*
X238309D01*
Y119785D01*
Y119731D01*
Y119677D01*
X238255D01*
Y119624D01*
Y119570D01*
Y119516D01*
X238201D01*
Y119463D01*
Y119409D01*
Y119355D01*
X238148D01*
Y119301D01*
Y119248D01*
Y119194D01*
X238094D01*
Y119140D01*
Y119086D01*
X238040D01*
Y119033D01*
Y118979D01*
Y118925D01*
X237986D01*
Y118871D01*
X237933D01*
Y118818D01*
Y118764D01*
X237879D01*
Y118710D01*
Y118657D01*
X237825D01*
Y118603D01*
X237772D01*
Y118549D01*
Y118495D01*
X237718D01*
Y118442D01*
X237664D01*
Y118388D01*
Y118334D01*
Y118280D01*
X237610D01*
Y118227D01*
X237557D01*
Y118173D01*
X237503D01*
Y118119D01*
X237449D01*
Y118066D01*
X237396D01*
Y118012D01*
X237342D01*
Y117958D01*
X237288D01*
Y117904D01*
X237234D01*
Y117851D01*
X237181D01*
Y117797D01*
X237073D01*
Y117743D01*
X237019D01*
Y117689D01*
X236912D01*
Y117636D01*
X236804D01*
Y117689D01*
X236858D01*
Y117743D01*
X236912D01*
Y117797D01*
X237019D01*
Y117851D01*
X237073D01*
Y117904D01*
X237127D01*
Y117958D01*
X237181D01*
Y118012D01*
X237234D01*
Y118066D01*
Y118119D01*
X237288D01*
Y118173D01*
X237342D01*
Y118227D01*
X237396D01*
Y118280D01*
Y118334D01*
X237449D01*
Y118388D01*
Y118442D01*
X237557D01*
Y118495D01*
Y118549D01*
X237610D01*
Y118603D01*
Y118657D01*
X237664D01*
Y118710D01*
Y118764D01*
X237718D01*
Y118818D01*
Y118871D01*
X237772D01*
Y118925D01*
Y118979D01*
X237825D01*
Y119033D01*
Y119086D01*
X237879D01*
Y119140D01*
Y119194D01*
Y119248D01*
X237933D01*
Y119301D01*
Y119355D01*
Y119409D01*
Y119463D01*
X237986D01*
Y119516D01*
Y119570D01*
Y119624D01*
X238040D01*
Y119677D01*
Y119731D01*
Y119785D01*
Y119839D01*
X238094D01*
Y119892D01*
Y119946D01*
Y120000D01*
Y120054D01*
X238148D01*
Y120107D01*
Y120161D01*
Y120215D01*
Y120268D01*
Y120322D01*
Y120376D01*
Y120430D01*
X238201D01*
Y120483D01*
Y120537D01*
Y120591D01*
Y120645D01*
Y120698D01*
Y120752D01*
Y120806D01*
Y120860D01*
Y120913D01*
Y120967D01*
X238255D01*
Y121021D01*
Y121074D01*
Y121128D01*
Y121182D01*
Y121236D01*
Y121289D01*
Y121343D01*
Y121397D01*
Y121451D01*
Y121504D01*
Y121558D01*
Y121612D01*
Y121666D01*
X238201D01*
Y121719D01*
Y121773D01*
Y121827D01*
Y121880D01*
Y121934D01*
Y121988D01*
Y122042D01*
Y122095D01*
Y122149D01*
Y122203D01*
Y122257D01*
X238148D01*
Y122310D01*
Y122364D01*
Y122418D01*
Y122471D01*
Y122525D01*
Y122579D01*
X238094D01*
Y122633D01*
Y122686D01*
Y122740D01*
Y122794D01*
X238040D01*
Y122848D01*
Y122901D01*
Y122955D01*
Y123009D01*
X237986D01*
Y123063D01*
Y123116D01*
Y123170D01*
X237933D01*
Y123224D01*
Y123277D01*
X237879D01*
Y123331D01*
Y123385D01*
X237825D01*
Y123439D01*
Y123492D01*
Y123546D01*
X237772D01*
Y123600D01*
Y123653D01*
X237718D01*
Y123707D01*
X237664D01*
Y123761D01*
Y123815D01*
X237610D01*
Y123868D01*
Y123922D01*
X237557D01*
Y123976D01*
X237503D01*
Y124030D01*
X237449D01*
Y124083D01*
X237396D01*
Y124137D01*
X237342D01*
Y124191D01*
X237288D01*
Y124244D01*
X237234D01*
Y124298D01*
X237127D01*
Y124352D01*
X237073D01*
Y124406D01*
X236966D01*
Y124460D01*
X236858D01*
Y124513D01*
X236697D01*
Y124567D01*
X236106D01*
Y124513D01*
X235945D01*
Y124460D01*
X235784D01*
Y124406D01*
X235676D01*
Y124352D01*
X235622D01*
Y124298D01*
X235515D01*
Y124244D01*
X235461D01*
Y124191D01*
X235354D01*
Y124137D01*
X235300D01*
Y124083D01*
X235246D01*
Y124030D01*
X235192D01*
Y123976D01*
X235139D01*
Y123922D01*
X235085D01*
Y123868D01*
Y123815D01*
X235031D01*
Y123761D01*
X234978D01*
Y123707D01*
Y123653D01*
X234924D01*
Y123600D01*
X234870D01*
Y123546D01*
X234816D01*
Y123492D01*
X234763D01*
Y123439D01*
Y123385D01*
X234709D01*
Y123331D01*
X234655D01*
Y123277D01*
X234601D01*
Y123224D01*
Y123170D01*
X234548D01*
Y123116D01*
Y123063D01*
X234494D01*
Y123009D01*
Y122955D01*
Y122901D01*
X234440D01*
Y122848D01*
Y122794D01*
X234387D01*
Y122740D01*
Y122686D01*
Y122633D01*
X234333D01*
Y122579D01*
Y122525D01*
X234279D01*
Y122471D01*
Y122418D01*
Y122364D01*
X234225D01*
Y122310D01*
Y122257D01*
Y122203D01*
X234172D01*
Y122257D01*
Y122310D01*
Y122364D01*
Y122418D01*
X234225D01*
Y122471D01*
Y122525D01*
Y122579D01*
Y122633D01*
X234279D01*
Y122686D01*
Y122740D01*
Y122794D01*
X234333D01*
Y122848D01*
Y122901D01*
Y122955D01*
Y123009D01*
X234387D01*
Y123063D01*
Y123116D01*
Y123170D01*
X234440D01*
Y123224D01*
Y123277D01*
X234494D01*
Y123331D01*
Y123385D01*
X234548D01*
Y123439D01*
Y123492D01*
X234601D01*
Y123546D01*
Y123600D01*
X234655D01*
Y123653D01*
Y123707D01*
X234709D01*
Y123761D01*
X234763D01*
Y123815D01*
Y123868D01*
Y123922D01*
X234816D01*
Y123976D01*
X234870D01*
Y124030D01*
X234924D01*
Y124083D01*
X234978D01*
Y124137D01*
X235031D01*
Y124191D01*
X235085D01*
Y124244D01*
X235139D01*
Y124298D01*
Y124352D01*
X235246D01*
Y124406D01*
X235300D01*
Y124460D01*
X235354D01*
Y124513D01*
X235407D01*
Y124567D01*
X235515D01*
Y124621D01*
X235622D01*
Y124674D01*
X235676D01*
Y124728D01*
X235730D01*
Y124782D01*
X235837D01*
Y124836D01*
X235999D01*
Y124889D01*
X236267D01*
Y124943D01*
X236643D01*
Y124889D01*
D02*
G37*
G36*
X255825Y125265D02*
X256147D01*
Y125212D01*
X256362D01*
Y125158D01*
X256523D01*
Y125104D01*
X256685D01*
Y125050D01*
X256792D01*
Y124997D01*
X256900D01*
Y124943D01*
X257007D01*
Y124889D01*
X257115D01*
Y124836D01*
X257222D01*
Y124782D01*
X257276D01*
Y124728D01*
X257329D01*
Y124674D01*
X257383D01*
Y124621D01*
X257491D01*
Y124567D01*
X257544D01*
Y124513D01*
X257598D01*
Y124460D01*
X257706D01*
Y124406D01*
X257759D01*
Y124352D01*
X257813D01*
Y124298D01*
X257867D01*
Y124244D01*
X257921D01*
Y124191D01*
X257974D01*
Y124137D01*
X258028D01*
Y124083D01*
X258082D01*
Y124030D01*
X258135D01*
Y123976D01*
X258189D01*
Y123922D01*
X258243D01*
Y123868D01*
X258297D01*
Y123815D01*
Y123761D01*
Y123707D01*
X258350D01*
Y123653D01*
X258404D01*
Y123600D01*
X258458D01*
Y123546D01*
Y123492D01*
X258511D01*
Y123439D01*
X258565D01*
Y123385D01*
Y123331D01*
X258619D01*
Y123277D01*
Y123224D01*
X258673D01*
Y123170D01*
Y123116D01*
X258726D01*
Y123063D01*
Y123009D01*
X258780D01*
Y122955D01*
Y122901D01*
X258834D01*
Y122848D01*
Y122794D01*
Y122740D01*
X258888D01*
Y122686D01*
Y122633D01*
X258941D01*
Y122579D01*
X258995D01*
Y122525D01*
Y122471D01*
X259049D01*
Y122418D01*
Y122364D01*
Y122310D01*
X259103D01*
Y122257D01*
Y122203D01*
Y122149D01*
X259156D01*
Y122095D01*
Y122042D01*
Y121988D01*
Y121934D01*
X259210D01*
Y121880D01*
Y121827D01*
Y121773D01*
Y121719D01*
X259264D01*
Y121666D01*
Y121612D01*
Y121558D01*
Y121504D01*
Y121451D01*
Y121397D01*
X259317D01*
Y121343D01*
Y121289D01*
Y121236D01*
Y121182D01*
Y121128D01*
Y121074D01*
Y121021D01*
Y120967D01*
X259371D01*
Y120913D01*
Y120860D01*
Y120806D01*
Y120752D01*
Y120698D01*
Y120645D01*
Y120591D01*
Y120537D01*
Y120483D01*
Y120430D01*
Y120376D01*
Y120322D01*
Y120268D01*
Y120215D01*
Y120161D01*
Y120107D01*
Y120054D01*
Y120000D01*
Y119946D01*
Y119892D01*
Y119839D01*
Y119785D01*
X259317D01*
Y119731D01*
Y119677D01*
Y119624D01*
Y119570D01*
Y119516D01*
Y119463D01*
Y119409D01*
Y119355D01*
Y119301D01*
X259264D01*
Y119248D01*
Y119194D01*
Y119140D01*
Y119086D01*
Y119033D01*
Y118979D01*
X259210D01*
Y118925D01*
Y118871D01*
Y118818D01*
Y118764D01*
X259156D01*
Y118710D01*
Y118657D01*
Y118603D01*
Y118549D01*
X259103D01*
Y118495D01*
Y118442D01*
Y118388D01*
Y118334D01*
X259049D01*
Y118280D01*
Y118227D01*
Y118173D01*
X258995D01*
Y118119D01*
Y118066D01*
Y118012D01*
X258888D01*
Y117958D01*
Y117904D01*
Y117851D01*
X258834D01*
Y117797D01*
Y117743D01*
X258780D01*
Y117689D01*
Y117636D01*
X258726D01*
Y117582D01*
Y117528D01*
Y117474D01*
X258673D01*
Y117421D01*
Y117367D01*
X258619D01*
Y117313D01*
Y117260D01*
X258565D01*
Y117206D01*
Y117152D01*
X258511D01*
Y117098D01*
Y117045D01*
X258458D01*
Y116991D01*
Y116937D01*
X258404D01*
Y116884D01*
X258350D01*
Y116830D01*
X258297D01*
Y116776D01*
Y116722D01*
X258243D01*
Y116669D01*
X258189D01*
Y116615D01*
Y116561D01*
Y116507D01*
X258135D01*
Y116454D01*
X258082D01*
Y116400D01*
X258028D01*
Y116346D01*
X257974D01*
Y116293D01*
X257921D01*
Y116239D01*
X257867D01*
Y116185D01*
X257813D01*
Y116131D01*
X257759D01*
Y116077D01*
X257706D01*
Y116024D01*
X257652D01*
Y115970D01*
X257598D01*
Y115916D01*
X257544D01*
Y115863D01*
X257491D01*
Y115809D01*
X257437D01*
Y115755D01*
X257383D01*
Y115701D01*
Y115648D01*
X257276D01*
Y115594D01*
X257222D01*
Y115540D01*
X257168D01*
Y115487D01*
X257115D01*
Y115433D01*
X257007D01*
Y115379D01*
X256900D01*
Y115325D01*
X256846D01*
Y115272D01*
X256738D01*
Y115218D01*
X256631D01*
Y115164D01*
X256523D01*
Y115110D01*
X256416D01*
Y115057D01*
X256309D01*
Y115003D01*
X256147D01*
Y114949D01*
X255986D01*
Y114895D01*
X255825D01*
Y114949D01*
X255932D01*
Y115003D01*
X256094D01*
Y115057D01*
X256201D01*
Y115110D01*
X256309D01*
Y115164D01*
X256416D01*
Y115218D01*
X256470D01*
Y115272D01*
X256577D01*
Y115325D01*
X256685D01*
Y115379D01*
X256738D01*
Y115433D01*
X256846D01*
Y115487D01*
X256900D01*
Y115540D01*
X256953D01*
Y115594D01*
X257061D01*
Y115648D01*
Y115701D01*
X257115D01*
Y115755D01*
X257168D01*
Y115809D01*
X257222D01*
Y115863D01*
X257276D01*
Y115916D01*
X257329D01*
Y115970D01*
X257383D01*
Y116024D01*
X257437D01*
Y116077D01*
X257491D01*
Y116131D01*
X257544D01*
Y116185D01*
X257598D01*
Y116239D01*
X257652D01*
Y116293D01*
X257706D01*
Y116346D01*
X257759D01*
Y116400D01*
X257813D01*
Y116454D01*
Y116507D01*
X257867D01*
Y116561D01*
Y116615D01*
X257921D01*
Y116669D01*
X257974D01*
Y116722D01*
Y116776D01*
X258028D01*
Y116830D01*
Y116884D01*
X258082D01*
Y116937D01*
X258189D01*
Y116991D01*
Y117045D01*
X258243D01*
Y117098D01*
Y117152D01*
X258297D01*
Y117206D01*
Y117260D01*
X258350D01*
Y117313D01*
Y117367D01*
X258404D01*
Y117421D01*
Y117474D01*
Y117528D01*
X258458D01*
Y117582D01*
Y117636D01*
X258511D01*
Y117689D01*
Y117743D01*
X258565D01*
Y117797D01*
Y117851D01*
Y117904D01*
X258619D01*
Y117958D01*
Y118012D01*
Y118066D01*
X258673D01*
Y118119D01*
Y118173D01*
Y118227D01*
X258726D01*
Y118280D01*
Y118334D01*
Y118388D01*
X258780D01*
Y118442D01*
Y118495D01*
Y118549D01*
Y118603D01*
X258834D01*
Y118657D01*
Y118710D01*
Y118764D01*
Y118818D01*
X258888D01*
Y118871D01*
Y118925D01*
Y118979D01*
Y119033D01*
Y119086D01*
X258941D01*
Y119140D01*
Y119194D01*
X258995D01*
Y119248D01*
Y119301D01*
Y119355D01*
Y119409D01*
Y119463D01*
Y119516D01*
X258941D01*
Y119570D01*
X259049D01*
Y119624D01*
Y119677D01*
Y119731D01*
Y119785D01*
Y119839D01*
Y119892D01*
Y119946D01*
Y120000D01*
Y120054D01*
Y120107D01*
Y120161D01*
Y120215D01*
Y120268D01*
Y120322D01*
Y120376D01*
Y120430D01*
Y120483D01*
Y120537D01*
Y120591D01*
Y120645D01*
Y120698D01*
Y120752D01*
Y120806D01*
Y120860D01*
Y120913D01*
Y120967D01*
X258995D01*
Y121021D01*
Y121074D01*
Y121128D01*
Y121182D01*
Y121236D01*
Y121289D01*
X258941D01*
Y121343D01*
Y121397D01*
X258888D01*
Y121451D01*
Y121504D01*
Y121558D01*
Y121612D01*
Y121666D01*
X258834D01*
Y121719D01*
Y121773D01*
Y121827D01*
Y121880D01*
X258780D01*
Y121934D01*
Y121988D01*
Y122042D01*
Y122095D01*
X258726D01*
Y122149D01*
Y122203D01*
Y122257D01*
X258673D01*
Y122310D01*
Y122364D01*
X258619D01*
Y122418D01*
Y122471D01*
Y122525D01*
X258565D01*
Y122579D01*
Y122633D01*
X258511D01*
Y122686D01*
Y122740D01*
X258458D01*
Y122794D01*
Y122848D01*
X258404D01*
Y122901D01*
Y122955D01*
Y123009D01*
X258350D01*
Y123063D01*
Y123116D01*
X258297D01*
Y123170D01*
Y123224D01*
X258243D01*
Y123277D01*
X258189D01*
Y123331D01*
X258135D01*
Y123385D01*
X258082D01*
Y123439D01*
Y123492D01*
X258028D01*
Y123546D01*
X257974D01*
Y123600D01*
X257921D01*
Y123653D01*
Y123707D01*
X257867D01*
Y123761D01*
X257813D01*
Y123815D01*
X257759D01*
Y123868D01*
Y123922D01*
X257706D01*
Y123976D01*
X257652D01*
Y124030D01*
X257598D01*
Y124083D01*
X257544D01*
Y124137D01*
X257437D01*
Y124191D01*
X257383D01*
Y124244D01*
X257329D01*
Y124298D01*
X257222D01*
Y124352D01*
X257168D01*
Y124406D01*
X257061D01*
Y124460D01*
X257007D01*
Y124513D01*
X256900D01*
Y124567D01*
X256846D01*
Y124621D01*
X256738D01*
Y124674D01*
X256631D01*
Y124728D01*
X256577D01*
Y124782D01*
X256470D01*
Y124836D01*
X256309D01*
Y124889D01*
X256147D01*
Y124943D01*
X255879D01*
Y124997D01*
X255503D01*
Y125050D01*
X254965D01*
Y124997D01*
X254589D01*
Y124943D01*
X254321D01*
Y124889D01*
X254159D01*
Y124836D01*
X253998D01*
Y124782D01*
X253891D01*
Y124728D01*
X253837D01*
Y124674D01*
X253730D01*
Y124621D01*
X253622D01*
Y124567D01*
X253515D01*
Y124513D01*
X253407D01*
Y124460D01*
X253300D01*
Y124406D01*
X253246D01*
Y124352D01*
X253138D01*
Y124298D01*
X253085D01*
Y124244D01*
X252977D01*
Y124191D01*
X252924D01*
Y124137D01*
X252870D01*
Y124083D01*
X252816D01*
Y124030D01*
X252709D01*
Y123976D01*
X252655D01*
Y123922D01*
X252601D01*
Y123868D01*
X252547D01*
Y123815D01*
X252494D01*
Y123761D01*
X252440D01*
Y123707D01*
X252386D01*
Y123653D01*
X252332D01*
Y123600D01*
X252279D01*
Y123546D01*
X252225D01*
Y123492D01*
Y123439D01*
X252171D01*
Y123385D01*
X252118D01*
Y123331D01*
X252064D01*
Y123277D01*
X252010D01*
Y123224D01*
Y123170D01*
X251956D01*
Y123116D01*
X251903D01*
Y123063D01*
X251849D01*
Y123009D01*
Y122955D01*
X251795D01*
Y122901D01*
X251742D01*
Y122848D01*
X251688D01*
Y122794D01*
Y122740D01*
X251634D01*
Y122686D01*
Y122633D01*
X251580D01*
Y122579D01*
X251527D01*
Y122525D01*
Y122471D01*
X251473D01*
Y122418D01*
Y122364D01*
X251419D01*
Y122310D01*
Y122257D01*
X251365D01*
Y122203D01*
Y122149D01*
X251312D01*
Y122203D01*
Y122257D01*
Y122310D01*
X251365D01*
Y122364D01*
Y122418D01*
X251419D01*
Y122471D01*
Y122525D01*
X251473D01*
Y122579D01*
Y122633D01*
X251527D01*
Y122686D01*
Y122740D01*
X251580D01*
Y122794D01*
Y122848D01*
X251634D01*
Y122901D01*
Y122955D01*
Y123009D01*
X251688D01*
Y123063D01*
X251742D01*
Y123116D01*
Y123170D01*
X251795D01*
Y123224D01*
X251849D01*
Y123277D01*
Y123331D01*
X251956D01*
Y123385D01*
Y123439D01*
X252010D01*
Y123492D01*
X252064D01*
Y123546D01*
Y123600D01*
X252118D01*
Y123653D01*
X252171D01*
Y123707D01*
X252225D01*
Y123761D01*
X252279D01*
Y123815D01*
Y123868D01*
X252332D01*
Y123922D01*
X252386D01*
Y123976D01*
X252440D01*
Y124030D01*
Y124083D01*
X252494D01*
Y124137D01*
X252547D01*
Y124191D01*
X252655D01*
Y124244D01*
X252709D01*
Y124298D01*
X252762D01*
Y124352D01*
X252816D01*
Y124406D01*
X252924D01*
Y124460D01*
X252977D01*
Y124513D01*
X253085D01*
Y124567D01*
X253138D01*
Y124621D01*
X253246D01*
Y124674D01*
X253300D01*
Y124728D01*
X253353D01*
Y124782D01*
X253407D01*
Y124836D01*
X253515D01*
Y124889D01*
X253622D01*
Y124943D01*
X253730D01*
Y124997D01*
X253837D01*
Y125050D01*
X253998D01*
Y125104D01*
X254106D01*
Y125158D01*
X254321D01*
Y125212D01*
X254536D01*
Y125265D01*
X254804D01*
Y125319D01*
X255825D01*
Y125265D01*
D02*
G37*
G36*
X255664Y114788D02*
X255556D01*
Y114734D01*
X255395D01*
Y114788D01*
X255449D01*
Y114842D01*
X255664D01*
Y114788D01*
D02*
G37*
D10*
X190792Y-388011D02*
G03*
X190792Y-388011I-394J0D01*
G01*
X234386Y7968D02*
G03*
X234386Y7968I-394J0D01*
G01*
X123538Y-387873D02*
G03*
X123538Y-387873I-394J0D01*
G01*
X243841Y-142229D02*
G03*
X243841Y-142229I-394J0D01*
G01*
X-57369Y-198839D02*
G03*
X-57369Y-198839I-394J0D01*
G01*
X-58726Y-271258D02*
G03*
X-58726Y-271258I-394J0D01*
G01*
X234568Y-277803D02*
G03*
X234568Y-277803I-394J0D01*
G01*
X238046Y206734D02*
G03*
X238046Y206734I-394J0D01*
G01*
X164697Y-72867D02*
X174934D01*
X162926Y-74638D02*
X164697Y-72867D01*
X162926Y-87237D02*
X164697Y-89028D01*
X193634Y-89009D02*
X204264D01*
X193634Y-72867D02*
X204264D01*
Y-89009D02*
Y-72867D01*
X162926Y-87237D02*
Y-74638D01*
X164697Y-89009D02*
X174934D01*
X85895Y-364080D02*
X87470D01*
X85895D02*
Y-362112D01*
Y-353450D02*
Y-352270D01*
X85896Y-352269D02*
X87469D01*
X181299Y115535D02*
Y117371D01*
X182218Y118290D01*
X183136Y117371D01*
Y115535D01*
Y116912D01*
X181299D01*
X184054Y118290D02*
X185891D01*
X184973D01*
Y115535D01*
X189564Y118290D02*
Y116453D01*
X190483Y115535D01*
X191401Y116453D01*
Y118290D01*
X192319D02*
X193238D01*
X192779D01*
Y115535D01*
X192319D01*
X193238D01*
X194615D02*
Y118290D01*
X195993D01*
X196452Y117831D01*
Y116912D01*
X195993Y116453D01*
X194615D01*
X195534D02*
X196452Y115535D01*
X199207Y117831D02*
X198748Y118290D01*
X197829D01*
X197370Y117831D01*
Y115994D01*
X197829Y115535D01*
X198748D01*
X199207Y115994D01*
Y116912D01*
X198289D01*
X200125Y118290D02*
X201044D01*
X200584D01*
Y115535D01*
X200125D01*
X201044D01*
X202421D02*
Y118290D01*
X204258Y115535D01*
Y118290D01*
X205176D02*
X206094D01*
X205635D01*
Y115535D01*
X205176D01*
X206094D01*
X207472D02*
Y117371D01*
X208390Y118290D01*
X209309Y117371D01*
Y115535D01*
Y116912D01*
X207472D01*
X212982Y118290D02*
X214819D01*
X213900D01*
Y115535D01*
X217574Y118290D02*
X215737D01*
Y115535D01*
X217574D01*
X215737Y116912D02*
X216655D01*
X220329Y117831D02*
X219869Y118290D01*
X218951D01*
X218492Y117831D01*
Y115994D01*
X218951Y115535D01*
X219869D01*
X220329Y115994D01*
X221247Y118290D02*
Y115535D01*
Y116912D01*
X223084D01*
Y118290D01*
Y115535D01*
D11*
X-34411Y-385774D02*
G03*
X-34411Y-385774I-551J0D01*
G01*
X160273Y-385421D02*
G03*
X160273Y-385421I-551J0D01*
G01*
D12*
X92213Y-365182D02*
G03*
X92213Y-365182I-176J0D01*
G01*
X224731Y-162057D02*
Y-146309D01*
X198747Y-162057D02*
Y-146309D01*
X117525Y-304036D02*
X119257D01*
X119257Y-306005D02*
Y-304036D01*
X116502D02*
X117525D01*
X119257Y-316004D02*
Y-314036D01*
X116501Y-316004D02*
X119257D01*
X183205Y166854D02*
Y160856D01*
X186204D01*
X187203Y161856D01*
Y165855D01*
X186204Y166854D01*
X183205D01*
X192202Y160856D02*
X190202D01*
X189203Y161856D01*
Y163855D01*
X190202Y164855D01*
X192202D01*
X193201Y163855D01*
Y162856D01*
X189203D01*
X195201Y160856D02*
X198200D01*
X199199Y161856D01*
X198200Y162856D01*
X196201D01*
X195201Y163855D01*
X196201Y164855D01*
X199199D01*
X201199Y160856D02*
X203198D01*
X202199D01*
Y164855D01*
X201199D01*
X208197Y158857D02*
X209196D01*
X210196Y159856D01*
Y164855D01*
X207197D01*
X206197Y163855D01*
Y161856D01*
X207197Y160856D01*
X210196D01*
X212195D02*
Y164855D01*
X215194D01*
X216194Y163855D01*
Y160856D01*
X221192D02*
X219193D01*
X218193Y161856D01*
Y163855D01*
X219193Y164855D01*
X221192D01*
X222192Y163855D01*
Y162856D01*
X218193D01*
X228190Y166854D02*
Y160856D01*
X225191D01*
X224191Y161856D01*
Y163855D01*
X225191Y164855D01*
X228190D01*
X236188Y166854D02*
Y160856D01*
X239187D01*
X240186Y161856D01*
Y162856D01*
X239187Y163855D01*
X236188D01*
X239187D01*
X240186Y164855D01*
Y165855D01*
X239187Y166854D01*
X236188D01*
X242186Y164855D02*
Y161856D01*
X243185Y160856D01*
X246184D01*
Y159856D01*
X245185Y158857D01*
X244185D01*
X246184Y160856D02*
Y164855D01*
X248184D02*
X249183D01*
Y163855D01*
X248184D01*
Y164855D01*
Y161856D02*
X249183D01*
Y160856D01*
X248184D01*
Y161856D01*
X183205Y155257D02*
Y149259D01*
X186204D01*
X187203Y150259D01*
Y154258D01*
X186204Y155257D01*
X183205D01*
X190202Y153258D02*
X192202D01*
X193201Y152258D01*
Y149259D01*
X190202D01*
X189203Y150259D01*
X190202Y151259D01*
X193201D01*
X195201Y153258D02*
X197200Y149259D01*
X199199Y153258D01*
X201199Y149259D02*
X203198D01*
X202199D01*
Y153258D01*
X201199D01*
X210196Y155257D02*
Y149259D01*
X207197D01*
X206197Y150259D01*
Y152258D01*
X207197Y153258D01*
X210196D01*
X222192Y154258D02*
X221192Y155257D01*
X219193D01*
X218193Y154258D01*
Y153258D01*
X219193Y152258D01*
X221192D01*
X222192Y151259D01*
Y150259D01*
X221192Y149259D01*
X219193D01*
X218193Y150259D01*
X224191Y147260D02*
Y153258D01*
X227190D01*
X228190Y152258D01*
Y150259D01*
X227190Y149259D01*
X224191D01*
X230189D02*
X232189D01*
X231189D01*
Y153258D01*
X230189D01*
X235188D02*
X237187Y149259D01*
X239187Y153258D01*
X244185Y149259D02*
X242186D01*
X241186Y150259D01*
Y152258D01*
X242186Y153258D01*
X244185D01*
X245185Y152258D01*
Y151259D01*
X241186D01*
X247184Y153258D02*
Y150259D01*
X248184Y149259D01*
X251183D01*
Y148259D01*
X250183Y147260D01*
X249183D01*
X251183Y149259D02*
Y153258D01*
X46420Y248851D02*
X45420Y249850D01*
X43421D01*
X42421Y248851D01*
Y244852D01*
X43421Y243852D01*
X45420D01*
X46420Y244852D01*
X48419Y243852D02*
X50418D01*
X49419D01*
Y249850D01*
X48419Y248851D01*
X8830Y164143D02*
Y167142D01*
X10329D01*
X10829Y166642D01*
Y165642D01*
X10329Y165143D01*
X8830D01*
X9830D02*
X10829Y164143D01*
X11829Y167142D02*
X13828D01*
Y166642D01*
X11829Y164643D01*
Y164143D01*
X256328Y42925D02*
Y48923D01*
X259327D01*
X260326Y47923D01*
Y45924D01*
X259327Y44924D01*
X256328D01*
X258327D02*
X260326Y42925D01*
X262326D02*
X264325D01*
X263325D01*
Y48923D01*
X262326Y47923D01*
X271323Y48923D02*
X267324D01*
Y45924D01*
X269323Y46924D01*
X270323D01*
X271323Y45924D01*
Y43924D01*
X270323Y42925D01*
X268324D01*
X267324Y43924D01*
X104075Y-376017D02*
X102742D01*
X103408D01*
Y-379349D01*
X102742Y-380016D01*
X102075D01*
X101409Y-379349D01*
X105408Y-376017D02*
X108073D01*
Y-376683D01*
X105408Y-379349D01*
Y-380016D01*
X109406Y-378016D02*
X112072D01*
X113405Y-380016D02*
Y-376017D01*
X114738Y-377350D01*
X116071Y-376017D01*
Y-380016D01*
X120070Y-376683D02*
X119403Y-376017D01*
X118070D01*
X117404Y-376683D01*
Y-379349D01*
X118070Y-380016D01*
X119403D01*
X120070Y-379349D01*
X121403Y-380016D02*
X122735D01*
X122069D01*
Y-376017D01*
X121403Y-376683D01*
X-43400Y227811D02*
X-44400Y228810D01*
X-46399D01*
X-47399Y227811D01*
Y223812D01*
X-46399Y222812D01*
X-44400D01*
X-43400Y223812D01*
X-37402Y228810D02*
X-39402Y227811D01*
X-41401Y225811D01*
Y223812D01*
X-40401Y222812D01*
X-38402D01*
X-37402Y223812D01*
Y224812D01*
X-38402Y225811D01*
X-41401D01*
X178554Y-94866D02*
Y-100864D01*
X181553D01*
X182553Y-99864D01*
Y-95865D01*
X181553Y-94866D01*
X178554D01*
X188551D02*
X186551Y-95865D01*
X184552Y-97865D01*
Y-99864D01*
X185552Y-100864D01*
X187551D01*
X188551Y-99864D01*
Y-98864D01*
X187551Y-97865D01*
X184552D01*
X204959Y-55121D02*
X203959Y-54122D01*
X201960D01*
X200960Y-55121D01*
Y-59120D01*
X201960Y-60120D01*
X203959D01*
X204959Y-59120D01*
X206958Y-60120D02*
X208957D01*
X207958D01*
Y-54122D01*
X206958Y-55121D01*
X214955Y-60120D02*
Y-54122D01*
X211956Y-57121D01*
X215955D01*
X183330Y-124689D02*
X182330Y-123690D01*
X180331D01*
X179331Y-124689D01*
Y-128688D01*
X180331Y-129688D01*
X182330D01*
X183330Y-128688D01*
X185329Y-129688D02*
X187328D01*
X186329D01*
Y-123690D01*
X185329Y-124689D01*
X190327D02*
X191327Y-123690D01*
X193326D01*
X194326Y-124689D01*
Y-125689D01*
X193326Y-126689D01*
X192327D01*
X193326D01*
X194326Y-127688D01*
Y-128688D01*
X193326Y-129688D01*
X191327D01*
X190327Y-128688D01*
X201111Y-100361D02*
Y-94363D01*
X204110D01*
X205110Y-95362D01*
Y-97362D01*
X204110Y-98361D01*
X201111D01*
X203110D02*
X205110Y-100361D01*
X207109D02*
X209108D01*
X208109D01*
Y-94363D01*
X207109Y-95362D01*
X215106Y-100361D02*
Y-94363D01*
X212107Y-97362D01*
X216106D01*
X-47428Y-179877D02*
Y-178893D01*
Y-179385D01*
X-49887D01*
X-50380Y-178893D01*
Y-178401D01*
X-49887Y-177909D01*
X-50380Y-180861D02*
Y-181845D01*
Y-181353D01*
X-47428D01*
X-47920Y-180861D01*
Y-183321D02*
X-47428Y-183813D01*
Y-184797D01*
X-47920Y-185289D01*
X-49887D01*
X-50380Y-184797D01*
Y-183813D01*
X-49887Y-183321D01*
X-47920D01*
X-48904Y-186273D02*
Y-188240D01*
X-47428Y-189224D02*
Y-190208D01*
Y-189716D01*
X-50380D01*
Y-189224D01*
Y-190208D01*
Y-191684D02*
X-47428D01*
X-48412Y-192668D01*
X-47428Y-193652D01*
X-50380D01*
X-47428Y-194636D02*
X-49887D01*
X-50380Y-195128D01*
Y-196112D01*
X-49887Y-196604D01*
X-47428D01*
X148731Y-116628D02*
Y-110630D01*
X151730D01*
X152730Y-111629D01*
Y-113629D01*
X151730Y-114628D01*
X148731D01*
X150730D02*
X152730Y-116628D01*
X154729D02*
X156728D01*
X155729D01*
Y-110630D01*
X154729Y-111629D01*
X159727D02*
X160727Y-110630D01*
X162726D01*
X163726Y-111629D01*
Y-112629D01*
X162726Y-113629D01*
X161727D01*
X162726D01*
X163726Y-114628D01*
Y-115628D01*
X162726Y-116628D01*
X160727D01*
X159727Y-115628D01*
X-47521Y-234120D02*
Y-232808D01*
Y-233464D01*
X-50801D01*
X-51457Y-232808D01*
Y-232152D01*
X-50801Y-231496D01*
Y-235432D02*
X-51457Y-236088D01*
Y-237400D01*
X-50801Y-238056D01*
X-48177D01*
X-47521Y-237400D01*
Y-236088D01*
X-48177Y-235432D01*
X-48833D01*
X-49489Y-236088D01*
Y-238056D01*
Y-239368D02*
Y-241991D01*
X-48177Y-245927D02*
X-47521Y-245271D01*
Y-243959D01*
X-48177Y-243303D01*
X-50801D01*
X-51457Y-243959D01*
Y-245271D01*
X-50801Y-245927D01*
X-51457Y-247239D02*
X-48833D01*
X-47521Y-248551D01*
X-48833Y-249863D01*
X-51457D01*
X-49489D01*
Y-247239D01*
X-51457Y-251175D02*
X-47521D01*
X-51457Y-253799D01*
X-47521D01*
X151200Y-155439D02*
X150200Y-154440D01*
X148201D01*
X147201Y-155439D01*
Y-159438D01*
X148201Y-160438D01*
X150200D01*
X151200Y-159438D01*
X153199Y-154440D02*
Y-160438D01*
Y-157439D01*
X157198D01*
Y-154440D01*
Y-160438D01*
X159197D02*
X161196D01*
X160197D01*
Y-154440D01*
X159197Y-155439D01*
X164837Y-189618D02*
X162838D01*
X163838D01*
Y-194616D01*
X162838Y-195616D01*
X161838D01*
X160839Y-194616D01*
X166837Y-189618D02*
Y-195616D01*
X169836D01*
X170835Y-194616D01*
Y-190617D01*
X169836Y-189618D01*
X166837D01*
X-5163D02*
X-7162D01*
X-6162D01*
Y-194616D01*
X-7162Y-195616D01*
X-8162D01*
X-9161Y-194616D01*
X835Y-190617D02*
X-164Y-189618D01*
X-2164D01*
X-3163Y-190617D01*
Y-194616D01*
X-2164Y-195616D01*
X-164D01*
X835Y-194616D01*
X164808Y60382D02*
X162808D01*
X163808D01*
Y55384D01*
X162808Y54384D01*
X161809D01*
X160809Y55384D01*
X166807Y60382D02*
Y54384D01*
X169806D01*
X170806Y55384D01*
Y56384D01*
X169806Y57383D01*
X166807D01*
X169806D01*
X170806Y58383D01*
Y59383D01*
X169806Y60382D01*
X166807D01*
X-5163D02*
X-7162D01*
X-6162D01*
Y55384D01*
X-7162Y54384D01*
X-8162D01*
X-9161Y55384D01*
X-3163Y54384D02*
Y58383D01*
X-1164Y60382D01*
X835Y58383D01*
Y54384D01*
Y57383D01*
X-3163D01*
X221416Y-31152D02*
Y-32485D01*
Y-31818D01*
X224748D01*
X225415Y-32485D01*
Y-33151D01*
X224748Y-33817D01*
X225415Y-27153D02*
Y-29819D01*
X222749Y-27153D01*
X222083D01*
X221416Y-27819D01*
Y-29152D01*
X222083Y-29819D01*
X223415Y-25820D02*
Y-23154D01*
X221416Y-21821D02*
X225415D01*
Y-19155D01*
X221416Y-15157D02*
Y-17823D01*
X225415D01*
Y-15157D01*
X223415Y-17823D02*
Y-16490D01*
X221416Y-13824D02*
X225415D01*
Y-11825D01*
X224748Y-11158D01*
X222083D01*
X221416Y-11825D01*
Y-13824D01*
X6199Y202925D02*
X5199Y203925D01*
X3200D01*
X2200Y202925D01*
Y201926D01*
X3200Y200926D01*
X5199D01*
X6199Y199926D01*
Y198927D01*
X5199Y197927D01*
X3200D01*
X2200Y198927D01*
X8198Y197927D02*
X10197D01*
X9198D01*
Y203925D01*
X8198Y202925D01*
X156893Y-347432D02*
Y-344433D01*
X158393D01*
X158892Y-344933D01*
Y-345933D01*
X158393Y-346433D01*
X156893D01*
X157893D02*
X158892Y-347432D01*
X159892D02*
X160892D01*
X160392D01*
Y-344433D01*
X159892Y-344933D01*
X162391Y-347432D02*
X163391D01*
X162891D01*
Y-344433D01*
X162391Y-344933D01*
X158158Y-336489D02*
Y-333489D01*
X159658D01*
X160157Y-333989D01*
Y-334989D01*
X159658Y-335489D01*
X158158D01*
X159158D02*
X160157Y-336489D01*
X161157D02*
X162157D01*
X161657D01*
Y-333489D01*
X161157Y-333989D01*
X163656D02*
X164156Y-333489D01*
X165156D01*
X165656Y-333989D01*
Y-335989D01*
X165156Y-336489D01*
X164156D01*
X163656Y-335989D01*
Y-333989D01*
X366Y135567D02*
Y138566D01*
X1866D01*
X2365Y138066D01*
Y137066D01*
X1866Y136566D01*
X366D01*
X1366D02*
X2365Y135567D01*
X3365Y138066D02*
X3865Y138566D01*
X4865D01*
X5364Y138066D01*
Y137566D01*
X4865Y137066D01*
X5364Y136566D01*
Y136067D01*
X4865Y135567D01*
X3865D01*
X3365Y136067D01*
Y136566D01*
X3865Y137066D01*
X3365Y137566D01*
Y138066D01*
X3865Y137066D02*
X4865D01*
X2831Y174892D02*
Y177891D01*
X4330D01*
X4830Y177392D01*
Y176392D01*
X4330Y175892D01*
X2831D01*
X3831D02*
X4830Y174892D01*
X7829Y177891D02*
X6830Y177392D01*
X5830Y176392D01*
Y175392D01*
X6330Y174892D01*
X7329D01*
X7829Y175392D01*
Y175892D01*
X7329Y176392D01*
X5830D01*
X150258Y-356977D02*
Y-353978D01*
X151758D01*
X152257Y-354478D01*
Y-355477D01*
X151758Y-355977D01*
X150258D01*
X151258D02*
X152257Y-356977D01*
X153257Y-356477D02*
X153757Y-356977D01*
X154756D01*
X155256Y-356477D01*
Y-354478D01*
X154756Y-353978D01*
X153757D01*
X153257Y-354478D01*
Y-354977D01*
X153757Y-355477D01*
X155256D01*
X115603Y-299516D02*
Y-295517D01*
X114603Y-294518D01*
X112604D01*
X111604Y-295517D01*
Y-299516D01*
X112604Y-300516D01*
X114603D01*
X113604Y-298516D02*
X115603Y-300516D01*
X114603D02*
X115603Y-299516D01*
X120601Y-300516D02*
Y-294518D01*
X117602Y-297517D01*
X121601D01*
X74180Y-358958D02*
Y-356959D01*
X73681Y-356459D01*
X72681D01*
X72181Y-356959D01*
Y-358958D01*
X72681Y-359458D01*
X73681D01*
X73181Y-358458D02*
X74180Y-359458D01*
X73681D02*
X74180Y-358958D01*
X75180Y-356959D02*
X75680Y-356459D01*
X76679D01*
X77179Y-356959D01*
Y-357458D01*
X76679Y-357958D01*
X76180D01*
X76679D01*
X77179Y-358458D01*
Y-358958D01*
X76679Y-359458D01*
X75680D01*
X75180Y-358958D01*
X-48839Y-297117D02*
Y-303115D01*
Y-301116D01*
X-44840Y-297117D01*
X-47839Y-300116D01*
X-44840Y-303115D01*
X-39842D02*
Y-297117D01*
X-42841Y-300116D01*
X-38842D01*
X51181Y-295340D02*
Y-301339D01*
Y-299339D01*
X55180Y-295340D01*
X52181Y-298340D01*
X55180Y-301339D01*
X57179Y-296340D02*
X58179Y-295340D01*
X60178D01*
X61178Y-296340D01*
Y-297340D01*
X60178Y-298340D01*
X59179D01*
X60178D01*
X61178Y-299339D01*
Y-300339D01*
X60178Y-301339D01*
X58179D01*
X57179Y-300339D01*
X57065Y-172020D02*
Y-178018D01*
Y-176018D01*
X61064Y-172020D01*
X58065Y-175019D01*
X61064Y-178018D01*
X67062D02*
X63063D01*
X67062Y-174019D01*
Y-173019D01*
X66062Y-172020D01*
X64063D01*
X63063Y-173019D01*
X129332Y201430D02*
Y195432D01*
Y197432D01*
X133331Y201430D01*
X130332Y198431D01*
X133331Y195432D01*
X135330D02*
X137329D01*
X136329D01*
Y201430D01*
X135330Y200431D01*
X20959Y-85436D02*
Y-83437D01*
Y-84437D01*
X15961D01*
X14961Y-83437D01*
Y-82437D01*
X15961Y-81438D01*
X14961Y-87436D02*
Y-89435D01*
Y-88435D01*
X20959D01*
X19959Y-87436D01*
X14961Y-92434D02*
Y-94433D01*
Y-93434D01*
X20959D01*
X19959Y-92434D01*
X17960Y-97433D02*
Y-101431D01*
X20959Y-103430D02*
X14961Y-107429D01*
X20959D02*
X14961Y-103430D01*
X20959Y-109429D02*
X14961D01*
Y-112428D01*
X15961Y-113427D01*
X16960D01*
X17960Y-112428D01*
Y-109429D01*
Y-112428D01*
X18960Y-113427D01*
X19959D01*
X20959Y-112428D01*
Y-109429D01*
Y-119425D02*
Y-115427D01*
X14961D01*
Y-119425D01*
X17960Y-115427D02*
Y-117426D01*
X20959Y-125423D02*
Y-121425D01*
X14961D01*
Y-125423D01*
X17960Y-121425D02*
Y-123424D01*
X132875Y-376017D02*
X131542D01*
X132208D01*
Y-379349D01*
X131542Y-380016D01*
X130875D01*
X130209Y-379349D01*
X136873Y-376017D02*
X135541Y-376683D01*
X134208Y-378016D01*
Y-379349D01*
X134874Y-380016D01*
X136207D01*
X136873Y-379349D01*
Y-378683D01*
X136207Y-378016D01*
X134208D01*
X138206D02*
X140872D01*
X142205Y-376017D02*
Y-380016D01*
X144204D01*
X144871Y-379349D01*
Y-376683D01*
X144204Y-376017D01*
X142205D01*
X146204Y-380016D02*
Y-377350D01*
X147537Y-376017D01*
X148870Y-377350D01*
Y-380016D01*
Y-378016D01*
X146204D01*
X152868Y-376683D02*
X152202Y-376017D01*
X150869D01*
X150203Y-376683D01*
Y-377350D01*
X150869Y-378016D01*
X152202D01*
X152868Y-378683D01*
Y-379349D01*
X152202Y-380016D01*
X150869D01*
X150203Y-379349D01*
X154201Y-376017D02*
Y-380016D01*
Y-378016D01*
X156867D01*
Y-376017D01*
Y-380016D01*
X-60090Y-376553D02*
X-61423D01*
X-60757D01*
Y-379885D01*
X-61423Y-380551D01*
X-62090D01*
X-62756Y-379885D01*
X-58757Y-377219D02*
X-58091Y-376553D01*
X-56758D01*
X-56091Y-377219D01*
Y-377885D01*
X-56758Y-378552D01*
X-56091Y-379218D01*
Y-379885D01*
X-56758Y-380551D01*
X-58091D01*
X-58757Y-379885D01*
Y-379218D01*
X-58091Y-378552D01*
X-58757Y-377885D01*
Y-377219D01*
X-58091Y-378552D02*
X-56758D01*
X-54759D02*
X-52093D01*
X-50760Y-380551D02*
Y-376553D01*
X-49427Y-377885D01*
X-48094Y-376553D01*
Y-380551D01*
X-44095Y-377219D02*
X-44762Y-376553D01*
X-46095D01*
X-46761Y-377219D01*
Y-379885D01*
X-46095Y-380551D01*
X-44762D01*
X-44095Y-379885D01*
X-40097Y-380551D02*
X-42762D01*
X-40097Y-377885D01*
Y-377219D01*
X-40763Y-376553D01*
X-42096D01*
X-42762Y-377219D01*
X231040Y-162917D02*
Y-164250D01*
Y-163584D01*
X234372D01*
X235039Y-164250D01*
Y-164917D01*
X234372Y-165583D01*
X231706Y-161584D02*
X231040Y-160918D01*
Y-159585D01*
X231706Y-158919D01*
X232373D01*
X233039Y-159585D01*
Y-160251D01*
Y-159585D01*
X233706Y-158919D01*
X234372D01*
X235039Y-159585D01*
Y-160918D01*
X234372Y-161584D01*
X233039Y-157586D02*
Y-154920D01*
X235039Y-153587D02*
X231040D01*
Y-151588D01*
X231706Y-150921D01*
X233039D01*
X233706Y-151588D01*
Y-153587D01*
X231040Y-149588D02*
X234372D01*
X235039Y-148922D01*
Y-147589D01*
X234372Y-146922D01*
X231040D01*
X235039Y-145589D02*
X231040D01*
X232373Y-144257D01*
X231040Y-142924D01*
X235039D01*
Y-141591D02*
X231040D01*
Y-139592D01*
X231706Y-138925D01*
X233039D01*
X233706Y-139592D01*
Y-141591D01*
X170675Y-376217D02*
X169342D01*
X170008D01*
Y-379549D01*
X169342Y-380216D01*
X168675D01*
X168009Y-379549D01*
X174673Y-376217D02*
X172008D01*
Y-378216D01*
X173341Y-377550D01*
X174007D01*
X174673Y-378216D01*
Y-379549D01*
X174007Y-380216D01*
X172674D01*
X172008Y-379549D01*
X176006Y-378216D02*
X178672D01*
X180005Y-376217D02*
Y-380216D01*
X182004D01*
X182671Y-379549D01*
Y-378883D01*
X182004Y-378216D01*
X180005D01*
X182004D01*
X182671Y-377550D01*
Y-376883D01*
X182004Y-376217D01*
X180005D01*
X184004Y-380216D02*
Y-376217D01*
X185337Y-377550D01*
X186670Y-376217D01*
Y-380216D01*
X190668Y-376883D02*
X190002Y-376217D01*
X188669D01*
X188003Y-376883D01*
Y-377550D01*
X188669Y-378216D01*
X190002D01*
X190668Y-378883D01*
Y-379549D01*
X190002Y-380216D01*
X188669D01*
X188003Y-379549D01*
X221488Y-322922D02*
Y-324255D01*
Y-323588D01*
X224821D01*
X225487Y-324255D01*
Y-324921D01*
X224821Y-325588D01*
X225487Y-319590D02*
X221488D01*
X223488Y-321589D01*
Y-318923D01*
Y-317590D02*
Y-314924D01*
X222155Y-310926D02*
X221488Y-311592D01*
Y-312925D01*
X222155Y-313592D01*
X222821D01*
X223488Y-312925D01*
Y-311592D01*
X224154Y-310926D01*
X224821D01*
X225487Y-311592D01*
Y-312925D01*
X224821Y-313592D01*
X221488Y-309593D02*
X225487D01*
X224154Y-308260D01*
X225487Y-306927D01*
X221488D01*
Y-305594D02*
Y-304261D01*
Y-304928D01*
X225487D01*
Y-305594D01*
Y-304261D01*
X221488Y-302262D02*
Y-299596D01*
Y-300929D01*
X225487D01*
X222155Y-295597D02*
X221488Y-296264D01*
Y-297597D01*
X222155Y-298263D01*
X224821D01*
X225487Y-297597D01*
Y-296264D01*
X224821Y-295597D01*
X221488Y-294264D02*
X225487D01*
X223488D01*
Y-291599D01*
X221488D01*
X225487D01*
X221488Y-287600D02*
Y-290266D01*
X225487D01*
Y-287600D01*
X223488Y-290266D02*
Y-288933D01*
X222155Y-283601D02*
X221488Y-284268D01*
Y-285601D01*
X222155Y-286267D01*
X222821D01*
X223488Y-285601D01*
Y-284268D01*
X224154Y-283601D01*
X224821D01*
X225487Y-284268D01*
Y-285601D01*
X224821Y-286267D01*
X260042Y192634D02*
X262042D01*
X261042D01*
Y197633D01*
X262042Y198632D01*
X263041D01*
X264041Y197633D01*
X258043Y198632D02*
X256044D01*
X257043D01*
Y192634D01*
X258043Y193634D01*
X253045Y195633D02*
X249046D01*
X247046Y192634D02*
Y198632D01*
X244047D01*
X243048Y197633D01*
Y196633D01*
X244047Y195633D01*
X247046D01*
X244047D01*
X243048Y194634D01*
Y193634D01*
X244047Y192634D01*
X247046D01*
X241048Y198632D02*
Y194634D01*
X239049Y192634D01*
X237050Y194634D01*
Y198632D01*
Y195633D01*
X241048D01*
X235050Y192634D02*
X231052D01*
X233051D01*
Y198632D01*
X-19874Y-355089D02*
X-21207D01*
Y-356088D01*
X-20541D01*
X-21207D01*
Y-357088D01*
X-19208D02*
X-18541D01*
X-18875D01*
Y-355089D01*
X-19208Y-355422D01*
X-17542Y-357088D02*
X-16875D01*
X-17209D01*
Y-355089D01*
X-17542Y-355422D01*
X79711Y-394122D02*
X78378D01*
Y-395122D01*
X79044D01*
X78378D01*
Y-396122D01*
X80377D02*
X81043D01*
X80710D01*
Y-394122D01*
X80377Y-394456D01*
X82043D02*
X82376Y-394122D01*
X83043D01*
X83376Y-394456D01*
Y-395789D01*
X83043Y-396122D01*
X82376D01*
X82043Y-395789D01*
Y-394456D01*
X166496Y-354333D02*
X165163D01*
Y-355333D01*
X165829D01*
X165163D01*
Y-356333D01*
X168495Y-354333D02*
X167829Y-354667D01*
X167162Y-355333D01*
Y-355999D01*
X167496Y-356333D01*
X168162D01*
X168495Y-355999D01*
Y-355666D01*
X168162Y-355333D01*
X167162D01*
X219007Y-406529D02*
X217008D01*
Y-408028D01*
X218007D01*
X217008D01*
Y-409528D01*
X222006Y-406529D02*
X220007D01*
Y-408028D01*
X221007Y-407528D01*
X221506D01*
X222006Y-408028D01*
Y-409028D01*
X221506Y-409528D01*
X220507D01*
X220007Y-409028D01*
X191412Y-362804D02*
X190079D01*
Y-363804D01*
X190745D01*
X190079D01*
Y-364803D01*
X193078D02*
Y-362804D01*
X192078Y-363804D01*
X193411D01*
X3620Y86400D02*
X-379D01*
Y83401D01*
X1620D01*
X-379D01*
Y80402D01*
X5619Y85401D02*
X6619Y86400D01*
X8618D01*
X9618Y85401D01*
Y84401D01*
X8618Y83401D01*
X7618D01*
X8618D01*
X9618Y82402D01*
Y81402D01*
X8618Y80402D01*
X6619D01*
X5619Y81402D01*
X12103Y96409D02*
X8104D01*
Y93410D01*
X10103D01*
X8104D01*
Y90411D01*
X18101D02*
X14102D01*
X18101Y94410D01*
Y95410D01*
X17101Y96409D01*
X15102D01*
X14102Y95410D01*
X226939Y241922D02*
X222940D01*
Y238923D01*
X224939D01*
X222940D01*
Y235924D01*
X228938D02*
X230937D01*
X229938D01*
Y241922D01*
X228938Y240922D01*
X185231Y-151375D02*
Y-157373D01*
X188230D01*
X189229Y-156373D01*
Y-152375D01*
X188230Y-151375D01*
X185231D01*
X191229Y-152375D02*
X192228Y-151375D01*
X194228D01*
X195227Y-152375D01*
Y-153374D01*
X194228Y-154374D01*
X195227Y-155374D01*
Y-156373D01*
X194228Y-157373D01*
X192228D01*
X191229Y-156373D01*
Y-155374D01*
X192228Y-154374D01*
X191229Y-153374D01*
Y-152375D01*
X192228Y-154374D02*
X194228D01*
X-39819Y76129D02*
X-40319Y76628D01*
X-41318D01*
X-41818Y76129D01*
Y74129D01*
X-41318Y73629D01*
X-40319D01*
X-39819Y74129D01*
X-38819Y76129D02*
X-38319Y76628D01*
X-37319D01*
X-36820Y76129D01*
Y75629D01*
X-37319Y75129D01*
X-36820Y74629D01*
Y74129D01*
X-37319Y73629D01*
X-38319D01*
X-38819Y74129D01*
Y74629D01*
X-38319Y75129D01*
X-38819Y75629D01*
Y76129D01*
X-38319Y75129D02*
X-37319D01*
X-87191Y75173D02*
X-87691Y75672D01*
X-88690D01*
X-89190Y75173D01*
Y73173D01*
X-88690Y72673D01*
X-87691D01*
X-87191Y73173D01*
X-86191Y75672D02*
X-84192D01*
Y75173D01*
X-86191Y73173D01*
Y72673D01*
X-44910Y249741D02*
X-45910Y250740D01*
X-47909D01*
X-48909Y249741D01*
Y245742D01*
X-47909Y244742D01*
X-45910D01*
X-44910Y245742D01*
X-38912Y250740D02*
X-42911D01*
Y247741D01*
X-40912Y248741D01*
X-39912D01*
X-38912Y247741D01*
Y245742D01*
X-39912Y244742D01*
X-41911D01*
X-42911Y245742D01*
X83630Y81774D02*
X82630Y82773D01*
X80631D01*
X79631Y81774D01*
Y77775D01*
X80631Y76775D01*
X82630D01*
X83630Y77775D01*
X88628Y76775D02*
Y82773D01*
X85629Y79774D01*
X89628D01*
X36011Y81151D02*
X35011Y82150D01*
X33012D01*
X32012Y81151D01*
Y77152D01*
X33012Y76152D01*
X35011D01*
X36011Y77152D01*
X38010Y81151D02*
X39010Y82150D01*
X41009D01*
X42009Y81151D01*
Y80151D01*
X41009Y79151D01*
X40009D01*
X41009D01*
X42009Y78152D01*
Y77152D01*
X41009Y76152D01*
X39010D01*
X38010Y77152D01*
X43530Y227441D02*
X42530Y228440D01*
X40531D01*
X39531Y227441D01*
Y223442D01*
X40531Y222442D01*
X42530D01*
X43530Y223442D01*
X49528Y222442D02*
X45529D01*
X49528Y226441D01*
Y227441D01*
X48528Y228440D01*
X46529D01*
X45529Y227441D01*
X-111484Y214885D02*
X-109485D01*
X-110484D01*
Y220883D01*
X-111484Y219884D01*
X-102487Y214885D02*
X-106486D01*
X-102487Y218884D01*
Y219884D01*
X-103487Y220883D01*
X-105486D01*
X-106486Y219884D01*
X-100488Y220883D02*
Y216885D01*
X-98488Y214885D01*
X-96489Y216885D01*
Y220883D01*
X130560Y116583D02*
X126561D01*
Y113584D01*
X128561Y114583D01*
X129560D01*
X130560Y113584D01*
Y111584D01*
X129560Y110584D01*
X127561D01*
X126561Y111584D01*
X132559Y116583D02*
Y112584D01*
X134559Y110584D01*
X136558Y112584D01*
Y116583D01*
D13*
X-7599Y92964D02*
G03*
X-7599Y92964I-300J0D01*
G01*
X28161Y104124D02*
G03*
X28161Y104124I-300J0D01*
G01*
X-25961Y-364633D02*
G03*
X-25961Y-364633I-300J0D01*
G01*
X88765Y-402629D02*
G03*
X88765Y-402629I-300J0D01*
G01*
X167474Y-373414D02*
G03*
X167474Y-373414I-300J0D01*
G01*
X184688Y-371592D02*
G03*
X184688Y-371592I-300J0D01*
G01*
X234190Y250867D02*
G03*
X234190Y250867I-300J0D01*
G01*
X-1016Y160837D02*
X3256D01*
X-1016Y153538D02*
X3256D01*
X-100509Y50184D02*
Y53124D01*
X-70009Y65944D02*
Y68884D01*
X-100509D02*
X-70009D01*
X-100509Y65944D02*
Y68884D01*
Y50184D02*
X-70009D01*
Y53124D01*
X-57559Y231014D02*
Y233954D01*
X-88059Y215254D02*
Y218194D01*
Y215254D02*
X-57559D01*
Y218194D01*
X-88059Y233954D02*
X-57559D01*
X-88059Y231014D02*
Y233954D01*
X-87789Y252644D02*
Y255584D01*
X-57289D01*
Y236884D02*
Y239824D01*
X-87789Y236884D02*
X-57289D01*
X-87789D02*
Y239824D01*
X-57289Y252644D02*
Y255584D01*
X-53929Y66274D02*
Y69214D01*
X-23429D01*
Y50514D02*
Y53454D01*
X-53929Y50514D02*
X-23429D01*
X-53929D02*
Y53454D01*
X-23429Y66274D02*
Y69214D01*
X46961Y64364D02*
X49901D01*
X46961D02*
Y94864D01*
X62721D02*
X65661D01*
Y64364D02*
Y94864D01*
X62721Y64364D02*
X65661D01*
X46961Y94864D02*
X49901D01*
X59358Y215974D02*
Y218914D01*
X89858Y231734D02*
Y234674D01*
X59358D02*
X89858D01*
X59358Y231734D02*
Y234674D01*
Y215974D02*
X89858D01*
Y218914D01*
X89858Y237284D02*
Y240224D01*
X59358Y237284D02*
X89858D01*
X59358Y253044D02*
Y255984D01*
X89858D01*
Y253044D02*
Y255984D01*
X59358Y237284D02*
Y240224D01*
X95551Y94994D02*
X98491D01*
X111311Y64494D02*
X114251D01*
Y94994D01*
X111311D02*
X114251D01*
X95551Y64494D02*
Y94994D01*
Y64494D02*
X98491D01*
X-11549Y81024D02*
Y84304D01*
X-4249Y81024D02*
Y84304D01*
X168448Y-116915D02*
Y-112644D01*
X175748Y-116915D02*
Y-112644D01*
X-8800Y174154D02*
Y178425D01*
X-1500Y174154D02*
Y178425D01*
X-938Y150312D02*
X3334D01*
X-938Y143013D02*
X3334D01*
X31511Y92184D02*
Y95464D01*
X24211Y92184D02*
Y95464D01*
X146115Y-357464D02*
Y-353193D01*
X138815Y-357464D02*
Y-353193D01*
X175474Y-339246D02*
X179746D01*
X175474Y-331947D02*
X179746D01*
X175474Y-342236D02*
X179746D01*
X175474Y-349535D02*
X179746D01*
X217490Y-395174D02*
X222668D01*
X217490Y-402674D02*
X222668D01*
X202932Y-111746D02*
X207204D01*
X202932Y-104447D02*
X207204D01*
X221950Y254517D02*
X225230D01*
X221950Y247217D02*
X225230D01*
X249378Y42628D02*
Y46899D01*
X242079Y42628D02*
Y46899D01*
D14*
X167682Y-405609D02*
X191067D01*
Y-438916D02*
Y-405609D01*
X167682Y-438916D02*
X191067D01*
X167682D02*
Y-405609D01*
X285055Y-54158D02*
Y8598D01*
X251748Y-54158D02*
Y8598D01*
Y-54158D02*
X285055D01*
X251748Y8598D02*
X285055D01*
X100428Y-438778D02*
Y-405471D01*
Y-438778D02*
X123814D01*
Y-405471D01*
X100428D02*
X123814D01*
X251203Y-164395D02*
X284510D01*
Y-141009D01*
X251203D02*
X284510D01*
X251203Y-164395D02*
Y-141009D01*
X-108668Y-176122D02*
X-75361D01*
X-108668Y-199508D02*
Y-176122D01*
Y-199508D02*
X-75361D01*
Y-176122D01*
X-110025Y-272912D02*
X-76718D01*
X-110025Y-216061D02*
X-76718D01*
Y-272912D02*
Y-216061D01*
X-110025Y-272912D02*
Y-216061D01*
X-67718Y-405774D02*
X-34490D01*
Y-439081D02*
Y-405774D01*
X-67718Y-439081D02*
X-34490D01*
X-67718D02*
Y-405774D01*
X126965Y-438728D02*
Y-405421D01*
Y-438728D02*
X160194D01*
Y-405421D01*
X126965D02*
X160194D01*
X285080Y-333000D02*
Y-276150D01*
X251773Y-333000D02*
Y-276150D01*
Y-333000D02*
X285080D01*
X251773Y-276150D02*
X285080D01*
X236983Y224332D02*
X260368D01*
X236983D02*
Y257640D01*
X260368D01*
Y224332D02*
Y257640D01*
D15*
X18952Y107753D02*
Y207753D01*
Y107753D02*
X118952D01*
Y207753D01*
X18952D02*
X118952D01*
X-19041Y81591D02*
Y206001D01*
X-109198Y81591D02*
X-19041D01*
X-109198Y81591D02*
Y211119D01*
X-24159D01*
X-19041Y206001D01*
X54221Y-234178D02*
Y-227091D01*
X125481Y-234178D02*
Y-181816D01*
X54221Y-234178D02*
X125481D01*
X54221Y-227091D02*
Y-181816D01*
X125481D01*
X127549Y206902D02*
X198809D01*
Y252178D01*
X127549Y259264D02*
X198809D01*
X127549Y206902D02*
Y259264D01*
X198809Y252178D02*
Y259264D01*
X-110570Y-307580D02*
X-39310D01*
X-110570Y-352855D02*
Y-307580D01*
Y-359942D02*
X-39310D01*
Y-307580D01*
X-110570Y-359942D02*
Y-352855D01*
X125745Y-246038D02*
Y-238951D01*
X54485Y-291314D02*
Y-238951D01*
X125745D01*
Y-291314D02*
Y-246038D01*
X54485Y-291314D02*
X125745D01*
X183346Y135985D02*
Y124176D01*
Y135985D02*
X188407D01*
X190094Y135422D01*
X190656Y134860D01*
X191219Y133735D01*
Y132611D01*
X190656Y131486D01*
X190094Y130924D01*
X188407Y130362D01*
X183346D02*
X188407D01*
X190094Y129799D01*
X190656Y129237D01*
X191219Y128112D01*
Y126425D01*
X190656Y125301D01*
X190094Y124739D01*
X188407Y124176D01*
X183346D01*
X197236Y135985D02*
X196111Y135422D01*
X194986Y134298D01*
X194424Y133173D01*
X193862Y131486D01*
Y128675D01*
X194424Y126988D01*
X194986Y125863D01*
X196111Y124739D01*
X197236Y124176D01*
X199485D01*
X200609Y124739D01*
X201734Y125863D01*
X202296Y126988D01*
X202859Y128675D01*
Y131486D01*
X202296Y133173D01*
X201734Y134298D01*
X200609Y135422D01*
X199485Y135985D01*
X197236D01*
X205614D02*
Y124176D01*
X212362D01*
X217591Y135985D02*
Y124176D01*
X213655Y135985D02*
X221527D01*
D16*
X184366Y-203641D02*
X183699Y-202975D01*
X182367D01*
X181700Y-203641D01*
Y-206307D01*
X182367Y-206974D01*
X183699D01*
X184366Y-206307D01*
Y-204974D01*
X183033D01*
X185699Y-206974D02*
Y-202975D01*
X188365Y-206974D01*
Y-202975D01*
X189697D02*
Y-206974D01*
X191697D01*
X192363Y-206307D01*
Y-203641D01*
X191697Y-202975D01*
X189697D01*
X146693Y-207165D02*
Y-203167D01*
X148692D01*
X149359Y-203833D01*
Y-205166D01*
X148692Y-205833D01*
X146693D01*
X153357Y-203833D02*
X152691Y-203167D01*
X151358D01*
X150692Y-203833D01*
Y-206499D01*
X151358Y-207165D01*
X152691D01*
X153357Y-206499D01*
Y-205166D01*
X152024D01*
X154690Y-207165D02*
X156023D01*
X155357D01*
Y-203167D01*
X154690Y-203833D01*
X146496Y-216800D02*
Y-212801D01*
X148495D01*
X149162Y-213468D01*
Y-214801D01*
X148495Y-215467D01*
X146496D01*
X150495Y-212801D02*
Y-216800D01*
Y-215467D01*
X153161Y-212801D01*
X151161Y-214801D01*
X153161Y-216800D01*
X156493D02*
Y-212801D01*
X154493Y-214801D01*
X157159D01*
X146772Y-226850D02*
Y-222852D01*
X148771D01*
X149437Y-223518D01*
Y-224851D01*
X148771Y-225518D01*
X146772D01*
X150770Y-222852D02*
Y-226850D01*
Y-225518D01*
X153436Y-222852D01*
X151437Y-224851D01*
X153436Y-226850D01*
X157435Y-222852D02*
X154769D01*
Y-224851D01*
X156102Y-224185D01*
X156768D01*
X157435Y-224851D01*
Y-226184D01*
X156768Y-226850D01*
X155436D01*
X154769Y-226184D01*
X146693Y-236800D02*
Y-232801D01*
X148692D01*
X149359Y-233468D01*
Y-234801D01*
X148692Y-235467D01*
X146693D01*
X150692Y-236800D02*
Y-232801D01*
X152024Y-234134D01*
X153357Y-232801D01*
Y-236800D01*
X154690Y-233468D02*
X155357Y-232801D01*
X156690D01*
X157356Y-233468D01*
Y-236134D01*
X156690Y-236800D01*
X155357D01*
X154690Y-236134D01*
Y-233468D01*
X146811Y-246457D02*
Y-242458D01*
X148810D01*
X149477Y-243124D01*
Y-244457D01*
X148810Y-245124D01*
X146811D01*
X150810Y-246457D02*
Y-242458D01*
X152143Y-243791D01*
X153475Y-242458D01*
Y-246457D01*
X154808D02*
X156141D01*
X155475D01*
Y-242458D01*
X154808Y-243124D01*
X146496Y-256653D02*
Y-252655D01*
X148495D01*
X149162Y-253321D01*
Y-254654D01*
X148495Y-255321D01*
X146496D01*
X150495Y-256653D02*
Y-252655D01*
X151828Y-253988D01*
X153161Y-252655D01*
Y-256653D01*
X157159D02*
X154493D01*
X157159Y-253988D01*
Y-253321D01*
X156493Y-252655D01*
X155160D01*
X154493Y-253321D01*
X146417Y-266890D02*
Y-262891D01*
X148417D01*
X149083Y-263558D01*
Y-264890D01*
X148417Y-265557D01*
X146417D01*
X150416Y-262891D02*
Y-266890D01*
Y-264890D01*
X153082D01*
Y-262891D01*
Y-266890D01*
X154415Y-263558D02*
X155081Y-262891D01*
X156414D01*
X157080Y-263558D01*
Y-266223D01*
X156414Y-266890D01*
X155081D01*
X154415Y-266223D01*
Y-263558D01*
X146417Y-276850D02*
Y-272852D01*
X148417D01*
X149083Y-273518D01*
Y-274851D01*
X148417Y-275518D01*
X146417D01*
X150416Y-272852D02*
Y-276850D01*
Y-274851D01*
X153082D01*
Y-272852D01*
Y-276850D01*
X154415D02*
X155748D01*
X155081D01*
Y-272852D01*
X154415Y-273518D01*
X146142Y-286653D02*
Y-282655D01*
X148141D01*
X148808Y-283321D01*
Y-284654D01*
X148141Y-285321D01*
X146142D01*
X150140Y-282655D02*
Y-286653D01*
Y-285321D01*
X152806Y-282655D01*
X150807Y-284654D01*
X152806Y-286653D01*
X156805Y-282655D02*
X155472Y-283321D01*
X154139Y-284654D01*
Y-285987D01*
X154806Y-286653D01*
X156139D01*
X156805Y-285987D01*
Y-285321D01*
X156139Y-284654D01*
X154139D01*
X144700Y-296800D02*
Y-292802D01*
X146699D01*
X147366Y-293468D01*
Y-294801D01*
X146699Y-295467D01*
X144700D01*
X148699Y-292802D02*
Y-296800D01*
Y-295467D01*
X151364Y-292802D01*
X149365Y-294801D01*
X151364Y-296800D01*
X152697Y-292802D02*
X155363D01*
Y-293468D01*
X152697Y-296134D01*
Y-296800D01*
X181700Y-296800D02*
Y-292801D01*
X183699D01*
X184366Y-293468D01*
Y-294801D01*
X183699Y-295467D01*
X181700D01*
X185699Y-296800D02*
Y-292801D01*
X187032Y-294134D01*
X188365Y-292801D01*
Y-296800D01*
X192363Y-292801D02*
X191030Y-293468D01*
X189697Y-294801D01*
Y-296134D01*
X190364Y-296800D01*
X191697D01*
X192363Y-296134D01*
Y-295467D01*
X191697Y-294801D01*
X189697D01*
X181700Y-286800D02*
Y-282801D01*
X183699D01*
X184366Y-283468D01*
Y-284801D01*
X183699Y-285467D01*
X181700D01*
X188365Y-286134D02*
Y-283468D01*
X187698Y-282801D01*
X186365D01*
X185699Y-283468D01*
Y-286134D01*
X186365Y-286800D01*
X187698D01*
X187032Y-285467D02*
X188365Y-286800D01*
X187698D02*
X188365Y-286134D01*
X189697Y-286800D02*
X191030D01*
X190364D01*
Y-282801D01*
X189697Y-283468D01*
X181700Y-276800D02*
Y-272801D01*
X183699D01*
X184366Y-273468D01*
Y-274801D01*
X183699Y-275467D01*
X181700D01*
X185699Y-276800D02*
Y-272801D01*
X187698D01*
X188365Y-273468D01*
Y-274801D01*
X187698Y-275467D01*
X185699D01*
X189697Y-273468D02*
X190364Y-272801D01*
X191697D01*
X192363Y-273468D01*
Y-274134D01*
X191697Y-274801D01*
X191030D01*
X191697D01*
X192363Y-275467D01*
Y-276134D01*
X191697Y-276800D01*
X190364D01*
X189697Y-276134D01*
X181700Y-266800D02*
Y-262801D01*
X183699D01*
X184366Y-263468D01*
Y-264801D01*
X183699Y-265467D01*
X181700D01*
X188365Y-266134D02*
Y-263468D01*
X187698Y-262801D01*
X186365D01*
X185699Y-263468D01*
Y-266134D01*
X186365Y-266800D01*
X187698D01*
X187032Y-265467D02*
X188365Y-266800D01*
X187698D02*
X188365Y-266134D01*
X189697Y-263468D02*
X190364Y-262801D01*
X191697D01*
X192363Y-263468D01*
Y-264134D01*
X191697Y-264801D01*
X191030D01*
X191697D01*
X192363Y-265467D01*
Y-266134D01*
X191697Y-266800D01*
X190364D01*
X189697Y-266134D01*
X181700Y-256800D02*
Y-252801D01*
X183699D01*
X184366Y-253468D01*
Y-254801D01*
X183699Y-255467D01*
X181700D01*
X188365Y-256134D02*
Y-253468D01*
X187698Y-252801D01*
X186365D01*
X185699Y-253468D01*
Y-256134D01*
X186365Y-256800D01*
X187698D01*
X187032Y-255467D02*
X188365Y-256800D01*
X187698D02*
X188365Y-256134D01*
X192363Y-256800D02*
X189697D01*
X192363Y-254134D01*
Y-253468D01*
X191697Y-252801D01*
X190364D01*
X189697Y-253468D01*
X181700Y-246800D02*
Y-242801D01*
X183699D01*
X184366Y-243468D01*
Y-244801D01*
X183699Y-245467D01*
X181700D01*
X183033D02*
X184366Y-246800D01*
X188365Y-243468D02*
X187698Y-242801D01*
X186365D01*
X185699Y-243468D01*
Y-244134D01*
X186365Y-244801D01*
X187698D01*
X188365Y-245467D01*
Y-246134D01*
X187698Y-246800D01*
X186365D01*
X185699Y-246134D01*
X189697Y-242801D02*
X192363D01*
X191030D01*
Y-246800D01*
X181700Y-236800D02*
Y-232801D01*
X183699D01*
X184366Y-233468D01*
Y-234801D01*
X183699Y-235467D01*
X181700D01*
X185699Y-236800D02*
Y-234134D01*
X187032Y-232801D01*
X188365Y-234134D01*
Y-236800D01*
Y-234801D01*
X185699D01*
X189697Y-232801D02*
X192363D01*
Y-233468D01*
X189697Y-236134D01*
Y-236800D01*
X181700Y-226800D02*
Y-222801D01*
X183699D01*
X184366Y-223468D01*
Y-224801D01*
X183699Y-225467D01*
X181700D01*
X185699Y-226800D02*
Y-222801D01*
X187698D01*
X188365Y-223468D01*
Y-224801D01*
X187698Y-225467D01*
X185699D01*
X192363Y-222801D02*
X189697D01*
Y-224801D01*
X191030Y-224134D01*
X191697D01*
X192363Y-224801D01*
Y-226134D01*
X191697Y-226800D01*
X190364D01*
X189697Y-226134D01*
X181700Y-216800D02*
Y-212801D01*
X183699D01*
X184366Y-213468D01*
Y-214801D01*
X183699Y-215467D01*
X181700D01*
X185699Y-216800D02*
Y-212801D01*
X187032Y-214134D01*
X188365Y-212801D01*
Y-216800D01*
X189697Y-212801D02*
X192363D01*
Y-213468D01*
X189697Y-216134D01*
Y-216800D01*
X-25035Y-203352D02*
X-24369Y-202686D01*
X-23036D01*
X-22369Y-203352D01*
Y-204019D01*
X-23036Y-204685D01*
X-23702D01*
X-23036D01*
X-22369Y-205352D01*
Y-206018D01*
X-23036Y-206685D01*
X-24369D01*
X-25035Y-206018D01*
X-21036Y-202686D02*
Y-205352D01*
X-19703Y-206685D01*
X-18371Y-205352D01*
Y-202686D01*
X-17038Y-203352D02*
X-16371Y-202686D01*
X-15038D01*
X-14372Y-203352D01*
Y-204019D01*
X-15038Y-204685D01*
X-15705D01*
X-15038D01*
X-14372Y-205352D01*
Y-206018D01*
X-15038Y-206685D01*
X-16371D01*
X-17038Y-206018D01*
X14521Y-203237D02*
X11855D01*
Y-205237D01*
X13188Y-204570D01*
X13854D01*
X14521Y-205237D01*
Y-206569D01*
X13854Y-207236D01*
X12521D01*
X11855Y-206569D01*
X15853Y-203237D02*
Y-205903D01*
X17186Y-207236D01*
X18519Y-205903D01*
Y-203237D01*
X14481Y-214337D02*
X13815Y-213670D01*
X12482D01*
X11815Y-214337D01*
Y-217003D01*
X12482Y-217669D01*
X13815D01*
X14481Y-217003D01*
Y-215670D01*
X13148D01*
X15814Y-217669D02*
Y-213670D01*
X18480Y-217669D01*
Y-213670D01*
X19813D02*
Y-217669D01*
X21812D01*
X22479Y-217003D01*
Y-214337D01*
X21812Y-213670D01*
X19813D01*
X-25500Y-297000D02*
Y-293001D01*
X-23501D01*
X-22834Y-293668D01*
Y-295001D01*
X-23501Y-295667D01*
X-25500D01*
X-21501Y-297000D02*
Y-293001D01*
X-18835Y-297000D01*
Y-293001D01*
X-15503Y-297000D02*
Y-293001D01*
X-17502Y-295001D01*
X-14837D01*
X-25500Y-287000D02*
Y-283001D01*
X-23501D01*
X-22834Y-283668D01*
Y-285001D01*
X-23501Y-285667D01*
X-25500D01*
X-21501Y-287000D02*
Y-283001D01*
X-18835Y-287000D01*
Y-283001D01*
X-14837D02*
X-17502D01*
Y-285001D01*
X-16170Y-284334D01*
X-15503D01*
X-14837Y-285001D01*
Y-286333D01*
X-15503Y-287000D01*
X-16836D01*
X-17502Y-286333D01*
X-25500Y-277000D02*
Y-273001D01*
X-23501D01*
X-22834Y-273668D01*
Y-275001D01*
X-23501Y-275667D01*
X-25500D01*
X-21501Y-277000D02*
Y-273001D01*
X-19502D01*
X-18835Y-273668D01*
Y-275001D01*
X-19502Y-275667D01*
X-21501D01*
X-15503Y-277000D02*
Y-273001D01*
X-17502Y-275001D01*
X-14837D01*
X-25500Y-267000D02*
Y-263001D01*
X-23501D01*
X-22834Y-263668D01*
Y-265001D01*
X-23501Y-265667D01*
X-25500D01*
X-18835Y-266334D02*
Y-263668D01*
X-19502Y-263001D01*
X-20835D01*
X-21501Y-263668D01*
Y-266334D01*
X-20835Y-267000D01*
X-19502D01*
X-20168Y-265667D02*
X-18835Y-267000D01*
X-19502D02*
X-18835Y-266334D01*
X-17502Y-263668D02*
X-16836Y-263001D01*
X-15503D01*
X-14837Y-263668D01*
Y-266334D01*
X-15503Y-267000D01*
X-16836D01*
X-17502Y-266334D01*
Y-263668D01*
X-25500Y-253668D02*
X-22834Y-256333D01*
X-25500D02*
X-22834Y-253668D01*
X-25500Y-255001D02*
X-22834D01*
X-24167Y-256333D02*
Y-253668D01*
X-21501Y-253001D02*
X-18835D01*
X-20168D01*
Y-257000D01*
X-17502Y-253001D02*
X-14837Y-257000D01*
Y-253001D02*
X-17502Y-257000D01*
X-25500Y-243668D02*
X-22834Y-246334D01*
X-25500D02*
X-22834Y-243668D01*
X-25500Y-245001D02*
X-22834D01*
X-24167Y-246334D02*
Y-243668D01*
X-21501Y-247000D02*
Y-243001D01*
X-19502D01*
X-18835Y-243668D01*
Y-245001D01*
X-19502Y-245667D01*
X-21501D01*
X-20168D02*
X-18835Y-247000D01*
X-17502Y-243001D02*
X-14837Y-247000D01*
Y-243001D02*
X-17502Y-247000D01*
X-25500Y-237000D02*
Y-233001D01*
X-23501D01*
X-22834Y-233668D01*
Y-235001D01*
X-23501Y-235667D01*
X-25500D01*
X-21501Y-237000D02*
Y-233001D01*
X-19502D01*
X-18835Y-233668D01*
Y-235001D01*
X-19502Y-235667D01*
X-21501D01*
X-17502Y-237000D02*
X-16170D01*
X-16836D01*
Y-233001D01*
X-17502Y-233668D01*
X-25500Y-227000D02*
Y-223001D01*
X-23501D01*
X-22834Y-223668D01*
Y-225001D01*
X-23501Y-225667D01*
X-25500D01*
X-21501Y-227000D02*
Y-223001D01*
X-19502D01*
X-18835Y-223668D01*
Y-225001D01*
X-19502Y-225667D01*
X-21501D01*
X-17502Y-223668D02*
X-16836Y-223001D01*
X-15503D01*
X-14837Y-223668D01*
Y-226333D01*
X-15503Y-227000D01*
X-16836D01*
X-17502Y-226333D01*
Y-223668D01*
X-25500Y-217000D02*
Y-213001D01*
X-23501D01*
X-22834Y-213668D01*
Y-215001D01*
X-23501Y-215667D01*
X-25500D01*
X-21501Y-213001D02*
Y-217000D01*
X-19502D01*
X-18835Y-216334D01*
Y-213668D01*
X-19502Y-213001D01*
X-21501D01*
X-14837Y-217000D02*
X-17502D01*
X-14837Y-214334D01*
Y-213668D01*
X-15503Y-213001D01*
X-16836D01*
X-17502Y-213668D01*
X11500Y-237000D02*
Y-233001D01*
X13500D01*
X14166Y-233667D01*
Y-235000D01*
X13500Y-235667D01*
X11500D01*
X15499Y-233001D02*
Y-237000D01*
X17498D01*
X18165Y-236333D01*
Y-235667D01*
X17498Y-235000D01*
X15499D01*
X17498D01*
X18165Y-234334D01*
Y-233667D01*
X17498Y-233001D01*
X15499D01*
X22164D02*
X19498D01*
Y-235000D01*
X20831Y-234334D01*
X21497D01*
X22164Y-235000D01*
Y-236333D01*
X21497Y-237000D01*
X20164D01*
X19498Y-236333D01*
X11500Y-227000D02*
Y-223001D01*
X13500D01*
X14166Y-223667D01*
Y-225000D01*
X13500Y-225667D01*
X11500D01*
X15499Y-223001D02*
Y-227000D01*
X17498D01*
X18165Y-226333D01*
Y-225667D01*
X17498Y-225000D01*
X15499D01*
X17498D01*
X18165Y-224334D01*
Y-223667D01*
X17498Y-223001D01*
X15499D01*
X21497Y-227000D02*
Y-223001D01*
X19498Y-225000D01*
X22164D01*
X11500Y-247000D02*
Y-243001D01*
X13500D01*
X14166Y-243667D01*
Y-245000D01*
X13500Y-245667D01*
X11500D01*
X15499Y-243001D02*
Y-247000D01*
Y-245667D01*
X18165Y-243001D01*
X16165Y-245000D01*
X18165Y-247000D01*
X19498Y-243667D02*
X20164Y-243001D01*
X21497D01*
X22164Y-243667D01*
Y-246333D01*
X21497Y-247000D01*
X20164D01*
X19498Y-246333D01*
Y-243667D01*
X11500Y-257000D02*
Y-253001D01*
X13500D01*
X14166Y-253667D01*
Y-255000D01*
X13500Y-255667D01*
X11500D01*
X15499Y-253001D02*
Y-257000D01*
Y-255667D01*
X18165Y-253001D01*
X16165Y-255000D01*
X18165Y-257000D01*
X19498D02*
X20831D01*
X20164D01*
Y-253001D01*
X19498Y-253667D01*
X11500Y-267000D02*
Y-263001D01*
X13500D01*
X14166Y-263667D01*
Y-265000D01*
X13500Y-265667D01*
X11500D01*
X15499Y-263001D02*
Y-267000D01*
Y-265667D01*
X18165Y-263001D01*
X16165Y-265000D01*
X18165Y-267000D01*
X22164D02*
X19498D01*
X22164Y-264334D01*
Y-263667D01*
X21497Y-263001D01*
X20164D01*
X19498Y-263667D01*
X11500Y-277000D02*
Y-273001D01*
X13500D01*
X14166Y-273667D01*
Y-275000D01*
X13500Y-275667D01*
X11500D01*
X15499Y-273001D02*
Y-277000D01*
Y-275667D01*
X18165Y-273001D01*
X16165Y-275000D01*
X18165Y-277000D01*
X19498Y-273667D02*
X20164Y-273001D01*
X21497D01*
X22164Y-273667D01*
Y-274334D01*
X21497Y-275000D01*
X20831D01*
X21497D01*
X22164Y-275667D01*
Y-276333D01*
X21497Y-277000D01*
X20164D01*
X19498Y-276333D01*
X11500Y-287000D02*
Y-283001D01*
X13500D01*
X14166Y-283667D01*
Y-285000D01*
X13500Y-285667D01*
X11500D01*
X15499Y-287000D02*
Y-284334D01*
X16832Y-283001D01*
X18165Y-284334D01*
Y-287000D01*
Y-285000D01*
X15499D01*
X21497Y-287000D02*
Y-283001D01*
X19498Y-285000D01*
X22164D01*
X11500Y-299000D02*
Y-295001D01*
X13500D01*
X14166Y-295667D01*
Y-297000D01*
X13500Y-297667D01*
X11500D01*
X15499Y-299000D02*
Y-296334D01*
X16832Y-295001D01*
X18165Y-296334D01*
Y-299000D01*
Y-297000D01*
X15499D01*
X22164Y-295001D02*
X19498D01*
Y-297000D01*
X20831Y-296334D01*
X21497D01*
X22164Y-297000D01*
Y-298333D01*
X21497Y-299000D01*
X20164D01*
X19498Y-298333D01*
X184363Y46254D02*
X183696Y46920D01*
X182364D01*
X181697Y46254D01*
Y43588D01*
X182364Y42922D01*
X183696D01*
X184363Y43588D01*
Y44921D01*
X183030D01*
X185696Y42922D02*
Y46920D01*
X188362Y42922D01*
Y46920D01*
X189695D02*
Y42922D01*
X191694D01*
X192360Y43588D01*
Y46254D01*
X191694Y46920D01*
X189695D01*
X144500Y-47000D02*
Y-43001D01*
X146500D01*
X147166Y-43668D01*
Y-45000D01*
X146500Y-45667D01*
X144500D01*
X148499Y-43001D02*
Y-47000D01*
X151165D01*
X152498Y-43668D02*
X153164Y-43001D01*
X154497D01*
X155163Y-43668D01*
Y-44334D01*
X154497Y-45000D01*
X153831D01*
X154497D01*
X155163Y-45667D01*
Y-46333D01*
X154497Y-47000D01*
X153164D01*
X152498Y-46333D01*
X144500Y-37000D02*
Y-33001D01*
X146500D01*
X147166Y-33668D01*
Y-35001D01*
X146500Y-35667D01*
X144500D01*
X148499Y-33001D02*
Y-37000D01*
X151165D01*
X155163D02*
X152498D01*
X155163Y-34334D01*
Y-33668D01*
X154497Y-33001D01*
X153164D01*
X152498Y-33668D01*
X144500Y-27000D02*
Y-23001D01*
X146500D01*
X147166Y-23668D01*
Y-25001D01*
X146500Y-25667D01*
X144500D01*
X148499Y-23001D02*
Y-27000D01*
X151165D01*
X152498D02*
X153831D01*
X153164D01*
Y-23001D01*
X152498Y-23668D01*
X144500Y-17000D02*
Y-13001D01*
X146500D01*
X147166Y-13668D01*
Y-15001D01*
X146500Y-15667D01*
X144500D01*
X148499Y-13001D02*
Y-17000D01*
X151165D01*
X152498Y-13668D02*
X153164Y-13001D01*
X154497D01*
X155163Y-13668D01*
Y-16333D01*
X154497Y-17000D01*
X153164D01*
X152498Y-16333D01*
Y-13668D01*
X144500Y-7000D02*
Y-3001D01*
X146500D01*
X147166Y-3668D01*
Y-5001D01*
X146500Y-5667D01*
X144500D01*
X148499Y-3001D02*
Y-7000D01*
X151165D01*
X155163Y-3001D02*
X152498D01*
Y-5001D01*
X153831Y-4334D01*
X154497D01*
X155163Y-5001D01*
Y-6333D01*
X154497Y-7000D01*
X153164D01*
X152498Y-6333D01*
X144500Y3000D02*
Y6999D01*
X146500D01*
X147166Y6332D01*
Y5000D01*
X146500Y4333D01*
X144500D01*
X148499Y6999D02*
Y3000D01*
X151165D01*
X154497D02*
Y6999D01*
X152498Y5000D01*
X155163D01*
X144500Y13000D02*
Y16999D01*
X146500D01*
X147166Y16332D01*
Y14999D01*
X146500Y14333D01*
X144500D01*
X151165Y16332D02*
X150498Y16999D01*
X149165D01*
X148499Y16332D01*
Y13667D01*
X149165Y13000D01*
X150498D01*
X151165Y13667D01*
Y14999D01*
X149832D01*
X152498Y16332D02*
X153164Y16999D01*
X154497D01*
X155163Y16332D01*
Y13667D01*
X154497Y13000D01*
X153164D01*
X152498Y13667D01*
Y16332D01*
X144500Y23000D02*
Y26999D01*
X146500D01*
X147166Y26332D01*
Y24999D01*
X146500Y24333D01*
X144500D01*
X151165Y26999D02*
X148499D01*
Y24999D01*
X149832D01*
X148499D01*
Y23000D01*
X152498Y26332D02*
X153164Y26999D01*
X154497D01*
X155163Y26332D01*
Y25666D01*
X154497Y24999D01*
X153831D01*
X154497D01*
X155163Y24333D01*
Y23667D01*
X154497Y23000D01*
X153164D01*
X152498Y23667D01*
X144500Y33000D02*
Y36999D01*
X146500D01*
X147166Y36332D01*
Y34999D01*
X146500Y34333D01*
X144500D01*
X151165Y36999D02*
X148499D01*
Y34999D01*
X149832D01*
X148499D01*
Y33000D01*
X155163D02*
X152498D01*
X155163Y35666D01*
Y36332D01*
X154497Y36999D01*
X153164D01*
X152498Y36332D01*
X144500Y43000D02*
Y46999D01*
X146500D01*
X147166Y46332D01*
Y45000D01*
X146500Y44333D01*
X144500D01*
X151165Y46999D02*
X148499D01*
Y45000D01*
X149832D01*
X148499D01*
Y43000D01*
X152498D02*
X153831D01*
X153164D01*
Y46999D01*
X152498Y46332D01*
X181500Y-47000D02*
Y-43001D01*
X183500D01*
X184166Y-43667D01*
Y-45000D01*
X183500Y-45667D01*
X181500D01*
X185499Y-47000D02*
Y-43001D01*
X187498D01*
X188165Y-43667D01*
Y-45000D01*
X187498Y-45667D01*
X185499D01*
X192164Y-47000D02*
X189498D01*
X192164Y-44334D01*
Y-43667D01*
X191497Y-43001D01*
X190164D01*
X189498Y-43667D01*
X181500Y-37000D02*
Y-33001D01*
X183500D01*
X184166Y-33667D01*
Y-35000D01*
X183500Y-35667D01*
X181500D01*
X185499Y-37000D02*
Y-33001D01*
X188165Y-37000D01*
Y-33001D01*
X189498Y-33667D02*
X190164Y-33001D01*
X191497D01*
X192164Y-33667D01*
Y-34334D01*
X191497Y-35000D01*
X190831D01*
X191497D01*
X192164Y-35667D01*
Y-36333D01*
X191497Y-37000D01*
X190164D01*
X189498Y-36333D01*
X181500Y-27000D02*
Y-23001D01*
X183500D01*
X184166Y-23667D01*
Y-25000D01*
X183500Y-25667D01*
X181500D01*
X185499Y-27000D02*
Y-23001D01*
X188165Y-27000D01*
Y-23001D01*
X192164Y-27000D02*
X189498D01*
X192164Y-24334D01*
Y-23667D01*
X191497Y-23001D01*
X190164D01*
X189498Y-23667D01*
X181500Y-17000D02*
Y-13001D01*
X183500D01*
X184166Y-13667D01*
Y-15000D01*
X183500Y-15667D01*
X181500D01*
X185499Y-13001D02*
Y-17000D01*
X187498D01*
X188165Y-16333D01*
Y-13667D01*
X187498Y-13001D01*
X185499D01*
X189498Y-13667D02*
X190164Y-13001D01*
X191497D01*
X192164Y-13667D01*
Y-16333D01*
X191497Y-17000D01*
X190164D01*
X189498Y-16333D01*
Y-13667D01*
X181500Y-7000D02*
Y-3001D01*
X183500D01*
X184166Y-3667D01*
Y-5000D01*
X183500Y-5667D01*
X181500D01*
X185499Y-3001D02*
Y-7000D01*
X187498D01*
X188165Y-6333D01*
Y-3667D01*
X187498Y-3001D01*
X185499D01*
X189498Y-7000D02*
X190831D01*
X190164D01*
Y-3001D01*
X189498Y-3667D01*
X181500Y3000D02*
Y6999D01*
X183500D01*
X184166Y6333D01*
Y5000D01*
X183500Y4333D01*
X181500D01*
X182833D02*
X184166Y3000D01*
X188165Y6333D02*
X187498Y6999D01*
X186165D01*
X185499Y6333D01*
Y5666D01*
X186165Y5000D01*
X187498D01*
X188165Y4333D01*
Y3667D01*
X187498Y3000D01*
X186165D01*
X185499Y3667D01*
X189498Y6999D02*
X192164D01*
X190831D01*
Y3000D01*
X181500Y13000D02*
Y16999D01*
X183500D01*
X184166Y16333D01*
Y15000D01*
X183500Y14333D01*
X181500D01*
X185499Y16999D02*
Y13000D01*
Y15000D01*
X188165D01*
Y16999D01*
Y13000D01*
X189498Y16333D02*
X190164Y16999D01*
X191497D01*
X192164Y16333D01*
Y15666D01*
X191497Y15000D01*
X190831D01*
X191497D01*
X192164Y14333D01*
Y13667D01*
X191497Y13000D01*
X190164D01*
X189498Y13667D01*
X181500Y23000D02*
Y26999D01*
X183500D01*
X184166Y26333D01*
Y25000D01*
X183500Y24333D01*
X181500D01*
X185499Y26999D02*
Y23000D01*
Y25000D01*
X188165D01*
Y26999D01*
Y23000D01*
X192164D02*
X189498D01*
X192164Y25666D01*
Y26333D01*
X191497Y26999D01*
X190164D01*
X189498Y26333D01*
X181500Y33000D02*
Y36999D01*
X183500D01*
X184166Y36333D01*
Y35000D01*
X183500Y34333D01*
X181500D01*
X185499Y33000D02*
Y36999D01*
X186832Y35666D01*
X188165Y36999D01*
Y33000D01*
X189498Y36333D02*
X190164Y36999D01*
X191497D01*
X192164Y36333D01*
Y35666D01*
X191497Y35000D01*
X190831D01*
X191497D01*
X192164Y34333D01*
Y33667D01*
X191497Y33000D01*
X190164D01*
X189498Y33667D01*
X15646Y35899D02*
X14979Y36565D01*
X13647D01*
X12980Y35899D01*
Y33233D01*
X13647Y32567D01*
X14979D01*
X15646Y33233D01*
Y34566D01*
X14313D01*
X16979Y32567D02*
Y36565D01*
X19645Y32567D01*
Y36565D01*
X20978D02*
Y32567D01*
X22977D01*
X23643Y33233D01*
Y35899D01*
X22977Y36565D01*
X20978D01*
X15567Y46683D02*
X12901D01*
Y44684D01*
X14234Y45351D01*
X14901D01*
X15567Y44684D01*
Y43351D01*
X14901Y42685D01*
X13568D01*
X12901Y43351D01*
X16900Y46683D02*
Y44018D01*
X18233Y42685D01*
X19566Y44018D01*
Y46683D01*
X-23713Y46017D02*
X-23046Y46683D01*
X-21713D01*
X-21047Y46017D01*
Y45351D01*
X-21713Y44684D01*
X-22380D01*
X-21713D01*
X-21047Y44018D01*
Y43351D01*
X-21713Y42685D01*
X-23046D01*
X-23713Y43351D01*
X-19714Y46683D02*
Y44018D01*
X-18381Y42685D01*
X-17048Y44018D01*
Y46683D01*
X-15715Y46017D02*
X-15049Y46683D01*
X-13716D01*
X-13049Y46017D01*
Y45351D01*
X-13716Y44684D01*
X-14382D01*
X-13716D01*
X-13049Y44018D01*
Y43351D01*
X-13716Y42685D01*
X-15049D01*
X-15715Y43351D01*
X-23516Y32803D02*
Y36802D01*
X-21517D01*
X-20850Y36135D01*
Y34802D01*
X-21517Y34136D01*
X-23516D01*
X-16851Y36802D02*
X-19517D01*
Y32803D01*
X-16851D01*
X-19517Y34802D02*
X-18184D01*
X-13519Y32803D02*
Y36802D01*
X-15518Y34802D01*
X-12853D01*
X-23516Y22803D02*
Y26802D01*
X-21517D01*
X-20850Y26135D01*
Y24802D01*
X-21517Y24136D01*
X-23516D01*
X-16851Y26135D02*
X-17518Y26802D01*
X-18851D01*
X-19517Y26135D01*
Y23469D01*
X-18851Y22803D01*
X-17518D01*
X-16851Y23469D01*
X-13519Y22803D02*
Y26802D01*
X-15518Y24802D01*
X-12853D01*
X-23516Y12803D02*
Y16802D01*
X-21517D01*
X-20850Y16135D01*
Y14802D01*
X-21517Y14136D01*
X-23516D01*
X-16851Y16135D02*
X-17518Y16802D01*
X-18851D01*
X-19517Y16135D01*
Y13469D01*
X-18851Y12803D01*
X-17518D01*
X-16851Y13469D01*
X-12853Y16802D02*
X-15518D01*
Y14802D01*
X-14186Y15469D01*
X-13519D01*
X-12853Y14802D01*
Y13469D01*
X-13519Y12803D01*
X-14852D01*
X-15518Y13469D01*
X-23516Y2803D02*
Y6802D01*
X-21517D01*
X-20850Y6135D01*
Y4802D01*
X-21517Y4136D01*
X-23516D01*
X-16851Y6135D02*
X-17518Y6802D01*
X-18851D01*
X-19517Y6135D01*
Y3469D01*
X-18851Y2803D01*
X-17518D01*
X-16851Y3469D01*
X-12853Y6802D02*
X-14186Y6135D01*
X-15518Y4802D01*
Y3469D01*
X-14852Y2803D01*
X-13519D01*
X-12853Y3469D01*
Y4136D01*
X-13519Y4802D01*
X-15518D01*
X-23516Y-7197D02*
Y-3198D01*
X-21517D01*
X-20850Y-3865D01*
Y-5198D01*
X-21517Y-5864D01*
X-23516D01*
X-16851Y-3198D02*
X-19517D01*
Y-7197D01*
X-16851D01*
X-19517Y-5198D02*
X-18184D01*
X-12853Y-3198D02*
X-15518D01*
Y-5198D01*
X-14186Y-4531D01*
X-13519D01*
X-12853Y-5198D01*
Y-6531D01*
X-13519Y-7197D01*
X-14852D01*
X-15518Y-6531D01*
X-23516Y-17197D02*
Y-13198D01*
X-21517D01*
X-20850Y-13865D01*
Y-15198D01*
X-21517Y-15864D01*
X-23516D01*
X-19517Y-13198D02*
Y-17197D01*
X-17518D01*
X-16851Y-16531D01*
Y-13865D01*
X-17518Y-13198D01*
X-19517D01*
X-15518Y-13865D02*
X-14852Y-13198D01*
X-13519D01*
X-12853Y-13865D01*
Y-14531D01*
X-13519Y-15198D01*
X-14186D01*
X-13519D01*
X-12853Y-15864D01*
Y-16531D01*
X-13519Y-17197D01*
X-14852D01*
X-15518Y-16531D01*
X-23516Y-27197D02*
Y-23198D01*
X-21517D01*
X-20850Y-23865D01*
Y-25198D01*
X-21517Y-25864D01*
X-23516D01*
X-16851Y-23865D02*
X-17518Y-23198D01*
X-18851D01*
X-19517Y-23865D01*
Y-26531D01*
X-18851Y-27197D01*
X-17518D01*
X-16851Y-26531D01*
X-15518Y-23198D02*
X-12853D01*
Y-23865D01*
X-15518Y-26531D01*
Y-27197D01*
X-23516Y-37197D02*
Y-33198D01*
X-21517D01*
X-20850Y-33865D01*
Y-35198D01*
X-21517Y-35864D01*
X-23516D01*
X-19517Y-33198D02*
Y-37197D01*
X-17518D01*
X-16851Y-36531D01*
Y-35864D01*
X-17518Y-35198D01*
X-19517D01*
X-17518D01*
X-16851Y-34531D01*
Y-33865D01*
X-17518Y-33198D01*
X-19517D01*
X-12853Y-37197D02*
X-15518D01*
X-12853Y-34531D01*
Y-33865D01*
X-13519Y-33198D01*
X-14852D01*
X-15518Y-33865D01*
X-23516Y-47197D02*
Y-43198D01*
X-21517D01*
X-20850Y-43865D01*
Y-45198D01*
X-21517Y-45864D01*
X-23516D01*
X-19517Y-43198D02*
Y-47197D01*
X-17518D01*
X-16851Y-46531D01*
Y-45864D01*
X-17518Y-45198D01*
X-19517D01*
X-17518D01*
X-16851Y-44531D01*
Y-43865D01*
X-17518Y-43198D01*
X-19517D01*
X-15518Y-43865D02*
X-14852Y-43198D01*
X-13519D01*
X-12853Y-43865D01*
Y-44531D01*
X-13519Y-45198D01*
X-14186D01*
X-13519D01*
X-12853Y-45864D01*
Y-46531D01*
X-13519Y-47197D01*
X-14852D01*
X-15518Y-46531D01*
X13484Y-47197D02*
Y-43198D01*
X15484D01*
X16150Y-43865D01*
Y-45197D01*
X15484Y-45864D01*
X13484D01*
X17483Y-47197D02*
Y-43198D01*
X18816Y-44531D01*
X20149Y-43198D01*
Y-47197D01*
X24148Y-43198D02*
X21482D01*
Y-45197D01*
X22815Y-44531D01*
X23481D01*
X24148Y-45197D01*
Y-46530D01*
X23481Y-47197D01*
X22148D01*
X21482Y-46530D01*
X13484Y-37197D02*
Y-33198D01*
X15484D01*
X16150Y-33865D01*
Y-35197D01*
X15484Y-35864D01*
X13484D01*
X17483Y-37197D02*
Y-33198D01*
X18816Y-34531D01*
X20149Y-33198D01*
Y-37197D01*
X23481D02*
Y-33198D01*
X21482Y-35197D01*
X24148D01*
X13484Y-27197D02*
Y-23198D01*
X15484D01*
X16150Y-23865D01*
Y-25197D01*
X15484Y-25864D01*
X13484D01*
X17483Y-23198D02*
Y-27197D01*
X19482D01*
X20149Y-26530D01*
Y-23865D01*
X19482Y-23198D01*
X17483D01*
X24148D02*
X22815Y-23865D01*
X21482Y-25197D01*
Y-26530D01*
X22148Y-27197D01*
X23481D01*
X24148Y-26530D01*
Y-25864D01*
X23481Y-25197D01*
X21482D01*
X13484Y-17197D02*
Y-13198D01*
X15484D01*
X16150Y-13865D01*
Y-15198D01*
X15484Y-15864D01*
X13484D01*
X17483Y-13198D02*
Y-17197D01*
X19482D01*
X20149Y-16530D01*
Y-13865D01*
X19482Y-13198D01*
X17483D01*
X21482D02*
X24148D01*
Y-13865D01*
X21482Y-16530D01*
Y-17197D01*
X13484Y-7197D02*
Y-3198D01*
X15484D01*
X16150Y-3865D01*
Y-5198D01*
X15484Y-5864D01*
X13484D01*
X20149Y-3198D02*
X17483D01*
Y-7197D01*
X20149D01*
X17483Y-5198D02*
X18816D01*
X21482Y-3865D02*
X22148Y-3198D01*
X23481D01*
X24148Y-3865D01*
Y-4531D01*
X23481Y-5198D01*
X22815D01*
X23481D01*
X24148Y-5864D01*
Y-6530D01*
X23481Y-7197D01*
X22148D01*
X21482Y-6530D01*
X13484Y2803D02*
Y6802D01*
X15484D01*
X16150Y6135D01*
Y4803D01*
X15484Y4136D01*
X13484D01*
X20149Y6802D02*
X17483D01*
Y2803D01*
X20149D01*
X17483Y4803D02*
X18816D01*
X24148Y2803D02*
X21482D01*
X24148Y5469D01*
Y6135D01*
X23481Y6802D01*
X22148D01*
X21482Y6135D01*
X13484Y12803D02*
Y16802D01*
X15484D01*
X16150Y16135D01*
Y14803D01*
X15484Y14136D01*
X13484D01*
X20149Y16802D02*
X17483D01*
Y12803D01*
X20149D01*
X17483Y14803D02*
X18816D01*
X21482Y12803D02*
X22815D01*
X22148D01*
Y16802D01*
X21482Y16135D01*
X13484Y22803D02*
Y26802D01*
X15484D01*
X16150Y26135D01*
Y24803D01*
X15484Y24136D01*
X13484D01*
X20149Y26802D02*
X17483D01*
Y22803D01*
X20149D01*
X17483Y24803D02*
X18816D01*
X21482Y26135D02*
X22148Y26802D01*
X23481D01*
X24148Y26135D01*
Y23470D01*
X23481Y22803D01*
X22148D01*
X21482Y23470D01*
Y26135D01*
M02*
