G04*
G04 #@! TF.GenerationSoftware,Altium Limited,Altium Designer,18.1.9 (240)*
G04*
G04 Layer_Color=32896*
%FSLAX25Y25*%
%MOIN*%
G70*
G01*
G75*
%ADD14C,0.00500*%
D14*
X213957Y2008D02*
Y35315D01*
Y2008D02*
X237343D01*
Y35315D01*
X213957D02*
X237343D01*
X213957Y2008D02*
Y35315D01*
Y2008D02*
X237343D01*
Y35315D01*
X213957D02*
X237343D01*
X2834Y130336D02*
X36141D01*
X2834Y106950D02*
Y130336D01*
Y106950D02*
X36141D01*
Y130336D01*
X2834D02*
X36141D01*
X2834Y106950D02*
Y130336D01*
Y106950D02*
X36141D01*
Y130336D01*
X398491Y125187D02*
Y148573D01*
X365302Y164636D02*
X398609D01*
X365302Y107786D02*
Y164636D01*
X398609Y107786D02*
Y164636D01*
X365302D02*
X398609D01*
X365302Y107786D02*
Y164636D01*
Y107786D02*
X398609D01*
X3504Y224724D02*
X36811D01*
Y167874D02*
Y224724D01*
X3504Y167874D02*
X36811D01*
X3504D02*
Y224724D01*
X36811Y167874D02*
Y224724D01*
X3504Y167874D02*
X36811D01*
X3622Y183937D02*
Y207323D01*
X398280Y203363D02*
Y226749D01*
X364973Y246434D02*
X398280D01*
X364973Y183678D02*
Y246434D01*
X398280Y183678D02*
Y246434D01*
X364973D02*
X398280D01*
X364973Y183678D02*
Y246434D01*
Y183678D02*
X398280D01*
X350512Y665118D02*
X373898D01*
X350512D02*
Y698425D01*
X373898D01*
Y665118D02*
Y698425D01*
X350512Y665118D02*
X373898D01*
X350512D02*
Y698425D01*
X373898D01*
Y665118D02*
Y698425D01*
X364732Y276391D02*
X398039D01*
Y299777D01*
X364732D02*
X398039D01*
X364732Y276391D02*
Y299777D01*
Y276391D02*
X398039D01*
Y299777D01*
X364732D02*
X398039D01*
X364732Y276391D02*
Y299777D01*
M02*
