G04*
G04 #@! TF.GenerationSoftware,Altium Limited,Altium Designer,18.1.9 (240)*
G04*
G04 Layer_Color=16711935*
%FSLAX25Y25*%
%MOIN*%
G70*
G01*
G75*
%ADD92C,0.00000*%
%ADD93C,0.00100*%
%ADD94C,0.00300*%
D92*
X141900Y25723D02*
G03*
X141900Y25723I-300J0D01*
G01*
X262521Y25767D02*
G03*
X262521Y25767I-300J0D01*
G01*
X204306Y62117D02*
G03*
X204306Y62117I-300J0D01*
G01*
X201860Y43416D02*
G03*
X201860Y43416I-300J0D01*
G01*
X281003Y72572D02*
G03*
X281003Y72572I-300J0D01*
G01*
X291721Y73842D02*
G03*
X291721Y73842I-300J0D01*
G01*
X152018Y71549D02*
G03*
X152018Y71549I-300J0D01*
G01*
X176342Y127648D02*
G03*
X176342Y127648I-300J0D01*
G01*
X343505Y682283D02*
G03*
X343505Y682283I-300J0D01*
G01*
X141690Y540610D02*
G03*
X141690Y540610I-300J0D01*
G01*
X105930Y529450D02*
G03*
X105930Y529450I-300J0D01*
G01*
X89937Y351911D02*
G03*
X89937Y351911I-300J0D01*
G01*
X55142Y453482D02*
G03*
X55142Y453482I-500J0D01*
G01*
X89172Y323226D02*
G03*
X89172Y323226I-500J0D01*
G01*
X300651Y83911D02*
G03*
X303351Y83911I1350J0D01*
G01*
Y70911D02*
G03*
X300651Y70911I-1350J0D01*
G01*
D93*
X355151Y477431D02*
X361451D01*
X355151Y474478D02*
Y477431D01*
Y474478D02*
X361451D01*
Y477431D01*
X355151Y484123D02*
X361451D01*
Y487076D01*
X355151D02*
X361451D01*
X355151Y484123D02*
Y487076D01*
X361451Y474478D02*
Y487076D01*
X355151D02*
X361451D01*
X355151Y474478D02*
Y487076D01*
Y474478D02*
X361451D01*
X203006Y94274D02*
Y99574D01*
X195906D02*
X203006D01*
X195906Y94274D02*
Y99574D01*
Y94274D02*
X203006D01*
X201681D02*
X203006Y95599D01*
X201681Y99574D02*
X203006Y98249D01*
X194156Y98024D02*
X195906D01*
X194156Y95824D02*
Y98024D01*
Y95824D02*
X195906D01*
Y98024D01*
X203006Y96124D02*
X204756D01*
Y97724D01*
X203006D02*
X204756D01*
X203006Y96124D02*
Y97724D01*
X284311Y658489D02*
X289311D01*
X286811D02*
X289311Y661489D01*
X286811Y658489D02*
X288811Y661489D01*
X286811Y658489D02*
X287811Y661489D01*
X286811Y658489D02*
X287311Y661489D01*
X284311D02*
X286811Y658489D01*
X284811Y661489D02*
X286811Y658489D01*
X285311Y661489D02*
X286811Y658489D01*
X285811Y661489D02*
X286811Y658489D01*
X286311Y661489D02*
X286811Y658489D01*
X284311Y661489D02*
X289311D01*
X281063Y664489D02*
Y686497D01*
X292559D01*
Y664489D02*
Y686497D01*
X281063Y664489D02*
X292559D01*
X286811Y660364D02*
X287186Y659239D01*
X286811Y658489D02*
X287186Y659239D01*
X286811Y660364D02*
X287936Y660739D01*
X288311Y661489D01*
X201865Y246528D02*
X202240Y247278D01*
X203365Y247653D01*
X202990Y248778D02*
X203365Y249528D01*
X202990Y248778D02*
X203365Y247653D01*
X197617Y243528D02*
X209113D01*
X197617Y221520D02*
Y243528D01*
Y221520D02*
X209113D01*
Y243528D01*
X200865Y246528D02*
X205865D01*
X203365Y249528D02*
X203865Y246528D01*
X203365Y249528D02*
X204365Y246528D01*
X203365Y249528D02*
X204865Y246528D01*
X203365Y249528D02*
X205365Y246528D01*
X203365Y249528D02*
X205865Y246528D01*
X202865D02*
X203365Y249528D01*
X202365Y246528D02*
X203365Y249528D01*
X201365Y246528D02*
X203365Y249528D01*
X200865Y246528D02*
X203365Y249528D01*
X200865D02*
X205865D01*
X201391Y161009D02*
X206391D01*
X203891D02*
X206391Y164009D01*
X203891Y161009D02*
X205891Y164009D01*
X203891Y161009D02*
X204891Y164009D01*
X203891Y161009D02*
X204391Y164009D01*
X201391D02*
X203891Y161009D01*
X201891Y164009D02*
X203891Y161009D01*
X202391Y164009D02*
X203891Y161009D01*
X202891Y164009D02*
X203891Y161009D01*
X203391Y164009D02*
X203891Y161009D01*
X201391Y164009D02*
X206391D01*
X198143Y167009D02*
Y189017D01*
X209639D01*
Y167009D02*
Y189017D01*
X198143Y167009D02*
X209639D01*
X203891Y162884D02*
X204266Y161759D01*
X203891Y161009D02*
X204266Y161759D01*
X203891Y162884D02*
X205016Y163259D01*
X205391Y164009D01*
X65972Y38179D02*
X66347Y38929D01*
X67472Y39304D01*
X67097Y40429D02*
X67472Y41179D01*
X67097Y40429D02*
X67472Y39304D01*
X61724Y35179D02*
X73220D01*
X61724Y13171D02*
Y35179D01*
Y13171D02*
X73220D01*
Y35179D01*
X64972Y38179D02*
X69972D01*
X67472Y41179D02*
X67972Y38179D01*
X67472Y41179D02*
X68472Y38179D01*
X67472Y41179D02*
X68972Y38179D01*
X67472Y41179D02*
X69472Y38179D01*
X67472Y41179D02*
X69972Y38179D01*
X66972D02*
X67472Y41179D01*
X66472Y38179D02*
X67472Y41179D01*
X65472Y38179D02*
X67472Y41179D01*
X64972Y38179D02*
X67472Y41179D01*
X64972D02*
X69972D01*
X142700Y23823D02*
Y27623D01*
X135800D02*
X142700D01*
X135800Y23823D02*
Y27623D01*
Y23823D02*
X142700D01*
X135800Y27623D02*
X137800D01*
X135800Y23823D02*
Y27623D01*
Y23823D02*
X137800D01*
Y27623D01*
X140700Y23823D02*
X142700D01*
Y27623D01*
X140700D02*
X142700D01*
X140700Y23823D02*
Y27623D01*
X263121Y23867D02*
Y27667D01*
X261121Y23867D02*
X263121D01*
X261121D02*
Y27667D01*
X263121D01*
X266021Y23867D02*
Y27667D01*
X268021D01*
Y23867D02*
Y27667D01*
X266021Y23867D02*
X268021D01*
X261121Y27667D02*
X268021D01*
Y23867D02*
Y27667D01*
X261121Y23867D02*
X268021D01*
X261121D02*
Y27667D01*
X205106Y60217D02*
Y64017D01*
X198206D02*
X205106D01*
X198206Y60217D02*
Y64017D01*
Y60217D02*
X205106D01*
X198206Y64017D02*
X200206D01*
X198206Y60217D02*
Y64017D01*
Y60217D02*
X200206D01*
Y64017D01*
X203106Y60217D02*
X205106D01*
Y64017D01*
X203106D02*
X205106D01*
X203106Y60217D02*
Y64017D01*
X199660Y42316D02*
X203460D01*
X199660D02*
Y49216D01*
X203460D01*
Y42316D02*
Y49216D01*
X199660Y47216D02*
Y49216D01*
X203460D01*
Y47216D02*
Y49216D01*
X199660Y47216D02*
X203460D01*
Y42316D02*
Y44316D01*
X199660Y42316D02*
X203460D01*
X199660D02*
Y44316D01*
X203460D01*
X278803Y71472D02*
X282603D01*
X278803D02*
Y78372D01*
X282603D01*
Y71472D02*
Y78372D01*
X278803Y76372D02*
Y78372D01*
X282603D01*
Y76372D02*
Y78372D01*
X278803Y76372D02*
X282603D01*
Y71472D02*
Y73472D01*
X278803Y71472D02*
X282603D01*
X278803D02*
Y73472D01*
X282603D01*
X252844Y91756D02*
X259144D01*
Y79158D02*
Y91756D01*
X252844Y79158D02*
X259144D01*
X252844D02*
Y91756D01*
X259144Y79158D02*
Y82111D01*
X252844Y79158D02*
X259144D01*
X252844D02*
Y82111D01*
X259144D01*
X252844Y88803D02*
Y91756D01*
X259144D01*
Y88803D02*
Y91756D01*
X252844Y88803D02*
X259144D01*
X204339Y134008D02*
Y140308D01*
X191741D02*
X204339D01*
X191741Y134008D02*
Y140308D01*
Y134008D02*
X204339D01*
X191741Y140308D02*
X194694D01*
X191741Y134008D02*
Y140308D01*
Y134008D02*
X194694D01*
Y140308D01*
X201386Y134008D02*
X204339D01*
Y140308D01*
X201386D02*
X204339D01*
X201386Y134008D02*
Y140308D01*
X287989Y91199D02*
Y97499D01*
Y91199D02*
X290942D01*
Y97499D01*
X287989D02*
X290942D01*
X281297Y91199D02*
Y97499D01*
X278344D02*
X281297D01*
X278344Y91199D02*
Y97499D01*
Y91199D02*
X281297D01*
X278344Y97499D02*
X290942D01*
X278344Y91199D02*
Y97499D01*
Y91199D02*
X290942D01*
Y97499D01*
Y101488D02*
Y107788D01*
X278344Y101488D02*
X290942D01*
X278344D02*
Y107788D01*
X290942D01*
X278344Y101488D02*
X281297D01*
X278344D02*
Y107788D01*
X281297D01*
Y101488D02*
Y107788D01*
X287989D02*
X290942D01*
Y101488D02*
Y107788D01*
X287989Y101488D02*
X290942D01*
X287989D02*
Y107788D01*
X289521Y72742D02*
X293321D01*
X289521D02*
Y79642D01*
X293321D01*
Y72742D02*
Y79642D01*
X289521Y77642D02*
Y79642D01*
X293321D01*
Y77642D02*
Y79642D01*
X289521Y77642D02*
X293321D01*
Y72742D02*
Y74742D01*
X289521Y72742D02*
X293321D01*
X289521D02*
Y74742D01*
X293321D01*
X149818Y70449D02*
X153618D01*
X149818D02*
Y77349D01*
X153618D01*
Y70449D02*
Y77349D01*
X149818Y75349D02*
Y77349D01*
X153618D01*
Y75349D02*
Y77349D01*
X149818Y75349D02*
X153618D01*
Y70449D02*
Y72449D01*
X149818Y70449D02*
X153618D01*
X149818D02*
Y72449D01*
X153618D01*
X174142Y126548D02*
X177942D01*
Y133448D01*
X174142D02*
X177942D01*
X174142Y126548D02*
Y133448D01*
X177942Y131448D02*
Y133448D01*
X174142D02*
X177942D01*
X174142Y131448D02*
Y133448D01*
Y131448D02*
X177942D01*
X174142Y126548D02*
Y128548D01*
Y126548D02*
X177942D01*
Y128548D01*
X174142D02*
X177942D01*
X324896Y329539D02*
Y335839D01*
X312298Y329539D02*
X324896D01*
X312298D02*
Y335839D01*
X324896D01*
X312298Y329539D02*
X315251D01*
X312298D02*
Y335839D01*
X315251D01*
Y329539D02*
Y335839D01*
X321943D02*
X324896D01*
Y329539D02*
Y335839D01*
X321943Y329539D02*
X324896D01*
X321943D02*
Y335839D01*
X282477Y319707D02*
X288777D01*
X282477D02*
Y332305D01*
X288777D01*
Y319707D02*
Y332305D01*
X282477Y329352D02*
Y332305D01*
X288777D01*
Y329352D02*
Y332305D01*
X282477Y329352D02*
X288777D01*
Y319707D02*
Y322659D01*
X282477Y319707D02*
X288777D01*
X282477D02*
Y322659D01*
X288777D01*
X261067Y182436D02*
X267367D01*
X261067D02*
Y185389D01*
X267367D01*
Y182436D02*
Y185389D01*
X261067Y175744D02*
X267367D01*
Y172791D02*
Y175744D01*
X261067Y172791D02*
X267367D01*
X261067D02*
Y175744D01*
X267367Y172791D02*
Y185389D01*
X261067Y172791D02*
X267367D01*
X261067D02*
Y185389D01*
X267367D01*
X330905Y685433D02*
X343505D01*
X330905Y679134D02*
Y685433D01*
Y679134D02*
X343505D01*
Y685433D01*
X138240Y540910D02*
X144540D01*
Y528310D02*
Y540910D01*
X138240Y528310D02*
X144540D01*
X138240D02*
Y540910D01*
X102480Y517150D02*
Y529750D01*
Y517150D02*
X108780D01*
Y529750D01*
X102480D02*
X108780D01*
X202887Y678570D02*
Y696270D01*
X173387Y678570D02*
X202887D01*
X173387D02*
Y696270D01*
X202887D01*
X173387Y674960D02*
X202887D01*
X173387Y657260D02*
Y674960D01*
Y657260D02*
X202887D01*
Y674960D01*
X160990Y505650D02*
X178690D01*
X160990D02*
Y535150D01*
X178690D01*
Y505650D02*
Y535150D01*
X227280Y505780D02*
Y535280D01*
X209580D02*
X227280D01*
X209580Y505780D02*
Y535280D01*
Y505780D02*
X227280D01*
X26240Y678170D02*
Y695870D01*
X55740D01*
Y678170D02*
Y695870D01*
X26240Y678170D02*
X55740D01*
X13520Y509170D02*
X43020D01*
X13520Y491470D02*
Y509170D01*
Y491470D02*
X43020D01*
Y509170D01*
X60100Y491800D02*
Y509500D01*
X89600D01*
Y491800D02*
Y509500D01*
X60100Y491800D02*
X89600D01*
X25970Y656540D02*
X55470D01*
Y674240D01*
X25970D02*
X55470D01*
X25970Y656540D02*
Y674240D01*
X241339Y685630D02*
Y695472D01*
X238386Y685630D02*
X241339D01*
X238386D02*
Y695472D01*
X241339D01*
X248031Y685630D02*
Y695472D01*
X250984D01*
Y685630D02*
Y695472D01*
X248031Y685630D02*
X250984D01*
X238386Y695472D02*
X250984D01*
Y685630D02*
Y695472D01*
X238386Y685630D02*
X250984D01*
X238386D02*
Y695472D01*
X233307Y665158D02*
X243150D01*
Y677756D01*
X233307D02*
X243150D01*
X233307Y665158D02*
Y677756D01*
X243150Y674803D02*
Y677756D01*
X233307D02*
X243150D01*
X233307Y674803D02*
Y677756D01*
Y674803D02*
X243150D01*
X233307Y665158D02*
Y668110D01*
Y665158D02*
X243150D01*
Y668110D01*
X233307D02*
X243150D01*
X31181Y542529D02*
Y552371D01*
X28229Y542529D02*
X31181D01*
X28229D02*
Y552371D01*
X31181D01*
X37874Y542529D02*
Y552371D01*
X40827D01*
Y542529D02*
Y552371D01*
X37874Y542529D02*
X40827D01*
X28229Y552371D02*
X40827D01*
Y542529D02*
Y552371D01*
X28229Y542529D02*
X40827D01*
X28229D02*
Y552371D01*
X53642Y444246D02*
Y454482D01*
Y444246D02*
X71753D01*
Y454482D01*
X53642D02*
X71753D01*
X63797D02*
Y459282D01*
X61597D02*
X63797D01*
X61597Y454482D02*
Y459282D01*
Y454482D02*
X63797D01*
X69553D02*
Y459282D01*
X67653D02*
X69553D01*
X67653Y454482D02*
Y459282D01*
Y454482D02*
X69553D01*
X57742D02*
Y459282D01*
X55842D02*
X57742D01*
X55842Y454482D02*
Y459282D01*
Y454482D02*
X57742D01*
X89872Y324226D02*
X91772D01*
X89872D02*
Y329026D01*
X91772D01*
Y324226D02*
Y329026D01*
X101682Y324226D02*
X103583D01*
X101682D02*
Y329026D01*
X103583D01*
Y324226D02*
Y329026D01*
X95627Y324226D02*
X97827D01*
X95627D02*
Y329026D01*
X97827D01*
Y324226D02*
Y329026D01*
X87672Y324226D02*
X105782D01*
Y313990D02*
Y324226D01*
X87672Y313990D02*
X105782D01*
X87672D02*
Y324226D01*
X118073Y584298D02*
Y590598D01*
Y584298D02*
X121026D01*
Y590598D01*
X118073D02*
X121026D01*
X111381Y584298D02*
Y590598D01*
X108428D02*
X111381D01*
X108428Y584298D02*
Y590598D01*
Y584298D02*
X111381D01*
X108428Y590598D02*
X121026D01*
X108428Y584298D02*
Y590598D01*
Y584298D02*
X121026D01*
Y590598D01*
X298751Y70911D02*
Y83911D01*
X305251Y70911D02*
Y83911D01*
X303351Y70911D02*
X305251D01*
X303351Y83911D02*
X305251D01*
X298751Y70911D02*
X300651D01*
X298751Y83911D02*
X300651D01*
X298751Y71911D02*
X299751Y70911D01*
X105229Y610776D02*
X111529D01*
X105229D02*
Y623374D01*
X111529D01*
Y610776D02*
Y623374D01*
X105229Y620421D02*
Y623374D01*
X111529D01*
Y620421D02*
Y623374D01*
X105229Y620421D02*
X111529D01*
Y610776D02*
Y613729D01*
X105229Y610776D02*
X111529D01*
X105229D02*
Y613729D01*
X111529D01*
X260357Y213129D02*
X266657D01*
Y225727D01*
X260357D02*
X266657D01*
X260357Y213129D02*
Y225727D01*
X266657Y222774D02*
Y225727D01*
X260357D02*
X266657D01*
X260357Y222774D02*
Y225727D01*
Y222774D02*
X266657D01*
X260357Y213129D02*
Y216082D01*
Y213129D02*
X266657D01*
Y216082D01*
X260357D02*
X266657D01*
X215929Y562790D02*
Y569090D01*
X203331D02*
X215929D01*
X203331Y562790D02*
Y569090D01*
Y562790D02*
X215929D01*
X203331Y569090D02*
X206284D01*
X203331Y562790D02*
Y569090D01*
Y562790D02*
X206284D01*
Y569090D01*
X212976Y562790D02*
X215929D01*
Y569090D01*
X212976D02*
X215929D01*
X212976Y562790D02*
Y569090D01*
X170676Y562790D02*
Y569090D01*
X173629D01*
Y562790D02*
Y569090D01*
X170676Y562790D02*
X173629D01*
X163984D02*
Y569090D01*
X161031Y562790D02*
X163984D01*
X161031D02*
Y569090D01*
X163984D01*
X161031Y562790D02*
X173629D01*
X161031D02*
Y569090D01*
X173629D01*
Y562790D02*
Y569090D01*
D94*
X203256Y98589D02*
X199924Y95257D01*
X203256D02*
X199924Y98589D01*
X203256Y96923D02*
X199924D01*
X201590Y95257D02*
Y98589D01*
X299086Y72161D02*
X302418Y75493D01*
Y72161D02*
X299086Y75493D01*
X300752Y72161D02*
Y75493D01*
X302418Y73827D02*
X299086D01*
M02*
