G04*
G04 #@! TF.GenerationSoftware,Altium Limited,Altium Designer,18.1.9 (240)*
G04*
G04 Layer_Color=65535*
%FSLAX25Y25*%
%MOIN*%
G70*
G01*
G75*
%ADD10C,0.00787*%
%ADD11C,0.01181*%
%ADD12C,0.01000*%
%ADD13C,0.00600*%
%ADD14C,0.00500*%
%ADD15C,0.02953*%
%ADD16C,0.00800*%
G36*
X251637Y124429D02*
X251852D01*
Y124376D01*
X252013D01*
Y124322D01*
X252120D01*
Y124268D01*
X252228D01*
Y124214D01*
X252335D01*
Y124161D01*
X252443D01*
Y124107D01*
X252496D01*
Y124053D01*
X252604D01*
Y124000D01*
X252658D01*
Y123946D01*
X252765D01*
Y123892D01*
X252819D01*
Y123838D01*
X252872D01*
Y123785D01*
X252926D01*
Y123731D01*
X252980D01*
Y123677D01*
X253034D01*
Y123623D01*
X253087D01*
Y123570D01*
X253195D01*
Y123516D01*
X253249D01*
Y123462D01*
X253302D01*
Y123408D01*
X253356D01*
Y123355D01*
X253463D01*
Y123301D01*
X253517D01*
Y123247D01*
X253571D01*
Y123194D01*
X253625D01*
Y123140D01*
X253678D01*
Y123086D01*
X253732D01*
Y123032D01*
X253786D01*
Y122979D01*
X253839D01*
Y122925D01*
X253893D01*
Y122871D01*
X253947D01*
Y122818D01*
X254001D01*
Y122764D01*
X254054D01*
Y122710D01*
X254108D01*
Y122656D01*
X254162D01*
Y122603D01*
X254216D01*
Y122549D01*
X254269D01*
Y122495D01*
X254323D01*
Y122441D01*
X254377D01*
Y122388D01*
X254431D01*
Y122334D01*
X254484D01*
Y122280D01*
X254538D01*
Y122227D01*
X254592D01*
Y122173D01*
X254645D01*
Y122119D01*
X254699D01*
Y122065D01*
X254753D01*
Y122011D01*
X254807D01*
Y121958D01*
X254860D01*
Y121904D01*
Y121850D01*
X254914D01*
Y121797D01*
X254968D01*
Y121743D01*
X255022D01*
Y121689D01*
X255075D01*
Y121635D01*
X255129D01*
Y121582D01*
X255183D01*
Y121528D01*
X255237D01*
Y121474D01*
X255290D01*
Y121421D01*
X255344D01*
Y121367D01*
X255398D01*
Y121313D01*
X255451D01*
Y121259D01*
X255505D01*
Y121206D01*
Y121152D01*
X255559D01*
Y121098D01*
X255613D01*
Y121044D01*
X255666D01*
Y120991D01*
X255720D01*
Y120937D01*
Y120883D01*
X255774D01*
Y120829D01*
X255828D01*
Y120776D01*
X255881D01*
Y120722D01*
X255935D01*
Y120668D01*
X255989D01*
Y120615D01*
X256043D01*
Y120561D01*
X256096D01*
Y120507D01*
X256150D01*
Y120453D01*
Y120400D01*
X256204D01*
Y120346D01*
X256257D01*
Y120292D01*
X256311D01*
Y120238D01*
X256365D01*
Y120185D01*
X256419D01*
Y120131D01*
Y120077D01*
X256472D01*
Y120024D01*
Y119970D01*
X256526D01*
Y119916D01*
X256580D01*
Y119862D01*
X256633D01*
Y119809D01*
Y119755D01*
X256687D01*
Y119701D01*
X256795D01*
Y119647D01*
Y119594D01*
X256848D01*
Y119540D01*
X256902D01*
Y119486D01*
X256956D01*
Y119432D01*
Y119379D01*
X257010D01*
Y119325D01*
Y119271D01*
X257063D01*
Y119218D01*
Y119164D01*
Y119110D01*
X257117D01*
Y119056D01*
Y119003D01*
X257171D01*
Y118949D01*
Y118895D01*
Y118842D01*
X257224D01*
Y118788D01*
Y118734D01*
X257278D01*
Y118680D01*
Y118626D01*
Y118573D01*
X257332D01*
Y118519D01*
Y118465D01*
Y118412D01*
X257386D01*
Y118358D01*
Y118304D01*
Y118250D01*
Y118197D01*
X257439D01*
Y118143D01*
Y118089D01*
Y118035D01*
Y117982D01*
X257493D01*
Y117928D01*
Y117874D01*
Y117821D01*
X257547D01*
Y117767D01*
Y117713D01*
Y117659D01*
Y117606D01*
X257601D01*
Y117552D01*
Y117498D01*
Y117445D01*
Y117391D01*
Y117337D01*
X257654D01*
Y117283D01*
Y117229D01*
Y117176D01*
Y117122D01*
Y117068D01*
Y117015D01*
X257708D01*
Y116961D01*
Y116907D01*
Y116853D01*
Y116800D01*
Y116746D01*
X257762D01*
Y116692D01*
Y116639D01*
Y116585D01*
Y116531D01*
Y116477D01*
Y116424D01*
Y116370D01*
X257816D01*
Y116316D01*
X257869D01*
Y116262D01*
Y116209D01*
Y116155D01*
Y116101D01*
Y116048D01*
Y115994D01*
Y115940D01*
Y115886D01*
X257923D01*
Y115832D01*
Y115779D01*
Y115725D01*
Y115671D01*
Y115618D01*
Y115564D01*
Y115510D01*
Y115456D01*
Y115403D01*
Y115349D01*
Y115295D01*
Y115242D01*
Y115188D01*
Y115134D01*
Y115080D01*
Y115027D01*
Y114973D01*
Y114919D01*
Y114865D01*
Y114812D01*
Y114758D01*
Y114704D01*
Y114650D01*
Y114597D01*
Y114543D01*
Y114489D01*
X257869D01*
Y114436D01*
Y114382D01*
Y114328D01*
Y114274D01*
Y114221D01*
Y114167D01*
X257816D01*
Y114113D01*
X257762D01*
Y114059D01*
X257816D01*
Y114006D01*
X257762D01*
Y113952D01*
X257708D01*
Y113898D01*
Y113845D01*
X257654D01*
Y113791D01*
Y113737D01*
Y113683D01*
X257601D01*
Y113630D01*
Y113576D01*
X257547D01*
Y113522D01*
X257493D01*
Y113468D01*
X257439D01*
Y113415D01*
X257386D01*
Y113361D01*
Y113307D01*
X257332D01*
Y113253D01*
X257224D01*
Y113200D01*
X257171D01*
Y113146D01*
X257117D01*
Y113092D01*
X257063D01*
Y113039D01*
X257010D01*
Y112985D01*
X256902D01*
Y112931D01*
X256848D01*
Y112877D01*
X256741D01*
Y112824D01*
Y112770D01*
X256687D01*
Y112716D01*
X256580D01*
Y112662D01*
X256526D01*
Y112609D01*
X256472D01*
Y112555D01*
X256365D01*
Y112501D01*
X256311D01*
Y112448D01*
X256204D01*
Y112394D01*
X256150D01*
Y112340D01*
X256043D01*
Y112286D01*
X255989D01*
Y112233D01*
X255881D01*
Y112179D01*
X255828D01*
Y112125D01*
X255720D01*
Y112071D01*
Y112018D01*
X255828D01*
Y111964D01*
X255989D01*
Y111910D01*
X256043D01*
Y111856D01*
X256204D01*
Y111803D01*
X256311D01*
Y111749D01*
X256472D01*
Y111695D01*
X256633D01*
Y111642D01*
X256741D01*
Y111588D01*
X256902D01*
Y111534D01*
X257010D01*
Y111480D01*
X257117D01*
Y111427D01*
X257224D01*
Y111373D01*
X257332D01*
Y111319D01*
X257386D01*
Y111266D01*
X257493D01*
Y111212D01*
X257601D01*
Y111158D01*
X257654D01*
Y111104D01*
X257762D01*
Y111050D01*
X257816D01*
Y110997D01*
Y110943D01*
X257923D01*
Y110889D01*
X257977D01*
Y110836D01*
X258031D01*
Y110782D01*
X258084D01*
Y110728D01*
X258138D01*
Y110674D01*
X258192D01*
Y110621D01*
X258245D01*
Y110567D01*
X258299D01*
Y110513D01*
X258353D01*
Y110459D01*
Y110406D01*
X258407D01*
Y110352D01*
Y110298D01*
X258460D01*
Y110245D01*
Y110191D01*
Y110137D01*
Y110083D01*
Y110030D01*
X258514D01*
Y109976D01*
X258460D01*
Y109922D01*
Y109869D01*
Y109815D01*
Y109761D01*
Y109707D01*
X258407D01*
Y109654D01*
Y109600D01*
X258353D01*
Y109546D01*
Y109492D01*
Y109439D01*
Y109385D01*
X258407D01*
Y109331D01*
X258460D01*
Y109277D01*
Y109224D01*
X258514D01*
Y109170D01*
Y109116D01*
X258568D01*
Y109063D01*
Y109009D01*
X258622D01*
Y108955D01*
Y108901D01*
X258675D01*
Y108848D01*
X258729D01*
Y108794D01*
Y108740D01*
X258783D01*
Y108686D01*
Y108633D01*
X258837D01*
Y108579D01*
Y108525D01*
X258890D01*
Y108472D01*
Y108418D01*
X258944D01*
Y108364D01*
Y108310D01*
Y108257D01*
Y108203D01*
X258998D01*
Y108149D01*
Y108095D01*
X259051D01*
Y108042D01*
Y107988D01*
Y107934D01*
X259105D01*
Y107880D01*
Y107827D01*
Y107773D01*
X259159D01*
Y107719D01*
Y107666D01*
Y107612D01*
X259213D01*
Y107558D01*
Y107504D01*
Y107451D01*
Y107397D01*
X259266D01*
Y107343D01*
Y107289D01*
Y107236D01*
Y107182D01*
Y107128D01*
X259320D01*
Y107074D01*
Y107021D01*
Y106967D01*
Y106913D01*
Y106860D01*
Y106806D01*
X259374D01*
Y106752D01*
Y106698D01*
Y106645D01*
Y106591D01*
Y106537D01*
Y106483D01*
X259427D01*
Y106430D01*
Y106376D01*
Y106322D01*
Y106269D01*
Y106215D01*
Y106161D01*
Y106107D01*
Y106054D01*
Y106000D01*
Y105946D01*
X259481D01*
Y105892D01*
Y105839D01*
Y105785D01*
Y105731D01*
Y105677D01*
Y105624D01*
Y105570D01*
Y105516D01*
Y105463D01*
Y105409D01*
Y105355D01*
Y105301D01*
Y105248D01*
Y105194D01*
Y105140D01*
Y105087D01*
Y105033D01*
Y104979D01*
Y104925D01*
Y104871D01*
Y104818D01*
Y104764D01*
Y104710D01*
Y104657D01*
Y104603D01*
Y104549D01*
X259427D01*
Y104495D01*
Y104442D01*
Y104388D01*
Y104334D01*
Y104280D01*
Y104227D01*
Y104173D01*
Y104119D01*
Y104066D01*
Y104012D01*
X259374D01*
Y103958D01*
Y103904D01*
Y103851D01*
Y103797D01*
Y103743D01*
Y103690D01*
Y103636D01*
X259320D01*
Y103582D01*
Y103528D01*
Y103474D01*
Y103421D01*
Y103367D01*
X259266D01*
Y103313D01*
Y103260D01*
Y103206D01*
Y103152D01*
Y103098D01*
X259213D01*
Y103045D01*
Y102991D01*
Y102937D01*
Y102884D01*
X259159D01*
Y102830D01*
Y102776D01*
Y102722D01*
Y102669D01*
X259105D01*
Y102615D01*
Y102561D01*
Y102507D01*
X259051D01*
Y102454D01*
Y102400D01*
Y102346D01*
X258998D01*
Y102293D01*
Y102239D01*
Y102185D01*
X258944D01*
Y102131D01*
Y102078D01*
Y102024D01*
X258890D01*
Y101970D01*
Y101916D01*
Y101863D01*
X258837D01*
Y101809D01*
Y101755D01*
Y101701D01*
X258783D01*
Y101648D01*
Y101594D01*
X258729D01*
Y101540D01*
Y101487D01*
X258622D01*
Y101433D01*
X258675D01*
Y101379D01*
X258568D01*
Y101325D01*
Y101272D01*
X258514D01*
Y101218D01*
Y101164D01*
X258460D01*
Y101110D01*
Y101057D01*
Y101003D01*
X258407D01*
Y100949D01*
Y100896D01*
X258353D01*
Y100842D01*
Y100788D01*
X258299D01*
Y100734D01*
X258245D01*
Y100681D01*
Y100627D01*
X258192D01*
Y100573D01*
Y100519D01*
X258138D01*
Y100466D01*
X258084D01*
Y100412D01*
Y100358D01*
X258031D01*
Y100304D01*
X257977D01*
Y100251D01*
X257923D01*
Y100197D01*
Y100143D01*
Y100090D01*
X257869D01*
Y100036D01*
X257816D01*
Y99982D01*
X257762D01*
Y99928D01*
X257708D01*
Y99875D01*
Y99821D01*
X257601D01*
Y99767D01*
Y99713D01*
X257547D01*
Y99660D01*
X257493D01*
Y99606D01*
X257439D01*
Y99552D01*
X257386D01*
Y99498D01*
X257332D01*
Y99445D01*
X257278D01*
Y99391D01*
X257224D01*
Y99337D01*
X257171D01*
Y99284D01*
X257117D01*
Y99230D01*
Y99176D01*
X257063D01*
Y99122D01*
X257010D01*
Y99069D01*
X256956D01*
Y99015D01*
X256902D01*
Y98961D01*
X256848D01*
Y98908D01*
X256741D01*
Y98854D01*
X256687D01*
Y98800D01*
X256633D01*
Y98746D01*
X256526D01*
Y98693D01*
X256472D01*
Y98639D01*
X256365D01*
Y98585D01*
X256311D01*
Y98531D01*
X256204D01*
Y98478D01*
X256150D01*
Y98424D01*
X256043D01*
Y98370D01*
X255989D01*
Y98316D01*
X255935D01*
Y98263D01*
X255828D01*
Y98209D01*
X255774D01*
Y98155D01*
X255666D01*
Y98102D01*
X255559D01*
Y98048D01*
X255451D01*
Y97994D01*
X255344D01*
Y97940D01*
X255237D01*
Y97887D01*
X255075D01*
Y97833D01*
X254914D01*
Y97779D01*
X254753D01*
Y97725D01*
X254592D01*
Y97672D01*
X254323D01*
Y97618D01*
X254054D01*
Y97564D01*
X253678D01*
Y97510D01*
X252550D01*
Y97564D01*
X252174D01*
Y97618D01*
X251744D01*
Y97672D01*
X251260D01*
Y97725D01*
X250777D01*
Y97779D01*
X250347D01*
Y97833D01*
X249864D01*
Y97887D01*
X249380D01*
Y97940D01*
X248896D01*
Y97994D01*
X248466D01*
Y98048D01*
X247983D01*
Y98102D01*
X247499D01*
Y98155D01*
X247070D01*
Y98209D01*
X246586D01*
Y98263D01*
X246102D01*
Y98316D01*
Y98370D01*
X245619D01*
Y98424D01*
X245135D01*
Y98478D01*
X244652D01*
Y98531D01*
X244222D01*
Y98585D01*
X243738D01*
Y98639D01*
X243255D01*
Y98693D01*
X242771D01*
Y98746D01*
X242341D01*
Y98800D01*
X241858D01*
Y98854D01*
X241374D01*
Y98908D01*
X240891D01*
Y98961D01*
X240461D01*
Y99015D01*
X239977D01*
Y99069D01*
X239547D01*
Y99122D01*
X239064D01*
Y99176D01*
X238580D01*
Y99230D01*
Y99284D01*
X238096D01*
Y99337D01*
X237613D01*
Y99391D01*
X237129D01*
Y99445D01*
X236646D01*
Y99498D01*
X236216D01*
Y99552D01*
X235732D01*
Y99606D01*
X235249D01*
Y99660D01*
X234765D01*
Y99713D01*
X234228D01*
Y99767D01*
X233691D01*
Y99821D01*
X233368D01*
Y99875D01*
X232885D01*
Y99928D01*
X232455D01*
Y99982D01*
X231971D01*
Y100036D01*
X231488D01*
Y100090D01*
X231058D01*
Y100143D01*
X231004D01*
Y100197D01*
X230521D01*
Y100251D01*
X230037D01*
Y100304D01*
X229500D01*
Y100358D01*
X230037D01*
Y100304D01*
X230628D01*
Y100251D01*
X231165D01*
Y100197D01*
X231756D01*
Y100143D01*
X231918D01*
Y100090D01*
X232347D01*
Y100036D01*
X232885D01*
Y99982D01*
X232992D01*
Y100036D01*
Y100090D01*
X232938D01*
Y100143D01*
X232885D01*
Y100197D01*
X232777D01*
Y100251D01*
X232723D01*
Y100304D01*
X232616D01*
Y100358D01*
X232562D01*
Y100412D01*
X232455D01*
Y100466D01*
X232401D01*
Y100519D01*
X232347D01*
Y100573D01*
X232294D01*
Y100627D01*
X232240D01*
Y100681D01*
X232186D01*
Y100734D01*
X232133D01*
Y100788D01*
X232079D01*
Y100842D01*
Y100896D01*
X232025D01*
Y100949D01*
X231971D01*
Y101003D01*
Y101057D01*
X231918D01*
Y101110D01*
X231864D01*
Y101164D01*
X231810D01*
Y101218D01*
X231756D01*
Y101272D01*
Y101325D01*
X231703D01*
Y101379D01*
X231649D01*
Y101433D01*
Y101487D01*
X231595D01*
Y101540D01*
Y101594D01*
X231541D01*
Y101648D01*
Y101701D01*
X231488D01*
Y101755D01*
Y101809D01*
X231434D01*
Y101863D01*
Y101916D01*
X231380D01*
Y101970D01*
Y102024D01*
Y102078D01*
Y102131D01*
X231327D01*
Y102185D01*
Y102239D01*
X231273D01*
Y102293D01*
Y102346D01*
Y102400D01*
X231219D01*
Y102454D01*
Y102507D01*
Y102561D01*
X231165D01*
Y102615D01*
Y102669D01*
Y102722D01*
Y102776D01*
X231112D01*
Y102830D01*
Y102884D01*
Y102937D01*
Y102991D01*
X231058D01*
Y103045D01*
Y103098D01*
Y103152D01*
Y103206D01*
Y103260D01*
X231004D01*
Y103313D01*
X230950D01*
Y103367D01*
Y103421D01*
Y103474D01*
Y103528D01*
Y103582D01*
Y103636D01*
X230897D01*
Y103690D01*
Y103743D01*
Y103797D01*
Y103851D01*
Y103904D01*
Y103958D01*
Y104012D01*
Y104066D01*
Y104119D01*
Y104173D01*
X230843D01*
Y104227D01*
Y104280D01*
Y104334D01*
Y104388D01*
Y104442D01*
Y104495D01*
Y104549D01*
Y104603D01*
Y104657D01*
Y104710D01*
Y104764D01*
Y104818D01*
Y104871D01*
Y104925D01*
Y104979D01*
Y105033D01*
Y105087D01*
Y105140D01*
Y105194D01*
Y105248D01*
Y105301D01*
X230897D01*
Y105355D01*
Y105409D01*
Y105463D01*
Y105516D01*
Y105570D01*
Y105624D01*
Y105677D01*
Y105731D01*
Y105785D01*
Y105839D01*
X230950D01*
Y105892D01*
Y105946D01*
Y106000D01*
Y106054D01*
Y106107D01*
Y106161D01*
Y106215D01*
X231004D01*
Y106269D01*
X231058D01*
Y106322D01*
Y106376D01*
Y106430D01*
Y106483D01*
Y106537D01*
X231112D01*
Y106591D01*
Y106645D01*
Y106698D01*
Y106752D01*
Y106806D01*
X231165D01*
Y106860D01*
Y106913D01*
Y106967D01*
Y107021D01*
X231219D01*
Y107074D01*
Y107128D01*
Y107182D01*
X231273D01*
Y107236D01*
Y107289D01*
Y107343D01*
Y107397D01*
X231327D01*
Y107451D01*
Y107504D01*
Y107558D01*
X231380D01*
Y107612D01*
Y107666D01*
Y107719D01*
X231434D01*
Y107773D01*
Y107827D01*
Y107880D01*
X231488D01*
Y107934D01*
Y107988D01*
X231541D01*
Y108042D01*
Y108095D01*
X231595D01*
Y108149D01*
Y108203D01*
Y108257D01*
Y108310D01*
X231649D01*
Y108364D01*
Y108418D01*
X231703D01*
Y108472D01*
Y108525D01*
X231756D01*
Y108579D01*
Y108633D01*
X231810D01*
Y108686D01*
Y108740D01*
X231864D01*
Y108794D01*
X231918D01*
Y108848D01*
Y108901D01*
X232025D01*
Y108955D01*
Y109009D01*
X232079D01*
Y109063D01*
X232133D01*
Y109116D01*
Y109170D01*
Y109224D01*
X232186D01*
Y109277D01*
X232240D01*
Y109331D01*
Y109385D01*
X232294D01*
Y109439D01*
X232347D01*
Y109492D01*
Y109546D01*
X232401D01*
Y109600D01*
X232455D01*
Y109654D01*
X232509D01*
Y109707D01*
X232562D01*
Y109761D01*
Y109815D01*
X232616D01*
Y109869D01*
X232670D01*
Y109922D01*
X232723D01*
Y109976D01*
X232777D01*
Y110030D01*
X232885D01*
Y110083D01*
Y110137D01*
X232938D01*
Y110191D01*
X232992D01*
Y110245D01*
X233046D01*
Y110298D01*
X233100D01*
Y110352D01*
X233207D01*
Y110406D01*
X233261D01*
Y110459D01*
X233314D01*
Y110513D01*
X233368D01*
Y110567D01*
X233476D01*
Y110621D01*
X233529D01*
Y110674D01*
Y110728D01*
X232186D01*
Y110782D01*
X230897D01*
Y110836D01*
X229607D01*
Y110889D01*
X228318D01*
Y110943D01*
X227028D01*
Y110997D01*
X227941D01*
Y111050D01*
X230252D01*
Y111104D01*
X232562D01*
Y111158D01*
X234873D01*
Y111212D01*
X235410D01*
Y111158D01*
X235625D01*
Y111212D01*
Y111266D01*
X235571D01*
Y111319D01*
X235518D01*
Y111373D01*
X235464D01*
Y111427D01*
X235356D01*
Y111480D01*
X235303D01*
Y111534D01*
X235195D01*
Y111588D01*
X234980D01*
Y111642D01*
X234550D01*
Y111695D01*
X234067D01*
Y111749D01*
X233959D01*
Y111803D01*
X233906D01*
Y111856D01*
X233852D01*
Y111910D01*
X233798D01*
Y111964D01*
X233744D01*
Y112018D01*
X233691D01*
Y112071D01*
X233637D01*
Y112125D01*
X233583D01*
Y112179D01*
X233529D01*
Y112233D01*
X233476D01*
Y112286D01*
X233422D01*
Y112340D01*
Y112394D01*
X233368D01*
Y112448D01*
X233314D01*
Y112501D01*
Y112555D01*
X233261D01*
Y112609D01*
Y112662D01*
X233207D01*
Y112716D01*
X233153D01*
Y112770D01*
Y112824D01*
Y112877D01*
X233100D01*
Y112931D01*
X233046D01*
Y112985D01*
Y113039D01*
X232992D01*
Y113092D01*
Y113146D01*
X232938D01*
Y113200D01*
Y113253D01*
X232831D01*
Y113307D01*
X232885D01*
Y113361D01*
X232777D01*
Y113415D01*
X232831D01*
Y113468D01*
X232723D01*
Y113522D01*
Y113576D01*
X232670D01*
Y113630D01*
Y113683D01*
X232616D01*
Y113737D01*
Y113791D01*
X232562D01*
Y113845D01*
Y113898D01*
X232509D01*
Y113952D01*
Y114006D01*
X232455D01*
Y114059D01*
Y114113D01*
X232401D01*
Y114167D01*
Y114221D01*
X232347D01*
Y114274D01*
Y114328D01*
Y114382D01*
X232294D01*
Y114436D01*
Y114489D01*
X232240D01*
Y114543D01*
Y114597D01*
X232186D01*
Y114650D01*
Y114704D01*
Y114758D01*
X232133D01*
Y114812D01*
Y114865D01*
X232079D01*
Y114919D01*
Y114973D01*
Y115027D01*
X232025D01*
Y115080D01*
Y115134D01*
X231971D01*
Y115188D01*
Y115242D01*
X231918D01*
Y115295D01*
X231864D01*
Y115349D01*
Y115403D01*
X231810D01*
Y115456D01*
Y115510D01*
Y115564D01*
X231756D01*
Y115618D01*
Y115671D01*
Y115725D01*
X231703D01*
Y115779D01*
Y115832D01*
Y115886D01*
X231649D01*
Y115940D01*
Y115994D01*
Y116048D01*
X231595D01*
Y116101D01*
Y116155D01*
Y116209D01*
Y116262D01*
Y116316D01*
Y116370D01*
Y116424D01*
Y116477D01*
X231649D01*
Y116531D01*
Y116585D01*
X231703D01*
Y116639D01*
X231810D01*
Y116692D01*
X231918D01*
Y116746D01*
X232133D01*
Y116800D01*
Y116853D01*
X229876D01*
Y116907D01*
X230843D01*
Y116961D01*
X231810D01*
Y117015D01*
X232777D01*
Y117068D01*
X233691D01*
Y117122D01*
X234497D01*
Y117176D01*
X235679D01*
Y117229D01*
X236431D01*
Y117283D01*
X237506D01*
Y117229D01*
X237720D01*
Y117176D01*
X237828D01*
Y117122D01*
X237935D01*
Y117068D01*
X237989D01*
Y117015D01*
X238096D01*
Y116961D01*
X238150D01*
Y116907D01*
X238204D01*
Y116853D01*
X238258D01*
Y116800D01*
X238312D01*
Y116746D01*
Y116692D01*
X238365D01*
Y116639D01*
X238419D01*
Y116585D01*
Y116531D01*
X238473D01*
Y116477D01*
Y116424D01*
X238526D01*
Y116370D01*
Y116316D01*
X238580D01*
Y116262D01*
Y116209D01*
X238634D01*
Y116155D01*
Y116101D01*
X238688D01*
Y116048D01*
Y115994D01*
X238741D01*
Y115940D01*
Y115886D01*
X238795D01*
Y115832D01*
Y115779D01*
X238849D01*
Y115725D01*
Y115671D01*
Y115618D01*
X238902D01*
Y115564D01*
Y115510D01*
X238956D01*
Y115456D01*
Y115403D01*
Y115349D01*
X239010D01*
Y115295D01*
X239064D01*
Y115242D01*
Y115188D01*
X239117D01*
Y115134D01*
Y115080D01*
X239171D01*
Y115027D01*
Y114973D01*
X239225D01*
Y114919D01*
Y114865D01*
Y114812D01*
X239279D01*
Y114758D01*
Y114704D01*
X239332D01*
Y114650D01*
X239386D01*
Y114597D01*
Y114543D01*
Y114489D01*
X239440D01*
Y114436D01*
X239493D01*
Y114382D01*
Y114328D01*
X239601D01*
Y114274D01*
X239870D01*
Y114328D01*
X239923D01*
Y114382D01*
X240031D01*
Y114436D01*
X240085D01*
Y114489D01*
X240192D01*
Y114543D01*
X240246D01*
Y114597D01*
Y114650D01*
X240300D01*
Y114704D01*
X240353D01*
Y114758D01*
X240407D01*
Y114812D01*
X240461D01*
Y114865D01*
X240514D01*
Y114919D01*
Y114973D01*
X240568D01*
Y115027D01*
X240622D01*
Y115080D01*
Y115134D01*
X240676D01*
Y115188D01*
Y115242D01*
Y115295D01*
X240729D01*
Y115349D01*
Y115403D01*
Y115456D01*
Y115510D01*
Y115564D01*
Y115618D01*
Y115671D01*
Y115725D01*
Y115779D01*
Y115832D01*
Y115886D01*
Y115940D01*
Y115994D01*
Y116048D01*
Y116101D01*
Y116155D01*
Y116209D01*
Y116262D01*
Y116316D01*
Y116370D01*
Y116424D01*
Y116477D01*
Y116531D01*
X240783D01*
Y116585D01*
Y116639D01*
Y116692D01*
Y116746D01*
X240891D01*
Y116800D01*
Y116853D01*
Y116907D01*
X240944D01*
Y116961D01*
Y117015D01*
X240998D01*
Y117068D01*
Y117122D01*
X241052D01*
Y117176D01*
X241105D01*
Y117229D01*
X241159D01*
Y117283D01*
Y117337D01*
X241213D01*
Y117391D01*
X241267D01*
Y117445D01*
X241320D01*
Y117498D01*
X241374D01*
Y117552D01*
X241428D01*
Y117606D01*
X241535D01*
Y117659D01*
X241589D01*
Y117713D01*
X241643D01*
Y117767D01*
X241750D01*
Y117821D01*
X241858D01*
Y117874D01*
X241965D01*
Y117928D01*
X242073D01*
Y117982D01*
X242126D01*
Y118035D01*
X242287D01*
Y118089D01*
X242395D01*
Y118143D01*
X242502D01*
Y118197D01*
X242610D01*
Y118250D01*
Y118304D01*
X242717D01*
Y118358D01*
X242825D01*
Y118412D01*
X242986D01*
Y118465D01*
X243093D01*
Y118519D01*
X243201D01*
Y118573D01*
X243362D01*
Y118626D01*
X243523D01*
Y118680D01*
X243738D01*
Y118734D01*
X244061D01*
Y118788D01*
X245511D01*
Y118734D01*
X246049D01*
Y118680D01*
X246479D01*
Y118626D01*
X246801D01*
Y118573D01*
X247123D01*
Y118519D01*
X247446D01*
Y118465D01*
X247714D01*
Y118412D01*
X247983D01*
Y118358D01*
X248252D01*
Y118304D01*
X248520D01*
Y118250D01*
X248574D01*
Y118197D01*
X248843D01*
Y118143D01*
X249111D01*
Y118089D01*
X249864D01*
Y118143D01*
X250132D01*
Y118197D01*
X250347D01*
Y118250D01*
Y118304D01*
X250562D01*
Y118358D01*
X250723D01*
Y118412D01*
X250884D01*
Y118465D01*
X250938D01*
Y118519D01*
X250992D01*
Y118573D01*
Y118626D01*
Y118680D01*
Y118734D01*
X250938D01*
Y118788D01*
Y118842D01*
Y118895D01*
X250884D01*
Y118949D01*
Y119003D01*
X250831D01*
Y119056D01*
Y119110D01*
X250777D01*
Y119164D01*
X250723D01*
Y119218D01*
Y119271D01*
X250670D01*
Y119325D01*
X250616D01*
Y119379D01*
X250562D01*
Y119432D01*
X250454D01*
Y119486D01*
X250401D01*
Y119540D01*
X250347D01*
Y119594D01*
X250293D01*
Y119647D01*
X250186D01*
Y119701D01*
X250025D01*
Y119755D01*
X249864D01*
Y119809D01*
X249649D01*
Y119862D01*
X249434D01*
Y119916D01*
X249219D01*
Y119970D01*
X248950D01*
Y120024D01*
X248735D01*
Y120077D01*
Y120131D01*
X248520D01*
Y120185D01*
X248305D01*
Y120238D01*
X248090D01*
Y120292D01*
X247875D01*
Y120346D01*
X247714D01*
Y120400D01*
X247607D01*
Y120453D01*
X247446D01*
Y120507D01*
X247338D01*
Y120561D01*
X247284D01*
Y120615D01*
X247177D01*
Y120668D01*
X247123D01*
Y120722D01*
X247070D01*
Y120776D01*
X247016D01*
Y120829D01*
X246962D01*
Y120883D01*
Y120937D01*
X246908D01*
Y120991D01*
Y121044D01*
Y121098D01*
Y121152D01*
Y121206D01*
Y121259D01*
Y121313D01*
Y121367D01*
Y121421D01*
X246962D01*
Y121474D01*
Y121528D01*
X247016D01*
Y121582D01*
Y121635D01*
X247070D01*
Y121689D01*
X247123D01*
Y121743D01*
X247177D01*
Y121797D01*
X247231D01*
Y121850D01*
Y121904D01*
X247284D01*
Y121958D01*
X247338D01*
Y122011D01*
X247392D01*
Y122065D01*
Y122119D01*
X247446D01*
Y122173D01*
X247499D01*
Y122227D01*
X247553D01*
Y122280D01*
X247607D01*
Y122334D01*
X247660D01*
Y122388D01*
Y122441D01*
X247714D01*
Y122495D01*
X247768D01*
Y122549D01*
X247822D01*
Y122603D01*
X247875D01*
Y122656D01*
X247929D01*
Y122710D01*
X247983D01*
Y122764D01*
X248037D01*
Y122818D01*
X248090D01*
Y122871D01*
X248144D01*
Y122925D01*
X248198D01*
Y122979D01*
X248252D01*
Y123032D01*
X248305D01*
Y123086D01*
X248359D01*
Y123140D01*
X248413D01*
Y123194D01*
X248466D01*
Y123247D01*
X248520D01*
Y123301D01*
X248574D01*
Y123355D01*
X248681D01*
Y123408D01*
X248735D01*
Y123462D01*
X248789D01*
Y123516D01*
X248896D01*
Y123570D01*
X248950D01*
Y123623D01*
X249058D01*
Y123677D01*
Y123731D01*
X249165D01*
Y123785D01*
Y123838D01*
X248520D01*
Y123785D01*
X247768D01*
Y123731D01*
X247070D01*
Y123677D01*
Y123623D01*
X246317D01*
Y123570D01*
X245619D01*
Y123516D01*
X244920D01*
Y123462D01*
X244168D01*
Y123408D01*
X243470D01*
Y123355D01*
X242717D01*
Y123301D01*
X242019D01*
Y123247D01*
X241320D01*
Y123194D01*
X240568D01*
Y123140D01*
X239870D01*
Y123086D01*
X239117D01*
Y123032D01*
X238419D01*
Y122979D01*
X237667D01*
Y122925D01*
X236968D01*
Y122871D01*
X236216D01*
Y122818D01*
X235518D01*
Y122764D01*
X235464D01*
Y122710D01*
X234819D01*
Y122764D01*
X234873D01*
Y122818D01*
X235410D01*
Y122871D01*
X235947D01*
Y122925D01*
X236431D01*
Y122979D01*
X237022D01*
Y123032D01*
X237506D01*
Y123086D01*
X238043D01*
Y123140D01*
X238580D01*
Y123194D01*
X239117D01*
Y123247D01*
X239655D01*
Y123301D01*
X240192D01*
Y123355D01*
X240729D01*
Y123408D01*
X241267D01*
Y123462D01*
X241804D01*
Y123516D01*
X242341D01*
Y123570D01*
X242879D01*
Y123623D01*
X243416D01*
Y123677D01*
X243470D01*
Y123731D01*
X243953D01*
Y123785D01*
X244491D01*
Y123838D01*
X245028D01*
Y123892D01*
X245565D01*
Y123946D01*
X246102D01*
Y124000D01*
X246640D01*
Y124053D01*
X247177D01*
Y124107D01*
X247714D01*
Y124161D01*
X248252D01*
Y124214D01*
X248789D01*
Y124268D01*
X249326D01*
Y124322D01*
X249810D01*
Y124376D01*
X250401D01*
Y124429D01*
X250777D01*
Y124483D01*
X251637D01*
Y124429D01*
D02*
G37*
%LPC*%
G36*
X251529Y123892D02*
X250992D01*
Y123838D01*
X250670D01*
Y123785D01*
X250508D01*
Y123731D01*
X250347D01*
Y123677D01*
X250293D01*
Y123623D01*
X250186D01*
Y123570D01*
X250078D01*
Y123516D01*
X249971D01*
Y123462D01*
X249864D01*
Y123408D01*
X249756D01*
Y123355D01*
X249702D01*
Y123301D01*
X249595D01*
Y123247D01*
X249487D01*
Y123194D01*
X249434D01*
Y123140D01*
X249326D01*
Y123086D01*
X249272D01*
Y123032D01*
X249219D01*
Y122979D01*
X249111D01*
Y122925D01*
X249058D01*
Y122871D01*
X249004D01*
Y122818D01*
X248950D01*
Y122764D01*
Y122710D01*
X248843D01*
Y122656D01*
X248789D01*
Y122603D01*
X248735D01*
Y122549D01*
X248681D01*
Y122495D01*
X248628D01*
Y122441D01*
X248574D01*
Y122388D01*
X248520D01*
Y122334D01*
X248466D01*
Y122280D01*
X248413D01*
Y122227D01*
X248359D01*
Y122173D01*
X248305D01*
Y122119D01*
X248252D01*
Y122065D01*
X248198D01*
Y122011D01*
X248144D01*
Y121958D01*
X248090D01*
Y121904D01*
Y121850D01*
X248037D01*
Y121797D01*
X247983D01*
Y121743D01*
X247929D01*
Y121689D01*
Y121635D01*
X247875D01*
Y121582D01*
X247768D01*
Y121528D01*
Y121474D01*
X247714D01*
Y121421D01*
X247660D01*
Y121367D01*
X247607D01*
Y121313D01*
Y121259D01*
X247553D01*
Y121206D01*
Y121152D01*
X247660D01*
Y121098D01*
X247768D01*
Y121044D01*
X247875D01*
Y120991D01*
X247983D01*
Y120937D01*
X248037D01*
Y120883D01*
X248198D01*
Y120829D01*
X248413D01*
Y120776D01*
X248628D01*
Y120722D01*
X248843D01*
Y120668D01*
X249058D01*
Y120615D01*
X249326D01*
Y120561D01*
X249541D01*
Y120507D01*
X249756D01*
Y120453D01*
X249971D01*
Y120400D01*
X250186D01*
Y120346D01*
X250347D01*
Y120292D01*
X250454D01*
Y120238D01*
X250562D01*
Y120185D01*
X250670D01*
Y120131D01*
X250723D01*
Y120077D01*
X250777D01*
Y120024D01*
X250831D01*
Y119970D01*
X250884D01*
Y119916D01*
X250938D01*
Y119862D01*
X250992D01*
Y119809D01*
X251046D01*
Y119755D01*
X251099D01*
Y119701D01*
X251153D01*
Y119647D01*
X251207D01*
Y119594D01*
X251260D01*
Y119540D01*
Y119486D01*
X251314D01*
Y119432D01*
X251368D01*
Y119379D01*
Y119325D01*
X251422D01*
Y119271D01*
Y119218D01*
X251475D01*
Y119164D01*
Y119110D01*
Y119056D01*
X251529D01*
Y119003D01*
X251583D01*
Y118949D01*
Y118895D01*
Y118842D01*
Y118788D01*
X251637D01*
Y118734D01*
Y118680D01*
Y118626D01*
Y118573D01*
Y118519D01*
Y118465D01*
X251583D01*
Y118412D01*
Y118358D01*
Y118304D01*
X251529D01*
Y118250D01*
X251475D01*
Y118197D01*
Y118143D01*
X251422D01*
Y118089D01*
Y118035D01*
Y117982D01*
X251314D01*
Y117928D01*
X251260D01*
Y117874D01*
X251207D01*
Y117821D01*
X251046D01*
Y117767D01*
X250884D01*
Y117713D01*
X250670D01*
Y117659D01*
X250454D01*
Y117606D01*
X250240D01*
Y117552D01*
X249971D01*
Y117498D01*
X249004D01*
Y117552D01*
X248735D01*
Y117606D01*
X248466D01*
Y117659D01*
X248198D01*
Y117713D01*
X247929D01*
Y117767D01*
X247607D01*
Y117821D01*
X247338D01*
Y117874D01*
X247070D01*
Y117928D01*
X246693D01*
Y117982D01*
X246371D01*
Y118035D01*
X245995D01*
Y118089D01*
X245458D01*
Y118143D01*
X244168D01*
Y118089D01*
X243846D01*
Y118035D01*
X243685D01*
Y117982D01*
X243523D01*
Y117928D01*
X243416D01*
Y117874D01*
X243255D01*
Y117821D01*
X243147D01*
Y117767D01*
X243040D01*
Y117713D01*
X242879D01*
Y117659D01*
X242771D01*
Y117606D01*
X242664D01*
Y117552D01*
X242556D01*
Y117498D01*
X242449D01*
Y117445D01*
X242341D01*
Y117391D01*
X242234D01*
Y117337D01*
Y117283D01*
X242126D01*
Y117229D01*
X242073D01*
Y117176D01*
X241965D01*
Y117122D01*
X241911D01*
Y117068D01*
X241804D01*
Y117015D01*
X241750D01*
Y116961D01*
X241697D01*
Y116907D01*
X241643D01*
Y116853D01*
X241535D01*
Y116800D01*
Y116746D01*
X241482D01*
Y116692D01*
Y116639D01*
X241428D01*
Y116585D01*
Y116531D01*
Y116477D01*
Y116424D01*
X241374D01*
Y116370D01*
Y116316D01*
Y116262D01*
Y116209D01*
Y116155D01*
Y116101D01*
Y116048D01*
Y115994D01*
Y115940D01*
Y115886D01*
Y115832D01*
Y115779D01*
Y115725D01*
Y115671D01*
Y115618D01*
Y115564D01*
Y115510D01*
Y115456D01*
Y115403D01*
Y115349D01*
Y115295D01*
Y115242D01*
X241320D01*
Y115188D01*
Y115134D01*
Y115080D01*
Y115027D01*
X241267D01*
Y114973D01*
Y114919D01*
X241213D01*
Y114865D01*
Y114812D01*
X241159D01*
Y114758D01*
Y114704D01*
X241105D01*
Y114650D01*
Y114597D01*
X241052D01*
Y114543D01*
Y114489D01*
X240998D01*
Y114436D01*
X240944D01*
Y114382D01*
X240891D01*
Y114328D01*
X240837D01*
Y114274D01*
X240783D01*
Y114221D01*
X240729D01*
Y114167D01*
X240676D01*
Y114113D01*
X240622D01*
Y114059D01*
X240568D01*
Y114006D01*
X240514D01*
Y113952D01*
X240407D01*
Y113898D01*
X240353D01*
Y113845D01*
X240246D01*
Y113791D01*
X240138D01*
Y113737D01*
Y113683D01*
X240031D01*
Y113630D01*
X239440D01*
Y113683D01*
X239332D01*
Y113737D01*
X239279D01*
Y113791D01*
X239171D01*
Y113845D01*
X239117D01*
Y113898D01*
X239064D01*
Y113952D01*
X239010D01*
Y114006D01*
X238956D01*
Y114059D01*
X238902D01*
Y114113D01*
Y114167D01*
X238849D01*
Y114221D01*
X238795D01*
Y114274D01*
Y114328D01*
X238741D01*
Y114382D01*
Y114436D01*
X238688D01*
Y114489D01*
Y114543D01*
X238634D01*
Y114597D01*
Y114650D01*
Y114704D01*
X238580D01*
Y114758D01*
Y114812D01*
X238526D01*
Y114865D01*
Y114919D01*
Y114973D01*
X238473D01*
Y115027D01*
Y115080D01*
X238419D01*
Y115134D01*
Y115188D01*
X238365D01*
Y115242D01*
Y115295D01*
Y115349D01*
X238312D01*
Y115403D01*
Y115456D01*
X238258D01*
Y115510D01*
Y115564D01*
Y115618D01*
X238204D01*
Y115671D01*
Y115725D01*
X238150D01*
Y115779D01*
X238096D01*
Y115832D01*
Y115886D01*
X238043D01*
Y115940D01*
X237989D01*
Y115994D01*
Y116048D01*
X237935D01*
Y116101D01*
Y116155D01*
X237882D01*
Y116209D01*
X237828D01*
Y116262D01*
Y116316D01*
X237774D01*
Y116370D01*
X237720D01*
Y116424D01*
Y116477D01*
X237667D01*
Y116531D01*
X237613D01*
Y116585D01*
X237559D01*
Y116639D01*
X237398D01*
Y116692D01*
X235679D01*
Y116639D01*
X234980D01*
Y116585D01*
X234443D01*
Y116531D01*
X233959D01*
Y116477D01*
X233583D01*
Y116424D01*
X233529D01*
Y116370D01*
X233207D01*
Y116316D01*
X232885D01*
Y116262D01*
X232616D01*
Y116209D01*
X232401D01*
Y116155D01*
X232294D01*
Y116101D01*
Y116048D01*
Y115994D01*
Y115940D01*
X232347D01*
Y115886D01*
Y115832D01*
X232401D01*
Y115779D01*
Y115725D01*
Y115671D01*
X232455D01*
Y115618D01*
Y115564D01*
X232509D01*
Y115510D01*
Y115456D01*
Y115403D01*
Y115349D01*
X232562D01*
Y115295D01*
Y115242D01*
X232616D01*
Y115188D01*
Y115134D01*
X232670D01*
Y115080D01*
Y115027D01*
X232723D01*
Y114973D01*
X232777D01*
Y114919D01*
X232723D01*
Y114865D01*
X232831D01*
Y114812D01*
Y114758D01*
X232885D01*
Y114704D01*
Y114650D01*
X232938D01*
Y114597D01*
Y114543D01*
Y114489D01*
X232992D01*
Y114436D01*
Y114382D01*
X233046D01*
Y114328D01*
Y114274D01*
X233100D01*
Y114221D01*
Y114167D01*
X233153D01*
Y114113D01*
Y114059D01*
X233207D01*
Y114006D01*
Y113952D01*
X233261D01*
Y113898D01*
Y113845D01*
X233314D01*
Y113791D01*
Y113737D01*
X233368D01*
Y113683D01*
Y113630D01*
X233422D01*
Y113576D01*
Y113522D01*
Y113468D01*
X233476D01*
Y113415D01*
X233529D01*
Y113361D01*
Y113307D01*
X233583D01*
Y113253D01*
Y113200D01*
X233691D01*
Y113146D01*
Y113092D01*
X233744D01*
Y113039D01*
X233798D01*
Y112985D01*
Y112931D01*
X233852D01*
Y112877D01*
X233906D01*
Y112824D01*
Y112770D01*
Y112716D01*
X233959D01*
Y112662D01*
X234013D01*
Y112609D01*
Y112555D01*
X234067D01*
Y112501D01*
X234120D01*
Y112448D01*
X234174D01*
Y112394D01*
X234228D01*
Y112340D01*
X234604D01*
Y112286D01*
X235088D01*
Y112233D01*
X235356D01*
Y112179D01*
X235518D01*
Y112125D01*
X235625D01*
Y112071D01*
X235679D01*
Y112018D01*
X235732D01*
Y111964D01*
X235840D01*
Y111910D01*
Y111856D01*
X235894D01*
Y111803D01*
X235947D01*
Y111749D01*
X236001D01*
Y111695D01*
X236055D01*
Y111642D01*
X236108D01*
Y111588D01*
X236162D01*
Y111534D01*
X236216D01*
Y111480D01*
X236270D01*
Y111427D01*
X236323D01*
Y111373D01*
X236377D01*
Y111319D01*
X236431D01*
Y111266D01*
Y111212D01*
X236485D01*
Y111158D01*
X236538D01*
Y111104D01*
X236592D01*
Y111050D01*
X236646D01*
Y110997D01*
Y110943D01*
Y110889D01*
X236700D01*
Y110836D01*
X236753D01*
Y110782D01*
X236807D01*
Y110728D01*
X236861D01*
Y110674D01*
Y110621D01*
X236914D01*
Y110567D01*
X236968D01*
Y110513D01*
X237022D01*
Y110459D01*
X237076D01*
Y110406D01*
Y110352D01*
Y110298D01*
Y110245D01*
Y110191D01*
Y110137D01*
Y110083D01*
Y110030D01*
X237022D01*
Y109976D01*
X236968D01*
Y109922D01*
X236646D01*
Y109976D01*
X236592D01*
Y110030D01*
X236538D01*
Y110083D01*
X236485D01*
Y110137D01*
X236431D01*
Y110191D01*
X236323D01*
Y110245D01*
X236270D01*
Y110298D01*
X236162D01*
Y110352D01*
X236001D01*
Y110406D01*
X235894D01*
Y110459D01*
X235679D01*
Y110513D01*
X235356D01*
Y110567D01*
X235088D01*
Y110513D01*
X234712D01*
Y110459D01*
X234550D01*
Y110406D01*
X234389D01*
Y110352D01*
X234282D01*
Y110298D01*
X234120D01*
Y110245D01*
X234067D01*
Y110191D01*
X233959D01*
Y110137D01*
X233852D01*
Y110083D01*
Y110030D01*
X233798D01*
Y109976D01*
X233691D01*
Y109922D01*
X233637D01*
Y109869D01*
X233583D01*
Y109815D01*
X233476D01*
Y109761D01*
X233422D01*
Y109707D01*
X233368D01*
Y109654D01*
X233314D01*
Y109600D01*
X233261D01*
Y109546D01*
X233207D01*
Y109492D01*
X233153D01*
Y109439D01*
X233100D01*
Y109385D01*
X233046D01*
Y109331D01*
X232992D01*
Y109277D01*
X232938D01*
Y109224D01*
Y109170D01*
Y109116D01*
X232885D01*
Y109063D01*
X232831D01*
Y109009D01*
X232777D01*
Y108955D01*
Y108901D01*
X232723D01*
Y108848D01*
X232670D01*
Y108794D01*
X232616D01*
Y108740D01*
X232562D01*
Y108686D01*
Y108633D01*
X232509D01*
Y108579D01*
Y108525D01*
X232455D01*
Y108472D01*
X232401D01*
Y108418D01*
Y108364D01*
X232347D01*
Y108310D01*
Y108257D01*
Y108203D01*
X232294D01*
Y108149D01*
Y108095D01*
X232240D01*
Y108042D01*
Y107988D01*
X232186D01*
Y107934D01*
Y107880D01*
X232133D01*
Y107827D01*
Y107773D01*
Y107719D01*
X232079D01*
Y107666D01*
Y107612D01*
X232025D01*
Y107558D01*
Y107504D01*
X231971D01*
Y107451D01*
Y107397D01*
Y107343D01*
Y107289D01*
X231918D01*
Y107236D01*
X231864D01*
Y107182D01*
X231918D01*
Y107128D01*
X231864D01*
Y107074D01*
X231810D01*
Y107021D01*
Y106967D01*
Y106913D01*
X231756D01*
Y106860D01*
Y106806D01*
Y106752D01*
Y106698D01*
X231703D01*
Y106645D01*
Y106591D01*
Y106537D01*
Y106483D01*
Y106430D01*
X231649D01*
Y106376D01*
Y106322D01*
Y106269D01*
Y106215D01*
Y106161D01*
X231595D01*
Y106107D01*
Y106054D01*
Y106000D01*
Y105946D01*
Y105892D01*
Y105839D01*
X231541D01*
Y105785D01*
Y105731D01*
Y105677D01*
Y105624D01*
Y105570D01*
Y105516D01*
Y105463D01*
Y105409D01*
Y105355D01*
Y105301D01*
X231488D01*
Y105248D01*
Y105194D01*
Y105140D01*
Y105087D01*
Y105033D01*
Y104979D01*
Y104925D01*
Y104871D01*
Y104818D01*
Y104764D01*
Y104710D01*
Y104657D01*
Y104603D01*
Y104549D01*
Y104495D01*
Y104442D01*
Y104388D01*
Y104334D01*
Y104280D01*
Y104227D01*
Y104173D01*
X231541D01*
Y104119D01*
Y104066D01*
Y104012D01*
Y103958D01*
Y103904D01*
Y103851D01*
Y103797D01*
Y103743D01*
Y103690D01*
Y103636D01*
X231595D01*
Y103582D01*
Y103528D01*
Y103474D01*
Y103421D01*
Y103367D01*
Y103313D01*
X231649D01*
Y103260D01*
Y103206D01*
Y103152D01*
Y103098D01*
X231703D01*
Y103045D01*
Y102991D01*
Y102937D01*
Y102884D01*
X231756D01*
Y102830D01*
Y102776D01*
Y102722D01*
Y102669D01*
X231810D01*
Y102615D01*
Y102561D01*
Y102507D01*
X231864D01*
Y102454D01*
X231918D01*
Y102400D01*
Y102346D01*
X231971D01*
Y102293D01*
Y102239D01*
X232025D01*
Y102185D01*
Y102131D01*
X232079D01*
Y102078D01*
Y102024D01*
X232133D01*
Y101970D01*
Y101916D01*
Y101863D01*
X232186D01*
Y101809D01*
Y101755D01*
X232240D01*
Y101701D01*
Y101648D01*
X232294D01*
Y101594D01*
X232347D01*
Y101540D01*
Y101487D01*
X232401D01*
Y101433D01*
X232455D01*
Y101379D01*
Y101325D01*
X232509D01*
Y101272D01*
X232562D01*
Y101218D01*
X232616D01*
Y101164D01*
X232670D01*
Y101110D01*
X232723D01*
Y101057D01*
X232777D01*
Y101003D01*
X232831D01*
Y100949D01*
X232885D01*
Y100896D01*
X232938D01*
Y100842D01*
X232992D01*
Y100788D01*
X233100D01*
Y100734D01*
X233153D01*
Y100681D01*
X233261D01*
Y100627D01*
X233368D01*
Y100573D01*
X233529D01*
Y100519D01*
X233637D01*
Y100466D01*
X233852D01*
Y100412D01*
X234658D01*
Y100466D01*
X234927D01*
Y100519D01*
X235088D01*
Y100573D01*
X235249D01*
Y100627D01*
X235410D01*
Y100681D01*
X235518D01*
Y100734D01*
X235625D01*
Y100788D01*
X235732D01*
Y100842D01*
X235840D01*
Y100896D01*
X235894D01*
Y100949D01*
X236001D01*
Y101003D01*
Y101057D01*
X236055D01*
Y101110D01*
X236162D01*
Y101164D01*
Y101218D01*
X236270D01*
Y101272D01*
X236323D01*
Y101325D01*
X236377D01*
Y101379D01*
X236431D01*
Y101433D01*
X236485D01*
Y101487D01*
X236538D01*
Y101540D01*
X236592D01*
Y101594D01*
Y101648D01*
X236646D01*
Y101701D01*
X236700D01*
Y101755D01*
Y101809D01*
X236753D01*
Y101863D01*
Y101916D01*
Y101970D01*
X236807D01*
Y102024D01*
Y102078D01*
Y102131D01*
X236861D01*
Y102185D01*
X236914D01*
Y102239D01*
X237022D01*
Y102293D01*
X237237D01*
Y102239D01*
X237774D01*
Y102185D01*
X238312D01*
Y102131D01*
X238849D01*
Y102078D01*
X239386D01*
Y102024D01*
X239923D01*
Y101970D01*
X240461D01*
Y101916D01*
X240514D01*
Y101863D01*
X241052D01*
Y101809D01*
X241643D01*
Y101755D01*
X242180D01*
Y101701D01*
X242825D01*
Y101648D01*
X243416D01*
Y101594D01*
X244007D01*
Y101540D01*
X244652D01*
Y101487D01*
X245350D01*
Y101433D01*
X246102D01*
Y101379D01*
X247607D01*
Y101433D01*
X247875D01*
Y101487D01*
X248090D01*
Y101540D01*
X248198D01*
Y101594D01*
X248252D01*
Y101648D01*
X248628D01*
Y101594D01*
X248681D01*
Y101540D01*
Y101487D01*
X248735D01*
Y101433D01*
Y101379D01*
Y101325D01*
X248789D01*
Y101272D01*
Y101218D01*
Y101164D01*
X248896D01*
Y101110D01*
Y101057D01*
Y101003D01*
Y100949D01*
X248950D01*
Y100896D01*
Y100842D01*
X249004D01*
Y100788D01*
Y100734D01*
X249058D01*
Y100681D01*
Y100627D01*
X249111D01*
Y100573D01*
X249165D01*
Y100519D01*
Y100466D01*
Y100412D01*
X249219D01*
Y100358D01*
X249272D01*
Y100304D01*
Y100251D01*
X249326D01*
Y100197D01*
Y100143D01*
X249380D01*
Y100090D01*
Y100036D01*
X249434D01*
Y99982D01*
X249487D01*
Y99928D01*
Y99875D01*
X249541D01*
Y99821D01*
X249595D01*
Y99767D01*
X249649D01*
Y99713D01*
X249702D01*
Y99660D01*
X249756D01*
Y99606D01*
X249810D01*
Y99552D01*
X249864D01*
Y99498D01*
X249917D01*
Y99445D01*
X249971D01*
Y99391D01*
X250025D01*
Y99337D01*
X250078D01*
Y99284D01*
X250132D01*
Y99230D01*
X250186D01*
Y99176D01*
X250240D01*
Y99122D01*
X250293D01*
Y99069D01*
X250347D01*
Y99015D01*
X250454D01*
Y98961D01*
X250562D01*
Y98908D01*
X250616D01*
Y98854D01*
X250723D01*
Y98800D01*
X250777D01*
Y98746D01*
X250884D01*
Y98693D01*
X250992D01*
Y98639D01*
X251153D01*
Y98585D01*
X251260D01*
Y98531D01*
X251368D01*
Y98478D01*
X251529D01*
Y98424D01*
X251690D01*
Y98370D01*
X251852D01*
Y98316D01*
Y98263D01*
X252120D01*
Y98209D01*
X252335D01*
Y98155D01*
X252765D01*
Y98102D01*
X253625D01*
Y98155D01*
X254001D01*
Y98209D01*
X254269D01*
Y98263D01*
X254431D01*
Y98316D01*
X254484D01*
Y98370D01*
X254645D01*
Y98424D01*
X254807D01*
Y98478D01*
X254914D01*
Y98531D01*
X255022D01*
Y98585D01*
X255183D01*
Y98639D01*
X255290D01*
Y98693D01*
X255398D01*
Y98746D01*
X255505D01*
Y98800D01*
X255559D01*
Y98854D01*
X255666D01*
Y98908D01*
X255774D01*
Y98961D01*
X255828D01*
Y99015D01*
X255935D01*
Y99069D01*
X255989D01*
Y99122D01*
X256096D01*
Y99176D01*
X256150D01*
Y99230D01*
X256204D01*
Y99284D01*
X256257D01*
Y99337D01*
X256311D01*
Y99391D01*
X256365D01*
Y99445D01*
X256419D01*
Y99498D01*
X256472D01*
Y99552D01*
X256580D01*
Y99606D01*
X256633D01*
Y99660D01*
X256687D01*
Y99713D01*
X256741D01*
Y99767D01*
X256795D01*
Y99821D01*
Y99875D01*
X256902D01*
Y99928D01*
X256956D01*
Y99982D01*
X257010D01*
Y100036D01*
X257063D01*
Y100090D01*
Y100143D01*
X257117D01*
Y100197D01*
X257171D01*
Y100251D01*
Y100304D01*
X257224D01*
Y100358D01*
X257278D01*
Y100412D01*
X257332D01*
Y100466D01*
X257386D01*
Y100519D01*
Y100573D01*
X257439D01*
Y100627D01*
X257493D01*
Y100681D01*
Y100734D01*
X257547D01*
Y100788D01*
X257601D01*
Y100842D01*
Y100896D01*
X257654D01*
Y100949D01*
X257708D01*
Y101003D01*
Y101057D01*
Y101110D01*
X257762D01*
Y101164D01*
X257816D01*
Y101218D01*
Y101272D01*
X257923D01*
Y101325D01*
Y101379D01*
X257977D01*
Y101433D01*
Y101487D01*
X258031D01*
Y101540D01*
Y101594D01*
Y101648D01*
X258084D01*
Y101701D01*
Y101755D01*
X258138D01*
Y101809D01*
Y101863D01*
X258192D01*
Y101916D01*
Y101970D01*
Y102024D01*
X258245D01*
Y102078D01*
Y102131D01*
X258299D01*
Y102185D01*
Y102239D01*
Y102293D01*
X258353D01*
Y102346D01*
Y102400D01*
Y102454D01*
X258407D01*
Y102507D01*
Y102561D01*
Y102615D01*
X258460D01*
Y102669D01*
Y102722D01*
Y102776D01*
X258514D01*
Y102830D01*
Y102884D01*
Y102937D01*
Y102991D01*
X258568D01*
Y103045D01*
Y103098D01*
Y103152D01*
X258622D01*
Y103206D01*
Y103260D01*
Y103313D01*
Y103367D01*
Y103421D01*
X258675D01*
Y103474D01*
Y103528D01*
X258729D01*
Y103582D01*
Y103636D01*
Y103690D01*
Y103743D01*
X258783D01*
Y103797D01*
Y103851D01*
Y103904D01*
Y103958D01*
Y104012D01*
Y104066D01*
X258837D01*
Y104119D01*
Y104173D01*
Y104227D01*
Y104280D01*
Y104334D01*
Y104388D01*
Y104442D01*
Y104495D01*
Y104549D01*
Y104603D01*
X258890D01*
Y104657D01*
Y104710D01*
Y104764D01*
Y104818D01*
Y104871D01*
Y104925D01*
Y104979D01*
Y105033D01*
Y105087D01*
Y105140D01*
Y105194D01*
Y105248D01*
Y105301D01*
Y105355D01*
Y105409D01*
Y105463D01*
Y105516D01*
Y105570D01*
Y105624D01*
Y105677D01*
Y105731D01*
Y105785D01*
Y105839D01*
Y105892D01*
Y105946D01*
X258837D01*
Y106000D01*
Y106054D01*
Y106107D01*
Y106161D01*
Y106215D01*
Y106269D01*
Y106322D01*
Y106376D01*
Y106430D01*
X258783D01*
Y106483D01*
Y106537D01*
Y106591D01*
Y106645D01*
Y106698D01*
Y106752D01*
Y106806D01*
X258675D01*
Y106860D01*
X258729D01*
Y106913D01*
Y106967D01*
Y107021D01*
X258675D01*
Y107074D01*
X258622D01*
Y107128D01*
Y107182D01*
Y107236D01*
Y107289D01*
X258568D01*
Y107343D01*
Y107397D01*
Y107451D01*
Y107504D01*
X258514D01*
Y107558D01*
Y107612D01*
Y107666D01*
X258460D01*
Y107719D01*
Y107773D01*
Y107827D01*
X258407D01*
Y107880D01*
Y107934D01*
Y107988D01*
X258353D01*
Y108042D01*
Y108095D01*
X258299D01*
Y108149D01*
Y108203D01*
Y108257D01*
X258245D01*
Y108310D01*
Y108364D01*
Y108418D01*
X258192D01*
Y108472D01*
Y108525D01*
X258138D01*
Y108579D01*
Y108633D01*
X258084D01*
Y108686D01*
Y108740D01*
X258031D01*
Y108794D01*
Y108848D01*
X257977D01*
Y108901D01*
X257923D01*
Y108955D01*
Y109009D01*
X257869D01*
Y109063D01*
Y109116D01*
X257762D01*
Y109170D01*
Y109224D01*
Y109277D01*
X257708D01*
Y109331D01*
X257654D01*
Y109385D01*
X257601D01*
Y109439D01*
Y109492D01*
Y109546D01*
X257547D01*
Y109600D01*
X257601D01*
Y109654D01*
Y109707D01*
Y109761D01*
X257654D01*
Y109815D01*
X257762D01*
Y109869D01*
X257816D01*
Y109922D01*
X257869D01*
Y109976D01*
Y110030D01*
Y110083D01*
Y110137D01*
X257816D01*
Y110191D01*
X257762D01*
Y110245D01*
X257708D01*
Y110298D01*
X257654D01*
Y110352D01*
X257601D01*
Y110406D01*
X257547D01*
Y110459D01*
X257439D01*
Y110513D01*
X257386D01*
Y110567D01*
X257278D01*
Y110621D01*
X257224D01*
Y110674D01*
X257117D01*
Y110728D01*
X257010D01*
Y110782D01*
X256902D01*
Y110836D01*
X256848D01*
Y110889D01*
X256687D01*
Y110943D01*
X256633D01*
Y110997D01*
X256580D01*
Y111050D01*
X256472D01*
Y111104D01*
X256365D01*
Y111158D01*
X256204D01*
Y111212D01*
X256043D01*
Y111266D01*
X255881D01*
Y111319D01*
X255774D01*
Y111373D01*
X255559D01*
Y111427D01*
X255344D01*
Y111480D01*
X255075D01*
Y111534D01*
X254753D01*
Y111588D01*
X254699D01*
Y111642D01*
X254645D01*
Y111695D01*
X254592D01*
Y111749D01*
Y111803D01*
Y111856D01*
Y111910D01*
Y111964D01*
Y112018D01*
X254645D01*
Y112071D01*
X254699D01*
Y112125D01*
Y112179D01*
X254807D01*
Y112233D01*
X254860D01*
Y112286D01*
X254914D01*
Y112340D01*
X255022D01*
Y112394D01*
X255075D01*
Y112448D01*
X255183D01*
Y112501D01*
X255237D01*
Y112555D01*
X255344D01*
Y112609D01*
X255398D01*
Y112662D01*
X255505D01*
Y112716D01*
X255613D01*
Y112770D01*
X255666D01*
Y112824D01*
Y112877D01*
X255774D01*
Y112931D01*
X255828D01*
Y112985D01*
X255881D01*
Y113039D01*
X255989D01*
Y113092D01*
X256043D01*
Y113146D01*
X256150D01*
Y113200D01*
X256204D01*
Y113253D01*
X256311D01*
Y113307D01*
X256365D01*
Y113361D01*
X256472D01*
Y113415D01*
X256526D01*
Y113468D01*
X256580D01*
Y113522D01*
X256633D01*
Y113576D01*
X256741D01*
Y113630D01*
X256795D01*
Y113683D01*
X256848D01*
Y113737D01*
Y113791D01*
X256902D01*
Y113845D01*
X256956D01*
Y113898D01*
X257063D01*
Y113952D01*
X257117D01*
Y114006D01*
Y114059D01*
X257171D01*
Y114113D01*
Y114167D01*
Y114221D01*
X257224D01*
Y114274D01*
Y114328D01*
Y114382D01*
Y114436D01*
Y114489D01*
X257278D01*
Y114543D01*
Y114597D01*
Y114650D01*
Y114704D01*
Y114758D01*
Y114812D01*
Y114865D01*
Y114919D01*
Y114973D01*
Y115027D01*
Y115080D01*
Y115134D01*
Y115188D01*
Y115242D01*
Y115295D01*
Y115349D01*
Y115403D01*
Y115456D01*
Y115510D01*
Y115564D01*
Y115618D01*
Y115671D01*
Y115725D01*
Y115779D01*
Y115832D01*
X257224D01*
Y115886D01*
Y115940D01*
Y115994D01*
Y116048D01*
Y116101D01*
Y116155D01*
Y116209D01*
Y116262D01*
X257171D01*
Y116316D01*
Y116370D01*
Y116424D01*
Y116477D01*
Y116531D01*
Y116585D01*
Y116639D01*
X257117D01*
Y116692D01*
Y116746D01*
Y116800D01*
Y116853D01*
Y116907D01*
Y116961D01*
X257063D01*
Y117015D01*
Y117068D01*
Y117122D01*
Y117176D01*
Y117229D01*
X257010D01*
Y117283D01*
Y117337D01*
Y117391D01*
Y117445D01*
X256956D01*
Y117498D01*
Y117552D01*
Y117606D01*
Y117659D01*
X256902D01*
Y117713D01*
X256848D01*
Y117767D01*
Y117821D01*
Y117874D01*
Y117928D01*
X256795D01*
Y117982D01*
Y118035D01*
Y118089D01*
X256741D01*
Y118143D01*
Y118197D01*
Y118250D01*
Y118304D01*
X256687D01*
Y118358D01*
Y118412D01*
Y118465D01*
X256633D01*
Y118519D01*
Y118573D01*
Y118626D01*
X256580D01*
Y118680D01*
Y118734D01*
X256526D01*
Y118788D01*
Y118842D01*
Y118895D01*
X256472D01*
Y118949D01*
Y119003D01*
X256419D01*
Y119056D01*
X256365D01*
Y119110D01*
Y119164D01*
Y119218D01*
X256311D01*
Y119271D01*
X256257D01*
Y119325D01*
Y119379D01*
X256204D01*
Y119432D01*
X256150D01*
Y119486D01*
X256096D01*
Y119540D01*
X256043D01*
Y119594D01*
X255989D01*
Y119647D01*
X255935D01*
Y119701D01*
X255881D01*
Y119755D01*
X255828D01*
Y119809D01*
Y119862D01*
X255774D01*
Y119916D01*
X255720D01*
Y119970D01*
X255666D01*
Y120024D01*
X255613D01*
Y120077D01*
Y120131D01*
X255559D01*
Y120185D01*
X255505D01*
Y120238D01*
Y120292D01*
X255451D01*
Y120346D01*
X255398D01*
Y120400D01*
X255344D01*
Y120453D01*
X255290D01*
Y120507D01*
X255237D01*
Y120561D01*
X255183D01*
Y120615D01*
X255129D01*
Y120668D01*
X255075D01*
Y120722D01*
X255022D01*
Y120776D01*
X254968D01*
Y120829D01*
X254914D01*
Y120883D01*
X254860D01*
Y120937D01*
Y120991D01*
X254807D01*
Y121044D01*
X254753D01*
Y121098D01*
Y121152D01*
X254699D01*
Y121206D01*
X254645D01*
Y121259D01*
X254592D01*
Y121313D01*
X254538D01*
Y121367D01*
X254484D01*
Y121421D01*
X254431D01*
Y121474D01*
X254377D01*
Y121528D01*
X254269D01*
Y121582D01*
Y121635D01*
X254216D01*
Y121689D01*
X254162D01*
Y121743D01*
X254108D01*
Y121797D01*
X254054D01*
Y121850D01*
X254001D01*
Y121904D01*
Y121958D01*
X253947D01*
Y122011D01*
X253893D01*
Y122065D01*
X253839D01*
Y122119D01*
X253786D01*
Y122173D01*
X253678D01*
Y122227D01*
X253625D01*
Y122280D01*
X253571D01*
Y122334D01*
X253517D01*
Y122388D01*
X253463D01*
Y122441D01*
X253410D01*
Y122495D01*
X253356D01*
Y122549D01*
X253302D01*
Y122603D01*
X253249D01*
Y122656D01*
X253195D01*
Y122710D01*
X253141D01*
Y122764D01*
X253087D01*
Y122818D01*
X253034D01*
Y122871D01*
X252980D01*
Y122925D01*
X252926D01*
Y122979D01*
X252872D01*
Y123032D01*
X252765D01*
Y123086D01*
X252711D01*
Y123140D01*
X252658D01*
Y123194D01*
X252550D01*
Y123247D01*
X252496D01*
Y123301D01*
X252443D01*
Y123355D01*
X252389D01*
Y123408D01*
X252281D01*
Y123462D01*
X252228D01*
Y123516D01*
X252120D01*
Y123570D01*
X252066D01*
Y123623D01*
X251959D01*
Y123677D01*
Y123731D01*
X251852D01*
Y123785D01*
X251690D01*
Y123838D01*
X251529D01*
Y123892D01*
D02*
G37*
G36*
X237667Y101594D02*
X237291D01*
Y101540D01*
Y101487D01*
X237237D01*
Y101433D01*
Y101379D01*
X237183D01*
Y101325D01*
X237129D01*
Y101272D01*
X237076D01*
Y101218D01*
X237022D01*
Y101164D01*
Y101110D01*
X236968D01*
Y101057D01*
Y101003D01*
X236914D01*
Y100949D01*
X236861D01*
Y100896D01*
X236807D01*
Y100842D01*
X236753D01*
Y100788D01*
X236700D01*
Y100734D01*
X236646D01*
Y100681D01*
X236592D01*
Y100627D01*
X236538D01*
Y100573D01*
X236431D01*
Y100519D01*
X236377D01*
Y100466D01*
X236270D01*
Y100412D01*
X236216D01*
Y100358D01*
X236108D01*
Y100304D01*
X236001D01*
Y100251D01*
X235894D01*
Y100197D01*
X235786D01*
Y100143D01*
Y100090D01*
X235679D01*
Y100036D01*
X235518D01*
Y99982D01*
X235410D01*
Y99928D01*
X235195D01*
Y99875D01*
X235141D01*
Y99821D01*
Y99767D01*
X235840D01*
Y99713D01*
X236377D01*
Y99660D01*
X236968D01*
Y99606D01*
X237559D01*
Y99552D01*
X238096D01*
Y99498D01*
X238688D01*
Y99445D01*
X239279D01*
Y99391D01*
X239816D01*
Y99337D01*
X240407D01*
Y99284D01*
X240944D01*
Y99230D01*
X240998D01*
Y99176D01*
X241535D01*
Y99122D01*
X242126D01*
Y99069D01*
X242717D01*
Y99015D01*
X243308D01*
Y98961D01*
X243899D01*
Y98908D01*
X244437D01*
Y98854D01*
X245028D01*
Y98800D01*
X245619D01*
Y98746D01*
X246210D01*
Y98693D01*
X246801D01*
Y98639D01*
X247338D01*
Y98585D01*
X247929D01*
Y98531D01*
X248520D01*
Y98478D01*
X249058D01*
Y98424D01*
X249649D01*
Y98370D01*
X250186D01*
Y98316D01*
X250293D01*
Y98370D01*
X250186D01*
Y98424D01*
Y98478D01*
X250078D01*
Y98531D01*
X249971D01*
Y98585D01*
X249917D01*
Y98639D01*
X249810D01*
Y98693D01*
X249756D01*
Y98746D01*
X249702D01*
Y98800D01*
X249649D01*
Y98854D01*
X249595D01*
Y98908D01*
X249541D01*
Y98961D01*
X249487D01*
Y99015D01*
X249434D01*
Y99069D01*
X249380D01*
Y99122D01*
X249326D01*
Y99176D01*
X249272D01*
Y99230D01*
Y99284D01*
X249219D01*
Y99337D01*
X249165D01*
Y99391D01*
X249111D01*
Y99445D01*
Y99498D01*
X249058D01*
Y99552D01*
X249004D01*
Y99606D01*
X248950D01*
Y99660D01*
X248896D01*
Y99713D01*
X248843D01*
Y99767D01*
X248789D01*
Y99821D01*
Y99875D01*
X248735D01*
Y99928D01*
Y99982D01*
X248681D01*
Y100036D01*
X248628D01*
Y100090D01*
Y100143D01*
Y100197D01*
X248574D01*
Y100251D01*
Y100304D01*
X248520D01*
Y100358D01*
Y100412D01*
X248466D01*
Y100466D01*
Y100519D01*
X248413D01*
Y100573D01*
Y100627D01*
X248359D01*
Y100681D01*
Y100734D01*
X248305D01*
Y100788D01*
Y100842D01*
Y100896D01*
X248252D01*
Y100842D01*
X248037D01*
Y100788D01*
X247660D01*
Y100734D01*
X246049D01*
Y100788D01*
X245296D01*
Y100842D01*
X244598D01*
Y100896D01*
X243953D01*
Y100949D01*
X243362D01*
Y101003D01*
X242825D01*
Y101057D01*
X242717D01*
Y101110D01*
X242126D01*
Y101164D01*
X241589D01*
Y101218D01*
X240998D01*
Y101272D01*
X240407D01*
Y101325D01*
X239870D01*
Y101379D01*
X239332D01*
Y101433D01*
X238741D01*
Y101487D01*
X238204D01*
Y101540D01*
X237667D01*
Y101594D01*
D02*
G37*
%LPD*%
G36*
X249272Y106537D02*
Y106483D01*
Y106430D01*
X249219D01*
Y106483D01*
Y106537D01*
Y106591D01*
X249272D01*
Y106537D01*
D02*
G37*
G36*
X232133D02*
Y106483D01*
Y106430D01*
X232079D01*
Y106483D01*
Y106537D01*
Y106591D01*
X232133D01*
Y106537D01*
D02*
G37*
G36*
X249219Y106322D02*
Y106269D01*
X249165D01*
Y106322D01*
Y106376D01*
X249219D01*
Y106322D01*
D02*
G37*
G36*
X249165Y106215D02*
Y106161D01*
X249111D01*
Y106215D01*
Y106269D01*
X249165D01*
Y106215D01*
D02*
G37*
G36*
X249111Y106054D02*
Y106000D01*
X249058D01*
Y106054D01*
Y106107D01*
X249111D01*
Y106054D01*
D02*
G37*
G36*
X249058Y105892D02*
Y105839D01*
X249004D01*
Y105892D01*
Y105946D01*
X249058D01*
Y105892D01*
D02*
G37*
G36*
X248198Y113039D02*
Y112985D01*
X248252D01*
Y112931D01*
Y112877D01*
Y112824D01*
X248198D01*
Y112770D01*
Y112716D01*
X248144D01*
Y112662D01*
X248090D01*
Y112609D01*
X248037D01*
Y112555D01*
X247983D01*
Y112501D01*
X247929D01*
Y112448D01*
X247875D01*
Y112394D01*
X247822D01*
Y112340D01*
X247768D01*
Y112286D01*
X247714D01*
Y112233D01*
X247660D01*
Y112179D01*
X247607D01*
Y112125D01*
X247553D01*
Y112071D01*
X247499D01*
Y112018D01*
X247446D01*
Y111964D01*
X247392D01*
Y111910D01*
Y111856D01*
X247338D01*
Y111803D01*
X247284D01*
Y111749D01*
X247231D01*
Y111695D01*
X247177D01*
Y111642D01*
X247123D01*
Y111588D01*
X247070D01*
Y111534D01*
X247016D01*
Y111480D01*
X246962D01*
Y111427D01*
X246908D01*
Y111373D01*
X246855D01*
Y111319D01*
X246801D01*
Y111266D01*
X246747D01*
Y111212D01*
X246693D01*
Y111158D01*
X246640D01*
Y111104D01*
X246586D01*
Y111050D01*
X246532D01*
Y110997D01*
Y110943D01*
X246479D01*
Y110889D01*
Y110836D01*
X246425D01*
Y110782D01*
X246371D01*
Y110728D01*
X246317D01*
Y110674D01*
X246264D01*
Y110621D01*
X246210D01*
Y110567D01*
X246156D01*
Y110513D01*
X246049D01*
Y110459D01*
Y110406D01*
X245995D01*
Y110352D01*
Y110298D01*
X246049D01*
Y110245D01*
X246102D01*
Y110191D01*
X246801D01*
Y110245D01*
X248144D01*
Y110191D01*
X248198D01*
Y110137D01*
Y110083D01*
Y110030D01*
Y109976D01*
Y109922D01*
X248144D01*
Y109869D01*
X248090D01*
Y109815D01*
X248037D01*
Y109761D01*
X247983D01*
Y109707D01*
X247929D01*
Y109654D01*
X247822D01*
Y109600D01*
X247768D01*
Y109546D01*
X247714D01*
Y109492D01*
X247660D01*
Y109439D01*
X247553D01*
Y109385D01*
X247499D01*
Y109331D01*
X247446D01*
Y109277D01*
X247392D01*
Y109224D01*
X247338D01*
Y109170D01*
X247284D01*
Y109116D01*
X247231D01*
Y109063D01*
X247177D01*
Y109009D01*
X247123D01*
Y108955D01*
X247070D01*
Y108901D01*
X247016D01*
Y108848D01*
X246908D01*
Y108794D01*
X246855D01*
Y108740D01*
X246801D01*
Y108686D01*
X246747D01*
Y108633D01*
X246693D01*
Y108579D01*
X246586D01*
Y108525D01*
X246532D01*
Y108472D01*
X246479D01*
Y108418D01*
X246425D01*
Y108364D01*
X246317D01*
Y108310D01*
Y108257D01*
X246264D01*
Y108203D01*
X246210D01*
Y108149D01*
X246156D01*
Y108095D01*
X246102D01*
Y108042D01*
X245995D01*
Y107988D01*
X245941D01*
Y107934D01*
X245887D01*
Y107880D01*
X245834D01*
Y107827D01*
X245726D01*
Y107773D01*
X245672D01*
Y107719D01*
X245619D01*
Y107666D01*
X245565D01*
Y107612D01*
X245511D01*
Y107558D01*
X245404D01*
Y107504D01*
X245350D01*
Y107451D01*
X245296D01*
Y107397D01*
X245243D01*
Y107343D01*
Y107289D01*
X245135D01*
Y107236D01*
X245081D01*
Y107182D01*
X245028D01*
Y107128D01*
X244974D01*
Y107074D01*
X244920D01*
Y107021D01*
X244867D01*
Y106967D01*
X244759D01*
Y106913D01*
X244705D01*
Y106860D01*
X244652D01*
Y106806D01*
X244598D01*
Y106752D01*
X244544D01*
Y106698D01*
X244437D01*
Y106645D01*
X244383D01*
Y106591D01*
X244329D01*
Y106537D01*
X244275D01*
Y106483D01*
X244222D01*
Y106430D01*
X244168D01*
Y106376D01*
X244114D01*
Y106322D01*
X244061D01*
Y106269D01*
X244007D01*
Y106215D01*
X243953D01*
Y106161D01*
X243846D01*
Y106107D01*
X243792D01*
Y106054D01*
X243738D01*
Y106000D01*
X243685D01*
Y105946D01*
X243631D01*
Y105892D01*
X243577D01*
Y105839D01*
X243470D01*
Y105785D01*
X243416D01*
Y105731D01*
X243362D01*
Y105677D01*
X243255D01*
Y105624D01*
X243201D01*
Y105570D01*
Y105516D01*
X243147D01*
Y105463D01*
X243093D01*
Y105409D01*
X243040D01*
Y105355D01*
X242986D01*
Y105301D01*
X242879D01*
Y105248D01*
X242825D01*
Y105194D01*
X242771D01*
Y105140D01*
X242717D01*
Y105087D01*
X242664D01*
Y105033D01*
X242556D01*
Y104979D01*
X242502D01*
Y104925D01*
X242449D01*
Y104871D01*
X242395D01*
Y104818D01*
X242287D01*
Y104764D01*
X242234D01*
Y104710D01*
X242180D01*
Y104657D01*
Y104603D01*
X242126D01*
Y104549D01*
X242073D01*
Y104495D01*
X241965D01*
Y104442D01*
X241911D01*
Y104388D01*
X241858D01*
Y104334D01*
X241804D01*
Y104280D01*
X241750D01*
Y104227D01*
X241697D01*
Y104173D01*
X241589D01*
Y104119D01*
X241535D01*
Y104066D01*
X241267D01*
Y104119D01*
X241213D01*
Y104173D01*
Y104227D01*
Y104280D01*
Y104334D01*
X241267D01*
Y104388D01*
Y104442D01*
X241320D01*
Y104495D01*
X241374D01*
Y104549D01*
X241428D01*
Y104603D01*
Y104657D01*
Y104710D01*
X241482D01*
Y104764D01*
X241535D01*
Y104818D01*
Y104871D01*
X241589D01*
Y104925D01*
X241643D01*
Y104979D01*
Y105033D01*
X241697D01*
Y105087D01*
X241750D01*
Y105140D01*
Y105194D01*
X241858D01*
Y105248D01*
Y105301D01*
X241911D01*
Y105355D01*
X241965D01*
Y105409D01*
Y105463D01*
X242019D01*
Y105516D01*
Y105570D01*
X242073D01*
Y105624D01*
Y105677D01*
X242126D01*
Y105731D01*
X242180D01*
Y105785D01*
Y105839D01*
X242234D01*
Y105892D01*
X242287D01*
Y105946D01*
Y106000D01*
X242341D01*
Y106054D01*
X242395D01*
Y106107D01*
Y106161D01*
X242449D01*
Y106215D01*
X242502D01*
Y106269D01*
Y106322D01*
X242556D01*
Y106376D01*
X242610D01*
Y106430D01*
X242664D01*
Y106483D01*
Y106537D01*
X242717D01*
Y106591D01*
X242771D01*
Y106645D01*
Y106698D01*
X242825D01*
Y106752D01*
Y106806D01*
X242879D01*
Y106860D01*
X242932D01*
Y106913D01*
Y106967D01*
X242986D01*
Y107021D01*
X243040D01*
Y107074D01*
Y107128D01*
X243093D01*
Y107182D01*
X243147D01*
Y107236D01*
Y107289D01*
X243201D01*
Y107343D01*
Y107397D01*
X243255D01*
Y107451D01*
Y107504D01*
X243308D01*
Y107558D01*
X243362D01*
Y107612D01*
Y107666D01*
X243416D01*
Y107719D01*
X243470D01*
Y107773D01*
Y107827D01*
X243523D01*
Y107880D01*
X243577D01*
Y107934D01*
X243631D01*
Y107988D01*
X243685D01*
Y108042D01*
X243738D01*
Y108095D01*
Y108149D01*
X243792D01*
Y108203D01*
X243846D01*
Y108257D01*
Y108310D01*
Y108364D01*
X243899D01*
Y108418D01*
X243953D01*
Y108472D01*
Y108525D01*
X244007D01*
Y108579D01*
Y108633D01*
X244061D01*
Y108686D01*
X244114D01*
Y108740D01*
X244168D01*
Y108794D01*
Y108848D01*
Y108901D01*
X244114D01*
Y108955D01*
X244061D01*
Y109009D01*
X241858D01*
Y109063D01*
X241804D01*
Y109116D01*
Y109170D01*
Y109224D01*
Y109277D01*
Y109331D01*
Y109385D01*
X241858D01*
Y109439D01*
Y109492D01*
X241911D01*
Y109546D01*
X241965D01*
Y109600D01*
Y109654D01*
X242019D01*
Y109707D01*
X242073D01*
Y109761D01*
Y109815D01*
X242126D01*
Y109869D01*
Y109922D01*
X242180D01*
Y109976D01*
X242234D01*
Y110030D01*
Y110083D01*
Y110137D01*
X242287D01*
Y110191D01*
X242341D01*
Y110245D01*
Y110298D01*
X242395D01*
Y110352D01*
X242449D01*
Y110406D01*
Y110459D01*
X242502D01*
Y110513D01*
Y110567D01*
X242556D01*
Y110621D01*
X242610D01*
Y110674D01*
Y110728D01*
X242664D01*
Y110782D01*
X242717D01*
Y110836D01*
X242771D01*
Y110889D01*
X242825D01*
Y110943D01*
Y110997D01*
Y111050D01*
X242879D01*
Y111104D01*
X242932D01*
Y111158D01*
Y111212D01*
X242986D01*
Y111266D01*
Y111319D01*
X243040D01*
Y111373D01*
X243093D01*
Y111427D01*
Y111480D01*
X243147D01*
Y111534D01*
X243201D01*
Y111588D01*
Y111642D01*
X243255D01*
Y111695D01*
X243308D01*
Y111749D01*
Y111803D01*
X243362D01*
Y111856D01*
Y111910D01*
X243416D01*
Y111964D01*
Y112018D01*
X243470D01*
Y112071D01*
Y112125D01*
X243523D01*
Y112179D01*
X243631D01*
Y112233D01*
X243577D01*
Y112286D01*
X243685D01*
Y112340D01*
Y112394D01*
X243738D01*
Y112448D01*
X243792D01*
Y112501D01*
Y112555D01*
X243846D01*
Y112609D01*
Y112662D01*
X243899D01*
Y112716D01*
X243953D01*
Y112770D01*
Y112824D01*
Y112877D01*
X244007D01*
Y112931D01*
X244061D01*
Y112985D01*
Y113039D01*
X244168D01*
Y113092D01*
X248198D01*
Y113039D01*
D02*
G37*
G36*
X234604Y109331D02*
X234873D01*
Y109277D01*
X234980D01*
Y109224D01*
X235141D01*
Y109170D01*
Y109116D01*
X235249D01*
Y109063D01*
X235303D01*
Y109009D01*
X235410D01*
Y108955D01*
X235464D01*
Y108901D01*
X235571D01*
Y108848D01*
X235625D01*
Y108794D01*
X235679D01*
Y108740D01*
Y108686D01*
X235732D01*
Y108633D01*
X235786D01*
Y108579D01*
X235840D01*
Y108525D01*
Y108472D01*
X235894D01*
Y108418D01*
X235947D01*
Y108364D01*
Y108310D01*
X236001D01*
Y108257D01*
Y108203D01*
X236055D01*
Y108149D01*
Y108095D01*
X236108D01*
Y108042D01*
Y107988D01*
X236162D01*
Y107934D01*
Y107880D01*
Y107827D01*
X236216D01*
Y107773D01*
Y107719D01*
X236270D01*
Y107666D01*
Y107612D01*
Y107558D01*
X236323D01*
Y107504D01*
Y107451D01*
Y107397D01*
Y107343D01*
X236377D01*
Y107289D01*
X236431D01*
Y107236D01*
Y107182D01*
Y107128D01*
Y107074D01*
Y107021D01*
X236485D01*
Y106967D01*
Y106913D01*
Y106860D01*
Y106806D01*
Y106752D01*
X236538D01*
Y106698D01*
Y106645D01*
Y106591D01*
Y106537D01*
Y106483D01*
Y106430D01*
Y106376D01*
Y106322D01*
Y106269D01*
Y106215D01*
Y106161D01*
Y106107D01*
Y106054D01*
X236592D01*
Y106000D01*
Y105946D01*
Y105892D01*
Y105839D01*
X236538D01*
Y105785D01*
Y105731D01*
Y105677D01*
Y105624D01*
Y105570D01*
Y105516D01*
Y105463D01*
Y105409D01*
Y105355D01*
Y105301D01*
Y105248D01*
Y105194D01*
Y105140D01*
X236485D01*
Y105087D01*
Y105033D01*
Y104979D01*
Y104925D01*
Y104871D01*
Y104818D01*
X236431D01*
Y104764D01*
Y104710D01*
Y104657D01*
Y104603D01*
Y104549D01*
X236377D01*
Y104495D01*
X236323D01*
Y104442D01*
Y104388D01*
X236377D01*
Y104334D01*
X236323D01*
Y104280D01*
X236270D01*
Y104227D01*
Y104173D01*
Y104119D01*
X236216D01*
Y104066D01*
Y104012D01*
Y103958D01*
X236162D01*
Y103904D01*
Y103851D01*
Y103797D01*
X236108D01*
Y103743D01*
Y103690D01*
Y103636D01*
X236055D01*
Y103582D01*
Y103528D01*
X236001D01*
Y103474D01*
Y103421D01*
Y103367D01*
X235947D01*
Y103313D01*
X235894D01*
Y103260D01*
Y103206D01*
X235840D01*
Y103152D01*
Y103098D01*
X235786D01*
Y103045D01*
X235732D01*
Y102991D01*
Y102937D01*
X235679D01*
Y102884D01*
X235625D01*
Y102830D01*
Y102776D01*
Y102722D01*
X235571D01*
Y102669D01*
X235518D01*
Y102615D01*
X235464D01*
Y102561D01*
X235410D01*
Y102507D01*
X235356D01*
Y102454D01*
X235303D01*
Y102400D01*
X235249D01*
Y102346D01*
X235195D01*
Y102293D01*
X235141D01*
Y102239D01*
X235034D01*
Y102185D01*
X234980D01*
Y102131D01*
X234873D01*
Y102078D01*
X234765D01*
Y102131D01*
X234819D01*
Y102185D01*
X234873D01*
Y102239D01*
X234980D01*
Y102293D01*
X235034D01*
Y102346D01*
X235088D01*
Y102400D01*
X235141D01*
Y102454D01*
X235195D01*
Y102507D01*
Y102561D01*
X235249D01*
Y102615D01*
X235303D01*
Y102669D01*
X235356D01*
Y102722D01*
Y102776D01*
X235410D01*
Y102830D01*
Y102884D01*
X235518D01*
Y102937D01*
Y102991D01*
X235571D01*
Y103045D01*
Y103098D01*
X235625D01*
Y103152D01*
Y103206D01*
X235679D01*
Y103260D01*
Y103313D01*
X235732D01*
Y103367D01*
Y103421D01*
X235786D01*
Y103474D01*
Y103528D01*
X235840D01*
Y103582D01*
Y103636D01*
Y103690D01*
X235894D01*
Y103743D01*
Y103797D01*
Y103851D01*
Y103904D01*
X235947D01*
Y103958D01*
Y104012D01*
Y104066D01*
X236001D01*
Y104119D01*
Y104173D01*
Y104227D01*
Y104280D01*
X236055D01*
Y104334D01*
Y104388D01*
Y104442D01*
Y104495D01*
X236108D01*
Y104549D01*
Y104603D01*
Y104657D01*
Y104710D01*
Y104764D01*
Y104818D01*
Y104871D01*
X236162D01*
Y104925D01*
Y104979D01*
Y105033D01*
Y105087D01*
Y105140D01*
Y105194D01*
Y105248D01*
Y105301D01*
Y105355D01*
Y105409D01*
X236216D01*
Y105463D01*
Y105516D01*
Y105570D01*
Y105624D01*
Y105677D01*
Y105731D01*
Y105785D01*
Y105839D01*
Y105892D01*
Y105946D01*
Y106000D01*
Y106054D01*
Y106107D01*
X236162D01*
Y106161D01*
Y106215D01*
Y106269D01*
Y106322D01*
Y106376D01*
Y106430D01*
Y106483D01*
Y106537D01*
Y106591D01*
Y106645D01*
Y106698D01*
X236108D01*
Y106752D01*
Y106806D01*
Y106860D01*
Y106913D01*
Y106967D01*
Y107021D01*
X236055D01*
Y107074D01*
Y107128D01*
Y107182D01*
Y107236D01*
X236001D01*
Y107289D01*
Y107343D01*
Y107397D01*
Y107451D01*
X235947D01*
Y107504D01*
Y107558D01*
Y107612D01*
X235894D01*
Y107666D01*
Y107719D01*
X235840D01*
Y107773D01*
Y107827D01*
X235786D01*
Y107880D01*
Y107934D01*
Y107988D01*
X235732D01*
Y108042D01*
Y108095D01*
X235679D01*
Y108149D01*
X235625D01*
Y108203D01*
Y108257D01*
X235571D01*
Y108310D01*
Y108364D01*
X235518D01*
Y108418D01*
X235464D01*
Y108472D01*
X235410D01*
Y108525D01*
X235356D01*
Y108579D01*
X235303D01*
Y108633D01*
X235249D01*
Y108686D01*
X235195D01*
Y108740D01*
X235088D01*
Y108794D01*
X235034D01*
Y108848D01*
X234927D01*
Y108901D01*
X234819D01*
Y108955D01*
X234658D01*
Y109009D01*
X234067D01*
Y108955D01*
X233906D01*
Y108901D01*
X233744D01*
Y108848D01*
X233637D01*
Y108794D01*
X233583D01*
Y108740D01*
X233476D01*
Y108686D01*
X233422D01*
Y108633D01*
X233314D01*
Y108579D01*
X233261D01*
Y108525D01*
X233207D01*
Y108472D01*
X233153D01*
Y108418D01*
X233100D01*
Y108364D01*
X233046D01*
Y108310D01*
Y108257D01*
X232992D01*
Y108203D01*
X232938D01*
Y108149D01*
Y108095D01*
X232885D01*
Y108042D01*
X232831D01*
Y107988D01*
X232777D01*
Y107934D01*
X232723D01*
Y107880D01*
Y107827D01*
X232670D01*
Y107773D01*
X232616D01*
Y107719D01*
X232562D01*
Y107666D01*
Y107612D01*
X232509D01*
Y107558D01*
Y107504D01*
X232455D01*
Y107451D01*
Y107397D01*
Y107343D01*
X232401D01*
Y107289D01*
Y107236D01*
X232347D01*
Y107182D01*
Y107128D01*
Y107074D01*
X232294D01*
Y107021D01*
Y106967D01*
X232240D01*
Y106913D01*
Y106860D01*
Y106806D01*
X232186D01*
Y106752D01*
Y106698D01*
Y106645D01*
X232133D01*
Y106698D01*
Y106752D01*
Y106806D01*
Y106860D01*
X232186D01*
Y106913D01*
Y106967D01*
Y107021D01*
Y107074D01*
X232240D01*
Y107128D01*
Y107182D01*
Y107236D01*
X232294D01*
Y107289D01*
Y107343D01*
Y107397D01*
Y107451D01*
X232347D01*
Y107504D01*
Y107558D01*
Y107612D01*
X232401D01*
Y107666D01*
Y107719D01*
X232455D01*
Y107773D01*
Y107827D01*
X232509D01*
Y107880D01*
Y107934D01*
X232562D01*
Y107988D01*
Y108042D01*
X232616D01*
Y108095D01*
Y108149D01*
X232670D01*
Y108203D01*
X232723D01*
Y108257D01*
Y108310D01*
Y108364D01*
X232777D01*
Y108418D01*
X232831D01*
Y108472D01*
X232885D01*
Y108525D01*
X232938D01*
Y108579D01*
X232992D01*
Y108633D01*
X233046D01*
Y108686D01*
X233100D01*
Y108740D01*
Y108794D01*
X233207D01*
Y108848D01*
X233261D01*
Y108901D01*
X233314D01*
Y108955D01*
X233368D01*
Y109009D01*
X233476D01*
Y109063D01*
X233583D01*
Y109116D01*
X233637D01*
Y109170D01*
X233691D01*
Y109224D01*
X233798D01*
Y109277D01*
X233959D01*
Y109331D01*
X234228D01*
Y109385D01*
X234604D01*
Y109331D01*
D02*
G37*
G36*
X253786Y109707D02*
X254108D01*
Y109654D01*
X254323D01*
Y109600D01*
X254484D01*
Y109546D01*
X254645D01*
Y109492D01*
X254753D01*
Y109439D01*
X254860D01*
Y109385D01*
X254968D01*
Y109331D01*
X255075D01*
Y109277D01*
X255183D01*
Y109224D01*
X255237D01*
Y109170D01*
X255290D01*
Y109116D01*
X255344D01*
Y109063D01*
X255451D01*
Y109009D01*
X255505D01*
Y108955D01*
X255559D01*
Y108901D01*
X255666D01*
Y108848D01*
X255720D01*
Y108794D01*
X255774D01*
Y108740D01*
X255828D01*
Y108686D01*
X255881D01*
Y108633D01*
X255935D01*
Y108579D01*
X255989D01*
Y108525D01*
X256043D01*
Y108472D01*
X256096D01*
Y108418D01*
X256150D01*
Y108364D01*
X256204D01*
Y108310D01*
X256257D01*
Y108257D01*
Y108203D01*
Y108149D01*
X256311D01*
Y108095D01*
X256365D01*
Y108042D01*
X256419D01*
Y107988D01*
Y107934D01*
X256472D01*
Y107880D01*
X256526D01*
Y107827D01*
Y107773D01*
X256580D01*
Y107719D01*
Y107666D01*
X256633D01*
Y107612D01*
Y107558D01*
X256687D01*
Y107504D01*
Y107451D01*
X256741D01*
Y107397D01*
Y107343D01*
X256795D01*
Y107289D01*
Y107236D01*
Y107182D01*
X256848D01*
Y107128D01*
Y107074D01*
X256902D01*
Y107021D01*
X256956D01*
Y106967D01*
Y106913D01*
X257010D01*
Y106860D01*
Y106806D01*
Y106752D01*
X257063D01*
Y106698D01*
Y106645D01*
Y106591D01*
X257117D01*
Y106537D01*
Y106483D01*
Y106430D01*
Y106376D01*
X257171D01*
Y106322D01*
Y106269D01*
Y106215D01*
Y106161D01*
X257224D01*
Y106107D01*
Y106054D01*
Y106000D01*
Y105946D01*
Y105892D01*
Y105839D01*
X257278D01*
Y105785D01*
Y105731D01*
Y105677D01*
Y105624D01*
Y105570D01*
Y105516D01*
Y105463D01*
Y105409D01*
X257332D01*
Y105355D01*
Y105301D01*
Y105248D01*
Y105194D01*
Y105140D01*
Y105087D01*
Y105033D01*
Y104979D01*
Y104925D01*
Y104871D01*
Y104818D01*
Y104764D01*
Y104710D01*
Y104657D01*
Y104603D01*
Y104549D01*
Y104495D01*
Y104442D01*
Y104388D01*
Y104334D01*
Y104280D01*
Y104227D01*
X257278D01*
Y104173D01*
Y104119D01*
Y104066D01*
Y104012D01*
Y103958D01*
Y103904D01*
Y103851D01*
Y103797D01*
Y103743D01*
X257224D01*
Y103690D01*
Y103636D01*
Y103582D01*
Y103528D01*
Y103474D01*
Y103421D01*
X257171D01*
Y103367D01*
Y103313D01*
Y103260D01*
Y103206D01*
X257117D01*
Y103152D01*
Y103098D01*
Y103045D01*
Y102991D01*
X257063D01*
Y102937D01*
Y102884D01*
Y102830D01*
Y102776D01*
X257010D01*
Y102722D01*
Y102669D01*
Y102615D01*
X256956D01*
Y102561D01*
Y102507D01*
Y102454D01*
X256848D01*
Y102400D01*
Y102346D01*
Y102293D01*
X256795D01*
Y102239D01*
Y102185D01*
X256741D01*
Y102131D01*
Y102078D01*
X256687D01*
Y102024D01*
Y101970D01*
Y101916D01*
X256633D01*
Y101863D01*
Y101809D01*
X256580D01*
Y101755D01*
Y101701D01*
X256526D01*
Y101648D01*
Y101594D01*
X256472D01*
Y101540D01*
Y101487D01*
X256419D01*
Y101433D01*
Y101379D01*
X256365D01*
Y101325D01*
X256311D01*
Y101272D01*
X256257D01*
Y101218D01*
Y101164D01*
X256204D01*
Y101110D01*
X256150D01*
Y101057D01*
Y101003D01*
Y100949D01*
X256096D01*
Y100896D01*
X256043D01*
Y100842D01*
X255989D01*
Y100788D01*
X255935D01*
Y100734D01*
X255881D01*
Y100681D01*
X255828D01*
Y100627D01*
X255774D01*
Y100573D01*
X255720D01*
Y100519D01*
X255666D01*
Y100466D01*
X255613D01*
Y100412D01*
X255559D01*
Y100358D01*
X255505D01*
Y100304D01*
X255451D01*
Y100251D01*
X255398D01*
Y100197D01*
X255344D01*
Y100143D01*
Y100090D01*
X255237D01*
Y100036D01*
X255183D01*
Y99982D01*
X255129D01*
Y99928D01*
X255075D01*
Y99875D01*
X254968D01*
Y99821D01*
X254860D01*
Y99767D01*
X254807D01*
Y99713D01*
X254699D01*
Y99660D01*
X254592D01*
Y99606D01*
X254484D01*
Y99552D01*
X254377D01*
Y99498D01*
X254269D01*
Y99445D01*
X254108D01*
Y99391D01*
X253947D01*
Y99337D01*
X253786D01*
Y99391D01*
X253893D01*
Y99445D01*
X254054D01*
Y99498D01*
X254162D01*
Y99552D01*
X254269D01*
Y99606D01*
X254377D01*
Y99660D01*
X254431D01*
Y99713D01*
X254538D01*
Y99767D01*
X254645D01*
Y99821D01*
X254699D01*
Y99875D01*
X254807D01*
Y99928D01*
X254860D01*
Y99982D01*
X254914D01*
Y100036D01*
X255022D01*
Y100090D01*
Y100143D01*
X255075D01*
Y100197D01*
X255129D01*
Y100251D01*
X255183D01*
Y100304D01*
X255237D01*
Y100358D01*
X255290D01*
Y100412D01*
X255344D01*
Y100466D01*
X255398D01*
Y100519D01*
X255451D01*
Y100573D01*
X255505D01*
Y100627D01*
X255559D01*
Y100681D01*
X255613D01*
Y100734D01*
X255666D01*
Y100788D01*
X255720D01*
Y100842D01*
X255774D01*
Y100896D01*
Y100949D01*
X255828D01*
Y101003D01*
Y101057D01*
X255881D01*
Y101110D01*
X255935D01*
Y101164D01*
Y101218D01*
X255989D01*
Y101272D01*
Y101325D01*
X256043D01*
Y101379D01*
X256150D01*
Y101433D01*
Y101487D01*
X256204D01*
Y101540D01*
Y101594D01*
X256257D01*
Y101648D01*
Y101701D01*
X256311D01*
Y101755D01*
Y101809D01*
X256365D01*
Y101863D01*
Y101916D01*
Y101970D01*
X256419D01*
Y102024D01*
Y102078D01*
X256472D01*
Y102131D01*
Y102185D01*
X256526D01*
Y102239D01*
Y102293D01*
Y102346D01*
X256580D01*
Y102400D01*
Y102454D01*
Y102507D01*
X256633D01*
Y102561D01*
Y102615D01*
Y102669D01*
X256687D01*
Y102722D01*
Y102776D01*
Y102830D01*
X256741D01*
Y102884D01*
Y102937D01*
Y102991D01*
Y103045D01*
X256795D01*
Y103098D01*
Y103152D01*
Y103206D01*
Y103260D01*
X256848D01*
Y103313D01*
Y103367D01*
Y103421D01*
Y103474D01*
Y103528D01*
X256902D01*
Y103582D01*
Y103636D01*
X256956D01*
Y103690D01*
Y103743D01*
Y103797D01*
Y103851D01*
Y103904D01*
Y103958D01*
X256902D01*
Y104012D01*
X257010D01*
Y104066D01*
Y104119D01*
Y104173D01*
Y104227D01*
Y104280D01*
Y104334D01*
Y104388D01*
Y104442D01*
Y104495D01*
Y104549D01*
Y104603D01*
Y104657D01*
Y104710D01*
Y104764D01*
Y104818D01*
Y104871D01*
Y104925D01*
Y104979D01*
Y105033D01*
Y105087D01*
Y105140D01*
Y105194D01*
Y105248D01*
Y105301D01*
Y105355D01*
Y105409D01*
X256956D01*
Y105463D01*
Y105516D01*
Y105570D01*
Y105624D01*
Y105677D01*
Y105731D01*
X256902D01*
Y105785D01*
Y105839D01*
X256848D01*
Y105892D01*
Y105946D01*
Y106000D01*
Y106054D01*
Y106107D01*
X256795D01*
Y106161D01*
Y106215D01*
Y106269D01*
Y106322D01*
X256741D01*
Y106376D01*
Y106430D01*
Y106483D01*
Y106537D01*
X256687D01*
Y106591D01*
Y106645D01*
Y106698D01*
X256633D01*
Y106752D01*
Y106806D01*
X256580D01*
Y106860D01*
Y106913D01*
Y106967D01*
X256526D01*
Y107021D01*
Y107074D01*
X256472D01*
Y107128D01*
Y107182D01*
X256419D01*
Y107236D01*
Y107289D01*
X256365D01*
Y107343D01*
Y107397D01*
Y107451D01*
X256311D01*
Y107504D01*
Y107558D01*
X256257D01*
Y107612D01*
Y107666D01*
X256204D01*
Y107719D01*
X256150D01*
Y107773D01*
X256096D01*
Y107827D01*
X256043D01*
Y107880D01*
Y107934D01*
X255989D01*
Y107988D01*
X255935D01*
Y108042D01*
X255881D01*
Y108095D01*
Y108149D01*
X255828D01*
Y108203D01*
X255774D01*
Y108257D01*
X255720D01*
Y108310D01*
Y108364D01*
X255666D01*
Y108418D01*
X255613D01*
Y108472D01*
X255559D01*
Y108525D01*
X255505D01*
Y108579D01*
X255398D01*
Y108633D01*
X255344D01*
Y108686D01*
X255290D01*
Y108740D01*
X255183D01*
Y108794D01*
X255129D01*
Y108848D01*
X255022D01*
Y108901D01*
X254968D01*
Y108955D01*
X254860D01*
Y109009D01*
X254807D01*
Y109063D01*
X254699D01*
Y109116D01*
X254592D01*
Y109170D01*
X254538D01*
Y109224D01*
X254431D01*
Y109277D01*
X254269D01*
Y109331D01*
X254108D01*
Y109385D01*
X253839D01*
Y109439D01*
X253463D01*
Y109492D01*
X252926D01*
Y109439D01*
X252550D01*
Y109385D01*
X252281D01*
Y109331D01*
X252120D01*
Y109277D01*
X251959D01*
Y109224D01*
X251852D01*
Y109170D01*
X251798D01*
Y109116D01*
X251690D01*
Y109063D01*
X251583D01*
Y109009D01*
X251475D01*
Y108955D01*
X251368D01*
Y108901D01*
X251260D01*
Y108848D01*
X251207D01*
Y108794D01*
X251099D01*
Y108740D01*
X251046D01*
Y108686D01*
X250938D01*
Y108633D01*
X250884D01*
Y108579D01*
X250831D01*
Y108525D01*
X250777D01*
Y108472D01*
X250670D01*
Y108418D01*
X250616D01*
Y108364D01*
X250562D01*
Y108310D01*
X250508D01*
Y108257D01*
X250454D01*
Y108203D01*
X250401D01*
Y108149D01*
X250347D01*
Y108095D01*
X250293D01*
Y108042D01*
X250240D01*
Y107988D01*
X250186D01*
Y107934D01*
Y107880D01*
X250132D01*
Y107827D01*
X250078D01*
Y107773D01*
X250025D01*
Y107719D01*
X249971D01*
Y107666D01*
Y107612D01*
X249917D01*
Y107558D01*
X249864D01*
Y107504D01*
X249810D01*
Y107451D01*
Y107397D01*
X249756D01*
Y107343D01*
X249702D01*
Y107289D01*
X249649D01*
Y107236D01*
Y107182D01*
X249595D01*
Y107128D01*
Y107074D01*
X249541D01*
Y107021D01*
X249487D01*
Y106967D01*
Y106913D01*
X249434D01*
Y106860D01*
Y106806D01*
X249380D01*
Y106752D01*
Y106698D01*
X249326D01*
Y106645D01*
Y106591D01*
X249272D01*
Y106645D01*
Y106698D01*
Y106752D01*
X249326D01*
Y106806D01*
Y106860D01*
X249380D01*
Y106913D01*
Y106967D01*
X249434D01*
Y107021D01*
Y107074D01*
X249487D01*
Y107128D01*
Y107182D01*
X249541D01*
Y107236D01*
Y107289D01*
X249595D01*
Y107343D01*
Y107397D01*
Y107451D01*
X249649D01*
Y107504D01*
X249702D01*
Y107558D01*
Y107612D01*
X249756D01*
Y107666D01*
X249810D01*
Y107719D01*
Y107773D01*
X249917D01*
Y107827D01*
Y107880D01*
X249971D01*
Y107934D01*
X250025D01*
Y107988D01*
Y108042D01*
X250078D01*
Y108095D01*
X250132D01*
Y108149D01*
X250186D01*
Y108203D01*
X250240D01*
Y108257D01*
Y108310D01*
X250293D01*
Y108364D01*
X250347D01*
Y108418D01*
X250401D01*
Y108472D01*
Y108525D01*
X250454D01*
Y108579D01*
X250508D01*
Y108633D01*
X250616D01*
Y108686D01*
X250670D01*
Y108740D01*
X250723D01*
Y108794D01*
X250777D01*
Y108848D01*
X250884D01*
Y108901D01*
X250938D01*
Y108955D01*
X251046D01*
Y109009D01*
X251099D01*
Y109063D01*
X251207D01*
Y109116D01*
X251260D01*
Y109170D01*
X251314D01*
Y109224D01*
X251368D01*
Y109277D01*
X251475D01*
Y109331D01*
X251583D01*
Y109385D01*
X251690D01*
Y109439D01*
X251798D01*
Y109492D01*
X251959D01*
Y109546D01*
X252066D01*
Y109600D01*
X252281D01*
Y109654D01*
X252496D01*
Y109707D01*
X252765D01*
Y109761D01*
X253786D01*
Y109707D01*
D02*
G37*
G36*
X253625Y99230D02*
X253517D01*
Y99176D01*
X253356D01*
Y99230D01*
X253410D01*
Y99284D01*
X253625D01*
Y99230D01*
D02*
G37*
D10*
X190792Y-388011D02*
G03*
X190792Y-388011I-394J0D01*
G01*
X234082Y-194982D02*
G03*
X234082Y-194982I-394J0D01*
G01*
X123538Y-387873D02*
G03*
X123538Y-387873I-394J0D01*
G01*
X243841Y-142229D02*
G03*
X243841Y-142229I-394J0D01*
G01*
X-57369Y-198839D02*
G03*
X-57369Y-198839I-394J0D01*
G01*
X-58726Y-271258D02*
G03*
X-58726Y-271258I-394J0D01*
G01*
X234568Y-277803D02*
G03*
X234568Y-277803I-394J0D01*
G01*
X238046Y206734D02*
G03*
X238046Y206734I-394J0D01*
G01*
X164697Y-72867D02*
X174934D01*
X162926Y-74638D02*
X164697Y-72867D01*
X162926Y-87237D02*
X164697Y-89028D01*
X193634Y-89009D02*
X204264D01*
X193634Y-72867D02*
X204264D01*
Y-89009D02*
Y-72867D01*
X162926Y-87237D02*
Y-74638D01*
X164697Y-89009D02*
X174934D01*
X85895Y-364080D02*
X87470D01*
X85895D02*
Y-362112D01*
Y-353450D02*
Y-352270D01*
X85896Y-352269D02*
X87469D01*
X176772Y99767D02*
Y101604D01*
X177690Y102522D01*
X178608Y101604D01*
Y99767D01*
Y101145D01*
X176772D01*
X179527Y102522D02*
X181363D01*
X180445D01*
Y99767D01*
X185037Y102522D02*
Y100686D01*
X185955Y99767D01*
X186873Y100686D01*
Y102522D01*
X187792D02*
X188710D01*
X188251D01*
Y99767D01*
X187792D01*
X188710D01*
X190088D02*
Y102522D01*
X191465D01*
X191924Y102063D01*
Y101145D01*
X191465Y100686D01*
X190088D01*
X191006D02*
X191924Y99767D01*
X194679Y102063D02*
X194220Y102522D01*
X193302D01*
X192843Y102063D01*
Y100226D01*
X193302Y99767D01*
X194220D01*
X194679Y100226D01*
Y101145D01*
X193761D01*
X195598Y102522D02*
X196516D01*
X196057D01*
Y99767D01*
X195598D01*
X196516D01*
X197894D02*
Y102522D01*
X199730Y99767D01*
Y102522D01*
X200648D02*
X201567D01*
X201108D01*
Y99767D01*
X200648D01*
X201567D01*
X202944D02*
Y101604D01*
X203863Y102522D01*
X204781Y101604D01*
Y99767D01*
Y101145D01*
X202944D01*
X208454Y102522D02*
X210291D01*
X209373D01*
Y99767D01*
X213046Y102522D02*
X211209D01*
Y99767D01*
X213046D01*
X211209Y101145D02*
X212128D01*
X215801Y102063D02*
X215342Y102522D01*
X214424D01*
X213964Y102063D01*
Y100226D01*
X214424Y99767D01*
X215342D01*
X215801Y100226D01*
X216719Y102522D02*
Y99767D01*
Y101145D01*
X218556D01*
Y102522D01*
Y99767D01*
D11*
X-34411Y-385774D02*
G03*
X-34411Y-385774I-551J0D01*
G01*
X160273Y-385421D02*
G03*
X160273Y-385421I-551J0D01*
G01*
D12*
X92213Y-365182D02*
G03*
X92213Y-365182I-176J0D01*
G01*
X224731Y-162057D02*
Y-146309D01*
X198747Y-162057D02*
Y-146309D01*
X117525Y-304036D02*
X119257D01*
X119257Y-306005D02*
Y-304036D01*
X116502D02*
X117525D01*
X119257Y-316004D02*
Y-314036D01*
X116501Y-316004D02*
X119257D01*
X183205Y166854D02*
Y160856D01*
X186204D01*
X187203Y161856D01*
Y165855D01*
X186204Y166854D01*
X183205D01*
X192202Y160856D02*
X190202D01*
X189203Y161856D01*
Y163855D01*
X190202Y164855D01*
X192202D01*
X193201Y163855D01*
Y162856D01*
X189203D01*
X195201Y160856D02*
X198200D01*
X199199Y161856D01*
X198200Y162856D01*
X196201D01*
X195201Y163855D01*
X196201Y164855D01*
X199199D01*
X201199Y160856D02*
X203198D01*
X202199D01*
Y164855D01*
X201199D01*
X208197Y158857D02*
X209196D01*
X210196Y159856D01*
Y164855D01*
X207197D01*
X206197Y163855D01*
Y161856D01*
X207197Y160856D01*
X210196D01*
X212195D02*
Y164855D01*
X215194D01*
X216194Y163855D01*
Y160856D01*
X221192D02*
X219193D01*
X218193Y161856D01*
Y163855D01*
X219193Y164855D01*
X221192D01*
X222192Y163855D01*
Y162856D01*
X218193D01*
X228190Y166854D02*
Y160856D01*
X225191D01*
X224191Y161856D01*
Y163855D01*
X225191Y164855D01*
X228190D01*
X236188Y166854D02*
Y160856D01*
X239187D01*
X240186Y161856D01*
Y162856D01*
X239187Y163855D01*
X236188D01*
X239187D01*
X240186Y164855D01*
Y165855D01*
X239187Y166854D01*
X236188D01*
X242186Y164855D02*
Y161856D01*
X243185Y160856D01*
X246184D01*
Y159856D01*
X245185Y158857D01*
X244185D01*
X246184Y160856D02*
Y164855D01*
X248184D02*
X249183D01*
Y163855D01*
X248184D01*
Y164855D01*
Y161856D02*
X249183D01*
Y160856D01*
X248184D01*
Y161856D01*
X183205Y155257D02*
Y149259D01*
X186204D01*
X187203Y150259D01*
Y154258D01*
X186204Y155257D01*
X183205D01*
X190202Y153258D02*
X192202D01*
X193201Y152258D01*
Y149259D01*
X190202D01*
X189203Y150259D01*
X190202Y151259D01*
X193201D01*
X195201Y153258D02*
X197200Y149259D01*
X199199Y153258D01*
X201199Y149259D02*
X203198D01*
X202199D01*
Y153258D01*
X201199D01*
X210196Y155257D02*
Y149259D01*
X207197D01*
X206197Y150259D01*
Y152258D01*
X207197Y153258D01*
X210196D01*
X222192Y154258D02*
X221192Y155257D01*
X219193D01*
X218193Y154258D01*
Y153258D01*
X219193Y152258D01*
X221192D01*
X222192Y151259D01*
Y150259D01*
X221192Y149259D01*
X219193D01*
X218193Y150259D01*
X224191Y147260D02*
Y153258D01*
X227190D01*
X228190Y152258D01*
Y150259D01*
X227190Y149259D01*
X224191D01*
X230189D02*
X232189D01*
X231189D01*
Y153258D01*
X230189D01*
X235188D02*
X237187Y149259D01*
X239187Y153258D01*
X244185Y149259D02*
X242186D01*
X241186Y150259D01*
Y152258D01*
X242186Y153258D01*
X244185D01*
X245185Y152258D01*
Y151259D01*
X241186D01*
X247184Y153258D02*
Y150259D01*
X248184Y149259D01*
X251183D01*
Y148259D01*
X250183Y147260D01*
X249183D01*
X251183Y149259D02*
Y153258D01*
X46420Y248851D02*
X45420Y249850D01*
X43421D01*
X42421Y248851D01*
Y244852D01*
X43421Y243852D01*
X45420D01*
X46420Y244852D01*
X48419Y243852D02*
X50418D01*
X49419D01*
Y249850D01*
X48419Y248851D01*
X-41410Y-198618D02*
Y-192620D01*
X-38411D01*
X-37412Y-193619D01*
Y-195619D01*
X-38411Y-196618D01*
X-41410D01*
X-39411D02*
X-37412Y-198618D01*
X-35412D02*
X-33413D01*
X-34413D01*
Y-192620D01*
X-35412Y-193619D01*
X-26415Y-192620D02*
X-28415Y-193619D01*
X-30414Y-195619D01*
Y-197618D01*
X-29414Y-198618D01*
X-27415D01*
X-26415Y-197618D01*
Y-196618D01*
X-27415Y-195619D01*
X-30414D01*
X8830Y164143D02*
Y167142D01*
X10329D01*
X10829Y166642D01*
Y165642D01*
X10329Y165143D01*
X8830D01*
X9830D02*
X10829Y164143D01*
X11829Y167142D02*
X13828D01*
Y166642D01*
X11829Y164643D01*
Y164143D01*
X255371Y38152D02*
Y44150D01*
X258370D01*
X259370Y43151D01*
Y41151D01*
X258370Y40152D01*
X255371D01*
X257370D02*
X259370Y38152D01*
X261369D02*
X263368D01*
X262369D01*
Y44150D01*
X261369Y43151D01*
X270366Y44150D02*
X266367D01*
Y41151D01*
X268367Y42151D01*
X269366D01*
X270366Y41151D01*
Y39152D01*
X269366Y38152D01*
X267367D01*
X266367Y39152D01*
X104075Y-376017D02*
X102742D01*
X103408D01*
Y-379349D01*
X102742Y-380016D01*
X102075D01*
X101409Y-379349D01*
X105408Y-376017D02*
X108073D01*
Y-376683D01*
X105408Y-379349D01*
Y-380016D01*
X109406Y-378016D02*
X112072D01*
X113405Y-380016D02*
Y-376017D01*
X114738Y-377350D01*
X116071Y-376017D01*
Y-380016D01*
X120070Y-376683D02*
X119403Y-376017D01*
X118070D01*
X117404Y-376683D01*
Y-379349D01*
X118070Y-380016D01*
X119403D01*
X120070Y-379349D01*
X121403Y-380016D02*
X122735D01*
X122069D01*
Y-376017D01*
X121403Y-376683D01*
X-43400Y227811D02*
X-44400Y228810D01*
X-46399D01*
X-47399Y227811D01*
Y223812D01*
X-46399Y222812D01*
X-44400D01*
X-43400Y223812D01*
X-37402Y228810D02*
X-39402Y227811D01*
X-41401Y225811D01*
Y223812D01*
X-40401Y222812D01*
X-38402D01*
X-37402Y223812D01*
Y224812D01*
X-38402Y225811D01*
X-41401D01*
X178554Y-94866D02*
Y-100864D01*
X181553D01*
X182553Y-99864D01*
Y-95865D01*
X181553Y-94866D01*
X178554D01*
X188551D02*
X186551Y-95865D01*
X184552Y-97865D01*
Y-99864D01*
X185552Y-100864D01*
X187551D01*
X188551Y-99864D01*
Y-98864D01*
X187551Y-97865D01*
X184552D01*
X204959Y-55121D02*
X203959Y-54122D01*
X201960D01*
X200960Y-55121D01*
Y-59120D01*
X201960Y-60120D01*
X203959D01*
X204959Y-59120D01*
X206958Y-60120D02*
X208957D01*
X207958D01*
Y-54122D01*
X206958Y-55121D01*
X214955Y-60120D02*
Y-54122D01*
X211956Y-57121D01*
X215955D01*
X183330Y-124689D02*
X182330Y-123690D01*
X180331D01*
X179331Y-124689D01*
Y-128688D01*
X180331Y-129688D01*
X182330D01*
X183330Y-128688D01*
X185329Y-129688D02*
X187328D01*
X186329D01*
Y-123690D01*
X185329Y-124689D01*
X190327D02*
X191327Y-123690D01*
X193326D01*
X194326Y-124689D01*
Y-125689D01*
X193326Y-126689D01*
X192327D01*
X193326D01*
X194326Y-127688D01*
Y-128688D01*
X193326Y-129688D01*
X191327D01*
X190327Y-128688D01*
X201111Y-100361D02*
Y-94363D01*
X204110D01*
X205110Y-95362D01*
Y-97362D01*
X204110Y-98361D01*
X201111D01*
X203110D02*
X205110Y-100361D01*
X207109D02*
X209108D01*
X208109D01*
Y-94363D01*
X207109Y-95362D01*
X215106Y-100361D02*
Y-94363D01*
X212107Y-97362D01*
X216106D01*
X-47428Y-179877D02*
Y-178893D01*
Y-179385D01*
X-49887D01*
X-50380Y-178893D01*
Y-178401D01*
X-49887Y-177909D01*
X-50380Y-180861D02*
Y-181845D01*
Y-181353D01*
X-47428D01*
X-47920Y-180861D01*
Y-183321D02*
X-47428Y-183813D01*
Y-184797D01*
X-47920Y-185289D01*
X-49887D01*
X-50380Y-184797D01*
Y-183813D01*
X-49887Y-183321D01*
X-47920D01*
X-48904Y-186273D02*
Y-188240D01*
X-47428Y-189224D02*
Y-190208D01*
Y-189716D01*
X-50380D01*
Y-189224D01*
Y-190208D01*
Y-191684D02*
X-47428D01*
X-48412Y-192668D01*
X-47428Y-193652D01*
X-50380D01*
X-47428Y-194636D02*
X-49887D01*
X-50380Y-195128D01*
Y-196112D01*
X-49887Y-196604D01*
X-47428D01*
X148731Y-116628D02*
Y-110630D01*
X151730D01*
X152730Y-111629D01*
Y-113629D01*
X151730Y-114628D01*
X148731D01*
X150730D02*
X152730Y-116628D01*
X154729D02*
X156728D01*
X155729D01*
Y-110630D01*
X154729Y-111629D01*
X159727D02*
X160727Y-110630D01*
X162726D01*
X163726Y-111629D01*
Y-112629D01*
X162726Y-113629D01*
X161727D01*
X162726D01*
X163726Y-114628D01*
Y-115628D01*
X162726Y-116628D01*
X160727D01*
X159727Y-115628D01*
X-43801Y-231226D02*
Y-229227D01*
Y-230227D01*
X-48799D01*
X-49799Y-229227D01*
Y-228227D01*
X-48799Y-227228D01*
Y-233226D02*
X-49799Y-234225D01*
Y-236225D01*
X-48799Y-237224D01*
X-44801D01*
X-43801Y-236225D01*
Y-234225D01*
X-44801Y-233226D01*
X-45800D01*
X-46800Y-234225D01*
Y-237224D01*
Y-239224D02*
Y-243222D01*
X-44801Y-249221D02*
X-43801Y-248221D01*
Y-246221D01*
X-44801Y-245222D01*
X-48799D01*
X-49799Y-246221D01*
Y-248221D01*
X-48799Y-249221D01*
X-49799Y-251220D02*
X-45800D01*
X-43801Y-253219D01*
X-45800Y-255219D01*
X-49799D01*
X-46800D01*
Y-251220D01*
X-49799Y-257218D02*
X-43801D01*
X-49799Y-261217D01*
X-43801D01*
X151200Y-155439D02*
X150200Y-154440D01*
X148201D01*
X147201Y-155439D01*
Y-159438D01*
X148201Y-160438D01*
X150200D01*
X151200Y-159438D01*
X153199Y-154440D02*
Y-160438D01*
Y-157439D01*
X157198D01*
Y-154440D01*
Y-160438D01*
X159197D02*
X161196D01*
X160197D01*
Y-154440D01*
X159197Y-155439D01*
X164837Y-189618D02*
X162838D01*
X163838D01*
Y-194616D01*
X162838Y-195616D01*
X161838D01*
X160839Y-194616D01*
X166837Y-189618D02*
Y-195616D01*
X169836D01*
X170835Y-194616D01*
Y-190617D01*
X169836Y-189618D01*
X166837D01*
X-5163D02*
X-7162D01*
X-6162D01*
Y-194616D01*
X-7162Y-195616D01*
X-8162D01*
X-9161Y-194616D01*
X835Y-190617D02*
X-164Y-189618D01*
X-2164D01*
X-3163Y-190617D01*
Y-194616D01*
X-2164Y-195616D01*
X-164D01*
X835Y-194616D01*
X164808Y60382D02*
X162808D01*
X163808D01*
Y55384D01*
X162808Y54384D01*
X161809D01*
X160809Y55384D01*
X166807Y60382D02*
Y54384D01*
X169806D01*
X170806Y55384D01*
Y56384D01*
X169806Y57383D01*
X166807D01*
X169806D01*
X170806Y58383D01*
Y59383D01*
X169806Y60382D01*
X166807D01*
X-5163D02*
X-7162D01*
X-6162D01*
Y55384D01*
X-7162Y54384D01*
X-8162D01*
X-9161Y55384D01*
X-3163Y54384D02*
Y58383D01*
X-1164Y60382D01*
X835Y58383D01*
Y54384D01*
Y57383D01*
X-3163D01*
X221112Y-234102D02*
Y-235435D01*
Y-234768D01*
X224445D01*
X225111Y-235435D01*
Y-236101D01*
X224445Y-236768D01*
X221779Y-232769D02*
X221112Y-232102D01*
Y-230770D01*
X221779Y-230103D01*
X222445D01*
X223112Y-230770D01*
Y-231436D01*
Y-230770D01*
X223778Y-230103D01*
X224445D01*
X225111Y-230770D01*
Y-232102D01*
X224445Y-232769D01*
X223112Y-228770D02*
Y-226104D01*
X221112Y-224771D02*
X225111D01*
Y-222106D01*
X221112Y-218107D02*
Y-220773D01*
X225111D01*
Y-218107D01*
X223112Y-220773D02*
Y-219440D01*
X221112Y-216774D02*
X225111D01*
Y-214775D01*
X224445Y-214108D01*
X221779D01*
X221112Y-214775D01*
Y-216774D01*
X6199Y202925D02*
X5199Y203925D01*
X3200D01*
X2200Y202925D01*
Y201926D01*
X3200Y200926D01*
X5199D01*
X6199Y199926D01*
Y198927D01*
X5199Y197927D01*
X3200D01*
X2200Y198927D01*
X8198Y197927D02*
X10197D01*
X9198D01*
Y203925D01*
X8198Y202925D01*
X156893Y-347432D02*
Y-344433D01*
X158393D01*
X158892Y-344933D01*
Y-345933D01*
X158393Y-346433D01*
X156893D01*
X157893D02*
X158892Y-347432D01*
X159892D02*
X160892D01*
X160392D01*
Y-344433D01*
X159892Y-344933D01*
X162391Y-347432D02*
X163391D01*
X162891D01*
Y-344433D01*
X162391Y-344933D01*
X158158Y-336489D02*
Y-333489D01*
X159658D01*
X160157Y-333989D01*
Y-334989D01*
X159658Y-335489D01*
X158158D01*
X159158D02*
X160157Y-336489D01*
X161157D02*
X162157D01*
X161657D01*
Y-333489D01*
X161157Y-333989D01*
X163656D02*
X164156Y-333489D01*
X165156D01*
X165656Y-333989D01*
Y-335989D01*
X165156Y-336489D01*
X164156D01*
X163656Y-335989D01*
Y-333989D01*
X366Y135567D02*
Y138566D01*
X1866D01*
X2365Y138066D01*
Y137066D01*
X1866Y136566D01*
X366D01*
X1366D02*
X2365Y135567D01*
X3365Y138066D02*
X3865Y138566D01*
X4865D01*
X5364Y138066D01*
Y137566D01*
X4865Y137066D01*
X5364Y136566D01*
Y136067D01*
X4865Y135567D01*
X3865D01*
X3365Y136067D01*
Y136566D01*
X3865Y137066D01*
X3365Y137566D01*
Y138066D01*
X3865Y137066D02*
X4865D01*
X2831Y174892D02*
Y177891D01*
X4330D01*
X4830Y177392D01*
Y176392D01*
X4330Y175892D01*
X2831D01*
X3831D02*
X4830Y174892D01*
X7829Y177891D02*
X6830Y177392D01*
X5830Y176392D01*
Y175392D01*
X6330Y174892D01*
X7329D01*
X7829Y175392D01*
Y175892D01*
X7329Y176392D01*
X5830D01*
X150258Y-356977D02*
Y-353978D01*
X151758D01*
X152257Y-354478D01*
Y-355477D01*
X151758Y-355977D01*
X150258D01*
X151258D02*
X152257Y-356977D01*
X153257Y-356477D02*
X153757Y-356977D01*
X154756D01*
X155256Y-356477D01*
Y-354478D01*
X154756Y-353978D01*
X153757D01*
X153257Y-354478D01*
Y-354977D01*
X153757Y-355477D01*
X155256D01*
X115603Y-299516D02*
Y-295517D01*
X114603Y-294518D01*
X112604D01*
X111604Y-295517D01*
Y-299516D01*
X112604Y-300516D01*
X114603D01*
X113604Y-298516D02*
X115603Y-300516D01*
X114603D02*
X115603Y-299516D01*
X120601Y-300516D02*
Y-294518D01*
X117602Y-297517D01*
X121601D01*
X74180Y-358958D02*
Y-356959D01*
X73681Y-356459D01*
X72681D01*
X72181Y-356959D01*
Y-358958D01*
X72681Y-359458D01*
X73681D01*
X73181Y-358458D02*
X74180Y-359458D01*
X73681D02*
X74180Y-358958D01*
X75180Y-356959D02*
X75680Y-356459D01*
X76679D01*
X77179Y-356959D01*
Y-357458D01*
X76679Y-357958D01*
X76180D01*
X76679D01*
X77179Y-358458D01*
Y-358958D01*
X76679Y-359458D01*
X75680D01*
X75180Y-358958D01*
X-48839Y-297117D02*
Y-303115D01*
Y-301116D01*
X-44840Y-297117D01*
X-47839Y-300116D01*
X-44840Y-303115D01*
X-39842D02*
Y-297117D01*
X-42841Y-300116D01*
X-38842D01*
X56849Y-296366D02*
Y-302364D01*
Y-300364D01*
X60848Y-296366D01*
X57849Y-299365D01*
X60848Y-302364D01*
X62847Y-297365D02*
X63847Y-296366D01*
X65846D01*
X66846Y-297365D01*
Y-298365D01*
X65846Y-299365D01*
X64846D01*
X65846D01*
X66846Y-300364D01*
Y-301364D01*
X65846Y-302364D01*
X63847D01*
X62847Y-301364D01*
X57065Y-172020D02*
Y-178018D01*
Y-176018D01*
X61064Y-172020D01*
X58065Y-175019D01*
X61064Y-178018D01*
X67062D02*
X63063D01*
X67062Y-174019D01*
Y-173019D01*
X66062Y-172020D01*
X64063D01*
X63063Y-173019D01*
X129332Y201430D02*
Y195432D01*
Y197432D01*
X133331Y201430D01*
X130332Y198431D01*
X133331Y195432D01*
X135330D02*
X137329D01*
X136329D01*
Y201430D01*
X135330Y200431D01*
X20959Y-85436D02*
Y-83437D01*
Y-84437D01*
X15961D01*
X14961Y-83437D01*
Y-82437D01*
X15961Y-81438D01*
X14961Y-87436D02*
Y-89435D01*
Y-88435D01*
X20959D01*
X19959Y-87436D01*
X14961Y-92434D02*
Y-94433D01*
Y-93434D01*
X20959D01*
X19959Y-92434D01*
X17960Y-97433D02*
Y-101431D01*
X20959Y-103430D02*
X14961Y-107429D01*
X20959D02*
X14961Y-103430D01*
X20959Y-109429D02*
X14961D01*
Y-112428D01*
X15961Y-113427D01*
X16960D01*
X17960Y-112428D01*
Y-109429D01*
Y-112428D01*
X18960Y-113427D01*
X19959D01*
X20959Y-112428D01*
Y-109429D01*
Y-119425D02*
Y-115427D01*
X14961D01*
Y-119425D01*
X17960Y-115427D02*
Y-117426D01*
X20959Y-125423D02*
Y-121425D01*
X14961D01*
Y-125423D01*
X17960Y-121425D02*
Y-123424D01*
X132875Y-376017D02*
X131542D01*
X132208D01*
Y-379349D01*
X131542Y-380016D01*
X130875D01*
X130209Y-379349D01*
X136873Y-376017D02*
X135541Y-376683D01*
X134208Y-378016D01*
Y-379349D01*
X134874Y-380016D01*
X136207D01*
X136873Y-379349D01*
Y-378683D01*
X136207Y-378016D01*
X134208D01*
X138206D02*
X140872D01*
X142205Y-376017D02*
Y-380016D01*
X144204D01*
X144871Y-379349D01*
Y-376683D01*
X144204Y-376017D01*
X142205D01*
X146204Y-380016D02*
Y-377350D01*
X147537Y-376017D01*
X148870Y-377350D01*
Y-380016D01*
Y-378016D01*
X146204D01*
X152868Y-376683D02*
X152202Y-376017D01*
X150869D01*
X150203Y-376683D01*
Y-377350D01*
X150869Y-378016D01*
X152202D01*
X152868Y-378683D01*
Y-379349D01*
X152202Y-380016D01*
X150869D01*
X150203Y-379349D01*
X154201Y-376017D02*
Y-380016D01*
Y-378016D01*
X156867D01*
Y-376017D01*
Y-380016D01*
X-60090Y-376553D02*
X-61423D01*
X-60757D01*
Y-379885D01*
X-61423Y-380551D01*
X-62090D01*
X-62756Y-379885D01*
X-58757Y-377219D02*
X-58091Y-376553D01*
X-56758D01*
X-56091Y-377219D01*
Y-377885D01*
X-56758Y-378552D01*
X-56091Y-379218D01*
Y-379885D01*
X-56758Y-380551D01*
X-58091D01*
X-58757Y-379885D01*
Y-379218D01*
X-58091Y-378552D01*
X-58757Y-377885D01*
Y-377219D01*
X-58091Y-378552D02*
X-56758D01*
X-54759D02*
X-52093D01*
X-50760Y-380551D02*
Y-376553D01*
X-49427Y-377885D01*
X-48094Y-376553D01*
Y-380551D01*
X-44095Y-377219D02*
X-44762Y-376553D01*
X-46095D01*
X-46761Y-377219D01*
Y-379885D01*
X-46095Y-380551D01*
X-44762D01*
X-44095Y-379885D01*
X-40097Y-380551D02*
X-42762D01*
X-40097Y-377885D01*
Y-377219D01*
X-40763Y-376553D01*
X-42096D01*
X-42762Y-377219D01*
X231040Y-162917D02*
Y-164250D01*
Y-163584D01*
X234372D01*
X235039Y-164250D01*
Y-164917D01*
X234372Y-165583D01*
X235039Y-158919D02*
Y-161584D01*
X232373Y-158919D01*
X231706D01*
X231040Y-159585D01*
Y-160918D01*
X231706Y-161584D01*
X233039Y-157586D02*
Y-154920D01*
X235039Y-153587D02*
X231040D01*
Y-151588D01*
X231706Y-150921D01*
X233039D01*
X233706Y-151588D01*
Y-153587D01*
X231040Y-149588D02*
X234372D01*
X235039Y-148922D01*
Y-147589D01*
X234372Y-146922D01*
X231040D01*
X235039Y-145589D02*
X231040D01*
X232373Y-144257D01*
X231040Y-142924D01*
X235039D01*
Y-141591D02*
X231040D01*
Y-139592D01*
X231706Y-138925D01*
X233039D01*
X233706Y-139592D01*
Y-141591D01*
X170675Y-376217D02*
X169342D01*
X170008D01*
Y-379549D01*
X169342Y-380216D01*
X168675D01*
X168009Y-379549D01*
X174673Y-376217D02*
X172008D01*
Y-378216D01*
X173341Y-377550D01*
X174007D01*
X174673Y-378216D01*
Y-379549D01*
X174007Y-380216D01*
X172674D01*
X172008Y-379549D01*
X176006Y-378216D02*
X178672D01*
X180005Y-376217D02*
Y-380216D01*
X182004D01*
X182671Y-379549D01*
Y-378883D01*
X182004Y-378216D01*
X180005D01*
X182004D01*
X182671Y-377550D01*
Y-376883D01*
X182004Y-376217D01*
X180005D01*
X184004Y-380216D02*
Y-376217D01*
X185337Y-377550D01*
X186670Y-376217D01*
Y-380216D01*
X190668Y-376883D02*
X190002Y-376217D01*
X188669D01*
X188003Y-376883D01*
Y-377550D01*
X188669Y-378216D01*
X190002D01*
X190668Y-378883D01*
Y-379549D01*
X190002Y-380216D01*
X188669D01*
X188003Y-379549D01*
X221488Y-322922D02*
Y-324255D01*
Y-323588D01*
X224821D01*
X225487Y-324255D01*
Y-324921D01*
X224821Y-325588D01*
X225487Y-319590D02*
X221488D01*
X223488Y-321589D01*
Y-318923D01*
Y-317590D02*
Y-314924D01*
X222155Y-310926D02*
X221488Y-311592D01*
Y-312925D01*
X222155Y-313592D01*
X222821D01*
X223488Y-312925D01*
Y-311592D01*
X224154Y-310926D01*
X224821D01*
X225487Y-311592D01*
Y-312925D01*
X224821Y-313592D01*
X221488Y-309593D02*
X225487D01*
X224154Y-308260D01*
X225487Y-306927D01*
X221488D01*
Y-305594D02*
Y-304261D01*
Y-304928D01*
X225487D01*
Y-305594D01*
Y-304261D01*
X221488Y-302262D02*
Y-299596D01*
Y-300929D01*
X225487D01*
X222155Y-295597D02*
X221488Y-296264D01*
Y-297597D01*
X222155Y-298263D01*
X224821D01*
X225487Y-297597D01*
Y-296264D01*
X224821Y-295597D01*
X221488Y-294264D02*
X225487D01*
X223488D01*
Y-291599D01*
X221488D01*
X225487D01*
X221488Y-287600D02*
Y-290266D01*
X225487D01*
Y-287600D01*
X223488Y-290266D02*
Y-288933D01*
X222155Y-283601D02*
X221488Y-284268D01*
Y-285601D01*
X222155Y-286267D01*
X222821D01*
X223488Y-285601D01*
Y-284268D01*
X224154Y-283601D01*
X224821D01*
X225487Y-284268D01*
Y-285601D01*
X224821Y-286267D01*
X260042Y192634D02*
X262042D01*
X261042D01*
Y197633D01*
X262042Y198632D01*
X263041D01*
X264041Y197633D01*
X258043Y198632D02*
X256044D01*
X257043D01*
Y192634D01*
X258043Y193634D01*
X253045Y195633D02*
X249046D01*
X247046Y192634D02*
Y198632D01*
X244047D01*
X243048Y197633D01*
Y196633D01*
X244047Y195633D01*
X247046D01*
X244047D01*
X243048Y194634D01*
Y193634D01*
X244047Y192634D01*
X247046D01*
X241048Y198632D02*
Y194634D01*
X239049Y192634D01*
X237050Y194634D01*
Y198632D01*
Y195633D01*
X241048D01*
X235050Y192634D02*
X231052D01*
X233051D01*
Y198632D01*
X-19874Y-355089D02*
X-21207D01*
Y-356088D01*
X-20541D01*
X-21207D01*
Y-357088D01*
X-19208D02*
X-18541D01*
X-18875D01*
Y-355089D01*
X-19208Y-355422D01*
X-17542Y-357088D02*
X-16875D01*
X-17209D01*
Y-355089D01*
X-17542Y-355422D01*
X79711Y-394122D02*
X78378D01*
Y-395122D01*
X79044D01*
X78378D01*
Y-396122D01*
X80377D02*
X81043D01*
X80710D01*
Y-394122D01*
X80377Y-394456D01*
X82043D02*
X82376Y-394122D01*
X83043D01*
X83376Y-394456D01*
Y-395789D01*
X83043Y-396122D01*
X82376D01*
X82043Y-395789D01*
Y-394456D01*
X166496Y-354333D02*
X165163D01*
Y-355333D01*
X165829D01*
X165163D01*
Y-356333D01*
X168495Y-354333D02*
X167829Y-354667D01*
X167162Y-355333D01*
Y-355999D01*
X167496Y-356333D01*
X168162D01*
X168495Y-355999D01*
Y-355666D01*
X168162Y-355333D01*
X167162D01*
X219007Y-406529D02*
X217008D01*
Y-408028D01*
X218007D01*
X217008D01*
Y-409528D01*
X222006Y-406529D02*
X220007D01*
Y-408028D01*
X221007Y-407528D01*
X221506D01*
X222006Y-408028D01*
Y-409028D01*
X221506Y-409528D01*
X220507D01*
X220007Y-409028D01*
X191412Y-362804D02*
X190079D01*
Y-363804D01*
X190745D01*
X190079D01*
Y-364803D01*
X193078D02*
Y-362804D01*
X192078Y-363804D01*
X193411D01*
X3620Y86400D02*
X-379D01*
Y83401D01*
X1620D01*
X-379D01*
Y80402D01*
X5619Y85401D02*
X6619Y86400D01*
X8618D01*
X9618Y85401D01*
Y84401D01*
X8618Y83401D01*
X7618D01*
X8618D01*
X9618Y82402D01*
Y81402D01*
X8618Y80402D01*
X6619D01*
X5619Y81402D01*
X12103Y96409D02*
X8104D01*
Y93410D01*
X10103D01*
X8104D01*
Y90411D01*
X18101D02*
X14102D01*
X18101Y94410D01*
Y95410D01*
X17101Y96409D01*
X15102D01*
X14102Y95410D01*
X226939Y241922D02*
X222940D01*
Y238923D01*
X224939D01*
X222940D01*
Y235924D01*
X228938D02*
X230937D01*
X229938D01*
Y241922D01*
X228938Y240922D01*
X185231Y-151375D02*
Y-157373D01*
X188230D01*
X189229Y-156373D01*
Y-152375D01*
X188230Y-151375D01*
X185231D01*
X191229Y-152375D02*
X192228Y-151375D01*
X194228D01*
X195227Y-152375D01*
Y-153374D01*
X194228Y-154374D01*
X195227Y-155374D01*
Y-156373D01*
X194228Y-157373D01*
X192228D01*
X191229Y-156373D01*
Y-155374D01*
X192228Y-154374D01*
X191229Y-153374D01*
Y-152375D01*
X192228Y-154374D02*
X194228D01*
X-39819Y76129D02*
X-40319Y76628D01*
X-41318D01*
X-41818Y76129D01*
Y74129D01*
X-41318Y73629D01*
X-40319D01*
X-39819Y74129D01*
X-38819Y76129D02*
X-38319Y76628D01*
X-37319D01*
X-36820Y76129D01*
Y75629D01*
X-37319Y75129D01*
X-36820Y74629D01*
Y74129D01*
X-37319Y73629D01*
X-38319D01*
X-38819Y74129D01*
Y74629D01*
X-38319Y75129D01*
X-38819Y75629D01*
Y76129D01*
X-38319Y75129D02*
X-37319D01*
X-87191Y75173D02*
X-87691Y75672D01*
X-88690D01*
X-89190Y75173D01*
Y73173D01*
X-88690Y72673D01*
X-87691D01*
X-87191Y73173D01*
X-86191Y75672D02*
X-84192D01*
Y75173D01*
X-86191Y73173D01*
Y72673D01*
X-44910Y249741D02*
X-45910Y250740D01*
X-47909D01*
X-48909Y249741D01*
Y245742D01*
X-47909Y244742D01*
X-45910D01*
X-44910Y245742D01*
X-38912Y250740D02*
X-42911D01*
Y247741D01*
X-40912Y248741D01*
X-39912D01*
X-38912Y247741D01*
Y245742D01*
X-39912Y244742D01*
X-41911D01*
X-42911Y245742D01*
X83630Y81774D02*
X82630Y82773D01*
X80631D01*
X79631Y81774D01*
Y77775D01*
X80631Y76775D01*
X82630D01*
X83630Y77775D01*
X88628Y76775D02*
Y82773D01*
X85629Y79774D01*
X89628D01*
X36011Y81151D02*
X35011Y82150D01*
X33012D01*
X32012Y81151D01*
Y77152D01*
X33012Y76152D01*
X35011D01*
X36011Y77152D01*
X38010Y81151D02*
X39010Y82150D01*
X41009D01*
X42009Y81151D01*
Y80151D01*
X41009Y79151D01*
X40009D01*
X41009D01*
X42009Y78152D01*
Y77152D01*
X41009Y76152D01*
X39010D01*
X38010Y77152D01*
X43530Y227441D02*
X42530Y228440D01*
X40531D01*
X39531Y227441D01*
Y223442D01*
X40531Y222442D01*
X42530D01*
X43530Y223442D01*
X49528Y222442D02*
X45529D01*
X49528Y226441D01*
Y227441D01*
X48528Y228440D01*
X46529D01*
X45529Y227441D01*
X-111484Y214885D02*
X-109485D01*
X-110484D01*
Y220883D01*
X-111484Y219884D01*
X-102487Y214885D02*
X-106486D01*
X-102487Y218884D01*
Y219884D01*
X-103487Y220883D01*
X-105486D01*
X-106486Y219884D01*
X-100488Y220883D02*
Y216885D01*
X-98488Y214885D01*
X-96489Y216885D01*
Y220883D01*
X130560Y116583D02*
X126561D01*
Y113584D01*
X128561Y114583D01*
X129560D01*
X130560Y113584D01*
Y111584D01*
X129560Y110584D01*
X127561D01*
X126561Y111584D01*
X132559Y116583D02*
Y112584D01*
X134559Y110584D01*
X136558Y112584D01*
Y116583D01*
D13*
X-7599Y92964D02*
G03*
X-7599Y92964I-300J0D01*
G01*
X28161Y104124D02*
G03*
X28161Y104124I-300J0D01*
G01*
X-25961Y-364633D02*
G03*
X-25961Y-364633I-300J0D01*
G01*
X88765Y-402629D02*
G03*
X88765Y-402629I-300J0D01*
G01*
X167474Y-373414D02*
G03*
X167474Y-373414I-300J0D01*
G01*
X184688Y-371592D02*
G03*
X184688Y-371592I-300J0D01*
G01*
X234190Y250867D02*
G03*
X234190Y250867I-300J0D01*
G01*
X-38854Y-201267D02*
X-34582D01*
X-38854Y-208566D02*
X-34582D01*
X-1016Y160837D02*
X3256D01*
X-1016Y153538D02*
X3256D01*
X-100509Y50184D02*
Y53124D01*
X-70009Y65944D02*
Y68884D01*
X-100509D02*
X-70009D01*
X-100509Y65944D02*
Y68884D01*
Y50184D02*
X-70009D01*
Y53124D01*
X-57559Y231014D02*
Y233954D01*
X-88059Y215254D02*
Y218194D01*
Y215254D02*
X-57559D01*
Y218194D01*
X-88059Y233954D02*
X-57559D01*
X-88059Y231014D02*
Y233954D01*
X-87789Y252644D02*
Y255584D01*
X-57289D01*
Y236884D02*
Y239824D01*
X-87789Y236884D02*
X-57289D01*
X-87789D02*
Y239824D01*
X-57289Y252644D02*
Y255584D01*
X-53929Y66274D02*
Y69214D01*
X-23429D01*
Y50514D02*
Y53454D01*
X-53929Y50514D02*
X-23429D01*
X-53929D02*
Y53454D01*
X-23429Y66274D02*
Y69214D01*
X46961Y64364D02*
X49901D01*
X46961D02*
Y94864D01*
X62721D02*
X65661D01*
Y64364D02*
Y94864D01*
X62721Y64364D02*
X65661D01*
X46961Y94864D02*
X49901D01*
X59358Y215974D02*
Y218914D01*
X89858Y231734D02*
Y234674D01*
X59358D02*
X89858D01*
X59358Y231734D02*
Y234674D01*
Y215974D02*
X89858D01*
Y218914D01*
X89858Y237284D02*
Y240224D01*
X59358Y237284D02*
X89858D01*
X59358Y253044D02*
Y255984D01*
X89858D01*
Y253044D02*
Y255984D01*
X59358Y237284D02*
Y240224D01*
X95551Y94994D02*
X98491D01*
X111311Y64494D02*
X114251D01*
Y94994D01*
X111311D02*
X114251D01*
X95551Y64494D02*
Y94994D01*
Y64494D02*
X98491D01*
X-11549Y81024D02*
Y84304D01*
X-4249Y81024D02*
Y84304D01*
X168448Y-116915D02*
Y-112644D01*
X175748Y-116915D02*
Y-112644D01*
X-8800Y174154D02*
Y178425D01*
X-1500Y174154D02*
Y178425D01*
X-938Y150312D02*
X3334D01*
X-938Y143013D02*
X3334D01*
X31511Y92184D02*
Y95464D01*
X24211Y92184D02*
Y95464D01*
X146115Y-357464D02*
Y-353193D01*
X138815Y-357464D02*
Y-353193D01*
X175474Y-339246D02*
X179746D01*
X175474Y-331947D02*
X179746D01*
X175474Y-342236D02*
X179746D01*
X175474Y-349535D02*
X179746D01*
X217490Y-395174D02*
X222668D01*
X217490Y-402674D02*
X222668D01*
X202932Y-111746D02*
X207204D01*
X202932Y-104447D02*
X207204D01*
X221950Y254517D02*
X225230D01*
X221950Y247217D02*
X225230D01*
X248422Y37856D02*
Y42127D01*
X241122Y37856D02*
Y42127D01*
D14*
X167682Y-405609D02*
X191067D01*
Y-438916D02*
Y-405609D01*
X167682Y-438916D02*
X191067D01*
X167682D02*
Y-405609D01*
X284751Y-257108D02*
Y-194352D01*
X251444Y-257108D02*
Y-194352D01*
Y-257108D02*
X284751D01*
X251444Y-194352D02*
X284751D01*
X100428Y-438778D02*
Y-405471D01*
Y-438778D02*
X123814D01*
Y-405471D01*
X100428D02*
X123814D01*
X251203Y-164395D02*
X284510D01*
Y-141009D01*
X251203D02*
X284510D01*
X251203Y-164395D02*
Y-141009D01*
X-108668Y-176122D02*
X-75361D01*
X-108668Y-199508D02*
Y-176122D01*
Y-199508D02*
X-75361D01*
Y-176122D01*
X-110025Y-272912D02*
X-76718D01*
X-110025Y-216061D02*
X-76718D01*
Y-272912D02*
Y-216061D01*
X-110025Y-272912D02*
Y-216061D01*
X-67718Y-405774D02*
X-34490D01*
Y-439081D02*
Y-405774D01*
X-67718Y-439081D02*
X-34490D01*
X-67718D02*
Y-405774D01*
X126965Y-438728D02*
Y-405421D01*
Y-438728D02*
X160194D01*
Y-405421D01*
X126965D02*
X160194D01*
X285080Y-333000D02*
Y-276150D01*
X251773Y-333000D02*
Y-276150D01*
Y-333000D02*
X285080D01*
X251773Y-276150D02*
X285080D01*
X236983Y224332D02*
X260368D01*
X236983D02*
Y257640D01*
X260368D01*
Y224332D02*
Y257640D01*
D15*
X18952Y107753D02*
Y207753D01*
Y107753D02*
X118952D01*
Y207753D01*
X18952D02*
X118952D01*
X-19041Y81591D02*
Y206001D01*
X-109198Y81591D02*
X-19041D01*
X-109198Y81591D02*
Y211119D01*
X-24159D01*
X-19041Y206001D01*
X54221Y-234178D02*
Y-227091D01*
X125481Y-234178D02*
Y-181816D01*
X54221Y-234178D02*
X125481D01*
X54221Y-227091D02*
Y-181816D01*
X125481D01*
X127549Y206902D02*
X198809D01*
Y252178D01*
X127549Y259264D02*
X198809D01*
X127549Y206902D02*
Y259264D01*
X198809Y252178D02*
Y259264D01*
X-110570Y-307580D02*
X-39310D01*
X-110570Y-352855D02*
Y-307580D01*
Y-359942D02*
X-39310D01*
Y-307580D01*
X-110570Y-359942D02*
Y-352855D01*
X125745Y-246038D02*
Y-238951D01*
X54485Y-291314D02*
Y-238951D01*
X125745D01*
Y-291314D02*
Y-246038D01*
X54485Y-291314D02*
X125745D01*
X178819Y120217D02*
Y108409D01*
Y120217D02*
X183880D01*
X185567Y119655D01*
X186129Y119093D01*
X186691Y117968D01*
Y116843D01*
X186129Y115719D01*
X185567Y115156D01*
X183880Y114594D01*
X178819D02*
X183880D01*
X185567Y114032D01*
X186129Y113469D01*
X186691Y112345D01*
Y110658D01*
X186129Y109533D01*
X185567Y108971D01*
X183880Y108409D01*
X178819D01*
X192708Y120217D02*
X191583Y119655D01*
X190459Y118530D01*
X189896Y117406D01*
X189334Y115719D01*
Y112907D01*
X189896Y111220D01*
X190459Y110096D01*
X191583Y108971D01*
X192708Y108409D01*
X194957D01*
X196082Y108971D01*
X197206Y110096D01*
X197769Y111220D01*
X198331Y112907D01*
Y115719D01*
X197769Y117406D01*
X197206Y118530D01*
X196082Y119655D01*
X194957Y120217D01*
X192708D01*
X201086D02*
Y108409D01*
X207834D01*
X213064Y120217D02*
Y108409D01*
X209127Y120217D02*
X217000D01*
D16*
X184366Y-203641D02*
X183699Y-202975D01*
X182367D01*
X181700Y-203641D01*
Y-206307D01*
X182367Y-206974D01*
X183699D01*
X184366Y-206307D01*
Y-204974D01*
X183033D01*
X185699Y-206974D02*
Y-202975D01*
X188365Y-206974D01*
Y-202975D01*
X189697D02*
Y-206974D01*
X191697D01*
X192363Y-206307D01*
Y-203641D01*
X191697Y-202975D01*
X189697D01*
X146693Y-207165D02*
Y-203167D01*
X148692D01*
X149359Y-203833D01*
Y-205166D01*
X148692Y-205833D01*
X146693D01*
X153357Y-203833D02*
X152691Y-203167D01*
X151358D01*
X150692Y-203833D01*
Y-206499D01*
X151358Y-207165D01*
X152691D01*
X153357Y-206499D01*
Y-205166D01*
X152024D01*
X154690Y-207165D02*
X156023D01*
X155357D01*
Y-203167D01*
X154690Y-203833D01*
X146496Y-216800D02*
Y-212801D01*
X148495D01*
X149162Y-213468D01*
Y-214801D01*
X148495Y-215467D01*
X146496D01*
X150495Y-212801D02*
Y-216800D01*
Y-215467D01*
X153161Y-212801D01*
X151161Y-214801D01*
X153161Y-216800D01*
X156493D02*
Y-212801D01*
X154493Y-214801D01*
X157159D01*
X146772Y-226850D02*
Y-222852D01*
X148771D01*
X149437Y-223518D01*
Y-224851D01*
X148771Y-225518D01*
X146772D01*
X150770Y-222852D02*
Y-226850D01*
Y-225518D01*
X153436Y-222852D01*
X151437Y-224851D01*
X153436Y-226850D01*
X157435Y-222852D02*
X154769D01*
Y-224851D01*
X156102Y-224185D01*
X156768D01*
X157435Y-224851D01*
Y-226184D01*
X156768Y-226850D01*
X155436D01*
X154769Y-226184D01*
X146693Y-236800D02*
Y-232801D01*
X148692D01*
X149359Y-233468D01*
Y-234801D01*
X148692Y-235467D01*
X146693D01*
X150692Y-236800D02*
Y-232801D01*
X152024Y-234134D01*
X153357Y-232801D01*
Y-236800D01*
X154690Y-233468D02*
X155357Y-232801D01*
X156690D01*
X157356Y-233468D01*
Y-236134D01*
X156690Y-236800D01*
X155357D01*
X154690Y-236134D01*
Y-233468D01*
X146811Y-246457D02*
Y-242458D01*
X148810D01*
X149477Y-243124D01*
Y-244457D01*
X148810Y-245124D01*
X146811D01*
X150810Y-246457D02*
Y-242458D01*
X152143Y-243791D01*
X153475Y-242458D01*
Y-246457D01*
X154808D02*
X156141D01*
X155475D01*
Y-242458D01*
X154808Y-243124D01*
X146496Y-256653D02*
Y-252655D01*
X148495D01*
X149162Y-253321D01*
Y-254654D01*
X148495Y-255321D01*
X146496D01*
X150495Y-256653D02*
Y-252655D01*
X151828Y-253988D01*
X153161Y-252655D01*
Y-256653D01*
X157159D02*
X154493D01*
X157159Y-253988D01*
Y-253321D01*
X156493Y-252655D01*
X155160D01*
X154493Y-253321D01*
X146417Y-266890D02*
Y-262891D01*
X148417D01*
X149083Y-263558D01*
Y-264890D01*
X148417Y-265557D01*
X146417D01*
X150416Y-262891D02*
Y-266890D01*
Y-264890D01*
X153082D01*
Y-262891D01*
Y-266890D01*
X154415Y-263558D02*
X155081Y-262891D01*
X156414D01*
X157080Y-263558D01*
Y-266223D01*
X156414Y-266890D01*
X155081D01*
X154415Y-266223D01*
Y-263558D01*
X146417Y-276850D02*
Y-272852D01*
X148417D01*
X149083Y-273518D01*
Y-274851D01*
X148417Y-275518D01*
X146417D01*
X150416Y-272852D02*
Y-276850D01*
Y-274851D01*
X153082D01*
Y-272852D01*
Y-276850D01*
X154415D02*
X155748D01*
X155081D01*
Y-272852D01*
X154415Y-273518D01*
X146142Y-286653D02*
Y-282655D01*
X148141D01*
X148808Y-283321D01*
Y-284654D01*
X148141Y-285321D01*
X146142D01*
X150140Y-282655D02*
Y-286653D01*
Y-285321D01*
X152806Y-282655D01*
X150807Y-284654D01*
X152806Y-286653D01*
X156805Y-282655D02*
X155472Y-283321D01*
X154139Y-284654D01*
Y-285987D01*
X154806Y-286653D01*
X156139D01*
X156805Y-285987D01*
Y-285321D01*
X156139Y-284654D01*
X154139D01*
X144700Y-296800D02*
Y-292802D01*
X146699D01*
X147366Y-293468D01*
Y-294801D01*
X146699Y-295467D01*
X144700D01*
X148699Y-292802D02*
Y-296800D01*
Y-295467D01*
X151364Y-292802D01*
X149365Y-294801D01*
X151364Y-296800D01*
X152697Y-292802D02*
X155363D01*
Y-293468D01*
X152697Y-296134D01*
Y-296800D01*
X181700Y-296800D02*
Y-292801D01*
X183699D01*
X184366Y-293468D01*
Y-294801D01*
X183699Y-295467D01*
X181700D01*
X185699Y-296800D02*
Y-292801D01*
X187032Y-294134D01*
X188365Y-292801D01*
Y-296800D01*
X192363Y-292801D02*
X191030Y-293468D01*
X189697Y-294801D01*
Y-296134D01*
X190364Y-296800D01*
X191697D01*
X192363Y-296134D01*
Y-295467D01*
X191697Y-294801D01*
X189697D01*
X181700Y-286800D02*
Y-282801D01*
X183699D01*
X184366Y-283468D01*
Y-284801D01*
X183699Y-285467D01*
X181700D01*
X188365Y-286134D02*
Y-283468D01*
X187698Y-282801D01*
X186365D01*
X185699Y-283468D01*
Y-286134D01*
X186365Y-286800D01*
X187698D01*
X187032Y-285467D02*
X188365Y-286800D01*
X187698D02*
X188365Y-286134D01*
X189697Y-286800D02*
X191030D01*
X190364D01*
Y-282801D01*
X189697Y-283468D01*
X181700Y-276800D02*
Y-272801D01*
X183699D01*
X184366Y-273468D01*
Y-274801D01*
X183699Y-275467D01*
X181700D01*
X185699Y-276800D02*
Y-272801D01*
X187698D01*
X188365Y-273468D01*
Y-274801D01*
X187698Y-275467D01*
X185699D01*
X189697Y-273468D02*
X190364Y-272801D01*
X191697D01*
X192363Y-273468D01*
Y-274134D01*
X191697Y-274801D01*
X191030D01*
X191697D01*
X192363Y-275467D01*
Y-276134D01*
X191697Y-276800D01*
X190364D01*
X189697Y-276134D01*
X181700Y-266800D02*
Y-262801D01*
X183699D01*
X184366Y-263468D01*
Y-264801D01*
X183699Y-265467D01*
X181700D01*
X188365Y-266134D02*
Y-263468D01*
X187698Y-262801D01*
X186365D01*
X185699Y-263468D01*
Y-266134D01*
X186365Y-266800D01*
X187698D01*
X187032Y-265467D02*
X188365Y-266800D01*
X187698D02*
X188365Y-266134D01*
X189697Y-263468D02*
X190364Y-262801D01*
X191697D01*
X192363Y-263468D01*
Y-264134D01*
X191697Y-264801D01*
X191030D01*
X191697D01*
X192363Y-265467D01*
Y-266134D01*
X191697Y-266800D01*
X190364D01*
X189697Y-266134D01*
X181700Y-256800D02*
Y-252801D01*
X183699D01*
X184366Y-253468D01*
Y-254801D01*
X183699Y-255467D01*
X181700D01*
X188365Y-256134D02*
Y-253468D01*
X187698Y-252801D01*
X186365D01*
X185699Y-253468D01*
Y-256134D01*
X186365Y-256800D01*
X187698D01*
X187032Y-255467D02*
X188365Y-256800D01*
X187698D02*
X188365Y-256134D01*
X192363Y-256800D02*
X189697D01*
X192363Y-254134D01*
Y-253468D01*
X191697Y-252801D01*
X190364D01*
X189697Y-253468D01*
X181700Y-246800D02*
Y-242801D01*
X183699D01*
X184366Y-243468D01*
Y-244801D01*
X183699Y-245467D01*
X181700D01*
X183033D02*
X184366Y-246800D01*
X188365Y-243468D02*
X187698Y-242801D01*
X186365D01*
X185699Y-243468D01*
Y-244134D01*
X186365Y-244801D01*
X187698D01*
X188365Y-245467D01*
Y-246134D01*
X187698Y-246800D01*
X186365D01*
X185699Y-246134D01*
X189697Y-242801D02*
X192363D01*
X191030D01*
Y-246800D01*
X181700Y-236800D02*
Y-232801D01*
X183699D01*
X184366Y-233468D01*
Y-234801D01*
X183699Y-235467D01*
X181700D01*
X185699Y-236800D02*
Y-234134D01*
X187032Y-232801D01*
X188365Y-234134D01*
Y-236800D01*
Y-234801D01*
X185699D01*
X189697Y-232801D02*
X192363D01*
Y-233468D01*
X189697Y-236134D01*
Y-236800D01*
X181700Y-226800D02*
Y-222801D01*
X183699D01*
X184366Y-223468D01*
Y-224801D01*
X183699Y-225467D01*
X181700D01*
X185699Y-226800D02*
Y-222801D01*
X187698D01*
X188365Y-223468D01*
Y-224801D01*
X187698Y-225467D01*
X185699D01*
X192363Y-222801D02*
X189697D01*
Y-224801D01*
X191030Y-224134D01*
X191697D01*
X192363Y-224801D01*
Y-226134D01*
X191697Y-226800D01*
X190364D01*
X189697Y-226134D01*
X181700Y-216800D02*
Y-212801D01*
X183699D01*
X184366Y-213468D01*
Y-214801D01*
X183699Y-215467D01*
X181700D01*
X185699Y-216800D02*
Y-212801D01*
X187032Y-214134D01*
X188365Y-212801D01*
Y-216800D01*
X189697Y-212801D02*
X192363D01*
Y-213468D01*
X189697Y-216134D01*
Y-216800D01*
X-25035Y-203352D02*
X-24369Y-202686D01*
X-23036D01*
X-22369Y-203352D01*
Y-204019D01*
X-23036Y-204685D01*
X-23702D01*
X-23036D01*
X-22369Y-205352D01*
Y-206018D01*
X-23036Y-206685D01*
X-24369D01*
X-25035Y-206018D01*
X-21036Y-202686D02*
Y-205352D01*
X-19703Y-206685D01*
X-18371Y-205352D01*
Y-202686D01*
X-17038Y-203352D02*
X-16371Y-202686D01*
X-15038D01*
X-14372Y-203352D01*
Y-204019D01*
X-15038Y-204685D01*
X-15705D01*
X-15038D01*
X-14372Y-205352D01*
Y-206018D01*
X-15038Y-206685D01*
X-16371D01*
X-17038Y-206018D01*
X14521Y-203237D02*
X11855D01*
Y-205237D01*
X13188Y-204570D01*
X13854D01*
X14521Y-205237D01*
Y-206569D01*
X13854Y-207236D01*
X12521D01*
X11855Y-206569D01*
X15853Y-203237D02*
Y-205903D01*
X17186Y-207236D01*
X18519Y-205903D01*
Y-203237D01*
X14481Y-214337D02*
X13815Y-213670D01*
X12482D01*
X11815Y-214337D01*
Y-217003D01*
X12482Y-217669D01*
X13815D01*
X14481Y-217003D01*
Y-215670D01*
X13148D01*
X15814Y-217669D02*
Y-213670D01*
X18480Y-217669D01*
Y-213670D01*
X19813D02*
Y-217669D01*
X21812D01*
X22479Y-217003D01*
Y-214337D01*
X21812Y-213670D01*
X19813D01*
X-25500Y-297000D02*
Y-293001D01*
X-23501D01*
X-22834Y-293668D01*
Y-295001D01*
X-23501Y-295667D01*
X-25500D01*
X-21501Y-297000D02*
Y-293001D01*
X-18835Y-297000D01*
Y-293001D01*
X-15503Y-297000D02*
Y-293001D01*
X-17502Y-295001D01*
X-14837D01*
X-25500Y-287000D02*
Y-283001D01*
X-23501D01*
X-22834Y-283668D01*
Y-285001D01*
X-23501Y-285667D01*
X-25500D01*
X-21501Y-287000D02*
Y-283001D01*
X-18835Y-287000D01*
Y-283001D01*
X-14837D02*
X-17502D01*
Y-285001D01*
X-16170Y-284334D01*
X-15503D01*
X-14837Y-285001D01*
Y-286333D01*
X-15503Y-287000D01*
X-16836D01*
X-17502Y-286333D01*
X-25500Y-277000D02*
Y-273001D01*
X-23501D01*
X-22834Y-273668D01*
Y-275001D01*
X-23501Y-275667D01*
X-25500D01*
X-21501Y-277000D02*
Y-273001D01*
X-19502D01*
X-18835Y-273668D01*
Y-275001D01*
X-19502Y-275667D01*
X-21501D01*
X-15503Y-277000D02*
Y-273001D01*
X-17502Y-275001D01*
X-14837D01*
X-25500Y-267000D02*
Y-263001D01*
X-23501D01*
X-22834Y-263668D01*
Y-265001D01*
X-23501Y-265667D01*
X-25500D01*
X-18835Y-266334D02*
Y-263668D01*
X-19502Y-263001D01*
X-20835D01*
X-21501Y-263668D01*
Y-266334D01*
X-20835Y-267000D01*
X-19502D01*
X-20168Y-265667D02*
X-18835Y-267000D01*
X-19502D02*
X-18835Y-266334D01*
X-17502Y-263668D02*
X-16836Y-263001D01*
X-15503D01*
X-14837Y-263668D01*
Y-266334D01*
X-15503Y-267000D01*
X-16836D01*
X-17502Y-266334D01*
Y-263668D01*
X-25500Y-253668D02*
X-22834Y-256333D01*
X-25500D02*
X-22834Y-253668D01*
X-25500Y-255001D02*
X-22834D01*
X-24167Y-256333D02*
Y-253668D01*
X-21501Y-253001D02*
X-18835D01*
X-20168D01*
Y-257000D01*
X-17502Y-253001D02*
X-14837Y-257000D01*
Y-253001D02*
X-17502Y-257000D01*
X-25500Y-243668D02*
X-22834Y-246334D01*
X-25500D02*
X-22834Y-243668D01*
X-25500Y-245001D02*
X-22834D01*
X-24167Y-246334D02*
Y-243668D01*
X-21501Y-247000D02*
Y-243001D01*
X-19502D01*
X-18835Y-243668D01*
Y-245001D01*
X-19502Y-245667D01*
X-21501D01*
X-20168D02*
X-18835Y-247000D01*
X-17502Y-243001D02*
X-14837Y-247000D01*
Y-243001D02*
X-17502Y-247000D01*
X-25500Y-237000D02*
Y-233001D01*
X-23501D01*
X-22834Y-233668D01*
Y-235001D01*
X-23501Y-235667D01*
X-25500D01*
X-21501Y-237000D02*
Y-233001D01*
X-19502D01*
X-18835Y-233668D01*
Y-235001D01*
X-19502Y-235667D01*
X-21501D01*
X-17502Y-237000D02*
X-16170D01*
X-16836D01*
Y-233001D01*
X-17502Y-233668D01*
X-25500Y-227000D02*
Y-223001D01*
X-23501D01*
X-22834Y-223668D01*
Y-225001D01*
X-23501Y-225667D01*
X-25500D01*
X-21501Y-227000D02*
Y-223001D01*
X-19502D01*
X-18835Y-223668D01*
Y-225001D01*
X-19502Y-225667D01*
X-21501D01*
X-17502Y-223668D02*
X-16836Y-223001D01*
X-15503D01*
X-14837Y-223668D01*
Y-226333D01*
X-15503Y-227000D01*
X-16836D01*
X-17502Y-226333D01*
Y-223668D01*
X-25500Y-217000D02*
Y-213001D01*
X-23501D01*
X-22834Y-213668D01*
Y-215001D01*
X-23501Y-215667D01*
X-25500D01*
X-21501Y-213001D02*
Y-217000D01*
X-19502D01*
X-18835Y-216334D01*
Y-213668D01*
X-19502Y-213001D01*
X-21501D01*
X-14837Y-217000D02*
X-17502D01*
X-14837Y-214334D01*
Y-213668D01*
X-15503Y-213001D01*
X-16836D01*
X-17502Y-213668D01*
X11500Y-237000D02*
Y-233001D01*
X13500D01*
X14166Y-233667D01*
Y-235000D01*
X13500Y-235667D01*
X11500D01*
X15499Y-233001D02*
Y-237000D01*
X17498D01*
X18165Y-236333D01*
Y-235667D01*
X17498Y-235000D01*
X15499D01*
X17498D01*
X18165Y-234334D01*
Y-233667D01*
X17498Y-233001D01*
X15499D01*
X22164D02*
X19498D01*
Y-235000D01*
X20831Y-234334D01*
X21497D01*
X22164Y-235000D01*
Y-236333D01*
X21497Y-237000D01*
X20164D01*
X19498Y-236333D01*
X11500Y-227000D02*
Y-223001D01*
X13500D01*
X14166Y-223667D01*
Y-225000D01*
X13500Y-225667D01*
X11500D01*
X15499Y-223001D02*
Y-227000D01*
X17498D01*
X18165Y-226333D01*
Y-225667D01*
X17498Y-225000D01*
X15499D01*
X17498D01*
X18165Y-224334D01*
Y-223667D01*
X17498Y-223001D01*
X15499D01*
X21497Y-227000D02*
Y-223001D01*
X19498Y-225000D01*
X22164D01*
X11500Y-247000D02*
Y-243001D01*
X13500D01*
X14166Y-243667D01*
Y-245000D01*
X13500Y-245667D01*
X11500D01*
X15499Y-243001D02*
Y-247000D01*
Y-245667D01*
X18165Y-243001D01*
X16165Y-245000D01*
X18165Y-247000D01*
X19498Y-243667D02*
X20164Y-243001D01*
X21497D01*
X22164Y-243667D01*
Y-246333D01*
X21497Y-247000D01*
X20164D01*
X19498Y-246333D01*
Y-243667D01*
X11500Y-257000D02*
Y-253001D01*
X13500D01*
X14166Y-253667D01*
Y-255000D01*
X13500Y-255667D01*
X11500D01*
X15499Y-253001D02*
Y-257000D01*
Y-255667D01*
X18165Y-253001D01*
X16165Y-255000D01*
X18165Y-257000D01*
X19498D02*
X20831D01*
X20164D01*
Y-253001D01*
X19498Y-253667D01*
X11500Y-267000D02*
Y-263001D01*
X13500D01*
X14166Y-263667D01*
Y-265000D01*
X13500Y-265667D01*
X11500D01*
X15499Y-263001D02*
Y-267000D01*
Y-265667D01*
X18165Y-263001D01*
X16165Y-265000D01*
X18165Y-267000D01*
X22164D02*
X19498D01*
X22164Y-264334D01*
Y-263667D01*
X21497Y-263001D01*
X20164D01*
X19498Y-263667D01*
X11500Y-277000D02*
Y-273001D01*
X13500D01*
X14166Y-273667D01*
Y-275000D01*
X13500Y-275667D01*
X11500D01*
X15499Y-273001D02*
Y-277000D01*
Y-275667D01*
X18165Y-273001D01*
X16165Y-275000D01*
X18165Y-277000D01*
X19498Y-273667D02*
X20164Y-273001D01*
X21497D01*
X22164Y-273667D01*
Y-274334D01*
X21497Y-275000D01*
X20831D01*
X21497D01*
X22164Y-275667D01*
Y-276333D01*
X21497Y-277000D01*
X20164D01*
X19498Y-276333D01*
X11500Y-287000D02*
Y-283001D01*
X13500D01*
X14166Y-283667D01*
Y-285000D01*
X13500Y-285667D01*
X11500D01*
X15499Y-287000D02*
Y-284334D01*
X16832Y-283001D01*
X18165Y-284334D01*
Y-287000D01*
Y-285000D01*
X15499D01*
X21497Y-287000D02*
Y-283001D01*
X19498Y-285000D01*
X22164D01*
X11500Y-299000D02*
Y-295001D01*
X13500D01*
X14166Y-295667D01*
Y-297000D01*
X13500Y-297667D01*
X11500D01*
X15499Y-299000D02*
Y-296334D01*
X16832Y-295001D01*
X18165Y-296334D01*
Y-299000D01*
Y-297000D01*
X15499D01*
X22164Y-295001D02*
X19498D01*
Y-297000D01*
X20831Y-296334D01*
X21497D01*
X22164Y-297000D01*
Y-298333D01*
X21497Y-299000D01*
X20164D01*
X19498Y-298333D01*
X184363Y46254D02*
X183696Y46920D01*
X182364D01*
X181697Y46254D01*
Y43588D01*
X182364Y42922D01*
X183696D01*
X184363Y43588D01*
Y44921D01*
X183030D01*
X185696Y42922D02*
Y46920D01*
X188362Y42922D01*
Y46920D01*
X189695D02*
Y42922D01*
X191694D01*
X192360Y43588D01*
Y46254D01*
X191694Y46920D01*
X189695D01*
X144500Y-47000D02*
Y-43001D01*
X146500D01*
X147166Y-43668D01*
Y-45000D01*
X146500Y-45667D01*
X144500D01*
X148499Y-43001D02*
Y-47000D01*
X151165D01*
X152498Y-43668D02*
X153164Y-43001D01*
X154497D01*
X155163Y-43668D01*
Y-44334D01*
X154497Y-45000D01*
X153831D01*
X154497D01*
X155163Y-45667D01*
Y-46333D01*
X154497Y-47000D01*
X153164D01*
X152498Y-46333D01*
X144500Y-37000D02*
Y-33001D01*
X146500D01*
X147166Y-33668D01*
Y-35001D01*
X146500Y-35667D01*
X144500D01*
X148499Y-33001D02*
Y-37000D01*
X151165D01*
X155163D02*
X152498D01*
X155163Y-34334D01*
Y-33668D01*
X154497Y-33001D01*
X153164D01*
X152498Y-33668D01*
X144500Y-27000D02*
Y-23001D01*
X146500D01*
X147166Y-23668D01*
Y-25001D01*
X146500Y-25667D01*
X144500D01*
X148499Y-23001D02*
Y-27000D01*
X151165D01*
X152498D02*
X153831D01*
X153164D01*
Y-23001D01*
X152498Y-23668D01*
X144500Y-17000D02*
Y-13001D01*
X146500D01*
X147166Y-13668D01*
Y-15001D01*
X146500Y-15667D01*
X144500D01*
X148499Y-13001D02*
Y-17000D01*
X151165D01*
X152498Y-13668D02*
X153164Y-13001D01*
X154497D01*
X155163Y-13668D01*
Y-16333D01*
X154497Y-17000D01*
X153164D01*
X152498Y-16333D01*
Y-13668D01*
X144500Y-7000D02*
Y-3001D01*
X146500D01*
X147166Y-3668D01*
Y-5001D01*
X146500Y-5667D01*
X144500D01*
X148499Y-3001D02*
Y-7000D01*
X151165D01*
X155163Y-3001D02*
X152498D01*
Y-5001D01*
X153831Y-4334D01*
X154497D01*
X155163Y-5001D01*
Y-6333D01*
X154497Y-7000D01*
X153164D01*
X152498Y-6333D01*
X144500Y3000D02*
Y6999D01*
X146500D01*
X147166Y6332D01*
Y5000D01*
X146500Y4333D01*
X144500D01*
X148499Y6999D02*
Y3000D01*
X151165D01*
X154497D02*
Y6999D01*
X152498Y5000D01*
X155163D01*
X144500Y13000D02*
Y16999D01*
X146500D01*
X147166Y16332D01*
Y14999D01*
X146500Y14333D01*
X144500D01*
X151165Y16332D02*
X150498Y16999D01*
X149165D01*
X148499Y16332D01*
Y13667D01*
X149165Y13000D01*
X150498D01*
X151165Y13667D01*
Y14999D01*
X149832D01*
X152498Y16332D02*
X153164Y16999D01*
X154497D01*
X155163Y16332D01*
Y13667D01*
X154497Y13000D01*
X153164D01*
X152498Y13667D01*
Y16332D01*
X144500Y23000D02*
Y26999D01*
X146500D01*
X147166Y26332D01*
Y24999D01*
X146500Y24333D01*
X144500D01*
X151165Y26999D02*
X148499D01*
Y24999D01*
X149832D01*
X148499D01*
Y23000D01*
X152498Y26332D02*
X153164Y26999D01*
X154497D01*
X155163Y26332D01*
Y25666D01*
X154497Y24999D01*
X153831D01*
X154497D01*
X155163Y24333D01*
Y23667D01*
X154497Y23000D01*
X153164D01*
X152498Y23667D01*
X144500Y33000D02*
Y36999D01*
X146500D01*
X147166Y36332D01*
Y34999D01*
X146500Y34333D01*
X144500D01*
X151165Y36999D02*
X148499D01*
Y34999D01*
X149832D01*
X148499D01*
Y33000D01*
X155163D02*
X152498D01*
X155163Y35666D01*
Y36332D01*
X154497Y36999D01*
X153164D01*
X152498Y36332D01*
X144500Y43000D02*
Y46999D01*
X146500D01*
X147166Y46332D01*
Y45000D01*
X146500Y44333D01*
X144500D01*
X151165Y46999D02*
X148499D01*
Y45000D01*
X149832D01*
X148499D01*
Y43000D01*
X152498D02*
X153831D01*
X153164D01*
Y46999D01*
X152498Y46332D01*
X181500Y-47000D02*
Y-43001D01*
X183500D01*
X184166Y-43667D01*
Y-45000D01*
X183500Y-45667D01*
X181500D01*
X185499Y-47000D02*
Y-43001D01*
X187498D01*
X188165Y-43667D01*
Y-45000D01*
X187498Y-45667D01*
X185499D01*
X192164Y-47000D02*
X189498D01*
X192164Y-44334D01*
Y-43667D01*
X191497Y-43001D01*
X190164D01*
X189498Y-43667D01*
X181500Y-37000D02*
Y-33001D01*
X183500D01*
X184166Y-33667D01*
Y-35000D01*
X183500Y-35667D01*
X181500D01*
X185499Y-37000D02*
Y-33001D01*
X188165Y-37000D01*
Y-33001D01*
X189498Y-33667D02*
X190164Y-33001D01*
X191497D01*
X192164Y-33667D01*
Y-34334D01*
X191497Y-35000D01*
X190831D01*
X191497D01*
X192164Y-35667D01*
Y-36333D01*
X191497Y-37000D01*
X190164D01*
X189498Y-36333D01*
X181500Y-27000D02*
Y-23001D01*
X183500D01*
X184166Y-23667D01*
Y-25000D01*
X183500Y-25667D01*
X181500D01*
X185499Y-27000D02*
Y-23001D01*
X188165Y-27000D01*
Y-23001D01*
X192164Y-27000D02*
X189498D01*
X192164Y-24334D01*
Y-23667D01*
X191497Y-23001D01*
X190164D01*
X189498Y-23667D01*
X181500Y-17000D02*
Y-13001D01*
X183500D01*
X184166Y-13667D01*
Y-15000D01*
X183500Y-15667D01*
X181500D01*
X185499Y-13001D02*
Y-17000D01*
X187498D01*
X188165Y-16333D01*
Y-13667D01*
X187498Y-13001D01*
X185499D01*
X189498Y-13667D02*
X190164Y-13001D01*
X191497D01*
X192164Y-13667D01*
Y-16333D01*
X191497Y-17000D01*
X190164D01*
X189498Y-16333D01*
Y-13667D01*
X181500Y-7000D02*
Y-3001D01*
X183500D01*
X184166Y-3667D01*
Y-5000D01*
X183500Y-5667D01*
X181500D01*
X185499Y-3001D02*
Y-7000D01*
X187498D01*
X188165Y-6333D01*
Y-3667D01*
X187498Y-3001D01*
X185499D01*
X189498Y-7000D02*
X190831D01*
X190164D01*
Y-3001D01*
X189498Y-3667D01*
X181500Y3000D02*
Y6999D01*
X183500D01*
X184166Y6333D01*
Y5000D01*
X183500Y4333D01*
X181500D01*
X182833D02*
X184166Y3000D01*
X188165Y6333D02*
X187498Y6999D01*
X186165D01*
X185499Y6333D01*
Y5666D01*
X186165Y5000D01*
X187498D01*
X188165Y4333D01*
Y3667D01*
X187498Y3000D01*
X186165D01*
X185499Y3667D01*
X189498Y6999D02*
X192164D01*
X190831D01*
Y3000D01*
X181500Y13000D02*
Y16999D01*
X183500D01*
X184166Y16333D01*
Y15000D01*
X183500Y14333D01*
X181500D01*
X185499Y16999D02*
Y13000D01*
Y15000D01*
X188165D01*
Y16999D01*
Y13000D01*
X189498Y16333D02*
X190164Y16999D01*
X191497D01*
X192164Y16333D01*
Y15666D01*
X191497Y15000D01*
X190831D01*
X191497D01*
X192164Y14333D01*
Y13667D01*
X191497Y13000D01*
X190164D01*
X189498Y13667D01*
X181500Y23000D02*
Y26999D01*
X183500D01*
X184166Y26333D01*
Y25000D01*
X183500Y24333D01*
X181500D01*
X185499Y26999D02*
Y23000D01*
Y25000D01*
X188165D01*
Y26999D01*
Y23000D01*
X192164D02*
X189498D01*
X192164Y25666D01*
Y26333D01*
X191497Y26999D01*
X190164D01*
X189498Y26333D01*
X181500Y33000D02*
Y36999D01*
X183500D01*
X184166Y36333D01*
Y35000D01*
X183500Y34333D01*
X181500D01*
X185499Y33000D02*
Y36999D01*
X186832Y35666D01*
X188165Y36999D01*
Y33000D01*
X189498Y36333D02*
X190164Y36999D01*
X191497D01*
X192164Y36333D01*
Y35666D01*
X191497Y35000D01*
X190831D01*
X191497D01*
X192164Y34333D01*
Y33667D01*
X191497Y33000D01*
X190164D01*
X189498Y33667D01*
X15646Y35899D02*
X14979Y36565D01*
X13647D01*
X12980Y35899D01*
Y33233D01*
X13647Y32567D01*
X14979D01*
X15646Y33233D01*
Y34566D01*
X14313D01*
X16979Y32567D02*
Y36565D01*
X19645Y32567D01*
Y36565D01*
X20978D02*
Y32567D01*
X22977D01*
X23643Y33233D01*
Y35899D01*
X22977Y36565D01*
X20978D01*
X15567Y46683D02*
X12901D01*
Y44684D01*
X14234Y45351D01*
X14901D01*
X15567Y44684D01*
Y43351D01*
X14901Y42685D01*
X13568D01*
X12901Y43351D01*
X16900Y46683D02*
Y44018D01*
X18233Y42685D01*
X19566Y44018D01*
Y46683D01*
X-23713Y46017D02*
X-23046Y46683D01*
X-21713D01*
X-21047Y46017D01*
Y45351D01*
X-21713Y44684D01*
X-22380D01*
X-21713D01*
X-21047Y44018D01*
Y43351D01*
X-21713Y42685D01*
X-23046D01*
X-23713Y43351D01*
X-19714Y46683D02*
Y44018D01*
X-18381Y42685D01*
X-17048Y44018D01*
Y46683D01*
X-15715Y46017D02*
X-15049Y46683D01*
X-13716D01*
X-13049Y46017D01*
Y45351D01*
X-13716Y44684D01*
X-14382D01*
X-13716D01*
X-13049Y44018D01*
Y43351D01*
X-13716Y42685D01*
X-15049D01*
X-15715Y43351D01*
X-23516Y32803D02*
Y36802D01*
X-21517D01*
X-20850Y36135D01*
Y34802D01*
X-21517Y34136D01*
X-23516D01*
X-16851Y36802D02*
X-19517D01*
Y32803D01*
X-16851D01*
X-19517Y34802D02*
X-18184D01*
X-13519Y32803D02*
Y36802D01*
X-15518Y34802D01*
X-12853D01*
X-23516Y22803D02*
Y26802D01*
X-21517D01*
X-20850Y26135D01*
Y24802D01*
X-21517Y24136D01*
X-23516D01*
X-16851Y26135D02*
X-17518Y26802D01*
X-18851D01*
X-19517Y26135D01*
Y23469D01*
X-18851Y22803D01*
X-17518D01*
X-16851Y23469D01*
X-13519Y22803D02*
Y26802D01*
X-15518Y24802D01*
X-12853D01*
X-23516Y12803D02*
Y16802D01*
X-21517D01*
X-20850Y16135D01*
Y14802D01*
X-21517Y14136D01*
X-23516D01*
X-16851Y16135D02*
X-17518Y16802D01*
X-18851D01*
X-19517Y16135D01*
Y13469D01*
X-18851Y12803D01*
X-17518D01*
X-16851Y13469D01*
X-12853Y16802D02*
X-15518D01*
Y14802D01*
X-14186Y15469D01*
X-13519D01*
X-12853Y14802D01*
Y13469D01*
X-13519Y12803D01*
X-14852D01*
X-15518Y13469D01*
X-23516Y2803D02*
Y6802D01*
X-21517D01*
X-20850Y6135D01*
Y4802D01*
X-21517Y4136D01*
X-23516D01*
X-16851Y6135D02*
X-17518Y6802D01*
X-18851D01*
X-19517Y6135D01*
Y3469D01*
X-18851Y2803D01*
X-17518D01*
X-16851Y3469D01*
X-12853Y6802D02*
X-14186Y6135D01*
X-15518Y4802D01*
Y3469D01*
X-14852Y2803D01*
X-13519D01*
X-12853Y3469D01*
Y4136D01*
X-13519Y4802D01*
X-15518D01*
X-23516Y-7197D02*
Y-3198D01*
X-21517D01*
X-20850Y-3865D01*
Y-5198D01*
X-21517Y-5864D01*
X-23516D01*
X-16851Y-3198D02*
X-19517D01*
Y-7197D01*
X-16851D01*
X-19517Y-5198D02*
X-18184D01*
X-12853Y-3198D02*
X-15518D01*
Y-5198D01*
X-14186Y-4531D01*
X-13519D01*
X-12853Y-5198D01*
Y-6531D01*
X-13519Y-7197D01*
X-14852D01*
X-15518Y-6531D01*
X-23516Y-17197D02*
Y-13198D01*
X-21517D01*
X-20850Y-13865D01*
Y-15198D01*
X-21517Y-15864D01*
X-23516D01*
X-19517Y-13198D02*
Y-17197D01*
X-17518D01*
X-16851Y-16531D01*
Y-13865D01*
X-17518Y-13198D01*
X-19517D01*
X-15518Y-13865D02*
X-14852Y-13198D01*
X-13519D01*
X-12853Y-13865D01*
Y-14531D01*
X-13519Y-15198D01*
X-14186D01*
X-13519D01*
X-12853Y-15864D01*
Y-16531D01*
X-13519Y-17197D01*
X-14852D01*
X-15518Y-16531D01*
X-23516Y-27197D02*
Y-23198D01*
X-21517D01*
X-20850Y-23865D01*
Y-25198D01*
X-21517Y-25864D01*
X-23516D01*
X-16851Y-23865D02*
X-17518Y-23198D01*
X-18851D01*
X-19517Y-23865D01*
Y-26531D01*
X-18851Y-27197D01*
X-17518D01*
X-16851Y-26531D01*
X-15518Y-23198D02*
X-12853D01*
Y-23865D01*
X-15518Y-26531D01*
Y-27197D01*
X-23516Y-37197D02*
Y-33198D01*
X-21517D01*
X-20850Y-33865D01*
Y-35198D01*
X-21517Y-35864D01*
X-23516D01*
X-19517Y-33198D02*
Y-37197D01*
X-17518D01*
X-16851Y-36531D01*
Y-35864D01*
X-17518Y-35198D01*
X-19517D01*
X-17518D01*
X-16851Y-34531D01*
Y-33865D01*
X-17518Y-33198D01*
X-19517D01*
X-12853Y-37197D02*
X-15518D01*
X-12853Y-34531D01*
Y-33865D01*
X-13519Y-33198D01*
X-14852D01*
X-15518Y-33865D01*
X-23516Y-47197D02*
Y-43198D01*
X-21517D01*
X-20850Y-43865D01*
Y-45198D01*
X-21517Y-45864D01*
X-23516D01*
X-19517Y-43198D02*
Y-47197D01*
X-17518D01*
X-16851Y-46531D01*
Y-45864D01*
X-17518Y-45198D01*
X-19517D01*
X-17518D01*
X-16851Y-44531D01*
Y-43865D01*
X-17518Y-43198D01*
X-19517D01*
X-15518Y-43865D02*
X-14852Y-43198D01*
X-13519D01*
X-12853Y-43865D01*
Y-44531D01*
X-13519Y-45198D01*
X-14186D01*
X-13519D01*
X-12853Y-45864D01*
Y-46531D01*
X-13519Y-47197D01*
X-14852D01*
X-15518Y-46531D01*
X13484Y-47197D02*
Y-43198D01*
X15484D01*
X16150Y-43865D01*
Y-45197D01*
X15484Y-45864D01*
X13484D01*
X17483Y-47197D02*
Y-43198D01*
X18816Y-44531D01*
X20149Y-43198D01*
Y-47197D01*
X24148Y-43198D02*
X21482D01*
Y-45197D01*
X22815Y-44531D01*
X23481D01*
X24148Y-45197D01*
Y-46530D01*
X23481Y-47197D01*
X22148D01*
X21482Y-46530D01*
X13484Y-37197D02*
Y-33198D01*
X15484D01*
X16150Y-33865D01*
Y-35197D01*
X15484Y-35864D01*
X13484D01*
X17483Y-37197D02*
Y-33198D01*
X18816Y-34531D01*
X20149Y-33198D01*
Y-37197D01*
X23481D02*
Y-33198D01*
X21482Y-35197D01*
X24148D01*
X13484Y-27197D02*
Y-23198D01*
X15484D01*
X16150Y-23865D01*
Y-25197D01*
X15484Y-25864D01*
X13484D01*
X17483Y-23198D02*
Y-27197D01*
X19482D01*
X20149Y-26530D01*
Y-23865D01*
X19482Y-23198D01*
X17483D01*
X24148D02*
X22815Y-23865D01*
X21482Y-25197D01*
Y-26530D01*
X22148Y-27197D01*
X23481D01*
X24148Y-26530D01*
Y-25864D01*
X23481Y-25197D01*
X21482D01*
X13484Y-17197D02*
Y-13198D01*
X15484D01*
X16150Y-13865D01*
Y-15198D01*
X15484Y-15864D01*
X13484D01*
X17483Y-13198D02*
Y-17197D01*
X19482D01*
X20149Y-16530D01*
Y-13865D01*
X19482Y-13198D01*
X17483D01*
X21482D02*
X24148D01*
Y-13865D01*
X21482Y-16530D01*
Y-17197D01*
X13484Y-7197D02*
Y-3198D01*
X15484D01*
X16150Y-3865D01*
Y-5198D01*
X15484Y-5864D01*
X13484D01*
X20149Y-3198D02*
X17483D01*
Y-7197D01*
X20149D01*
X17483Y-5198D02*
X18816D01*
X21482Y-3865D02*
X22148Y-3198D01*
X23481D01*
X24148Y-3865D01*
Y-4531D01*
X23481Y-5198D01*
X22815D01*
X23481D01*
X24148Y-5864D01*
Y-6530D01*
X23481Y-7197D01*
X22148D01*
X21482Y-6530D01*
X13484Y2803D02*
Y6802D01*
X15484D01*
X16150Y6135D01*
Y4803D01*
X15484Y4136D01*
X13484D01*
X20149Y6802D02*
X17483D01*
Y2803D01*
X20149D01*
X17483Y4803D02*
X18816D01*
X24148Y2803D02*
X21482D01*
X24148Y5469D01*
Y6135D01*
X23481Y6802D01*
X22148D01*
X21482Y6135D01*
X13484Y12803D02*
Y16802D01*
X15484D01*
X16150Y16135D01*
Y14803D01*
X15484Y14136D01*
X13484D01*
X20149Y16802D02*
X17483D01*
Y12803D01*
X20149D01*
X17483Y14803D02*
X18816D01*
X21482Y12803D02*
X22815D01*
X22148D01*
Y16802D01*
X21482Y16135D01*
X13484Y22803D02*
Y26802D01*
X15484D01*
X16150Y26135D01*
Y24803D01*
X15484Y24136D01*
X13484D01*
X20149Y26802D02*
X17483D01*
Y22803D01*
X20149D01*
X17483Y24803D02*
X18816D01*
X21482Y26135D02*
X22148Y26802D01*
X23481D01*
X24148Y26135D01*
Y23470D01*
X23481Y22803D01*
X22148D01*
X21482Y23470D01*
Y26135D01*
M02*
