G04*
G04 #@! TF.GenerationSoftware,Altium Limited,Altium Designer,18.1.9 (240)*
G04*
G04 Layer_Color=8388736*
%FSLAX25Y25*%
%MOIN*%
G70*
G01*
G75*
%ADD16R,0.06299X0.05906*%
%ADD17R,0.10249X0.13792*%
%ADD18R,0.04737X0.04343*%
%ADD19R,0.03800X0.04000*%
%ADD20R,0.05131X0.03950*%
%ADD21R,0.05906X0.06299*%
%ADD22R,0.03359X0.07690*%
%ADD23R,0.14147X0.12611*%
%ADD24R,0.05000X0.07900*%
%ADD25R,0.07900X0.05000*%
%ADD26R,0.11500X0.10200*%
%ADD27R,0.10200X0.11500*%
%ADD28R,0.04343X0.03950*%
%ADD29R,0.06700X0.04700*%
%ADD30R,0.04737X0.08674*%
%ADD31R,0.07887X0.07887*%
%ADD32C,0.07887*%
%ADD33C,0.07493*%
%ADD34R,0.07887X0.07887*%
%ADD35C,0.12611*%
%ADD36C,0.08280*%
%ADD37C,0.06800*%
G04:AMPARAMS|DCode=38|XSize=69.02mil|YSize=69.02mil|CornerRadius=5.83mil|HoleSize=0mil|Usage=FLASHONLY|Rotation=270.000|XOffset=0mil|YOffset=0mil|HoleType=Round|Shape=RoundedRectangle|*
%AMROUNDEDRECTD38*
21,1,0.06902,0.05736,0,0,270.0*
21,1,0.05736,0.06902,0,0,270.0*
1,1,0.01166,-0.02868,-0.02868*
1,1,0.01166,-0.02868,0.02868*
1,1,0.01166,0.02868,0.02868*
1,1,0.01166,0.02868,-0.02868*
%
%ADD38ROUNDEDRECTD38*%
%ADD39C,0.06902*%
%ADD40C,0.09461*%
%ADD41R,0.09461X0.09461*%
%ADD42C,0.11627*%
%ADD43C,0.05800*%
D16*
X358301Y474281D02*
D03*
X358300Y487273D02*
D03*
X255995Y78961D02*
D03*
X255994Y91953D02*
D03*
X285626Y332502D02*
D03*
X285627Y319510D02*
D03*
X108378Y623571D02*
D03*
X108379Y610579D02*
D03*
D17*
X284132Y359848D02*
D03*
X311494D02*
D03*
D18*
X324527Y373808D02*
D03*
X319015D02*
D03*
X290776Y306828D02*
D03*
X296288D02*
D03*
D19*
X201559Y49216D02*
D03*
Y42318D02*
D03*
X280702Y78372D02*
D03*
Y71474D02*
D03*
X291420Y79642D02*
D03*
Y72744D02*
D03*
X151717Y77349D02*
D03*
Y70451D02*
D03*
D20*
X197849Y82611D02*
D03*
X206511Y86154D02*
D03*
Y79068D02*
D03*
D21*
X291139Y94349D02*
D03*
X278147Y94348D02*
D03*
Y104637D02*
D03*
X291139Y104638D02*
D03*
X312101Y332688D02*
D03*
X325093Y332689D02*
D03*
X121223Y587448D02*
D03*
X108231Y587447D02*
D03*
D22*
X280301Y294715D02*
D03*
X285301D02*
D03*
X290301D02*
D03*
X295301D02*
D03*
Y272667D02*
D03*
X290301D02*
D03*
X285301D02*
D03*
X280301D02*
D03*
D23*
X331295Y301847D02*
D03*
Y270745D02*
D03*
D24*
X342705Y682283D02*
D03*
X331705D02*
D03*
D25*
X141390Y529110D02*
D03*
Y540110D02*
D03*
X105630Y528950D02*
D03*
Y517950D02*
D03*
D26*
X174637Y687420D02*
D03*
X201637D02*
D03*
X201637Y666110D02*
D03*
X174637D02*
D03*
X54490Y687020D02*
D03*
X27490D02*
D03*
X41770Y500320D02*
D03*
X14770D02*
D03*
X88350Y500650D02*
D03*
X61350D02*
D03*
X27220Y665390D02*
D03*
X54220D02*
D03*
D27*
X169840Y533900D02*
D03*
Y506900D02*
D03*
X218430Y507030D02*
D03*
Y534030D02*
D03*
D28*
X226093Y134505D02*
D03*
Y127025D02*
D03*
X233967Y130765D02*
D03*
D29*
X302001Y83461D02*
D03*
Y71361D02*
D03*
D30*
X126040Y686930D02*
D03*
Y654647D02*
D03*
X116040Y686930D02*
D03*
Y654647D02*
D03*
D31*
X151824Y52408D02*
D03*
X230572Y52716D02*
D03*
X266951Y52766D02*
D03*
X302746Y52767D02*
D03*
X357283Y647717D02*
D03*
D32*
X141982Y52408D02*
D03*
X132139D02*
D03*
X151824Y42566D02*
D03*
X141982D02*
D03*
X132139D02*
D03*
X230572Y42874D02*
D03*
X220729D02*
D03*
Y52716D02*
D03*
X43700Y113722D02*
D03*
Y123565D02*
D03*
X53542D02*
D03*
X357743Y155896D02*
D03*
X347901Y126369D02*
D03*
Y116526D02*
D03*
Y146054D02*
D03*
Y136211D02*
D03*
X357743Y126369D02*
D03*
Y116526D02*
D03*
Y136211D02*
D03*
Y146054D02*
D03*
X54213Y186457D02*
D03*
Y196299D02*
D03*
X44370Y186457D02*
D03*
Y196299D02*
D03*
Y215984D02*
D03*
Y206142D02*
D03*
X54213Y215984D02*
D03*
Y206142D02*
D03*
X44370Y176614D02*
D03*
X347572Y210134D02*
D03*
Y200292D02*
D03*
Y190449D02*
D03*
Y229819D02*
D03*
Y219977D02*
D03*
X357414D02*
D03*
Y210134D02*
D03*
Y200292D02*
D03*
Y190449D02*
D03*
Y229819D02*
D03*
Y239662D02*
D03*
X247266Y42924D02*
D03*
X257109D02*
D03*
X266951D02*
D03*
X247266Y52766D02*
D03*
X257109D02*
D03*
X283061Y42925D02*
D03*
X292903D02*
D03*
X302746D02*
D03*
X283061Y52767D02*
D03*
X292903D02*
D03*
X367126Y647717D02*
D03*
Y657559D02*
D03*
X357283D02*
D03*
X357173Y293005D02*
D03*
Y283162D02*
D03*
D33*
X151824Y14298D02*
D03*
X132139D02*
D03*
X230572Y14606D02*
D03*
X220729D02*
D03*
X15432Y113722D02*
D03*
Y123565D02*
D03*
X386011Y155896D02*
D03*
Y116526D02*
D03*
X16102Y215984D02*
D03*
Y176614D02*
D03*
X229394Y638689D02*
D03*
X179394D02*
D03*
X149394Y558689D02*
D03*
X229394D02*
D03*
X189394D02*
D03*
X199394Y638689D02*
D03*
X385682Y239662D02*
D03*
Y190449D02*
D03*
X247266Y14656D02*
D03*
X266951D02*
D03*
X283061Y14657D02*
D03*
X302746D02*
D03*
X367126Y685827D02*
D03*
X357283D02*
D03*
X385441Y293005D02*
D03*
Y283162D02*
D03*
D34*
X53542Y113722D02*
D03*
X347901Y155896D02*
D03*
X54213Y176614D02*
D03*
X347572Y239662D02*
D03*
D35*
X177857Y167779D02*
D03*
Y183527D02*
D03*
X229432Y187464D02*
D03*
Y163842D02*
D03*
X229168Y240663D02*
D03*
Y224915D02*
D03*
X177593Y220978D02*
D03*
Y244600D02*
D03*
X312008Y659204D02*
D03*
Y682826D02*
D03*
X260433Y678889D02*
D03*
Y663141D02*
D03*
X41541Y40435D02*
D03*
Y16813D02*
D03*
X93115Y20750D02*
D03*
Y36498D02*
D03*
D36*
X187700Y155968D02*
D03*
Y195338D02*
D03*
X219325Y252474D02*
D03*
Y213104D02*
D03*
X270276Y690700D02*
D03*
Y651330D02*
D03*
X83273Y8939D02*
D03*
Y48309D02*
D03*
D37*
X31709Y379816D02*
D03*
X39583D02*
D03*
X47457D02*
D03*
X55331D02*
D03*
X63205D02*
D03*
X71079D02*
D03*
X78953D02*
D03*
X86827D02*
D03*
X94701D02*
D03*
X102575D02*
D03*
Y293202D02*
D03*
X94701D02*
D03*
X86827D02*
D03*
X78953D02*
D03*
X71079D02*
D03*
X63205D02*
D03*
X55331D02*
D03*
X47457D02*
D03*
X39583D02*
D03*
X31709D02*
D03*
X388189Y11811D02*
D03*
X11811D02*
D03*
X11811Y688189D02*
D03*
X388189D02*
D03*
D38*
X108500Y485787D02*
D03*
X278500D02*
D03*
X108500Y235787D02*
D03*
X278500D02*
D03*
D39*
X108500Y475787D02*
D03*
Y465787D02*
D03*
Y455787D02*
D03*
Y445787D02*
D03*
Y435787D02*
D03*
Y425787D02*
D03*
Y415787D02*
D03*
Y405787D02*
D03*
Y395787D02*
D03*
X118500Y485787D02*
D03*
Y475787D02*
D03*
Y465787D02*
D03*
Y455787D02*
D03*
Y445787D02*
D03*
Y435787D02*
D03*
Y425787D02*
D03*
Y415787D02*
D03*
Y405787D02*
D03*
Y395787D02*
D03*
X288500D02*
D03*
Y405787D02*
D03*
Y415787D02*
D03*
Y425787D02*
D03*
Y435787D02*
D03*
Y445787D02*
D03*
Y455787D02*
D03*
Y465787D02*
D03*
Y475787D02*
D03*
Y485787D02*
D03*
X278500Y395787D02*
D03*
Y405787D02*
D03*
Y415787D02*
D03*
Y425787D02*
D03*
Y435787D02*
D03*
Y445787D02*
D03*
Y455787D02*
D03*
Y465787D02*
D03*
Y475787D02*
D03*
X108500Y225787D02*
D03*
Y215787D02*
D03*
Y205787D02*
D03*
Y195787D02*
D03*
Y185787D02*
D03*
Y175787D02*
D03*
Y165787D02*
D03*
Y155787D02*
D03*
Y145787D02*
D03*
X118500Y235787D02*
D03*
Y225787D02*
D03*
Y215787D02*
D03*
Y205787D02*
D03*
Y195787D02*
D03*
Y185787D02*
D03*
Y175787D02*
D03*
Y165787D02*
D03*
Y155787D02*
D03*
Y145787D02*
D03*
X288500D02*
D03*
Y155787D02*
D03*
Y165787D02*
D03*
Y175787D02*
D03*
Y185787D02*
D03*
Y195787D02*
D03*
Y205787D02*
D03*
Y215787D02*
D03*
Y225787D02*
D03*
Y235787D02*
D03*
X278500Y145787D02*
D03*
Y155787D02*
D03*
Y165787D02*
D03*
Y175787D02*
D03*
Y185787D02*
D03*
Y195787D02*
D03*
Y205787D02*
D03*
Y215787D02*
D03*
Y225787D02*
D03*
D40*
X49606Y642062D02*
D03*
X19685D02*
D03*
X49606Y532220D02*
D03*
X64567D02*
D03*
D41*
X79528Y642062D02*
D03*
D42*
Y532220D02*
D03*
X19685D02*
D03*
D43*
X358276Y455978D02*
D03*
X358401Y513857D02*
D03*
X14110Y673414D02*
D03*
X163915Y89546D02*
D03*
X141982Y18392D02*
D03*
X183266Y119326D02*
D03*
X188397Y90597D02*
D03*
X258865Y196650D02*
D03*
X248336Y232168D02*
D03*
X266546Y294575D02*
D03*
X82852Y336656D02*
D03*
X104026Y307173D02*
D03*
X89847Y307027D02*
D03*
X53337Y465634D02*
D03*
X78428Y475491D02*
D03*
X62537Y433754D02*
D03*
X138080Y511200D02*
D03*
X192770Y502230D02*
D03*
X107944Y573454D02*
D03*
X162160Y677650D02*
D03*
X141690Y687210D02*
D03*
X50876Y489813D02*
D03*
X51030Y510680D02*
D03*
M02*
