G04*
G04 #@! TF.GenerationSoftware,Altium Limited,Altium Designer,18.1.9 (240)*
G04*
G04 Layer_Color=8388736*
%FSLAX25Y25*%
%MOIN*%
G70*
G01*
G75*
%ADD97C,0.00394*%
%ADD98C,0.00700*%
D97*
X-9749Y-300999D02*
X9751D01*
X-9749D02*
Y-198999D01*
X9751Y-300999D02*
Y-198999D01*
X179751Y-300999D02*
Y-198999D01*
X160250Y-300999D02*
Y-198999D01*
Y-300999D02*
X179751D01*
Y-50999D02*
Y51001D01*
X160250Y-50999D02*
Y51001D01*
Y-50999D02*
X179751D01*
X-9749D02*
X9751D01*
X-9749D02*
Y51001D01*
X9751Y-50999D02*
Y51001D01*
D98*
X-1998Y-246665D02*
Y-245332D01*
Y-245998D01*
X1334D01*
X2001Y-245332D01*
Y-244666D01*
X1334Y-243999D01*
X-1332Y-250664D02*
X-1998Y-249997D01*
Y-248664D01*
X-1332Y-247998D01*
X1334D01*
X2001Y-248664D01*
Y-249997D01*
X1334Y-250664D01*
X168002Y-246665D02*
Y-245332D01*
Y-245998D01*
X171334D01*
X172001Y-245332D01*
Y-244666D01*
X171334Y-243999D01*
X168002Y-247998D02*
X172001D01*
Y-249997D01*
X171334Y-250664D01*
X168668D01*
X168002Y-249997D01*
Y-247998D01*
Y3335D02*
Y4668D01*
Y4002D01*
X171334D01*
X172001Y4668D01*
Y5334D01*
X171334Y6001D01*
X168002Y2002D02*
X172001D01*
Y3D01*
X171334Y-664D01*
X170668D01*
X170001Y3D01*
Y2002D01*
Y3D01*
X169335Y-664D01*
X168668D01*
X168002Y3D01*
Y2002D01*
X-1998Y3335D02*
Y4668D01*
Y4002D01*
X1334D01*
X2001Y4668D01*
Y5334D01*
X1334Y6001D01*
X2001Y2002D02*
X-665D01*
X-1998Y669D01*
X-665Y-664D01*
X2001D01*
X1D01*
Y2002D01*
M02*
