M48
;Layer_Color=9474304
;FILE_FORMAT=2:5
INCH,LZ
;TYPE=PLATED
T1F00S00C0.02800
T2F00S00C0.03000
T3F00S00C0.04016
T4F00S00C0.04724
T5F00S00C0.05512
T6F00S00C0.05984
T7F00S00C0.08150
T8F00S00C0.09843
T9F00S00C0.13386
;TYPE=NON_PLATED
T10F00S00C0.06693
%
T01
X0141982Y0018392
X0163915Y0089546
X0188397Y0090597
X0183266Y0119326
X0258865Y019665
X0248336Y0232168
X0266546Y0294575
X0104026Y0307173
X0089847Y0307027
X0082852Y0336656
X0062537Y0433754
X0053337Y0465634
X0050876Y0489813
X005103Y051068
X0078428Y0475491
X013808Y05112
X019277Y050223
X0358401Y0513857
X0358276Y0455978
X0107944Y0573454
X014169Y068721
X016216Y067765
X001411Y0673414
T02
X0031709Y0293202
X0039583
X0047457
X0055331
X0063205
X0071079
X0078953
X0086827
X0094701
X0102575
Y0379816
X0094701
X0086827
X0078953
X0071079
X0063205
X0055331
X0047457
X0039583
X0031709
T03
X01085Y0145787
Y0155787
Y0165787
Y0175787
Y0185787
Y0195787
Y0205787
Y0215787
Y0225787
X01185
Y0215787
Y0205787
Y0195787
Y0185787
Y0175787
Y0165787
Y0155787
Y0145787
X02785
X02885
Y0155787
Y0165787
Y0175787
Y0185787
Y0195787
Y0205787
Y0215787
Y0225787
X02785
Y0215787
Y0205787
Y0195787
Y0185787
Y0175787
Y0165787
Y0155787
Y0235787
X02885
X01185
X01085
Y0395787
Y0405787
Y0415787
Y0425787
Y0435787
Y0445787
Y0455787
Y0465787
Y0475787
Y0485787
X01185
Y0475787
Y0465787
Y0455787
Y0445787
Y0435787
Y0425787
Y0415787
Y0405787
Y0395787
X02785
X02885
Y0405787
Y0415787
Y0425787
Y0435787
Y0445787
Y0455787
Y0465787
Y0475787
Y0485787
X02785
Y0475787
Y0465787
Y0455787
Y0445787
Y0435787
Y0425787
Y0415787
Y0405787
T04
X0220729Y0042874
Y0052716
X0230572
Y0042874
X0247266Y0042924
X0257109
X0266951
Y0052766
X0257109
X0247266
X0283061Y0052767
Y0042925
X0292903
Y0052767
X0302746
Y0042925
X0151824Y0042566
Y0052408
X0141982
Y0042566
X0132139
Y0052408
X0053542Y0113722
X00437
Y0123565
X0053542
X0054213Y0176614
Y0186457
Y0196299
X004437
Y0186457
Y0176614
Y0206142
Y0215984
X0054213
Y0206142
X0347572Y0210134
Y0219977
X0357414
Y0210134
Y0200292
X0347572
Y0190449
X0357414
X0357743Y0155896
X0347901
Y0146054
X0357743
Y0136211
X0347901
Y0126369
X0357743
Y0116526
X0347901
X0347572Y0229819
X0357414
Y0239662
X0347572
X0357173Y0283162
Y0293005
X0357283Y0647717
Y0657559
X0367126
Y0647717
X0229394Y0638689
X0199394
X0179394
X0189394Y0558689
X0229394
X0149394
T05
X0083273Y0008939
Y0048309
X01877Y0155968
Y0195338
X0219325Y0213104
Y0252474
X0270276Y065133
Y06907
T06
X0049606Y053222
X0064567
X0049606Y0642062
X0079528
X0019685
T07
X0019685Y053222
X0079528
T08
X0041541Y0016813
Y0040435
X0093115Y0036498
Y002075
X0177857Y0167779
Y0183527
X0177593Y0220978
X0229168Y0224915
X0229432Y0187464
Y0163842
X0229168Y0240663
X0177593Y02446
X0260433Y0663141
Y0678889
X0312008Y0682826
Y0659204
T09
X0388189Y0011811
X0011811
X0388189Y0688189
X0011811
T10
X0220729Y0014606
X0230572
X0247266Y0014656
X0266951
X0283061Y0014657
X0302746
X0151824Y0014298
X0132139
X0015432Y0113722
Y0123565
X0016102Y0176614
Y0215984
X0385682Y0190449
X0386011Y0155896
Y0116526
X0385682Y0239662
X0385441Y0283162
Y0293005
X0367126Y0685827
X0357283
M30
