M48
;Layer_Color=9474304
;FILE_FORMAT=2:5
INCH,LZ
;TYPE=PLATED
T1F00S00C0.02800
T2F00S00C0.03000
T3F00S00C0.04016
T4F00S00C0.04724
T5F00S00C0.05512
T6F00S00C0.05984
T7F00S00C0.08150
T8F00S00C0.09843
T9F00S00C0.13386
;TYPE=NON_PLATED
T10F00S00C0.06693
%
T01
X0105147Y0087261
X0188397Y0090594
X0183266Y0119324
X0182072Y0143067
X0256639Y019972
X0248336Y0232165
X0080417Y0196297
X0080417Y0186454
X0096707Y0306103
X0082852Y0336653
X0266546Y0294572
X0359385Y0459676
X0359451Y0463632
X0359418Y0467505
X0359417Y0506071
X0359395Y0509922
X0359362Y051392
X019277Y0502227
X013808Y0511197
X005103Y0510677
X0050876Y048981
X0053337Y0465631
X0078428Y0475488
X0062537Y0433751
X0107944Y0573451
X001411Y0673411
X014169Y0687207
X016216Y0677647
T02
X0031709Y0293199
X0039583
X0047457
X0055331
X0063205
X0071079
X0078953
X0086827
X0094701
X0102575
Y0379814
X0094701
X0086827
X0078953
X0071079
X0063205
X0055331
X0047457
X0039583
X0031709
T03
X028853Y0145784
Y0155784
Y0165784
Y0175784
Y0185784
Y0195784
Y0205784
Y0215784
Y0225784
Y0235784
X027853
Y0225784
Y0215784
Y0205784
Y0195784
Y0185784
Y0175784
Y0165784
Y0155784
Y0145784
X011853
X010853
Y0155784
Y0165784
Y0175784
Y0185784
Y0195784
Y0205784
Y0215784
Y0225784
Y0235784
X011853
Y0225784
Y0215784
Y0205784
Y0195784
Y0185784
Y0175784
Y0165784
Y0155784
Y0395784
X010853
Y0405784
Y0415784
Y0425784
X011853
Y0415784
Y0405784
X027853
Y0395784
Y0415784
Y0425784
X028853
Y0415784
Y0405784
Y0395784
Y0435784
Y0445784
Y0455784
Y0465784
Y0475784
Y0485784
X027853
Y0475784
Y0465784
Y0455784
Y0445784
Y0435784
X011853
X010853
Y0445784
Y0455784
Y0465784
Y0475784
Y0485784
X011853
Y0475784
Y0465784
Y0455784
Y0445784
T04
X0052583Y0042568
Y005241
X0062425
X0072268
Y0042568
X0062425
X0220729Y0042871
Y0052714
X0230572
Y0042871
X0247266Y0042921
X0257109
X0266951
Y0052764
X0257109
X0247266
X0287982Y0052576
X0297825
Y0042733
X0287982
X0347901Y0116523
X0357743
Y0126366
X0347901
Y0136208
X0357743
Y0146051
Y0155893
X0347901
Y0146051
X0054213Y0176612
Y0186454
Y0196297
X004437
Y0186454
Y0176612
Y0206139
Y0215982
X0054213
Y0206139
X0055569Y0248047
X0045727
Y0257889
X0055569
X0357173Y028316
Y0293002
X0357718Y0393397
X0347876
Y0403239
X0357718
Y0413082
X0347876
Y0422924
X0357718
Y0432767
X0347876
Y044261
X0357718
X022248Y0558537
X018248
X014248
X017248Y0638537
X019248
X022248
X0357283Y0647714
Y0657556
X0367126
Y0647714
T05
X0054534Y0087337
X01877Y0155965
Y0195335
X0219325Y0213101
Y0252471
X0054534Y0126707
X0260764Y0654181
Y0693551
T06
X0049606Y0532217
X0064567
X0049606Y0642059
X0079528
X0019685
T07
X0019685Y0532217
X0079528
T08
X0012801Y0095211
X0064376Y0099148
X0177857Y0167776
Y0183524
X0177593Y0220975
Y0244597
X0229168Y024066
Y0224912
X0229432Y0187461
Y0163839
X0064376Y0114896
X0012801Y0118833
X0250921Y0665992
Y068174
X0302496Y0685677
Y0662055
T09
X0011811Y0011808
X0388189
X0011811Y0688186
X0388189
T10
X0052583Y00143
X0072268
X0220729Y0014603
X0230572
X0247266Y0014653
X0266951
X0287982Y0014465
X0297825
X0386011Y0116523
Y0155893
X0016102Y0176612
Y0215982
X0017459Y0248047
Y0257889
X0385441Y028316
Y0293002
X0385986Y0393397
Y044261
X0367126Y0685824
X0357283
M30
