G04*
G04 #@! TF.GenerationSoftware,Altium Limited,Altium Designer,18.1.9 (240)*
G04*
G04 Layer_Color=32768*
%FSLAX25Y25*%
%MOIN*%
G70*
G01*
G75*
%ADD11C,0.00600*%
%ADD95C,0.00197*%
G36*
X327296Y328539D02*
X309898D01*
Y336839D01*
X327296D01*
Y328539D01*
D02*
G37*
G36*
X289777Y317307D02*
X281477D01*
Y334705D01*
X289777D01*
Y317307D01*
D02*
G37*
G36*
X104632Y325226D02*
X106782D01*
Y312990D01*
X101327D01*
Y309790D01*
X92127D01*
Y312990D01*
X86672D01*
Y325226D01*
X88822D01*
Y330826D01*
X104632D01*
Y325226D01*
D02*
G37*
G36*
X207574Y244528D02*
X210113D01*
Y220520D01*
X207574D01*
Y219920D01*
X199156D01*
Y220520D01*
X196617D01*
Y244528D01*
X199156D01*
Y245128D01*
X207574D01*
Y244528D01*
D02*
G37*
G36*
X267657Y210729D02*
X259357D01*
Y228127D01*
X267657D01*
Y210729D01*
D02*
G37*
G36*
X268367Y170391D02*
X260067D01*
Y187789D01*
X268367D01*
Y170391D01*
D02*
G37*
G36*
X208100Y190017D02*
X210639D01*
Y166009D01*
X208100D01*
Y165409D01*
X199682D01*
Y166009D01*
X197143D01*
Y190017D01*
X199682D01*
Y190617D01*
X208100D01*
Y190017D01*
D02*
G37*
G36*
X206739Y133008D02*
X189341D01*
Y141308D01*
X206739D01*
Y133008D01*
D02*
G37*
G36*
X178942Y124748D02*
X173142D01*
Y135248D01*
X178942D01*
Y124748D01*
D02*
G37*
G36*
X293342Y100488D02*
X275944D01*
Y108788D01*
X293342D01*
Y100488D01*
D02*
G37*
G36*
X204006Y98724D02*
X206956D01*
Y95124D01*
X204006D01*
Y93274D01*
X194906D01*
Y95124D01*
X191956D01*
Y98724D01*
X194906D01*
Y100574D01*
X204006D01*
Y98724D01*
D02*
G37*
G36*
X293342Y90199D02*
X275944D01*
Y98499D01*
X293342D01*
Y90199D01*
D02*
G37*
G36*
X260144Y76758D02*
X251844D01*
Y94156D01*
X260144D01*
Y76758D01*
D02*
G37*
G36*
X294321Y70942D02*
X288521D01*
Y81442D01*
X294321D01*
Y70942D01*
D02*
G37*
G36*
X283603Y69672D02*
X277803D01*
Y80172D01*
X283603D01*
Y69672D01*
D02*
G37*
G36*
X154618Y68649D02*
X148818D01*
Y79149D01*
X154618D01*
Y68649D01*
D02*
G37*
G36*
X302201Y84911D02*
X306251D01*
Y69911D01*
X302201D01*
Y68111D01*
X301801D01*
Y69911D01*
X297751D01*
Y84911D01*
X301801D01*
Y86711D01*
X302201D01*
Y84911D01*
D02*
G37*
G36*
X206906Y59217D02*
X196406D01*
Y65017D01*
X206906D01*
Y59217D01*
D02*
G37*
G36*
X204460Y40516D02*
X198660D01*
Y51016D01*
X204460D01*
Y40516D01*
D02*
G37*
G36*
X269821Y22867D02*
X259321D01*
Y28667D01*
X269821D01*
Y22867D01*
D02*
G37*
G36*
X144500Y22823D02*
X134000D01*
Y28623D01*
X144500D01*
Y22823D01*
D02*
G37*
G36*
X71681Y36179D02*
X74220D01*
Y12171D01*
X71681D01*
Y11571D01*
X63263D01*
Y12171D01*
X60724D01*
Y36179D01*
X63263D01*
Y36779D01*
X71681D01*
Y36179D01*
D02*
G37*
G36*
X56740Y693120D02*
X57340D01*
Y680920D01*
X56740D01*
Y677170D01*
X25240D01*
Y680920D01*
X24640D01*
Y693120D01*
X25240D01*
Y696870D01*
X56740D01*
Y693120D01*
D02*
G37*
G36*
X56470Y671490D02*
X57070D01*
Y659290D01*
X56470D01*
Y655540D01*
X24970D01*
Y659290D01*
X24370D01*
Y671490D01*
X24970D01*
Y675240D01*
X56470D01*
Y671490D01*
D02*
G37*
G36*
X112529Y608376D02*
X104229D01*
Y625774D01*
X112529D01*
Y608376D01*
D02*
G37*
G36*
X123426Y583298D02*
X106028D01*
Y591598D01*
X123426D01*
Y583298D01*
D02*
G37*
G36*
X43227Y541529D02*
X25829D01*
Y553371D01*
X43227D01*
Y541529D01*
D02*
G37*
G36*
X146340Y541910D02*
X145540D01*
Y527310D01*
X146340D01*
Y526310D01*
X136440D01*
Y527310D01*
X137240D01*
Y541910D01*
X136440D01*
Y542910D01*
X146340D01*
Y541910D01*
D02*
G37*
G36*
X110580Y530750D02*
X109780D01*
Y516150D01*
X110580D01*
Y515150D01*
X100680D01*
Y516150D01*
X101480D01*
Y530750D01*
X100680D01*
Y531750D01*
X110580D01*
Y530750D01*
D02*
G37*
G36*
X90600Y506750D02*
X91200D01*
Y494550D01*
X90600D01*
Y490800D01*
X59100D01*
Y494550D01*
X58500D01*
Y506750D01*
X59100D01*
Y510500D01*
X90600D01*
Y506750D01*
D02*
G37*
G36*
X44020Y506420D02*
X44620D01*
Y494220D01*
X44020D01*
Y490470D01*
X12520D01*
Y494220D01*
X11920D01*
Y506420D01*
X12520D01*
Y510170D01*
X44020D01*
Y506420D01*
D02*
G37*
G36*
X70603Y455482D02*
X72752D01*
Y443246D01*
X67297D01*
Y440046D01*
X58097D01*
Y443246D01*
X52642D01*
Y455482D01*
X54792D01*
Y461082D01*
X70603D01*
Y455482D01*
D02*
G37*
G36*
X104337Y347361D02*
X87337D01*
Y356461D01*
X104337D01*
Y347361D01*
D02*
G37*
G36*
X345505Y677333D02*
X344505D01*
Y678133D01*
X329905D01*
Y677333D01*
X328905D01*
Y687233D01*
X329905D01*
Y686434D01*
X344505D01*
Y687233D01*
X345505D01*
Y677333D01*
D02*
G37*
G36*
X253384Y684630D02*
X235986D01*
Y696472D01*
X253384D01*
Y684630D01*
D02*
G37*
G36*
X203887Y693520D02*
X204487D01*
Y681320D01*
X203887D01*
Y677570D01*
X172387D01*
Y681320D01*
X171787D01*
Y693520D01*
X172387D01*
Y697270D01*
X203887D01*
Y693520D01*
D02*
G37*
G36*
X291020Y687497D02*
X293559D01*
Y663489D01*
X291020D01*
Y662889D01*
X282602D01*
Y663489D01*
X280063D01*
Y687497D01*
X282602D01*
Y688097D01*
X291020D01*
Y687497D01*
D02*
G37*
G36*
X244150Y662757D02*
X232307D01*
Y680156D01*
X244150D01*
Y662757D01*
D02*
G37*
G36*
X203887Y672210D02*
X204487D01*
Y660010D01*
X203887D01*
Y656260D01*
X172387D01*
Y660010D01*
X171787D01*
Y672210D01*
X172387D01*
Y675960D01*
X203887D01*
Y672210D01*
D02*
G37*
G36*
X218329Y561790D02*
X200931D01*
Y570090D01*
X218329D01*
Y561790D01*
D02*
G37*
G36*
X176029D02*
X158631D01*
Y570090D01*
X176029D01*
Y561790D01*
D02*
G37*
G36*
X224530Y536280D02*
X228280D01*
Y504780D01*
X224530D01*
Y504180D01*
X212330D01*
Y504780D01*
X208580D01*
Y536280D01*
X212330D01*
Y536880D01*
X224530D01*
Y536280D01*
D02*
G37*
G36*
X175940Y536150D02*
X179690D01*
Y504650D01*
X175940D01*
Y504050D01*
X163740D01*
Y504650D01*
X159990D01*
Y536150D01*
X163740D01*
Y536750D01*
X175940D01*
Y536150D01*
D02*
G37*
G36*
X362451Y472078D02*
X354151D01*
Y489476D01*
X362451D01*
Y472078D01*
D02*
G37*
D11*
X354151D02*
X362451D01*
X354151D02*
Y489476D01*
X362451D01*
Y472078D02*
Y489476D01*
X194906Y93274D02*
X204006D01*
X194906D02*
Y95124D01*
Y98724D02*
Y100574D01*
X204006D01*
Y98724D02*
Y100574D01*
Y93274D02*
Y95124D01*
X206956D01*
X191956D02*
X194906D01*
X191956D02*
Y98724D01*
X194906D01*
X204006D02*
X206956D01*
Y95124D02*
Y98724D01*
X282602Y662889D02*
X291020D01*
Y663489D01*
Y687497D02*
Y688097D01*
X282602D02*
X291020D01*
X282602Y687497D02*
Y688097D01*
Y662889D02*
Y663489D01*
X280063D02*
X282602D01*
X291020D02*
X293559D01*
Y687497D01*
X291020D02*
X293559D01*
X280063D02*
X282602D01*
X280063Y663489D02*
Y687497D01*
X210113Y220520D02*
Y244528D01*
X207574Y220520D02*
X210113D01*
X196617D02*
X199156D01*
X196617D02*
Y244528D01*
X199156D01*
X207574D02*
X210113D01*
X207574D02*
Y245128D01*
Y219920D02*
Y220520D01*
X199156Y219920D02*
X207574D01*
X199156D02*
Y220520D01*
Y244528D02*
Y245128D01*
X207574D01*
X199682Y165409D02*
X208100D01*
Y166009D01*
Y190017D02*
Y190617D01*
X199682D02*
X208100D01*
X199682Y190017D02*
Y190617D01*
Y165409D02*
Y166009D01*
X197143D02*
X199682D01*
X208100D02*
X210639D01*
Y190017D01*
X208100D02*
X210639D01*
X197143D02*
X199682D01*
X197143Y166009D02*
Y190017D01*
X74220Y12171D02*
Y36179D01*
X71681Y12171D02*
X74220D01*
X60724D02*
X63263D01*
X60724D02*
Y36179D01*
X63263D01*
X71681D02*
X74220D01*
X71681D02*
Y36779D01*
Y11571D02*
Y12171D01*
X63263Y11571D02*
X71681D01*
X63263D02*
Y12171D01*
Y36179D02*
Y36779D01*
X71681D01*
X134000Y22823D02*
X144500D01*
X134000D02*
Y28623D01*
X144500D01*
Y22823D02*
Y28623D01*
X259321Y22867D02*
Y28667D01*
Y22867D02*
X269821D01*
Y28667D01*
X259321D02*
X269821D01*
X196406Y59217D02*
X206906D01*
X196406D02*
Y65017D01*
X206906D01*
Y59217D02*
Y65017D01*
X204460Y40516D02*
Y51016D01*
X198660D02*
X204460D01*
X198660Y40516D02*
Y51016D01*
Y40516D02*
X204460D01*
X283603Y69672D02*
Y80172D01*
X277803D02*
X283603D01*
X277803Y69672D02*
Y80172D01*
Y69672D02*
X283603D01*
X251844Y76758D02*
Y94156D01*
Y76758D02*
X260144D01*
Y94156D01*
X251844D02*
X260144D01*
X189341Y133008D02*
X206739D01*
X189341D02*
Y141308D01*
X206739D01*
Y133008D02*
Y141308D01*
X293342Y90199D02*
Y98499D01*
X275944Y90199D02*
X293342D01*
X275944D02*
Y98499D01*
X293342D01*
X275944Y108788D02*
X293342D01*
X275944Y100488D02*
Y108788D01*
Y100488D02*
X293342D01*
Y108788D01*
X294321Y70942D02*
Y81442D01*
X288521D02*
X294321D01*
X288521Y70942D02*
Y81442D01*
Y70942D02*
X294321D01*
X154618Y68649D02*
Y79149D01*
X148818D02*
X154618D01*
X148818Y68649D02*
Y79149D01*
Y68649D02*
X154618D01*
X173142Y124748D02*
Y135248D01*
X178942D01*
Y124748D02*
Y135248D01*
X173142Y124748D02*
X178942D01*
X309898Y336839D02*
X327296D01*
X309898Y328539D02*
Y336839D01*
Y328539D02*
X327296D01*
Y336839D01*
X289777Y317307D02*
Y334705D01*
X281477D02*
X289777D01*
X281477Y317307D02*
Y334705D01*
Y317307D02*
X289777D01*
X260067Y187789D02*
X268367D01*
X260067Y170391D02*
Y187789D01*
Y170391D02*
X268367D01*
Y187789D01*
X345505Y677333D02*
Y687233D01*
X344505Y677333D02*
X345505D01*
X328905D02*
X329905D01*
X328905D02*
Y687233D01*
X329905D01*
X344505D02*
X345505D01*
X344505Y686434D02*
Y687233D01*
Y677333D02*
Y678133D01*
X329905D02*
X344505D01*
X329905Y677333D02*
Y678133D01*
Y686434D02*
Y687233D01*
Y686434D02*
X344505D01*
X137240Y527310D02*
Y541910D01*
X136440Y527310D02*
X137240D01*
X145540D02*
X146340D01*
X145540D02*
Y541910D01*
X146340D01*
X136440D02*
X137240D01*
X136440D02*
Y542910D01*
Y526310D02*
Y527310D01*
Y526310D02*
X146340D01*
Y527310D01*
Y541910D02*
Y542910D01*
X136440D02*
X146340D01*
X100680Y531750D02*
X110580D01*
Y530750D02*
Y531750D01*
Y515150D02*
Y516150D01*
X100680Y515150D02*
X110580D01*
X100680D02*
Y516150D01*
Y530750D02*
Y531750D01*
Y530750D02*
X101480D01*
X109780D02*
X110580D01*
X109780Y516150D02*
Y530750D01*
Y516150D02*
X110580D01*
X100680D02*
X101480D01*
Y530750D01*
X172387Y697270D02*
X203887D01*
X172387Y693520D02*
Y697270D01*
Y677570D02*
Y681320D01*
Y677570D02*
X203887D01*
Y681320D01*
Y693520D02*
Y697270D01*
Y693520D02*
X204487D01*
X171787D02*
X172387D01*
X171787Y681320D02*
Y693520D01*
Y681320D02*
X172387D01*
X203887D02*
X204487D01*
Y693520D01*
X204487Y660010D02*
Y672210D01*
X203887Y660010D02*
X204487D01*
X171787D02*
X172387D01*
X171787D02*
Y672210D01*
X172387D01*
X203887D02*
X204487D01*
X203887D02*
Y675960D01*
Y656260D02*
Y660010D01*
X172387Y656260D02*
X203887D01*
X172387D02*
Y660010D01*
Y672210D02*
Y675960D01*
X203887D01*
X179690Y504650D02*
Y536150D01*
X175940D02*
X179690D01*
X159990D02*
X163740D01*
X159990Y504650D02*
Y536150D01*
Y504650D02*
X163740D01*
X175940D02*
X179690D01*
X175940Y504050D02*
Y504650D01*
Y536150D02*
Y536750D01*
X163740D02*
X175940D01*
X163740Y536150D02*
Y536750D01*
Y504050D02*
Y504650D01*
Y504050D02*
X175940D01*
X212330Y504180D02*
X224530D01*
X212330D02*
Y504780D01*
Y536280D02*
Y536880D01*
X224530D01*
Y536280D02*
Y536880D01*
Y504180D02*
Y504780D01*
X228280D01*
X208580D02*
X212330D01*
X208580D02*
Y536280D01*
X212330D01*
X224530D02*
X228280D01*
Y504780D02*
Y536280D01*
X25240Y677170D02*
X56740D01*
Y680920D01*
Y693120D02*
Y696870D01*
X25240D02*
X56740D01*
X25240Y693120D02*
Y696870D01*
Y677170D02*
Y680920D01*
X24640D02*
X25240D01*
X56740D02*
X57340D01*
Y693120D01*
X56740D02*
X57340D01*
X24640D02*
X25240D01*
X24640Y680920D02*
Y693120D01*
X44620Y494220D02*
Y506420D01*
X44020Y494220D02*
X44620D01*
X11920D02*
X12520D01*
X11920D02*
Y506420D01*
X12520D01*
X44020D02*
X44620D01*
X44020D02*
Y510170D01*
Y490470D02*
Y494220D01*
X12520Y490470D02*
X44020D01*
X12520D02*
Y494220D01*
Y506420D02*
Y510170D01*
X44020D01*
X59100Y490800D02*
X90600D01*
Y494550D01*
Y506750D02*
Y510500D01*
X59100D02*
X90600D01*
X59100Y506750D02*
Y510500D01*
Y490800D02*
Y494550D01*
X58500D02*
X59100D01*
X90600D02*
X91200D01*
Y506750D01*
X90600D02*
X91200D01*
X58500D02*
X59100D01*
X58500Y494550D02*
Y506750D01*
X24370Y659290D02*
Y671490D01*
X24970D01*
X56470D02*
X57070D01*
Y659290D02*
Y671490D01*
X56470Y659290D02*
X57070D01*
X24370D02*
X24970D01*
Y655540D02*
Y659290D01*
Y671490D02*
Y675240D01*
X56470D01*
Y671490D02*
Y675240D01*
Y655540D02*
Y659290D01*
X24970Y655540D02*
X56470D01*
X235986Y684630D02*
Y696472D01*
Y684630D02*
X253384D01*
Y696472D01*
X235986D02*
X253384D01*
X232307Y662757D02*
Y680156D01*
X244150D01*
Y662757D02*
Y680156D01*
X232307Y662757D02*
X244150D01*
X25829Y541529D02*
Y553371D01*
Y541529D02*
X43227D01*
Y553371D01*
X25829D02*
X43227D01*
X52642Y455482D02*
X54792D01*
Y461082D01*
X70603D01*
Y455482D02*
Y461082D01*
Y455482D02*
X72752D01*
Y443246D02*
Y455482D01*
X67297Y443246D02*
X72752D01*
X67297Y440046D02*
Y443246D01*
X58097Y440046D02*
X67297D01*
X58097D02*
Y443246D01*
X52642D02*
X58097D01*
X52642D02*
Y455482D01*
X86672Y312990D02*
Y325226D01*
Y312990D02*
X92127D01*
Y309790D02*
Y312990D01*
Y309790D02*
X101327D01*
Y312990D01*
X106782D01*
Y325226D01*
X104632D02*
X106782D01*
X104632D02*
Y330826D01*
X88822D02*
X104632D01*
X88822Y325226D02*
Y330826D01*
X86672Y325226D02*
X88822D01*
X123426Y583298D02*
Y591598D01*
X106028Y583298D02*
X123426D01*
X106028D02*
Y591598D01*
X123426D01*
X302201Y69911D02*
X306251D01*
Y84911D01*
X302201D02*
X306251D01*
X297751D02*
X301801D01*
X297751Y69911D02*
Y84911D01*
Y69911D02*
X301801D01*
X302201Y68111D02*
Y69911D01*
Y84911D02*
Y86711D01*
X301801D02*
X302201D01*
X301801Y84911D02*
Y86711D01*
Y68111D02*
Y69911D01*
Y68111D02*
X302201D01*
X112529Y608376D02*
Y625774D01*
X104229D02*
X112529D01*
X104229Y608376D02*
Y625774D01*
Y608376D02*
X112529D01*
X259357Y210729D02*
Y228127D01*
X267657D01*
Y210729D02*
Y228127D01*
X259357Y210729D02*
X267657D01*
X200931Y561790D02*
X218329D01*
X200931D02*
Y570090D01*
X218329D01*
Y561790D02*
Y570090D01*
X176029Y561790D02*
Y570090D01*
X158631D02*
X176029D01*
X158631Y561790D02*
Y570090D01*
Y561790D02*
X176029D01*
D95*
X124265Y57330D02*
X159698D01*
Y243D02*
Y57330D01*
X124265Y243D02*
X159698D01*
X124265D02*
Y57330D01*
X239392Y601D02*
Y57688D01*
Y601D02*
X274825D01*
Y57688D01*
X239392D02*
X274825D01*
X275187Y602D02*
Y57689D01*
Y602D02*
X310620D01*
Y57689D01*
X275187D02*
X310620D01*
M02*
