G04*
G04 #@! TF.GenerationSoftware,Altium Limited,Altium Designer,18.1.9 (240)*
G04*
G04 Layer_Physical_Order=4*
G04 Layer_Color=16711680*
%FSLAX25Y25*%
%MOIN*%
G70*
G01*
G75*
%ADD11C,0.01181*%
%ADD12C,0.01000*%
%ADD13C,0.00600*%
%ADD17R,0.05906X0.06299*%
%ADD28R,0.06299X0.05906*%
%ADD29R,0.03800X0.04000*%
%ADD46R,0.03937X0.03543*%
%ADD50R,0.13346X0.11811*%
%ADD54C,0.02000*%
%ADD55C,0.03000*%
%ADD56C,0.04000*%
%ADD57C,0.01378*%
%ADD59R,0.07087X0.07087*%
%ADD60C,0.07087*%
%ADD61C,0.06693*%
G04:AMPARAMS|DCode=62|XSize=61.02mil|YSize=61.02mil|CornerRadius=1.83mil|HoleSize=0mil|Usage=FLASHONLY|Rotation=270.000|XOffset=0mil|YOffset=0mil|HoleType=Round|Shape=RoundedRectangle|*
%AMROUNDEDRECTD62*
21,1,0.06102,0.05736,0,0,270.0*
21,1,0.05736,0.06102,0,0,270.0*
1,1,0.00366,-0.02868,-0.02868*
1,1,0.00366,-0.02868,0.02868*
1,1,0.00366,0.02868,0.02868*
1,1,0.00366,0.02868,-0.02868*
%
%ADD62ROUNDEDRECTD62*%
%ADD63C,0.06102*%
%ADD64R,0.07087X0.07087*%
%ADD65C,0.06000*%
%ADD66C,0.08661*%
%ADD67R,0.08661X0.08661*%
%ADD68C,0.10827*%
%ADD69C,0.11811*%
%ADD70C,0.07480*%
%ADD71C,0.05000*%
%ADD73R,0.03543X0.03937*%
%ADD74R,0.05906X0.09843*%
%ADD75R,0.04000X0.07100*%
%ADD76R,0.02362X0.05512*%
%ADD77R,0.04000X0.03800*%
%ADD78R,0.07480X0.09843*%
%ADD79R,0.01900X0.05600*%
%ADD80R,0.02200X0.05600*%
%ADD81R,0.06417X0.08000*%
%ADD82R,0.03200X0.02200*%
%ADD83R,0.03200X0.01600*%
%ADD84C,0.04500*%
%ADD85C,0.05000*%
%ADD86C,0.03937*%
%ADD87C,0.08000*%
G36*
X83487Y470989D02*
X68567D01*
X68373Y470964D01*
X65891D01*
X65796Y470964D01*
Y470964D01*
X65409Y470920D01*
Y470920D01*
X59866D01*
Y464983D01*
X60658D01*
Y461079D01*
X60597D01*
Y454578D01*
X60578Y454479D01*
Y452938D01*
X47177Y452937D01*
X46824Y453292D01*
X46924Y481131D01*
X83487Y481131D01*
X83487Y470989D01*
D02*
G37*
G36*
X67074Y461079D02*
X66653D01*
Y453479D01*
X70553D01*
Y461079D01*
X70132D01*
Y465001D01*
X83487D01*
X83487Y452939D01*
X65301Y452938D01*
X64817Y453421D01*
Y454479D01*
X64797Y454578D01*
Y461079D01*
X64737D01*
Y464983D01*
X65409D01*
Y464983D01*
X65409Y464983D01*
X65891Y465027D01*
X67074D01*
Y461079D01*
D02*
G37*
G36*
X63797Y452543D02*
X66397Y450043D01*
Y441043D01*
X58997D01*
Y450043D01*
X61597Y452443D01*
Y454479D01*
X63797D01*
Y452543D01*
D02*
G37*
G36*
X96286Y373885D02*
X96286D01*
Y368342D01*
X96286D01*
X96494Y368129D01*
X96393Y364056D01*
X96028D01*
Y358513D01*
X96028D01*
X96250Y358285D01*
X95934Y345526D01*
X95498D01*
Y339983D01*
X95497D01*
X95508Y339966D01*
X94387Y337696D01*
X93696D01*
Y332153D01*
X94082D01*
X94082Y323257D01*
X78121Y323257D01*
Y374049D01*
X78406Y374334D01*
X96164D01*
X96286Y373885D01*
D02*
G37*
G36*
X97827Y322287D02*
X100427Y319787D01*
Y310787D01*
X93027D01*
Y319787D01*
X95627Y322187D01*
Y324223D01*
X97827D01*
Y322287D01*
D02*
G37*
G36*
X183117Y196660D02*
X183081Y196573D01*
X182919Y195335D01*
X183081Y194098D01*
X183559Y192945D01*
X184319Y191955D01*
X185309Y191195D01*
X186462Y190717D01*
X186761Y190678D01*
X186761Y160623D01*
X186462Y160583D01*
X185309Y160106D01*
X184319Y159346D01*
X183559Y158356D01*
X183081Y157203D01*
X182919Y155965D01*
X183081Y154728D01*
X183559Y153575D01*
X184319Y152585D01*
X185309Y151825D01*
X186462Y151347D01*
X186761Y151308D01*
X186761Y144719D01*
X186261Y144451D01*
X186219Y144480D01*
X185634Y144596D01*
X185227D01*
X185130Y144832D01*
X184569Y145563D01*
X183837Y146124D01*
X182986Y146476D01*
X182072Y146597D01*
X181159Y146476D01*
X180307Y146124D01*
X179576Y145563D01*
X179015Y144832D01*
X178663Y143980D01*
X178542Y143067D01*
X178663Y142153D01*
X179015Y141301D01*
X179576Y140570D01*
X180307Y140009D01*
X181159Y139657D01*
X182072Y139536D01*
X182986Y139657D01*
X183837Y140009D01*
X184569Y140570D01*
X184869Y140961D01*
X185529Y141008D01*
X186761Y139776D01*
X186761Y129425D01*
X178943Y129425D01*
Y129547D01*
X173143D01*
Y129425D01*
X129001Y129426D01*
X128799Y196889D01*
X182839Y197075D01*
X183117Y196660D01*
D02*
G37*
G36*
X155738Y125114D02*
Y70700D01*
X95158Y70680D01*
X95158Y10119D01*
X95067Y10029D01*
X74764Y10029D01*
X74490Y10475D01*
X74493Y10528D01*
X75368Y11200D01*
X76064Y12108D01*
X76502Y13165D01*
X76652Y14300D01*
X76502Y15435D01*
X76064Y16492D01*
X75368Y17400D01*
X74460Y18097D01*
X73402Y18535D01*
X72268Y18684D01*
X71133Y18535D01*
X70076Y18097D01*
X69168Y17400D01*
X68471Y16492D01*
X68033Y15435D01*
X67884Y14300D01*
X68033Y13165D01*
X68471Y12108D01*
X69168Y11200D01*
X70043Y10528D01*
X70045Y10475D01*
X69772Y10029D01*
X55078Y10029D01*
X54805Y10475D01*
X54808Y10528D01*
X55683Y11200D01*
X56379Y12108D01*
X56817Y13165D01*
X56967Y14300D01*
X56817Y15435D01*
X56379Y16492D01*
X55683Y17400D01*
X54775Y18097D01*
X53717Y18535D01*
X52583Y18684D01*
X51448Y18535D01*
X50391Y18097D01*
X49483Y17400D01*
X48786Y16492D01*
X48348Y15435D01*
X48199Y14300D01*
X48348Y13165D01*
X48786Y12108D01*
X49483Y11200D01*
X50358Y10528D01*
X50360Y10475D01*
X50087Y10029D01*
X45068Y10029D01*
Y27422D01*
X64819D01*
X65733Y27542D01*
X66584Y27894D01*
X67316Y28455D01*
X74764Y35904D01*
X74764Y35904D01*
X75325Y36635D01*
X75678Y37486D01*
X75798Y38400D01*
X75798Y38400D01*
Y39705D01*
X76236Y40277D01*
X76694Y41382D01*
X76850Y42568D01*
X76694Y43754D01*
X76236Y44859D01*
X75508Y45808D01*
X74559Y46536D01*
X73454Y46994D01*
X72268Y47150D01*
X71082Y46994D01*
X69977Y46536D01*
X69027Y45808D01*
X68299Y44859D01*
X67841Y43754D01*
X67685Y42568D01*
X67841Y41382D01*
X68299Y40277D01*
X68669Y39794D01*
X63357Y34482D01*
X45068D01*
Y72878D01*
X54777Y82588D01*
X55771Y82719D01*
X56924Y83197D01*
X57915Y83956D01*
X58674Y84947D01*
X59152Y86100D01*
X59315Y87337D01*
X59152Y88574D01*
X58674Y89727D01*
X57915Y90718D01*
X56924Y91478D01*
X55771Y91955D01*
X54777Y92086D01*
X50792Y96071D01*
X50061Y96632D01*
X49209Y96985D01*
X48296Y97105D01*
X45068D01*
Y125479D01*
X49914D01*
X49916Y125470D01*
X50393Y124317D01*
X51153Y123326D01*
X52143Y122566D01*
X53296Y122089D01*
X54534Y121926D01*
X55771Y122089D01*
X56924Y122566D01*
X57915Y123326D01*
X58674Y124317D01*
X59152Y125470D01*
X59153Y125479D01*
X155238Y125479D01*
X155738Y125114D01*
D02*
G37*
%LPC*%
G36*
X105147Y90791D02*
X104233Y90671D01*
X103382Y90318D01*
X102651Y89757D01*
X102090Y89026D01*
X101737Y88175D01*
X101617Y87261D01*
X101737Y86347D01*
X102090Y85496D01*
X102651Y84765D01*
X103382Y84204D01*
X104233Y83851D01*
X105147Y83731D01*
X106061Y83851D01*
X106912Y84204D01*
X107643Y84765D01*
X108204Y85496D01*
X108557Y86347D01*
X108677Y87261D01*
X108557Y88175D01*
X108204Y89026D01*
X107643Y89757D01*
X106912Y90318D01*
X106061Y90671D01*
X105147Y90791D01*
D02*
G37*
G36*
X76811Y56954D02*
X67725D01*
Y47867D01*
X76811D01*
Y56954D01*
D02*
G37*
G36*
X62425Y47150D02*
X61239Y46994D01*
X60134Y46536D01*
X59185Y45808D01*
X58457Y44859D01*
X57999Y43754D01*
X57843Y42568D01*
X57999Y41382D01*
X58457Y40277D01*
X59185Y39327D01*
X60134Y38599D01*
X61239Y38141D01*
X62425Y37985D01*
X63611Y38141D01*
X64717Y38599D01*
X65666Y39327D01*
X66394Y40277D01*
X66852Y41382D01*
X67008Y42568D01*
X66852Y43754D01*
X66394Y44859D01*
X65666Y45808D01*
X64717Y46536D01*
X63611Y46994D01*
X62425Y47150D01*
D02*
G37*
G36*
X52583D02*
X51397Y46994D01*
X50292Y46536D01*
X49342Y45808D01*
X48614Y44859D01*
X48156Y43754D01*
X48000Y42568D01*
X48156Y41382D01*
X48614Y40277D01*
X49342Y39327D01*
X50292Y38599D01*
X51397Y38141D01*
X52583Y37985D01*
X53769Y38141D01*
X54874Y38599D01*
X55823Y39327D01*
X56551Y40277D01*
X57009Y41382D01*
X57165Y42568D01*
X57009Y43754D01*
X56551Y44859D01*
X55823Y45808D01*
X54874Y46536D01*
X53769Y46994D01*
X52583Y47150D01*
D02*
G37*
%LPD*%
D11*
X299838Y162508D02*
X351129D01*
X298154Y160823D02*
X299838Y162508D01*
X284365Y160823D02*
X298154D01*
X351129Y162508D02*
X357743Y155893D01*
X288530Y165784D02*
X357510D01*
X364474Y158820D01*
Y152782D02*
Y158820D01*
X357743Y146051D02*
X364474Y152782D01*
X288500Y155784D02*
X347791D01*
X288767Y146051D02*
X347901D01*
X279404Y165784D02*
X284365Y160823D01*
D12*
X278530Y165784D02*
X279404D01*
X278500D02*
X278530D01*
X288500D02*
X288530D01*
X185634Y143067D02*
X191544Y137156D01*
X182072Y143067D02*
X185634D01*
X229268Y680028D02*
X229650Y680410D01*
X228677Y680648D02*
X228717Y680608D01*
X62537Y445765D02*
X62722Y445950D01*
X96707Y327004D02*
X96727Y327024D01*
X96665Y327086D02*
X96727Y327024D01*
X94701Y451985D02*
X108500Y465784D01*
X263645Y225784D02*
X278500D01*
X219626Y212801D02*
X244579D01*
X203365Y241521D02*
X214315Y252471D01*
X203365Y223521D02*
X213785Y213101D01*
X68603Y457279D02*
Y467960D01*
X203891Y137801D02*
X204536Y137155D01*
X251798Y186068D02*
X252282Y185583D01*
X68567Y467995D02*
X68603Y467960D01*
X188397Y90594D02*
Y90762D01*
X204154Y238843D02*
X205697D01*
X252059Y212801D02*
X252188Y212929D01*
X263507D01*
X267409Y175784D02*
X278500D01*
X94701Y379814D02*
Y451985D01*
X98997Y361284D02*
X99255Y361542D01*
X203891Y137801D02*
Y139774D01*
X248336Y221479D02*
Y232165D01*
X263508Y225921D02*
X263645Y225784D01*
X288500Y145784D02*
X288767Y146051D01*
X62637Y467951D02*
X62697Y467891D01*
X214315Y252471D02*
X219325D01*
X213785Y213101D02*
X219325D01*
X219626Y212801D01*
X226727Y678618D02*
X228717Y680608D01*
X248319Y221462D02*
X248336Y221479D01*
X247266Y52764D02*
Y54011D01*
X264216Y172591D02*
X267409Y175784D01*
X260615Y693403D02*
X260764Y693551D01*
Y654181D02*
Y654497D01*
X347791Y155784D02*
X347901Y155893D01*
X198601Y2149367D02*
X204201Y2154967D01*
X360896D01*
X-26325Y6000D02*
X-24325Y0D01*
X-22325Y6000D01*
X-24325Y699997D02*
X-22325Y693997D01*
X-26325D02*
X-24325Y699997D01*
Y0D02*
Y327305D01*
Y369492D02*
Y699997D01*
X-25325Y0D02*
X-2476D01*
X-25325Y699997D02*
X-2476D01*
X0Y746060D02*
X6000Y748060D01*
X0Y746060D02*
X6000Y744060D01*
X394000D02*
X400000Y746060D01*
X394000Y748060D02*
X400000Y746060D01*
X0D02*
X177306D01*
X219494D02*
X400000D01*
X0Y702474D02*
Y747060D01*
X400000Y702474D02*
Y747060D01*
D13*
X-26724Y332904D02*
X-25724Y330904D01*
X-23725Y328905D01*
X-21726D01*
X-20726Y329905D01*
Y331904D01*
X-21726Y332904D01*
X-22725D01*
X-23725Y331904D01*
Y328905D01*
X-21726Y334903D02*
X-20726Y335903D01*
Y337902D01*
X-21726Y338902D01*
X-25724D01*
X-26724Y337902D01*
Y335903D01*
X-25724Y334903D01*
X-24725D01*
X-23725Y335903D01*
Y338902D01*
X-21726Y340901D02*
X-20726Y341901D01*
Y343900D01*
X-21726Y344900D01*
X-25724D01*
X-26724Y343900D01*
Y341901D01*
X-25724Y340901D01*
X-24725D01*
X-23725Y341901D01*
Y344900D01*
X-21726Y346899D02*
X-20726Y347899D01*
Y349898D01*
X-21726Y350898D01*
X-25724D01*
X-26724Y349898D01*
Y347899D01*
X-25724Y346899D01*
X-24725D01*
X-23725Y347899D01*
Y350898D01*
X-20726Y352897D02*
X-21726D01*
Y353897D01*
X-20726D01*
Y352897D01*
X-21726Y357896D02*
X-20726Y358895D01*
Y360895D01*
X-21726Y361894D01*
X-25724D01*
X-26724Y360895D01*
Y358895D01*
X-25724Y357896D01*
X-24725D01*
X-23725Y358895D01*
Y361894D01*
X-26724Y363894D02*
Y367892D01*
X-25724D01*
X-21726Y363894D01*
X-20726D01*
X181905Y742461D02*
Y748459D01*
X178906Y745460D01*
X182905D01*
X184904Y747460D02*
X185904Y748459D01*
X187903D01*
X188903Y747460D01*
Y743461D01*
X187903Y742461D01*
X185904D01*
X184904Y743461D01*
Y747460D01*
X190902D02*
X191902Y748459D01*
X193902D01*
X194901Y747460D01*
Y743461D01*
X193902Y742461D01*
X191902D01*
X190902Y743461D01*
Y747460D01*
X196900D02*
X197900Y748459D01*
X199899D01*
X200899Y747460D01*
Y743461D01*
X199899Y742461D01*
X197900D01*
X196900Y743461D01*
Y747460D01*
X202899Y742461D02*
Y743461D01*
X203898D01*
Y742461D01*
X202899D01*
X207897Y747460D02*
X208897Y748459D01*
X210896D01*
X211896Y747460D01*
Y743461D01*
X210896Y742461D01*
X208897D01*
X207897Y743461D01*
Y747460D01*
X213895D02*
X214895Y748459D01*
X216894D01*
X217894Y747460D01*
Y743461D01*
X216894Y742461D01*
X214895D01*
X213895Y743461D01*
Y747460D01*
D17*
X241669Y693403D02*
D03*
X228677Y693403D02*
D03*
X191544Y137156D02*
D03*
X204536Y137155D02*
D03*
X169529Y566599D02*
D03*
X156537Y566600D02*
D03*
X195229Y567681D02*
D03*
X208221Y567680D02*
D03*
D28*
X228716Y680804D02*
D03*
X228716Y667812D02*
D03*
X264217Y185583D02*
D03*
X264216Y172591D02*
D03*
X263508Y225921D02*
D03*
X263507Y212929D02*
D03*
D29*
X35568Y30952D02*
D03*
Y37850D02*
D03*
X176043Y133445D02*
D03*
Y126547D02*
D03*
D46*
X99255Y371113D02*
D03*
X93743D02*
D03*
X98997Y361284D02*
D03*
X93485D02*
D03*
X96665Y334924D02*
D03*
X91153D02*
D03*
X92954Y342754D02*
D03*
X98466D02*
D03*
D50*
X142117Y115265D02*
D03*
Y146368D02*
D03*
D54*
X251648Y194729D02*
X256639Y199720D01*
X248058Y194729D02*
X251648D01*
X187700Y155965D02*
X203891Y139774D01*
X204356Y96921D02*
X247266Y54011D01*
X231068Y199317D02*
X244318Y186068D01*
X191544Y137156D02*
X204356Y124344D01*
X252282Y185583D02*
X264217D01*
X191682Y199317D02*
X231068D01*
X196025Y187010D02*
X203891D01*
X204356Y96921D02*
Y124344D01*
X188397Y71925D02*
Y90594D01*
X203891Y139774D02*
Y169010D01*
X205104Y62115D02*
X214506Y52714D01*
X99255Y376493D02*
X102575Y379814D01*
X98997Y361284D02*
X102537Y357744D01*
X98466Y342754D02*
X102537Y346826D01*
X187700Y195335D02*
X196025Y187010D01*
X176043Y126547D02*
X183266Y119324D01*
X188397Y90762D02*
X194556Y96921D01*
X188397Y71925D02*
X198206Y62115D01*
X98466Y342754D02*
X102632Y338588D01*
X187700Y195335D02*
X191682Y199317D01*
X214506Y52714D02*
X220729D01*
X99255Y371113D02*
Y376493D01*
X62697Y457279D02*
Y467891D01*
X99255Y361542D02*
Y371113D01*
X102537Y351908D02*
Y357744D01*
X102632Y327024D02*
Y338588D01*
X102537Y346826D02*
Y351908D01*
D55*
X96707Y306103D02*
Y327004D01*
X96665Y327086D02*
Y334924D01*
X35567Y30952D02*
X35568D01*
D56*
X228677Y680648D02*
Y693403D01*
X240696Y693403D02*
X260615D01*
X277303Y669348D02*
X295203D01*
X260764Y654497D02*
X275611Y669344D01*
X295203Y669348D02*
X302496Y662055D01*
X275611Y669344D02*
X277299D01*
X260764Y693551D02*
X267266Y687049D01*
X276874D01*
X277299Y669344D02*
X277303Y669348D01*
D57*
X66395Y257889D02*
X108500Y215784D01*
X55569Y257889D02*
X66395D01*
X66237Y248047D02*
X108500Y205784D01*
X321890Y25764D02*
X357743Y61616D01*
X230572Y42871D02*
X247679Y25764D01*
X268021D02*
X321890D01*
X247679D02*
X261123D01*
X55569Y248047D02*
X66237D01*
X357743Y61616D02*
Y116523D01*
D59*
X297825Y52576D02*
D03*
X230572Y52714D02*
D03*
X72268Y52410D02*
D03*
X266951Y52764D02*
D03*
X357283Y647714D02*
D03*
D60*
X287982Y52576D02*
D03*
Y42733D02*
D03*
X297825D02*
D03*
X347876Y413082D02*
D03*
Y403239D02*
D03*
Y393397D02*
D03*
Y432767D02*
D03*
Y422924D02*
D03*
X357718D02*
D03*
Y413082D02*
D03*
Y403239D02*
D03*
Y393397D02*
D03*
Y432767D02*
D03*
Y442610D02*
D03*
X230572Y42871D02*
D03*
X220729D02*
D03*
Y52714D02*
D03*
X357173Y293002D02*
D03*
Y283160D02*
D03*
X45727Y248047D02*
D03*
Y257889D02*
D03*
X55569D02*
D03*
X54213Y186454D02*
D03*
Y196297D02*
D03*
X44370Y186454D02*
D03*
Y196297D02*
D03*
Y215982D02*
D03*
Y206139D02*
D03*
X54213Y215982D02*
D03*
Y206139D02*
D03*
X44370Y176612D02*
D03*
X62425Y52410D02*
D03*
X52583D02*
D03*
X72268Y42568D02*
D03*
X62425D02*
D03*
X52583D02*
D03*
X247266Y42921D02*
D03*
X257109D02*
D03*
X266951D02*
D03*
X247266Y52764D02*
D03*
X257109D02*
D03*
X357743Y155893D02*
D03*
X347901Y126366D02*
D03*
Y116523D02*
D03*
Y146051D02*
D03*
Y136208D02*
D03*
X357743Y126366D02*
D03*
Y116523D02*
D03*
Y136208D02*
D03*
Y146051D02*
D03*
X367126Y647714D02*
D03*
Y657556D02*
D03*
X357283D02*
D03*
D61*
X287982Y14465D02*
D03*
X297825D02*
D03*
X385986Y442610D02*
D03*
Y393397D02*
D03*
X222480Y638537D02*
D03*
X172480D02*
D03*
X142480Y558537D02*
D03*
X222480D02*
D03*
X182480D02*
D03*
X192480Y638537D02*
D03*
X230572Y14603D02*
D03*
X220729D02*
D03*
X385441Y293002D02*
D03*
Y283160D02*
D03*
X17459Y248047D02*
D03*
Y257889D02*
D03*
X16102Y215982D02*
D03*
Y176612D02*
D03*
X72268Y14300D02*
D03*
X52583D02*
D03*
X247266Y14653D02*
D03*
X266951D02*
D03*
X386011Y155893D02*
D03*
Y116523D02*
D03*
X367126Y685824D02*
D03*
X357283D02*
D03*
D62*
X108530Y235784D02*
D03*
X278530D02*
D03*
Y485784D02*
D03*
X108530D02*
D03*
D63*
Y225784D02*
D03*
Y215784D02*
D03*
Y205784D02*
D03*
Y195784D02*
D03*
Y185784D02*
D03*
Y175784D02*
D03*
Y165784D02*
D03*
Y155784D02*
D03*
Y145784D02*
D03*
X118530Y235784D02*
D03*
Y225784D02*
D03*
Y215784D02*
D03*
Y205784D02*
D03*
Y195784D02*
D03*
Y185784D02*
D03*
Y175784D02*
D03*
Y165784D02*
D03*
Y155784D02*
D03*
Y145784D02*
D03*
X288530D02*
D03*
Y155784D02*
D03*
Y165784D02*
D03*
Y175784D02*
D03*
Y185784D02*
D03*
Y195784D02*
D03*
Y205784D02*
D03*
Y215784D02*
D03*
Y225784D02*
D03*
Y235784D02*
D03*
X278530Y145784D02*
D03*
Y155784D02*
D03*
Y165784D02*
D03*
Y175784D02*
D03*
Y185784D02*
D03*
Y195784D02*
D03*
Y205784D02*
D03*
Y215784D02*
D03*
Y225784D02*
D03*
X288530Y395784D02*
D03*
Y405784D02*
D03*
Y415784D02*
D03*
Y425784D02*
D03*
Y435784D02*
D03*
Y445784D02*
D03*
Y455784D02*
D03*
Y465784D02*
D03*
Y475784D02*
D03*
Y485784D02*
D03*
X278530Y395784D02*
D03*
Y405784D02*
D03*
Y415784D02*
D03*
Y425784D02*
D03*
Y435784D02*
D03*
Y445784D02*
D03*
Y455784D02*
D03*
Y465784D02*
D03*
Y475784D02*
D03*
X108530D02*
D03*
Y465784D02*
D03*
Y455784D02*
D03*
Y445784D02*
D03*
Y435784D02*
D03*
Y425784D02*
D03*
Y415784D02*
D03*
Y405784D02*
D03*
Y395784D02*
D03*
X118530Y485784D02*
D03*
Y475784D02*
D03*
Y465784D02*
D03*
Y455784D02*
D03*
Y445784D02*
D03*
Y435784D02*
D03*
Y425784D02*
D03*
Y415784D02*
D03*
Y405784D02*
D03*
Y395784D02*
D03*
D64*
X347876Y442610D02*
D03*
X55569Y248047D02*
D03*
X54213Y176612D02*
D03*
X347901Y155893D02*
D03*
D65*
X31709Y379814D02*
D03*
X39583D02*
D03*
X47457D02*
D03*
X55331D02*
D03*
X63205D02*
D03*
X71079D02*
D03*
X78953D02*
D03*
X86827D02*
D03*
X94701D02*
D03*
X102575D02*
D03*
Y293199D02*
D03*
X94701D02*
D03*
X86827D02*
D03*
X78953D02*
D03*
X71079D02*
D03*
X63205D02*
D03*
X55331D02*
D03*
X47457D02*
D03*
X39583D02*
D03*
X31709D02*
D03*
X388189Y11808D02*
D03*
X11811D02*
D03*
X11811Y688186D02*
D03*
X388189D02*
D03*
D66*
X49606Y642059D02*
D03*
X19685D02*
D03*
X49606Y532217D02*
D03*
X64567D02*
D03*
D67*
X79528Y642059D02*
D03*
D68*
Y532217D02*
D03*
X19685D02*
D03*
D69*
X229168Y240660D02*
D03*
Y224912D02*
D03*
X177593Y220975D02*
D03*
Y244597D02*
D03*
X302496Y662055D02*
D03*
Y685677D02*
D03*
X250921Y681740D02*
D03*
Y665992D02*
D03*
X12801Y118833D02*
D03*
Y95211D02*
D03*
X64376Y99148D02*
D03*
Y114896D02*
D03*
X177857Y167776D02*
D03*
Y183524D02*
D03*
X229432Y187461D02*
D03*
Y163839D02*
D03*
D70*
X219325Y252471D02*
D03*
Y213101D02*
D03*
X260764Y693551D02*
D03*
Y654181D02*
D03*
X54534Y87337D02*
D03*
Y126707D02*
D03*
X187700Y155965D02*
D03*
Y195335D02*
D03*
D71*
X105147Y87261D02*
D03*
X266546Y294572D02*
D03*
X182072Y143067D02*
D03*
X359385Y459676D02*
D03*
X256639Y199720D02*
D03*
X359362Y513920D02*
D03*
X359417Y506071D02*
D03*
X359418Y467505D02*
D03*
X359451Y463632D02*
D03*
X96707Y306103D02*
D03*
X359395Y509922D02*
D03*
X80417Y186454D02*
D03*
X80417Y196297D02*
D03*
X14110Y673411D02*
D03*
X183266Y119324D02*
D03*
X188397Y90594D02*
D03*
X248336Y232165D02*
D03*
X82852Y336653D02*
D03*
X53337Y465631D02*
D03*
X78428Y475488D02*
D03*
X62537Y433751D02*
D03*
X138080Y511197D02*
D03*
X192770Y502227D02*
D03*
X107944Y573451D02*
D03*
X162160Y677647D02*
D03*
X141690Y687207D02*
D03*
X50876Y489810D02*
D03*
X51030Y510677D02*
D03*
D73*
X62637Y473463D02*
D03*
Y467951D02*
D03*
X68567Y467995D02*
D03*
Y473507D02*
D03*
D74*
X28229Y547447D02*
D03*
X40828D02*
D03*
D75*
X89137Y351908D02*
D03*
X102537D02*
D03*
D76*
X248319Y221462D02*
D03*
X244579Y212801D02*
D03*
X252059D02*
D03*
X248058Y194729D02*
D03*
X244318Y186068D02*
D03*
X251798D02*
D03*
D77*
X261123Y25764D02*
D03*
X268021D02*
D03*
X198206Y62115D02*
D03*
X205104D02*
D03*
D78*
X62737Y445936D02*
D03*
X96766Y315680D02*
D03*
D79*
X68603Y457279D02*
D03*
X56792D02*
D03*
X90821Y327024D02*
D03*
X102632D02*
D03*
D80*
X62697Y457279D02*
D03*
X96727Y327024D02*
D03*
D81*
X37247Y93575D02*
D03*
Y111575D02*
D03*
X203365Y223521D02*
D03*
Y241521D02*
D03*
X203891Y169010D02*
D03*
Y187010D02*
D03*
X277299Y669344D02*
D03*
Y687344D02*
D03*
D82*
X194556Y96921D02*
D03*
D83*
X204356D02*
D03*
D84*
X357718Y442610D02*
X372725Y457616D01*
Y515518D01*
X250921Y637322D02*
X372725Y515518D01*
X250921Y637322D02*
Y665992D01*
X347876Y442610D02*
Y525556D01*
X228716Y644716D02*
X347876Y525556D01*
X228716Y644716D02*
Y667812D01*
D85*
X35567Y37850D02*
Y68370D01*
X62537Y433751D02*
Y445765D01*
X35568Y30952D02*
X64819D01*
X72268Y38400D02*
Y42568D01*
X64819Y30952D02*
X72268Y38400D01*
X35567Y68370D02*
X54534Y87337D01*
X48296Y93575D02*
X54534Y87337D01*
X37247Y93575D02*
X48296D01*
X29989Y118833D02*
X37247Y111575D01*
X12801Y118833D02*
X29989D01*
D86*
X142480Y558537D02*
X150543Y566600D01*
X156537D01*
X169529Y566599D02*
X174418D01*
X182480Y558537D01*
X191624Y567681D01*
X195229D01*
X213538Y567479D02*
X222480Y558537D01*
X210709Y567479D02*
X213538D01*
X86324Y467995D02*
X104113Y485784D01*
X108500D01*
X68567Y467995D02*
X86324D01*
D87*
X40828Y547447D02*
X49606Y538668D01*
X19685Y532217D02*
Y538903D01*
X49606Y532217D02*
Y538668D01*
X19685Y538903D02*
X28229Y547447D01*
M02*
