G04*
G04 #@! TF.GenerationSoftware,Altium Limited,Altium Designer,18.1.9 (240)*
G04*
G04 Layer_Color=32768*
%FSLAX25Y25*%
%MOIN*%
G70*
G01*
G75*
%ADD16C,0.00800*%
D16*
X-497367Y-31882D02*
Y-25884D01*
X-495367Y-27883D01*
X-493368Y-25884D01*
Y-31882D01*
X-488370D02*
X-490369D01*
X-491368Y-30882D01*
Y-28883D01*
X-490369Y-27883D01*
X-488370D01*
X-487370Y-28883D01*
Y-29882D01*
X-491368D01*
X-481372Y-27883D02*
X-484371D01*
X-485370Y-28883D01*
Y-30882D01*
X-484371Y-31882D01*
X-481372D01*
X-479372Y-25884D02*
Y-31882D01*
Y-28883D01*
X-478373Y-27883D01*
X-476373D01*
X-475374Y-28883D01*
Y-31882D01*
X-472375Y-27883D02*
X-470375D01*
X-469376Y-28883D01*
Y-31882D01*
X-472375D01*
X-473374Y-30882D01*
X-472375Y-29882D01*
X-469376D01*
X-467376Y-31882D02*
Y-27883D01*
X-464377D01*
X-463378Y-28883D01*
Y-31882D01*
X-461378D02*
X-459379D01*
X-460379D01*
Y-27883D01*
X-461378D01*
X-452381D02*
X-455380D01*
X-456380Y-28883D01*
Y-30882D01*
X-455380Y-31882D01*
X-452381D01*
X-449382Y-27883D02*
X-447383D01*
X-446383Y-28883D01*
Y-31882D01*
X-449382D01*
X-450382Y-30882D01*
X-449382Y-29882D01*
X-446383D01*
X-444384Y-31882D02*
X-442384D01*
X-443384D01*
Y-25884D01*
X-444384D01*
X-433387Y-31882D02*
X-431388D01*
X-432388D01*
Y-25884D01*
X-433387Y-26883D01*
X-428389Y-30882D02*
X-427389Y-31882D01*
X-425390D01*
X-424390Y-30882D01*
Y-26883D01*
X-425390Y-25884D01*
X-427389D01*
X-428389Y-26883D01*
Y-27883D01*
X-427389Y-28883D01*
X-424390D01*
M02*
