G04*
G04 #@! TF.GenerationSoftware,Altium Limited,Altium Designer,18.1.9 (240)*
G04*
G04 Layer_Color=32896*
%FSLAX25Y25*%
%MOIN*%
G70*
G01*
G75*
%ADD14C,0.00500*%
D14*
X281211Y35174D02*
X304596D01*
Y1867D02*
Y35174D01*
X281211Y1867D02*
X304596D01*
X281211D02*
Y35174D01*
X304596D01*
Y1867D02*
Y35174D01*
X281211Y1867D02*
X304596D01*
X281211D02*
Y35174D01*
X398584Y406310D02*
Y429696D01*
X365277Y449381D02*
X398584D01*
X365277Y386625D02*
Y449381D01*
X398584Y386625D02*
Y449381D01*
X365277D02*
X398584D01*
X365277Y386625D02*
Y449381D01*
Y386625D02*
X398584D01*
X213957Y2005D02*
Y35312D01*
Y2005D02*
X237343D01*
Y35312D01*
X213957D02*
X237343D01*
X213957Y2005D02*
Y35312D01*
Y2005D02*
X237343D01*
Y35312D01*
X213957D02*
X237343D01*
X364732Y276388D02*
X398039D01*
Y299774D01*
X364732D02*
X398039D01*
X364732Y276388D02*
Y299774D01*
Y276388D02*
X398039D01*
Y299774D01*
X364732D02*
X398039D01*
X364732Y276388D02*
Y299774D01*
X4861Y264661D02*
X38168D01*
X4861Y241275D02*
Y264661D01*
Y241275D02*
X38168D01*
Y264661D01*
X4861D02*
X38168D01*
X4861Y241275D02*
Y264661D01*
Y241275D02*
X38168D01*
Y264661D01*
X3504Y224722D02*
X36811D01*
Y167871D02*
Y224722D01*
X3504Y167871D02*
X36811D01*
X3504D02*
Y224722D01*
X36811Y167871D02*
Y224722D01*
X3504Y167871D02*
X36811D01*
X3622Y183934D02*
Y207320D01*
X398491Y125185D02*
Y148571D01*
X365302Y164634D02*
X398609D01*
X365302Y107783D02*
Y164634D01*
X398609Y107783D02*
Y164634D01*
X365302D02*
X398609D01*
X365302Y107783D02*
Y164634D01*
Y107783D02*
X398609D01*
X350512Y665116D02*
X373898D01*
X350512D02*
Y698423D01*
X373898D01*
Y665116D02*
Y698423D01*
X350512Y665116D02*
X373898D01*
X350512D02*
Y698423D01*
X373898D01*
Y665116D02*
Y698423D01*
M02*
