G04*
G04 #@! TF.GenerationSoftware,Altium Limited,Altium Designer,18.1.9 (240)*
G04*
G04 Layer_Color=65535*
%FSLAX25Y25*%
%MOIN*%
G70*
G01*
G75*
%ADD10C,0.00787*%
%ADD11C,0.01181*%
%ADD12C,0.01000*%
%ADD13C,0.00600*%
%ADD14C,0.00500*%
%ADD15C,0.02953*%
%ADD16C,0.00800*%
G36*
X264314Y123642D02*
X264529D01*
Y123588D01*
X264690D01*
Y123535D01*
X264797D01*
Y123481D01*
X264905D01*
Y123427D01*
X265012D01*
Y123373D01*
X265120D01*
Y123320D01*
X265173D01*
Y123266D01*
X265281D01*
Y123212D01*
X265335D01*
Y123158D01*
X265442D01*
Y123105D01*
X265496D01*
Y123051D01*
X265549D01*
Y122997D01*
X265603D01*
Y122943D01*
X265657D01*
Y122890D01*
X265711D01*
Y122836D01*
X265764D01*
Y122782D01*
X265872D01*
Y122729D01*
X265926D01*
Y122675D01*
X265979D01*
Y122621D01*
X266033D01*
Y122567D01*
X266141D01*
Y122514D01*
X266194D01*
Y122460D01*
X266248D01*
Y122406D01*
X266302D01*
Y122353D01*
X266355D01*
Y122299D01*
X266409D01*
Y122245D01*
X266463D01*
Y122191D01*
X266517D01*
Y122138D01*
X266570D01*
Y122084D01*
X266624D01*
Y122030D01*
X266678D01*
Y121976D01*
X266732D01*
Y121923D01*
X266785D01*
Y121869D01*
X266839D01*
Y121815D01*
X266893D01*
Y121761D01*
X266947D01*
Y121708D01*
X267000D01*
Y121654D01*
X267054D01*
Y121600D01*
X267108D01*
Y121546D01*
X267161D01*
Y121493D01*
X267215D01*
Y121439D01*
X267269D01*
Y121385D01*
X267323D01*
Y121332D01*
X267376D01*
Y121278D01*
X267430D01*
Y121224D01*
X267484D01*
Y121170D01*
X267538D01*
Y121117D01*
Y121063D01*
X267591D01*
Y121009D01*
X267645D01*
Y120956D01*
X267699D01*
Y120902D01*
X267753D01*
Y120848D01*
X267806D01*
Y120794D01*
X267860D01*
Y120741D01*
X267914D01*
Y120687D01*
X267967D01*
Y120633D01*
X268021D01*
Y120579D01*
X268075D01*
Y120526D01*
X268129D01*
Y120472D01*
X268182D01*
Y120418D01*
Y120364D01*
X268236D01*
Y120311D01*
X268290D01*
Y120257D01*
X268343D01*
Y120203D01*
X268397D01*
Y120150D01*
Y120096D01*
X268451D01*
Y120042D01*
X268505D01*
Y119988D01*
X268559D01*
Y119935D01*
X268612D01*
Y119881D01*
X268666D01*
Y119827D01*
X268720D01*
Y119773D01*
X268773D01*
Y119720D01*
X268827D01*
Y119666D01*
Y119612D01*
X268881D01*
Y119559D01*
X268935D01*
Y119505D01*
X268988D01*
Y119451D01*
X269042D01*
Y119397D01*
X269096D01*
Y119344D01*
Y119290D01*
X269149D01*
Y119236D01*
Y119182D01*
X269203D01*
Y119129D01*
X269257D01*
Y119075D01*
X269311D01*
Y119021D01*
Y118967D01*
X269364D01*
Y118914D01*
X269472D01*
Y118860D01*
Y118806D01*
X269526D01*
Y118753D01*
X269579D01*
Y118699D01*
X269633D01*
Y118645D01*
Y118591D01*
X269687D01*
Y118538D01*
Y118484D01*
X269741D01*
Y118430D01*
Y118376D01*
Y118323D01*
X269794D01*
Y118269D01*
Y118215D01*
X269848D01*
Y118161D01*
Y118108D01*
Y118054D01*
X269902D01*
Y118000D01*
Y117947D01*
X269955D01*
Y117893D01*
Y117839D01*
Y117785D01*
X270009D01*
Y117732D01*
Y117678D01*
Y117624D01*
X270063D01*
Y117570D01*
Y117517D01*
Y117463D01*
Y117409D01*
X270117D01*
Y117356D01*
Y117302D01*
Y117248D01*
Y117194D01*
X270170D01*
Y117141D01*
Y117087D01*
Y117033D01*
X270224D01*
Y116979D01*
Y116926D01*
Y116872D01*
Y116818D01*
X270278D01*
Y116764D01*
Y116711D01*
Y116657D01*
Y116603D01*
Y116550D01*
X270332D01*
Y116496D01*
Y116442D01*
Y116388D01*
Y116335D01*
Y116281D01*
Y116227D01*
X270385D01*
Y116174D01*
Y116120D01*
Y116066D01*
Y116012D01*
Y115958D01*
X270439D01*
Y115905D01*
Y115851D01*
Y115797D01*
Y115744D01*
Y115690D01*
Y115636D01*
Y115582D01*
X270493D01*
Y115529D01*
X270547D01*
Y115475D01*
Y115421D01*
Y115367D01*
Y115314D01*
Y115260D01*
Y115206D01*
Y115153D01*
Y115099D01*
X270600D01*
Y115045D01*
Y114991D01*
Y114938D01*
Y114884D01*
Y114830D01*
Y114777D01*
Y114723D01*
Y114669D01*
Y114615D01*
Y114562D01*
Y114508D01*
Y114454D01*
Y114400D01*
Y114347D01*
Y114293D01*
Y114239D01*
Y114185D01*
Y114132D01*
Y114078D01*
Y114024D01*
Y113970D01*
Y113917D01*
Y113863D01*
Y113809D01*
Y113756D01*
Y113702D01*
X270547D01*
Y113648D01*
Y113594D01*
Y113541D01*
Y113487D01*
Y113433D01*
Y113380D01*
X270493D01*
Y113326D01*
X270439D01*
Y113272D01*
X270493D01*
Y113218D01*
X270439D01*
Y113165D01*
X270385D01*
Y113111D01*
Y113057D01*
X270332D01*
Y113003D01*
Y112950D01*
Y112896D01*
X270278D01*
Y112842D01*
Y112788D01*
X270224D01*
Y112735D01*
X270170D01*
Y112681D01*
X270117D01*
Y112627D01*
X270063D01*
Y112574D01*
Y112520D01*
X270009D01*
Y112466D01*
X269902D01*
Y112412D01*
X269848D01*
Y112359D01*
X269794D01*
Y112305D01*
X269741D01*
Y112251D01*
X269687D01*
Y112197D01*
X269579D01*
Y112144D01*
X269526D01*
Y112090D01*
X269418D01*
Y112036D01*
Y111983D01*
X269364D01*
Y111929D01*
X269257D01*
Y111875D01*
X269203D01*
Y111821D01*
X269149D01*
Y111768D01*
X269042D01*
Y111714D01*
X268988D01*
Y111660D01*
X268881D01*
Y111606D01*
X268827D01*
Y111553D01*
X268720D01*
Y111499D01*
X268666D01*
Y111445D01*
X268559D01*
Y111391D01*
X268505D01*
Y111338D01*
X268397D01*
Y111284D01*
Y111230D01*
X268505D01*
Y111177D01*
X268666D01*
Y111123D01*
X268720D01*
Y111069D01*
X268881D01*
Y111015D01*
X268988D01*
Y110962D01*
X269149D01*
Y110908D01*
X269311D01*
Y110854D01*
X269418D01*
Y110800D01*
X269579D01*
Y110747D01*
X269687D01*
Y110693D01*
X269794D01*
Y110639D01*
X269902D01*
Y110585D01*
X270009D01*
Y110532D01*
X270063D01*
Y110478D01*
X270170D01*
Y110424D01*
X270278D01*
Y110371D01*
X270332D01*
Y110317D01*
X270439D01*
Y110263D01*
X270493D01*
Y110209D01*
Y110156D01*
X270600D01*
Y110102D01*
X270654D01*
Y110048D01*
X270708D01*
Y109994D01*
X270761D01*
Y109941D01*
X270815D01*
Y109887D01*
X270869D01*
Y109833D01*
X270923D01*
Y109780D01*
X270976D01*
Y109726D01*
X271030D01*
Y109672D01*
Y109618D01*
X271084D01*
Y109565D01*
Y109511D01*
X271137D01*
Y109457D01*
Y109403D01*
Y109350D01*
Y109296D01*
Y109242D01*
X271191D01*
Y109188D01*
X271137D01*
Y109135D01*
Y109081D01*
Y109027D01*
Y108974D01*
Y108920D01*
X271084D01*
Y108866D01*
Y108812D01*
X271030D01*
Y108759D01*
Y108705D01*
Y108651D01*
Y108598D01*
X271084D01*
Y108544D01*
X271137D01*
Y108490D01*
Y108436D01*
X271191D01*
Y108383D01*
Y108329D01*
X271245D01*
Y108275D01*
Y108221D01*
X271299D01*
Y108168D01*
Y108114D01*
X271352D01*
Y108060D01*
X271406D01*
Y108007D01*
Y107953D01*
X271460D01*
Y107899D01*
Y107845D01*
X271514D01*
Y107791D01*
Y107738D01*
X271567D01*
Y107684D01*
Y107630D01*
X271621D01*
Y107577D01*
Y107523D01*
Y107469D01*
Y107415D01*
X271675D01*
Y107362D01*
Y107308D01*
X271728D01*
Y107254D01*
Y107201D01*
Y107147D01*
X271782D01*
Y107093D01*
Y107039D01*
Y106986D01*
X271836D01*
Y106932D01*
Y106878D01*
Y106824D01*
X271890D01*
Y106771D01*
Y106717D01*
Y106663D01*
Y106609D01*
X271943D01*
Y106556D01*
Y106502D01*
Y106448D01*
Y106395D01*
Y106341D01*
X271997D01*
Y106287D01*
Y106233D01*
Y106180D01*
Y106126D01*
Y106072D01*
Y106018D01*
X272051D01*
Y105965D01*
Y105911D01*
Y105857D01*
Y105804D01*
Y105750D01*
Y105696D01*
X272105D01*
Y105642D01*
Y105589D01*
Y105535D01*
Y105481D01*
Y105427D01*
Y105374D01*
Y105320D01*
Y105266D01*
Y105212D01*
Y105159D01*
X272158D01*
Y105105D01*
Y105051D01*
Y104998D01*
Y104944D01*
Y104890D01*
Y104836D01*
Y104783D01*
Y104729D01*
Y104675D01*
Y104621D01*
Y104568D01*
Y104514D01*
Y104460D01*
Y104406D01*
Y104353D01*
Y104299D01*
Y104245D01*
Y104192D01*
Y104138D01*
Y104084D01*
Y104030D01*
Y103977D01*
Y103923D01*
Y103869D01*
Y103815D01*
Y103762D01*
X272105D01*
Y103708D01*
Y103654D01*
Y103601D01*
Y103547D01*
Y103493D01*
Y103439D01*
Y103386D01*
Y103332D01*
Y103278D01*
Y103225D01*
X272051D01*
Y103171D01*
Y103117D01*
Y103063D01*
Y103009D01*
Y102956D01*
Y102902D01*
Y102848D01*
X271997D01*
Y102795D01*
Y102741D01*
Y102687D01*
Y102633D01*
Y102580D01*
X271943D01*
Y102526D01*
Y102472D01*
Y102418D01*
Y102365D01*
Y102311D01*
X271890D01*
Y102257D01*
Y102204D01*
Y102150D01*
Y102096D01*
X271836D01*
Y102042D01*
Y101989D01*
Y101935D01*
Y101881D01*
X271782D01*
Y101828D01*
Y101774D01*
Y101720D01*
X271728D01*
Y101666D01*
Y101612D01*
Y101559D01*
X271675D01*
Y101505D01*
Y101451D01*
Y101398D01*
X271621D01*
Y101344D01*
Y101290D01*
Y101236D01*
X271567D01*
Y101183D01*
Y101129D01*
Y101075D01*
X271514D01*
Y101022D01*
Y100968D01*
Y100914D01*
X271460D01*
Y100860D01*
Y100807D01*
X271406D01*
Y100753D01*
Y100699D01*
X271299D01*
Y100645D01*
X271352D01*
Y100592D01*
X271245D01*
Y100538D01*
Y100484D01*
X271191D01*
Y100431D01*
Y100377D01*
X271137D01*
Y100323D01*
Y100269D01*
Y100216D01*
X271084D01*
Y100162D01*
Y100108D01*
X271030D01*
Y100054D01*
Y100001D01*
X270976D01*
Y99947D01*
X270923D01*
Y99893D01*
Y99839D01*
X270869D01*
Y99786D01*
Y99732D01*
X270815D01*
Y99678D01*
X270761D01*
Y99625D01*
Y99571D01*
X270708D01*
Y99517D01*
X270654D01*
Y99463D01*
X270600D01*
Y99410D01*
Y99356D01*
Y99302D01*
X270547D01*
Y99248D01*
X270493D01*
Y99195D01*
X270439D01*
Y99141D01*
X270385D01*
Y99087D01*
Y99033D01*
X270278D01*
Y98980D01*
Y98926D01*
X270224D01*
Y98872D01*
X270170D01*
Y98819D01*
X270117D01*
Y98765D01*
X270063D01*
Y98711D01*
X270009D01*
Y98657D01*
X269955D01*
Y98604D01*
X269902D01*
Y98550D01*
X269848D01*
Y98496D01*
X269794D01*
Y98442D01*
Y98389D01*
X269741D01*
Y98335D01*
X269687D01*
Y98281D01*
X269633D01*
Y98228D01*
X269579D01*
Y98174D01*
X269526D01*
Y98120D01*
X269418D01*
Y98066D01*
X269364D01*
Y98013D01*
X269311D01*
Y97959D01*
X269203D01*
Y97905D01*
X269149D01*
Y97851D01*
X269042D01*
Y97798D01*
X268988D01*
Y97744D01*
X268881D01*
Y97690D01*
X268827D01*
Y97636D01*
X268720D01*
Y97583D01*
X268666D01*
Y97529D01*
X268612D01*
Y97475D01*
X268505D01*
Y97422D01*
X268451D01*
Y97368D01*
X268343D01*
Y97314D01*
X268236D01*
Y97260D01*
X268129D01*
Y97207D01*
X268021D01*
Y97153D01*
X267914D01*
Y97099D01*
X267753D01*
Y97045D01*
X267591D01*
Y96992D01*
X267430D01*
Y96938D01*
X267269D01*
Y96884D01*
X267000D01*
Y96830D01*
X266732D01*
Y96777D01*
X266355D01*
Y96723D01*
X265227D01*
Y96777D01*
X264851D01*
Y96830D01*
X264421D01*
Y96884D01*
X263938D01*
Y96938D01*
X263454D01*
Y96992D01*
X263024D01*
Y97045D01*
X262541D01*
Y97099D01*
X262057D01*
Y97153D01*
X261574D01*
Y97207D01*
X261144D01*
Y97260D01*
X260660D01*
Y97314D01*
X260176D01*
Y97368D01*
X259747D01*
Y97422D01*
X259263D01*
Y97475D01*
X258780D01*
Y97529D01*
Y97583D01*
X258296D01*
Y97636D01*
X257812D01*
Y97690D01*
X257329D01*
Y97744D01*
X256899D01*
Y97798D01*
X256415D01*
Y97851D01*
X255932D01*
Y97905D01*
X255448D01*
Y97959D01*
X255018D01*
Y98013D01*
X254535D01*
Y98066D01*
X254051D01*
Y98120D01*
X253568D01*
Y98174D01*
X253138D01*
Y98228D01*
X252654D01*
Y98281D01*
X252224D01*
Y98335D01*
X251741D01*
Y98389D01*
X251257D01*
Y98442D01*
Y98496D01*
X250774D01*
Y98550D01*
X250290D01*
Y98604D01*
X249807D01*
Y98657D01*
X249323D01*
Y98711D01*
X248893D01*
Y98765D01*
X248410D01*
Y98819D01*
X247926D01*
Y98872D01*
X247442D01*
Y98926D01*
X246905D01*
Y98980D01*
X246368D01*
Y99033D01*
X246045D01*
Y99087D01*
X245562D01*
Y99141D01*
X245132D01*
Y99195D01*
X244648D01*
Y99248D01*
X244165D01*
Y99302D01*
X243735D01*
Y99356D01*
X243681D01*
Y99410D01*
X243198D01*
Y99463D01*
X242714D01*
Y99517D01*
X242177D01*
Y99571D01*
X242714D01*
Y99517D01*
X243305D01*
Y99463D01*
X243843D01*
Y99410D01*
X244433D01*
Y99356D01*
X244595D01*
Y99302D01*
X245024D01*
Y99248D01*
X245562D01*
Y99195D01*
X245669D01*
Y99248D01*
Y99302D01*
X245616D01*
Y99356D01*
X245562D01*
Y99410D01*
X245454D01*
Y99463D01*
X245401D01*
Y99517D01*
X245293D01*
Y99571D01*
X245239D01*
Y99625D01*
X245132D01*
Y99678D01*
X245078D01*
Y99732D01*
X245024D01*
Y99786D01*
X244971D01*
Y99839D01*
X244917D01*
Y99893D01*
X244863D01*
Y99947D01*
X244810D01*
Y100001D01*
X244756D01*
Y100054D01*
Y100108D01*
X244702D01*
Y100162D01*
X244648D01*
Y100216D01*
Y100269D01*
X244595D01*
Y100323D01*
X244541D01*
Y100377D01*
X244487D01*
Y100431D01*
X244433D01*
Y100484D01*
Y100538D01*
X244380D01*
Y100592D01*
X244326D01*
Y100645D01*
Y100699D01*
X244272D01*
Y100753D01*
Y100807D01*
X244219D01*
Y100860D01*
Y100914D01*
X244165D01*
Y100968D01*
Y101022D01*
X244111D01*
Y101075D01*
Y101129D01*
X244057D01*
Y101183D01*
Y101236D01*
Y101290D01*
Y101344D01*
X244004D01*
Y101398D01*
Y101451D01*
X243950D01*
Y101505D01*
Y101559D01*
Y101612D01*
X243896D01*
Y101666D01*
Y101720D01*
Y101774D01*
X243843D01*
Y101828D01*
Y101881D01*
Y101935D01*
Y101989D01*
X243789D01*
Y102042D01*
Y102096D01*
Y102150D01*
Y102204D01*
X243735D01*
Y102257D01*
Y102311D01*
Y102365D01*
Y102418D01*
Y102472D01*
X243681D01*
Y102526D01*
X243628D01*
Y102580D01*
Y102633D01*
Y102687D01*
Y102741D01*
Y102795D01*
Y102848D01*
X243574D01*
Y102902D01*
Y102956D01*
Y103009D01*
Y103063D01*
Y103117D01*
Y103171D01*
Y103225D01*
Y103278D01*
Y103332D01*
Y103386D01*
X243520D01*
Y103439D01*
Y103493D01*
Y103547D01*
Y103601D01*
Y103654D01*
Y103708D01*
Y103762D01*
Y103815D01*
Y103869D01*
Y103923D01*
Y103977D01*
Y104030D01*
Y104084D01*
Y104138D01*
Y104192D01*
Y104245D01*
Y104299D01*
Y104353D01*
Y104406D01*
Y104460D01*
Y104514D01*
X243574D01*
Y104568D01*
Y104621D01*
Y104675D01*
Y104729D01*
Y104783D01*
Y104836D01*
Y104890D01*
Y104944D01*
Y104998D01*
Y105051D01*
X243628D01*
Y105105D01*
Y105159D01*
Y105212D01*
Y105266D01*
Y105320D01*
Y105374D01*
Y105427D01*
X243681D01*
Y105481D01*
X243735D01*
Y105535D01*
Y105589D01*
Y105642D01*
Y105696D01*
Y105750D01*
X243789D01*
Y105804D01*
Y105857D01*
Y105911D01*
Y105965D01*
Y106018D01*
X243843D01*
Y106072D01*
Y106126D01*
Y106180D01*
Y106233D01*
X243896D01*
Y106287D01*
Y106341D01*
Y106395D01*
X243950D01*
Y106448D01*
Y106502D01*
Y106556D01*
Y106609D01*
X244004D01*
Y106663D01*
Y106717D01*
Y106771D01*
X244057D01*
Y106824D01*
Y106878D01*
Y106932D01*
X244111D01*
Y106986D01*
Y107039D01*
Y107093D01*
X244165D01*
Y107147D01*
Y107201D01*
X244219D01*
Y107254D01*
Y107308D01*
X244272D01*
Y107362D01*
Y107415D01*
Y107469D01*
Y107523D01*
X244326D01*
Y107577D01*
Y107630D01*
X244380D01*
Y107684D01*
Y107738D01*
X244433D01*
Y107791D01*
Y107845D01*
X244487D01*
Y107899D01*
Y107953D01*
X244541D01*
Y108007D01*
X244595D01*
Y108060D01*
Y108114D01*
X244702D01*
Y108168D01*
Y108221D01*
X244756D01*
Y108275D01*
X244810D01*
Y108329D01*
Y108383D01*
Y108436D01*
X244863D01*
Y108490D01*
X244917D01*
Y108544D01*
Y108598D01*
X244971D01*
Y108651D01*
X245024D01*
Y108705D01*
Y108759D01*
X245078D01*
Y108812D01*
X245132D01*
Y108866D01*
X245186D01*
Y108920D01*
X245239D01*
Y108974D01*
Y109027D01*
X245293D01*
Y109081D01*
X245347D01*
Y109135D01*
X245401D01*
Y109188D01*
X245454D01*
Y109242D01*
X245562D01*
Y109296D01*
Y109350D01*
X245616D01*
Y109403D01*
X245669D01*
Y109457D01*
X245723D01*
Y109511D01*
X245777D01*
Y109565D01*
X245884D01*
Y109618D01*
X245938D01*
Y109672D01*
X245992D01*
Y109726D01*
X246045D01*
Y109780D01*
X246153D01*
Y109833D01*
X246207D01*
Y109887D01*
Y109941D01*
X244863D01*
Y109994D01*
X243574D01*
Y110048D01*
X242284D01*
Y110102D01*
X240995D01*
Y110156D01*
X239705D01*
Y110209D01*
X240619D01*
Y110263D01*
X242929D01*
Y110317D01*
X245239D01*
Y110371D01*
X247550D01*
Y110424D01*
X248087D01*
Y110371D01*
X248302D01*
Y110424D01*
Y110478D01*
X248248D01*
Y110532D01*
X248195D01*
Y110585D01*
X248141D01*
Y110639D01*
X248033D01*
Y110693D01*
X247980D01*
Y110747D01*
X247872D01*
Y110800D01*
X247657D01*
Y110854D01*
X247228D01*
Y110908D01*
X246744D01*
Y110962D01*
X246637D01*
Y111015D01*
X246583D01*
Y111069D01*
X246529D01*
Y111123D01*
X246475D01*
Y111177D01*
X246422D01*
Y111230D01*
X246368D01*
Y111284D01*
X246314D01*
Y111338D01*
X246260D01*
Y111391D01*
X246207D01*
Y111445D01*
X246153D01*
Y111499D01*
X246099D01*
Y111553D01*
Y111606D01*
X246045D01*
Y111660D01*
X245992D01*
Y111714D01*
Y111768D01*
X245938D01*
Y111821D01*
Y111875D01*
X245884D01*
Y111929D01*
X245830D01*
Y111983D01*
Y112036D01*
Y112090D01*
X245777D01*
Y112144D01*
X245723D01*
Y112197D01*
Y112251D01*
X245669D01*
Y112305D01*
Y112359D01*
X245616D01*
Y112412D01*
Y112466D01*
X245508D01*
Y112520D01*
X245562D01*
Y112574D01*
X245454D01*
Y112627D01*
X245508D01*
Y112681D01*
X245401D01*
Y112735D01*
Y112788D01*
X245347D01*
Y112842D01*
Y112896D01*
X245293D01*
Y112950D01*
Y113003D01*
X245239D01*
Y113057D01*
Y113111D01*
X245186D01*
Y113165D01*
Y113218D01*
X245132D01*
Y113272D01*
Y113326D01*
X245078D01*
Y113380D01*
Y113433D01*
X245024D01*
Y113487D01*
Y113541D01*
Y113594D01*
X244971D01*
Y113648D01*
Y113702D01*
X244917D01*
Y113756D01*
Y113809D01*
X244863D01*
Y113863D01*
Y113917D01*
Y113970D01*
X244810D01*
Y114024D01*
Y114078D01*
X244756D01*
Y114132D01*
Y114185D01*
Y114239D01*
X244702D01*
Y114293D01*
Y114347D01*
X244648D01*
Y114400D01*
Y114454D01*
X244595D01*
Y114508D01*
X244541D01*
Y114562D01*
Y114615D01*
X244487D01*
Y114669D01*
Y114723D01*
Y114777D01*
X244433D01*
Y114830D01*
Y114884D01*
Y114938D01*
X244380D01*
Y114991D01*
Y115045D01*
Y115099D01*
X244326D01*
Y115153D01*
Y115206D01*
Y115260D01*
X244272D01*
Y115314D01*
Y115367D01*
Y115421D01*
Y115475D01*
Y115529D01*
Y115582D01*
Y115636D01*
Y115690D01*
X244326D01*
Y115744D01*
Y115797D01*
X244380D01*
Y115851D01*
X244487D01*
Y115905D01*
X244595D01*
Y115958D01*
X244810D01*
Y116012D01*
Y116066D01*
X242553D01*
Y116120D01*
X243520D01*
Y116174D01*
X244487D01*
Y116227D01*
X245454D01*
Y116281D01*
X246368D01*
Y116335D01*
X247174D01*
Y116388D01*
X248356D01*
Y116442D01*
X249108D01*
Y116496D01*
X250183D01*
Y116442D01*
X250398D01*
Y116388D01*
X250505D01*
Y116335D01*
X250612D01*
Y116281D01*
X250666D01*
Y116227D01*
X250774D01*
Y116174D01*
X250827D01*
Y116120D01*
X250881D01*
Y116066D01*
X250935D01*
Y116012D01*
X250989D01*
Y115958D01*
Y115905D01*
X251042D01*
Y115851D01*
X251096D01*
Y115797D01*
Y115744D01*
X251150D01*
Y115690D01*
Y115636D01*
X251203D01*
Y115582D01*
Y115529D01*
X251257D01*
Y115475D01*
Y115421D01*
X251311D01*
Y115367D01*
Y115314D01*
X251365D01*
Y115260D01*
Y115206D01*
X251418D01*
Y115153D01*
Y115099D01*
X251472D01*
Y115045D01*
Y114991D01*
X251526D01*
Y114938D01*
Y114884D01*
Y114830D01*
X251580D01*
Y114777D01*
Y114723D01*
X251633D01*
Y114669D01*
Y114615D01*
Y114562D01*
X251687D01*
Y114508D01*
X251741D01*
Y114454D01*
Y114400D01*
X251795D01*
Y114347D01*
Y114293D01*
X251848D01*
Y114239D01*
Y114185D01*
X251902D01*
Y114132D01*
Y114078D01*
Y114024D01*
X251956D01*
Y113970D01*
Y113917D01*
X252010D01*
Y113863D01*
X252063D01*
Y113809D01*
Y113756D01*
Y113702D01*
X252117D01*
Y113648D01*
X252171D01*
Y113594D01*
Y113541D01*
X252278D01*
Y113487D01*
X252547D01*
Y113541D01*
X252601D01*
Y113594D01*
X252708D01*
Y113648D01*
X252762D01*
Y113702D01*
X252869D01*
Y113756D01*
X252923D01*
Y113809D01*
Y113863D01*
X252977D01*
Y113917D01*
X253030D01*
Y113970D01*
X253084D01*
Y114024D01*
X253138D01*
Y114078D01*
X253192D01*
Y114132D01*
Y114185D01*
X253245D01*
Y114239D01*
X253299D01*
Y114293D01*
Y114347D01*
X253353D01*
Y114400D01*
Y114454D01*
Y114508D01*
X253407D01*
Y114562D01*
Y114615D01*
Y114669D01*
Y114723D01*
Y114777D01*
Y114830D01*
Y114884D01*
Y114938D01*
Y114991D01*
Y115045D01*
Y115099D01*
Y115153D01*
Y115206D01*
Y115260D01*
Y115314D01*
Y115367D01*
Y115421D01*
Y115475D01*
Y115529D01*
Y115582D01*
Y115636D01*
Y115690D01*
Y115744D01*
X253460D01*
Y115797D01*
Y115851D01*
Y115905D01*
Y115958D01*
X253568D01*
Y116012D01*
Y116066D01*
Y116120D01*
X253621D01*
Y116174D01*
Y116227D01*
X253675D01*
Y116281D01*
Y116335D01*
X253729D01*
Y116388D01*
X253783D01*
Y116442D01*
X253836D01*
Y116496D01*
Y116550D01*
X253890D01*
Y116603D01*
X253944D01*
Y116657D01*
X253997D01*
Y116711D01*
X254051D01*
Y116764D01*
X254105D01*
Y116818D01*
X254212D01*
Y116872D01*
X254266D01*
Y116926D01*
X254320D01*
Y116979D01*
X254427D01*
Y117033D01*
X254535D01*
Y117087D01*
X254642D01*
Y117141D01*
X254750D01*
Y117194D01*
X254803D01*
Y117248D01*
X254965D01*
Y117302D01*
X255072D01*
Y117356D01*
X255180D01*
Y117409D01*
X255287D01*
Y117463D01*
Y117517D01*
X255395D01*
Y117570D01*
X255502D01*
Y117624D01*
X255663D01*
Y117678D01*
X255771D01*
Y117732D01*
X255878D01*
Y117785D01*
X256039D01*
Y117839D01*
X256201D01*
Y117893D01*
X256415D01*
Y117947D01*
X256738D01*
Y118000D01*
X258189D01*
Y117947D01*
X258726D01*
Y117893D01*
X259156D01*
Y117839D01*
X259478D01*
Y117785D01*
X259800D01*
Y117732D01*
X260123D01*
Y117678D01*
X260391D01*
Y117624D01*
X260660D01*
Y117570D01*
X260929D01*
Y117517D01*
X261197D01*
Y117463D01*
X261251D01*
Y117409D01*
X261520D01*
Y117356D01*
X261788D01*
Y117302D01*
X262541D01*
Y117356D01*
X262809D01*
Y117409D01*
X263024D01*
Y117463D01*
Y117517D01*
X263239D01*
Y117570D01*
X263400D01*
Y117624D01*
X263562D01*
Y117678D01*
X263615D01*
Y117732D01*
X263669D01*
Y117785D01*
Y117839D01*
Y117893D01*
Y117947D01*
X263615D01*
Y118000D01*
Y118054D01*
Y118108D01*
X263562D01*
Y118161D01*
Y118215D01*
X263508D01*
Y118269D01*
Y118323D01*
X263454D01*
Y118376D01*
X263400D01*
Y118430D01*
Y118484D01*
X263347D01*
Y118538D01*
X263293D01*
Y118591D01*
X263239D01*
Y118645D01*
X263132D01*
Y118699D01*
X263078D01*
Y118753D01*
X263024D01*
Y118806D01*
X262970D01*
Y118860D01*
X262863D01*
Y118914D01*
X262702D01*
Y118967D01*
X262541D01*
Y119021D01*
X262326D01*
Y119075D01*
X262111D01*
Y119129D01*
X261896D01*
Y119182D01*
X261627D01*
Y119236D01*
X261412D01*
Y119290D01*
Y119344D01*
X261197D01*
Y119397D01*
X260982D01*
Y119451D01*
X260768D01*
Y119505D01*
X260553D01*
Y119559D01*
X260391D01*
Y119612D01*
X260284D01*
Y119666D01*
X260123D01*
Y119720D01*
X260015D01*
Y119773D01*
X259962D01*
Y119827D01*
X259854D01*
Y119881D01*
X259800D01*
Y119935D01*
X259747D01*
Y119988D01*
X259693D01*
Y120042D01*
X259639D01*
Y120096D01*
Y120150D01*
X259585D01*
Y120203D01*
Y120257D01*
Y120311D01*
Y120364D01*
Y120418D01*
Y120472D01*
Y120526D01*
Y120579D01*
Y120633D01*
X259639D01*
Y120687D01*
Y120741D01*
X259693D01*
Y120794D01*
Y120848D01*
X259747D01*
Y120902D01*
X259800D01*
Y120956D01*
X259854D01*
Y121009D01*
X259908D01*
Y121063D01*
Y121117D01*
X259962D01*
Y121170D01*
X260015D01*
Y121224D01*
X260069D01*
Y121278D01*
Y121332D01*
X260123D01*
Y121385D01*
X260176D01*
Y121439D01*
X260230D01*
Y121493D01*
X260284D01*
Y121546D01*
X260338D01*
Y121600D01*
Y121654D01*
X260391D01*
Y121708D01*
X260445D01*
Y121761D01*
X260499D01*
Y121815D01*
X260553D01*
Y121869D01*
X260606D01*
Y121923D01*
X260660D01*
Y121976D01*
X260714D01*
Y122030D01*
X260768D01*
Y122084D01*
X260821D01*
Y122138D01*
X260875D01*
Y122191D01*
X260929D01*
Y122245D01*
X260982D01*
Y122299D01*
X261036D01*
Y122353D01*
X261090D01*
Y122406D01*
X261144D01*
Y122460D01*
X261197D01*
Y122514D01*
X261251D01*
Y122567D01*
X261359D01*
Y122621D01*
X261412D01*
Y122675D01*
X261466D01*
Y122729D01*
X261574D01*
Y122782D01*
X261627D01*
Y122836D01*
X261735D01*
Y122890D01*
Y122943D01*
X261842D01*
Y122997D01*
Y123051D01*
X261197D01*
Y122997D01*
X260445D01*
Y122943D01*
X259747D01*
Y122890D01*
Y122836D01*
X258995D01*
Y122782D01*
X258296D01*
Y122729D01*
X257597D01*
Y122675D01*
X256845D01*
Y122621D01*
X256147D01*
Y122567D01*
X255395D01*
Y122514D01*
X254696D01*
Y122460D01*
X253997D01*
Y122406D01*
X253245D01*
Y122353D01*
X252547D01*
Y122299D01*
X251795D01*
Y122245D01*
X251096D01*
Y122191D01*
X250344D01*
Y122138D01*
X249645D01*
Y122084D01*
X248893D01*
Y122030D01*
X248195D01*
Y121976D01*
X248141D01*
Y121923D01*
X247496D01*
Y121976D01*
X247550D01*
Y122030D01*
X248087D01*
Y122084D01*
X248624D01*
Y122138D01*
X249108D01*
Y122191D01*
X249699D01*
Y122245D01*
X250183D01*
Y122299D01*
X250720D01*
Y122353D01*
X251257D01*
Y122406D01*
X251795D01*
Y122460D01*
X252332D01*
Y122514D01*
X252869D01*
Y122567D01*
X253407D01*
Y122621D01*
X253944D01*
Y122675D01*
X254481D01*
Y122729D01*
X255018D01*
Y122782D01*
X255556D01*
Y122836D01*
X256093D01*
Y122890D01*
X256147D01*
Y122943D01*
X256630D01*
Y122997D01*
X257168D01*
Y123051D01*
X257705D01*
Y123105D01*
X258242D01*
Y123158D01*
X258780D01*
Y123212D01*
X259317D01*
Y123266D01*
X259854D01*
Y123320D01*
X260391D01*
Y123373D01*
X260929D01*
Y123427D01*
X261466D01*
Y123481D01*
X262003D01*
Y123535D01*
X262487D01*
Y123588D01*
X263078D01*
Y123642D01*
X263454D01*
Y123696D01*
X264314D01*
Y123642D01*
D02*
G37*
%LPC*%
G36*
X264206Y123105D02*
X263669D01*
Y123051D01*
X263347D01*
Y122997D01*
X263185D01*
Y122943D01*
X263024D01*
Y122890D01*
X262970D01*
Y122836D01*
X262863D01*
Y122782D01*
X262756D01*
Y122729D01*
X262648D01*
Y122675D01*
X262541D01*
Y122621D01*
X262433D01*
Y122567D01*
X262380D01*
Y122514D01*
X262272D01*
Y122460D01*
X262165D01*
Y122406D01*
X262111D01*
Y122353D01*
X262003D01*
Y122299D01*
X261950D01*
Y122245D01*
X261896D01*
Y122191D01*
X261788D01*
Y122138D01*
X261735D01*
Y122084D01*
X261681D01*
Y122030D01*
X261627D01*
Y121976D01*
Y121923D01*
X261520D01*
Y121869D01*
X261466D01*
Y121815D01*
X261412D01*
Y121761D01*
X261359D01*
Y121708D01*
X261305D01*
Y121654D01*
X261251D01*
Y121600D01*
X261197D01*
Y121546D01*
X261144D01*
Y121493D01*
X261090D01*
Y121439D01*
X261036D01*
Y121385D01*
X260982D01*
Y121332D01*
X260929D01*
Y121278D01*
X260875D01*
Y121224D01*
X260821D01*
Y121170D01*
X260768D01*
Y121117D01*
Y121063D01*
X260714D01*
Y121009D01*
X260660D01*
Y120956D01*
X260606D01*
Y120902D01*
Y120848D01*
X260553D01*
Y120794D01*
X260445D01*
Y120741D01*
Y120687D01*
X260391D01*
Y120633D01*
X260338D01*
Y120579D01*
X260284D01*
Y120526D01*
Y120472D01*
X260230D01*
Y120418D01*
Y120364D01*
X260338D01*
Y120311D01*
X260445D01*
Y120257D01*
X260553D01*
Y120203D01*
X260660D01*
Y120150D01*
X260714D01*
Y120096D01*
X260875D01*
Y120042D01*
X261090D01*
Y119988D01*
X261305D01*
Y119935D01*
X261520D01*
Y119881D01*
X261735D01*
Y119827D01*
X262003D01*
Y119773D01*
X262218D01*
Y119720D01*
X262433D01*
Y119666D01*
X262648D01*
Y119612D01*
X262863D01*
Y119559D01*
X263024D01*
Y119505D01*
X263132D01*
Y119451D01*
X263239D01*
Y119397D01*
X263347D01*
Y119344D01*
X263400D01*
Y119290D01*
X263454D01*
Y119236D01*
X263508D01*
Y119182D01*
X263562D01*
Y119129D01*
X263615D01*
Y119075D01*
X263669D01*
Y119021D01*
X263723D01*
Y118967D01*
X263776D01*
Y118914D01*
X263830D01*
Y118860D01*
X263884D01*
Y118806D01*
X263938D01*
Y118753D01*
Y118699D01*
X263991D01*
Y118645D01*
X264045D01*
Y118591D01*
Y118538D01*
X264099D01*
Y118484D01*
Y118430D01*
X264153D01*
Y118376D01*
Y118323D01*
Y118269D01*
X264206D01*
Y118215D01*
X264260D01*
Y118161D01*
Y118108D01*
Y118054D01*
Y118000D01*
X264314D01*
Y117947D01*
Y117893D01*
Y117839D01*
Y117785D01*
Y117732D01*
Y117678D01*
X264260D01*
Y117624D01*
Y117570D01*
Y117517D01*
X264206D01*
Y117463D01*
X264153D01*
Y117409D01*
Y117356D01*
X264099D01*
Y117302D01*
Y117248D01*
Y117194D01*
X263991D01*
Y117141D01*
X263938D01*
Y117087D01*
X263884D01*
Y117033D01*
X263723D01*
Y116979D01*
X263562D01*
Y116926D01*
X263347D01*
Y116872D01*
X263132D01*
Y116818D01*
X262917D01*
Y116764D01*
X262648D01*
Y116711D01*
X261681D01*
Y116764D01*
X261412D01*
Y116818D01*
X261144D01*
Y116872D01*
X260875D01*
Y116926D01*
X260606D01*
Y116979D01*
X260284D01*
Y117033D01*
X260015D01*
Y117087D01*
X259747D01*
Y117141D01*
X259371D01*
Y117194D01*
X259048D01*
Y117248D01*
X258672D01*
Y117302D01*
X258135D01*
Y117356D01*
X256845D01*
Y117302D01*
X256523D01*
Y117248D01*
X256362D01*
Y117194D01*
X256201D01*
Y117141D01*
X256093D01*
Y117087D01*
X255932D01*
Y117033D01*
X255824D01*
Y116979D01*
X255717D01*
Y116926D01*
X255556D01*
Y116872D01*
X255448D01*
Y116818D01*
X255341D01*
Y116764D01*
X255233D01*
Y116711D01*
X255126D01*
Y116657D01*
X255018D01*
Y116603D01*
X254911D01*
Y116550D01*
Y116496D01*
X254803D01*
Y116442D01*
X254750D01*
Y116388D01*
X254642D01*
Y116335D01*
X254589D01*
Y116281D01*
X254481D01*
Y116227D01*
X254427D01*
Y116174D01*
X254374D01*
Y116120D01*
X254320D01*
Y116066D01*
X254212D01*
Y116012D01*
Y115958D01*
X254159D01*
Y115905D01*
Y115851D01*
X254105D01*
Y115797D01*
Y115744D01*
Y115690D01*
Y115636D01*
X254051D01*
Y115582D01*
Y115529D01*
Y115475D01*
Y115421D01*
Y115367D01*
Y115314D01*
Y115260D01*
Y115206D01*
Y115153D01*
Y115099D01*
Y115045D01*
Y114991D01*
Y114938D01*
Y114884D01*
Y114830D01*
Y114777D01*
Y114723D01*
Y114669D01*
Y114615D01*
Y114562D01*
Y114508D01*
Y114454D01*
X253997D01*
Y114400D01*
Y114347D01*
Y114293D01*
Y114239D01*
X253944D01*
Y114185D01*
Y114132D01*
X253890D01*
Y114078D01*
Y114024D01*
X253836D01*
Y113970D01*
Y113917D01*
X253783D01*
Y113863D01*
Y113809D01*
X253729D01*
Y113756D01*
Y113702D01*
X253675D01*
Y113648D01*
X253621D01*
Y113594D01*
X253568D01*
Y113541D01*
X253514D01*
Y113487D01*
X253460D01*
Y113433D01*
X253407D01*
Y113380D01*
X253353D01*
Y113326D01*
X253299D01*
Y113272D01*
X253245D01*
Y113218D01*
X253192D01*
Y113165D01*
X253084D01*
Y113111D01*
X253030D01*
Y113057D01*
X252923D01*
Y113003D01*
X252816D01*
Y112950D01*
Y112896D01*
X252708D01*
Y112842D01*
X252117D01*
Y112896D01*
X252010D01*
Y112950D01*
X251956D01*
Y113003D01*
X251848D01*
Y113057D01*
X251795D01*
Y113111D01*
X251741D01*
Y113165D01*
X251687D01*
Y113218D01*
X251633D01*
Y113272D01*
X251580D01*
Y113326D01*
Y113380D01*
X251526D01*
Y113433D01*
X251472D01*
Y113487D01*
Y113541D01*
X251418D01*
Y113594D01*
Y113648D01*
X251365D01*
Y113702D01*
Y113756D01*
X251311D01*
Y113809D01*
Y113863D01*
Y113917D01*
X251257D01*
Y113970D01*
Y114024D01*
X251203D01*
Y114078D01*
Y114132D01*
Y114185D01*
X251150D01*
Y114239D01*
Y114293D01*
X251096D01*
Y114347D01*
Y114400D01*
X251042D01*
Y114454D01*
Y114508D01*
Y114562D01*
X250989D01*
Y114615D01*
Y114669D01*
X250935D01*
Y114723D01*
Y114777D01*
Y114830D01*
X250881D01*
Y114884D01*
Y114938D01*
X250827D01*
Y114991D01*
X250774D01*
Y115045D01*
Y115099D01*
X250720D01*
Y115153D01*
X250666D01*
Y115206D01*
Y115260D01*
X250612D01*
Y115314D01*
Y115367D01*
X250559D01*
Y115421D01*
X250505D01*
Y115475D01*
Y115529D01*
X250451D01*
Y115582D01*
X250398D01*
Y115636D01*
Y115690D01*
X250344D01*
Y115744D01*
X250290D01*
Y115797D01*
X250236D01*
Y115851D01*
X250075D01*
Y115905D01*
X248356D01*
Y115851D01*
X247657D01*
Y115797D01*
X247120D01*
Y115744D01*
X246637D01*
Y115690D01*
X246260D01*
Y115636D01*
X246207D01*
Y115582D01*
X245884D01*
Y115529D01*
X245562D01*
Y115475D01*
X245293D01*
Y115421D01*
X245078D01*
Y115367D01*
X244971D01*
Y115314D01*
Y115260D01*
Y115206D01*
Y115153D01*
X245024D01*
Y115099D01*
Y115045D01*
X245078D01*
Y114991D01*
Y114938D01*
Y114884D01*
X245132D01*
Y114830D01*
Y114777D01*
X245186D01*
Y114723D01*
Y114669D01*
Y114615D01*
Y114562D01*
X245239D01*
Y114508D01*
Y114454D01*
X245293D01*
Y114400D01*
Y114347D01*
X245347D01*
Y114293D01*
Y114239D01*
X245401D01*
Y114185D01*
X245454D01*
Y114132D01*
X245401D01*
Y114078D01*
X245508D01*
Y114024D01*
Y113970D01*
X245562D01*
Y113917D01*
Y113863D01*
X245616D01*
Y113809D01*
Y113756D01*
Y113702D01*
X245669D01*
Y113648D01*
Y113594D01*
X245723D01*
Y113541D01*
Y113487D01*
X245777D01*
Y113433D01*
Y113380D01*
X245830D01*
Y113326D01*
Y113272D01*
X245884D01*
Y113218D01*
Y113165D01*
X245938D01*
Y113111D01*
Y113057D01*
X245992D01*
Y113003D01*
Y112950D01*
X246045D01*
Y112896D01*
Y112842D01*
X246099D01*
Y112788D01*
Y112735D01*
Y112681D01*
X246153D01*
Y112627D01*
X246207D01*
Y112574D01*
Y112520D01*
X246260D01*
Y112466D01*
Y112412D01*
X246368D01*
Y112359D01*
Y112305D01*
X246422D01*
Y112251D01*
X246475D01*
Y112197D01*
Y112144D01*
X246529D01*
Y112090D01*
X246583D01*
Y112036D01*
Y111983D01*
Y111929D01*
X246637D01*
Y111875D01*
X246690D01*
Y111821D01*
Y111768D01*
X246744D01*
Y111714D01*
X246798D01*
Y111660D01*
X246851D01*
Y111606D01*
X246905D01*
Y111553D01*
X247281D01*
Y111499D01*
X247765D01*
Y111445D01*
X248033D01*
Y111391D01*
X248195D01*
Y111338D01*
X248302D01*
Y111284D01*
X248356D01*
Y111230D01*
X248410D01*
Y111177D01*
X248517D01*
Y111123D01*
Y111069D01*
X248571D01*
Y111015D01*
X248624D01*
Y110962D01*
X248678D01*
Y110908D01*
X248732D01*
Y110854D01*
X248786D01*
Y110800D01*
X248839D01*
Y110747D01*
X248893D01*
Y110693D01*
X248947D01*
Y110639D01*
X249001D01*
Y110585D01*
X249054D01*
Y110532D01*
X249108D01*
Y110478D01*
Y110424D01*
X249162D01*
Y110371D01*
X249216D01*
Y110317D01*
X249269D01*
Y110263D01*
X249323D01*
Y110209D01*
Y110156D01*
Y110102D01*
X249377D01*
Y110048D01*
X249430D01*
Y109994D01*
X249484D01*
Y109941D01*
X249538D01*
Y109887D01*
Y109833D01*
X249592D01*
Y109780D01*
X249645D01*
Y109726D01*
X249699D01*
Y109672D01*
X249753D01*
Y109618D01*
Y109565D01*
Y109511D01*
Y109457D01*
Y109403D01*
Y109350D01*
Y109296D01*
Y109242D01*
X249699D01*
Y109188D01*
X249645D01*
Y109135D01*
X249323D01*
Y109188D01*
X249269D01*
Y109242D01*
X249216D01*
Y109296D01*
X249162D01*
Y109350D01*
X249108D01*
Y109403D01*
X249001D01*
Y109457D01*
X248947D01*
Y109511D01*
X248839D01*
Y109565D01*
X248678D01*
Y109618D01*
X248571D01*
Y109672D01*
X248356D01*
Y109726D01*
X248033D01*
Y109780D01*
X247765D01*
Y109726D01*
X247389D01*
Y109672D01*
X247228D01*
Y109618D01*
X247066D01*
Y109565D01*
X246959D01*
Y109511D01*
X246798D01*
Y109457D01*
X246744D01*
Y109403D01*
X246637D01*
Y109350D01*
X246529D01*
Y109296D01*
Y109242D01*
X246475D01*
Y109188D01*
X246368D01*
Y109135D01*
X246314D01*
Y109081D01*
X246260D01*
Y109027D01*
X246153D01*
Y108974D01*
X246099D01*
Y108920D01*
X246045D01*
Y108866D01*
X245992D01*
Y108812D01*
X245938D01*
Y108759D01*
X245884D01*
Y108705D01*
X245830D01*
Y108651D01*
X245777D01*
Y108598D01*
X245723D01*
Y108544D01*
X245669D01*
Y108490D01*
X245616D01*
Y108436D01*
Y108383D01*
Y108329D01*
X245562D01*
Y108275D01*
X245508D01*
Y108221D01*
X245454D01*
Y108168D01*
Y108114D01*
X245401D01*
Y108060D01*
X245347D01*
Y108007D01*
X245293D01*
Y107953D01*
X245239D01*
Y107899D01*
Y107845D01*
X245186D01*
Y107791D01*
Y107738D01*
X245132D01*
Y107684D01*
X245078D01*
Y107630D01*
Y107577D01*
X245024D01*
Y107523D01*
Y107469D01*
Y107415D01*
X244971D01*
Y107362D01*
Y107308D01*
X244917D01*
Y107254D01*
Y107201D01*
X244863D01*
Y107147D01*
Y107093D01*
X244810D01*
Y107039D01*
Y106986D01*
Y106932D01*
X244756D01*
Y106878D01*
Y106824D01*
X244702D01*
Y106771D01*
Y106717D01*
X244648D01*
Y106663D01*
Y106609D01*
Y106556D01*
Y106502D01*
X244595D01*
Y106448D01*
X244541D01*
Y106395D01*
X244595D01*
Y106341D01*
X244541D01*
Y106287D01*
X244487D01*
Y106233D01*
Y106180D01*
Y106126D01*
X244433D01*
Y106072D01*
Y106018D01*
Y105965D01*
Y105911D01*
X244380D01*
Y105857D01*
Y105804D01*
Y105750D01*
Y105696D01*
Y105642D01*
X244326D01*
Y105589D01*
Y105535D01*
Y105481D01*
Y105427D01*
Y105374D01*
X244272D01*
Y105320D01*
Y105266D01*
Y105212D01*
Y105159D01*
Y105105D01*
Y105051D01*
X244219D01*
Y104998D01*
Y104944D01*
Y104890D01*
Y104836D01*
Y104783D01*
Y104729D01*
Y104675D01*
Y104621D01*
Y104568D01*
Y104514D01*
X244165D01*
Y104460D01*
Y104406D01*
Y104353D01*
Y104299D01*
Y104245D01*
Y104192D01*
Y104138D01*
Y104084D01*
Y104030D01*
Y103977D01*
Y103923D01*
Y103869D01*
Y103815D01*
Y103762D01*
Y103708D01*
Y103654D01*
Y103601D01*
Y103547D01*
Y103493D01*
Y103439D01*
Y103386D01*
X244219D01*
Y103332D01*
Y103278D01*
Y103225D01*
Y103171D01*
Y103117D01*
Y103063D01*
Y103009D01*
Y102956D01*
Y102902D01*
Y102848D01*
X244272D01*
Y102795D01*
Y102741D01*
Y102687D01*
Y102633D01*
Y102580D01*
Y102526D01*
X244326D01*
Y102472D01*
Y102418D01*
Y102365D01*
Y102311D01*
X244380D01*
Y102257D01*
Y102204D01*
Y102150D01*
Y102096D01*
X244433D01*
Y102042D01*
Y101989D01*
Y101935D01*
Y101881D01*
X244487D01*
Y101828D01*
Y101774D01*
Y101720D01*
X244541D01*
Y101666D01*
X244595D01*
Y101612D01*
Y101559D01*
X244648D01*
Y101505D01*
Y101451D01*
X244702D01*
Y101398D01*
Y101344D01*
X244756D01*
Y101290D01*
Y101236D01*
X244810D01*
Y101183D01*
Y101129D01*
Y101075D01*
X244863D01*
Y101022D01*
Y100968D01*
X244917D01*
Y100914D01*
Y100860D01*
X244971D01*
Y100807D01*
X245024D01*
Y100753D01*
Y100699D01*
X245078D01*
Y100645D01*
X245132D01*
Y100592D01*
Y100538D01*
X245186D01*
Y100484D01*
X245239D01*
Y100431D01*
X245293D01*
Y100377D01*
X245347D01*
Y100323D01*
X245401D01*
Y100269D01*
X245454D01*
Y100216D01*
X245508D01*
Y100162D01*
X245562D01*
Y100108D01*
X245616D01*
Y100054D01*
X245669D01*
Y100001D01*
X245777D01*
Y99947D01*
X245830D01*
Y99893D01*
X245938D01*
Y99839D01*
X246045D01*
Y99786D01*
X246207D01*
Y99732D01*
X246314D01*
Y99678D01*
X246529D01*
Y99625D01*
X247335D01*
Y99678D01*
X247604D01*
Y99732D01*
X247765D01*
Y99786D01*
X247926D01*
Y99839D01*
X248087D01*
Y99893D01*
X248195D01*
Y99947D01*
X248302D01*
Y100001D01*
X248410D01*
Y100054D01*
X248517D01*
Y100108D01*
X248571D01*
Y100162D01*
X248678D01*
Y100216D01*
Y100269D01*
X248732D01*
Y100323D01*
X248839D01*
Y100377D01*
Y100431D01*
X248947D01*
Y100484D01*
X249001D01*
Y100538D01*
X249054D01*
Y100592D01*
X249108D01*
Y100645D01*
X249162D01*
Y100699D01*
X249216D01*
Y100753D01*
X249269D01*
Y100807D01*
Y100860D01*
X249323D01*
Y100914D01*
X249377D01*
Y100968D01*
Y101022D01*
X249430D01*
Y101075D01*
Y101129D01*
Y101183D01*
X249484D01*
Y101236D01*
Y101290D01*
Y101344D01*
X249538D01*
Y101398D01*
X249592D01*
Y101451D01*
X249699D01*
Y101505D01*
X249914D01*
Y101451D01*
X250451D01*
Y101398D01*
X250989D01*
Y101344D01*
X251526D01*
Y101290D01*
X252063D01*
Y101236D01*
X252601D01*
Y101183D01*
X253138D01*
Y101129D01*
X253192D01*
Y101075D01*
X253729D01*
Y101022D01*
X254320D01*
Y100968D01*
X254857D01*
Y100914D01*
X255502D01*
Y100860D01*
X256093D01*
Y100807D01*
X256684D01*
Y100753D01*
X257329D01*
Y100699D01*
X258027D01*
Y100645D01*
X258780D01*
Y100592D01*
X260284D01*
Y100645D01*
X260553D01*
Y100699D01*
X260768D01*
Y100753D01*
X260875D01*
Y100807D01*
X260929D01*
Y100860D01*
X261305D01*
Y100807D01*
X261359D01*
Y100753D01*
Y100699D01*
X261412D01*
Y100645D01*
Y100592D01*
Y100538D01*
X261466D01*
Y100484D01*
Y100431D01*
Y100377D01*
X261574D01*
Y100323D01*
Y100269D01*
Y100216D01*
Y100162D01*
X261627D01*
Y100108D01*
Y100054D01*
X261681D01*
Y100001D01*
Y99947D01*
X261735D01*
Y99893D01*
Y99839D01*
X261788D01*
Y99786D01*
X261842D01*
Y99732D01*
Y99678D01*
Y99625D01*
X261896D01*
Y99571D01*
X261950D01*
Y99517D01*
Y99463D01*
X262003D01*
Y99410D01*
Y99356D01*
X262057D01*
Y99302D01*
Y99248D01*
X262111D01*
Y99195D01*
X262165D01*
Y99141D01*
Y99087D01*
X262218D01*
Y99033D01*
X262272D01*
Y98980D01*
X262326D01*
Y98926D01*
X262380D01*
Y98872D01*
X262433D01*
Y98819D01*
X262487D01*
Y98765D01*
X262541D01*
Y98711D01*
X262594D01*
Y98657D01*
X262648D01*
Y98604D01*
X262702D01*
Y98550D01*
X262756D01*
Y98496D01*
X262809D01*
Y98442D01*
X262863D01*
Y98389D01*
X262917D01*
Y98335D01*
X262970D01*
Y98281D01*
X263024D01*
Y98228D01*
X263132D01*
Y98174D01*
X263239D01*
Y98120D01*
X263293D01*
Y98066D01*
X263400D01*
Y98013D01*
X263454D01*
Y97959D01*
X263562D01*
Y97905D01*
X263669D01*
Y97851D01*
X263830D01*
Y97798D01*
X263938D01*
Y97744D01*
X264045D01*
Y97690D01*
X264206D01*
Y97636D01*
X264368D01*
Y97583D01*
X264529D01*
Y97529D01*
Y97475D01*
X264797D01*
Y97422D01*
X265012D01*
Y97368D01*
X265442D01*
Y97314D01*
X266302D01*
Y97368D01*
X266678D01*
Y97422D01*
X266947D01*
Y97475D01*
X267108D01*
Y97529D01*
X267161D01*
Y97583D01*
X267323D01*
Y97636D01*
X267484D01*
Y97690D01*
X267591D01*
Y97744D01*
X267699D01*
Y97798D01*
X267860D01*
Y97851D01*
X267967D01*
Y97905D01*
X268075D01*
Y97959D01*
X268182D01*
Y98013D01*
X268236D01*
Y98066D01*
X268343D01*
Y98120D01*
X268451D01*
Y98174D01*
X268505D01*
Y98228D01*
X268612D01*
Y98281D01*
X268666D01*
Y98335D01*
X268773D01*
Y98389D01*
X268827D01*
Y98442D01*
X268881D01*
Y98496D01*
X268935D01*
Y98550D01*
X268988D01*
Y98604D01*
X269042D01*
Y98657D01*
X269096D01*
Y98711D01*
X269149D01*
Y98765D01*
X269257D01*
Y98819D01*
X269311D01*
Y98872D01*
X269364D01*
Y98926D01*
X269418D01*
Y98980D01*
X269472D01*
Y99033D01*
Y99087D01*
X269579D01*
Y99141D01*
X269633D01*
Y99195D01*
X269687D01*
Y99248D01*
X269741D01*
Y99302D01*
Y99356D01*
X269794D01*
Y99410D01*
X269848D01*
Y99463D01*
Y99517D01*
X269902D01*
Y99571D01*
X269955D01*
Y99625D01*
X270009D01*
Y99678D01*
X270063D01*
Y99732D01*
Y99786D01*
X270117D01*
Y99839D01*
X270170D01*
Y99893D01*
Y99947D01*
X270224D01*
Y100001D01*
X270278D01*
Y100054D01*
Y100108D01*
X270332D01*
Y100162D01*
X270385D01*
Y100216D01*
Y100269D01*
Y100323D01*
X270439D01*
Y100377D01*
X270493D01*
Y100431D01*
Y100484D01*
X270600D01*
Y100538D01*
Y100592D01*
X270654D01*
Y100645D01*
Y100699D01*
X270708D01*
Y100753D01*
Y100807D01*
Y100860D01*
X270761D01*
Y100914D01*
Y100968D01*
X270815D01*
Y101022D01*
Y101075D01*
X270869D01*
Y101129D01*
Y101183D01*
Y101236D01*
X270923D01*
Y101290D01*
Y101344D01*
X270976D01*
Y101398D01*
Y101451D01*
Y101505D01*
X271030D01*
Y101559D01*
Y101612D01*
Y101666D01*
X271084D01*
Y101720D01*
Y101774D01*
Y101828D01*
X271137D01*
Y101881D01*
Y101935D01*
Y101989D01*
X271191D01*
Y102042D01*
Y102096D01*
Y102150D01*
Y102204D01*
X271245D01*
Y102257D01*
Y102311D01*
Y102365D01*
X271299D01*
Y102418D01*
Y102472D01*
Y102526D01*
Y102580D01*
Y102633D01*
X271352D01*
Y102687D01*
Y102741D01*
X271406D01*
Y102795D01*
Y102848D01*
Y102902D01*
Y102956D01*
X271460D01*
Y103009D01*
Y103063D01*
Y103117D01*
Y103171D01*
Y103225D01*
Y103278D01*
X271514D01*
Y103332D01*
Y103386D01*
Y103439D01*
Y103493D01*
Y103547D01*
Y103601D01*
Y103654D01*
Y103708D01*
Y103762D01*
Y103815D01*
X271567D01*
Y103869D01*
Y103923D01*
Y103977D01*
Y104030D01*
Y104084D01*
Y104138D01*
Y104192D01*
Y104245D01*
Y104299D01*
Y104353D01*
Y104406D01*
Y104460D01*
Y104514D01*
Y104568D01*
Y104621D01*
Y104675D01*
Y104729D01*
Y104783D01*
Y104836D01*
Y104890D01*
Y104944D01*
Y104998D01*
Y105051D01*
Y105105D01*
Y105159D01*
X271514D01*
Y105212D01*
Y105266D01*
Y105320D01*
Y105374D01*
Y105427D01*
Y105481D01*
Y105535D01*
Y105589D01*
Y105642D01*
X271460D01*
Y105696D01*
Y105750D01*
Y105804D01*
Y105857D01*
Y105911D01*
Y105965D01*
Y106018D01*
X271352D01*
Y106072D01*
X271406D01*
Y106126D01*
Y106180D01*
Y106233D01*
X271352D01*
Y106287D01*
X271299D01*
Y106341D01*
Y106395D01*
Y106448D01*
Y106502D01*
X271245D01*
Y106556D01*
Y106609D01*
Y106663D01*
Y106717D01*
X271191D01*
Y106771D01*
Y106824D01*
Y106878D01*
X271137D01*
Y106932D01*
Y106986D01*
Y107039D01*
X271084D01*
Y107093D01*
Y107147D01*
Y107201D01*
X271030D01*
Y107254D01*
Y107308D01*
X270976D01*
Y107362D01*
Y107415D01*
Y107469D01*
X270923D01*
Y107523D01*
Y107577D01*
Y107630D01*
X270869D01*
Y107684D01*
Y107738D01*
X270815D01*
Y107791D01*
Y107845D01*
X270761D01*
Y107899D01*
Y107953D01*
X270708D01*
Y108007D01*
Y108060D01*
X270654D01*
Y108114D01*
X270600D01*
Y108168D01*
Y108221D01*
X270547D01*
Y108275D01*
Y108329D01*
X270439D01*
Y108383D01*
Y108436D01*
Y108490D01*
X270385D01*
Y108544D01*
X270332D01*
Y108598D01*
X270278D01*
Y108651D01*
Y108705D01*
Y108759D01*
X270224D01*
Y108812D01*
X270278D01*
Y108866D01*
Y108920D01*
Y108974D01*
X270332D01*
Y109027D01*
X270439D01*
Y109081D01*
X270493D01*
Y109135D01*
X270547D01*
Y109188D01*
Y109242D01*
Y109296D01*
Y109350D01*
X270493D01*
Y109403D01*
X270439D01*
Y109457D01*
X270385D01*
Y109511D01*
X270332D01*
Y109565D01*
X270278D01*
Y109618D01*
X270224D01*
Y109672D01*
X270117D01*
Y109726D01*
X270063D01*
Y109780D01*
X269955D01*
Y109833D01*
X269902D01*
Y109887D01*
X269794D01*
Y109941D01*
X269687D01*
Y109994D01*
X269579D01*
Y110048D01*
X269526D01*
Y110102D01*
X269364D01*
Y110156D01*
X269311D01*
Y110209D01*
X269257D01*
Y110263D01*
X269149D01*
Y110317D01*
X269042D01*
Y110371D01*
X268881D01*
Y110424D01*
X268720D01*
Y110478D01*
X268559D01*
Y110532D01*
X268451D01*
Y110585D01*
X268236D01*
Y110639D01*
X268021D01*
Y110693D01*
X267753D01*
Y110747D01*
X267430D01*
Y110800D01*
X267376D01*
Y110854D01*
X267323D01*
Y110908D01*
X267269D01*
Y110962D01*
Y111015D01*
Y111069D01*
Y111123D01*
Y111177D01*
Y111230D01*
X267323D01*
Y111284D01*
X267376D01*
Y111338D01*
Y111391D01*
X267484D01*
Y111445D01*
X267538D01*
Y111499D01*
X267591D01*
Y111553D01*
X267699D01*
Y111606D01*
X267753D01*
Y111660D01*
X267860D01*
Y111714D01*
X267914D01*
Y111768D01*
X268021D01*
Y111821D01*
X268075D01*
Y111875D01*
X268182D01*
Y111929D01*
X268290D01*
Y111983D01*
X268343D01*
Y112036D01*
Y112090D01*
X268451D01*
Y112144D01*
X268505D01*
Y112197D01*
X268559D01*
Y112251D01*
X268666D01*
Y112305D01*
X268720D01*
Y112359D01*
X268827D01*
Y112412D01*
X268881D01*
Y112466D01*
X268988D01*
Y112520D01*
X269042D01*
Y112574D01*
X269149D01*
Y112627D01*
X269203D01*
Y112681D01*
X269257D01*
Y112735D01*
X269311D01*
Y112788D01*
X269418D01*
Y112842D01*
X269472D01*
Y112896D01*
X269526D01*
Y112950D01*
Y113003D01*
X269579D01*
Y113057D01*
X269633D01*
Y113111D01*
X269741D01*
Y113165D01*
X269794D01*
Y113218D01*
Y113272D01*
X269848D01*
Y113326D01*
Y113380D01*
Y113433D01*
X269902D01*
Y113487D01*
Y113541D01*
Y113594D01*
Y113648D01*
Y113702D01*
X269955D01*
Y113756D01*
Y113809D01*
Y113863D01*
Y113917D01*
Y113970D01*
Y114024D01*
Y114078D01*
Y114132D01*
Y114185D01*
Y114239D01*
Y114293D01*
Y114347D01*
Y114400D01*
Y114454D01*
Y114508D01*
Y114562D01*
Y114615D01*
Y114669D01*
Y114723D01*
Y114777D01*
Y114830D01*
Y114884D01*
Y114938D01*
Y114991D01*
Y115045D01*
X269902D01*
Y115099D01*
Y115153D01*
Y115206D01*
Y115260D01*
Y115314D01*
Y115367D01*
Y115421D01*
Y115475D01*
X269848D01*
Y115529D01*
Y115582D01*
Y115636D01*
Y115690D01*
Y115744D01*
Y115797D01*
Y115851D01*
X269794D01*
Y115905D01*
Y115958D01*
Y116012D01*
Y116066D01*
Y116120D01*
Y116174D01*
X269741D01*
Y116227D01*
Y116281D01*
Y116335D01*
Y116388D01*
Y116442D01*
X269687D01*
Y116496D01*
Y116550D01*
Y116603D01*
Y116657D01*
X269633D01*
Y116711D01*
Y116764D01*
Y116818D01*
Y116872D01*
X269579D01*
Y116926D01*
X269526D01*
Y116979D01*
Y117033D01*
Y117087D01*
Y117141D01*
X269472D01*
Y117194D01*
Y117248D01*
Y117302D01*
X269418D01*
Y117356D01*
Y117409D01*
Y117463D01*
Y117517D01*
X269364D01*
Y117570D01*
Y117624D01*
Y117678D01*
X269311D01*
Y117732D01*
Y117785D01*
Y117839D01*
X269257D01*
Y117893D01*
Y117947D01*
X269203D01*
Y118000D01*
Y118054D01*
Y118108D01*
X269149D01*
Y118161D01*
Y118215D01*
X269096D01*
Y118269D01*
X269042D01*
Y118323D01*
Y118376D01*
Y118430D01*
X268988D01*
Y118484D01*
X268935D01*
Y118538D01*
Y118591D01*
X268881D01*
Y118645D01*
X268827D01*
Y118699D01*
X268773D01*
Y118753D01*
X268720D01*
Y118806D01*
X268666D01*
Y118860D01*
X268612D01*
Y118914D01*
X268559D01*
Y118967D01*
X268505D01*
Y119021D01*
Y119075D01*
X268451D01*
Y119129D01*
X268397D01*
Y119182D01*
X268343D01*
Y119236D01*
X268290D01*
Y119290D01*
Y119344D01*
X268236D01*
Y119397D01*
X268182D01*
Y119451D01*
Y119505D01*
X268129D01*
Y119559D01*
X268075D01*
Y119612D01*
X268021D01*
Y119666D01*
X267967D01*
Y119720D01*
X267914D01*
Y119773D01*
X267860D01*
Y119827D01*
X267806D01*
Y119881D01*
X267753D01*
Y119935D01*
X267699D01*
Y119988D01*
X267645D01*
Y120042D01*
X267591D01*
Y120096D01*
X267538D01*
Y120150D01*
Y120203D01*
X267484D01*
Y120257D01*
X267430D01*
Y120311D01*
Y120364D01*
X267376D01*
Y120418D01*
X267323D01*
Y120472D01*
X267269D01*
Y120526D01*
X267215D01*
Y120579D01*
X267161D01*
Y120633D01*
X267108D01*
Y120687D01*
X267054D01*
Y120741D01*
X266947D01*
Y120794D01*
Y120848D01*
X266893D01*
Y120902D01*
X266839D01*
Y120956D01*
X266785D01*
Y121009D01*
X266732D01*
Y121063D01*
X266678D01*
Y121117D01*
Y121170D01*
X266624D01*
Y121224D01*
X266570D01*
Y121278D01*
X266517D01*
Y121332D01*
X266463D01*
Y121385D01*
X266355D01*
Y121439D01*
X266302D01*
Y121493D01*
X266248D01*
Y121546D01*
X266194D01*
Y121600D01*
X266141D01*
Y121654D01*
X266087D01*
Y121708D01*
X266033D01*
Y121761D01*
X265979D01*
Y121815D01*
X265926D01*
Y121869D01*
X265872D01*
Y121923D01*
X265818D01*
Y121976D01*
X265764D01*
Y122030D01*
X265711D01*
Y122084D01*
X265657D01*
Y122138D01*
X265603D01*
Y122191D01*
X265549D01*
Y122245D01*
X265442D01*
Y122299D01*
X265388D01*
Y122353D01*
X265335D01*
Y122406D01*
X265227D01*
Y122460D01*
X265173D01*
Y122514D01*
X265120D01*
Y122567D01*
X265066D01*
Y122621D01*
X264959D01*
Y122675D01*
X264905D01*
Y122729D01*
X264797D01*
Y122782D01*
X264744D01*
Y122836D01*
X264636D01*
Y122890D01*
Y122943D01*
X264529D01*
Y122997D01*
X264368D01*
Y123051D01*
X264206D01*
Y123105D01*
D02*
G37*
G36*
X250344Y100807D02*
X249968D01*
Y100753D01*
Y100699D01*
X249914D01*
Y100645D01*
Y100592D01*
X249860D01*
Y100538D01*
X249807D01*
Y100484D01*
X249753D01*
Y100431D01*
X249699D01*
Y100377D01*
Y100323D01*
X249645D01*
Y100269D01*
Y100216D01*
X249592D01*
Y100162D01*
X249538D01*
Y100108D01*
X249484D01*
Y100054D01*
X249430D01*
Y100001D01*
X249377D01*
Y99947D01*
X249323D01*
Y99893D01*
X249269D01*
Y99839D01*
X249216D01*
Y99786D01*
X249108D01*
Y99732D01*
X249054D01*
Y99678D01*
X248947D01*
Y99625D01*
X248893D01*
Y99571D01*
X248786D01*
Y99517D01*
X248678D01*
Y99463D01*
X248571D01*
Y99410D01*
X248463D01*
Y99356D01*
Y99302D01*
X248356D01*
Y99248D01*
X248195D01*
Y99195D01*
X248087D01*
Y99141D01*
X247872D01*
Y99087D01*
X247818D01*
Y99033D01*
Y98980D01*
X248517D01*
Y98926D01*
X249054D01*
Y98872D01*
X249645D01*
Y98819D01*
X250236D01*
Y98765D01*
X250774D01*
Y98711D01*
X251365D01*
Y98657D01*
X251956D01*
Y98604D01*
X252493D01*
Y98550D01*
X253084D01*
Y98496D01*
X253621D01*
Y98442D01*
X253675D01*
Y98389D01*
X254212D01*
Y98335D01*
X254803D01*
Y98281D01*
X255395D01*
Y98228D01*
X255986D01*
Y98174D01*
X256577D01*
Y98120D01*
X257114D01*
Y98066D01*
X257705D01*
Y98013D01*
X258296D01*
Y97959D01*
X258887D01*
Y97905D01*
X259478D01*
Y97851D01*
X260015D01*
Y97798D01*
X260606D01*
Y97744D01*
X261197D01*
Y97690D01*
X261735D01*
Y97636D01*
X262326D01*
Y97583D01*
X262863D01*
Y97529D01*
X262970D01*
Y97583D01*
X262863D01*
Y97636D01*
Y97690D01*
X262756D01*
Y97744D01*
X262648D01*
Y97798D01*
X262594D01*
Y97851D01*
X262487D01*
Y97905D01*
X262433D01*
Y97959D01*
X262380D01*
Y98013D01*
X262326D01*
Y98066D01*
X262272D01*
Y98120D01*
X262218D01*
Y98174D01*
X262165D01*
Y98228D01*
X262111D01*
Y98281D01*
X262057D01*
Y98335D01*
X262003D01*
Y98389D01*
X261950D01*
Y98442D01*
Y98496D01*
X261896D01*
Y98550D01*
X261842D01*
Y98604D01*
X261788D01*
Y98657D01*
Y98711D01*
X261735D01*
Y98765D01*
X261681D01*
Y98819D01*
X261627D01*
Y98872D01*
X261574D01*
Y98926D01*
X261520D01*
Y98980D01*
X261466D01*
Y99033D01*
Y99087D01*
X261412D01*
Y99141D01*
Y99195D01*
X261359D01*
Y99248D01*
X261305D01*
Y99302D01*
Y99356D01*
Y99410D01*
X261251D01*
Y99463D01*
Y99517D01*
X261197D01*
Y99571D01*
Y99625D01*
X261144D01*
Y99678D01*
Y99732D01*
X261090D01*
Y99786D01*
Y99839D01*
X261036D01*
Y99893D01*
Y99947D01*
X260982D01*
Y100001D01*
Y100054D01*
Y100108D01*
X260929D01*
Y100054D01*
X260714D01*
Y100001D01*
X260338D01*
Y99947D01*
X258726D01*
Y100001D01*
X257974D01*
Y100054D01*
X257275D01*
Y100108D01*
X256630D01*
Y100162D01*
X256039D01*
Y100216D01*
X255502D01*
Y100269D01*
X255395D01*
Y100323D01*
X254803D01*
Y100377D01*
X254266D01*
Y100431D01*
X253675D01*
Y100484D01*
X253084D01*
Y100538D01*
X252547D01*
Y100592D01*
X252010D01*
Y100645D01*
X251418D01*
Y100699D01*
X250881D01*
Y100753D01*
X250344D01*
Y100807D01*
D02*
G37*
%LPD*%
G36*
X261950Y105750D02*
Y105696D01*
Y105642D01*
X261896D01*
Y105696D01*
Y105750D01*
Y105804D01*
X261950D01*
Y105750D01*
D02*
G37*
G36*
X244810D02*
Y105696D01*
Y105642D01*
X244756D01*
Y105696D01*
Y105750D01*
Y105804D01*
X244810D01*
Y105750D01*
D02*
G37*
G36*
X261896Y105535D02*
Y105481D01*
X261842D01*
Y105535D01*
Y105589D01*
X261896D01*
Y105535D01*
D02*
G37*
G36*
X261842Y105427D02*
Y105374D01*
X261788D01*
Y105427D01*
Y105481D01*
X261842D01*
Y105427D01*
D02*
G37*
G36*
X261788Y105266D02*
Y105212D01*
X261735D01*
Y105266D01*
Y105320D01*
X261788D01*
Y105266D01*
D02*
G37*
G36*
X261735Y105105D02*
Y105051D01*
X261681D01*
Y105105D01*
Y105159D01*
X261735D01*
Y105105D01*
D02*
G37*
G36*
X260875Y112251D02*
Y112197D01*
X260929D01*
Y112144D01*
Y112090D01*
Y112036D01*
X260875D01*
Y111983D01*
Y111929D01*
X260821D01*
Y111875D01*
X260768D01*
Y111821D01*
X260714D01*
Y111768D01*
X260660D01*
Y111714D01*
X260606D01*
Y111660D01*
X260553D01*
Y111606D01*
X260499D01*
Y111553D01*
X260445D01*
Y111499D01*
X260391D01*
Y111445D01*
X260338D01*
Y111391D01*
X260284D01*
Y111338D01*
X260230D01*
Y111284D01*
X260176D01*
Y111230D01*
X260123D01*
Y111177D01*
X260069D01*
Y111123D01*
Y111069D01*
X260015D01*
Y111015D01*
X259962D01*
Y110962D01*
X259908D01*
Y110908D01*
X259854D01*
Y110854D01*
X259800D01*
Y110800D01*
X259747D01*
Y110747D01*
X259693D01*
Y110693D01*
X259639D01*
Y110639D01*
X259585D01*
Y110585D01*
X259532D01*
Y110532D01*
X259478D01*
Y110478D01*
X259424D01*
Y110424D01*
X259371D01*
Y110371D01*
X259317D01*
Y110317D01*
X259263D01*
Y110263D01*
X259209D01*
Y110209D01*
Y110156D01*
X259156D01*
Y110102D01*
Y110048D01*
X259102D01*
Y109994D01*
X259048D01*
Y109941D01*
X258995D01*
Y109887D01*
X258941D01*
Y109833D01*
X258887D01*
Y109780D01*
X258833D01*
Y109726D01*
X258726D01*
Y109672D01*
Y109618D01*
X258672D01*
Y109565D01*
Y109511D01*
X258726D01*
Y109457D01*
X258780D01*
Y109403D01*
X259478D01*
Y109457D01*
X260821D01*
Y109403D01*
X260875D01*
Y109350D01*
Y109296D01*
Y109242D01*
Y109188D01*
Y109135D01*
X260821D01*
Y109081D01*
X260768D01*
Y109027D01*
X260714D01*
Y108974D01*
X260660D01*
Y108920D01*
X260606D01*
Y108866D01*
X260499D01*
Y108812D01*
X260445D01*
Y108759D01*
X260391D01*
Y108705D01*
X260338D01*
Y108651D01*
X260230D01*
Y108598D01*
X260176D01*
Y108544D01*
X260123D01*
Y108490D01*
X260069D01*
Y108436D01*
X260015D01*
Y108383D01*
X259962D01*
Y108329D01*
X259908D01*
Y108275D01*
X259854D01*
Y108221D01*
X259800D01*
Y108168D01*
X259747D01*
Y108114D01*
X259693D01*
Y108060D01*
X259585D01*
Y108007D01*
X259532D01*
Y107953D01*
X259478D01*
Y107899D01*
X259424D01*
Y107845D01*
X259371D01*
Y107791D01*
X259263D01*
Y107738D01*
X259209D01*
Y107684D01*
X259156D01*
Y107630D01*
X259102D01*
Y107577D01*
X258995D01*
Y107523D01*
Y107469D01*
X258941D01*
Y107415D01*
X258887D01*
Y107362D01*
X258833D01*
Y107308D01*
X258780D01*
Y107254D01*
X258672D01*
Y107201D01*
X258618D01*
Y107147D01*
X258565D01*
Y107093D01*
X258511D01*
Y107039D01*
X258403D01*
Y106986D01*
X258350D01*
Y106932D01*
X258296D01*
Y106878D01*
X258242D01*
Y106824D01*
X258189D01*
Y106771D01*
X258081D01*
Y106717D01*
X258027D01*
Y106663D01*
X257974D01*
Y106609D01*
X257920D01*
Y106556D01*
Y106502D01*
X257812D01*
Y106448D01*
X257759D01*
Y106395D01*
X257705D01*
Y106341D01*
X257651D01*
Y106287D01*
X257597D01*
Y106233D01*
X257544D01*
Y106180D01*
X257436D01*
Y106126D01*
X257382D01*
Y106072D01*
X257329D01*
Y106018D01*
X257275D01*
Y105965D01*
X257221D01*
Y105911D01*
X257114D01*
Y105857D01*
X257060D01*
Y105804D01*
X257006D01*
Y105750D01*
X256953D01*
Y105696D01*
X256899D01*
Y105642D01*
X256845D01*
Y105589D01*
X256791D01*
Y105535D01*
X256738D01*
Y105481D01*
X256684D01*
Y105427D01*
X256630D01*
Y105374D01*
X256523D01*
Y105320D01*
X256469D01*
Y105266D01*
X256415D01*
Y105212D01*
X256362D01*
Y105159D01*
X256308D01*
Y105105D01*
X256254D01*
Y105051D01*
X256147D01*
Y104998D01*
X256093D01*
Y104944D01*
X256039D01*
Y104890D01*
X255932D01*
Y104836D01*
X255878D01*
Y104783D01*
Y104729D01*
X255824D01*
Y104675D01*
X255771D01*
Y104621D01*
X255717D01*
Y104568D01*
X255663D01*
Y104514D01*
X255556D01*
Y104460D01*
X255502D01*
Y104406D01*
X255448D01*
Y104353D01*
X255395D01*
Y104299D01*
X255341D01*
Y104245D01*
X255233D01*
Y104192D01*
X255180D01*
Y104138D01*
X255126D01*
Y104084D01*
X255072D01*
Y104030D01*
X254965D01*
Y103977D01*
X254911D01*
Y103923D01*
X254857D01*
Y103869D01*
Y103815D01*
X254803D01*
Y103762D01*
X254750D01*
Y103708D01*
X254642D01*
Y103654D01*
X254589D01*
Y103601D01*
X254535D01*
Y103547D01*
X254481D01*
Y103493D01*
X254427D01*
Y103439D01*
X254374D01*
Y103386D01*
X254266D01*
Y103332D01*
X254212D01*
Y103278D01*
X253944D01*
Y103332D01*
X253890D01*
Y103386D01*
Y103439D01*
Y103493D01*
Y103547D01*
X253944D01*
Y103601D01*
Y103654D01*
X253997D01*
Y103708D01*
X254051D01*
Y103762D01*
X254105D01*
Y103815D01*
Y103869D01*
Y103923D01*
X254159D01*
Y103977D01*
X254212D01*
Y104030D01*
Y104084D01*
X254266D01*
Y104138D01*
X254320D01*
Y104192D01*
Y104245D01*
X254374D01*
Y104299D01*
X254427D01*
Y104353D01*
Y104406D01*
X254535D01*
Y104460D01*
Y104514D01*
X254589D01*
Y104568D01*
X254642D01*
Y104621D01*
Y104675D01*
X254696D01*
Y104729D01*
Y104783D01*
X254750D01*
Y104836D01*
Y104890D01*
X254803D01*
Y104944D01*
X254857D01*
Y104998D01*
Y105051D01*
X254911D01*
Y105105D01*
X254965D01*
Y105159D01*
Y105212D01*
X255018D01*
Y105266D01*
X255072D01*
Y105320D01*
Y105374D01*
X255126D01*
Y105427D01*
X255180D01*
Y105481D01*
Y105535D01*
X255233D01*
Y105589D01*
X255287D01*
Y105642D01*
X255341D01*
Y105696D01*
Y105750D01*
X255395D01*
Y105804D01*
X255448D01*
Y105857D01*
Y105911D01*
X255502D01*
Y105965D01*
Y106018D01*
X255556D01*
Y106072D01*
X255609D01*
Y106126D01*
Y106180D01*
X255663D01*
Y106233D01*
X255717D01*
Y106287D01*
Y106341D01*
X255771D01*
Y106395D01*
X255824D01*
Y106448D01*
Y106502D01*
X255878D01*
Y106556D01*
Y106609D01*
X255932D01*
Y106663D01*
Y106717D01*
X255986D01*
Y106771D01*
X256039D01*
Y106824D01*
Y106878D01*
X256093D01*
Y106932D01*
X256147D01*
Y106986D01*
Y107039D01*
X256201D01*
Y107093D01*
X256254D01*
Y107147D01*
X256308D01*
Y107201D01*
X256362D01*
Y107254D01*
X256415D01*
Y107308D01*
Y107362D01*
X256469D01*
Y107415D01*
X256523D01*
Y107469D01*
Y107523D01*
Y107577D01*
X256577D01*
Y107630D01*
X256630D01*
Y107684D01*
Y107738D01*
X256684D01*
Y107791D01*
Y107845D01*
X256738D01*
Y107899D01*
X256791D01*
Y107953D01*
X256845D01*
Y108007D01*
Y108060D01*
Y108114D01*
X256791D01*
Y108168D01*
X256738D01*
Y108221D01*
X254535D01*
Y108275D01*
X254481D01*
Y108329D01*
Y108383D01*
Y108436D01*
Y108490D01*
Y108544D01*
Y108598D01*
X254535D01*
Y108651D01*
Y108705D01*
X254589D01*
Y108759D01*
X254642D01*
Y108812D01*
Y108866D01*
X254696D01*
Y108920D01*
X254750D01*
Y108974D01*
Y109027D01*
X254803D01*
Y109081D01*
Y109135D01*
X254857D01*
Y109188D01*
X254911D01*
Y109242D01*
Y109296D01*
Y109350D01*
X254965D01*
Y109403D01*
X255018D01*
Y109457D01*
Y109511D01*
X255072D01*
Y109565D01*
X255126D01*
Y109618D01*
Y109672D01*
X255180D01*
Y109726D01*
Y109780D01*
X255233D01*
Y109833D01*
X255287D01*
Y109887D01*
Y109941D01*
X255341D01*
Y109994D01*
X255395D01*
Y110048D01*
X255448D01*
Y110102D01*
X255502D01*
Y110156D01*
Y110209D01*
Y110263D01*
X255556D01*
Y110317D01*
X255609D01*
Y110371D01*
Y110424D01*
X255663D01*
Y110478D01*
Y110532D01*
X255717D01*
Y110585D01*
X255771D01*
Y110639D01*
Y110693D01*
X255824D01*
Y110747D01*
X255878D01*
Y110800D01*
Y110854D01*
X255932D01*
Y110908D01*
X255986D01*
Y110962D01*
Y111015D01*
X256039D01*
Y111069D01*
Y111123D01*
X256093D01*
Y111177D01*
Y111230D01*
X256147D01*
Y111284D01*
Y111338D01*
X256201D01*
Y111391D01*
X256308D01*
Y111445D01*
X256254D01*
Y111499D01*
X256362D01*
Y111553D01*
Y111606D01*
X256415D01*
Y111660D01*
X256469D01*
Y111714D01*
Y111768D01*
X256523D01*
Y111821D01*
Y111875D01*
X256577D01*
Y111929D01*
X256630D01*
Y111983D01*
Y112036D01*
Y112090D01*
X256684D01*
Y112144D01*
X256738D01*
Y112197D01*
Y112251D01*
X256845D01*
Y112305D01*
X260875D01*
Y112251D01*
D02*
G37*
G36*
X247281Y108544D02*
X247550D01*
Y108490D01*
X247657D01*
Y108436D01*
X247818D01*
Y108383D01*
Y108329D01*
X247926D01*
Y108275D01*
X247980D01*
Y108221D01*
X248087D01*
Y108168D01*
X248141D01*
Y108114D01*
X248248D01*
Y108060D01*
X248302D01*
Y108007D01*
X248356D01*
Y107953D01*
Y107899D01*
X248410D01*
Y107845D01*
X248463D01*
Y107791D01*
X248517D01*
Y107738D01*
Y107684D01*
X248571D01*
Y107630D01*
X248624D01*
Y107577D01*
Y107523D01*
X248678D01*
Y107469D01*
Y107415D01*
X248732D01*
Y107362D01*
Y107308D01*
X248786D01*
Y107254D01*
Y107201D01*
X248839D01*
Y107147D01*
Y107093D01*
Y107039D01*
X248893D01*
Y106986D01*
Y106932D01*
X248947D01*
Y106878D01*
Y106824D01*
Y106771D01*
X249001D01*
Y106717D01*
Y106663D01*
Y106609D01*
Y106556D01*
X249054D01*
Y106502D01*
X249108D01*
Y106448D01*
Y106395D01*
Y106341D01*
Y106287D01*
Y106233D01*
X249162D01*
Y106180D01*
Y106126D01*
Y106072D01*
Y106018D01*
Y105965D01*
X249216D01*
Y105911D01*
Y105857D01*
Y105804D01*
Y105750D01*
Y105696D01*
Y105642D01*
Y105589D01*
Y105535D01*
Y105481D01*
Y105427D01*
Y105374D01*
Y105320D01*
Y105266D01*
X249269D01*
Y105212D01*
Y105159D01*
Y105105D01*
Y105051D01*
X249216D01*
Y104998D01*
Y104944D01*
Y104890D01*
Y104836D01*
Y104783D01*
Y104729D01*
Y104675D01*
Y104621D01*
Y104568D01*
Y104514D01*
Y104460D01*
Y104406D01*
Y104353D01*
X249162D01*
Y104299D01*
Y104245D01*
Y104192D01*
Y104138D01*
Y104084D01*
Y104030D01*
X249108D01*
Y103977D01*
Y103923D01*
Y103869D01*
Y103815D01*
Y103762D01*
X249054D01*
Y103708D01*
X249001D01*
Y103654D01*
Y103601D01*
X249054D01*
Y103547D01*
X249001D01*
Y103493D01*
X248947D01*
Y103439D01*
Y103386D01*
Y103332D01*
X248893D01*
Y103278D01*
Y103225D01*
Y103171D01*
X248839D01*
Y103117D01*
Y103063D01*
Y103009D01*
X248786D01*
Y102956D01*
Y102902D01*
Y102848D01*
X248732D01*
Y102795D01*
Y102741D01*
X248678D01*
Y102687D01*
Y102633D01*
Y102580D01*
X248624D01*
Y102526D01*
X248571D01*
Y102472D01*
Y102418D01*
X248517D01*
Y102365D01*
Y102311D01*
X248463D01*
Y102257D01*
X248410D01*
Y102204D01*
Y102150D01*
X248356D01*
Y102096D01*
X248302D01*
Y102042D01*
Y101989D01*
Y101935D01*
X248248D01*
Y101881D01*
X248195D01*
Y101828D01*
X248141D01*
Y101774D01*
X248087D01*
Y101720D01*
X248033D01*
Y101666D01*
X247980D01*
Y101612D01*
X247926D01*
Y101559D01*
X247872D01*
Y101505D01*
X247818D01*
Y101451D01*
X247711D01*
Y101398D01*
X247657D01*
Y101344D01*
X247550D01*
Y101290D01*
X247442D01*
Y101344D01*
X247496D01*
Y101398D01*
X247550D01*
Y101451D01*
X247657D01*
Y101505D01*
X247711D01*
Y101559D01*
X247765D01*
Y101612D01*
X247818D01*
Y101666D01*
X247872D01*
Y101720D01*
Y101774D01*
X247926D01*
Y101828D01*
X247980D01*
Y101881D01*
X248033D01*
Y101935D01*
Y101989D01*
X248087D01*
Y102042D01*
Y102096D01*
X248195D01*
Y102150D01*
Y102204D01*
X248248D01*
Y102257D01*
Y102311D01*
X248302D01*
Y102365D01*
Y102418D01*
X248356D01*
Y102472D01*
Y102526D01*
X248410D01*
Y102580D01*
Y102633D01*
X248463D01*
Y102687D01*
Y102741D01*
X248517D01*
Y102795D01*
Y102848D01*
Y102902D01*
X248571D01*
Y102956D01*
Y103009D01*
Y103063D01*
Y103117D01*
X248624D01*
Y103171D01*
Y103225D01*
Y103278D01*
X248678D01*
Y103332D01*
Y103386D01*
Y103439D01*
Y103493D01*
X248732D01*
Y103547D01*
Y103601D01*
Y103654D01*
Y103708D01*
X248786D01*
Y103762D01*
Y103815D01*
Y103869D01*
Y103923D01*
Y103977D01*
Y104030D01*
Y104084D01*
X248839D01*
Y104138D01*
Y104192D01*
Y104245D01*
Y104299D01*
Y104353D01*
Y104406D01*
Y104460D01*
Y104514D01*
Y104568D01*
Y104621D01*
X248893D01*
Y104675D01*
Y104729D01*
Y104783D01*
Y104836D01*
Y104890D01*
Y104944D01*
Y104998D01*
Y105051D01*
Y105105D01*
Y105159D01*
Y105212D01*
Y105266D01*
Y105320D01*
X248839D01*
Y105374D01*
Y105427D01*
Y105481D01*
Y105535D01*
Y105589D01*
Y105642D01*
Y105696D01*
Y105750D01*
Y105804D01*
Y105857D01*
Y105911D01*
X248786D01*
Y105965D01*
Y106018D01*
Y106072D01*
Y106126D01*
Y106180D01*
Y106233D01*
X248732D01*
Y106287D01*
Y106341D01*
Y106395D01*
Y106448D01*
X248678D01*
Y106502D01*
Y106556D01*
Y106609D01*
Y106663D01*
X248624D01*
Y106717D01*
Y106771D01*
Y106824D01*
X248571D01*
Y106878D01*
Y106932D01*
X248517D01*
Y106986D01*
Y107039D01*
X248463D01*
Y107093D01*
Y107147D01*
Y107201D01*
X248410D01*
Y107254D01*
Y107308D01*
X248356D01*
Y107362D01*
X248302D01*
Y107415D01*
Y107469D01*
X248248D01*
Y107523D01*
Y107577D01*
X248195D01*
Y107630D01*
X248141D01*
Y107684D01*
X248087D01*
Y107738D01*
X248033D01*
Y107791D01*
X247980D01*
Y107845D01*
X247926D01*
Y107899D01*
X247872D01*
Y107953D01*
X247765D01*
Y108007D01*
X247711D01*
Y108060D01*
X247604D01*
Y108114D01*
X247496D01*
Y108168D01*
X247335D01*
Y108221D01*
X246744D01*
Y108168D01*
X246583D01*
Y108114D01*
X246422D01*
Y108060D01*
X246314D01*
Y108007D01*
X246260D01*
Y107953D01*
X246153D01*
Y107899D01*
X246099D01*
Y107845D01*
X245992D01*
Y107791D01*
X245938D01*
Y107738D01*
X245884D01*
Y107684D01*
X245830D01*
Y107630D01*
X245777D01*
Y107577D01*
X245723D01*
Y107523D01*
Y107469D01*
X245669D01*
Y107415D01*
X245616D01*
Y107362D01*
Y107308D01*
X245562D01*
Y107254D01*
X245508D01*
Y107201D01*
X245454D01*
Y107147D01*
X245401D01*
Y107093D01*
Y107039D01*
X245347D01*
Y106986D01*
X245293D01*
Y106932D01*
X245239D01*
Y106878D01*
Y106824D01*
X245186D01*
Y106771D01*
Y106717D01*
X245132D01*
Y106663D01*
Y106609D01*
Y106556D01*
X245078D01*
Y106502D01*
Y106448D01*
X245024D01*
Y106395D01*
Y106341D01*
Y106287D01*
X244971D01*
Y106233D01*
Y106180D01*
X244917D01*
Y106126D01*
Y106072D01*
Y106018D01*
X244863D01*
Y105965D01*
Y105911D01*
Y105857D01*
X244810D01*
Y105911D01*
Y105965D01*
Y106018D01*
Y106072D01*
X244863D01*
Y106126D01*
Y106180D01*
Y106233D01*
Y106287D01*
X244917D01*
Y106341D01*
Y106395D01*
Y106448D01*
X244971D01*
Y106502D01*
Y106556D01*
Y106609D01*
Y106663D01*
X245024D01*
Y106717D01*
Y106771D01*
Y106824D01*
X245078D01*
Y106878D01*
Y106932D01*
X245132D01*
Y106986D01*
Y107039D01*
X245186D01*
Y107093D01*
Y107147D01*
X245239D01*
Y107201D01*
Y107254D01*
X245293D01*
Y107308D01*
Y107362D01*
X245347D01*
Y107415D01*
X245401D01*
Y107469D01*
Y107523D01*
Y107577D01*
X245454D01*
Y107630D01*
X245508D01*
Y107684D01*
X245562D01*
Y107738D01*
X245616D01*
Y107791D01*
X245669D01*
Y107845D01*
X245723D01*
Y107899D01*
X245777D01*
Y107953D01*
Y108007D01*
X245884D01*
Y108060D01*
X245938D01*
Y108114D01*
X245992D01*
Y108168D01*
X246045D01*
Y108221D01*
X246153D01*
Y108275D01*
X246260D01*
Y108329D01*
X246314D01*
Y108383D01*
X246368D01*
Y108436D01*
X246475D01*
Y108490D01*
X246637D01*
Y108544D01*
X246905D01*
Y108598D01*
X247281D01*
Y108544D01*
D02*
G37*
G36*
X266463Y108920D02*
X266785D01*
Y108866D01*
X267000D01*
Y108812D01*
X267161D01*
Y108759D01*
X267323D01*
Y108705D01*
X267430D01*
Y108651D01*
X267538D01*
Y108598D01*
X267645D01*
Y108544D01*
X267753D01*
Y108490D01*
X267860D01*
Y108436D01*
X267914D01*
Y108383D01*
X267967D01*
Y108329D01*
X268021D01*
Y108275D01*
X268129D01*
Y108221D01*
X268182D01*
Y108168D01*
X268236D01*
Y108114D01*
X268343D01*
Y108060D01*
X268397D01*
Y108007D01*
X268451D01*
Y107953D01*
X268505D01*
Y107899D01*
X268559D01*
Y107845D01*
X268612D01*
Y107791D01*
X268666D01*
Y107738D01*
X268720D01*
Y107684D01*
X268773D01*
Y107630D01*
X268827D01*
Y107577D01*
X268881D01*
Y107523D01*
X268935D01*
Y107469D01*
Y107415D01*
Y107362D01*
X268988D01*
Y107308D01*
X269042D01*
Y107254D01*
X269096D01*
Y107201D01*
Y107147D01*
X269149D01*
Y107093D01*
X269203D01*
Y107039D01*
Y106986D01*
X269257D01*
Y106932D01*
Y106878D01*
X269311D01*
Y106824D01*
Y106771D01*
X269364D01*
Y106717D01*
Y106663D01*
X269418D01*
Y106609D01*
Y106556D01*
X269472D01*
Y106502D01*
Y106448D01*
Y106395D01*
X269526D01*
Y106341D01*
Y106287D01*
X269579D01*
Y106233D01*
X269633D01*
Y106180D01*
Y106126D01*
X269687D01*
Y106072D01*
Y106018D01*
Y105965D01*
X269741D01*
Y105911D01*
Y105857D01*
Y105804D01*
X269794D01*
Y105750D01*
Y105696D01*
Y105642D01*
Y105589D01*
X269848D01*
Y105535D01*
Y105481D01*
Y105427D01*
Y105374D01*
X269902D01*
Y105320D01*
Y105266D01*
Y105212D01*
Y105159D01*
Y105105D01*
Y105051D01*
X269955D01*
Y104998D01*
Y104944D01*
Y104890D01*
Y104836D01*
Y104783D01*
Y104729D01*
Y104675D01*
Y104621D01*
X270009D01*
Y104568D01*
Y104514D01*
Y104460D01*
Y104406D01*
Y104353D01*
Y104299D01*
Y104245D01*
Y104192D01*
Y104138D01*
Y104084D01*
Y104030D01*
Y103977D01*
Y103923D01*
Y103869D01*
Y103815D01*
Y103762D01*
Y103708D01*
Y103654D01*
Y103601D01*
Y103547D01*
Y103493D01*
Y103439D01*
X269955D01*
Y103386D01*
Y103332D01*
Y103278D01*
Y103225D01*
Y103171D01*
Y103117D01*
Y103063D01*
Y103009D01*
Y102956D01*
X269902D01*
Y102902D01*
Y102848D01*
Y102795D01*
Y102741D01*
Y102687D01*
Y102633D01*
X269848D01*
Y102580D01*
Y102526D01*
Y102472D01*
Y102418D01*
X269794D01*
Y102365D01*
Y102311D01*
Y102257D01*
Y102204D01*
X269741D01*
Y102150D01*
Y102096D01*
Y102042D01*
Y101989D01*
X269687D01*
Y101935D01*
Y101881D01*
Y101828D01*
X269633D01*
Y101774D01*
Y101720D01*
Y101666D01*
X269526D01*
Y101612D01*
Y101559D01*
Y101505D01*
X269472D01*
Y101451D01*
Y101398D01*
X269418D01*
Y101344D01*
Y101290D01*
X269364D01*
Y101236D01*
Y101183D01*
Y101129D01*
X269311D01*
Y101075D01*
Y101022D01*
X269257D01*
Y100968D01*
Y100914D01*
X269203D01*
Y100860D01*
Y100807D01*
X269149D01*
Y100753D01*
Y100699D01*
X269096D01*
Y100645D01*
Y100592D01*
X269042D01*
Y100538D01*
X268988D01*
Y100484D01*
X268935D01*
Y100431D01*
Y100377D01*
X268881D01*
Y100323D01*
X268827D01*
Y100269D01*
Y100216D01*
Y100162D01*
X268773D01*
Y100108D01*
X268720D01*
Y100054D01*
X268666D01*
Y100001D01*
X268612D01*
Y99947D01*
X268559D01*
Y99893D01*
X268505D01*
Y99839D01*
X268451D01*
Y99786D01*
X268397D01*
Y99732D01*
X268343D01*
Y99678D01*
X268290D01*
Y99625D01*
X268236D01*
Y99571D01*
X268182D01*
Y99517D01*
X268129D01*
Y99463D01*
X268075D01*
Y99410D01*
X268021D01*
Y99356D01*
Y99302D01*
X267914D01*
Y99248D01*
X267860D01*
Y99195D01*
X267806D01*
Y99141D01*
X267753D01*
Y99087D01*
X267645D01*
Y99033D01*
X267538D01*
Y98980D01*
X267484D01*
Y98926D01*
X267376D01*
Y98872D01*
X267269D01*
Y98819D01*
X267161D01*
Y98765D01*
X267054D01*
Y98711D01*
X266947D01*
Y98657D01*
X266785D01*
Y98604D01*
X266624D01*
Y98550D01*
X266463D01*
Y98604D01*
X266570D01*
Y98657D01*
X266732D01*
Y98711D01*
X266839D01*
Y98765D01*
X266947D01*
Y98819D01*
X267054D01*
Y98872D01*
X267108D01*
Y98926D01*
X267215D01*
Y98980D01*
X267323D01*
Y99033D01*
X267376D01*
Y99087D01*
X267484D01*
Y99141D01*
X267538D01*
Y99195D01*
X267591D01*
Y99248D01*
X267699D01*
Y99302D01*
Y99356D01*
X267753D01*
Y99410D01*
X267806D01*
Y99463D01*
X267860D01*
Y99517D01*
X267914D01*
Y99571D01*
X267967D01*
Y99625D01*
X268021D01*
Y99678D01*
X268075D01*
Y99732D01*
X268129D01*
Y99786D01*
X268182D01*
Y99839D01*
X268236D01*
Y99893D01*
X268290D01*
Y99947D01*
X268343D01*
Y100001D01*
X268397D01*
Y100054D01*
X268451D01*
Y100108D01*
Y100162D01*
X268505D01*
Y100216D01*
Y100269D01*
X268559D01*
Y100323D01*
X268612D01*
Y100377D01*
Y100431D01*
X268666D01*
Y100484D01*
Y100538D01*
X268720D01*
Y100592D01*
X268827D01*
Y100645D01*
Y100699D01*
X268881D01*
Y100753D01*
Y100807D01*
X268935D01*
Y100860D01*
Y100914D01*
X268988D01*
Y100968D01*
Y101022D01*
X269042D01*
Y101075D01*
Y101129D01*
Y101183D01*
X269096D01*
Y101236D01*
Y101290D01*
X269149D01*
Y101344D01*
Y101398D01*
X269203D01*
Y101451D01*
Y101505D01*
Y101559D01*
X269257D01*
Y101612D01*
Y101666D01*
Y101720D01*
X269311D01*
Y101774D01*
Y101828D01*
Y101881D01*
X269364D01*
Y101935D01*
Y101989D01*
Y102042D01*
X269418D01*
Y102096D01*
Y102150D01*
Y102204D01*
Y102257D01*
X269472D01*
Y102311D01*
Y102365D01*
Y102418D01*
Y102472D01*
X269526D01*
Y102526D01*
Y102580D01*
Y102633D01*
Y102687D01*
Y102741D01*
X269579D01*
Y102795D01*
Y102848D01*
X269633D01*
Y102902D01*
Y102956D01*
Y103009D01*
Y103063D01*
Y103117D01*
Y103171D01*
X269579D01*
Y103225D01*
X269687D01*
Y103278D01*
Y103332D01*
Y103386D01*
Y103439D01*
Y103493D01*
Y103547D01*
Y103601D01*
Y103654D01*
Y103708D01*
Y103762D01*
Y103815D01*
Y103869D01*
Y103923D01*
Y103977D01*
Y104030D01*
Y104084D01*
Y104138D01*
Y104192D01*
Y104245D01*
Y104299D01*
Y104353D01*
Y104406D01*
Y104460D01*
Y104514D01*
Y104568D01*
Y104621D01*
X269633D01*
Y104675D01*
Y104729D01*
Y104783D01*
Y104836D01*
Y104890D01*
Y104944D01*
X269579D01*
Y104998D01*
Y105051D01*
X269526D01*
Y105105D01*
Y105159D01*
Y105212D01*
Y105266D01*
Y105320D01*
X269472D01*
Y105374D01*
Y105427D01*
Y105481D01*
Y105535D01*
X269418D01*
Y105589D01*
Y105642D01*
Y105696D01*
Y105750D01*
X269364D01*
Y105804D01*
Y105857D01*
Y105911D01*
X269311D01*
Y105965D01*
Y106018D01*
X269257D01*
Y106072D01*
Y106126D01*
Y106180D01*
X269203D01*
Y106233D01*
Y106287D01*
X269149D01*
Y106341D01*
Y106395D01*
X269096D01*
Y106448D01*
Y106502D01*
X269042D01*
Y106556D01*
Y106609D01*
Y106663D01*
X268988D01*
Y106717D01*
Y106771D01*
X268935D01*
Y106824D01*
Y106878D01*
X268881D01*
Y106932D01*
X268827D01*
Y106986D01*
X268773D01*
Y107039D01*
X268720D01*
Y107093D01*
Y107147D01*
X268666D01*
Y107201D01*
X268612D01*
Y107254D01*
X268559D01*
Y107308D01*
Y107362D01*
X268505D01*
Y107415D01*
X268451D01*
Y107469D01*
X268397D01*
Y107523D01*
Y107577D01*
X268343D01*
Y107630D01*
X268290D01*
Y107684D01*
X268236D01*
Y107738D01*
X268182D01*
Y107791D01*
X268075D01*
Y107845D01*
X268021D01*
Y107899D01*
X267967D01*
Y107953D01*
X267860D01*
Y108007D01*
X267806D01*
Y108060D01*
X267699D01*
Y108114D01*
X267645D01*
Y108168D01*
X267538D01*
Y108221D01*
X267484D01*
Y108275D01*
X267376D01*
Y108329D01*
X267269D01*
Y108383D01*
X267215D01*
Y108436D01*
X267108D01*
Y108490D01*
X266947D01*
Y108544D01*
X266785D01*
Y108598D01*
X266517D01*
Y108651D01*
X266141D01*
Y108705D01*
X265603D01*
Y108651D01*
X265227D01*
Y108598D01*
X264959D01*
Y108544D01*
X264797D01*
Y108490D01*
X264636D01*
Y108436D01*
X264529D01*
Y108383D01*
X264475D01*
Y108329D01*
X264368D01*
Y108275D01*
X264260D01*
Y108221D01*
X264153D01*
Y108168D01*
X264045D01*
Y108114D01*
X263938D01*
Y108060D01*
X263884D01*
Y108007D01*
X263776D01*
Y107953D01*
X263723D01*
Y107899D01*
X263615D01*
Y107845D01*
X263562D01*
Y107791D01*
X263508D01*
Y107738D01*
X263454D01*
Y107684D01*
X263347D01*
Y107630D01*
X263293D01*
Y107577D01*
X263239D01*
Y107523D01*
X263185D01*
Y107469D01*
X263132D01*
Y107415D01*
X263078D01*
Y107362D01*
X263024D01*
Y107308D01*
X262970D01*
Y107254D01*
X262917D01*
Y107201D01*
X262863D01*
Y107147D01*
Y107093D01*
X262809D01*
Y107039D01*
X262756D01*
Y106986D01*
X262702D01*
Y106932D01*
X262648D01*
Y106878D01*
Y106824D01*
X262594D01*
Y106771D01*
X262541D01*
Y106717D01*
X262487D01*
Y106663D01*
Y106609D01*
X262433D01*
Y106556D01*
X262380D01*
Y106502D01*
X262326D01*
Y106448D01*
Y106395D01*
X262272D01*
Y106341D01*
Y106287D01*
X262218D01*
Y106233D01*
X262165D01*
Y106180D01*
Y106126D01*
X262111D01*
Y106072D01*
Y106018D01*
X262057D01*
Y105965D01*
Y105911D01*
X262003D01*
Y105857D01*
Y105804D01*
X261950D01*
Y105857D01*
Y105911D01*
Y105965D01*
X262003D01*
Y106018D01*
Y106072D01*
X262057D01*
Y106126D01*
Y106180D01*
X262111D01*
Y106233D01*
Y106287D01*
X262165D01*
Y106341D01*
Y106395D01*
X262218D01*
Y106448D01*
Y106502D01*
X262272D01*
Y106556D01*
Y106609D01*
Y106663D01*
X262326D01*
Y106717D01*
X262380D01*
Y106771D01*
Y106824D01*
X262433D01*
Y106878D01*
X262487D01*
Y106932D01*
Y106986D01*
X262594D01*
Y107039D01*
Y107093D01*
X262648D01*
Y107147D01*
X262702D01*
Y107201D01*
Y107254D01*
X262756D01*
Y107308D01*
X262809D01*
Y107362D01*
X262863D01*
Y107415D01*
X262917D01*
Y107469D01*
Y107523D01*
X262970D01*
Y107577D01*
X263024D01*
Y107630D01*
X263078D01*
Y107684D01*
Y107738D01*
X263132D01*
Y107791D01*
X263185D01*
Y107845D01*
X263293D01*
Y107899D01*
X263347D01*
Y107953D01*
X263400D01*
Y108007D01*
X263454D01*
Y108060D01*
X263562D01*
Y108114D01*
X263615D01*
Y108168D01*
X263723D01*
Y108221D01*
X263776D01*
Y108275D01*
X263884D01*
Y108329D01*
X263938D01*
Y108383D01*
X263991D01*
Y108436D01*
X264045D01*
Y108490D01*
X264153D01*
Y108544D01*
X264260D01*
Y108598D01*
X264368D01*
Y108651D01*
X264475D01*
Y108705D01*
X264636D01*
Y108759D01*
X264744D01*
Y108812D01*
X264959D01*
Y108866D01*
X265173D01*
Y108920D01*
X265442D01*
Y108974D01*
X266463D01*
Y108920D01*
D02*
G37*
G36*
X266302Y98442D02*
X266194D01*
Y98389D01*
X266033D01*
Y98442D01*
X266087D01*
Y98496D01*
X266302D01*
Y98442D01*
D02*
G37*
D10*
X190792Y-388011D02*
G03*
X190792Y-388011I-394J0D01*
G01*
X234082Y-194982D02*
G03*
X234082Y-194982I-394J0D01*
G01*
X123538Y-387873D02*
G03*
X123538Y-387873I-394J0D01*
G01*
X243841Y-142229D02*
G03*
X243841Y-142229I-394J0D01*
G01*
X-57369Y-198839D02*
G03*
X-57369Y-198839I-394J0D01*
G01*
X-58726Y-271258D02*
G03*
X-58726Y-271258I-394J0D01*
G01*
X234568Y-277803D02*
G03*
X234568Y-277803I-394J0D01*
G01*
X238046Y206734D02*
G03*
X238046Y206734I-394J0D01*
G01*
X164697Y-72867D02*
X174934D01*
X162926Y-74638D02*
X164697Y-72867D01*
X162926Y-87237D02*
X164697Y-89028D01*
X193634Y-89009D02*
X204264D01*
X193634Y-72867D02*
X204264D01*
Y-89009D02*
Y-72867D01*
X162926Y-87237D02*
Y-74638D01*
X164697Y-89009D02*
X174934D01*
X85895Y-364080D02*
X87470D01*
X85895D02*
Y-362112D01*
Y-353450D02*
Y-352270D01*
X85896Y-352269D02*
X87469D01*
X189449Y98980D02*
Y100816D01*
X190367Y101735D01*
X191286Y100816D01*
Y98980D01*
Y100357D01*
X189449D01*
X192204Y101735D02*
X194041D01*
X193122D01*
Y98980D01*
X197714Y101735D02*
Y99898D01*
X198632Y98980D01*
X199551Y99898D01*
Y101735D01*
X200469D02*
X201387D01*
X200928D01*
Y98980D01*
X200469D01*
X201387D01*
X202765D02*
Y101735D01*
X204142D01*
X204601Y101276D01*
Y100357D01*
X204142Y99898D01*
X202765D01*
X203683D02*
X204601Y98980D01*
X207356Y101276D02*
X206897Y101735D01*
X205979D01*
X205520Y101276D01*
Y99439D01*
X205979Y98980D01*
X206897D01*
X207356Y99439D01*
Y100357D01*
X206438D01*
X208275Y101735D02*
X209193D01*
X208734D01*
Y98980D01*
X208275D01*
X209193D01*
X210571D02*
Y101735D01*
X212407Y98980D01*
Y101735D01*
X213326D02*
X214244D01*
X213785D01*
Y98980D01*
X213326D01*
X214244D01*
X215621D02*
Y100816D01*
X216540Y101735D01*
X217458Y100816D01*
Y98980D01*
Y100357D01*
X215621D01*
X221132Y101735D02*
X222968D01*
X222050D01*
Y98980D01*
X225723Y101735D02*
X223887D01*
Y98980D01*
X225723D01*
X223887Y100357D02*
X224805D01*
X228478Y101276D02*
X228019Y101735D01*
X227101D01*
X226642Y101276D01*
Y99439D01*
X227101Y98980D01*
X228019D01*
X228478Y99439D01*
X229397Y101735D02*
Y98980D01*
Y100357D01*
X231233D01*
Y101735D01*
Y98980D01*
D11*
X-34411Y-385774D02*
G03*
X-34411Y-385774I-551J0D01*
G01*
X160273Y-385421D02*
G03*
X160273Y-385421I-551J0D01*
G01*
D12*
X92213Y-365182D02*
G03*
X92213Y-365182I-176J0D01*
G01*
X224731Y-162057D02*
Y-146309D01*
X198747Y-162057D02*
Y-146309D01*
X117525Y-304036D02*
X119257D01*
X119257Y-306005D02*
Y-304036D01*
X116502D02*
X117525D01*
X119257Y-316004D02*
Y-314036D01*
X116501Y-316004D02*
X119257D01*
X183205Y166854D02*
Y160856D01*
X186204D01*
X187203Y161856D01*
Y165855D01*
X186204Y166854D01*
X183205D01*
X192202Y160856D02*
X190202D01*
X189203Y161856D01*
Y163855D01*
X190202Y164855D01*
X192202D01*
X193201Y163855D01*
Y162856D01*
X189203D01*
X195201Y160856D02*
X198200D01*
X199199Y161856D01*
X198200Y162856D01*
X196201D01*
X195201Y163855D01*
X196201Y164855D01*
X199199D01*
X201199Y160856D02*
X203198D01*
X202199D01*
Y164855D01*
X201199D01*
X208197Y158857D02*
X209196D01*
X210196Y159856D01*
Y164855D01*
X207197D01*
X206197Y163855D01*
Y161856D01*
X207197Y160856D01*
X210196D01*
X212195D02*
Y164855D01*
X215194D01*
X216194Y163855D01*
Y160856D01*
X221192D02*
X219193D01*
X218193Y161856D01*
Y163855D01*
X219193Y164855D01*
X221192D01*
X222192Y163855D01*
Y162856D01*
X218193D01*
X228190Y166854D02*
Y160856D01*
X225191D01*
X224191Y161856D01*
Y163855D01*
X225191Y164855D01*
X228190D01*
X236188Y166854D02*
Y160856D01*
X239187D01*
X240186Y161856D01*
Y162856D01*
X239187Y163855D01*
X236188D01*
X239187D01*
X240186Y164855D01*
Y165855D01*
X239187Y166854D01*
X236188D01*
X242186Y164855D02*
Y161856D01*
X243185Y160856D01*
X246184D01*
Y159856D01*
X245185Y158857D01*
X244185D01*
X246184Y160856D02*
Y164855D01*
X248184D02*
X249183D01*
Y163855D01*
X248184D01*
Y164855D01*
Y161856D02*
X249183D01*
Y160856D01*
X248184D01*
Y161856D01*
X183205Y155257D02*
Y149259D01*
X186204D01*
X187203Y150259D01*
Y154258D01*
X186204Y155257D01*
X183205D01*
X190202Y153258D02*
X192202D01*
X193201Y152258D01*
Y149259D01*
X190202D01*
X189203Y150259D01*
X190202Y151259D01*
X193201D01*
X195201Y153258D02*
X197200Y149259D01*
X199199Y153258D01*
X201199Y149259D02*
X203198D01*
X202199D01*
Y153258D01*
X201199D01*
X210196Y155257D02*
Y149259D01*
X207197D01*
X206197Y150259D01*
Y152258D01*
X207197Y153258D01*
X210196D01*
X222192Y154258D02*
X221192Y155257D01*
X219193D01*
X218193Y154258D01*
Y153258D01*
X219193Y152258D01*
X221192D01*
X222192Y151259D01*
Y150259D01*
X221192Y149259D01*
X219193D01*
X218193Y150259D01*
X224191Y147260D02*
Y153258D01*
X227190D01*
X228190Y152258D01*
Y150259D01*
X227190Y149259D01*
X224191D01*
X230189D02*
X232189D01*
X231189D01*
Y153258D01*
X230189D01*
X235188D02*
X237187Y149259D01*
X239187Y153258D01*
X244185Y149259D02*
X242186D01*
X241186Y150259D01*
Y152258D01*
X242186Y153258D01*
X244185D01*
X245185Y152258D01*
Y151259D01*
X241186D01*
X247184Y153258D02*
Y150259D01*
X248184Y149259D01*
X251183D01*
Y148259D01*
X250183Y147260D01*
X249183D01*
X251183Y149259D02*
Y153258D01*
X46420Y248851D02*
X45420Y249850D01*
X43421D01*
X42421Y248851D01*
Y244852D01*
X43421Y243852D01*
X45420D01*
X46420Y244852D01*
X48419Y243852D02*
X50418D01*
X49419D01*
Y249850D01*
X48419Y248851D01*
X8830Y164143D02*
Y167142D01*
X10329D01*
X10829Y166642D01*
Y165642D01*
X10329Y165143D01*
X8830D01*
X9830D02*
X10829Y164143D01*
X11829Y167142D02*
X13828D01*
Y166642D01*
X11829Y164643D01*
Y164143D01*
X255371Y38152D02*
Y44150D01*
X258370D01*
X259370Y43151D01*
Y41151D01*
X258370Y40152D01*
X255371D01*
X257370D02*
X259370Y38152D01*
X261369D02*
X263368D01*
X262369D01*
Y44150D01*
X261369Y43151D01*
X270366Y44150D02*
X266367D01*
Y41151D01*
X268367Y42151D01*
X269366D01*
X270366Y41151D01*
Y39152D01*
X269366Y38152D01*
X267367D01*
X266367Y39152D01*
X104075Y-376017D02*
X102742D01*
X103408D01*
Y-379349D01*
X102742Y-380016D01*
X102075D01*
X101409Y-379349D01*
X105408Y-376017D02*
X108073D01*
Y-376683D01*
X105408Y-379349D01*
Y-380016D01*
X109406Y-378016D02*
X112072D01*
X113405Y-380016D02*
Y-376017D01*
X114738Y-377350D01*
X116071Y-376017D01*
Y-380016D01*
X120070Y-376683D02*
X119403Y-376017D01*
X118070D01*
X117404Y-376683D01*
Y-379349D01*
X118070Y-380016D01*
X119403D01*
X120070Y-379349D01*
X121403Y-380016D02*
X122735D01*
X122069D01*
Y-376017D01*
X121403Y-376683D01*
X-43400Y227811D02*
X-44400Y228810D01*
X-46399D01*
X-47399Y227811D01*
Y223812D01*
X-46399Y222812D01*
X-44400D01*
X-43400Y223812D01*
X-37402Y228810D02*
X-39402Y227811D01*
X-41401Y225811D01*
Y223812D01*
X-40401Y222812D01*
X-38402D01*
X-37402Y223812D01*
Y224812D01*
X-38402Y225811D01*
X-41401D01*
X178554Y-94866D02*
Y-100864D01*
X181553D01*
X182553Y-99864D01*
Y-95865D01*
X181553Y-94866D01*
X178554D01*
X188551D02*
X186551Y-95865D01*
X184552Y-97865D01*
Y-99864D01*
X185552Y-100864D01*
X187551D01*
X188551Y-99864D01*
Y-98864D01*
X187551Y-97865D01*
X184552D01*
X204959Y-55121D02*
X203959Y-54122D01*
X201960D01*
X200960Y-55121D01*
Y-59120D01*
X201960Y-60120D01*
X203959D01*
X204959Y-59120D01*
X206958Y-60120D02*
X208957D01*
X207958D01*
Y-54122D01*
X206958Y-55121D01*
X214955Y-60120D02*
Y-54122D01*
X211956Y-57121D01*
X215955D01*
X183330Y-124689D02*
X182330Y-123690D01*
X180331D01*
X179331Y-124689D01*
Y-128688D01*
X180331Y-129688D01*
X182330D01*
X183330Y-128688D01*
X185329Y-129688D02*
X187328D01*
X186329D01*
Y-123690D01*
X185329Y-124689D01*
X190327D02*
X191327Y-123690D01*
X193326D01*
X194326Y-124689D01*
Y-125689D01*
X193326Y-126689D01*
X192327D01*
X193326D01*
X194326Y-127688D01*
Y-128688D01*
X193326Y-129688D01*
X191327D01*
X190327Y-128688D01*
X201111Y-100361D02*
Y-94363D01*
X204110D01*
X205110Y-95362D01*
Y-97362D01*
X204110Y-98361D01*
X201111D01*
X203110D02*
X205110Y-100361D01*
X207109D02*
X209108D01*
X208109D01*
Y-94363D01*
X207109Y-95362D01*
X215106Y-100361D02*
Y-94363D01*
X212107Y-97362D01*
X216106D01*
X-42641Y-174320D02*
Y-172320D01*
Y-173320D01*
X-47639D01*
X-48639Y-172320D01*
Y-171321D01*
X-47639Y-170321D01*
X-48639Y-176319D02*
Y-178319D01*
Y-177319D01*
X-42641D01*
X-43641Y-176319D01*
Y-181318D02*
X-42641Y-182317D01*
Y-184317D01*
X-43641Y-185316D01*
X-47639D01*
X-48639Y-184317D01*
Y-182317D01*
X-47639Y-181318D01*
X-43641D01*
X-45640Y-187316D02*
Y-191314D01*
X-42641Y-193314D02*
Y-195313D01*
Y-194313D01*
X-48639D01*
Y-193314D01*
Y-195313D01*
Y-198312D02*
X-42641D01*
X-44640Y-200311D01*
X-42641Y-202311D01*
X-48639D01*
X-42641Y-204310D02*
X-47639D01*
X-48639Y-205310D01*
Y-207309D01*
X-47639Y-208309D01*
X-42641D01*
X148731Y-116628D02*
Y-110630D01*
X151730D01*
X152730Y-111629D01*
Y-113629D01*
X151730Y-114628D01*
X148731D01*
X150730D02*
X152730Y-116628D01*
X154729D02*
X156728D01*
X155729D01*
Y-110630D01*
X154729Y-111629D01*
X159727D02*
X160727Y-110630D01*
X162726D01*
X163726Y-111629D01*
Y-112629D01*
X162726Y-113629D01*
X161727D01*
X162726D01*
X163726Y-114628D01*
Y-115628D01*
X162726Y-116628D01*
X160727D01*
X159727Y-115628D01*
X-43801Y-231226D02*
Y-229227D01*
Y-230227D01*
X-48799D01*
X-49799Y-229227D01*
Y-228227D01*
X-48799Y-227228D01*
Y-233226D02*
X-49799Y-234225D01*
Y-236225D01*
X-48799Y-237224D01*
X-44801D01*
X-43801Y-236225D01*
Y-234225D01*
X-44801Y-233226D01*
X-45800D01*
X-46800Y-234225D01*
Y-237224D01*
Y-239224D02*
Y-243222D01*
X-44801Y-249221D02*
X-43801Y-248221D01*
Y-246221D01*
X-44801Y-245222D01*
X-48799D01*
X-49799Y-246221D01*
Y-248221D01*
X-48799Y-249221D01*
X-49799Y-251220D02*
X-45800D01*
X-43801Y-253219D01*
X-45800Y-255219D01*
X-49799D01*
X-46800D01*
Y-251220D01*
X-49799Y-257218D02*
X-43801D01*
X-49799Y-261217D01*
X-43801D01*
X151200Y-155439D02*
X150200Y-154440D01*
X148201D01*
X147201Y-155439D01*
Y-159438D01*
X148201Y-160438D01*
X150200D01*
X151200Y-159438D01*
X153199Y-154440D02*
Y-160438D01*
Y-157439D01*
X157198D01*
Y-154440D01*
Y-160438D01*
X159197D02*
X161196D01*
X160197D01*
Y-154440D01*
X159197Y-155439D01*
X164837Y-189618D02*
X162838D01*
X163838D01*
Y-194616D01*
X162838Y-195616D01*
X161838D01*
X160839Y-194616D01*
X166837Y-189618D02*
Y-195616D01*
X169836D01*
X170835Y-194616D01*
Y-190617D01*
X169836Y-189618D01*
X166837D01*
X-5163D02*
X-7162D01*
X-6162D01*
Y-194616D01*
X-7162Y-195616D01*
X-8162D01*
X-9161Y-194616D01*
X835Y-190617D02*
X-164Y-189618D01*
X-2164D01*
X-3163Y-190617D01*
Y-194616D01*
X-2164Y-195616D01*
X-164D01*
X835Y-194616D01*
X164808Y60382D02*
X162808D01*
X163808D01*
Y55384D01*
X162808Y54384D01*
X161809D01*
X160809Y55384D01*
X166807Y60382D02*
Y54384D01*
X169806D01*
X170806Y55384D01*
Y56384D01*
X169806Y57383D01*
X166807D01*
X169806D01*
X170806Y58383D01*
Y59383D01*
X169806Y60382D01*
X166807D01*
X-5163D02*
X-7162D01*
X-6162D01*
Y55384D01*
X-7162Y54384D01*
X-8162D01*
X-9161Y55384D01*
X-3163Y54384D02*
Y58383D01*
X-1164Y60382D01*
X835Y58383D01*
Y54384D01*
Y57383D01*
X-3163D01*
X221112Y-234102D02*
Y-235435D01*
Y-234768D01*
X224445D01*
X225111Y-235435D01*
Y-236101D01*
X224445Y-236768D01*
X221779Y-232769D02*
X221112Y-232102D01*
Y-230770D01*
X221779Y-230103D01*
X222445D01*
X223112Y-230770D01*
Y-231436D01*
Y-230770D01*
X223778Y-230103D01*
X224445D01*
X225111Y-230770D01*
Y-232102D01*
X224445Y-232769D01*
X223112Y-228770D02*
Y-226104D01*
X221112Y-224771D02*
X225111D01*
Y-222106D01*
X221112Y-218107D02*
Y-220773D01*
X225111D01*
Y-218107D01*
X223112Y-220773D02*
Y-219440D01*
X221112Y-216774D02*
X225111D01*
Y-214775D01*
X224445Y-214108D01*
X221779D01*
X221112Y-214775D01*
Y-216774D01*
X6199Y202925D02*
X5199Y203925D01*
X3200D01*
X2200Y202925D01*
Y201926D01*
X3200Y200926D01*
X5199D01*
X6199Y199926D01*
Y198927D01*
X5199Y197927D01*
X3200D01*
X2200Y198927D01*
X8198Y197927D02*
X10197D01*
X9198D01*
Y203925D01*
X8198Y202925D01*
X156893Y-347432D02*
Y-344433D01*
X158393D01*
X158892Y-344933D01*
Y-345933D01*
X158393Y-346433D01*
X156893D01*
X157893D02*
X158892Y-347432D01*
X159892D02*
X160892D01*
X160392D01*
Y-344433D01*
X159892Y-344933D01*
X162391Y-347432D02*
X163391D01*
X162891D01*
Y-344433D01*
X162391Y-344933D01*
X158158Y-336489D02*
Y-333489D01*
X159658D01*
X160157Y-333989D01*
Y-334989D01*
X159658Y-335489D01*
X158158D01*
X159158D02*
X160157Y-336489D01*
X161157D02*
X162157D01*
X161657D01*
Y-333489D01*
X161157Y-333989D01*
X163656D02*
X164156Y-333489D01*
X165156D01*
X165656Y-333989D01*
Y-335989D01*
X165156Y-336489D01*
X164156D01*
X163656Y-335989D01*
Y-333989D01*
X366Y135567D02*
Y138566D01*
X1866D01*
X2365Y138066D01*
Y137066D01*
X1866Y136566D01*
X366D01*
X1366D02*
X2365Y135567D01*
X3365Y138066D02*
X3865Y138566D01*
X4865D01*
X5364Y138066D01*
Y137566D01*
X4865Y137066D01*
X5364Y136566D01*
Y136067D01*
X4865Y135567D01*
X3865D01*
X3365Y136067D01*
Y136566D01*
X3865Y137066D01*
X3365Y137566D01*
Y138066D01*
X3865Y137066D02*
X4865D01*
X2831Y174892D02*
Y177891D01*
X4330D01*
X4830Y177392D01*
Y176392D01*
X4330Y175892D01*
X2831D01*
X3831D02*
X4830Y174892D01*
X7829Y177891D02*
X6830Y177392D01*
X5830Y176392D01*
Y175392D01*
X6330Y174892D01*
X7329D01*
X7829Y175392D01*
Y175892D01*
X7329Y176392D01*
X5830D01*
X150258Y-356977D02*
Y-353978D01*
X151758D01*
X152257Y-354478D01*
Y-355477D01*
X151758Y-355977D01*
X150258D01*
X151258D02*
X152257Y-356977D01*
X153257Y-356477D02*
X153757Y-356977D01*
X154756D01*
X155256Y-356477D01*
Y-354478D01*
X154756Y-353978D01*
X153757D01*
X153257Y-354478D01*
Y-354977D01*
X153757Y-355477D01*
X155256D01*
X115603Y-299516D02*
Y-295517D01*
X114603Y-294518D01*
X112604D01*
X111604Y-295517D01*
Y-299516D01*
X112604Y-300516D01*
X114603D01*
X113604Y-298516D02*
X115603Y-300516D01*
X114603D02*
X115603Y-299516D01*
X120601Y-300516D02*
Y-294518D01*
X117602Y-297517D01*
X121601D01*
X74180Y-358958D02*
Y-356959D01*
X73681Y-356459D01*
X72681D01*
X72181Y-356959D01*
Y-358958D01*
X72681Y-359458D01*
X73681D01*
X73181Y-358458D02*
X74180Y-359458D01*
X73681D02*
X74180Y-358958D01*
X75180Y-356959D02*
X75680Y-356459D01*
X76679D01*
X77179Y-356959D01*
Y-357458D01*
X76679Y-357958D01*
X76180D01*
X76679D01*
X77179Y-358458D01*
Y-358958D01*
X76679Y-359458D01*
X75680D01*
X75180Y-358958D01*
X-48839Y-297117D02*
Y-303115D01*
Y-301116D01*
X-44840Y-297117D01*
X-47839Y-300116D01*
X-44840Y-303115D01*
X-39842D02*
Y-297117D01*
X-42841Y-300116D01*
X-38842D01*
X56849Y-296366D02*
Y-302364D01*
Y-300364D01*
X60848Y-296366D01*
X57849Y-299365D01*
X60848Y-302364D01*
X62847Y-297365D02*
X63847Y-296366D01*
X65846D01*
X66846Y-297365D01*
Y-298365D01*
X65846Y-299365D01*
X64846D01*
X65846D01*
X66846Y-300364D01*
Y-301364D01*
X65846Y-302364D01*
X63847D01*
X62847Y-301364D01*
X57065Y-172020D02*
Y-178018D01*
Y-176018D01*
X61064Y-172020D01*
X58065Y-175019D01*
X61064Y-178018D01*
X67062D02*
X63063D01*
X67062Y-174019D01*
Y-173019D01*
X66062Y-172020D01*
X64063D01*
X63063Y-173019D01*
X129332Y201430D02*
Y195432D01*
Y197432D01*
X133331Y201430D01*
X130332Y198431D01*
X133331Y195432D01*
X135330D02*
X137329D01*
X136329D01*
Y201430D01*
X135330Y200431D01*
X20959Y-85436D02*
Y-83437D01*
Y-84437D01*
X15961D01*
X14961Y-83437D01*
Y-82437D01*
X15961Y-81438D01*
X14961Y-87436D02*
Y-89435D01*
Y-88435D01*
X20959D01*
X19959Y-87436D01*
X14961Y-92434D02*
Y-94433D01*
Y-93434D01*
X20959D01*
X19959Y-92434D01*
X17960Y-97433D02*
Y-101431D01*
X20959Y-103430D02*
X14961Y-107429D01*
X20959D02*
X14961Y-103430D01*
X20959Y-109429D02*
X14961D01*
Y-112428D01*
X15961Y-113427D01*
X16960D01*
X17960Y-112428D01*
Y-109429D01*
Y-112428D01*
X18960Y-113427D01*
X19959D01*
X20959Y-112428D01*
Y-109429D01*
Y-119425D02*
Y-115427D01*
X14961D01*
Y-119425D01*
X17960Y-115427D02*
Y-117426D01*
X20959Y-125423D02*
Y-121425D01*
X14961D01*
Y-125423D01*
X17960Y-121425D02*
Y-123424D01*
X132875Y-376017D02*
X131542D01*
X132208D01*
Y-379349D01*
X131542Y-380016D01*
X130875D01*
X130209Y-379349D01*
X136873Y-376017D02*
X135541Y-376683D01*
X134208Y-378016D01*
Y-379349D01*
X134874Y-380016D01*
X136207D01*
X136873Y-379349D01*
Y-378683D01*
X136207Y-378016D01*
X134208D01*
X138206D02*
X140872D01*
X142205Y-376017D02*
Y-380016D01*
X144204D01*
X144871Y-379349D01*
Y-376683D01*
X144204Y-376017D01*
X142205D01*
X146204Y-380016D02*
Y-377350D01*
X147537Y-376017D01*
X148870Y-377350D01*
Y-380016D01*
Y-378016D01*
X146204D01*
X152868Y-376683D02*
X152202Y-376017D01*
X150869D01*
X150203Y-376683D01*
Y-377350D01*
X150869Y-378016D01*
X152202D01*
X152868Y-378683D01*
Y-379349D01*
X152202Y-380016D01*
X150869D01*
X150203Y-379349D01*
X154201Y-376017D02*
Y-380016D01*
Y-378016D01*
X156867D01*
Y-376017D01*
Y-380016D01*
X-60090Y-376553D02*
X-61423D01*
X-60757D01*
Y-379885D01*
X-61423Y-380551D01*
X-62090D01*
X-62756Y-379885D01*
X-58757Y-377219D02*
X-58091Y-376553D01*
X-56758D01*
X-56091Y-377219D01*
Y-377885D01*
X-56758Y-378552D01*
X-56091Y-379218D01*
Y-379885D01*
X-56758Y-380551D01*
X-58091D01*
X-58757Y-379885D01*
Y-379218D01*
X-58091Y-378552D01*
X-58757Y-377885D01*
Y-377219D01*
X-58091Y-378552D02*
X-56758D01*
X-54759D02*
X-52093D01*
X-50760Y-380551D02*
Y-376553D01*
X-49427Y-377885D01*
X-48094Y-376553D01*
Y-380551D01*
X-44095Y-377219D02*
X-44762Y-376553D01*
X-46095D01*
X-46761Y-377219D01*
Y-379885D01*
X-46095Y-380551D01*
X-44762D01*
X-44095Y-379885D01*
X-40097Y-380551D02*
X-42762D01*
X-40097Y-377885D01*
Y-377219D01*
X-40763Y-376553D01*
X-42096D01*
X-42762Y-377219D01*
X231040Y-162917D02*
Y-164250D01*
Y-163584D01*
X234372D01*
X235039Y-164250D01*
Y-164917D01*
X234372Y-165583D01*
X235039Y-158919D02*
Y-161584D01*
X232373Y-158919D01*
X231706D01*
X231040Y-159585D01*
Y-160918D01*
X231706Y-161584D01*
X233039Y-157586D02*
Y-154920D01*
X235039Y-153587D02*
X231040D01*
Y-151588D01*
X231706Y-150921D01*
X233039D01*
X233706Y-151588D01*
Y-153587D01*
X231040Y-149588D02*
X234372D01*
X235039Y-148922D01*
Y-147589D01*
X234372Y-146922D01*
X231040D01*
X235039Y-145589D02*
X231040D01*
X232373Y-144257D01*
X231040Y-142924D01*
X235039D01*
Y-141591D02*
X231040D01*
Y-139592D01*
X231706Y-138925D01*
X233039D01*
X233706Y-139592D01*
Y-141591D01*
X170675Y-376217D02*
X169342D01*
X170008D01*
Y-379549D01*
X169342Y-380216D01*
X168675D01*
X168009Y-379549D01*
X174673Y-376217D02*
X172008D01*
Y-378216D01*
X173341Y-377550D01*
X174007D01*
X174673Y-378216D01*
Y-379549D01*
X174007Y-380216D01*
X172674D01*
X172008Y-379549D01*
X176006Y-378216D02*
X178672D01*
X180005Y-376217D02*
Y-380216D01*
X182004D01*
X182671Y-379549D01*
Y-378883D01*
X182004Y-378216D01*
X180005D01*
X182004D01*
X182671Y-377550D01*
Y-376883D01*
X182004Y-376217D01*
X180005D01*
X184004Y-380216D02*
Y-376217D01*
X185337Y-377550D01*
X186670Y-376217D01*
Y-380216D01*
X190668Y-376883D02*
X190002Y-376217D01*
X188669D01*
X188003Y-376883D01*
Y-377550D01*
X188669Y-378216D01*
X190002D01*
X190668Y-378883D01*
Y-379549D01*
X190002Y-380216D01*
X188669D01*
X188003Y-379549D01*
X221488Y-322922D02*
Y-324255D01*
Y-323588D01*
X224821D01*
X225487Y-324255D01*
Y-324921D01*
X224821Y-325588D01*
X225487Y-319590D02*
X221488D01*
X223488Y-321589D01*
Y-318923D01*
Y-317590D02*
Y-314924D01*
X222155Y-310926D02*
X221488Y-311592D01*
Y-312925D01*
X222155Y-313592D01*
X222821D01*
X223488Y-312925D01*
Y-311592D01*
X224154Y-310926D01*
X224821D01*
X225487Y-311592D01*
Y-312925D01*
X224821Y-313592D01*
X221488Y-309593D02*
X225487D01*
X224154Y-308260D01*
X225487Y-306927D01*
X221488D01*
Y-305594D02*
Y-304261D01*
Y-304928D01*
X225487D01*
Y-305594D01*
Y-304261D01*
X221488Y-302262D02*
Y-299596D01*
Y-300929D01*
X225487D01*
X222155Y-295597D02*
X221488Y-296264D01*
Y-297597D01*
X222155Y-298263D01*
X224821D01*
X225487Y-297597D01*
Y-296264D01*
X224821Y-295597D01*
X221488Y-294264D02*
X225487D01*
X223488D01*
Y-291599D01*
X221488D01*
X225487D01*
X221488Y-287600D02*
Y-290266D01*
X225487D01*
Y-287600D01*
X223488Y-290266D02*
Y-288933D01*
X222155Y-283601D02*
X221488Y-284268D01*
Y-285601D01*
X222155Y-286267D01*
X222821D01*
X223488Y-285601D01*
Y-284268D01*
X224154Y-283601D01*
X224821D01*
X225487Y-284268D01*
Y-285601D01*
X224821Y-286267D01*
X260042Y192634D02*
X262042D01*
X261042D01*
Y197633D01*
X262042Y198632D01*
X263041D01*
X264041Y197633D01*
X258043Y198632D02*
X256044D01*
X257043D01*
Y192634D01*
X258043Y193634D01*
X253045Y195633D02*
X249046D01*
X247046Y192634D02*
Y198632D01*
X244047D01*
X243048Y197633D01*
Y196633D01*
X244047Y195633D01*
X247046D01*
X244047D01*
X243048Y194634D01*
Y193634D01*
X244047Y192634D01*
X247046D01*
X241048Y198632D02*
Y194634D01*
X239049Y192634D01*
X237050Y194634D01*
Y198632D01*
Y195633D01*
X241048D01*
X235050Y192634D02*
X231052D01*
X233051D01*
Y198632D01*
X-19874Y-355089D02*
X-21207D01*
Y-356088D01*
X-20541D01*
X-21207D01*
Y-357088D01*
X-19208D02*
X-18541D01*
X-18875D01*
Y-355089D01*
X-19208Y-355422D01*
X-17542Y-357088D02*
X-16875D01*
X-17209D01*
Y-355089D01*
X-17542Y-355422D01*
X79711Y-394122D02*
X78378D01*
Y-395122D01*
X79044D01*
X78378D01*
Y-396122D01*
X80377D02*
X81043D01*
X80710D01*
Y-394122D01*
X80377Y-394456D01*
X82043D02*
X82376Y-394122D01*
X83043D01*
X83376Y-394456D01*
Y-395789D01*
X83043Y-396122D01*
X82376D01*
X82043Y-395789D01*
Y-394456D01*
X166496Y-354333D02*
X165163D01*
Y-355333D01*
X165829D01*
X165163D01*
Y-356333D01*
X168495Y-354333D02*
X167829Y-354667D01*
X167162Y-355333D01*
Y-355999D01*
X167496Y-356333D01*
X168162D01*
X168495Y-355999D01*
Y-355666D01*
X168162Y-355333D01*
X167162D01*
X219007Y-406529D02*
X217008D01*
Y-408028D01*
X218007D01*
X217008D01*
Y-409528D01*
X222006Y-406529D02*
X220007D01*
Y-408028D01*
X221007Y-407528D01*
X221506D01*
X222006Y-408028D01*
Y-409028D01*
X221506Y-409528D01*
X220507D01*
X220007Y-409028D01*
X191412Y-362804D02*
X190079D01*
Y-363804D01*
X190745D01*
X190079D01*
Y-364803D01*
X193078D02*
Y-362804D01*
X192078Y-363804D01*
X193411D01*
X3620Y86400D02*
X-379D01*
Y83401D01*
X1620D01*
X-379D01*
Y80402D01*
X5619Y85401D02*
X6619Y86400D01*
X8618D01*
X9618Y85401D01*
Y84401D01*
X8618Y83401D01*
X7618D01*
X8618D01*
X9618Y82402D01*
Y81402D01*
X8618Y80402D01*
X6619D01*
X5619Y81402D01*
X12103Y96409D02*
X8104D01*
Y93410D01*
X10103D01*
X8104D01*
Y90411D01*
X18101D02*
X14102D01*
X18101Y94410D01*
Y95410D01*
X17101Y96409D01*
X15102D01*
X14102Y95410D01*
X226939Y241922D02*
X222940D01*
Y238923D01*
X224939D01*
X222940D01*
Y235924D01*
X228938D02*
X230937D01*
X229938D01*
Y241922D01*
X228938Y240922D01*
X185231Y-151375D02*
Y-157373D01*
X188230D01*
X189229Y-156373D01*
Y-152375D01*
X188230Y-151375D01*
X185231D01*
X191229Y-152375D02*
X192228Y-151375D01*
X194228D01*
X195227Y-152375D01*
Y-153374D01*
X194228Y-154374D01*
X195227Y-155374D01*
Y-156373D01*
X194228Y-157373D01*
X192228D01*
X191229Y-156373D01*
Y-155374D01*
X192228Y-154374D01*
X191229Y-153374D01*
Y-152375D01*
X192228Y-154374D02*
X194228D01*
X-39819Y76129D02*
X-40319Y76628D01*
X-41318D01*
X-41818Y76129D01*
Y74129D01*
X-41318Y73629D01*
X-40319D01*
X-39819Y74129D01*
X-38819Y76129D02*
X-38319Y76628D01*
X-37319D01*
X-36820Y76129D01*
Y75629D01*
X-37319Y75129D01*
X-36820Y74629D01*
Y74129D01*
X-37319Y73629D01*
X-38319D01*
X-38819Y74129D01*
Y74629D01*
X-38319Y75129D01*
X-38819Y75629D01*
Y76129D01*
X-38319Y75129D02*
X-37319D01*
X-87191Y75173D02*
X-87691Y75672D01*
X-88690D01*
X-89190Y75173D01*
Y73173D01*
X-88690Y72673D01*
X-87691D01*
X-87191Y73173D01*
X-86191Y75672D02*
X-84192D01*
Y75173D01*
X-86191Y73173D01*
Y72673D01*
X-44910Y249741D02*
X-45910Y250740D01*
X-47909D01*
X-48909Y249741D01*
Y245742D01*
X-47909Y244742D01*
X-45910D01*
X-44910Y245742D01*
X-38912Y250740D02*
X-42911D01*
Y247741D01*
X-40912Y248741D01*
X-39912D01*
X-38912Y247741D01*
Y245742D01*
X-39912Y244742D01*
X-41911D01*
X-42911Y245742D01*
X83630Y81774D02*
X82630Y82773D01*
X80631D01*
X79631Y81774D01*
Y77775D01*
X80631Y76775D01*
X82630D01*
X83630Y77775D01*
X88628Y76775D02*
Y82773D01*
X85629Y79774D01*
X89628D01*
X36011Y81151D02*
X35011Y82150D01*
X33012D01*
X32012Y81151D01*
Y77152D01*
X33012Y76152D01*
X35011D01*
X36011Y77152D01*
X38010Y81151D02*
X39010Y82150D01*
X41009D01*
X42009Y81151D01*
Y80151D01*
X41009Y79151D01*
X40009D01*
X41009D01*
X42009Y78152D01*
Y77152D01*
X41009Y76152D01*
X39010D01*
X38010Y77152D01*
X43530Y227441D02*
X42530Y228440D01*
X40531D01*
X39531Y227441D01*
Y223442D01*
X40531Y222442D01*
X42530D01*
X43530Y223442D01*
X49528Y222442D02*
X45529D01*
X49528Y226441D01*
Y227441D01*
X48528Y228440D01*
X46529D01*
X45529Y227441D01*
X-111484Y214885D02*
X-109485D01*
X-110484D01*
Y220883D01*
X-111484Y219884D01*
X-102487Y214885D02*
X-106486D01*
X-102487Y218884D01*
Y219884D01*
X-103487Y220883D01*
X-105486D01*
X-106486Y219884D01*
X-100488Y220883D02*
Y216885D01*
X-98488Y214885D01*
X-96489Y216885D01*
Y220883D01*
X130560Y116583D02*
X126561D01*
Y113584D01*
X128561Y114583D01*
X129560D01*
X130560Y113584D01*
Y111584D01*
X129560Y110584D01*
X127561D01*
X126561Y111584D01*
X132559Y116583D02*
Y112584D01*
X134559Y110584D01*
X136558Y112584D01*
Y116583D01*
D13*
X-7599Y92964D02*
G03*
X-7599Y92964I-300J0D01*
G01*
X28161Y104124D02*
G03*
X28161Y104124I-300J0D01*
G01*
X-25961Y-364633D02*
G03*
X-25961Y-364633I-300J0D01*
G01*
X88765Y-402629D02*
G03*
X88765Y-402629I-300J0D01*
G01*
X167474Y-373414D02*
G03*
X167474Y-373414I-300J0D01*
G01*
X184688Y-371592D02*
G03*
X184688Y-371592I-300J0D01*
G01*
X234190Y250867D02*
G03*
X234190Y250867I-300J0D01*
G01*
X-1016Y160837D02*
X3256D01*
X-1016Y153538D02*
X3256D01*
X-100509Y50184D02*
Y53124D01*
X-70009Y65944D02*
Y68884D01*
X-100509D02*
X-70009D01*
X-100509Y65944D02*
Y68884D01*
Y50184D02*
X-70009D01*
Y53124D01*
X-57559Y231014D02*
Y233954D01*
X-88059Y215254D02*
Y218194D01*
Y215254D02*
X-57559D01*
Y218194D01*
X-88059Y233954D02*
X-57559D01*
X-88059Y231014D02*
Y233954D01*
X-87789Y252644D02*
Y255584D01*
X-57289D01*
Y236884D02*
Y239824D01*
X-87789Y236884D02*
X-57289D01*
X-87789D02*
Y239824D01*
X-57289Y252644D02*
Y255584D01*
X-53929Y66274D02*
Y69214D01*
X-23429D01*
Y50514D02*
Y53454D01*
X-53929Y50514D02*
X-23429D01*
X-53929D02*
Y53454D01*
X-23429Y66274D02*
Y69214D01*
X46961Y64364D02*
X49901D01*
X46961D02*
Y94864D01*
X62721D02*
X65661D01*
Y64364D02*
Y94864D01*
X62721Y64364D02*
X65661D01*
X46961Y94864D02*
X49901D01*
X59358Y215974D02*
Y218914D01*
X89858Y231734D02*
Y234674D01*
X59358D02*
X89858D01*
X59358Y231734D02*
Y234674D01*
Y215974D02*
X89858D01*
Y218914D01*
X89858Y237284D02*
Y240224D01*
X59358Y237284D02*
X89858D01*
X59358Y253044D02*
Y255984D01*
X89858D01*
Y253044D02*
Y255984D01*
X59358Y237284D02*
Y240224D01*
X95551Y94994D02*
X98491D01*
X111311Y64494D02*
X114251D01*
Y94994D01*
X111311D02*
X114251D01*
X95551Y64494D02*
Y94994D01*
Y64494D02*
X98491D01*
X-11549Y81024D02*
Y84304D01*
X-4249Y81024D02*
Y84304D01*
X168448Y-116915D02*
Y-112644D01*
X175748Y-116915D02*
Y-112644D01*
X-8800Y174154D02*
Y178425D01*
X-1500Y174154D02*
Y178425D01*
X-938Y150312D02*
X3334D01*
X-938Y143013D02*
X3334D01*
X31511Y92184D02*
Y95464D01*
X24211Y92184D02*
Y95464D01*
X146115Y-357464D02*
Y-353193D01*
X138815Y-357464D02*
Y-353193D01*
X175474Y-339246D02*
X179746D01*
X175474Y-331947D02*
X179746D01*
X175474Y-342236D02*
X179746D01*
X175474Y-349535D02*
X179746D01*
X217490Y-395174D02*
X222668D01*
X217490Y-402674D02*
X222668D01*
X202932Y-111746D02*
X207204D01*
X202932Y-104447D02*
X207204D01*
X221950Y254517D02*
X225230D01*
X221950Y247217D02*
X225230D01*
X248422Y37856D02*
Y42127D01*
X241122Y37856D02*
Y42127D01*
D14*
X167682Y-405609D02*
X191067D01*
Y-438916D02*
Y-405609D01*
X167682Y-438916D02*
X191067D01*
X167682D02*
Y-405609D01*
X284751Y-257108D02*
Y-194352D01*
X251444Y-257108D02*
Y-194352D01*
Y-257108D02*
X284751D01*
X251444Y-194352D02*
X284751D01*
X100428Y-438778D02*
Y-405471D01*
Y-438778D02*
X123814D01*
Y-405471D01*
X100428D02*
X123814D01*
X251203Y-164395D02*
X284510D01*
Y-141009D01*
X251203D02*
X284510D01*
X251203Y-164395D02*
Y-141009D01*
X-108668Y-176122D02*
X-75361D01*
X-108668Y-199508D02*
Y-176122D01*
Y-199508D02*
X-75361D01*
Y-176122D01*
X-110025Y-272912D02*
X-76718D01*
X-110025Y-216061D02*
X-76718D01*
Y-272912D02*
Y-216061D01*
X-110025Y-272912D02*
Y-216061D01*
X-67718Y-405774D02*
X-34490D01*
Y-439081D02*
Y-405774D01*
X-67718Y-439081D02*
X-34490D01*
X-67718D02*
Y-405774D01*
X126965Y-438728D02*
Y-405421D01*
Y-438728D02*
X160194D01*
Y-405421D01*
X126965D02*
X160194D01*
X285080Y-333000D02*
Y-276150D01*
X251773Y-333000D02*
Y-276150D01*
Y-333000D02*
X285080D01*
X251773Y-276150D02*
X285080D01*
X236983Y224332D02*
X260368D01*
X236983D02*
Y257640D01*
X260368D01*
Y224332D02*
Y257640D01*
D15*
X18952Y107753D02*
Y207753D01*
Y107753D02*
X118952D01*
Y207753D01*
X18952D02*
X118952D01*
X-19041Y81591D02*
Y206001D01*
X-109198Y81591D02*
X-19041D01*
X-109198Y81591D02*
Y211119D01*
X-24159D01*
X-19041Y206001D01*
X54221Y-234178D02*
Y-227091D01*
X125481Y-234178D02*
Y-181816D01*
X54221Y-234178D02*
X125481D01*
X54221Y-227091D02*
Y-181816D01*
X125481D01*
X127549Y206902D02*
X198809D01*
Y252178D01*
X127549Y259264D02*
X198809D01*
X127549Y206902D02*
Y259264D01*
X198809Y252178D02*
Y259264D01*
X-110570Y-307580D02*
X-39310D01*
X-110570Y-352855D02*
Y-307580D01*
Y-359942D02*
X-39310D01*
Y-307580D01*
X-110570Y-359942D02*
Y-352855D01*
X125745Y-246038D02*
Y-238951D01*
X54485Y-291314D02*
Y-238951D01*
X125745D01*
Y-291314D02*
Y-246038D01*
X54485Y-291314D02*
X125745D01*
X191496Y119430D02*
Y107621D01*
Y119430D02*
X196557D01*
X198244Y118867D01*
X198806Y118305D01*
X199368Y117181D01*
Y116056D01*
X198806Y114931D01*
X198244Y114369D01*
X196557Y113807D01*
X191496D02*
X196557D01*
X198244Y113244D01*
X198806Y112682D01*
X199368Y111557D01*
Y109871D01*
X198806Y108746D01*
X198244Y108184D01*
X196557Y107621D01*
X191496D01*
X205385Y119430D02*
X204260Y118867D01*
X203136Y117743D01*
X202574Y116618D01*
X202011Y114931D01*
Y112120D01*
X202574Y110433D01*
X203136Y109308D01*
X204260Y108184D01*
X205385Y107621D01*
X207634D01*
X208759Y108184D01*
X209884Y109308D01*
X210446Y110433D01*
X211008Y112120D01*
Y114931D01*
X210446Y116618D01*
X209884Y117743D01*
X208759Y118867D01*
X207634Y119430D01*
X205385D01*
X213763D02*
Y107621D01*
X220511D01*
X225741Y119430D02*
Y107621D01*
X221804Y119430D02*
X229677D01*
D16*
X184366Y-203641D02*
X183699Y-202975D01*
X182367D01*
X181700Y-203641D01*
Y-206307D01*
X182367Y-206974D01*
X183699D01*
X184366Y-206307D01*
Y-204974D01*
X183033D01*
X185699Y-206974D02*
Y-202975D01*
X188365Y-206974D01*
Y-202975D01*
X189697D02*
Y-206974D01*
X191697D01*
X192363Y-206307D01*
Y-203641D01*
X191697Y-202975D01*
X189697D01*
X146693Y-207165D02*
Y-203167D01*
X148692D01*
X149359Y-203833D01*
Y-205166D01*
X148692Y-205833D01*
X146693D01*
X153357Y-203833D02*
X152691Y-203167D01*
X151358D01*
X150692Y-203833D01*
Y-206499D01*
X151358Y-207165D01*
X152691D01*
X153357Y-206499D01*
Y-205166D01*
X152024D01*
X154690Y-207165D02*
X156023D01*
X155357D01*
Y-203167D01*
X154690Y-203833D01*
X146496Y-216800D02*
Y-212801D01*
X148495D01*
X149162Y-213468D01*
Y-214801D01*
X148495Y-215467D01*
X146496D01*
X150495Y-212801D02*
Y-216800D01*
Y-215467D01*
X153161Y-212801D01*
X151161Y-214801D01*
X153161Y-216800D01*
X156493D02*
Y-212801D01*
X154493Y-214801D01*
X157159D01*
X146772Y-226850D02*
Y-222852D01*
X148771D01*
X149437Y-223518D01*
Y-224851D01*
X148771Y-225518D01*
X146772D01*
X150770Y-222852D02*
Y-226850D01*
Y-225518D01*
X153436Y-222852D01*
X151437Y-224851D01*
X153436Y-226850D01*
X157435Y-222852D02*
X154769D01*
Y-224851D01*
X156102Y-224185D01*
X156768D01*
X157435Y-224851D01*
Y-226184D01*
X156768Y-226850D01*
X155436D01*
X154769Y-226184D01*
X146693Y-236800D02*
Y-232801D01*
X148692D01*
X149359Y-233468D01*
Y-234801D01*
X148692Y-235467D01*
X146693D01*
X150692Y-236800D02*
Y-232801D01*
X152024Y-234134D01*
X153357Y-232801D01*
Y-236800D01*
X154690Y-233468D02*
X155357Y-232801D01*
X156690D01*
X157356Y-233468D01*
Y-236134D01*
X156690Y-236800D01*
X155357D01*
X154690Y-236134D01*
Y-233468D01*
X146811Y-246457D02*
Y-242458D01*
X148810D01*
X149477Y-243124D01*
Y-244457D01*
X148810Y-245124D01*
X146811D01*
X150810Y-246457D02*
Y-242458D01*
X152143Y-243791D01*
X153475Y-242458D01*
Y-246457D01*
X154808D02*
X156141D01*
X155475D01*
Y-242458D01*
X154808Y-243124D01*
X146496Y-256653D02*
Y-252655D01*
X148495D01*
X149162Y-253321D01*
Y-254654D01*
X148495Y-255321D01*
X146496D01*
X150495Y-256653D02*
Y-252655D01*
X151828Y-253988D01*
X153161Y-252655D01*
Y-256653D01*
X157159D02*
X154493D01*
X157159Y-253988D01*
Y-253321D01*
X156493Y-252655D01*
X155160D01*
X154493Y-253321D01*
X146417Y-266890D02*
Y-262891D01*
X148417D01*
X149083Y-263558D01*
Y-264890D01*
X148417Y-265557D01*
X146417D01*
X150416Y-262891D02*
Y-266890D01*
Y-264890D01*
X153082D01*
Y-262891D01*
Y-266890D01*
X154415Y-263558D02*
X155081Y-262891D01*
X156414D01*
X157080Y-263558D01*
Y-266223D01*
X156414Y-266890D01*
X155081D01*
X154415Y-266223D01*
Y-263558D01*
X146417Y-276850D02*
Y-272852D01*
X148417D01*
X149083Y-273518D01*
Y-274851D01*
X148417Y-275518D01*
X146417D01*
X150416Y-272852D02*
Y-276850D01*
Y-274851D01*
X153082D01*
Y-272852D01*
Y-276850D01*
X154415D02*
X155748D01*
X155081D01*
Y-272852D01*
X154415Y-273518D01*
X146142Y-286653D02*
Y-282655D01*
X148141D01*
X148808Y-283321D01*
Y-284654D01*
X148141Y-285321D01*
X146142D01*
X150140Y-282655D02*
Y-286653D01*
Y-285321D01*
X152806Y-282655D01*
X150807Y-284654D01*
X152806Y-286653D01*
X156805Y-282655D02*
X155472Y-283321D01*
X154139Y-284654D01*
Y-285987D01*
X154806Y-286653D01*
X156139D01*
X156805Y-285987D01*
Y-285321D01*
X156139Y-284654D01*
X154139D01*
X144700Y-296800D02*
Y-292802D01*
X146699D01*
X147366Y-293468D01*
Y-294801D01*
X146699Y-295467D01*
X144700D01*
X148699Y-292802D02*
Y-296800D01*
Y-295467D01*
X151364Y-292802D01*
X149365Y-294801D01*
X151364Y-296800D01*
X152697Y-292802D02*
X155363D01*
Y-293468D01*
X152697Y-296134D01*
Y-296800D01*
X181700Y-296800D02*
Y-292801D01*
X183699D01*
X184366Y-293468D01*
Y-294801D01*
X183699Y-295467D01*
X181700D01*
X185699Y-296800D02*
Y-292801D01*
X187032Y-294134D01*
X188365Y-292801D01*
Y-296800D01*
X192363Y-292801D02*
X191030Y-293468D01*
X189697Y-294801D01*
Y-296134D01*
X190364Y-296800D01*
X191697D01*
X192363Y-296134D01*
Y-295467D01*
X191697Y-294801D01*
X189697D01*
X181700Y-286800D02*
Y-282801D01*
X183699D01*
X184366Y-283468D01*
Y-284801D01*
X183699Y-285467D01*
X181700D01*
X188365Y-286134D02*
Y-283468D01*
X187698Y-282801D01*
X186365D01*
X185699Y-283468D01*
Y-286134D01*
X186365Y-286800D01*
X187698D01*
X187032Y-285467D02*
X188365Y-286800D01*
X187698D02*
X188365Y-286134D01*
X189697Y-286800D02*
X191030D01*
X190364D01*
Y-282801D01*
X189697Y-283468D01*
X181700Y-276800D02*
Y-272801D01*
X183699D01*
X184366Y-273468D01*
Y-274801D01*
X183699Y-275467D01*
X181700D01*
X185699Y-276800D02*
Y-272801D01*
X187698D01*
X188365Y-273468D01*
Y-274801D01*
X187698Y-275467D01*
X185699D01*
X189697Y-273468D02*
X190364Y-272801D01*
X191697D01*
X192363Y-273468D01*
Y-274134D01*
X191697Y-274801D01*
X191030D01*
X191697D01*
X192363Y-275467D01*
Y-276134D01*
X191697Y-276800D01*
X190364D01*
X189697Y-276134D01*
X181700Y-266800D02*
Y-262801D01*
X183699D01*
X184366Y-263468D01*
Y-264801D01*
X183699Y-265467D01*
X181700D01*
X188365Y-266134D02*
Y-263468D01*
X187698Y-262801D01*
X186365D01*
X185699Y-263468D01*
Y-266134D01*
X186365Y-266800D01*
X187698D01*
X187032Y-265467D02*
X188365Y-266800D01*
X187698D02*
X188365Y-266134D01*
X189697Y-263468D02*
X190364Y-262801D01*
X191697D01*
X192363Y-263468D01*
Y-264134D01*
X191697Y-264801D01*
X191030D01*
X191697D01*
X192363Y-265467D01*
Y-266134D01*
X191697Y-266800D01*
X190364D01*
X189697Y-266134D01*
X181700Y-256800D02*
Y-252801D01*
X183699D01*
X184366Y-253468D01*
Y-254801D01*
X183699Y-255467D01*
X181700D01*
X188365Y-256134D02*
Y-253468D01*
X187698Y-252801D01*
X186365D01*
X185699Y-253468D01*
Y-256134D01*
X186365Y-256800D01*
X187698D01*
X187032Y-255467D02*
X188365Y-256800D01*
X187698D02*
X188365Y-256134D01*
X192363Y-256800D02*
X189697D01*
X192363Y-254134D01*
Y-253468D01*
X191697Y-252801D01*
X190364D01*
X189697Y-253468D01*
X181700Y-246800D02*
Y-242801D01*
X183699D01*
X184366Y-243468D01*
Y-244801D01*
X183699Y-245467D01*
X181700D01*
X183033D02*
X184366Y-246800D01*
X188365Y-243468D02*
X187698Y-242801D01*
X186365D01*
X185699Y-243468D01*
Y-244134D01*
X186365Y-244801D01*
X187698D01*
X188365Y-245467D01*
Y-246134D01*
X187698Y-246800D01*
X186365D01*
X185699Y-246134D01*
X189697Y-242801D02*
X192363D01*
X191030D01*
Y-246800D01*
X181700Y-236800D02*
Y-232801D01*
X183699D01*
X184366Y-233468D01*
Y-234801D01*
X183699Y-235467D01*
X181700D01*
X185699Y-236800D02*
Y-234134D01*
X187032Y-232801D01*
X188365Y-234134D01*
Y-236800D01*
Y-234801D01*
X185699D01*
X189697Y-232801D02*
X192363D01*
Y-233468D01*
X189697Y-236134D01*
Y-236800D01*
X181700Y-226800D02*
Y-222801D01*
X183699D01*
X184366Y-223468D01*
Y-224801D01*
X183699Y-225467D01*
X181700D01*
X185699Y-226800D02*
Y-222801D01*
X187698D01*
X188365Y-223468D01*
Y-224801D01*
X187698Y-225467D01*
X185699D01*
X192363Y-222801D02*
X189697D01*
Y-224801D01*
X191030Y-224134D01*
X191697D01*
X192363Y-224801D01*
Y-226134D01*
X191697Y-226800D01*
X190364D01*
X189697Y-226134D01*
X181700Y-216800D02*
Y-212801D01*
X183699D01*
X184366Y-213468D01*
Y-214801D01*
X183699Y-215467D01*
X181700D01*
X185699Y-216800D02*
Y-212801D01*
X187032Y-214134D01*
X188365Y-212801D01*
Y-216800D01*
X189697Y-212801D02*
X192363D01*
Y-213468D01*
X189697Y-216134D01*
Y-216800D01*
X-25035Y-203352D02*
X-24369Y-202686D01*
X-23036D01*
X-22369Y-203352D01*
Y-204019D01*
X-23036Y-204685D01*
X-23702D01*
X-23036D01*
X-22369Y-205352D01*
Y-206018D01*
X-23036Y-206685D01*
X-24369D01*
X-25035Y-206018D01*
X-21036Y-202686D02*
Y-205352D01*
X-19703Y-206685D01*
X-18371Y-205352D01*
Y-202686D01*
X-17038Y-203352D02*
X-16371Y-202686D01*
X-15038D01*
X-14372Y-203352D01*
Y-204019D01*
X-15038Y-204685D01*
X-15705D01*
X-15038D01*
X-14372Y-205352D01*
Y-206018D01*
X-15038Y-206685D01*
X-16371D01*
X-17038Y-206018D01*
X14521Y-203237D02*
X11855D01*
Y-205237D01*
X13188Y-204570D01*
X13854D01*
X14521Y-205237D01*
Y-206569D01*
X13854Y-207236D01*
X12521D01*
X11855Y-206569D01*
X15853Y-203237D02*
Y-205903D01*
X17186Y-207236D01*
X18519Y-205903D01*
Y-203237D01*
X14481Y-214337D02*
X13815Y-213670D01*
X12482D01*
X11815Y-214337D01*
Y-217003D01*
X12482Y-217669D01*
X13815D01*
X14481Y-217003D01*
Y-215670D01*
X13148D01*
X15814Y-217669D02*
Y-213670D01*
X18480Y-217669D01*
Y-213670D01*
X19813D02*
Y-217669D01*
X21812D01*
X22479Y-217003D01*
Y-214337D01*
X21812Y-213670D01*
X19813D01*
X-25500Y-297000D02*
Y-293001D01*
X-23501D01*
X-22834Y-293668D01*
Y-295001D01*
X-23501Y-295667D01*
X-25500D01*
X-21501Y-297000D02*
Y-293001D01*
X-18835Y-297000D01*
Y-293001D01*
X-15503Y-297000D02*
Y-293001D01*
X-17502Y-295001D01*
X-14837D01*
X-25500Y-287000D02*
Y-283001D01*
X-23501D01*
X-22834Y-283668D01*
Y-285001D01*
X-23501Y-285667D01*
X-25500D01*
X-21501Y-287000D02*
Y-283001D01*
X-18835Y-287000D01*
Y-283001D01*
X-14837D02*
X-17502D01*
Y-285001D01*
X-16170Y-284334D01*
X-15503D01*
X-14837Y-285001D01*
Y-286333D01*
X-15503Y-287000D01*
X-16836D01*
X-17502Y-286333D01*
X-25500Y-277000D02*
Y-273001D01*
X-23501D01*
X-22834Y-273668D01*
Y-275001D01*
X-23501Y-275667D01*
X-25500D01*
X-21501Y-277000D02*
Y-273001D01*
X-19502D01*
X-18835Y-273668D01*
Y-275001D01*
X-19502Y-275667D01*
X-21501D01*
X-15503Y-277000D02*
Y-273001D01*
X-17502Y-275001D01*
X-14837D01*
X-25500Y-267000D02*
Y-263001D01*
X-23501D01*
X-22834Y-263668D01*
Y-265001D01*
X-23501Y-265667D01*
X-25500D01*
X-18835Y-266334D02*
Y-263668D01*
X-19502Y-263001D01*
X-20835D01*
X-21501Y-263668D01*
Y-266334D01*
X-20835Y-267000D01*
X-19502D01*
X-20168Y-265667D02*
X-18835Y-267000D01*
X-19502D02*
X-18835Y-266334D01*
X-17502Y-263668D02*
X-16836Y-263001D01*
X-15503D01*
X-14837Y-263668D01*
Y-266334D01*
X-15503Y-267000D01*
X-16836D01*
X-17502Y-266334D01*
Y-263668D01*
X-25500Y-253668D02*
X-22834Y-256333D01*
X-25500D02*
X-22834Y-253668D01*
X-25500Y-255001D02*
X-22834D01*
X-24167Y-256333D02*
Y-253668D01*
X-21501Y-253001D02*
X-18835D01*
X-20168D01*
Y-257000D01*
X-17502Y-253001D02*
X-14837Y-257000D01*
Y-253001D02*
X-17502Y-257000D01*
X-25500Y-243668D02*
X-22834Y-246334D01*
X-25500D02*
X-22834Y-243668D01*
X-25500Y-245001D02*
X-22834D01*
X-24167Y-246334D02*
Y-243668D01*
X-21501Y-247000D02*
Y-243001D01*
X-19502D01*
X-18835Y-243668D01*
Y-245001D01*
X-19502Y-245667D01*
X-21501D01*
X-20168D02*
X-18835Y-247000D01*
X-17502Y-243001D02*
X-14837Y-247000D01*
Y-243001D02*
X-17502Y-247000D01*
X-25500Y-237000D02*
Y-233001D01*
X-23501D01*
X-22834Y-233668D01*
Y-235001D01*
X-23501Y-235667D01*
X-25500D01*
X-21501Y-237000D02*
Y-233001D01*
X-19502D01*
X-18835Y-233668D01*
Y-235001D01*
X-19502Y-235667D01*
X-21501D01*
X-17502Y-237000D02*
X-16170D01*
X-16836D01*
Y-233001D01*
X-17502Y-233668D01*
X-25500Y-227000D02*
Y-223001D01*
X-23501D01*
X-22834Y-223668D01*
Y-225001D01*
X-23501Y-225667D01*
X-25500D01*
X-21501Y-227000D02*
Y-223001D01*
X-19502D01*
X-18835Y-223668D01*
Y-225001D01*
X-19502Y-225667D01*
X-21501D01*
X-17502Y-223668D02*
X-16836Y-223001D01*
X-15503D01*
X-14837Y-223668D01*
Y-226333D01*
X-15503Y-227000D01*
X-16836D01*
X-17502Y-226333D01*
Y-223668D01*
X-25500Y-217000D02*
Y-213001D01*
X-23501D01*
X-22834Y-213668D01*
Y-215001D01*
X-23501Y-215667D01*
X-25500D01*
X-21501Y-213001D02*
Y-217000D01*
X-19502D01*
X-18835Y-216334D01*
Y-213668D01*
X-19502Y-213001D01*
X-21501D01*
X-14837Y-217000D02*
X-17502D01*
X-14837Y-214334D01*
Y-213668D01*
X-15503Y-213001D01*
X-16836D01*
X-17502Y-213668D01*
X11500Y-237000D02*
Y-233001D01*
X13500D01*
X14166Y-233667D01*
Y-235000D01*
X13500Y-235667D01*
X11500D01*
X15499Y-233001D02*
Y-237000D01*
X17498D01*
X18165Y-236333D01*
Y-235667D01*
X17498Y-235000D01*
X15499D01*
X17498D01*
X18165Y-234334D01*
Y-233667D01*
X17498Y-233001D01*
X15499D01*
X22164D02*
X19498D01*
Y-235000D01*
X20831Y-234334D01*
X21497D01*
X22164Y-235000D01*
Y-236333D01*
X21497Y-237000D01*
X20164D01*
X19498Y-236333D01*
X11500Y-227000D02*
Y-223001D01*
X13500D01*
X14166Y-223667D01*
Y-225000D01*
X13500Y-225667D01*
X11500D01*
X15499Y-223001D02*
Y-227000D01*
X17498D01*
X18165Y-226333D01*
Y-225667D01*
X17498Y-225000D01*
X15499D01*
X17498D01*
X18165Y-224334D01*
Y-223667D01*
X17498Y-223001D01*
X15499D01*
X21497Y-227000D02*
Y-223001D01*
X19498Y-225000D01*
X22164D01*
X11500Y-247000D02*
Y-243001D01*
X13500D01*
X14166Y-243667D01*
Y-245000D01*
X13500Y-245667D01*
X11500D01*
X15499Y-243001D02*
Y-247000D01*
Y-245667D01*
X18165Y-243001D01*
X16165Y-245000D01*
X18165Y-247000D01*
X19498Y-243667D02*
X20164Y-243001D01*
X21497D01*
X22164Y-243667D01*
Y-246333D01*
X21497Y-247000D01*
X20164D01*
X19498Y-246333D01*
Y-243667D01*
X11500Y-257000D02*
Y-253001D01*
X13500D01*
X14166Y-253667D01*
Y-255000D01*
X13500Y-255667D01*
X11500D01*
X15499Y-253001D02*
Y-257000D01*
Y-255667D01*
X18165Y-253001D01*
X16165Y-255000D01*
X18165Y-257000D01*
X19498D02*
X20831D01*
X20164D01*
Y-253001D01*
X19498Y-253667D01*
X11500Y-267000D02*
Y-263001D01*
X13500D01*
X14166Y-263667D01*
Y-265000D01*
X13500Y-265667D01*
X11500D01*
X15499Y-263001D02*
Y-267000D01*
Y-265667D01*
X18165Y-263001D01*
X16165Y-265000D01*
X18165Y-267000D01*
X22164D02*
X19498D01*
X22164Y-264334D01*
Y-263667D01*
X21497Y-263001D01*
X20164D01*
X19498Y-263667D01*
X11500Y-277000D02*
Y-273001D01*
X13500D01*
X14166Y-273667D01*
Y-275000D01*
X13500Y-275667D01*
X11500D01*
X15499Y-273001D02*
Y-277000D01*
Y-275667D01*
X18165Y-273001D01*
X16165Y-275000D01*
X18165Y-277000D01*
X19498Y-273667D02*
X20164Y-273001D01*
X21497D01*
X22164Y-273667D01*
Y-274334D01*
X21497Y-275000D01*
X20831D01*
X21497D01*
X22164Y-275667D01*
Y-276333D01*
X21497Y-277000D01*
X20164D01*
X19498Y-276333D01*
X11500Y-287000D02*
Y-283001D01*
X13500D01*
X14166Y-283667D01*
Y-285000D01*
X13500Y-285667D01*
X11500D01*
X15499Y-287000D02*
Y-284334D01*
X16832Y-283001D01*
X18165Y-284334D01*
Y-287000D01*
Y-285000D01*
X15499D01*
X21497Y-287000D02*
Y-283001D01*
X19498Y-285000D01*
X22164D01*
X11500Y-299000D02*
Y-295001D01*
X13500D01*
X14166Y-295667D01*
Y-297000D01*
X13500Y-297667D01*
X11500D01*
X15499Y-299000D02*
Y-296334D01*
X16832Y-295001D01*
X18165Y-296334D01*
Y-299000D01*
Y-297000D01*
X15499D01*
X22164Y-295001D02*
X19498D01*
Y-297000D01*
X20831Y-296334D01*
X21497D01*
X22164Y-297000D01*
Y-298333D01*
X21497Y-299000D01*
X20164D01*
X19498Y-298333D01*
X184363Y46254D02*
X183696Y46920D01*
X182364D01*
X181697Y46254D01*
Y43588D01*
X182364Y42922D01*
X183696D01*
X184363Y43588D01*
Y44921D01*
X183030D01*
X185696Y42922D02*
Y46920D01*
X188362Y42922D01*
Y46920D01*
X189695D02*
Y42922D01*
X191694D01*
X192360Y43588D01*
Y46254D01*
X191694Y46920D01*
X189695D01*
X144500Y-47000D02*
Y-43001D01*
X146500D01*
X147166Y-43668D01*
Y-45000D01*
X146500Y-45667D01*
X144500D01*
X148499Y-43001D02*
Y-47000D01*
X151165D01*
X152498Y-43668D02*
X153164Y-43001D01*
X154497D01*
X155163Y-43668D01*
Y-44334D01*
X154497Y-45000D01*
X153831D01*
X154497D01*
X155163Y-45667D01*
Y-46333D01*
X154497Y-47000D01*
X153164D01*
X152498Y-46333D01*
X144500Y-37000D02*
Y-33001D01*
X146500D01*
X147166Y-33668D01*
Y-35001D01*
X146500Y-35667D01*
X144500D01*
X148499Y-33001D02*
Y-37000D01*
X151165D01*
X155163D02*
X152498D01*
X155163Y-34334D01*
Y-33668D01*
X154497Y-33001D01*
X153164D01*
X152498Y-33668D01*
X144500Y-27000D02*
Y-23001D01*
X146500D01*
X147166Y-23668D01*
Y-25001D01*
X146500Y-25667D01*
X144500D01*
X148499Y-23001D02*
Y-27000D01*
X151165D01*
X152498D02*
X153831D01*
X153164D01*
Y-23001D01*
X152498Y-23668D01*
X144500Y-17000D02*
Y-13001D01*
X146500D01*
X147166Y-13668D01*
Y-15001D01*
X146500Y-15667D01*
X144500D01*
X148499Y-13001D02*
Y-17000D01*
X151165D01*
X152498Y-13668D02*
X153164Y-13001D01*
X154497D01*
X155163Y-13668D01*
Y-16333D01*
X154497Y-17000D01*
X153164D01*
X152498Y-16333D01*
Y-13668D01*
X144500Y-7000D02*
Y-3001D01*
X146500D01*
X147166Y-3668D01*
Y-5001D01*
X146500Y-5667D01*
X144500D01*
X148499Y-3001D02*
Y-7000D01*
X151165D01*
X155163Y-3001D02*
X152498D01*
Y-5001D01*
X153831Y-4334D01*
X154497D01*
X155163Y-5001D01*
Y-6333D01*
X154497Y-7000D01*
X153164D01*
X152498Y-6333D01*
X144500Y3000D02*
Y6999D01*
X146500D01*
X147166Y6332D01*
Y5000D01*
X146500Y4333D01*
X144500D01*
X148499Y6999D02*
Y3000D01*
X151165D01*
X154497D02*
Y6999D01*
X152498Y5000D01*
X155163D01*
X144500Y13000D02*
Y16999D01*
X146500D01*
X147166Y16332D01*
Y14999D01*
X146500Y14333D01*
X144500D01*
X151165Y16332D02*
X150498Y16999D01*
X149165D01*
X148499Y16332D01*
Y13667D01*
X149165Y13000D01*
X150498D01*
X151165Y13667D01*
Y14999D01*
X149832D01*
X152498Y16332D02*
X153164Y16999D01*
X154497D01*
X155163Y16332D01*
Y13667D01*
X154497Y13000D01*
X153164D01*
X152498Y13667D01*
Y16332D01*
X144500Y23000D02*
Y26999D01*
X146500D01*
X147166Y26332D01*
Y24999D01*
X146500Y24333D01*
X144500D01*
X151165Y26999D02*
X148499D01*
Y24999D01*
X149832D01*
X148499D01*
Y23000D01*
X152498Y26332D02*
X153164Y26999D01*
X154497D01*
X155163Y26332D01*
Y25666D01*
X154497Y24999D01*
X153831D01*
X154497D01*
X155163Y24333D01*
Y23667D01*
X154497Y23000D01*
X153164D01*
X152498Y23667D01*
X144500Y33000D02*
Y36999D01*
X146500D01*
X147166Y36332D01*
Y34999D01*
X146500Y34333D01*
X144500D01*
X151165Y36999D02*
X148499D01*
Y34999D01*
X149832D01*
X148499D01*
Y33000D01*
X155163D02*
X152498D01*
X155163Y35666D01*
Y36332D01*
X154497Y36999D01*
X153164D01*
X152498Y36332D01*
X144500Y43000D02*
Y46999D01*
X146500D01*
X147166Y46332D01*
Y45000D01*
X146500Y44333D01*
X144500D01*
X151165Y46999D02*
X148499D01*
Y45000D01*
X149832D01*
X148499D01*
Y43000D01*
X152498D02*
X153831D01*
X153164D01*
Y46999D01*
X152498Y46332D01*
X181500Y-47000D02*
Y-43001D01*
X183500D01*
X184166Y-43667D01*
Y-45000D01*
X183500Y-45667D01*
X181500D01*
X185499Y-47000D02*
Y-43001D01*
X187498D01*
X188165Y-43667D01*
Y-45000D01*
X187498Y-45667D01*
X185499D01*
X192164Y-47000D02*
X189498D01*
X192164Y-44334D01*
Y-43667D01*
X191497Y-43001D01*
X190164D01*
X189498Y-43667D01*
X181500Y-37000D02*
Y-33001D01*
X183500D01*
X184166Y-33667D01*
Y-35000D01*
X183500Y-35667D01*
X181500D01*
X185499Y-37000D02*
Y-33001D01*
X188165Y-37000D01*
Y-33001D01*
X189498Y-33667D02*
X190164Y-33001D01*
X191497D01*
X192164Y-33667D01*
Y-34334D01*
X191497Y-35000D01*
X190831D01*
X191497D01*
X192164Y-35667D01*
Y-36333D01*
X191497Y-37000D01*
X190164D01*
X189498Y-36333D01*
X181500Y-27000D02*
Y-23001D01*
X183500D01*
X184166Y-23667D01*
Y-25000D01*
X183500Y-25667D01*
X181500D01*
X185499Y-27000D02*
Y-23001D01*
X188165Y-27000D01*
Y-23001D01*
X192164Y-27000D02*
X189498D01*
X192164Y-24334D01*
Y-23667D01*
X191497Y-23001D01*
X190164D01*
X189498Y-23667D01*
X181500Y-17000D02*
Y-13001D01*
X183500D01*
X184166Y-13667D01*
Y-15000D01*
X183500Y-15667D01*
X181500D01*
X185499Y-13001D02*
Y-17000D01*
X187498D01*
X188165Y-16333D01*
Y-13667D01*
X187498Y-13001D01*
X185499D01*
X189498Y-13667D02*
X190164Y-13001D01*
X191497D01*
X192164Y-13667D01*
Y-16333D01*
X191497Y-17000D01*
X190164D01*
X189498Y-16333D01*
Y-13667D01*
X181500Y-7000D02*
Y-3001D01*
X183500D01*
X184166Y-3667D01*
Y-5000D01*
X183500Y-5667D01*
X181500D01*
X185499Y-3001D02*
Y-7000D01*
X187498D01*
X188165Y-6333D01*
Y-3667D01*
X187498Y-3001D01*
X185499D01*
X189498Y-7000D02*
X190831D01*
X190164D01*
Y-3001D01*
X189498Y-3667D01*
X181500Y3000D02*
Y6999D01*
X183500D01*
X184166Y6333D01*
Y5000D01*
X183500Y4333D01*
X181500D01*
X182833D02*
X184166Y3000D01*
X188165Y6333D02*
X187498Y6999D01*
X186165D01*
X185499Y6333D01*
Y5666D01*
X186165Y5000D01*
X187498D01*
X188165Y4333D01*
Y3667D01*
X187498Y3000D01*
X186165D01*
X185499Y3667D01*
X189498Y6999D02*
X192164D01*
X190831D01*
Y3000D01*
X181500Y13000D02*
Y16999D01*
X183500D01*
X184166Y16333D01*
Y15000D01*
X183500Y14333D01*
X181500D01*
X185499Y16999D02*
Y13000D01*
Y15000D01*
X188165D01*
Y16999D01*
Y13000D01*
X189498Y16333D02*
X190164Y16999D01*
X191497D01*
X192164Y16333D01*
Y15666D01*
X191497Y15000D01*
X190831D01*
X191497D01*
X192164Y14333D01*
Y13667D01*
X191497Y13000D01*
X190164D01*
X189498Y13667D01*
X181500Y23000D02*
Y26999D01*
X183500D01*
X184166Y26333D01*
Y25000D01*
X183500Y24333D01*
X181500D01*
X185499Y26999D02*
Y23000D01*
Y25000D01*
X188165D01*
Y26999D01*
Y23000D01*
X192164D02*
X189498D01*
X192164Y25666D01*
Y26333D01*
X191497Y26999D01*
X190164D01*
X189498Y26333D01*
X181500Y33000D02*
Y36999D01*
X183500D01*
X184166Y36333D01*
Y35000D01*
X183500Y34333D01*
X181500D01*
X185499Y33000D02*
Y36999D01*
X186832Y35666D01*
X188165Y36999D01*
Y33000D01*
X189498Y36333D02*
X190164Y36999D01*
X191497D01*
X192164Y36333D01*
Y35666D01*
X191497Y35000D01*
X190831D01*
X191497D01*
X192164Y34333D01*
Y33667D01*
X191497Y33000D01*
X190164D01*
X189498Y33667D01*
X15646Y35899D02*
X14979Y36565D01*
X13647D01*
X12980Y35899D01*
Y33233D01*
X13647Y32567D01*
X14979D01*
X15646Y33233D01*
Y34566D01*
X14313D01*
X16979Y32567D02*
Y36565D01*
X19645Y32567D01*
Y36565D01*
X20978D02*
Y32567D01*
X22977D01*
X23643Y33233D01*
Y35899D01*
X22977Y36565D01*
X20978D01*
X15567Y46683D02*
X12901D01*
Y44684D01*
X14234Y45351D01*
X14901D01*
X15567Y44684D01*
Y43351D01*
X14901Y42685D01*
X13568D01*
X12901Y43351D01*
X16900Y46683D02*
Y44018D01*
X18233Y42685D01*
X19566Y44018D01*
Y46683D01*
X-23713Y46017D02*
X-23046Y46683D01*
X-21713D01*
X-21047Y46017D01*
Y45351D01*
X-21713Y44684D01*
X-22380D01*
X-21713D01*
X-21047Y44018D01*
Y43351D01*
X-21713Y42685D01*
X-23046D01*
X-23713Y43351D01*
X-19714Y46683D02*
Y44018D01*
X-18381Y42685D01*
X-17048Y44018D01*
Y46683D01*
X-15715Y46017D02*
X-15049Y46683D01*
X-13716D01*
X-13049Y46017D01*
Y45351D01*
X-13716Y44684D01*
X-14382D01*
X-13716D01*
X-13049Y44018D01*
Y43351D01*
X-13716Y42685D01*
X-15049D01*
X-15715Y43351D01*
X-23516Y32803D02*
Y36802D01*
X-21517D01*
X-20850Y36135D01*
Y34802D01*
X-21517Y34136D01*
X-23516D01*
X-16851Y36802D02*
X-19517D01*
Y32803D01*
X-16851D01*
X-19517Y34802D02*
X-18184D01*
X-13519Y32803D02*
Y36802D01*
X-15518Y34802D01*
X-12853D01*
X-23516Y22803D02*
Y26802D01*
X-21517D01*
X-20850Y26135D01*
Y24802D01*
X-21517Y24136D01*
X-23516D01*
X-16851Y26135D02*
X-17518Y26802D01*
X-18851D01*
X-19517Y26135D01*
Y23469D01*
X-18851Y22803D01*
X-17518D01*
X-16851Y23469D01*
X-13519Y22803D02*
Y26802D01*
X-15518Y24802D01*
X-12853D01*
X-23516Y12803D02*
Y16802D01*
X-21517D01*
X-20850Y16135D01*
Y14802D01*
X-21517Y14136D01*
X-23516D01*
X-16851Y16135D02*
X-17518Y16802D01*
X-18851D01*
X-19517Y16135D01*
Y13469D01*
X-18851Y12803D01*
X-17518D01*
X-16851Y13469D01*
X-12853Y16802D02*
X-15518D01*
Y14802D01*
X-14186Y15469D01*
X-13519D01*
X-12853Y14802D01*
Y13469D01*
X-13519Y12803D01*
X-14852D01*
X-15518Y13469D01*
X-23516Y2803D02*
Y6802D01*
X-21517D01*
X-20850Y6135D01*
Y4802D01*
X-21517Y4136D01*
X-23516D01*
X-16851Y6135D02*
X-17518Y6802D01*
X-18851D01*
X-19517Y6135D01*
Y3469D01*
X-18851Y2803D01*
X-17518D01*
X-16851Y3469D01*
X-12853Y6802D02*
X-14186Y6135D01*
X-15518Y4802D01*
Y3469D01*
X-14852Y2803D01*
X-13519D01*
X-12853Y3469D01*
Y4136D01*
X-13519Y4802D01*
X-15518D01*
X-23516Y-7197D02*
Y-3198D01*
X-21517D01*
X-20850Y-3865D01*
Y-5198D01*
X-21517Y-5864D01*
X-23516D01*
X-16851Y-3198D02*
X-19517D01*
Y-7197D01*
X-16851D01*
X-19517Y-5198D02*
X-18184D01*
X-12853Y-3198D02*
X-15518D01*
Y-5198D01*
X-14186Y-4531D01*
X-13519D01*
X-12853Y-5198D01*
Y-6531D01*
X-13519Y-7197D01*
X-14852D01*
X-15518Y-6531D01*
X-23516Y-17197D02*
Y-13198D01*
X-21517D01*
X-20850Y-13865D01*
Y-15198D01*
X-21517Y-15864D01*
X-23516D01*
X-19517Y-13198D02*
Y-17197D01*
X-17518D01*
X-16851Y-16531D01*
Y-13865D01*
X-17518Y-13198D01*
X-19517D01*
X-15518Y-13865D02*
X-14852Y-13198D01*
X-13519D01*
X-12853Y-13865D01*
Y-14531D01*
X-13519Y-15198D01*
X-14186D01*
X-13519D01*
X-12853Y-15864D01*
Y-16531D01*
X-13519Y-17197D01*
X-14852D01*
X-15518Y-16531D01*
X-23516Y-27197D02*
Y-23198D01*
X-21517D01*
X-20850Y-23865D01*
Y-25198D01*
X-21517Y-25864D01*
X-23516D01*
X-16851Y-23865D02*
X-17518Y-23198D01*
X-18851D01*
X-19517Y-23865D01*
Y-26531D01*
X-18851Y-27197D01*
X-17518D01*
X-16851Y-26531D01*
X-15518Y-23198D02*
X-12853D01*
Y-23865D01*
X-15518Y-26531D01*
Y-27197D01*
X-23516Y-37197D02*
Y-33198D01*
X-21517D01*
X-20850Y-33865D01*
Y-35198D01*
X-21517Y-35864D01*
X-23516D01*
X-19517Y-33198D02*
Y-37197D01*
X-17518D01*
X-16851Y-36531D01*
Y-35864D01*
X-17518Y-35198D01*
X-19517D01*
X-17518D01*
X-16851Y-34531D01*
Y-33865D01*
X-17518Y-33198D01*
X-19517D01*
X-12853Y-37197D02*
X-15518D01*
X-12853Y-34531D01*
Y-33865D01*
X-13519Y-33198D01*
X-14852D01*
X-15518Y-33865D01*
X-23516Y-47197D02*
Y-43198D01*
X-21517D01*
X-20850Y-43865D01*
Y-45198D01*
X-21517Y-45864D01*
X-23516D01*
X-19517Y-43198D02*
Y-47197D01*
X-17518D01*
X-16851Y-46531D01*
Y-45864D01*
X-17518Y-45198D01*
X-19517D01*
X-17518D01*
X-16851Y-44531D01*
Y-43865D01*
X-17518Y-43198D01*
X-19517D01*
X-15518Y-43865D02*
X-14852Y-43198D01*
X-13519D01*
X-12853Y-43865D01*
Y-44531D01*
X-13519Y-45198D01*
X-14186D01*
X-13519D01*
X-12853Y-45864D01*
Y-46531D01*
X-13519Y-47197D01*
X-14852D01*
X-15518Y-46531D01*
X13484Y-47197D02*
Y-43198D01*
X15484D01*
X16150Y-43865D01*
Y-45197D01*
X15484Y-45864D01*
X13484D01*
X17483Y-47197D02*
Y-43198D01*
X18816Y-44531D01*
X20149Y-43198D01*
Y-47197D01*
X24148Y-43198D02*
X21482D01*
Y-45197D01*
X22815Y-44531D01*
X23481D01*
X24148Y-45197D01*
Y-46530D01*
X23481Y-47197D01*
X22148D01*
X21482Y-46530D01*
X13484Y-37197D02*
Y-33198D01*
X15484D01*
X16150Y-33865D01*
Y-35197D01*
X15484Y-35864D01*
X13484D01*
X17483Y-37197D02*
Y-33198D01*
X18816Y-34531D01*
X20149Y-33198D01*
Y-37197D01*
X23481D02*
Y-33198D01*
X21482Y-35197D01*
X24148D01*
X13484Y-27197D02*
Y-23198D01*
X15484D01*
X16150Y-23865D01*
Y-25197D01*
X15484Y-25864D01*
X13484D01*
X17483Y-23198D02*
Y-27197D01*
X19482D01*
X20149Y-26530D01*
Y-23865D01*
X19482Y-23198D01*
X17483D01*
X24148D02*
X22815Y-23865D01*
X21482Y-25197D01*
Y-26530D01*
X22148Y-27197D01*
X23481D01*
X24148Y-26530D01*
Y-25864D01*
X23481Y-25197D01*
X21482D01*
X13484Y-17197D02*
Y-13198D01*
X15484D01*
X16150Y-13865D01*
Y-15198D01*
X15484Y-15864D01*
X13484D01*
X17483Y-13198D02*
Y-17197D01*
X19482D01*
X20149Y-16530D01*
Y-13865D01*
X19482Y-13198D01*
X17483D01*
X21482D02*
X24148D01*
Y-13865D01*
X21482Y-16530D01*
Y-17197D01*
X13484Y-7197D02*
Y-3198D01*
X15484D01*
X16150Y-3865D01*
Y-5198D01*
X15484Y-5864D01*
X13484D01*
X20149Y-3198D02*
X17483D01*
Y-7197D01*
X20149D01*
X17483Y-5198D02*
X18816D01*
X21482Y-3865D02*
X22148Y-3198D01*
X23481D01*
X24148Y-3865D01*
Y-4531D01*
X23481Y-5198D01*
X22815D01*
X23481D01*
X24148Y-5864D01*
Y-6530D01*
X23481Y-7197D01*
X22148D01*
X21482Y-6530D01*
X13484Y2803D02*
Y6802D01*
X15484D01*
X16150Y6135D01*
Y4803D01*
X15484Y4136D01*
X13484D01*
X20149Y6802D02*
X17483D01*
Y2803D01*
X20149D01*
X17483Y4803D02*
X18816D01*
X24148Y2803D02*
X21482D01*
X24148Y5469D01*
Y6135D01*
X23481Y6802D01*
X22148D01*
X21482Y6135D01*
X13484Y12803D02*
Y16802D01*
X15484D01*
X16150Y16135D01*
Y14803D01*
X15484Y14136D01*
X13484D01*
X20149Y16802D02*
X17483D01*
Y12803D01*
X20149D01*
X17483Y14803D02*
X18816D01*
X21482Y12803D02*
X22815D01*
X22148D01*
Y16802D01*
X21482Y16135D01*
X13484Y22803D02*
Y26802D01*
X15484D01*
X16150Y26135D01*
Y24803D01*
X15484Y24136D01*
X13484D01*
X20149Y26802D02*
X17483D01*
Y22803D01*
X20149D01*
X17483Y24803D02*
X18816D01*
X21482Y26135D02*
X22148Y26802D01*
X23481D01*
X24148Y26135D01*
Y23470D01*
X23481Y22803D01*
X22148D01*
X21482Y23470D01*
Y26135D01*
M02*
