G04*
G04 #@! TF.GenerationSoftware,Altium Limited,Altium Designer,18.1.9 (240)*
G04*
G04 Layer_Color=32896*
%FSLAX25Y25*%
%MOIN*%
G70*
G01*
G75*
%ADD11C,0.00600*%
%ADD12C,0.00787*%
%ADD13C,0.01000*%
%ADD68C,0.01500*%
%ADD88C,0.00984*%
%ADD89C,0.00200*%
D11*
X147100Y25723D02*
G03*
X147100Y25723I-300J0D01*
G01*
X257321Y25767D02*
G03*
X257321Y25767I-300J0D01*
G01*
X209506Y62117D02*
G03*
X209506Y62117I-300J0D01*
G01*
X176342Y122448D02*
G03*
X176342Y122448I-300J0D01*
G01*
X85337Y351911D02*
G03*
X85337Y351911I-300J0D01*
G01*
X49142Y457782D02*
G03*
X49142Y457782I-500J0D01*
G01*
X83172Y327526D02*
G03*
X83172Y327526I-500J0D01*
G01*
X203506Y99034D02*
Y100074D01*
X195406D02*
X203506D01*
X195406Y93774D02*
Y94514D01*
Y93774D02*
X203506D01*
Y94814D01*
X195406Y99334D02*
Y100074D01*
X291330Y686997D02*
X293059D01*
X280563Y663989D02*
X282292D01*
X284311Y658489D02*
X289311D01*
X286811D02*
X289311Y661489D01*
X286811Y658489D02*
X288811Y661489D01*
X286811Y658489D02*
X288311Y661489D01*
X286811Y658489D02*
X287811Y661489D01*
X286811Y658489D02*
X287217Y660925D01*
X284311Y661489D02*
X286811Y658489D01*
X284811Y661489D02*
X286811Y658489D01*
X285311Y661489D02*
X286811Y658489D01*
X285811Y661489D02*
X286811Y658489D01*
X286405Y660924D02*
X286811Y658489D01*
X284311Y661489D02*
X289311D01*
X280563Y663989D02*
Y686997D01*
X282292D01*
X293059Y663989D02*
Y686997D01*
X291330Y663989D02*
X293059D01*
X286405Y660924D02*
X286811Y661493D01*
X203365Y246524D02*
X203771Y247092D01*
X197117Y244028D02*
X198846D01*
X197117Y221020D02*
Y244028D01*
X207884Y221020D02*
X209613D01*
Y244028D01*
X200865Y246528D02*
X205865D01*
X203365Y249528D02*
X203771Y247092D01*
X203365Y249528D02*
X204365Y246528D01*
X203365Y249528D02*
X204865Y246528D01*
X203365Y249528D02*
X205365Y246528D01*
X203365Y249528D02*
X205865Y246528D01*
X202959Y247092D02*
X203365Y249528D01*
X202365Y246528D02*
X203365Y249528D01*
X201865Y246528D02*
X203365Y249528D01*
X201365Y246528D02*
X203365Y249528D01*
X200865Y246528D02*
X203365Y249528D01*
X200865D02*
X205865D01*
X207884Y244028D02*
X209613D01*
X197117Y221020D02*
X198846D01*
X208410Y189517D02*
X210139D01*
X197643Y166509D02*
X199372D01*
X201391Y161009D02*
X206391D01*
X203891D02*
X206391Y164009D01*
X203891Y161009D02*
X205891Y164009D01*
X203891Y161009D02*
X205391Y164009D01*
X203891Y161009D02*
X204891Y164009D01*
X203891Y161009D02*
X204297Y163445D01*
X201391Y164009D02*
X203891Y161009D01*
X201891Y164009D02*
X203891Y161009D01*
X202391Y164009D02*
X203891Y161009D01*
X202891Y164009D02*
X203891Y161009D01*
X203485Y163445D02*
X203891Y161009D01*
X201391Y164009D02*
X206391D01*
X197643Y166509D02*
Y189517D01*
X199372D01*
X210139Y166509D02*
Y189517D01*
X208410Y166509D02*
X210139D01*
X203485Y163445D02*
X203891Y164013D01*
X67472Y38175D02*
X67878Y38743D01*
X61224Y35679D02*
X62953D01*
X61224Y12671D02*
Y35679D01*
X71991Y12671D02*
X73720D01*
Y35679D01*
X64972Y38179D02*
X69972D01*
X67472Y41179D02*
X67878Y38743D01*
X67472Y41179D02*
X68472Y38179D01*
X67472Y41179D02*
X68972Y38179D01*
X67472Y41179D02*
X69472Y38179D01*
X67472Y41179D02*
X69972Y38179D01*
X67066Y38743D02*
X67472Y41179D01*
X66472Y38179D02*
X67472Y41179D01*
X65972Y38179D02*
X67472Y41179D01*
X65472Y38179D02*
X67472Y41179D01*
X64972Y38179D02*
X67472Y41179D01*
X64972D02*
X69972D01*
X71991Y35679D02*
X73720D01*
X61224Y12671D02*
X62953D01*
X195904Y140808D02*
X200175D01*
X195904Y133508D02*
X200175D01*
X267867Y176954D02*
Y181226D01*
X260567Y176954D02*
Y181226D01*
X242549Y695972D02*
X246821D01*
X242549Y685130D02*
X246821D01*
X243650Y669321D02*
Y673592D01*
X232807Y669321D02*
Y673592D01*
X32392Y552871D02*
X36663D01*
X32392Y542029D02*
X36663D01*
X53142Y443746D02*
Y454982D01*
X67707Y443746D02*
X72253D01*
Y454982D01*
X53142Y443746D02*
X57687D01*
X70863Y454982D02*
X72253D01*
X65107D02*
X66343D01*
X59052D02*
X60287D01*
X53142D02*
X54532D01*
X87172Y324726D02*
X88561D01*
X93081D02*
X94317D01*
X99137D02*
X100373D01*
X104893D02*
X106282D01*
X87172Y313490D02*
X91717D01*
X106282D02*
Y324726D01*
X101737Y313490D02*
X106282D01*
X87172D02*
Y324726D01*
X267157Y217292D02*
Y221564D01*
X259857Y217292D02*
Y221564D01*
X207494Y569590D02*
X211766D01*
X207494Y562290D02*
X211766D01*
X165194D02*
X169466D01*
X165194Y569590D02*
X169466D01*
D12*
X103750Y389787D02*
X123250D01*
X103750D02*
Y491787D01*
X123250D01*
Y389787D02*
Y491787D01*
X293250Y389787D02*
Y491787D01*
X273750D02*
X293250D01*
X273750Y389787D02*
Y491787D01*
Y389787D02*
X293250D01*
X103750Y139787D02*
X123250D01*
X103750D02*
Y241787D01*
X123250D01*
Y139787D02*
Y241787D01*
X293250Y139787D02*
Y241787D01*
X273750D02*
X293250D01*
X273750Y139787D02*
Y241787D01*
Y139787D02*
X293250D01*
D13*
X155109Y122945D02*
Y138693D01*
X129125Y122945D02*
Y138693D01*
X114403Y313398D02*
X111405D01*
Y315398D01*
X114403Y316397D02*
X111405D01*
Y317897D01*
X111904Y318396D01*
X113904D01*
X114403Y317897D01*
Y316397D01*
Y320896D02*
Y319896D01*
X113904Y319396D01*
X111904D01*
X111405Y319896D01*
Y320896D01*
X111904Y321395D01*
X113904D01*
X114403Y320896D01*
X111405Y324394D02*
Y322395D01*
X113404Y324394D01*
X113904D01*
X114403Y323895D01*
Y322895D01*
X113904Y322395D01*
X108718Y370192D02*
X109218Y369692D01*
Y368693D01*
X108718Y368193D01*
X106719D01*
X106219Y368693D01*
Y369692D01*
X106719Y370192D01*
X106219Y371192D02*
Y372192D01*
Y371692D01*
X109218D01*
X108718Y371192D01*
X109218Y373691D02*
Y375691D01*
X108718D01*
X106719Y373691D01*
X106219D01*
X107388Y359952D02*
X107888Y359453D01*
Y358453D01*
X107388Y357953D01*
X105389D01*
X104889Y358453D01*
Y359453D01*
X105389Y359952D01*
X104889Y360952D02*
Y361952D01*
Y361452D01*
X107888D01*
X107388Y360952D01*
X107888Y365451D02*
X107388Y364451D01*
X106388Y363451D01*
X105389D01*
X104889Y363951D01*
Y364951D01*
X105389Y365451D01*
X105889D01*
X106388Y364951D01*
Y363451D01*
X112263Y349907D02*
X112763Y349408D01*
Y348408D01*
X112263Y347908D01*
X110264D01*
X109764Y348408D01*
Y349408D01*
X110264Y349907D01*
X109764Y350907D02*
Y351907D01*
Y351407D01*
X112763D01*
X112263Y350907D01*
X112763Y355406D02*
Y353406D01*
X111264D01*
X111763Y354406D01*
Y354906D01*
X111264Y355406D01*
X110264D01*
X109764Y354906D01*
Y353906D01*
X110264Y353406D01*
X106699Y340699D02*
X107199Y340199D01*
Y339200D01*
X106699Y338700D01*
X104700D01*
X104200Y339200D01*
Y340199D01*
X104700Y340699D01*
X104200Y341699D02*
Y342699D01*
Y342199D01*
X107199D01*
X106699Y341699D01*
X104200Y346198D02*
Y344198D01*
X106199Y346198D01*
X106699D01*
X107199Y345698D01*
Y344698D01*
X106699Y344198D01*
X108914Y330016D02*
X109414Y329517D01*
Y328517D01*
X108914Y328017D01*
X106915D01*
X106415Y328517D01*
Y329517D01*
X106915Y330016D01*
X106415Y331016D02*
Y332016D01*
Y331516D01*
X109414D01*
X108914Y331016D01*
X106415Y333515D02*
Y334515D01*
Y334015D01*
X109414D01*
X108914Y333515D01*
X185341Y136208D02*
Y139207D01*
X183841D01*
X183342Y138707D01*
Y137707D01*
X183841Y137208D01*
X185341D01*
X184341D02*
X183342Y136208D01*
X182342D02*
X181342D01*
X181842D01*
Y139207D01*
X182342Y138707D01*
X179843Y136208D02*
X178843D01*
X179343D01*
Y139207D01*
X179843Y138707D01*
X269064Y159700D02*
Y165698D01*
X266065D01*
X265065Y164698D01*
Y162699D01*
X266065Y161699D01*
X269064D01*
X267065D02*
X265065Y159700D01*
X259067Y165698D02*
X263066D01*
Y162699D01*
X261067Y163699D01*
X260067D01*
X259067Y162699D01*
Y160700D01*
X260067Y159700D01*
X262066D01*
X263066Y160700D01*
X266916Y231838D02*
Y237836D01*
X263917D01*
X262917Y236836D01*
Y234837D01*
X263917Y233837D01*
X266916D01*
X264917D02*
X262917Y231838D01*
X257919D02*
Y237836D01*
X260918Y234837D01*
X256919D01*
X40268Y556570D02*
Y562568D01*
X37269D01*
X36269Y561568D01*
Y559569D01*
X37269Y558569D01*
X40268D01*
X38269D02*
X36269Y556570D01*
X34270Y561568D02*
X33270Y562568D01*
X31271D01*
X30271Y561568D01*
Y560569D01*
X31271Y559569D01*
X32270D01*
X31271D01*
X30271Y558569D01*
Y557570D01*
X31271Y556570D01*
X33270D01*
X34270Y557570D01*
X229426Y668796D02*
Y674794D01*
X226427D01*
X225427Y673794D01*
Y671795D01*
X226427Y670795D01*
X229426D01*
X227427D02*
X225427Y668796D01*
X219429D02*
X223428D01*
X219429Y672794D01*
Y673794D01*
X220429Y674794D01*
X222428D01*
X223428Y673794D01*
X262992Y688309D02*
Y694308D01*
X259993D01*
X258993Y693308D01*
Y691308D01*
X259993Y690309D01*
X262992D01*
X260993D02*
X258993Y688309D01*
X256994D02*
X254995D01*
X255994D01*
Y694308D01*
X256994Y693308D01*
X249804Y173627D02*
Y177625D01*
X250804Y178625D01*
X252803D01*
X253803Y177625D01*
Y173627D01*
X252803Y172627D01*
X250804D01*
X251804Y174626D02*
X249804Y172627D01*
X250804D02*
X249804Y173627D01*
X243806Y172627D02*
X247805D01*
X243806Y176626D01*
Y177625D01*
X244806Y178625D01*
X246805D01*
X247805Y177625D01*
X248754Y202188D02*
Y206186D01*
X249754Y207186D01*
X251753D01*
X252753Y206186D01*
Y202188D01*
X251753Y201188D01*
X249754D01*
X250754Y203187D02*
X248754Y201188D01*
X249754D02*
X248754Y202188D01*
X246755Y201188D02*
X244756D01*
X245755D01*
Y207186D01*
X246755Y206186D01*
X79727Y438983D02*
Y435984D01*
X77728D01*
X76728Y438983D02*
Y435984D01*
X75229D01*
X74729Y436484D01*
Y438483D01*
X75229Y438983D01*
X76728D01*
X72230D02*
X73229D01*
X73729Y438483D01*
Y436484D01*
X73229Y435984D01*
X72230D01*
X71730Y436484D01*
Y438483D01*
X72230Y438983D01*
X70730Y435984D02*
X69731D01*
X70231D01*
Y438983D01*
X70730Y438483D01*
X140665Y32776D02*
X141998D01*
Y31777D01*
X141332D01*
X141998D01*
Y30777D01*
X139999D02*
X139332D01*
X139665D01*
Y32776D01*
X139999Y32443D01*
X137000Y30777D02*
X138332D01*
X137000Y32110D01*
Y32443D01*
X137333Y32776D01*
X137999D01*
X138332Y32443D01*
X265429Y33663D02*
X267428D01*
Y32164D01*
X266428D01*
X267428D01*
Y30664D01*
X264429Y31164D02*
X263929Y30664D01*
X262929D01*
X262430Y31164D01*
Y33163D01*
X262929Y33663D01*
X263929D01*
X264429Y33163D01*
Y32663D01*
X263929Y32164D01*
X262430D01*
X190115Y62349D02*
Y64348D01*
X191614D01*
Y63349D01*
Y64348D01*
X193114D01*
X190614Y61349D02*
X190115Y60849D01*
Y59850D01*
X190614Y59350D01*
X191114D01*
X191614Y59850D01*
X192114Y59350D01*
X192614D01*
X193114Y59850D01*
Y60849D01*
X192614Y61349D01*
X192114D01*
X191614Y60849D01*
X191114Y61349D01*
X190614D01*
X191614Y60849D02*
Y59850D01*
X185921Y131092D02*
X187920D01*
Y129593D01*
X186920D01*
X187920D01*
Y128093D01*
X184921Y131092D02*
X182922D01*
Y130592D01*
X184921Y128593D01*
Y128093D01*
X73504Y51462D02*
Y45464D01*
X70505D01*
X69505Y46464D01*
Y50462D01*
X70505Y51462D01*
X73504D01*
X64507Y45464D02*
Y51462D01*
X67506Y48463D01*
X63507D01*
X125787Y133635D02*
Y127637D01*
X122788D01*
X121788Y128637D01*
Y132635D01*
X122788Y133635D01*
X125787D01*
X119789D02*
X115790D01*
Y132635D01*
X119789Y128637D01*
Y127637D01*
X213373Y182963D02*
X219371D01*
Y179964D01*
X218371Y178964D01*
X214373D01*
X213373Y179964D01*
Y182963D01*
X214373Y176965D02*
X213373Y175965D01*
Y173966D01*
X214373Y172966D01*
X215372D01*
X216372Y173966D01*
Y174966D01*
Y173966D01*
X217372Y172966D01*
X218371D01*
X219371Y173966D01*
Y175965D01*
X218371Y176965D01*
X193349Y229485D02*
X187351D01*
Y232484D01*
X188351Y233484D01*
X192349D01*
X193349Y232484D01*
Y229485D01*
X187351Y239482D02*
Y235483D01*
X191350Y239482D01*
X192349D01*
X193349Y238482D01*
Y236483D01*
X192349Y235483D01*
X291430Y655171D02*
Y649173D01*
X288431D01*
X287431Y650172D01*
Y654171D01*
X288431Y655171D01*
X291430D01*
X285432Y649173D02*
X283433D01*
X284432D01*
Y655171D01*
X285432Y654171D01*
X186637Y98875D02*
Y95876D01*
X185137D01*
X184638Y96376D01*
Y98375D01*
X185137Y98875D01*
X186637D01*
X181639D02*
X183638D01*
Y97376D01*
X182638Y97875D01*
X182138D01*
X181639Y97376D01*
Y96376D01*
X182138Y95876D01*
X183138D01*
X183638Y96376D01*
X79343Y469482D02*
X79843Y469982D01*
X80842D01*
X81342Y469482D01*
Y467483D01*
X80842Y466983D01*
X79843D01*
X79343Y467483D01*
X78343Y466983D02*
X77343D01*
X77843D01*
Y469982D01*
X78343Y469482D01*
X75844D02*
X75344Y469982D01*
X74344D01*
X73844Y469482D01*
Y467483D01*
X74344Y466983D01*
X75344D01*
X75844Y467483D01*
Y469482D01*
X55951Y473815D02*
X56450Y474315D01*
X57450D01*
X57950Y473815D01*
Y471816D01*
X57450Y471316D01*
X56450D01*
X55951Y471816D01*
X54951D02*
X54451Y471316D01*
X53451D01*
X52952Y471816D01*
Y473815D01*
X53451Y474315D01*
X54451D01*
X54951Y473815D01*
Y473315D01*
X54451Y472816D01*
X52952D01*
X175769Y573340D02*
Y577339D01*
X173770Y579338D01*
X171770Y577339D01*
Y573340D01*
Y576339D01*
X175769D01*
X169771Y579338D02*
Y573340D01*
X166772D01*
X165772Y574340D01*
Y578338D01*
X166772Y579338D01*
X169771D01*
X159774D02*
X161774D01*
X160774D01*
Y574340D01*
X161774Y573340D01*
X162773D01*
X163773Y574340D01*
X157775Y576339D02*
X153776D01*
X218059Y573410D02*
Y577409D01*
X216060Y579408D01*
X214060Y577409D01*
Y573410D01*
Y576409D01*
X218059D01*
X212061Y579408D02*
Y573410D01*
X209062D01*
X208062Y574410D01*
Y578408D01*
X209062Y579408D01*
X212061D01*
X202064D02*
X204064D01*
X203064D01*
Y574410D01*
X204064Y573410D01*
X205063D01*
X206063Y574410D01*
X200065Y576409D02*
X196066D01*
X198065Y578408D02*
Y574410D01*
D68*
X287217Y659925D02*
Y660925D01*
X202959Y247092D02*
Y248092D01*
X204297Y162445D02*
Y163445D01*
X67066Y38743D02*
Y39743D01*
D88*
X242743Y193354D02*
X244908D01*
X242743Y190401D02*
Y193354D01*
X251405D02*
X253373D01*
Y190401D02*
Y193354D01*
X243004Y220087D02*
X245169D01*
X243004Y217134D02*
Y220087D01*
X251666D02*
X253634D01*
Y217134D02*
Y220087D01*
D89*
X208256Y97590D02*
X206923Y96257D01*
X208256D02*
X206923Y97590D01*
X208256Y96924D02*
X206923D01*
X207590Y96257D02*
Y97590D01*
M02*
