G04*
G04 #@! TF.GenerationSoftware,Altium Limited,Altium Designer,18.1.9 (240)*
G04*
G04 Layer_Physical_Order=4*
G04 Layer_Color=16711680*
%FSLAX25Y25*%
%MOIN*%
G70*
G01*
G75*
%ADD12C,0.01000*%
%ADD13C,0.00600*%
%ADD17R,0.05906X0.06299*%
%ADD28R,0.06299X0.05906*%
%ADD29R,0.03800X0.04000*%
%ADD46R,0.03937X0.03543*%
%ADD50R,0.13346X0.11811*%
%ADD54C,0.01378*%
%ADD55C,0.03000*%
%ADD57C,0.04000*%
%ADD58C,0.02000*%
%ADD59C,0.06000*%
%ADD60R,0.07087X0.07087*%
%ADD61C,0.07087*%
%ADD62C,0.06693*%
G04:AMPARAMS|DCode=63|XSize=61.02mil|YSize=61.02mil|CornerRadius=1.83mil|HoleSize=0mil|Usage=FLASHONLY|Rotation=270.000|XOffset=0mil|YOffset=0mil|HoleType=Round|Shape=RoundedRectangle|*
%AMROUNDEDRECTD63*
21,1,0.06102,0.05736,0,0,270.0*
21,1,0.05736,0.06102,0,0,270.0*
1,1,0.00366,-0.02868,-0.02868*
1,1,0.00366,-0.02868,0.02868*
1,1,0.00366,0.02868,0.02868*
1,1,0.00366,0.02868,-0.02868*
%
%ADD63ROUNDEDRECTD63*%
%ADD64C,0.06102*%
%ADD65R,0.07087X0.07087*%
%ADD66C,0.08661*%
%ADD67R,0.08661X0.08661*%
%ADD68C,0.10827*%
%ADD69C,0.11811*%
%ADD70C,0.07480*%
%ADD71C,0.05000*%
%ADD73R,0.03543X0.03937*%
%ADD74R,0.05906X0.09843*%
%ADD75R,0.04000X0.07100*%
%ADD76R,0.02362X0.05512*%
%ADD77R,0.04000X0.03800*%
%ADD78R,0.07480X0.09843*%
%ADD79R,0.01900X0.05600*%
%ADD80R,0.02200X0.05600*%
%ADD81R,0.06417X0.08000*%
%ADD82R,0.03200X0.02200*%
%ADD83R,0.03200X0.01600*%
%ADD84C,0.05000*%
%ADD85C,0.03937*%
%ADD86C,0.08000*%
G36*
X-30042Y30206D02*
X-44962D01*
X-45156Y30181D01*
X-47638D01*
X-47733Y30181D01*
Y30181D01*
X-48120Y30137D01*
Y30137D01*
X-53663D01*
Y24200D01*
X-52871D01*
Y20296D01*
X-52932D01*
Y13795D01*
X-52951Y13696D01*
Y12155D01*
X-66352Y12154D01*
X-66705Y12508D01*
X-66605Y40348D01*
X-30042Y40348D01*
X-30042Y30206D01*
D02*
G37*
G36*
X-46455Y20296D02*
X-46876D01*
Y12696D01*
X-42976D01*
Y20296D01*
X-43397D01*
Y24218D01*
X-30042D01*
X-30042Y12156D01*
X-48228Y12155D01*
X-48712Y12638D01*
Y13696D01*
X-48732Y13795D01*
Y20296D01*
X-48792D01*
Y24200D01*
X-48120D01*
Y24200D01*
X-48120Y24200D01*
X-47638Y24244D01*
X-46455D01*
Y20296D01*
D02*
G37*
G36*
X-49732Y11760D02*
X-47132Y9260D01*
Y260D01*
X-54532D01*
Y9260D01*
X-51932Y11660D01*
Y13696D01*
X-49732D01*
Y11760D01*
D02*
G37*
G36*
X-17243Y-66898D02*
X-17243D01*
Y-72441D01*
X-17243D01*
X-17035Y-72654D01*
X-17136Y-76727D01*
X-17501D01*
Y-82270D01*
X-17501D01*
X-17279Y-82498D01*
X-17595Y-95257D01*
X-18032D01*
Y-100800D01*
X-18032D01*
X-18021Y-100817D01*
X-19142Y-103087D01*
X-19833D01*
Y-108630D01*
X-19447D01*
X-19447Y-117526D01*
X-35408Y-117526D01*
Y-66734D01*
X-35123Y-66449D01*
X-17365D01*
X-17243Y-66898D01*
D02*
G37*
G36*
X-15702Y-118496D02*
X-13102Y-120996D01*
Y-129996D01*
X-20502D01*
Y-120996D01*
X-17902Y-118596D01*
Y-116560D01*
X-15702D01*
Y-118496D01*
D02*
G37*
G36*
X69588Y-244123D02*
X69552Y-244210D01*
X69389Y-245448D01*
X69552Y-246685D01*
X70030Y-247838D01*
X70790Y-248828D01*
X71780Y-249588D01*
X72933Y-250066D01*
X73232Y-250105D01*
X73232Y-280160D01*
X72933Y-280200D01*
X71780Y-280677D01*
X70790Y-281437D01*
X70030Y-282427D01*
X69552Y-283580D01*
X69389Y-284818D01*
X69552Y-286055D01*
X70030Y-287208D01*
X70790Y-288198D01*
X71780Y-288958D01*
X72933Y-289436D01*
X73232Y-289475D01*
X73232Y-311358D01*
X65414Y-311358D01*
Y-311236D01*
X59614D01*
Y-311358D01*
X15472Y-311358D01*
X15270Y-243894D01*
X69310Y-243708D01*
X69588Y-244123D01*
D02*
G37*
G36*
X42209Y-315669D02*
Y-370083D01*
X-18371Y-370103D01*
X-18371Y-430664D01*
X-18462Y-430755D01*
X-38765Y-430755D01*
X-39039Y-430308D01*
X-39037Y-430255D01*
X-38161Y-429583D01*
X-37465Y-428675D01*
X-37027Y-427618D01*
X-36877Y-426483D01*
X-37027Y-425348D01*
X-37465Y-424291D01*
X-38161Y-423383D01*
X-39069Y-422686D01*
X-40127Y-422249D01*
X-41261Y-422099D01*
X-42396Y-422249D01*
X-43453Y-422686D01*
X-44361Y-423383D01*
X-45058Y-424291D01*
X-45496Y-425348D01*
X-45645Y-426483D01*
X-45496Y-427618D01*
X-45058Y-428675D01*
X-44361Y-429583D01*
X-43486Y-430255D01*
X-43484Y-430308D01*
X-43758Y-430755D01*
X-58451Y-430755D01*
X-58724Y-430308D01*
X-58722Y-430255D01*
X-57846Y-429583D01*
X-57150Y-428675D01*
X-56712Y-427618D01*
X-56562Y-426483D01*
X-56712Y-425348D01*
X-57150Y-424291D01*
X-57846Y-423383D01*
X-58754Y-422686D01*
X-59812Y-422249D01*
X-60946Y-422099D01*
X-62081Y-422249D01*
X-63138Y-422686D01*
X-64046Y-423383D01*
X-64743Y-424291D01*
X-65181Y-425348D01*
X-65330Y-426483D01*
X-65181Y-427618D01*
X-64743Y-428675D01*
X-64046Y-429583D01*
X-63171Y-430255D01*
X-63169Y-430308D01*
X-63442Y-430755D01*
X-68461Y-430755D01*
Y-413362D01*
X-48710D01*
X-47796Y-413241D01*
X-46945Y-412889D01*
X-46213Y-412328D01*
X-38765Y-404879D01*
X-38765Y-404879D01*
X-38204Y-404148D01*
X-37851Y-403297D01*
X-37731Y-402383D01*
X-37731Y-402383D01*
Y-401078D01*
X-37293Y-400506D01*
X-36835Y-399401D01*
X-36679Y-398215D01*
X-36835Y-397029D01*
X-37293Y-395924D01*
X-38021Y-394975D01*
X-38970Y-394247D01*
X-40075Y-393789D01*
X-41261Y-393633D01*
X-42447Y-393789D01*
X-43553Y-394247D01*
X-44502Y-394975D01*
X-45230Y-395924D01*
X-45688Y-397029D01*
X-45844Y-398215D01*
X-45688Y-399401D01*
X-45230Y-400506D01*
X-44860Y-400989D01*
X-50172Y-406301D01*
X-68461D01*
Y-367905D01*
X-58752Y-358195D01*
X-57758Y-358064D01*
X-56605Y-357587D01*
X-55615Y-356827D01*
X-54855Y-355837D01*
X-54377Y-354683D01*
X-54214Y-353446D01*
X-54377Y-352209D01*
X-54855Y-351056D01*
X-55615Y-350065D01*
X-56605Y-349306D01*
X-57758Y-348828D01*
X-58752Y-348697D01*
X-62737Y-344712D01*
X-63468Y-344151D01*
X-64320Y-343798D01*
X-65233Y-343678D01*
X-68461D01*
Y-315304D01*
X-63615D01*
X-63613Y-315314D01*
X-63136Y-316467D01*
X-62376Y-317457D01*
X-61386Y-318217D01*
X-60233Y-318694D01*
X-58995Y-318857D01*
X-57758Y-318694D01*
X-56605Y-318217D01*
X-55615Y-317457D01*
X-54855Y-316467D01*
X-54377Y-315314D01*
X-54376Y-315304D01*
X41709Y-315304D01*
X42209Y-315669D01*
D02*
G37*
%LPC*%
G36*
X-15961Y-343404D02*
X-16875Y-343524D01*
X-17726Y-343877D01*
X-18458Y-344438D01*
X-19019Y-345169D01*
X-19371Y-346020D01*
X-19491Y-346934D01*
X-19371Y-347848D01*
X-19019Y-348699D01*
X-18458Y-349430D01*
X-17726Y-349991D01*
X-16875Y-350344D01*
X-15961Y-350464D01*
X-15048Y-350344D01*
X-14196Y-349991D01*
X-13465Y-349430D01*
X-12904Y-348699D01*
X-12551Y-347848D01*
X-12431Y-346934D01*
X-12551Y-346020D01*
X-12904Y-345169D01*
X-13465Y-344438D01*
X-14196Y-343877D01*
X-15048Y-343524D01*
X-15961Y-343404D01*
D02*
G37*
G36*
X-36718Y-383830D02*
X-45805D01*
Y-392916D01*
X-36718D01*
Y-383830D01*
D02*
G37*
G36*
X-51104Y-393633D02*
X-52290Y-393789D01*
X-53395Y-394247D01*
X-54344Y-394975D01*
X-55072Y-395924D01*
X-55530Y-397029D01*
X-55686Y-398215D01*
X-55530Y-399401D01*
X-55072Y-400506D01*
X-54344Y-401456D01*
X-53395Y-402184D01*
X-52290Y-402642D01*
X-51104Y-402798D01*
X-49918Y-402642D01*
X-48812Y-402184D01*
X-47863Y-401456D01*
X-47135Y-400506D01*
X-46677Y-399401D01*
X-46521Y-398215D01*
X-46677Y-397029D01*
X-47135Y-395924D01*
X-47863Y-394975D01*
X-48812Y-394247D01*
X-49918Y-393789D01*
X-51104Y-393633D01*
D02*
G37*
G36*
X-60946D02*
X-62132Y-393789D01*
X-63238Y-394247D01*
X-64187Y-394975D01*
X-64915Y-395924D01*
X-65373Y-397029D01*
X-65529Y-398215D01*
X-65373Y-399401D01*
X-64915Y-400506D01*
X-64187Y-401456D01*
X-63238Y-402184D01*
X-62132Y-402642D01*
X-60946Y-402798D01*
X-59760Y-402642D01*
X-58655Y-402184D01*
X-57706Y-401456D01*
X-56978Y-400506D01*
X-56520Y-399401D01*
X-56364Y-398215D01*
X-56520Y-397029D01*
X-56978Y-395924D01*
X-57706Y-394975D01*
X-58655Y-394247D01*
X-59760Y-393789D01*
X-60946Y-393633D01*
D02*
G37*
%LPD*%
D12*
X115738Y239245D02*
X116121Y239627D01*
X115148Y239865D02*
X115188Y239825D01*
X-50992Y4982D02*
X-50807Y5167D01*
X-16822Y-113779D02*
X-16802Y-113760D01*
X-16864Y-113698D02*
X-16802Y-113760D01*
X-18828Y11202D02*
X-5029Y25001D01*
X150116Y-214999D02*
X164971D01*
X177212Y-279195D02*
X238519D01*
X106096Y-227982D02*
X131050D01*
X174971Y-274999D02*
X243981D01*
X174971Y-284999D02*
X234262D01*
X175238Y-294732D02*
X234371D01*
X89836Y-199262D02*
X100786Y-188312D01*
X89836Y-217262D02*
X100256Y-227682D01*
X-44926Y16496D02*
Y27177D01*
X90362Y-302982D02*
X91007Y-303628D01*
X138269Y-254715D02*
X138753Y-255200D01*
X165875Y-274999D02*
X170836Y-279960D01*
X238519Y-279195D02*
X244214Y-284890D01*
X-44962Y27212D02*
X-44926Y27177D01*
X74868Y-350189D02*
Y-350021D01*
X90625Y-201940D02*
X92168D01*
X138530Y-227982D02*
X138659Y-227854D01*
X149978D01*
X153880Y-264999D02*
X164971D01*
X170836Y-279960D02*
X176447D01*
X-18828Y-60970D02*
Y11202D01*
X-14532Y-79499D02*
X-14274Y-79241D01*
X90362Y-302982D02*
Y-301009D01*
X134807Y-219304D02*
Y-208618D01*
X149978Y-214862D02*
X150116Y-214999D01*
X176447Y-279960D02*
X177212Y-279195D01*
X174971Y-294999D02*
X175238Y-294732D01*
X243981Y-274999D02*
X250303Y-281321D01*
Y-288643D02*
Y-281321D01*
X-50892Y27168D02*
X-50832Y27108D01*
X100786Y-188312D02*
X105796D01*
X100256Y-227682D02*
X105796D01*
X106096Y-227982D01*
X113198Y237835D02*
X115188Y239825D01*
X134790Y-219321D02*
X134807Y-219304D01*
X133737Y-388019D02*
Y-386772D01*
X150687Y-268192D02*
X153880Y-264999D01*
X147086Y252620D02*
X147234Y252768D01*
Y213398D02*
Y213714D01*
X164971Y-274999D02*
X165875D01*
X234262Y-284999D02*
X234371Y-284890D01*
X244214Y-294732D02*
X250303Y-288643D01*
X85072Y1708584D02*
X90672Y1714184D01*
X247367D01*
X-139854Y-434783D02*
X-137854Y-440783D01*
X-135854Y-434783D01*
X-137854Y259214D02*
X-135854Y253214D01*
X-139854D02*
X-137854Y259214D01*
Y-440783D02*
Y-113478D01*
Y-71291D02*
Y259214D01*
X-138854Y-440783D02*
X-116006D01*
X-138854Y259214D02*
X-116005D01*
X-113529Y305277D02*
X-107529Y307277D01*
X-113529Y305277D02*
X-107529Y303277D01*
X280471D02*
X286471Y305277D01*
X280471Y307277D02*
X286471Y305277D01*
X-113529D02*
X63777D01*
X105965D02*
X286471D01*
X-113529Y261691D02*
Y306277D01*
X286471Y261691D02*
Y306277D01*
D13*
X-140253Y-107879D02*
X-139253Y-109879D01*
X-137254Y-111878D01*
X-135255D01*
X-134255Y-110878D01*
Y-108879D01*
X-135255Y-107879D01*
X-136254D01*
X-137254Y-108879D01*
Y-111878D01*
X-135255Y-105880D02*
X-134255Y-104880D01*
Y-102881D01*
X-135255Y-101881D01*
X-139253D01*
X-140253Y-102881D01*
Y-104880D01*
X-139253Y-105880D01*
X-138254D01*
X-137254Y-104880D01*
Y-101881D01*
X-135255Y-99882D02*
X-134255Y-98882D01*
Y-96883D01*
X-135255Y-95883D01*
X-139253D01*
X-140253Y-96883D01*
Y-98882D01*
X-139253Y-99882D01*
X-138254D01*
X-137254Y-98882D01*
Y-95883D01*
X-135255Y-93884D02*
X-134255Y-92884D01*
Y-90885D01*
X-135255Y-89885D01*
X-139253D01*
X-140253Y-90885D01*
Y-92884D01*
X-139253Y-93884D01*
X-138254D01*
X-137254Y-92884D01*
Y-89885D01*
X-134255Y-87886D02*
X-135255D01*
Y-86886D01*
X-134255D01*
Y-87886D01*
X-135255Y-82888D02*
X-134255Y-81888D01*
Y-79888D01*
X-135255Y-78889D01*
X-139253D01*
X-140253Y-79888D01*
Y-81888D01*
X-139253Y-82888D01*
X-138254D01*
X-137254Y-81888D01*
Y-78889D01*
X-140253Y-76889D02*
Y-72891D01*
X-139253D01*
X-135255Y-76889D01*
X-134255D01*
X68376Y301678D02*
Y307676D01*
X65377Y304677D01*
X69376D01*
X71375Y306677D02*
X72375Y307676D01*
X74374D01*
X75374Y306677D01*
Y302678D01*
X74374Y301678D01*
X72375D01*
X71375Y302678D01*
Y306677D01*
X77373D02*
X78373Y307676D01*
X80372D01*
X81372Y306677D01*
Y302678D01*
X80372Y301678D01*
X78373D01*
X77373Y302678D01*
Y306677D01*
X83371D02*
X84371Y307676D01*
X86370D01*
X87370Y306677D01*
Y302678D01*
X86370Y301678D01*
X84371D01*
X83371Y302678D01*
Y306677D01*
X89369Y301678D02*
Y302678D01*
X90369D01*
Y301678D01*
X89369D01*
X94368Y306677D02*
X95367Y307676D01*
X97367D01*
X98367Y306677D01*
Y302678D01*
X97367Y301678D01*
X95367D01*
X94368Y302678D01*
Y306677D01*
X100366D02*
X101366Y307676D01*
X103365D01*
X104365Y306677D01*
Y302678D01*
X103365Y301678D01*
X101366D01*
X100366Y302678D01*
Y306677D01*
D17*
X128140Y252620D02*
D03*
X115148Y252620D02*
D03*
X78015Y-303627D02*
D03*
X91007Y-303628D02*
D03*
X56000Y125816D02*
D03*
X43008Y125816D02*
D03*
X81700Y126897D02*
D03*
X94692Y126897D02*
D03*
D28*
X115187Y240021D02*
D03*
X115187Y227029D02*
D03*
X150688Y-255200D02*
D03*
X150687Y-268192D02*
D03*
X149978Y-214862D02*
D03*
X149978Y-227854D02*
D03*
D29*
X-77961Y-409831D02*
D03*
Y-402934D02*
D03*
X62514Y-307338D02*
D03*
Y-314236D02*
D03*
D46*
X-14274Y-69670D02*
D03*
X-19786D02*
D03*
X-14532Y-79499D02*
D03*
X-20044D02*
D03*
X-16864Y-105859D02*
D03*
X-22376D02*
D03*
X-20575Y-98029D02*
D03*
X-15063D02*
D03*
D50*
X28588Y-325518D02*
D03*
Y-294415D02*
D03*
D54*
X-47292Y-192736D02*
X-5029Y-234999D01*
X-47135Y-182894D02*
X-5029Y-224999D01*
X208361Y-415019D02*
X244214Y-379167D01*
X117043Y-397912D02*
X134150Y-415019D01*
X154491D02*
X208361D01*
X134150D02*
X147594D01*
X-57960Y-182894D02*
X-47135D01*
X-57960Y-192736D02*
X-47292D01*
X244214Y-379167D02*
Y-324260D01*
D55*
X-16822Y-134680D02*
Y-113779D01*
X-16864Y-113698D02*
Y-105859D01*
X-77962Y-409831D02*
X-77961D01*
D57*
X115188Y217133D02*
Y227226D01*
Y217133D02*
X234043Y98278D01*
X234043D02*
X234043Y-201124D01*
X243885D02*
X256827Y-188182D01*
Y87308D01*
X137392Y206743D02*
Y225209D01*
Y206743D02*
X256827Y87308D01*
X115148Y239865D02*
Y252620D01*
X127167Y252620D02*
X147086D01*
X163774Y228565D02*
X181674D01*
X147234Y213714D02*
X162082Y228561D01*
X181674Y228565D02*
X188967Y221272D01*
X162082Y228561D02*
X163770D01*
X147234Y252768D02*
X153736Y246266D01*
X163345D01*
X163770Y228561D02*
X163774Y228565D01*
D58*
X138119Y-246054D02*
X143110Y-241063D01*
X134529Y-246054D02*
X138119D01*
X74171Y-284818D02*
X90362Y-301009D01*
X90827Y-343862D02*
X133737Y-386772D01*
X117539Y-241466D02*
X130789Y-254715D01*
X78015Y-303627D02*
X90827Y-316439D01*
X138753Y-255200D02*
X150688D01*
X78153Y-241466D02*
X117539D01*
X82495Y-253773D02*
X90362D01*
X90827Y-343862D02*
Y-316439D01*
X74868Y-368859D02*
Y-350189D01*
X90362Y-301009D02*
Y-271773D01*
X91575Y-378668D02*
X100977Y-388070D01*
X-14274Y-64290D02*
X-10954Y-60970D01*
X-14532Y-79499D02*
X-10992Y-83039D01*
X-15063Y-98029D02*
X-10992Y-93958D01*
X74171Y-245448D02*
X82495Y-253773D01*
X62514Y-314236D02*
X69737Y-321459D01*
X74868Y-350021D02*
X81027Y-343862D01*
X74868Y-368859D02*
X84677Y-378668D01*
X-15063Y-98029D02*
X-10897Y-102195D01*
X74171Y-245448D02*
X78153Y-241466D01*
X100977Y-388070D02*
X107200D01*
X-14274Y-69670D02*
Y-64290D01*
X-50832Y16496D02*
Y27108D01*
X-14274Y-79241D02*
Y-69670D01*
X-10992Y-88875D02*
Y-83039D01*
X-10897Y-113760D02*
Y-102195D01*
X-10992Y-93958D02*
Y-88875D01*
D59*
X-20000Y235000D02*
D03*
X210000D02*
D03*
X-81820Y-60970D02*
D03*
X-73946D02*
D03*
X-66072D02*
D03*
X-58198D02*
D03*
X-50324D02*
D03*
X-42450D02*
D03*
X-34576D02*
D03*
X-26702D02*
D03*
X-18828D02*
D03*
X-10954D02*
D03*
Y-147584D02*
D03*
X-18828D02*
D03*
X-26702D02*
D03*
X-34576D02*
D03*
X-42450D02*
D03*
X-50324D02*
D03*
X-58198D02*
D03*
X-66072D02*
D03*
X-73946D02*
D03*
X-81820D02*
D03*
X274660Y-428975D02*
D03*
X-101718D02*
D03*
X-101718Y247403D02*
D03*
X274660D02*
D03*
D60*
X184296Y-388207D02*
D03*
X117043Y-388070D02*
D03*
X-41261Y-388373D02*
D03*
X153422Y-388019D02*
D03*
X243754Y206931D02*
D03*
D61*
X174453Y-388207D02*
D03*
Y-398050D02*
D03*
X184296D02*
D03*
X234043Y-230651D02*
D03*
Y-240494D02*
D03*
Y-250336D02*
D03*
Y-210966D02*
D03*
Y-220809D02*
D03*
X243885D02*
D03*
Y-230651D02*
D03*
Y-240494D02*
D03*
Y-250336D02*
D03*
Y-210966D02*
D03*
Y-201124D02*
D03*
X117043Y-397912D02*
D03*
X107200D02*
D03*
Y-388070D02*
D03*
X243644Y-147781D02*
D03*
Y-157623D02*
D03*
X-67802Y-192736D02*
D03*
Y-182894D02*
D03*
X-57960D02*
D03*
X-59316Y-254329D02*
D03*
Y-244486D02*
D03*
X-69159Y-254329D02*
D03*
Y-244486D02*
D03*
Y-224801D02*
D03*
Y-234644D02*
D03*
X-59316Y-224801D02*
D03*
Y-234644D02*
D03*
X-69159Y-264172D02*
D03*
X-51104Y-388373D02*
D03*
X-60946D02*
D03*
X-41261Y-398215D02*
D03*
X-51104D02*
D03*
X-60946D02*
D03*
X133737Y-397862D02*
D03*
X143579D02*
D03*
X153422D02*
D03*
X133737Y-388019D02*
D03*
X143579D02*
D03*
X244214Y-284890D02*
D03*
X234371Y-314417D02*
D03*
Y-324260D02*
D03*
Y-294732D02*
D03*
Y-304575D02*
D03*
X244214Y-314417D02*
D03*
Y-324260D02*
D03*
Y-304575D02*
D03*
Y-294732D02*
D03*
X253597Y206931D02*
D03*
Y216773D02*
D03*
X243754D02*
D03*
D62*
X174453Y-426318D02*
D03*
X184296D02*
D03*
X272153Y-201124D02*
D03*
Y-250336D02*
D03*
X108951Y197754D02*
D03*
X58951D02*
D03*
X28951Y117754D02*
D03*
X108951D02*
D03*
X68951D02*
D03*
X78951Y197754D02*
D03*
X117043Y-426180D02*
D03*
X107200D02*
D03*
X271912Y-147781D02*
D03*
Y-157623D02*
D03*
X-96070Y-192736D02*
D03*
Y-182894D02*
D03*
X-97427Y-224801D02*
D03*
Y-264172D02*
D03*
X-41261Y-426483D02*
D03*
X-60946D02*
D03*
X133737Y-426130D02*
D03*
X153422D02*
D03*
X272482Y-284890D02*
D03*
Y-324260D02*
D03*
X253597Y245041D02*
D03*
X243754D02*
D03*
D63*
X-5000Y-204999D02*
D03*
X165000D02*
D03*
Y45001D02*
D03*
X-5000D02*
D03*
D64*
Y-214999D02*
D03*
Y-224999D02*
D03*
Y-234999D02*
D03*
Y-244999D02*
D03*
Y-254999D02*
D03*
Y-264999D02*
D03*
Y-274999D02*
D03*
Y-284999D02*
D03*
Y-294999D02*
D03*
X5001Y-204999D02*
D03*
Y-214999D02*
D03*
Y-224999D02*
D03*
Y-234999D02*
D03*
Y-244999D02*
D03*
Y-254999D02*
D03*
Y-264999D02*
D03*
Y-274999D02*
D03*
Y-284999D02*
D03*
Y-294999D02*
D03*
X175001D02*
D03*
Y-284999D02*
D03*
Y-274999D02*
D03*
Y-264999D02*
D03*
Y-254999D02*
D03*
Y-244999D02*
D03*
Y-234999D02*
D03*
Y-224999D02*
D03*
Y-214999D02*
D03*
Y-204999D02*
D03*
X165000Y-294999D02*
D03*
Y-284999D02*
D03*
Y-274999D02*
D03*
Y-264999D02*
D03*
Y-254999D02*
D03*
Y-244999D02*
D03*
Y-234999D02*
D03*
Y-224999D02*
D03*
Y-214999D02*
D03*
X175001Y-44999D02*
D03*
Y-34999D02*
D03*
Y-24999D02*
D03*
Y-14999D02*
D03*
Y-4999D02*
D03*
Y5001D02*
D03*
Y15001D02*
D03*
Y25001D02*
D03*
Y35001D02*
D03*
Y45001D02*
D03*
X165000Y-44999D02*
D03*
Y-34999D02*
D03*
Y-24999D02*
D03*
Y-14999D02*
D03*
Y-4999D02*
D03*
Y5001D02*
D03*
Y15001D02*
D03*
Y25001D02*
D03*
Y35001D02*
D03*
X-5000D02*
D03*
Y25001D02*
D03*
Y15001D02*
D03*
Y5001D02*
D03*
Y-4999D02*
D03*
Y-14999D02*
D03*
Y-24999D02*
D03*
Y-34999D02*
D03*
Y-44999D02*
D03*
X5001Y45001D02*
D03*
Y35001D02*
D03*
Y25001D02*
D03*
Y15001D02*
D03*
Y5001D02*
D03*
Y-4999D02*
D03*
Y-14999D02*
D03*
Y-24999D02*
D03*
Y-34999D02*
D03*
Y-44999D02*
D03*
D65*
X234043Y-201124D02*
D03*
X-57960Y-192736D02*
D03*
X-59316Y-264172D02*
D03*
X234371Y-284890D02*
D03*
D66*
X-63923Y201276D02*
D03*
X-93844D02*
D03*
X-63923Y91434D02*
D03*
X-48962D02*
D03*
D67*
X-34001Y201276D02*
D03*
D68*
Y91434D02*
D03*
X-93844D02*
D03*
D69*
X115638Y-200123D02*
D03*
Y-215871D02*
D03*
X64064Y-219808D02*
D03*
Y-196186D02*
D03*
X188967Y221272D02*
D03*
Y244894D02*
D03*
X137392Y240957D02*
D03*
Y225209D02*
D03*
X-100728Y-321950D02*
D03*
Y-345572D02*
D03*
X-49153Y-341635D02*
D03*
Y-325887D02*
D03*
X64328Y-273007D02*
D03*
Y-257259D02*
D03*
X115903Y-253322D02*
D03*
Y-276944D02*
D03*
D70*
X105796Y-188312D02*
D03*
Y-227682D02*
D03*
X147234Y252768D02*
D03*
Y213398D02*
D03*
X-58995Y-353446D02*
D03*
Y-314076D02*
D03*
X74171Y-284818D02*
D03*
Y-245448D02*
D03*
D71*
X143110Y-241063D02*
D03*
X-15961Y-346934D02*
D03*
X244876Y68365D02*
D03*
X244931Y60516D02*
D03*
X244932Y21950D02*
D03*
X244965Y18077D02*
D03*
X244899Y14121D02*
D03*
X-16822Y-134680D02*
D03*
X244909Y64367D02*
D03*
X-33112Y-254329D02*
D03*
X-33112Y-244486D02*
D03*
X-99419Y232628D02*
D03*
X69737Y-321459D02*
D03*
X74868Y-350189D02*
D03*
X134807Y-208618D02*
D03*
X153017Y-146211D02*
D03*
X-30677Y-104130D02*
D03*
X-60192Y24848D02*
D03*
X-35101Y34705D02*
D03*
X-50992Y-7032D02*
D03*
X24551Y70414D02*
D03*
X79241Y61444D02*
D03*
X-5585Y132668D02*
D03*
X48631Y236864D02*
D03*
X28161Y246424D02*
D03*
X-62653Y49027D02*
D03*
X-62499Y69894D02*
D03*
D73*
X-50892Y32680D02*
D03*
Y27168D02*
D03*
X-44962Y27212D02*
D03*
Y32724D02*
D03*
D74*
X-85300Y106664D02*
D03*
X-72701D02*
D03*
D75*
X-24392Y-88875D02*
D03*
X-10992D02*
D03*
D76*
X134790Y-219321D02*
D03*
X131050Y-227982D02*
D03*
X138530D02*
D03*
X134529Y-246054D02*
D03*
X130789Y-254715D02*
D03*
X138269D02*
D03*
D77*
X147594Y-415019D02*
D03*
X154491D02*
D03*
X84677Y-378668D02*
D03*
X91575D02*
D03*
D78*
X-50792Y5153D02*
D03*
X-16763Y-125103D02*
D03*
D79*
X-44926Y16496D02*
D03*
X-56737D02*
D03*
X-22708Y-113760D02*
D03*
X-10897D02*
D03*
D80*
X-50832Y16496D02*
D03*
X-16802Y-113760D02*
D03*
D81*
X-76282Y-347208D02*
D03*
Y-329208D02*
D03*
X89836Y-217262D02*
D03*
Y-199262D02*
D03*
X90362Y-271773D02*
D03*
Y-253773D02*
D03*
X163770Y228561D02*
D03*
Y246561D02*
D03*
D82*
X81027Y-343862D02*
D03*
D83*
X90827D02*
D03*
D84*
X-77962Y-402934D02*
Y-372413D01*
X-50992Y-7032D02*
Y4982D01*
X-77961Y-409831D02*
X-48710D01*
X-41261Y-402383D02*
Y-398215D01*
X-48710Y-409831D02*
X-41261Y-402383D01*
X-77962Y-372413D02*
X-58995Y-353446D01*
X-65233Y-347208D02*
X-58995Y-353446D01*
X-76282Y-347208D02*
X-65233D01*
X-83540Y-321950D02*
X-76282Y-329208D01*
X-100728Y-321950D02*
X-83540D01*
D85*
X28951Y117754D02*
X37014Y125816D01*
X43008D01*
X56000Y125816D02*
X60889D01*
X68951Y117754D01*
X78095Y126897D01*
X81700D01*
X100009Y126696D02*
X108951Y117754D01*
X97180Y126696D02*
X100009D01*
X-27205Y27212D02*
X-9416Y45001D01*
X-5029D01*
X-44962Y27212D02*
X-27205D01*
D86*
X-72701Y106664D02*
X-63923Y97885D01*
X-93844Y91434D02*
Y98119D01*
X-63923Y91434D02*
Y97885D01*
X-93844Y98119D02*
X-85300Y106664D01*
M02*
