M48
;Layer_Color=9474304
;FILE_FORMAT=2:5
INCH,LZ
;TYPE=PLATED
T1F00S00C0.02800
T2F00S00C0.03000
T3F00S00C0.04016
T4F00S00C0.04724
T5F00S00C0.05512
T6F00S00C0.05984
T7F00S00C0.08150
T8F00S00C0.09843
T9F00S00C0.13386
;TYPE=NON_PLATED
T10F00S00C0.06693
T11F00S00C0.12500
%
T01
X-0015961Y-0346934
X0074868Y-0350189
X0069737Y-0321459
X014311Y-0241063
X0134807Y-0208618
X-0033112Y-0244486
X-0033112Y-0254329
X-0086049Y-0280389
X-0016822Y-013468
X-0030677Y-010413
X0153017Y-0146211
X0244899Y0014121
X0244965Y0018077
X0244932Y002195
X0244931Y0060516
X0244909Y0064367
X0244876Y0068365
X0079241Y0061444
X0024551Y0070414
X-0062499Y0069894
X-0062653Y0049027
X-0060192Y0024848
X-0035101Y0034705
X-0050992Y-0007032
X-0005585Y0132668
X-0099419Y0232628
X0028161Y0246424
X0048631Y0236864
T02
X-008182Y-0147584
X-0073946
X-0066072
X-0058198
X-0050324
X-004245
X-0034576
X-0026702
X-0018828
X-0010954
Y-006097
X-0018828
X-0026702
X-0034576
X-004245
X-0050324
X-0058198
X-0066072
X-0073946
X-008182
T03
X0175001Y-0294999
Y-0284999
Y-0274999
Y-0264999
Y-0254999
Y-0244999
Y-0234999
Y-0224999
Y-0214999
Y-0204999
X0165
Y-0214999
Y-0224999
Y-0234999
Y-0244999
Y-0254999
Y-0264999
Y-0274999
Y-0284999
Y-0294999
X0005001
X-0005
Y-0284999
Y-0274999
Y-0264999
Y-0254999
Y-0244999
Y-0234999
Y-0224999
Y-0214999
Y-0204999
X0005001
Y-0214999
Y-0224999
Y-0234999
Y-0244999
Y-0254999
Y-0264999
Y-0274999
Y-0284999
Y-0044999
X-0005
Y-0034999
Y-0024999
Y-0014999
X0005001
Y-0024999
Y-0034999
X0165
Y-0044999
Y-0024999
Y-0014999
X0175001
Y-0024999
Y-0034999
Y-0044999
Y-0004999
Y0005001
Y0015001
Y0025001
Y0035001
Y0045001
X0165
Y0035001
Y0025001
Y0015001
Y0005001
Y-0004999
X0005001
X-0005
Y0005001
Y0015001
Y0025001
Y0035001
Y0045001
X0005001
Y0035001
Y0025001
Y0015001
Y0005001
T04
X-0060946Y-0398215
Y-0388373
X-0051104
X-0041261
Y-0398215
X-0051104
X01072Y-0397912
Y-038807
X0117043
Y-0397912
X0133737Y-0397862
X0143579
X0153422
Y-0388019
X0143579
X0133737
X0174453Y-0388207
X0184296
Y-039805
X0174453
X0234371Y-032426
X0244214
Y-0314417
X0234371
Y-0304575
X0244214
Y-0294732
Y-028489
X0234371
Y-0294732
X0234043Y-0250336
Y-0240494
X0243885
Y-0250336
Y-0230651
X0234043
Y-0220809
X0243885
Y-0210966
X0234043
Y-0201124
X0243885
X-005796Y-0192736
X-0067802
Y-0182894
X-005796
X-0059316Y-0224801
X-0069159
Y-0234644
Y-0244486
X-0059316
Y-0254329
X-0069159
Y-0264172
X-0059316
Y-0234644
X0243644Y-0157623
Y-0147781
X0108951Y0117754
X0068951
X0028951
X0058951Y0197754
X0078951
X0108951
X0243754Y0206931
Y0216773
X0253597
Y0206931
T05
X-0058995Y-0353446
X0074171Y-0284818
Y-0245448
X0105796Y-0227682
Y-0188312
X-0058995Y-0314076
X0147234Y0213398
Y0252768
T06
X-0063923Y0091434
X-0048962
X-0063923Y0201276
X-0034001
X-0093844
T07
X-0093844Y0091434
X-0034001
T08
X-0100728Y-0345572
X-0049153Y-0341635
X0064328Y-0273007
Y-0257259
X0064064Y-0219808
Y-0196186
X0115638Y-0200123
Y-0215871
X0115903Y-0253322
Y-0276944
X-0049153Y-0325887
X-0100728Y-032195
X0137392Y0225209
Y0240957
X0188967Y0244894
Y0221272
T09
X-0101718Y-0428975
X027466
X-0101718Y0247403
X027466
T10
X-0060946Y-0426483
X-0041261
X01072Y-042618
X0117043
X0133737Y-042613
X0153422
X0174453Y-0426318
X0184296
X0272482Y-032426
Y-028489
X0272153Y-0250336
Y-0201124
X-009607Y-0192736
Y-0182894
X-0097427Y-0224801
Y-0264172
X0271912Y-0157623
Y-0147781
X0253597Y0245041
X0243754
T11
X-002Y0235
X021
M30
