G04*
G04 #@! TF.GenerationSoftware,Altium Limited,Altium Designer,18.1.9 (240)*
G04*
G04 Layer_Physical_Order=2*
G04 Layer_Color=36540*
%FSLAX25Y25*%
%MOIN*%
G70*
G01*
G75*
%ADD12C,0.01000*%
%ADD58C,0.01378*%
%ADD59C,0.01968*%
%ADD60C,0.12000*%
%ADD61R,0.07087X0.07087*%
%ADD62C,0.07087*%
%ADD63C,0.06693*%
%ADD65C,0.06102*%
%ADD66R,0.07087X0.07087*%
%ADD67C,0.06000*%
%ADD68C,0.08661*%
%ADD70C,0.10827*%
%ADD73C,0.05000*%
G36*
X190118Y43425D02*
X286468Y43425D01*
X286468Y-440783D01*
X71855Y-440785D01*
X71459Y-440388D01*
Y-370353D01*
X-17731D01*
X-17841Y-370353D01*
X-18091Y-370103D01*
X-18231Y-370243D01*
X-18231Y-370670D01*
Y-440785D01*
X-113175Y-440786D01*
X-113529Y-440432D01*
X-113361Y43425D01*
X-9074Y43425D01*
Y42133D01*
X-8982Y41671D01*
X-8721Y41280D01*
X-8329Y41018D01*
X-7868Y40927D01*
X-2131D01*
X-1670Y41018D01*
X-1278Y41280D01*
X-1017Y41671D01*
X-925Y42133D01*
Y43425D01*
X1268D01*
X1462Y42958D01*
X2111Y42112D01*
X2957Y41462D01*
X3943Y41054D01*
X5001Y40915D01*
X6058Y41054D01*
X7044Y41462D01*
X7890Y42112D01*
X8539Y42958D01*
X8733Y43425D01*
X146181Y43425D01*
Y44060D01*
X160926D01*
Y42133D01*
X161018Y41671D01*
X161279Y41280D01*
X161671Y41018D01*
X162132Y40927D01*
X167869D01*
X168330Y41018D01*
X168722Y41280D01*
X168983Y41671D01*
X169075Y42133D01*
Y44060D01*
X170925D01*
X171050Y43970D01*
X171054Y43943D01*
X171462Y42958D01*
X172111Y42112D01*
X172958Y41462D01*
X173943Y41054D01*
X175001Y40915D01*
X176058Y41054D01*
X177044Y41462D01*
X177890Y42112D01*
X178539Y42958D01*
X178947Y43943D01*
X178951Y43970D01*
X179076Y44060D01*
X190118D01*
Y43425D01*
D02*
G37*
G36*
X286471Y45079D02*
X179076D01*
X178947Y46058D01*
X178539Y47044D01*
X177890Y47890D01*
X177044Y48540D01*
X176058Y48948D01*
X175001Y49087D01*
X173943Y48948D01*
X172958Y48540D01*
X172111Y47890D01*
X171462Y47044D01*
X171054Y46058D01*
X170925Y45079D01*
X169075D01*
Y47869D01*
X168983Y48331D01*
X168722Y48722D01*
X168330Y48983D01*
X167869Y49075D01*
X162132D01*
X161671Y48983D01*
X161279Y48722D01*
X161018Y48331D01*
X160926Y47869D01*
Y45079D01*
X9076D01*
X8947Y46058D01*
X8539Y47044D01*
X7890Y47890D01*
X7044Y48540D01*
X6058Y48948D01*
X5001Y49087D01*
X3943Y48948D01*
X2957Y48540D01*
X2111Y47890D01*
X1462Y47044D01*
X1054Y46058D01*
X925Y45079D01*
X-925D01*
Y47869D01*
X-1017Y48331D01*
X-1278Y48722D01*
X-1670Y48983D01*
X-2131Y49075D01*
X-7868D01*
X-8329Y48983D01*
X-8721Y48722D01*
X-8982Y48331D01*
X-9074Y47869D01*
Y45079D01*
X-113529D01*
X-113529Y259214D01*
X286471Y259214D01*
Y45079D01*
D02*
G37*
%LPC*%
G36*
X175001Y39087D02*
X173943Y38948D01*
X172958Y38540D01*
X172111Y37890D01*
X171462Y37044D01*
X171054Y36059D01*
X170914Y35001D01*
X171054Y33943D01*
X171462Y32958D01*
X172111Y32112D01*
X172958Y31462D01*
X173943Y31054D01*
X175001Y30915D01*
X176058Y31054D01*
X177044Y31462D01*
X177890Y32112D01*
X178539Y32958D01*
X178947Y33943D01*
X179087Y35001D01*
X178947Y36059D01*
X178539Y37044D01*
X177890Y37890D01*
X177044Y38540D01*
X176058Y38948D01*
X175001Y39087D01*
D02*
G37*
G36*
X165000D02*
X163943Y38948D01*
X162958Y38540D01*
X162111Y37890D01*
X161462Y37044D01*
X161054Y36059D01*
X160914Y35001D01*
X161054Y33943D01*
X161462Y32958D01*
X162111Y32112D01*
X162958Y31462D01*
X163943Y31054D01*
X165000Y30915D01*
X166058Y31054D01*
X167044Y31462D01*
X167890Y32112D01*
X168539Y32958D01*
X168948Y33943D01*
X169087Y35001D01*
X168948Y36059D01*
X168539Y37044D01*
X167890Y37890D01*
X167044Y38540D01*
X166058Y38948D01*
X165000Y39087D01*
D02*
G37*
G36*
X-5000D02*
X-6057Y38948D01*
X-7042Y38540D01*
X-7889Y37890D01*
X-8538Y37044D01*
X-8946Y36059D01*
X-9086Y35001D01*
X-8946Y33943D01*
X-8538Y32958D01*
X-7889Y32112D01*
X-7042Y31462D01*
X-6057Y31054D01*
X-5000Y30915D01*
X-3942Y31054D01*
X-2956Y31462D01*
X-2110Y32112D01*
X-1461Y32958D01*
X-1053Y33943D01*
X-913Y35001D01*
X-1053Y36059D01*
X-1461Y37044D01*
X-2110Y37890D01*
X-2956Y38540D01*
X-3942Y38948D01*
X-5000Y39087D01*
D02*
G37*
G36*
X175001Y29087D02*
X173943Y28948D01*
X172958Y28540D01*
X172111Y27890D01*
X171462Y27044D01*
X171054Y26059D01*
X170914Y25001D01*
X171054Y23943D01*
X171462Y22958D01*
X172111Y22112D01*
X172958Y21462D01*
X173943Y21054D01*
X175001Y20915D01*
X176058Y21054D01*
X177044Y21462D01*
X177890Y22112D01*
X178539Y22958D01*
X178947Y23943D01*
X179087Y25001D01*
X178947Y26059D01*
X178539Y27044D01*
X177890Y27890D01*
X177044Y28540D01*
X176058Y28948D01*
X175001Y29087D01*
D02*
G37*
G36*
X165000D02*
X163943Y28948D01*
X162958Y28540D01*
X162111Y27890D01*
X161462Y27044D01*
X161054Y26059D01*
X160914Y25001D01*
X161054Y23943D01*
X161462Y22958D01*
X162111Y22112D01*
X162958Y21462D01*
X163943Y21054D01*
X165000Y20915D01*
X166058Y21054D01*
X167044Y21462D01*
X167890Y22112D01*
X168539Y22958D01*
X168948Y23943D01*
X169087Y25001D01*
X168948Y26059D01*
X168539Y27044D01*
X167890Y27890D01*
X167044Y28540D01*
X166058Y28948D01*
X165000Y29087D01*
D02*
G37*
G36*
X5001D02*
X3943Y28948D01*
X2957Y28540D01*
X2111Y27890D01*
X1462Y27044D01*
X1054Y26059D01*
X914Y25001D01*
X1054Y23943D01*
X1462Y22958D01*
X2111Y22112D01*
X2957Y21462D01*
X3943Y21054D01*
X5001Y20915D01*
X6058Y21054D01*
X7044Y21462D01*
X7890Y22112D01*
X8539Y22958D01*
X8947Y23943D01*
X9087Y25001D01*
X8947Y26059D01*
X8539Y27044D01*
X7890Y27890D01*
X7044Y28540D01*
X6058Y28948D01*
X5001Y29087D01*
D02*
G37*
G36*
X-5000D02*
X-6057Y28948D01*
X-7042Y28540D01*
X-7889Y27890D01*
X-8538Y27044D01*
X-8946Y26059D01*
X-9086Y25001D01*
X-8946Y23943D01*
X-8538Y22958D01*
X-7889Y22112D01*
X-7042Y21462D01*
X-6057Y21054D01*
X-5000Y20915D01*
X-3942Y21054D01*
X-2956Y21462D01*
X-2110Y22112D01*
X-1461Y22958D01*
X-1053Y23943D01*
X-913Y25001D01*
X-1053Y26059D01*
X-1461Y27044D01*
X-2110Y27890D01*
X-2956Y28540D01*
X-3942Y28948D01*
X-5000Y29087D01*
D02*
G37*
G36*
X175001Y19087D02*
X173943Y18948D01*
X172958Y18540D01*
X172111Y17890D01*
X171462Y17044D01*
X171054Y16059D01*
X170914Y15001D01*
X171054Y13943D01*
X171462Y12958D01*
X172111Y12112D01*
X172958Y11462D01*
X173943Y11054D01*
X175001Y10915D01*
X176058Y11054D01*
X177044Y11462D01*
X177890Y12112D01*
X178539Y12958D01*
X178947Y13943D01*
X179087Y15001D01*
X178947Y16059D01*
X178539Y17044D01*
X177890Y17890D01*
X177044Y18540D01*
X176058Y18948D01*
X175001Y19087D01*
D02*
G37*
G36*
X165000D02*
X163943Y18948D01*
X162958Y18540D01*
X162111Y17890D01*
X161462Y17044D01*
X161054Y16059D01*
X160914Y15001D01*
X161054Y13943D01*
X161462Y12958D01*
X162111Y12112D01*
X162958Y11462D01*
X163943Y11054D01*
X165000Y10915D01*
X166058Y11054D01*
X167044Y11462D01*
X167890Y12112D01*
X168539Y12958D01*
X168948Y13943D01*
X169087Y15001D01*
X168948Y16059D01*
X168539Y17044D01*
X167890Y17890D01*
X167044Y18540D01*
X166058Y18948D01*
X165000Y19087D01*
D02*
G37*
G36*
X5001D02*
X3943Y18948D01*
X2957Y18540D01*
X2111Y17890D01*
X1462Y17044D01*
X1054Y16059D01*
X914Y15001D01*
X1054Y13943D01*
X1462Y12958D01*
X2111Y12112D01*
X2957Y11462D01*
X3943Y11054D01*
X5001Y10915D01*
X6058Y11054D01*
X7044Y11462D01*
X7890Y12112D01*
X8539Y12958D01*
X8947Y13943D01*
X9087Y15001D01*
X8947Y16059D01*
X8539Y17044D01*
X7890Y17890D01*
X7044Y18540D01*
X6058Y18948D01*
X5001Y19087D01*
D02*
G37*
G36*
X-5000D02*
X-6057Y18948D01*
X-7042Y18540D01*
X-7889Y17890D01*
X-8538Y17044D01*
X-8946Y16059D01*
X-9086Y15001D01*
X-8946Y13943D01*
X-8742Y13451D01*
X-27784Y-5591D01*
X-28115Y-6087D01*
X-28231Y-6672D01*
Y-57274D01*
X-28719Y-57476D01*
X-29555Y-58117D01*
X-30196Y-58952D01*
X-30368Y-59369D01*
X-30910D01*
X-31082Y-58952D01*
X-31723Y-58117D01*
X-32559Y-57476D01*
X-33532Y-57073D01*
X-34576Y-56935D01*
X-35620Y-57073D01*
X-36593Y-57476D01*
X-37429Y-58117D01*
X-38070Y-58952D01*
X-38242Y-59369D01*
X-38784D01*
X-38956Y-58952D01*
X-39597Y-58117D01*
X-40433Y-57476D01*
X-41406Y-57073D01*
X-42450Y-56935D01*
X-43494Y-57073D01*
X-44467Y-57476D01*
X-45303Y-58117D01*
X-45944Y-58952D01*
X-46117Y-59369D01*
X-46658D01*
X-46830Y-58952D01*
X-47471Y-58117D01*
X-48307Y-57476D01*
X-49280Y-57073D01*
X-50324Y-56935D01*
X-51368Y-57073D01*
X-52341Y-57476D01*
X-53177Y-58117D01*
X-53818Y-58952D01*
X-53991Y-59369D01*
X-54532D01*
X-54704Y-58952D01*
X-55345Y-58117D01*
X-56181Y-57476D01*
X-57154Y-57073D01*
X-58198Y-56935D01*
X-59242Y-57073D01*
X-60215Y-57476D01*
X-61051Y-58117D01*
X-61692Y-58952D01*
X-61865Y-59369D01*
X-62406D01*
X-62578Y-58952D01*
X-63219Y-58117D01*
X-64055Y-57476D01*
X-65028Y-57073D01*
X-66072Y-56935D01*
X-67116Y-57073D01*
X-68089Y-57476D01*
X-68925Y-58117D01*
X-69566Y-58952D01*
X-69739Y-59369D01*
X-70280D01*
X-70452Y-58952D01*
X-71093Y-58117D01*
X-71929Y-57476D01*
X-72902Y-57073D01*
X-73946Y-56935D01*
X-74990Y-57073D01*
X-75963Y-57476D01*
X-76799Y-58117D01*
X-77440Y-58952D01*
X-77843Y-59925D01*
X-77981Y-60970D01*
X-77843Y-62014D01*
X-77440Y-62987D01*
X-76799Y-63822D01*
X-75963Y-64464D01*
X-74990Y-64867D01*
X-73946Y-65004D01*
X-72902Y-64867D01*
X-71929Y-64464D01*
X-71093Y-63822D01*
X-70452Y-62987D01*
X-70280Y-62571D01*
X-69739D01*
X-69566Y-62987D01*
X-68925Y-63822D01*
X-68089Y-64464D01*
X-67116Y-64867D01*
X-66072Y-65004D01*
X-65028Y-64867D01*
X-64055Y-64464D01*
X-63219Y-63822D01*
X-62578Y-62987D01*
X-62406Y-62571D01*
X-61865D01*
X-61692Y-62987D01*
X-61051Y-63822D01*
X-60215Y-64464D01*
X-59242Y-64867D01*
X-58198Y-65004D01*
X-57154Y-64867D01*
X-56181Y-64464D01*
X-55345Y-63822D01*
X-54704Y-62987D01*
X-54532Y-62571D01*
X-53991D01*
X-53818Y-62987D01*
X-53177Y-63822D01*
X-52341Y-64464D01*
X-51368Y-64867D01*
X-50324Y-65004D01*
X-49280Y-64867D01*
X-48307Y-64464D01*
X-47471Y-63822D01*
X-46830Y-62987D01*
X-46658Y-62571D01*
X-46117D01*
X-45944Y-62987D01*
X-45303Y-63822D01*
X-44467Y-64464D01*
X-43494Y-64867D01*
X-42450Y-65004D01*
X-41406Y-64867D01*
X-40433Y-64464D01*
X-39597Y-63822D01*
X-38956Y-62987D01*
X-38784Y-62571D01*
X-38242D01*
X-38070Y-62987D01*
X-37429Y-63822D01*
X-36593Y-64464D01*
X-35620Y-64867D01*
X-34576Y-65004D01*
X-33532Y-64867D01*
X-32559Y-64464D01*
X-31723Y-63822D01*
X-31082Y-62987D01*
X-30910Y-62571D01*
X-30368D01*
X-30196Y-62987D01*
X-29555Y-63822D01*
X-28719Y-64464D01*
X-27746Y-64867D01*
X-26702Y-65004D01*
X-25658Y-64867D01*
X-24685Y-64464D01*
X-23849Y-63822D01*
X-23208Y-62987D01*
X-23036Y-62571D01*
X-22494D01*
X-22322Y-62987D01*
X-21681Y-63822D01*
X-20845Y-64464D01*
X-19872Y-64867D01*
X-18828Y-65004D01*
X-17784Y-64867D01*
X-16811Y-64464D01*
X-15975Y-63822D01*
X-15334Y-62987D01*
X-15162Y-62571D01*
X-14620D01*
X-14448Y-62987D01*
X-13807Y-63822D01*
X-12971Y-64464D01*
X-11998Y-64867D01*
X-10954Y-65004D01*
X-9910Y-64867D01*
X-8937Y-64464D01*
X-8101Y-63822D01*
X-7460Y-62987D01*
X-7057Y-62014D01*
X-6920Y-60970D01*
X-7057Y-59925D01*
X-7460Y-58952D01*
X-8101Y-58117D01*
X-8937Y-57476D01*
X-9910Y-57073D01*
X-10954Y-56935D01*
X-11998Y-57073D01*
X-12971Y-57476D01*
X-13807Y-58117D01*
X-14448Y-58952D01*
X-14620Y-59369D01*
X-15162D01*
X-15334Y-58952D01*
X-15975Y-58117D01*
X-16811Y-57476D01*
X-17784Y-57073D01*
X-18828Y-56935D01*
X-19872Y-57073D01*
X-20845Y-57476D01*
X-21681Y-58117D01*
X-22322Y-58952D01*
X-22494Y-59369D01*
X-23036D01*
X-23208Y-58952D01*
X-23849Y-58117D01*
X-24685Y-57476D01*
X-25173Y-57274D01*
Y-7305D01*
X-6592Y11276D01*
X-6057Y11054D01*
X-5000Y10915D01*
X-3942Y11054D01*
X-2956Y11462D01*
X-2110Y12112D01*
X-1461Y12958D01*
X-1053Y13943D01*
X-913Y15001D01*
X-1053Y16059D01*
X-1461Y17044D01*
X-2110Y17890D01*
X-2956Y18540D01*
X-3942Y18948D01*
X-5000Y19087D01*
D02*
G37*
G36*
X175001Y9087D02*
X173943Y8948D01*
X172958Y8540D01*
X172111Y7890D01*
X171462Y7044D01*
X171054Y6058D01*
X170914Y5001D01*
X171054Y3943D01*
X171462Y2958D01*
X172111Y2112D01*
X172958Y1462D01*
X173943Y1054D01*
X175001Y915D01*
X176058Y1054D01*
X177044Y1462D01*
X177890Y2112D01*
X178539Y2958D01*
X178947Y3943D01*
X179087Y5001D01*
X178947Y6058D01*
X178539Y7044D01*
X177890Y7890D01*
X177044Y8540D01*
X176058Y8948D01*
X175001Y9087D01*
D02*
G37*
G36*
X165000D02*
X163943Y8948D01*
X162958Y8540D01*
X162111Y7890D01*
X161462Y7044D01*
X161054Y6058D01*
X160914Y5001D01*
X161054Y3943D01*
X161462Y2958D01*
X162111Y2112D01*
X162958Y1462D01*
X163943Y1054D01*
X165000Y915D01*
X166058Y1054D01*
X167044Y1462D01*
X167890Y2112D01*
X168539Y2958D01*
X168948Y3943D01*
X169087Y5001D01*
X168948Y6058D01*
X168539Y7044D01*
X167890Y7890D01*
X167044Y8540D01*
X166058Y8948D01*
X165000Y9087D01*
D02*
G37*
G36*
X5001D02*
X3943Y8948D01*
X2957Y8540D01*
X2111Y7890D01*
X1462Y7044D01*
X1054Y6058D01*
X914Y5001D01*
X1054Y3943D01*
X1462Y2958D01*
X2111Y2112D01*
X2957Y1462D01*
X3943Y1054D01*
X5001Y915D01*
X6058Y1054D01*
X7044Y1462D01*
X7890Y2112D01*
X8539Y2958D01*
X8947Y3943D01*
X9087Y5001D01*
X8947Y6058D01*
X8539Y7044D01*
X7890Y7890D01*
X7044Y8540D01*
X6058Y8948D01*
X5001Y9087D01*
D02*
G37*
G36*
X-5000D02*
X-6057Y8948D01*
X-7042Y8540D01*
X-7889Y7890D01*
X-8538Y7044D01*
X-8946Y6058D01*
X-9086Y5001D01*
X-8946Y3943D01*
X-8538Y2958D01*
X-7889Y2112D01*
X-7042Y1462D01*
X-6057Y1054D01*
X-5000Y915D01*
X-3942Y1054D01*
X-2956Y1462D01*
X-2110Y2112D01*
X-1461Y2958D01*
X-1053Y3943D01*
X-913Y5001D01*
X-1053Y6058D01*
X-1461Y7044D01*
X-2110Y7890D01*
X-2956Y8540D01*
X-3942Y8948D01*
X-5000Y9087D01*
D02*
G37*
G36*
X272457Y6211D02*
X271322Y6061D01*
X270265Y5623D01*
X269357Y4926D01*
X268660Y4019D01*
X268222Y2961D01*
X268073Y1826D01*
X268222Y692D01*
X268660Y-365D01*
X269357Y-1273D01*
X270265Y-1970D01*
X271322Y-2408D01*
X272457Y-2557D01*
X273592Y-2408D01*
X274649Y-1970D01*
X275557Y-1273D01*
X276254Y-365D01*
X276692Y692D01*
X276841Y1826D01*
X276692Y2961D01*
X276254Y4019D01*
X275557Y4926D01*
X274649Y5623D01*
X273592Y6061D01*
X272457Y6211D01*
D02*
G37*
G36*
X238890Y6370D02*
X229803D01*
Y-2717D01*
X238890D01*
Y6370D01*
D02*
G37*
G36*
X244189Y6409D02*
X243003Y6253D01*
X241898Y5795D01*
X240949Y5067D01*
X240220Y4118D01*
X239763Y3013D01*
X239607Y1826D01*
X239763Y641D01*
X240220Y-465D01*
X240949Y-1414D01*
X241898Y-2142D01*
X243003Y-2600D01*
X244189Y-2756D01*
X245375Y-2600D01*
X246480Y-2142D01*
X247429Y-1414D01*
X248158Y-465D01*
X248616Y641D01*
X248772Y1826D01*
X248616Y3013D01*
X248158Y4118D01*
X247429Y5067D01*
X246480Y5795D01*
X245375Y6253D01*
X244189Y6409D01*
D02*
G37*
G36*
X175001Y-913D02*
X173943Y-1052D01*
X172958Y-1460D01*
X172111Y-2110D01*
X171462Y-2956D01*
X171054Y-3941D01*
X170914Y-4999D01*
X171054Y-6057D01*
X171462Y-7042D01*
X172111Y-7888D01*
X172958Y-8538D01*
X173943Y-8946D01*
X175001Y-9085D01*
X176058Y-8946D01*
X177044Y-8538D01*
X177890Y-7888D01*
X178539Y-7042D01*
X178947Y-6057D01*
X179087Y-4999D01*
X178947Y-3941D01*
X178539Y-2956D01*
X177890Y-2110D01*
X177044Y-1460D01*
X176058Y-1052D01*
X175001Y-913D01*
D02*
G37*
G36*
X165000D02*
X163943Y-1052D01*
X162958Y-1460D01*
X162111Y-2110D01*
X161462Y-2956D01*
X161054Y-3941D01*
X160914Y-4999D01*
X161054Y-6057D01*
X161462Y-7042D01*
X162111Y-7888D01*
X162958Y-8538D01*
X163943Y-8946D01*
X165000Y-9085D01*
X166058Y-8946D01*
X167044Y-8538D01*
X167890Y-7888D01*
X168539Y-7042D01*
X168948Y-6057D01*
X169087Y-4999D01*
X168948Y-3941D01*
X168539Y-2956D01*
X167890Y-2110D01*
X167044Y-1460D01*
X166058Y-1052D01*
X165000Y-913D01*
D02*
G37*
G36*
X5001D02*
X3943Y-1052D01*
X2957Y-1460D01*
X2111Y-2110D01*
X1462Y-2956D01*
X1054Y-3941D01*
X914Y-4999D01*
X1054Y-6057D01*
X1462Y-7042D01*
X2111Y-7888D01*
X2957Y-8538D01*
X3943Y-8946D01*
X5001Y-9085D01*
X6058Y-8946D01*
X7044Y-8538D01*
X7890Y-7888D01*
X8539Y-7042D01*
X8947Y-6057D01*
X9087Y-4999D01*
X8947Y-3941D01*
X8539Y-2956D01*
X7890Y-2110D01*
X7044Y-1460D01*
X6058Y-1052D01*
X5001Y-913D01*
D02*
G37*
G36*
X-5000D02*
X-6057Y-1052D01*
X-7042Y-1460D01*
X-7889Y-2110D01*
X-8538Y-2956D01*
X-8946Y-3941D01*
X-9086Y-4999D01*
X-8946Y-6057D01*
X-8538Y-7042D01*
X-7889Y-7888D01*
X-7042Y-8538D01*
X-6057Y-8946D01*
X-5000Y-9085D01*
X-3942Y-8946D01*
X-2956Y-8538D01*
X-2110Y-7888D01*
X-1461Y-7042D01*
X-1053Y-6057D01*
X-913Y-4999D01*
X-1053Y-3941D01*
X-1461Y-2956D01*
X-2110Y-2110D01*
X-2956Y-1460D01*
X-3942Y-1052D01*
X-5000Y-913D01*
D02*
G37*
G36*
X-50992Y-3502D02*
X-51905Y-3622D01*
X-52757Y-3975D01*
X-53488Y-4536D01*
X-54049Y-5267D01*
X-54402Y-6118D01*
X-54522Y-7032D01*
X-54402Y-7946D01*
X-54049Y-8797D01*
X-53488Y-9528D01*
X-52757Y-10089D01*
X-51905Y-10442D01*
X-50992Y-10562D01*
X-50078Y-10442D01*
X-49227Y-10089D01*
X-48495Y-9528D01*
X-47934Y-8797D01*
X-47582Y-7946D01*
X-47462Y-7032D01*
X-47582Y-6118D01*
X-47934Y-5267D01*
X-48495Y-4536D01*
X-49227Y-3975D01*
X-50078Y-3622D01*
X-50992Y-3502D01*
D02*
G37*
G36*
X244189Y-3434D02*
X243003Y-3590D01*
X241898Y-4047D01*
X240949Y-4776D01*
X240220Y-5725D01*
X239763Y-6830D01*
X239607Y-8016D01*
X239763Y-9202D01*
X240220Y-10307D01*
X240949Y-11256D01*
X241898Y-11985D01*
X243003Y-12442D01*
X244189Y-12599D01*
X245375Y-12442D01*
X246480Y-11985D01*
X247429Y-11256D01*
X248158Y-10307D01*
X248616Y-9202D01*
X248772Y-8016D01*
X248616Y-6830D01*
X248158Y-5725D01*
X247429Y-4776D01*
X246480Y-4047D01*
X245375Y-3590D01*
X244189Y-3434D01*
D02*
G37*
G36*
X234347D02*
X233161Y-3590D01*
X232055Y-4047D01*
X231106Y-4776D01*
X230378Y-5725D01*
X229920Y-6830D01*
X229764Y-8016D01*
X229920Y-9202D01*
X230378Y-10307D01*
X231106Y-11256D01*
X232055Y-11985D01*
X233161Y-12442D01*
X234347Y-12599D01*
X235533Y-12442D01*
X236638Y-11985D01*
X237587Y-11256D01*
X238315Y-10307D01*
X238773Y-9202D01*
X238929Y-8016D01*
X238773Y-6830D01*
X238315Y-5725D01*
X237587Y-4776D01*
X236638Y-4047D01*
X235533Y-3590D01*
X234347Y-3434D01*
D02*
G37*
G36*
X175001Y-10913D02*
X173943Y-11052D01*
X172958Y-11460D01*
X172111Y-12110D01*
X171462Y-12956D01*
X171054Y-13941D01*
X170914Y-14999D01*
X171054Y-16057D01*
X171462Y-17042D01*
X172111Y-17888D01*
X172958Y-18538D01*
X173943Y-18946D01*
X175001Y-19085D01*
X176058Y-18946D01*
X177044Y-18538D01*
X177890Y-17888D01*
X178539Y-17042D01*
X178947Y-16057D01*
X179087Y-14999D01*
X178947Y-13941D01*
X178539Y-12956D01*
X177890Y-12110D01*
X177044Y-11460D01*
X176058Y-11052D01*
X175001Y-10913D01*
D02*
G37*
G36*
X165000D02*
X163943Y-11052D01*
X162958Y-11460D01*
X162111Y-12110D01*
X161462Y-12956D01*
X161054Y-13941D01*
X160914Y-14999D01*
X161054Y-16057D01*
X161462Y-17042D01*
X162111Y-17888D01*
X162958Y-18538D01*
X163943Y-18946D01*
X165000Y-19085D01*
X166058Y-18946D01*
X167044Y-18538D01*
X167890Y-17888D01*
X168539Y-17042D01*
X168948Y-16057D01*
X169087Y-14999D01*
X168948Y-13941D01*
X168539Y-12956D01*
X167890Y-12110D01*
X167044Y-11460D01*
X166058Y-11052D01*
X165000Y-10913D01*
D02*
G37*
G36*
X5001D02*
X3943Y-11052D01*
X2957Y-11460D01*
X2111Y-12110D01*
X1462Y-12956D01*
X1054Y-13941D01*
X914Y-14999D01*
X1054Y-16057D01*
X1462Y-17042D01*
X2111Y-17888D01*
X2957Y-18538D01*
X3943Y-18946D01*
X5001Y-19085D01*
X6058Y-18946D01*
X7044Y-18538D01*
X7890Y-17888D01*
X8539Y-17042D01*
X8947Y-16057D01*
X9087Y-14999D01*
X8947Y-13941D01*
X8539Y-12956D01*
X7890Y-12110D01*
X7044Y-11460D01*
X6058Y-11052D01*
X5001Y-10913D01*
D02*
G37*
G36*
X-5000D02*
X-6057Y-11052D01*
X-7042Y-11460D01*
X-7889Y-12110D01*
X-8538Y-12956D01*
X-8946Y-13941D01*
X-9086Y-14999D01*
X-8946Y-16057D01*
X-8538Y-17042D01*
X-7889Y-17888D01*
X-7042Y-18538D01*
X-6057Y-18946D01*
X-5000Y-19085D01*
X-3942Y-18946D01*
X-2956Y-18538D01*
X-2110Y-17888D01*
X-1461Y-17042D01*
X-1053Y-16057D01*
X-913Y-14999D01*
X-1053Y-13941D01*
X-1461Y-12956D01*
X-2110Y-12110D01*
X-2956Y-11460D01*
X-3942Y-11052D01*
X-5000Y-10913D01*
D02*
G37*
G36*
X244189Y-13276D02*
X243003Y-13432D01*
X241898Y-13890D01*
X240949Y-14618D01*
X240220Y-15567D01*
X239763Y-16673D01*
X239607Y-17859D01*
X239763Y-19045D01*
X240220Y-20150D01*
X240949Y-21099D01*
X241898Y-21827D01*
X243003Y-22285D01*
X244189Y-22441D01*
X245375Y-22285D01*
X246480Y-21827D01*
X247429Y-21099D01*
X248158Y-20150D01*
X248616Y-19045D01*
X248772Y-17859D01*
X248616Y-16673D01*
X248158Y-15567D01*
X247429Y-14618D01*
X246480Y-13890D01*
X245375Y-13432D01*
X244189Y-13276D01*
D02*
G37*
G36*
X234347D02*
X233161Y-13432D01*
X232055Y-13890D01*
X231106Y-14618D01*
X230378Y-15567D01*
X229920Y-16673D01*
X229764Y-17859D01*
X229920Y-19045D01*
X230378Y-20150D01*
X231106Y-21099D01*
X232055Y-21827D01*
X233161Y-22285D01*
X234347Y-22441D01*
X235533Y-22285D01*
X236638Y-21827D01*
X237587Y-21099D01*
X238315Y-20150D01*
X238773Y-19045D01*
X238929Y-17859D01*
X238773Y-16673D01*
X238315Y-15567D01*
X237587Y-14618D01*
X236638Y-13890D01*
X235533Y-13432D01*
X234347Y-13276D01*
D02*
G37*
G36*
X175001Y-20913D02*
X173943Y-21052D01*
X172958Y-21460D01*
X172111Y-22110D01*
X171462Y-22956D01*
X171054Y-23942D01*
X170914Y-24999D01*
X171054Y-26057D01*
X171462Y-27042D01*
X172111Y-27888D01*
X172958Y-28538D01*
X173943Y-28946D01*
X175001Y-29085D01*
X176058Y-28946D01*
X177044Y-28538D01*
X177890Y-27888D01*
X178539Y-27042D01*
X178947Y-26057D01*
X179087Y-24999D01*
X178947Y-23942D01*
X178539Y-22956D01*
X177890Y-22110D01*
X177044Y-21460D01*
X176058Y-21052D01*
X175001Y-20913D01*
D02*
G37*
G36*
X165000D02*
X163943Y-21052D01*
X162958Y-21460D01*
X162111Y-22110D01*
X161462Y-22956D01*
X161054Y-23942D01*
X160914Y-24999D01*
X161054Y-26057D01*
X161462Y-27042D01*
X162111Y-27888D01*
X162958Y-28538D01*
X163943Y-28946D01*
X165000Y-29085D01*
X166058Y-28946D01*
X167044Y-28538D01*
X167890Y-27888D01*
X168539Y-27042D01*
X168948Y-26057D01*
X169087Y-24999D01*
X168948Y-23942D01*
X168539Y-22956D01*
X167890Y-22110D01*
X167044Y-21460D01*
X166058Y-21052D01*
X165000Y-20913D01*
D02*
G37*
G36*
X5001D02*
X3943Y-21052D01*
X2957Y-21460D01*
X2111Y-22110D01*
X1462Y-22956D01*
X1054Y-23942D01*
X914Y-24999D01*
X1054Y-26057D01*
X1462Y-27042D01*
X2111Y-27888D01*
X2957Y-28538D01*
X3943Y-28946D01*
X5001Y-29085D01*
X6058Y-28946D01*
X7044Y-28538D01*
X7890Y-27888D01*
X8539Y-27042D01*
X8947Y-26057D01*
X9087Y-24999D01*
X8947Y-23942D01*
X8539Y-22956D01*
X7890Y-22110D01*
X7044Y-21460D01*
X6058Y-21052D01*
X5001Y-20913D01*
D02*
G37*
G36*
X-5000D02*
X-6057Y-21052D01*
X-7042Y-21460D01*
X-7889Y-22110D01*
X-8538Y-22956D01*
X-8946Y-23942D01*
X-9086Y-24999D01*
X-8946Y-26057D01*
X-8538Y-27042D01*
X-7889Y-27888D01*
X-7042Y-28538D01*
X-6057Y-28946D01*
X-5000Y-29085D01*
X-3942Y-28946D01*
X-2956Y-28538D01*
X-2110Y-27888D01*
X-1461Y-27042D01*
X-1053Y-26057D01*
X-913Y-24999D01*
X-1053Y-23942D01*
X-1461Y-22956D01*
X-2110Y-22110D01*
X-2956Y-21460D01*
X-3942Y-21052D01*
X-5000Y-20913D01*
D02*
G37*
G36*
X234347Y-23119D02*
X233161Y-23275D01*
X232055Y-23732D01*
X231106Y-24461D01*
X230378Y-25410D01*
X229920Y-26515D01*
X229764Y-27701D01*
X229920Y-28887D01*
X230378Y-29992D01*
X231106Y-30941D01*
X232055Y-31670D01*
X233161Y-32127D01*
X234347Y-32284D01*
X235533Y-32127D01*
X236638Y-31670D01*
X237587Y-30941D01*
X238315Y-29992D01*
X238773Y-28887D01*
X238929Y-27701D01*
X238773Y-26515D01*
X238315Y-25410D01*
X237587Y-24461D01*
X236638Y-23732D01*
X235533Y-23275D01*
X234347Y-23119D01*
D02*
G37*
G36*
X175001Y-30913D02*
X173943Y-31052D01*
X172958Y-31460D01*
X172111Y-32110D01*
X171462Y-32956D01*
X171054Y-33942D01*
X170914Y-34999D01*
X171054Y-36057D01*
X171462Y-37042D01*
X172111Y-37888D01*
X172958Y-38538D01*
X173943Y-38946D01*
X175001Y-39085D01*
X176058Y-38946D01*
X177044Y-38538D01*
X177890Y-37888D01*
X178539Y-37042D01*
X178947Y-36057D01*
X179087Y-34999D01*
X178947Y-33942D01*
X178539Y-32956D01*
X177890Y-32110D01*
X177044Y-31460D01*
X176058Y-31052D01*
X175001Y-30913D01*
D02*
G37*
G36*
X165000D02*
X163943Y-31052D01*
X162958Y-31460D01*
X162111Y-32110D01*
X161462Y-32956D01*
X161054Y-33942D01*
X160914Y-34999D01*
X161054Y-36057D01*
X161462Y-37042D01*
X162111Y-37888D01*
X162958Y-38538D01*
X163943Y-38946D01*
X165000Y-39085D01*
X166058Y-38946D01*
X167044Y-38538D01*
X167890Y-37888D01*
X168539Y-37042D01*
X168948Y-36057D01*
X169087Y-34999D01*
X168948Y-33942D01*
X168539Y-32956D01*
X167890Y-32110D01*
X167044Y-31460D01*
X166058Y-31052D01*
X165000Y-30913D01*
D02*
G37*
G36*
X5001D02*
X3943Y-31052D01*
X2957Y-31460D01*
X2111Y-32110D01*
X1462Y-32956D01*
X1054Y-33942D01*
X914Y-34999D01*
X1054Y-36057D01*
X1462Y-37042D01*
X2111Y-37888D01*
X2957Y-38538D01*
X3943Y-38946D01*
X5001Y-39085D01*
X6058Y-38946D01*
X7044Y-38538D01*
X7890Y-37888D01*
X8539Y-37042D01*
X8947Y-36057D01*
X9087Y-34999D01*
X8947Y-33942D01*
X8539Y-32956D01*
X7890Y-32110D01*
X7044Y-31460D01*
X6058Y-31052D01*
X5001Y-30913D01*
D02*
G37*
G36*
X-5000D02*
X-6057Y-31052D01*
X-7042Y-31460D01*
X-7889Y-32110D01*
X-8538Y-32956D01*
X-8946Y-33942D01*
X-9086Y-34999D01*
X-8946Y-36057D01*
X-8538Y-37042D01*
X-7889Y-37888D01*
X-7042Y-38538D01*
X-6057Y-38946D01*
X-5000Y-39085D01*
X-3942Y-38946D01*
X-2956Y-38538D01*
X-2110Y-37888D01*
X-1461Y-37042D01*
X-1053Y-36057D01*
X-913Y-34999D01*
X-1053Y-33942D01*
X-1461Y-32956D01*
X-2110Y-32110D01*
X-2956Y-31460D01*
X-3942Y-31052D01*
X-5000Y-30913D01*
D02*
G37*
G36*
X234347Y-32961D02*
X233161Y-33117D01*
X232055Y-33575D01*
X231106Y-34303D01*
X230378Y-35252D01*
X229920Y-36358D01*
X229764Y-37544D01*
X229920Y-38730D01*
X230378Y-39835D01*
X231106Y-40784D01*
X232055Y-41512D01*
X233161Y-41970D01*
X234347Y-42126D01*
X235533Y-41970D01*
X236638Y-41512D01*
X237587Y-40784D01*
X238315Y-39835D01*
X238773Y-38730D01*
X238929Y-37544D01*
X238773Y-36358D01*
X238315Y-35252D01*
X237587Y-34303D01*
X236638Y-33575D01*
X235533Y-33117D01*
X234347Y-32961D01*
D02*
G37*
G36*
X175001Y-40913D02*
X173943Y-41052D01*
X172958Y-41460D01*
X172111Y-42110D01*
X171462Y-42956D01*
X171054Y-43942D01*
X170914Y-44999D01*
X171054Y-46057D01*
X171462Y-47042D01*
X172111Y-47888D01*
X172958Y-48538D01*
X173943Y-48946D01*
X175001Y-49085D01*
X176058Y-48946D01*
X177044Y-48538D01*
X177890Y-47888D01*
X178539Y-47042D01*
X178947Y-46057D01*
X179087Y-44999D01*
X178947Y-43942D01*
X178539Y-42956D01*
X177890Y-42110D01*
X177044Y-41460D01*
X176058Y-41052D01*
X175001Y-40913D01*
D02*
G37*
G36*
X165000D02*
X163943Y-41052D01*
X162958Y-41460D01*
X162111Y-42110D01*
X161462Y-42956D01*
X161054Y-43942D01*
X160914Y-44999D01*
X161054Y-46057D01*
X161462Y-47042D01*
X162111Y-47888D01*
X162958Y-48538D01*
X163943Y-48946D01*
X165000Y-49085D01*
X166058Y-48946D01*
X167044Y-48538D01*
X167890Y-47888D01*
X168539Y-47042D01*
X168948Y-46057D01*
X169087Y-44999D01*
X168948Y-43942D01*
X168539Y-42956D01*
X167890Y-42110D01*
X167044Y-41460D01*
X166058Y-41052D01*
X165000Y-40913D01*
D02*
G37*
G36*
X5001D02*
X3943Y-41052D01*
X2957Y-41460D01*
X2111Y-42110D01*
X1462Y-42956D01*
X1054Y-43942D01*
X914Y-44999D01*
X1054Y-46057D01*
X1462Y-47042D01*
X2111Y-47888D01*
X2957Y-48538D01*
X3943Y-48946D01*
X5001Y-49085D01*
X6058Y-48946D01*
X7044Y-48538D01*
X7890Y-47888D01*
X8539Y-47042D01*
X8947Y-46057D01*
X9087Y-44999D01*
X8947Y-43942D01*
X8539Y-42956D01*
X7890Y-42110D01*
X7044Y-41460D01*
X6058Y-41052D01*
X5001Y-40913D01*
D02*
G37*
G36*
X-5000D02*
X-6057Y-41052D01*
X-7042Y-41460D01*
X-7889Y-42110D01*
X-8538Y-42956D01*
X-8946Y-43942D01*
X-9086Y-44999D01*
X-8946Y-46057D01*
X-8538Y-47042D01*
X-7889Y-47888D01*
X-7042Y-48538D01*
X-6057Y-48946D01*
X-5000Y-49085D01*
X-3942Y-48946D01*
X-2956Y-48538D01*
X-2110Y-47888D01*
X-1461Y-47042D01*
X-1053Y-46057D01*
X-913Y-44999D01*
X-1053Y-43942D01*
X-1461Y-42956D01*
X-2110Y-42110D01*
X-2956Y-41460D01*
X-3942Y-41052D01*
X-5000Y-40913D01*
D02*
G37*
G36*
X272457Y-43002D02*
X271322Y-43152D01*
X270265Y-43589D01*
X269357Y-44286D01*
X268660Y-45194D01*
X268222Y-46251D01*
X268073Y-47386D01*
X268222Y-48521D01*
X268660Y-49578D01*
X269357Y-50486D01*
X270265Y-51183D01*
X271322Y-51621D01*
X272457Y-51770D01*
X273592Y-51621D01*
X274649Y-51183D01*
X275557Y-50486D01*
X276254Y-49578D01*
X276692Y-48521D01*
X276841Y-47386D01*
X276692Y-46251D01*
X276254Y-45194D01*
X275557Y-44286D01*
X274649Y-43589D01*
X273592Y-43152D01*
X272457Y-43002D01*
D02*
G37*
G36*
X244189Y-42804D02*
X243003Y-42960D01*
X241898Y-43418D01*
X240949Y-44146D01*
X240220Y-45095D01*
X239763Y-46200D01*
X239607Y-47386D01*
X239763Y-48572D01*
X240220Y-49677D01*
X240949Y-50626D01*
X241898Y-51355D01*
X243003Y-51812D01*
X244189Y-51969D01*
X245375Y-51812D01*
X246480Y-51355D01*
X247429Y-50626D01*
X248158Y-49677D01*
X248616Y-48572D01*
X248772Y-47386D01*
X248616Y-46200D01*
X248158Y-45095D01*
X247429Y-44146D01*
X246480Y-43418D01*
X245375Y-42960D01*
X244189Y-42804D01*
D02*
G37*
G36*
X234347D02*
X233161Y-42960D01*
X232055Y-43418D01*
X231106Y-44146D01*
X230378Y-45095D01*
X229920Y-46200D01*
X229764Y-47386D01*
X229920Y-48572D01*
X230378Y-49677D01*
X231106Y-50626D01*
X232055Y-51355D01*
X233161Y-51812D01*
X234347Y-51969D01*
X235533Y-51812D01*
X236638Y-51355D01*
X237587Y-50626D01*
X238315Y-49677D01*
X238773Y-48572D01*
X238929Y-47386D01*
X238773Y-46200D01*
X238315Y-45095D01*
X237587Y-44146D01*
X236638Y-43418D01*
X235533Y-42960D01*
X234347Y-42804D01*
D02*
G37*
G36*
X-16822Y-131150D02*
X-17736Y-131270D01*
X-18587Y-131623D01*
X-19318Y-132184D01*
X-19879Y-132915D01*
X-20232Y-133766D01*
X-20352Y-134680D01*
X-20232Y-135594D01*
X-19879Y-136445D01*
X-19318Y-137176D01*
X-18587Y-137737D01*
X-17736Y-138090D01*
X-16822Y-138210D01*
X-15908Y-138090D01*
X-15057Y-137737D01*
X-14326Y-137176D01*
X-13765Y-136445D01*
X-13412Y-135594D01*
X-13292Y-134680D01*
X-13412Y-133766D01*
X-13765Y-132915D01*
X-14326Y-132184D01*
X-15057Y-131623D01*
X-15908Y-131270D01*
X-16822Y-131150D01*
D02*
G37*
G36*
X-10954Y-143549D02*
X-11998Y-143687D01*
X-12971Y-144090D01*
X-13807Y-144731D01*
X-14448Y-145566D01*
X-14620Y-145983D01*
X-15162D01*
X-15334Y-145566D01*
X-15975Y-144731D01*
X-16811Y-144090D01*
X-17784Y-143687D01*
X-18828Y-143549D01*
X-19872Y-143687D01*
X-20845Y-144090D01*
X-21681Y-144731D01*
X-22322Y-145566D01*
X-22494Y-145983D01*
X-23036D01*
X-23208Y-145566D01*
X-23849Y-144731D01*
X-24685Y-144090D01*
X-25658Y-143687D01*
X-26702Y-143549D01*
X-27746Y-143687D01*
X-28719Y-144090D01*
X-29555Y-144731D01*
X-30196Y-145566D01*
X-30368Y-145983D01*
X-30910D01*
X-31082Y-145566D01*
X-31723Y-144731D01*
X-32559Y-144090D01*
X-33532Y-143687D01*
X-34576Y-143549D01*
X-35620Y-143687D01*
X-36593Y-144090D01*
X-37429Y-144731D01*
X-38070Y-145566D01*
X-38242Y-145983D01*
X-38784D01*
X-38956Y-145566D01*
X-39597Y-144731D01*
X-40433Y-144090D01*
X-41406Y-143687D01*
X-42450Y-143549D01*
X-43494Y-143687D01*
X-44467Y-144090D01*
X-45303Y-144731D01*
X-45944Y-145566D01*
X-46117Y-145983D01*
X-46658D01*
X-46830Y-145566D01*
X-47471Y-144731D01*
X-48307Y-144090D01*
X-49280Y-143687D01*
X-50324Y-143549D01*
X-51368Y-143687D01*
X-52341Y-144090D01*
X-53177Y-144731D01*
X-53818Y-145566D01*
X-54221Y-146540D01*
X-54359Y-147584D01*
X-54221Y-148628D01*
X-53818Y-149601D01*
X-53177Y-150437D01*
X-52341Y-151078D01*
X-51368Y-151481D01*
X-50324Y-151618D01*
X-49280Y-151481D01*
X-48307Y-151078D01*
X-47471Y-150437D01*
X-46830Y-149601D01*
X-46658Y-149185D01*
X-46117D01*
X-45944Y-149601D01*
X-45303Y-150437D01*
X-44467Y-151078D01*
X-43494Y-151481D01*
X-42450Y-151618D01*
X-41406Y-151481D01*
X-40433Y-151078D01*
X-39597Y-150437D01*
X-38956Y-149601D01*
X-38784Y-149185D01*
X-38242D01*
X-38070Y-149601D01*
X-37429Y-150437D01*
X-36593Y-151078D01*
X-35620Y-151481D01*
X-34576Y-151618D01*
X-33532Y-151481D01*
X-32559Y-151078D01*
X-31723Y-150437D01*
X-31082Y-149601D01*
X-30910Y-149185D01*
X-30368D01*
X-30196Y-149601D01*
X-29555Y-150437D01*
X-28719Y-151078D01*
X-27746Y-151481D01*
X-26702Y-151618D01*
X-25658Y-151481D01*
X-24685Y-151078D01*
X-23849Y-150437D01*
X-23208Y-149601D01*
X-23036Y-149185D01*
X-22494D01*
X-22322Y-149601D01*
X-21681Y-150437D01*
X-20845Y-151078D01*
X-19872Y-151481D01*
X-18828Y-151618D01*
X-17784Y-151481D01*
X-16811Y-151078D01*
X-15975Y-150437D01*
X-15334Y-149601D01*
X-15162Y-149185D01*
X-14620D01*
X-14448Y-149601D01*
X-13807Y-150437D01*
X-12971Y-151078D01*
X-11998Y-151481D01*
X-10954Y-151618D01*
X-9910Y-151481D01*
X-8937Y-151078D01*
X-8101Y-150437D01*
X-7460Y-149601D01*
X-7057Y-148628D01*
X-6920Y-147584D01*
X-7057Y-146540D01*
X-7460Y-145566D01*
X-8101Y-144731D01*
X-8937Y-144090D01*
X-9910Y-143687D01*
X-10954Y-143549D01*
D02*
G37*
G36*
X-66072D02*
X-67116Y-143687D01*
X-68089Y-144090D01*
X-68925Y-144731D01*
X-69566Y-145566D01*
X-69739Y-145983D01*
X-70280D01*
X-70452Y-145566D01*
X-71093Y-144731D01*
X-71929Y-144090D01*
X-72902Y-143687D01*
X-73946Y-143549D01*
X-74990Y-143687D01*
X-75963Y-144090D01*
X-76799Y-144731D01*
X-77440Y-145566D01*
X-77613Y-145983D01*
X-78154D01*
X-78326Y-145566D01*
X-78967Y-144731D01*
X-79803Y-144090D01*
X-80776Y-143687D01*
X-81820Y-143549D01*
X-82864Y-143687D01*
X-83837Y-144090D01*
X-84673Y-144731D01*
X-85314Y-145566D01*
X-85717Y-146540D01*
X-85855Y-147584D01*
X-85717Y-148628D01*
X-85314Y-149601D01*
X-84673Y-150437D01*
X-83837Y-151078D01*
X-82864Y-151481D01*
X-81820Y-151618D01*
X-80776Y-151481D01*
X-79803Y-151078D01*
X-78967Y-150437D01*
X-78326Y-149601D01*
X-78154Y-149185D01*
X-77613D01*
X-77440Y-149601D01*
X-76799Y-150437D01*
X-75963Y-151078D01*
X-74990Y-151481D01*
X-73946Y-151618D01*
X-72902Y-151481D01*
X-71929Y-151078D01*
X-71093Y-150437D01*
X-70452Y-149601D01*
X-70280Y-149185D01*
X-69739D01*
X-69566Y-149601D01*
X-68925Y-150437D01*
X-68089Y-151078D01*
X-67116Y-151481D01*
X-66072Y-151618D01*
X-65028Y-151481D01*
X-64055Y-151078D01*
X-63219Y-150437D01*
X-62578Y-149601D01*
X-62175Y-148628D01*
X-62038Y-147584D01*
X-62175Y-146540D01*
X-62578Y-145566D01*
X-63219Y-144731D01*
X-64055Y-144090D01*
X-65028Y-143687D01*
X-66072Y-143549D01*
D02*
G37*
G36*
X153017Y-142681D02*
X152103Y-142801D01*
X151252Y-143153D01*
X150521Y-143714D01*
X149960Y-144446D01*
X149607Y-145297D01*
X149487Y-146211D01*
X149607Y-147124D01*
X149960Y-147976D01*
X150521Y-148707D01*
X151252Y-149268D01*
X152103Y-149621D01*
X153017Y-149741D01*
X153931Y-149621D01*
X154782Y-149268D01*
X155513Y-148707D01*
X156074Y-147976D01*
X156427Y-147124D01*
X156547Y-146211D01*
X156427Y-145297D01*
X156074Y-144446D01*
X155513Y-143714D01*
X154782Y-143153D01*
X153931Y-142801D01*
X153017Y-142681D01*
D02*
G37*
G36*
X271912Y-143397D02*
X270777Y-143546D01*
X269720Y-143984D01*
X268812Y-144681D01*
X268115Y-145589D01*
X267677Y-146646D01*
X267528Y-147781D01*
X267677Y-148915D01*
X268115Y-149973D01*
X268812Y-150881D01*
X269720Y-151577D01*
X270777Y-152015D01*
X271912Y-152165D01*
X273047Y-152015D01*
X274104Y-151577D01*
X275012Y-150881D01*
X275709Y-149973D01*
X276147Y-148915D01*
X276296Y-147781D01*
X276147Y-146646D01*
X275709Y-145589D01*
X275012Y-144681D01*
X274104Y-143984D01*
X273047Y-143546D01*
X271912Y-143397D01*
D02*
G37*
G36*
Y-153239D02*
X270777Y-153389D01*
X269720Y-153827D01*
X268812Y-154523D01*
X268115Y-155431D01*
X267677Y-156489D01*
X267528Y-157623D01*
X267677Y-158758D01*
X268115Y-159815D01*
X268812Y-160723D01*
X269720Y-161420D01*
X270777Y-161858D01*
X271912Y-162007D01*
X273047Y-161858D01*
X274104Y-161420D01*
X275012Y-160723D01*
X275709Y-159815D01*
X276147Y-158758D01*
X276296Y-157623D01*
X276147Y-156489D01*
X275709Y-155431D01*
X275012Y-154523D01*
X274104Y-153827D01*
X273047Y-153389D01*
X271912Y-153239D01*
D02*
G37*
G36*
X243644Y-153041D02*
X242458Y-153197D01*
X241353Y-153655D01*
X240404Y-154383D01*
X239676Y-155332D01*
X239218Y-156437D01*
X239062Y-157623D01*
X239218Y-158809D01*
X239676Y-159915D01*
X240404Y-160864D01*
X241353Y-161592D01*
X242458Y-162050D01*
X243644Y-162206D01*
X244830Y-162050D01*
X245935Y-161592D01*
X246884Y-160864D01*
X247613Y-159915D01*
X248071Y-158809D01*
X248227Y-157623D01*
X248071Y-156437D01*
X247613Y-155332D01*
X246884Y-154383D01*
X245935Y-153655D01*
X244830Y-153197D01*
X243644Y-153041D01*
D02*
G37*
G36*
X-96070Y-178510D02*
X-97205Y-178659D01*
X-98262Y-179097D01*
X-99170Y-179794D01*
X-99867Y-180702D01*
X-100305Y-181759D01*
X-100454Y-182894D01*
X-100305Y-184028D01*
X-99867Y-185086D01*
X-99170Y-185994D01*
X-98262Y-186690D01*
X-97205Y-187128D01*
X-96070Y-187278D01*
X-94935Y-187128D01*
X-93878Y-186690D01*
X-92970Y-185994D01*
X-92273Y-185086D01*
X-91835Y-184028D01*
X-91686Y-182894D01*
X-91835Y-181759D01*
X-92273Y-180702D01*
X-92970Y-179794D01*
X-93878Y-179097D01*
X-94935Y-178659D01*
X-96070Y-178510D01*
D02*
G37*
G36*
X-57960Y-178311D02*
X-59146Y-178467D01*
X-60251Y-178925D01*
X-61200Y-179653D01*
X-61928Y-180602D01*
X-62386Y-181708D01*
X-62542Y-182894D01*
X-62386Y-184080D01*
X-61928Y-185185D01*
X-61200Y-186134D01*
X-60251Y-186862D01*
X-59146Y-187320D01*
X-57960Y-187476D01*
X-56774Y-187320D01*
X-55669Y-186862D01*
X-54720Y-186134D01*
X-53991Y-185185D01*
X-53534Y-184080D01*
X-53377Y-182894D01*
X-53534Y-181708D01*
X-53991Y-180602D01*
X-54720Y-179653D01*
X-55669Y-178925D01*
X-56774Y-178467D01*
X-57960Y-178311D01*
D02*
G37*
G36*
X-67802D02*
X-68988Y-178467D01*
X-70094Y-178925D01*
X-71043Y-179653D01*
X-71771Y-180602D01*
X-72229Y-181708D01*
X-72385Y-182894D01*
X-72229Y-184080D01*
X-71771Y-185185D01*
X-71043Y-186134D01*
X-70094Y-186862D01*
X-68988Y-187320D01*
X-67802Y-187476D01*
X-66616Y-187320D01*
X-65511Y-186862D01*
X-64562Y-186134D01*
X-63834Y-185185D01*
X-63376Y-184080D01*
X-63220Y-182894D01*
X-63376Y-181708D01*
X-63834Y-180602D01*
X-64562Y-179653D01*
X-65511Y-178925D01*
X-66616Y-178467D01*
X-67802Y-178311D01*
D02*
G37*
G36*
X105796Y-183531D02*
X104559Y-183694D01*
X103405Y-184171D01*
X102415Y-184931D01*
X101655Y-185921D01*
X101178Y-187074D01*
X101015Y-188312D01*
X101178Y-189549D01*
X101655Y-190702D01*
X102415Y-191692D01*
X103405Y-192452D01*
X104559Y-192930D01*
X105796Y-193093D01*
X107033Y-192930D01*
X108186Y-192452D01*
X109177Y-191692D01*
X109936Y-190702D01*
X110414Y-189549D01*
X110577Y-188312D01*
X110414Y-187074D01*
X109936Y-185921D01*
X109177Y-184931D01*
X108186Y-184171D01*
X107033Y-183694D01*
X105796Y-183531D01*
D02*
G37*
G36*
X-96070Y-188352D02*
X-97205Y-188502D01*
X-98262Y-188940D01*
X-99170Y-189636D01*
X-99867Y-190544D01*
X-100305Y-191602D01*
X-100454Y-192736D01*
X-100305Y-193871D01*
X-99867Y-194928D01*
X-99170Y-195836D01*
X-98262Y-196533D01*
X-97205Y-196971D01*
X-96070Y-197120D01*
X-94935Y-196971D01*
X-93878Y-196533D01*
X-92970Y-195836D01*
X-92273Y-194928D01*
X-91835Y-193871D01*
X-91686Y-192736D01*
X-91835Y-191602D01*
X-92273Y-190544D01*
X-92970Y-189636D01*
X-93878Y-188940D01*
X-94935Y-188502D01*
X-96070Y-188352D01*
D02*
G37*
G36*
X-53417Y-188193D02*
X-62503D01*
Y-197280D01*
X-53417D01*
Y-188193D01*
D02*
G37*
G36*
X64064Y-189247D02*
X62710Y-189380D01*
X61408Y-189775D01*
X60209Y-190416D01*
X59157Y-191279D01*
X58294Y-192331D01*
X57653Y-193530D01*
X57258Y-194832D01*
X57125Y-196186D01*
X57258Y-197539D01*
X57653Y-198841D01*
X58294Y-200041D01*
X59157Y-201092D01*
X60209Y-201955D01*
X61408Y-202596D01*
X62710Y-202991D01*
X64064Y-203125D01*
X65417Y-202991D01*
X66719Y-202596D01*
X67919Y-201955D01*
X68970Y-201092D01*
X69833Y-200041D01*
X70474Y-198841D01*
X70869Y-197539D01*
X71003Y-196186D01*
X70869Y-194832D01*
X70474Y-193530D01*
X69833Y-192331D01*
X68970Y-191279D01*
X67919Y-190416D01*
X66719Y-189775D01*
X65417Y-189380D01*
X64064Y-189247D01*
D02*
G37*
G36*
X115638Y-193184D02*
X114285Y-193317D01*
X112983Y-193712D01*
X111784Y-194353D01*
X110732Y-195216D01*
X109869Y-196268D01*
X109228Y-197467D01*
X108833Y-198769D01*
X108700Y-200123D01*
X108833Y-201476D01*
X109228Y-202778D01*
X109869Y-203978D01*
X110732Y-205029D01*
X111784Y-205892D01*
X112983Y-206533D01*
X114285Y-206928D01*
X115638Y-207062D01*
X116992Y-206928D01*
X118294Y-206533D01*
X119494Y-205892D01*
X120545Y-205029D01*
X121408Y-203978D01*
X122049Y-202778D01*
X122444Y-201476D01*
X122578Y-200123D01*
X122444Y-198769D01*
X122049Y-197467D01*
X121408Y-196268D01*
X120545Y-195216D01*
X119494Y-194353D01*
X118294Y-193712D01*
X116992Y-193317D01*
X115638Y-193184D01*
D02*
G37*
G36*
X167869Y-200925D02*
X162132D01*
X161671Y-201016D01*
X161279Y-201278D01*
X161018Y-201669D01*
X160926Y-202131D01*
Y-207867D01*
X161018Y-208329D01*
X161279Y-208720D01*
X161671Y-208982D01*
X162132Y-209073D01*
X167869D01*
X168330Y-208982D01*
X168722Y-208720D01*
X168983Y-208329D01*
X169075Y-207867D01*
Y-202131D01*
X168983Y-201669D01*
X168722Y-201278D01*
X168330Y-201016D01*
X167869Y-200925D01*
D02*
G37*
G36*
X-2131D02*
X-7868D01*
X-8329Y-201016D01*
X-8721Y-201278D01*
X-8982Y-201669D01*
X-9074Y-202131D01*
Y-207867D01*
X-8982Y-208329D01*
X-8721Y-208720D01*
X-8329Y-208982D01*
X-7868Y-209073D01*
X-2131D01*
X-1670Y-208982D01*
X-1278Y-208720D01*
X-1017Y-208329D01*
X-925Y-207867D01*
Y-202131D01*
X-1017Y-201669D01*
X-1278Y-201278D01*
X-1670Y-201016D01*
X-2131Y-200925D01*
D02*
G37*
G36*
X175001Y-200913D02*
X173943Y-201052D01*
X172958Y-201460D01*
X172111Y-202110D01*
X171462Y-202956D01*
X171054Y-203941D01*
X170914Y-204999D01*
X171054Y-206057D01*
X171462Y-207042D01*
X172111Y-207888D01*
X172958Y-208538D01*
X173943Y-208946D01*
X175001Y-209085D01*
X176058Y-208946D01*
X177044Y-208538D01*
X177890Y-207888D01*
X178539Y-207042D01*
X178947Y-206057D01*
X179087Y-204999D01*
X178947Y-203941D01*
X178539Y-202956D01*
X177890Y-202110D01*
X177044Y-201460D01*
X176058Y-201052D01*
X175001Y-200913D01*
D02*
G37*
G36*
X5001D02*
X3943Y-201052D01*
X2957Y-201460D01*
X2111Y-202110D01*
X1462Y-202956D01*
X1054Y-203941D01*
X914Y-204999D01*
X1054Y-206057D01*
X1462Y-207042D01*
X2111Y-207888D01*
X2957Y-208538D01*
X3943Y-208946D01*
X5001Y-209085D01*
X6058Y-208946D01*
X7044Y-208538D01*
X7890Y-207888D01*
X8539Y-207042D01*
X8947Y-206057D01*
X9087Y-204999D01*
X8947Y-203941D01*
X8539Y-202956D01*
X7890Y-202110D01*
X7044Y-201460D01*
X6058Y-201052D01*
X5001Y-200913D01*
D02*
G37*
G36*
X175001Y-210913D02*
X173943Y-211052D01*
X172958Y-211460D01*
X172111Y-212110D01*
X171462Y-212956D01*
X171054Y-213942D01*
X170914Y-214999D01*
X171054Y-216057D01*
X171462Y-217042D01*
X172111Y-217888D01*
X172958Y-218538D01*
X173943Y-218946D01*
X175001Y-219085D01*
X176058Y-218946D01*
X177044Y-218538D01*
X177890Y-217888D01*
X178539Y-217042D01*
X178947Y-216057D01*
X179087Y-214999D01*
X178947Y-213942D01*
X178539Y-212956D01*
X177890Y-212110D01*
X177044Y-211460D01*
X176058Y-211052D01*
X175001Y-210913D01*
D02*
G37*
G36*
X165000D02*
X163943Y-211052D01*
X162958Y-211460D01*
X162111Y-212110D01*
X161462Y-212956D01*
X161054Y-213942D01*
X160914Y-214999D01*
X161054Y-216057D01*
X161462Y-217042D01*
X162111Y-217888D01*
X162958Y-218538D01*
X163943Y-218946D01*
X165000Y-219085D01*
X166058Y-218946D01*
X167044Y-218538D01*
X167890Y-217888D01*
X168539Y-217042D01*
X168948Y-216057D01*
X169087Y-214999D01*
X168948Y-213942D01*
X168539Y-212956D01*
X167890Y-212110D01*
X167044Y-211460D01*
X166058Y-211052D01*
X165000Y-210913D01*
D02*
G37*
G36*
X-5000D02*
X-6057Y-211052D01*
X-7042Y-211460D01*
X-7889Y-212110D01*
X-8538Y-212956D01*
X-8946Y-213942D01*
X-9086Y-214999D01*
X-8946Y-216057D01*
X-8538Y-217042D01*
X-7889Y-217888D01*
X-7042Y-218538D01*
X-6057Y-218946D01*
X-5000Y-219085D01*
X-3942Y-218946D01*
X-2956Y-218538D01*
X-2110Y-217888D01*
X-1461Y-217042D01*
X-1053Y-216057D01*
X-913Y-214999D01*
X-1053Y-213942D01*
X-1461Y-212956D01*
X-2110Y-212110D01*
X-2956Y-211460D01*
X-3942Y-211052D01*
X-5000Y-210913D01*
D02*
G37*
G36*
X115638Y-208932D02*
X114285Y-209065D01*
X112983Y-209460D01*
X111784Y-210101D01*
X110732Y-210964D01*
X109869Y-212016D01*
X109228Y-213215D01*
X108833Y-214517D01*
X108700Y-215871D01*
X108833Y-217224D01*
X109228Y-218526D01*
X109869Y-219726D01*
X110732Y-220777D01*
X111784Y-221640D01*
X112983Y-222281D01*
X114285Y-222676D01*
X115638Y-222810D01*
X116992Y-222676D01*
X118294Y-222281D01*
X119494Y-221640D01*
X120545Y-220777D01*
X121408Y-219726D01*
X122049Y-218526D01*
X122444Y-217224D01*
X122578Y-215871D01*
X122444Y-214517D01*
X122049Y-213215D01*
X121408Y-212016D01*
X120545Y-210964D01*
X119494Y-210101D01*
X118294Y-209460D01*
X116992Y-209065D01*
X115638Y-208932D01*
D02*
G37*
G36*
X64064Y-212869D02*
X62710Y-213002D01*
X61408Y-213397D01*
X60209Y-214038D01*
X59157Y-214901D01*
X58294Y-215953D01*
X57653Y-217152D01*
X57258Y-218454D01*
X57125Y-219808D01*
X57258Y-221161D01*
X57653Y-222463D01*
X58294Y-223663D01*
X59157Y-224714D01*
X60209Y-225577D01*
X61408Y-226218D01*
X62710Y-226613D01*
X64064Y-226747D01*
X65417Y-226613D01*
X66719Y-226218D01*
X67919Y-225577D01*
X68970Y-224714D01*
X69833Y-223663D01*
X70474Y-222463D01*
X70869Y-221161D01*
X71003Y-219808D01*
X70869Y-218454D01*
X70474Y-217152D01*
X69833Y-215953D01*
X68970Y-214901D01*
X67919Y-214038D01*
X66719Y-213397D01*
X65417Y-213002D01*
X64064Y-212869D01*
D02*
G37*
G36*
X175001Y-220913D02*
X173943Y-221052D01*
X172958Y-221460D01*
X172111Y-222110D01*
X171462Y-222956D01*
X171054Y-223941D01*
X170914Y-224999D01*
X171054Y-226057D01*
X171462Y-227042D01*
X172111Y-227888D01*
X172958Y-228538D01*
X173943Y-228946D01*
X175001Y-229085D01*
X176058Y-228946D01*
X177044Y-228538D01*
X177890Y-227888D01*
X178539Y-227042D01*
X178947Y-226057D01*
X179087Y-224999D01*
X178947Y-223941D01*
X178539Y-222956D01*
X177890Y-222110D01*
X177044Y-221460D01*
X176058Y-221052D01*
X175001Y-220913D01*
D02*
G37*
G36*
X165000D02*
X163943Y-221052D01*
X162958Y-221460D01*
X162111Y-222110D01*
X161462Y-222956D01*
X161054Y-223941D01*
X160914Y-224999D01*
X161054Y-226057D01*
X161462Y-227042D01*
X162111Y-227888D01*
X162958Y-228538D01*
X163943Y-228946D01*
X165000Y-229085D01*
X166058Y-228946D01*
X167044Y-228538D01*
X167890Y-227888D01*
X168539Y-227042D01*
X168948Y-226057D01*
X169087Y-224999D01*
X168948Y-223941D01*
X168539Y-222956D01*
X167890Y-222110D01*
X167044Y-221460D01*
X166058Y-221052D01*
X165000Y-220913D01*
D02*
G37*
G36*
X5001D02*
X3943Y-221052D01*
X2957Y-221460D01*
X2111Y-222110D01*
X1462Y-222956D01*
X1054Y-223941D01*
X914Y-224999D01*
X1054Y-226057D01*
X1462Y-227042D01*
X2111Y-227888D01*
X2957Y-228538D01*
X3943Y-228946D01*
X5001Y-229085D01*
X6058Y-228946D01*
X7044Y-228538D01*
X7890Y-227888D01*
X8539Y-227042D01*
X8947Y-226057D01*
X9087Y-224999D01*
X8947Y-223941D01*
X8539Y-222956D01*
X7890Y-222110D01*
X7044Y-221460D01*
X6058Y-221052D01*
X5001Y-220913D01*
D02*
G37*
G36*
X-5000D02*
X-6057Y-221052D01*
X-7042Y-221460D01*
X-7889Y-222110D01*
X-8538Y-222956D01*
X-8946Y-223941D01*
X-9086Y-224999D01*
X-8946Y-226057D01*
X-8538Y-227042D01*
X-7889Y-227888D01*
X-7042Y-228538D01*
X-6057Y-228946D01*
X-5000Y-229085D01*
X-3942Y-228946D01*
X-2956Y-228538D01*
X-2110Y-227888D01*
X-1461Y-227042D01*
X-1053Y-226057D01*
X-913Y-224999D01*
X-1053Y-223941D01*
X-1461Y-222956D01*
X-2110Y-222110D01*
X-2956Y-221460D01*
X-3942Y-221052D01*
X-5000Y-220913D01*
D02*
G37*
G36*
X-97427Y-220417D02*
X-98561Y-220567D01*
X-99619Y-221005D01*
X-100527Y-221702D01*
X-101223Y-222609D01*
X-101661Y-223667D01*
X-101811Y-224801D01*
X-101661Y-225936D01*
X-101223Y-226993D01*
X-100527Y-227901D01*
X-99619Y-228598D01*
X-98561Y-229036D01*
X-97427Y-229185D01*
X-96292Y-229036D01*
X-95235Y-228598D01*
X-94327Y-227901D01*
X-93630Y-226993D01*
X-93192Y-225936D01*
X-93043Y-224801D01*
X-93192Y-223667D01*
X-93630Y-222609D01*
X-94327Y-221702D01*
X-95235Y-221005D01*
X-96292Y-220567D01*
X-97427Y-220417D01*
D02*
G37*
G36*
X-59316Y-220219D02*
X-60502Y-220375D01*
X-61608Y-220833D01*
X-62557Y-221561D01*
X-63285Y-222510D01*
X-63743Y-223615D01*
X-63899Y-224801D01*
X-63743Y-225988D01*
X-63285Y-227093D01*
X-62557Y-228042D01*
X-61608Y-228770D01*
X-60502Y-229228D01*
X-59316Y-229384D01*
X-58130Y-229228D01*
X-57025Y-228770D01*
X-56076Y-228042D01*
X-55348Y-227093D01*
X-54890Y-225988D01*
X-54734Y-224801D01*
X-54890Y-223615D01*
X-55348Y-222510D01*
X-56076Y-221561D01*
X-57025Y-220833D01*
X-58130Y-220375D01*
X-59316Y-220219D01*
D02*
G37*
G36*
X-69159D02*
X-70345Y-220375D01*
X-71450Y-220833D01*
X-72399Y-221561D01*
X-73128Y-222510D01*
X-73585Y-223615D01*
X-73742Y-224801D01*
X-73585Y-225988D01*
X-73128Y-227093D01*
X-72399Y-228042D01*
X-71450Y-228770D01*
X-70345Y-229228D01*
X-69159Y-229384D01*
X-67973Y-229228D01*
X-66868Y-228770D01*
X-65919Y-228042D01*
X-65190Y-227093D01*
X-64733Y-225988D01*
X-64577Y-224801D01*
X-64733Y-223615D01*
X-65190Y-222510D01*
X-65919Y-221561D01*
X-66868Y-220833D01*
X-67973Y-220375D01*
X-69159Y-220219D01*
D02*
G37*
G36*
X105796Y-222901D02*
X104559Y-223063D01*
X103405Y-223541D01*
X102415Y-224301D01*
X101655Y-225291D01*
X101178Y-226444D01*
X101015Y-227682D01*
X101178Y-228919D01*
X101655Y-230072D01*
X102415Y-231062D01*
X103405Y-231822D01*
X104559Y-232300D01*
X105796Y-232463D01*
X107033Y-232300D01*
X108186Y-231822D01*
X109177Y-231062D01*
X109936Y-230072D01*
X110414Y-228919D01*
X110577Y-227682D01*
X110414Y-226444D01*
X109936Y-225291D01*
X109177Y-224301D01*
X108186Y-223541D01*
X107033Y-223063D01*
X105796Y-222901D01*
D02*
G37*
G36*
X175001Y-230913D02*
X173943Y-231052D01*
X172958Y-231460D01*
X172111Y-232110D01*
X171462Y-232956D01*
X171054Y-233942D01*
X170914Y-234999D01*
X171054Y-236057D01*
X171462Y-237042D01*
X172111Y-237888D01*
X172958Y-238538D01*
X173943Y-238946D01*
X175001Y-239085D01*
X176058Y-238946D01*
X177044Y-238538D01*
X177890Y-237888D01*
X178539Y-237042D01*
X178947Y-236057D01*
X179087Y-234999D01*
X178947Y-233942D01*
X178539Y-232956D01*
X177890Y-232110D01*
X177044Y-231460D01*
X176058Y-231052D01*
X175001Y-230913D01*
D02*
G37*
G36*
X165000D02*
X163943Y-231052D01*
X162958Y-231460D01*
X162111Y-232110D01*
X161462Y-232956D01*
X161054Y-233942D01*
X160914Y-234999D01*
X161054Y-236057D01*
X161462Y-237042D01*
X162111Y-237888D01*
X162958Y-238538D01*
X163943Y-238946D01*
X165000Y-239085D01*
X166058Y-238946D01*
X167044Y-238538D01*
X167890Y-237888D01*
X168539Y-237042D01*
X168948Y-236057D01*
X169087Y-234999D01*
X168948Y-233942D01*
X168539Y-232956D01*
X167890Y-232110D01*
X167044Y-231460D01*
X166058Y-231052D01*
X165000Y-230913D01*
D02*
G37*
G36*
X5001D02*
X3943Y-231052D01*
X2957Y-231460D01*
X2111Y-232110D01*
X1462Y-232956D01*
X1054Y-233942D01*
X914Y-234999D01*
X1054Y-236057D01*
X1462Y-237042D01*
X2111Y-237888D01*
X2957Y-238538D01*
X3943Y-238946D01*
X5001Y-239085D01*
X6058Y-238946D01*
X7044Y-238538D01*
X7890Y-237888D01*
X8539Y-237042D01*
X8947Y-236057D01*
X9087Y-234999D01*
X8947Y-233942D01*
X8539Y-232956D01*
X7890Y-232110D01*
X7044Y-231460D01*
X6058Y-231052D01*
X5001Y-230913D01*
D02*
G37*
G36*
X-5000D02*
X-6057Y-231052D01*
X-7042Y-231460D01*
X-7889Y-232110D01*
X-8538Y-232956D01*
X-8946Y-233942D01*
X-9086Y-234999D01*
X-8946Y-236057D01*
X-8538Y-237042D01*
X-7889Y-237888D01*
X-7042Y-238538D01*
X-6057Y-238946D01*
X-5000Y-239085D01*
X-3942Y-238946D01*
X-2956Y-238538D01*
X-2110Y-237888D01*
X-1461Y-237042D01*
X-1053Y-236057D01*
X-913Y-234999D01*
X-1053Y-233942D01*
X-1461Y-232956D01*
X-2110Y-232110D01*
X-2956Y-231460D01*
X-3942Y-231052D01*
X-5000Y-230913D01*
D02*
G37*
G36*
X-59316Y-230062D02*
X-60502Y-230218D01*
X-61608Y-230675D01*
X-62557Y-231404D01*
X-63285Y-232353D01*
X-63743Y-233458D01*
X-63899Y-234644D01*
X-63743Y-235830D01*
X-63285Y-236935D01*
X-62557Y-237884D01*
X-61608Y-238613D01*
X-60502Y-239070D01*
X-59316Y-239227D01*
X-58130Y-239070D01*
X-57025Y-238613D01*
X-56076Y-237884D01*
X-55348Y-236935D01*
X-54890Y-235830D01*
X-54734Y-234644D01*
X-54890Y-233458D01*
X-55348Y-232353D01*
X-56076Y-231404D01*
X-57025Y-230675D01*
X-58130Y-230218D01*
X-59316Y-230062D01*
D02*
G37*
G36*
Y-239904D02*
X-60502Y-240060D01*
X-61608Y-240518D01*
X-62557Y-241246D01*
X-63285Y-242195D01*
X-63743Y-243300D01*
X-63899Y-244486D01*
X-63743Y-245672D01*
X-63285Y-246778D01*
X-62557Y-247727D01*
X-61608Y-248455D01*
X-60502Y-248913D01*
X-59316Y-249069D01*
X-58130Y-248913D01*
X-57025Y-248455D01*
X-56076Y-247727D01*
X-55348Y-246778D01*
X-55237Y-246510D01*
X-35972D01*
X-35609Y-246983D01*
X-34877Y-247544D01*
X-34026Y-247896D01*
X-33112Y-248017D01*
X-32199Y-247896D01*
X-31347Y-247544D01*
X-30616Y-246983D01*
X-30055Y-246252D01*
X-29702Y-245400D01*
X-29582Y-244486D01*
X-29702Y-243573D01*
X-30055Y-242721D01*
X-30616Y-241990D01*
X-31347Y-241429D01*
X-32199Y-241077D01*
X-33112Y-240956D01*
X-34026Y-241077D01*
X-34877Y-241429D01*
X-35609Y-241990D01*
X-35972Y-242463D01*
X-55237D01*
X-55348Y-242195D01*
X-56076Y-241246D01*
X-57025Y-240518D01*
X-58130Y-240060D01*
X-59316Y-239904D01*
D02*
G37*
G36*
X-69159D02*
X-70345Y-240060D01*
X-71450Y-240518D01*
X-72399Y-241246D01*
X-73128Y-242195D01*
X-73585Y-243300D01*
X-73742Y-244486D01*
X-73585Y-245672D01*
X-73128Y-246778D01*
X-72399Y-247727D01*
X-71450Y-248455D01*
X-70345Y-248913D01*
X-69159Y-249069D01*
X-67973Y-248913D01*
X-66868Y-248455D01*
X-65919Y-247727D01*
X-65190Y-246778D01*
X-64733Y-245672D01*
X-64577Y-244486D01*
X-64733Y-243300D01*
X-65190Y-242195D01*
X-65919Y-241246D01*
X-66868Y-240518D01*
X-67973Y-240060D01*
X-69159Y-239904D01*
D02*
G37*
G36*
X175001Y-240913D02*
X173943Y-241052D01*
X172958Y-241460D01*
X172111Y-242110D01*
X171462Y-242956D01*
X171054Y-243941D01*
X170914Y-244999D01*
X171054Y-246057D01*
X171462Y-247042D01*
X172111Y-247888D01*
X172958Y-248538D01*
X173943Y-248946D01*
X175001Y-249085D01*
X176058Y-248946D01*
X177044Y-248538D01*
X177890Y-247888D01*
X178539Y-247042D01*
X178947Y-246057D01*
X179087Y-244999D01*
X178947Y-243941D01*
X178539Y-242956D01*
X177890Y-242110D01*
X177044Y-241460D01*
X176058Y-241052D01*
X175001Y-240913D01*
D02*
G37*
G36*
X165000D02*
X163943Y-241052D01*
X162958Y-241460D01*
X162111Y-242110D01*
X161462Y-242956D01*
X161054Y-243941D01*
X160914Y-244999D01*
X161054Y-246057D01*
X161266Y-246570D01*
X113618Y-294219D01*
X70512D01*
X69927Y-294335D01*
X69773Y-294438D01*
X69457Y-294307D01*
X68543Y-294186D01*
X67630Y-294307D01*
X66778Y-294659D01*
X66047Y-295220D01*
X65486Y-295951D01*
X65133Y-296803D01*
X65013Y-297716D01*
X65133Y-298630D01*
X65486Y-299482D01*
X66047Y-300213D01*
X66778Y-300774D01*
X67630Y-301127D01*
X68543Y-301247D01*
X69457Y-301127D01*
X70308Y-300774D01*
X71039Y-300213D01*
X71601Y-299482D01*
X71953Y-298630D01*
X72074Y-297716D01*
X72065Y-297653D01*
X72395Y-297277D01*
X114252D01*
X114837Y-297161D01*
X115333Y-296830D01*
X163429Y-248733D01*
X163943Y-248946D01*
X165000Y-249085D01*
X166058Y-248946D01*
X167044Y-248538D01*
X167890Y-247888D01*
X168539Y-247042D01*
X168948Y-246057D01*
X169087Y-244999D01*
X168948Y-243941D01*
X168539Y-242956D01*
X167890Y-242110D01*
X167044Y-241460D01*
X166058Y-241052D01*
X165000Y-240913D01*
D02*
G37*
G36*
X5001D02*
X3943Y-241052D01*
X2957Y-241460D01*
X2111Y-242110D01*
X1462Y-242956D01*
X1054Y-243941D01*
X914Y-244999D01*
X1054Y-246057D01*
X1462Y-247042D01*
X2111Y-247888D01*
X2957Y-248538D01*
X3943Y-248946D01*
X5001Y-249085D01*
X6058Y-248946D01*
X7044Y-248538D01*
X7890Y-247888D01*
X8539Y-247042D01*
X8947Y-246057D01*
X9087Y-244999D01*
X8947Y-243941D01*
X8539Y-242956D01*
X7890Y-242110D01*
X7044Y-241460D01*
X6058Y-241052D01*
X5001Y-240913D01*
D02*
G37*
G36*
X-5000D02*
X-6057Y-241052D01*
X-7042Y-241460D01*
X-7889Y-242110D01*
X-8538Y-242956D01*
X-8546Y-242976D01*
X-23783D01*
X-24557Y-243130D01*
X-25213Y-243568D01*
X-32521Y-250877D01*
X-33112Y-250799D01*
X-34026Y-250919D01*
X-34877Y-251272D01*
X-35609Y-251833D01*
X-36170Y-252564D01*
X-36522Y-253415D01*
X-36643Y-254329D01*
X-36522Y-255243D01*
X-36170Y-256094D01*
X-35609Y-256825D01*
X-34877Y-257386D01*
X-34026Y-257739D01*
X-33112Y-257859D01*
X-32199Y-257739D01*
X-31347Y-257386D01*
X-30616Y-256825D01*
X-30055Y-256094D01*
X-29702Y-255243D01*
X-29582Y-254329D01*
X-29660Y-253738D01*
X-22944Y-247022D01*
X-8546D01*
X-8538Y-247042D01*
X-7889Y-247888D01*
X-7042Y-248538D01*
X-6057Y-248946D01*
X-5000Y-249085D01*
X-3942Y-248946D01*
X-2956Y-248538D01*
X-2110Y-247888D01*
X-1461Y-247042D01*
X-1053Y-246057D01*
X-913Y-244999D01*
X-1053Y-243941D01*
X-1461Y-242956D01*
X-2110Y-242110D01*
X-2956Y-241460D01*
X-3942Y-241052D01*
X-5000Y-240913D01*
D02*
G37*
G36*
X74171Y-240667D02*
X72933Y-240829D01*
X71780Y-241307D01*
X70790Y-242067D01*
X70030Y-243057D01*
X69552Y-244210D01*
X69389Y-245448D01*
X69552Y-246685D01*
X70030Y-247838D01*
X70790Y-248828D01*
X71780Y-249588D01*
X72933Y-250066D01*
X74171Y-250229D01*
X75408Y-250066D01*
X76561Y-249588D01*
X77551Y-248828D01*
X78311Y-247838D01*
X78789Y-246685D01*
X78952Y-245448D01*
X78789Y-244210D01*
X78311Y-243057D01*
X77551Y-242067D01*
X76561Y-241307D01*
X75408Y-240829D01*
X74171Y-240667D01*
D02*
G37*
G36*
X-59316Y-249746D02*
X-60502Y-249903D01*
X-61608Y-250360D01*
X-62557Y-251089D01*
X-63285Y-252038D01*
X-63743Y-253143D01*
X-63899Y-254329D01*
X-63743Y-255515D01*
X-63285Y-256620D01*
X-62557Y-257569D01*
X-61608Y-258298D01*
X-60502Y-258755D01*
X-59316Y-258911D01*
X-58130Y-258755D01*
X-57025Y-258298D01*
X-56076Y-257569D01*
X-55348Y-256620D01*
X-54890Y-255515D01*
X-54734Y-254329D01*
X-54890Y-253143D01*
X-55348Y-252038D01*
X-56076Y-251089D01*
X-57025Y-250360D01*
X-58130Y-249903D01*
X-59316Y-249746D01*
D02*
G37*
G36*
X-69159D02*
X-70345Y-249903D01*
X-71450Y-250360D01*
X-72399Y-251089D01*
X-73128Y-252038D01*
X-73585Y-253143D01*
X-73742Y-254329D01*
X-73585Y-255515D01*
X-73128Y-256620D01*
X-72399Y-257569D01*
X-71450Y-258298D01*
X-70345Y-258755D01*
X-69159Y-258911D01*
X-67973Y-258755D01*
X-66868Y-258298D01*
X-65919Y-257569D01*
X-65190Y-256620D01*
X-64733Y-255515D01*
X-64577Y-254329D01*
X-64733Y-253143D01*
X-65190Y-252038D01*
X-65919Y-251089D01*
X-66868Y-250360D01*
X-67973Y-249903D01*
X-69159Y-249746D01*
D02*
G37*
G36*
X175001Y-250913D02*
X173943Y-251052D01*
X172958Y-251460D01*
X172111Y-252110D01*
X171462Y-252956D01*
X171054Y-253941D01*
X170914Y-254999D01*
X171054Y-256057D01*
X171462Y-257042D01*
X172111Y-257888D01*
X172958Y-258538D01*
X173943Y-258946D01*
X175001Y-259085D01*
X176058Y-258946D01*
X177044Y-258538D01*
X177890Y-257888D01*
X178539Y-257042D01*
X178947Y-256057D01*
X179087Y-254999D01*
X178947Y-253941D01*
X178539Y-252956D01*
X177890Y-252110D01*
X177044Y-251460D01*
X176058Y-251052D01*
X175001Y-250913D01*
D02*
G37*
G36*
X165000D02*
X163943Y-251052D01*
X162958Y-251460D01*
X162111Y-252110D01*
X161462Y-252956D01*
X161054Y-253941D01*
X160914Y-254999D01*
X161054Y-256057D01*
X161266Y-256570D01*
X125065Y-292772D01*
X124733Y-293268D01*
X124617Y-293853D01*
Y-390271D01*
X124733Y-390856D01*
X125065Y-391353D01*
X129626Y-395914D01*
X129311Y-396676D01*
X129154Y-397862D01*
X129311Y-399048D01*
X129768Y-400153D01*
X130497Y-401102D01*
X131446Y-401830D01*
X132551Y-402288D01*
X133737Y-402444D01*
X134923Y-402288D01*
X136028Y-401830D01*
X136977Y-401102D01*
X137706Y-400153D01*
X138163Y-399048D01*
X138319Y-397862D01*
X138163Y-396676D01*
X137706Y-395571D01*
X136977Y-394622D01*
X136028Y-393893D01*
X134923Y-393436D01*
X133737Y-393279D01*
X132551Y-393436D01*
X131789Y-393751D01*
X127675Y-389637D01*
Y-294487D01*
X163429Y-258733D01*
X163943Y-258946D01*
X165000Y-259085D01*
X166058Y-258946D01*
X167044Y-258538D01*
X167890Y-257888D01*
X168539Y-257042D01*
X168948Y-256057D01*
X169087Y-254999D01*
X168948Y-253941D01*
X168539Y-252956D01*
X167890Y-252110D01*
X167044Y-251460D01*
X166058Y-251052D01*
X165000Y-250913D01*
D02*
G37*
G36*
X5001D02*
X3943Y-251052D01*
X2957Y-251460D01*
X2111Y-252110D01*
X1462Y-252956D01*
X1054Y-253941D01*
X914Y-254999D01*
X1054Y-256057D01*
X1462Y-257042D01*
X2111Y-257888D01*
X2957Y-258538D01*
X3943Y-258946D01*
X5001Y-259085D01*
X6058Y-258946D01*
X7044Y-258538D01*
X7890Y-257888D01*
X8539Y-257042D01*
X8947Y-256057D01*
X9087Y-254999D01*
X8947Y-253941D01*
X8539Y-252956D01*
X7890Y-252110D01*
X7044Y-251460D01*
X6058Y-251052D01*
X5001Y-250913D01*
D02*
G37*
G36*
X-5000D02*
X-6057Y-251052D01*
X-7042Y-251460D01*
X-7889Y-252110D01*
X-8538Y-252956D01*
X-8946Y-253941D01*
X-9086Y-254999D01*
X-8946Y-256057D01*
X-8538Y-257042D01*
X-7889Y-257888D01*
X-7042Y-258538D01*
X-6057Y-258946D01*
X-5000Y-259085D01*
X-3942Y-258946D01*
X-2956Y-258538D01*
X-2110Y-257888D01*
X-1461Y-257042D01*
X-1053Y-256057D01*
X-913Y-254999D01*
X-1053Y-253941D01*
X-1461Y-252956D01*
X-2110Y-252110D01*
X-2956Y-251460D01*
X-3942Y-251052D01*
X-5000Y-250913D01*
D02*
G37*
G36*
X115903Y-246383D02*
X114549Y-246516D01*
X113247Y-246911D01*
X112048Y-247552D01*
X110996Y-248415D01*
X110133Y-249467D01*
X109492Y-250666D01*
X109097Y-251968D01*
X108964Y-253322D01*
X109097Y-254675D01*
X109492Y-255977D01*
X110133Y-257177D01*
X110996Y-258228D01*
X112048Y-259091D01*
X113247Y-259732D01*
X114549Y-260127D01*
X115903Y-260261D01*
X117256Y-260127D01*
X118558Y-259732D01*
X119758Y-259091D01*
X120809Y-258228D01*
X121672Y-257177D01*
X122313Y-255977D01*
X122708Y-254675D01*
X122842Y-253322D01*
X122708Y-251968D01*
X122313Y-250666D01*
X121672Y-249467D01*
X120809Y-248415D01*
X119758Y-247552D01*
X118558Y-246911D01*
X117256Y-246516D01*
X115903Y-246383D01*
D02*
G37*
G36*
X64328Y-250320D02*
X62974Y-250453D01*
X61673Y-250848D01*
X60473Y-251489D01*
X59421Y-252352D01*
X58558Y-253404D01*
X57917Y-254603D01*
X57522Y-255905D01*
X57389Y-257259D01*
X57522Y-258612D01*
X57917Y-259914D01*
X58558Y-261114D01*
X59421Y-262165D01*
X60473Y-263028D01*
X61673Y-263669D01*
X62974Y-264064D01*
X64328Y-264198D01*
X65682Y-264064D01*
X66983Y-263669D01*
X68183Y-263028D01*
X69235Y-262165D01*
X70097Y-261114D01*
X70739Y-259914D01*
X71134Y-258612D01*
X71267Y-257259D01*
X71134Y-255905D01*
X70739Y-254603D01*
X70097Y-253404D01*
X69235Y-252352D01*
X68183Y-251489D01*
X66983Y-250848D01*
X65682Y-250453D01*
X64328Y-250320D01*
D02*
G37*
G36*
X-97427Y-259788D02*
X-98561Y-259937D01*
X-99619Y-260375D01*
X-100527Y-261072D01*
X-101223Y-261980D01*
X-101661Y-263037D01*
X-101811Y-264172D01*
X-101661Y-265306D01*
X-101223Y-266364D01*
X-100527Y-267271D01*
X-99619Y-267968D01*
X-98561Y-268406D01*
X-97427Y-268555D01*
X-96292Y-268406D01*
X-95235Y-267968D01*
X-94327Y-267271D01*
X-93630Y-266364D01*
X-93192Y-265306D01*
X-93043Y-264172D01*
X-93192Y-263037D01*
X-93630Y-261980D01*
X-94327Y-261072D01*
X-95235Y-260375D01*
X-96292Y-259937D01*
X-97427Y-259788D01*
D02*
G37*
G36*
X175001Y-260913D02*
X173943Y-261052D01*
X172958Y-261460D01*
X172111Y-262110D01*
X171462Y-262956D01*
X171054Y-263942D01*
X170914Y-264999D01*
X171054Y-266057D01*
X171462Y-267042D01*
X172111Y-267888D01*
X172958Y-268538D01*
X173943Y-268946D01*
X175001Y-269085D01*
X176058Y-268946D01*
X177044Y-268538D01*
X177890Y-267888D01*
X178539Y-267042D01*
X178947Y-266057D01*
X179087Y-264999D01*
X178947Y-263942D01*
X178539Y-262956D01*
X177890Y-262110D01*
X177044Y-261460D01*
X176058Y-261052D01*
X175001Y-260913D01*
D02*
G37*
G36*
X165000D02*
X163943Y-261052D01*
X162958Y-261460D01*
X162111Y-262110D01*
X161462Y-262956D01*
X161054Y-263942D01*
X160914Y-264999D01*
X161054Y-266057D01*
X161462Y-267042D01*
X162111Y-267888D01*
X162958Y-268538D01*
X163943Y-268946D01*
X165000Y-269085D01*
X166058Y-268946D01*
X167044Y-268538D01*
X167890Y-267888D01*
X168539Y-267042D01*
X168948Y-266057D01*
X169087Y-264999D01*
X168948Y-263942D01*
X168539Y-262956D01*
X167890Y-262110D01*
X167044Y-261460D01*
X166058Y-261052D01*
X165000Y-260913D01*
D02*
G37*
G36*
X5001D02*
X3943Y-261052D01*
X2957Y-261460D01*
X2111Y-262110D01*
X1462Y-262956D01*
X1054Y-263942D01*
X914Y-264999D01*
X1054Y-266057D01*
X1462Y-267042D01*
X2111Y-267888D01*
X2957Y-268538D01*
X3943Y-268946D01*
X5001Y-269085D01*
X6058Y-268946D01*
X7044Y-268538D01*
X7890Y-267888D01*
X8539Y-267042D01*
X8947Y-266057D01*
X9087Y-264999D01*
X8947Y-263942D01*
X8539Y-262956D01*
X7890Y-262110D01*
X7044Y-261460D01*
X6058Y-261052D01*
X5001Y-260913D01*
D02*
G37*
G36*
X-5000D02*
X-6057Y-261052D01*
X-7042Y-261460D01*
X-7889Y-262110D01*
X-8538Y-262956D01*
X-8946Y-263942D01*
X-9086Y-264999D01*
X-8946Y-266057D01*
X-8538Y-267042D01*
X-7889Y-267888D01*
X-7042Y-268538D01*
X-6057Y-268946D01*
X-5000Y-269085D01*
X-3942Y-268946D01*
X-2956Y-268538D01*
X-2110Y-267888D01*
X-1461Y-267042D01*
X-1053Y-266057D01*
X-913Y-264999D01*
X-1053Y-263942D01*
X-1461Y-262956D01*
X-2110Y-262110D01*
X-2956Y-261460D01*
X-3942Y-261052D01*
X-5000Y-260913D01*
D02*
G37*
G36*
X175001Y-270913D02*
X173943Y-271052D01*
X172958Y-271460D01*
X172111Y-272110D01*
X171462Y-272956D01*
X171054Y-273941D01*
X170914Y-274999D01*
X171054Y-276057D01*
X171462Y-277042D01*
X172111Y-277888D01*
X172958Y-278538D01*
X173943Y-278946D01*
X175001Y-279085D01*
X176058Y-278946D01*
X177044Y-278538D01*
X177890Y-277888D01*
X178539Y-277042D01*
X178947Y-276057D01*
X179087Y-274999D01*
X178947Y-273941D01*
X178539Y-272956D01*
X177890Y-272110D01*
X177044Y-271460D01*
X176058Y-271052D01*
X175001Y-270913D01*
D02*
G37*
G36*
X165000D02*
X163943Y-271052D01*
X162958Y-271460D01*
X162111Y-272110D01*
X161462Y-272956D01*
X161054Y-273941D01*
X160914Y-274999D01*
X161054Y-276057D01*
X161462Y-277042D01*
X162111Y-277888D01*
X162958Y-278538D01*
X163943Y-278946D01*
X165000Y-279085D01*
X166058Y-278946D01*
X167044Y-278538D01*
X167890Y-277888D01*
X168539Y-277042D01*
X168948Y-276057D01*
X169087Y-274999D01*
X168948Y-273941D01*
X168539Y-272956D01*
X167890Y-272110D01*
X167044Y-271460D01*
X166058Y-271052D01*
X165000Y-270913D01*
D02*
G37*
G36*
X5001D02*
X3943Y-271052D01*
X2957Y-271460D01*
X2111Y-272110D01*
X1462Y-272956D01*
X1054Y-273941D01*
X914Y-274999D01*
X1054Y-276057D01*
X1462Y-277042D01*
X2111Y-277888D01*
X2957Y-278538D01*
X3943Y-278946D01*
X5001Y-279085D01*
X6058Y-278946D01*
X7044Y-278538D01*
X7890Y-277888D01*
X8539Y-277042D01*
X8947Y-276057D01*
X9087Y-274999D01*
X8947Y-273941D01*
X8539Y-272956D01*
X7890Y-272110D01*
X7044Y-271460D01*
X6058Y-271052D01*
X5001Y-270913D01*
D02*
G37*
G36*
X-5000D02*
X-6057Y-271052D01*
X-7042Y-271460D01*
X-7889Y-272110D01*
X-8538Y-272956D01*
X-8946Y-273941D01*
X-9086Y-274999D01*
X-8946Y-276057D01*
X-8538Y-277042D01*
X-7889Y-277888D01*
X-7042Y-278538D01*
X-6057Y-278946D01*
X-5000Y-279085D01*
X-3942Y-278946D01*
X-2956Y-278538D01*
X-2110Y-277888D01*
X-1461Y-277042D01*
X-1053Y-276057D01*
X-913Y-274999D01*
X-1053Y-273941D01*
X-1461Y-272956D01*
X-2110Y-272110D01*
X-2956Y-271460D01*
X-3942Y-271052D01*
X-5000Y-270913D01*
D02*
G37*
G36*
X64328Y-266068D02*
X62974Y-266201D01*
X61673Y-266596D01*
X60473Y-267237D01*
X59421Y-268100D01*
X58558Y-269152D01*
X57917Y-270351D01*
X57522Y-271653D01*
X57389Y-273007D01*
X57522Y-274360D01*
X57917Y-275662D01*
X58558Y-276862D01*
X59421Y-277913D01*
X60473Y-278776D01*
X61673Y-279417D01*
X62974Y-279812D01*
X64328Y-279946D01*
X65682Y-279812D01*
X66983Y-279417D01*
X68183Y-278776D01*
X69235Y-277913D01*
X70097Y-276862D01*
X70739Y-275662D01*
X71134Y-274360D01*
X71267Y-273007D01*
X71134Y-271653D01*
X70739Y-270351D01*
X70097Y-269152D01*
X69235Y-268100D01*
X68183Y-267237D01*
X66983Y-266596D01*
X65682Y-266201D01*
X64328Y-266068D01*
D02*
G37*
G36*
X115903Y-270005D02*
X114549Y-270138D01*
X113247Y-270533D01*
X112048Y-271174D01*
X110996Y-272037D01*
X110133Y-273089D01*
X109492Y-274288D01*
X109097Y-275590D01*
X108964Y-276944D01*
X109097Y-278297D01*
X109492Y-279599D01*
X110133Y-280799D01*
X110996Y-281850D01*
X112048Y-282713D01*
X113247Y-283354D01*
X114549Y-283749D01*
X115903Y-283883D01*
X117256Y-283749D01*
X118558Y-283354D01*
X119758Y-282713D01*
X120809Y-281850D01*
X121672Y-280799D01*
X122313Y-279599D01*
X122708Y-278297D01*
X122842Y-276944D01*
X122708Y-275590D01*
X122313Y-274288D01*
X121672Y-273089D01*
X120809Y-272037D01*
X119758Y-271174D01*
X118558Y-270533D01*
X117256Y-270138D01*
X115903Y-270005D01*
D02*
G37*
G36*
X175001Y-280913D02*
X173943Y-281052D01*
X172958Y-281460D01*
X172111Y-282110D01*
X171462Y-282956D01*
X171054Y-283942D01*
X170914Y-284999D01*
X171054Y-286057D01*
X171462Y-287042D01*
X172111Y-287888D01*
X172958Y-288538D01*
X173943Y-288946D01*
X175001Y-289085D01*
X176058Y-288946D01*
X177044Y-288538D01*
X177890Y-287888D01*
X178539Y-287042D01*
X178947Y-286057D01*
X179087Y-284999D01*
X178947Y-283942D01*
X178539Y-282956D01*
X177890Y-282110D01*
X177044Y-281460D01*
X176058Y-281052D01*
X175001Y-280913D01*
D02*
G37*
G36*
X165000D02*
X163943Y-281052D01*
X162958Y-281460D01*
X162111Y-282110D01*
X161462Y-282956D01*
X161054Y-283942D01*
X160914Y-284999D01*
X161054Y-286057D01*
X161258Y-286549D01*
X142498Y-305309D01*
X142167Y-305805D01*
X142050Y-306391D01*
Y-383735D01*
X141288Y-384051D01*
X140339Y-384779D01*
X139611Y-385728D01*
X139153Y-386833D01*
X138997Y-388019D01*
X139153Y-389205D01*
X139611Y-390311D01*
X140339Y-391260D01*
X141288Y-391988D01*
X142394Y-392446D01*
X143579Y-392602D01*
X144766Y-392446D01*
X145871Y-391988D01*
X146820Y-391260D01*
X147548Y-390311D01*
X148006Y-389205D01*
X148162Y-388019D01*
X148006Y-386833D01*
X147548Y-385728D01*
X146820Y-384779D01*
X145871Y-384051D01*
X145109Y-383735D01*
Y-307024D01*
X163408Y-288724D01*
X163943Y-288946D01*
X165000Y-289085D01*
X166058Y-288946D01*
X167044Y-288538D01*
X167890Y-287888D01*
X168539Y-287042D01*
X168948Y-286057D01*
X169087Y-284999D01*
X168948Y-283942D01*
X168539Y-282956D01*
X167890Y-282110D01*
X167044Y-281460D01*
X166058Y-281052D01*
X165000Y-280913D01*
D02*
G37*
G36*
X5001D02*
X3943Y-281052D01*
X2957Y-281460D01*
X2111Y-282110D01*
X1462Y-282956D01*
X1054Y-283942D01*
X914Y-284999D01*
X1054Y-286057D01*
X1462Y-287042D01*
X2111Y-287888D01*
X2957Y-288538D01*
X3943Y-288946D01*
X5001Y-289085D01*
X6058Y-288946D01*
X7044Y-288538D01*
X7890Y-287888D01*
X8539Y-287042D01*
X8947Y-286057D01*
X9087Y-284999D01*
X8947Y-283942D01*
X8539Y-282956D01*
X7890Y-282110D01*
X7044Y-281460D01*
X6058Y-281052D01*
X5001Y-280913D01*
D02*
G37*
G36*
X-5000D02*
X-6057Y-281052D01*
X-7042Y-281460D01*
X-7889Y-282110D01*
X-8538Y-282956D01*
X-8946Y-283942D01*
X-9086Y-284999D01*
X-8946Y-286057D01*
X-8538Y-287042D01*
X-7889Y-287888D01*
X-7042Y-288538D01*
X-6057Y-288946D01*
X-5000Y-289085D01*
X-3942Y-288946D01*
X-2956Y-288538D01*
X-2110Y-287888D01*
X-1461Y-287042D01*
X-1053Y-286057D01*
X-913Y-284999D01*
X-1053Y-283942D01*
X-1461Y-282956D01*
X-2110Y-282110D01*
X-2956Y-281460D01*
X-3942Y-281052D01*
X-5000Y-280913D01*
D02*
G37*
G36*
X272482Y-280506D02*
X271347Y-280655D01*
X270290Y-281093D01*
X269382Y-281790D01*
X268685Y-282698D01*
X268247Y-283755D01*
X268098Y-284890D01*
X268247Y-286024D01*
X268685Y-287082D01*
X269382Y-287990D01*
X270290Y-288686D01*
X271347Y-289124D01*
X272482Y-289274D01*
X273616Y-289124D01*
X274674Y-288686D01*
X275582Y-287990D01*
X276278Y-287082D01*
X276716Y-286024D01*
X276866Y-284890D01*
X276716Y-283755D01*
X276278Y-282698D01*
X275582Y-281790D01*
X274674Y-281093D01*
X273616Y-280655D01*
X272482Y-280506D01*
D02*
G37*
G36*
X238915Y-280346D02*
X229828D01*
Y-289433D01*
X238915D01*
Y-280346D01*
D02*
G37*
G36*
X244214Y-280307D02*
X243028Y-280463D01*
X241923Y-280921D01*
X240974Y-281649D01*
X240245Y-282598D01*
X239788Y-283704D01*
X239631Y-284890D01*
X239788Y-286076D01*
X240245Y-287181D01*
X240974Y-288130D01*
X241923Y-288858D01*
X243028Y-289316D01*
X244214Y-289472D01*
X245400Y-289316D01*
X246505Y-288858D01*
X247454Y-288130D01*
X248183Y-287181D01*
X248640Y-286076D01*
X248796Y-284890D01*
X248640Y-283704D01*
X248183Y-282598D01*
X247454Y-281649D01*
X246505Y-280921D01*
X245400Y-280463D01*
X244214Y-280307D01*
D02*
G37*
G36*
X74171Y-280037D02*
X72933Y-280200D01*
X71780Y-280677D01*
X70790Y-281437D01*
X70030Y-282427D01*
X69552Y-283580D01*
X69389Y-284818D01*
X69552Y-286055D01*
X70030Y-287208D01*
X70790Y-288198D01*
X71780Y-288958D01*
X72933Y-289436D01*
X74171Y-289599D01*
X75408Y-289436D01*
X76561Y-288958D01*
X77551Y-288198D01*
X78311Y-287208D01*
X78789Y-286055D01*
X78952Y-284818D01*
X78789Y-283580D01*
X78311Y-282427D01*
X77551Y-281437D01*
X76561Y-280677D01*
X75408Y-280200D01*
X74171Y-280037D01*
D02*
G37*
G36*
X175001Y-290913D02*
X173943Y-291052D01*
X172958Y-291460D01*
X172111Y-292110D01*
X171462Y-292956D01*
X171054Y-293941D01*
X170914Y-294999D01*
X171054Y-296057D01*
X171462Y-297042D01*
X172111Y-297888D01*
X172958Y-298538D01*
X173943Y-298946D01*
X175001Y-299085D01*
X176058Y-298946D01*
X177044Y-298538D01*
X177890Y-297888D01*
X178539Y-297042D01*
X178947Y-296057D01*
X179087Y-294999D01*
X178947Y-293941D01*
X178539Y-292956D01*
X177890Y-292110D01*
X177044Y-291460D01*
X176058Y-291052D01*
X175001Y-290913D01*
D02*
G37*
G36*
X165000D02*
X163943Y-291052D01*
X162958Y-291460D01*
X162111Y-292110D01*
X161462Y-292956D01*
X161054Y-293941D01*
X160914Y-294999D01*
X161054Y-296057D01*
X161258Y-296549D01*
X152922Y-304885D01*
X152591Y-305381D01*
X152474Y-305966D01*
Y-383476D01*
X148879D01*
Y-392563D01*
X157965D01*
Y-383476D01*
X155533D01*
Y-306600D01*
X163408Y-298725D01*
X163943Y-298946D01*
X165000Y-299085D01*
X166058Y-298946D01*
X167044Y-298538D01*
X167890Y-297888D01*
X168539Y-297042D01*
X168948Y-296057D01*
X169087Y-294999D01*
X168948Y-293941D01*
X168539Y-292956D01*
X167890Y-292110D01*
X167044Y-291460D01*
X166058Y-291052D01*
X165000Y-290913D01*
D02*
G37*
G36*
X5001D02*
X3943Y-291052D01*
X2957Y-291460D01*
X2111Y-292110D01*
X1462Y-292956D01*
X1054Y-293941D01*
X914Y-294999D01*
X1054Y-296057D01*
X1462Y-297042D01*
X2111Y-297888D01*
X2957Y-298538D01*
X3943Y-298946D01*
X5001Y-299085D01*
X6058Y-298946D01*
X7044Y-298538D01*
X7890Y-297888D01*
X8539Y-297042D01*
X8947Y-296057D01*
X9087Y-294999D01*
X8947Y-293941D01*
X8539Y-292956D01*
X7890Y-292110D01*
X7044Y-291460D01*
X6058Y-291052D01*
X5001Y-290913D01*
D02*
G37*
G36*
X-5000D02*
X-6057Y-291052D01*
X-7042Y-291460D01*
X-7889Y-292110D01*
X-8538Y-292956D01*
X-8946Y-293941D01*
X-9086Y-294999D01*
X-8946Y-296057D01*
X-8538Y-297042D01*
X-7889Y-297888D01*
X-7042Y-298538D01*
X-6057Y-298946D01*
X-5000Y-299085D01*
X-3942Y-298946D01*
X-2956Y-298538D01*
X-2110Y-297888D01*
X-1461Y-297042D01*
X-1053Y-296057D01*
X-913Y-294999D01*
X-1053Y-293941D01*
X-1461Y-292956D01*
X-2110Y-292110D01*
X-2956Y-291460D01*
X-3942Y-291052D01*
X-5000Y-290913D01*
D02*
G37*
G36*
X244214Y-290150D02*
X243028Y-290306D01*
X241923Y-290763D01*
X240974Y-291492D01*
X240245Y-292441D01*
X239788Y-293546D01*
X239631Y-294732D01*
X239788Y-295918D01*
X240245Y-297023D01*
X240974Y-297972D01*
X241923Y-298701D01*
X243028Y-299158D01*
X244214Y-299315D01*
X245400Y-299158D01*
X246505Y-298701D01*
X247454Y-297972D01*
X248183Y-297023D01*
X248640Y-295918D01*
X248796Y-294732D01*
X248640Y-293546D01*
X248183Y-292441D01*
X247454Y-291492D01*
X246505Y-290763D01*
X245400Y-290306D01*
X244214Y-290150D01*
D02*
G37*
G36*
X234371D02*
X233186Y-290306D01*
X232080Y-290763D01*
X231131Y-291492D01*
X230403Y-292441D01*
X229945Y-293546D01*
X229789Y-294732D01*
X229945Y-295918D01*
X230403Y-297023D01*
X231131Y-297972D01*
X232080Y-298701D01*
X233186Y-299158D01*
X234371Y-299315D01*
X235558Y-299158D01*
X236663Y-298701D01*
X237612Y-297972D01*
X238340Y-297023D01*
X238798Y-295918D01*
X238954Y-294732D01*
X238798Y-293546D01*
X238340Y-292441D01*
X237612Y-291492D01*
X236663Y-290763D01*
X235558Y-290306D01*
X234371Y-290150D01*
D02*
G37*
G36*
Y-299992D02*
X233186Y-300148D01*
X232080Y-300606D01*
X231131Y-301334D01*
X230403Y-302283D01*
X229945Y-303389D01*
X229789Y-304575D01*
X229945Y-305761D01*
X230403Y-306866D01*
X231131Y-307815D01*
X232080Y-308543D01*
X233186Y-309001D01*
X234371Y-309157D01*
X235558Y-309001D01*
X236663Y-308543D01*
X237612Y-307815D01*
X238340Y-306866D01*
X238798Y-305761D01*
X238954Y-304575D01*
X238798Y-303389D01*
X238340Y-302283D01*
X237612Y-301334D01*
X236663Y-300606D01*
X235558Y-300148D01*
X234371Y-299992D01*
D02*
G37*
G36*
X-58995Y-309295D02*
X-60233Y-309458D01*
X-61386Y-309936D01*
X-62376Y-310695D01*
X-63136Y-311686D01*
X-63613Y-312839D01*
X-63776Y-314076D01*
X-63613Y-315314D01*
X-63136Y-316467D01*
X-62376Y-317457D01*
X-61386Y-318217D01*
X-60233Y-318694D01*
X-58995Y-318857D01*
X-57758Y-318694D01*
X-56605Y-318217D01*
X-55615Y-317457D01*
X-54855Y-316467D01*
X-54377Y-315314D01*
X-54214Y-314076D01*
X-54377Y-312839D01*
X-54855Y-311686D01*
X-55615Y-310695D01*
X-56605Y-309936D01*
X-57758Y-309458D01*
X-58995Y-309295D01*
D02*
G37*
G36*
X234371Y-309835D02*
X233186Y-309991D01*
X232080Y-310449D01*
X231131Y-311177D01*
X230403Y-312126D01*
X229945Y-313231D01*
X229789Y-314417D01*
X229945Y-315603D01*
X230403Y-316708D01*
X231131Y-317657D01*
X232080Y-318386D01*
X233186Y-318843D01*
X234371Y-319000D01*
X235558Y-318843D01*
X236663Y-318386D01*
X237612Y-317657D01*
X238340Y-316708D01*
X238798Y-315603D01*
X238954Y-314417D01*
X238798Y-313231D01*
X238340Y-312126D01*
X237612Y-311177D01*
X236663Y-310449D01*
X235558Y-309991D01*
X234371Y-309835D01*
D02*
G37*
G36*
X272482Y-319876D02*
X271347Y-320025D01*
X270290Y-320463D01*
X269382Y-321160D01*
X268685Y-322068D01*
X268247Y-323125D01*
X268098Y-324260D01*
X268247Y-325394D01*
X268685Y-326452D01*
X269382Y-327360D01*
X270290Y-328056D01*
X271347Y-328494D01*
X272482Y-328644D01*
X273616Y-328494D01*
X274674Y-328056D01*
X275582Y-327360D01*
X276278Y-326452D01*
X276716Y-325394D01*
X276866Y-324260D01*
X276716Y-323125D01*
X276278Y-322068D01*
X275582Y-321160D01*
X274674Y-320463D01*
X273616Y-320025D01*
X272482Y-319876D01*
D02*
G37*
G36*
X244214Y-319677D02*
X243028Y-319833D01*
X241923Y-320291D01*
X240974Y-321019D01*
X240245Y-321968D01*
X239788Y-323074D01*
X239631Y-324260D01*
X239788Y-325446D01*
X240245Y-326551D01*
X240974Y-327500D01*
X241923Y-328228D01*
X243028Y-328686D01*
X244214Y-328842D01*
X245400Y-328686D01*
X246505Y-328228D01*
X247454Y-327500D01*
X248183Y-326551D01*
X248640Y-325446D01*
X248796Y-324260D01*
X248640Y-323074D01*
X248183Y-321968D01*
X247454Y-321019D01*
X246505Y-320291D01*
X245400Y-319833D01*
X244214Y-319677D01*
D02*
G37*
G36*
X234371D02*
X233186Y-319833D01*
X232080Y-320291D01*
X231131Y-321019D01*
X230403Y-321968D01*
X229945Y-323074D01*
X229789Y-324260D01*
X229945Y-325446D01*
X230403Y-326551D01*
X231131Y-327500D01*
X232080Y-328228D01*
X233186Y-328686D01*
X234371Y-328842D01*
X235558Y-328686D01*
X236663Y-328228D01*
X237612Y-327500D01*
X238340Y-326551D01*
X238798Y-325446D01*
X238954Y-324260D01*
X238798Y-323074D01*
X238340Y-321968D01*
X237612Y-321019D01*
X236663Y-320291D01*
X235558Y-319833D01*
X234371Y-319677D01*
D02*
G37*
G36*
X-100728Y-315011D02*
X-102082Y-315144D01*
X-103383Y-315539D01*
X-104583Y-316181D01*
X-105634Y-317043D01*
X-106497Y-318095D01*
X-107139Y-319295D01*
X-107533Y-320596D01*
X-107667Y-321950D01*
X-107533Y-323304D01*
X-107139Y-324605D01*
X-106497Y-325805D01*
X-105634Y-326857D01*
X-104583Y-327720D01*
X-103383Y-328361D01*
X-102082Y-328756D01*
X-100728Y-328889D01*
X-99374Y-328756D01*
X-98072Y-328361D01*
X-96873Y-327720D01*
X-95821Y-326857D01*
X-94958Y-325805D01*
X-94317Y-324605D01*
X-93922Y-323304D01*
X-93789Y-321950D01*
X-93922Y-320596D01*
X-94317Y-319295D01*
X-94958Y-318095D01*
X-95821Y-317043D01*
X-96873Y-316181D01*
X-98072Y-315539D01*
X-99374Y-315144D01*
X-100728Y-315011D01*
D02*
G37*
G36*
X-49153Y-318948D02*
X-50507Y-319081D01*
X-51808Y-319476D01*
X-53008Y-320118D01*
X-54059Y-320981D01*
X-54922Y-322032D01*
X-55564Y-323232D01*
X-55958Y-324533D01*
X-56092Y-325887D01*
X-55958Y-327241D01*
X-55564Y-328542D01*
X-54922Y-329742D01*
X-54059Y-330794D01*
X-53008Y-331657D01*
X-51808Y-332298D01*
X-50507Y-332693D01*
X-49153Y-332826D01*
X-47799Y-332693D01*
X-46497Y-332298D01*
X-45298Y-331657D01*
X-44246Y-330794D01*
X-43383Y-329742D01*
X-42742Y-328542D01*
X-42347Y-327241D01*
X-42214Y-325887D01*
X-42347Y-324533D01*
X-42742Y-323232D01*
X-43383Y-322032D01*
X-44246Y-320981D01*
X-45298Y-320118D01*
X-46497Y-319476D01*
X-47799Y-319081D01*
X-49153Y-318948D01*
D02*
G37*
G36*
Y-334696D02*
X-50507Y-334829D01*
X-51808Y-335224D01*
X-53008Y-335866D01*
X-54059Y-336729D01*
X-54922Y-337780D01*
X-55564Y-338980D01*
X-55958Y-340281D01*
X-56092Y-341635D01*
X-55958Y-342989D01*
X-55564Y-344290D01*
X-54922Y-345490D01*
X-54059Y-346542D01*
X-53008Y-347405D01*
X-51808Y-348046D01*
X-50507Y-348441D01*
X-49153Y-348574D01*
X-47799Y-348441D01*
X-46497Y-348046D01*
X-45298Y-347405D01*
X-44246Y-346542D01*
X-43383Y-345490D01*
X-42742Y-344290D01*
X-42347Y-342989D01*
X-42214Y-341635D01*
X-42347Y-340281D01*
X-42742Y-338980D01*
X-43383Y-337780D01*
X-44246Y-336729D01*
X-45298Y-335866D01*
X-46497Y-335224D01*
X-47799Y-334829D01*
X-49153Y-334696D01*
D02*
G37*
G36*
X-100728Y-338633D02*
X-102082Y-338767D01*
X-103383Y-339161D01*
X-104583Y-339803D01*
X-105634Y-340666D01*
X-106497Y-341717D01*
X-107139Y-342917D01*
X-107533Y-344218D01*
X-107667Y-345572D01*
X-107533Y-346926D01*
X-107139Y-348228D01*
X-106497Y-349427D01*
X-105634Y-350479D01*
X-104583Y-351342D01*
X-103383Y-351983D01*
X-102082Y-352378D01*
X-100728Y-352511D01*
X-99374Y-352378D01*
X-98072Y-351983D01*
X-96873Y-351342D01*
X-95821Y-350479D01*
X-94958Y-349427D01*
X-94317Y-348228D01*
X-93922Y-346926D01*
X-93789Y-345572D01*
X-93922Y-344218D01*
X-94317Y-342917D01*
X-94958Y-341717D01*
X-95821Y-340666D01*
X-96873Y-339803D01*
X-98072Y-339161D01*
X-99374Y-338767D01*
X-100728Y-338633D01*
D02*
G37*
G36*
X-8382Y-349992D02*
X-9296Y-350112D01*
X-10147Y-350465D01*
X-10878Y-351026D01*
X-11439Y-351757D01*
X-11792Y-352608D01*
X-11912Y-353522D01*
X-11792Y-354436D01*
X-11439Y-355287D01*
X-10878Y-356018D01*
X-10147Y-356579D01*
X-9296Y-356932D01*
X-8382Y-357052D01*
X-7468Y-356932D01*
X-6617Y-356579D01*
X-5886Y-356018D01*
X-5325Y-355287D01*
X-4972Y-354436D01*
X-4852Y-353522D01*
X-4972Y-352608D01*
X-5325Y-351757D01*
X-5886Y-351026D01*
X-6617Y-350465D01*
X-7468Y-350112D01*
X-8382Y-349992D01*
D02*
G37*
G36*
X-58995Y-348665D02*
X-60233Y-348828D01*
X-61386Y-349306D01*
X-62376Y-350065D01*
X-63136Y-351056D01*
X-63613Y-352209D01*
X-63776Y-353446D01*
X-63613Y-354683D01*
X-63136Y-355837D01*
X-62376Y-356827D01*
X-61386Y-357587D01*
X-60233Y-358064D01*
X-58995Y-358227D01*
X-57758Y-358064D01*
X-56605Y-357587D01*
X-55615Y-356827D01*
X-54855Y-355837D01*
X-54377Y-354683D01*
X-54214Y-353446D01*
X-54377Y-352209D01*
X-54855Y-351056D01*
X-55615Y-350065D01*
X-56605Y-349306D01*
X-57758Y-348828D01*
X-58995Y-348665D01*
D02*
G37*
G36*
X133737Y-383437D02*
X132551Y-383593D01*
X131446Y-384051D01*
X130497Y-384779D01*
X129768Y-385728D01*
X129311Y-386833D01*
X129154Y-388019D01*
X129311Y-389205D01*
X129768Y-390311D01*
X130497Y-391260D01*
X131446Y-391988D01*
X132551Y-392446D01*
X133737Y-392602D01*
X134923Y-392446D01*
X136028Y-391988D01*
X136977Y-391260D01*
X137706Y-390311D01*
X138163Y-389205D01*
X138319Y-388019D01*
X138163Y-386833D01*
X137706Y-385728D01*
X136977Y-384779D01*
X136028Y-384051D01*
X134923Y-383593D01*
X133737Y-383437D01*
D02*
G37*
G36*
X69737Y-317929D02*
X68823Y-318049D01*
X67972Y-318402D01*
X67241Y-318963D01*
X66680Y-319694D01*
X66327Y-320546D01*
X66207Y-321459D01*
X66327Y-322373D01*
X66680Y-323224D01*
X67241Y-323956D01*
X67972Y-324517D01*
X68823Y-324869D01*
X69737Y-324990D01*
X70651Y-324869D01*
X70694Y-324851D01*
X115321Y-369478D01*
Y-383526D01*
X112499D01*
Y-392613D01*
X121586D01*
Y-383526D01*
X118765D01*
Y-368765D01*
X118633Y-368106D01*
X118260Y-367547D01*
X73129Y-322416D01*
X73147Y-322373D01*
X73267Y-321459D01*
X73147Y-320546D01*
X72794Y-319694D01*
X72233Y-318963D01*
X71502Y-318402D01*
X70651Y-318049D01*
X69737Y-317929D01*
D02*
G37*
G36*
X107200Y-383487D02*
X106014Y-383643D01*
X104909Y-384101D01*
X103960Y-384829D01*
X103231Y-385778D01*
X102774Y-386883D01*
X102617Y-388070D01*
X102774Y-389255D01*
X103231Y-390361D01*
X103960Y-391310D01*
X104909Y-392038D01*
X106014Y-392496D01*
X107200Y-392652D01*
X108386Y-392496D01*
X109491Y-392038D01*
X110440Y-391310D01*
X111169Y-390361D01*
X111626Y-389255D01*
X111782Y-388070D01*
X111626Y-386883D01*
X111169Y-385778D01*
X110440Y-384829D01*
X109491Y-384101D01*
X108386Y-383643D01*
X107200Y-383487D01*
D02*
G37*
G36*
X188839Y-383664D02*
X179752D01*
Y-392751D01*
X188839D01*
Y-383664D01*
D02*
G37*
G36*
X174453Y-383625D02*
X173267Y-383781D01*
X172162Y-384239D01*
X171213Y-384967D01*
X170485Y-385916D01*
X170027Y-387021D01*
X169871Y-388207D01*
X170027Y-389393D01*
X170485Y-390499D01*
X171213Y-391448D01*
X172162Y-392176D01*
X173267Y-392634D01*
X174453Y-392790D01*
X175639Y-392634D01*
X176744Y-392176D01*
X177693Y-391448D01*
X178422Y-390499D01*
X178879Y-389393D01*
X179036Y-388207D01*
X178879Y-387021D01*
X178422Y-385916D01*
X177693Y-384967D01*
X176744Y-384239D01*
X175639Y-383781D01*
X174453Y-383625D01*
D02*
G37*
G36*
X-36718Y-383830D02*
X-45805D01*
Y-392916D01*
X-36718D01*
Y-383830D01*
D02*
G37*
G36*
X-51104Y-383790D02*
X-52290Y-383946D01*
X-53395Y-384404D01*
X-54344Y-385133D01*
X-55072Y-386082D01*
X-55530Y-387187D01*
X-55686Y-388373D01*
X-55530Y-389559D01*
X-55072Y-390664D01*
X-54344Y-391613D01*
X-53395Y-392341D01*
X-52290Y-392799D01*
X-51104Y-392955D01*
X-49918Y-392799D01*
X-48812Y-392341D01*
X-47863Y-391613D01*
X-47135Y-390664D01*
X-46677Y-389559D01*
X-46521Y-388373D01*
X-46677Y-387187D01*
X-47135Y-386082D01*
X-47863Y-385133D01*
X-48812Y-384404D01*
X-49918Y-383946D01*
X-51104Y-383790D01*
D02*
G37*
G36*
X-60946D02*
X-62132Y-383946D01*
X-63238Y-384404D01*
X-64187Y-385133D01*
X-64915Y-386082D01*
X-65373Y-387187D01*
X-65529Y-388373D01*
X-65373Y-389559D01*
X-64915Y-390664D01*
X-64187Y-391613D01*
X-63238Y-392341D01*
X-62132Y-392799D01*
X-60946Y-392955D01*
X-59760Y-392799D01*
X-58655Y-392341D01*
X-57706Y-391613D01*
X-56978Y-390664D01*
X-56520Y-389559D01*
X-56364Y-388373D01*
X-56520Y-387187D01*
X-56978Y-386082D01*
X-57706Y-385133D01*
X-58655Y-384404D01*
X-59760Y-383946D01*
X-60946Y-383790D01*
D02*
G37*
G36*
X153422Y-393279D02*
X152236Y-393436D01*
X151131Y-393893D01*
X150182Y-394622D01*
X149454Y-395571D01*
X148996Y-396676D01*
X148840Y-397862D01*
X148996Y-399048D01*
X149454Y-400153D01*
X150182Y-401102D01*
X151131Y-401830D01*
X152236Y-402288D01*
X153422Y-402444D01*
X154608Y-402288D01*
X155713Y-401830D01*
X156662Y-401102D01*
X157391Y-400153D01*
X157849Y-399048D01*
X158005Y-397862D01*
X157849Y-396676D01*
X157391Y-395571D01*
X156662Y-394622D01*
X155713Y-393893D01*
X154608Y-393436D01*
X153422Y-393279D01*
D02*
G37*
G36*
X117043Y-393329D02*
X115857Y-393485D01*
X114751Y-393943D01*
X113802Y-394672D01*
X113074Y-395621D01*
X112616Y-396726D01*
X112460Y-397912D01*
X112616Y-399098D01*
X113074Y-400203D01*
X113802Y-401152D01*
X114751Y-401880D01*
X115857Y-402338D01*
X117043Y-402494D01*
X118229Y-402338D01*
X119334Y-401880D01*
X120283Y-401152D01*
X121011Y-400203D01*
X121469Y-399098D01*
X121625Y-397912D01*
X121469Y-396726D01*
X121011Y-395621D01*
X120283Y-394672D01*
X119334Y-393943D01*
X118229Y-393485D01*
X117043Y-393329D01*
D02*
G37*
G36*
X107200D02*
X106014Y-393485D01*
X104909Y-393943D01*
X103960Y-394672D01*
X103231Y-395621D01*
X102774Y-396726D01*
X102617Y-397912D01*
X102774Y-399098D01*
X103231Y-400203D01*
X103960Y-401152D01*
X104909Y-401880D01*
X106014Y-402338D01*
X107200Y-402494D01*
X108386Y-402338D01*
X109491Y-401880D01*
X110440Y-401152D01*
X111169Y-400203D01*
X111626Y-399098D01*
X111782Y-397912D01*
X111626Y-396726D01*
X111169Y-395621D01*
X110440Y-394672D01*
X109491Y-393943D01*
X108386Y-393485D01*
X107200Y-393329D01*
D02*
G37*
G36*
X184296Y-393467D02*
X183110Y-393624D01*
X182004Y-394081D01*
X181055Y-394810D01*
X180327Y-395759D01*
X179869Y-396864D01*
X179713Y-398050D01*
X179869Y-399236D01*
X180327Y-400341D01*
X181055Y-401290D01*
X182004Y-402018D01*
X183110Y-402476D01*
X184296Y-402632D01*
X185482Y-402476D01*
X186587Y-402018D01*
X187536Y-401290D01*
X188264Y-400341D01*
X188722Y-399236D01*
X188878Y-398050D01*
X188722Y-396864D01*
X188264Y-395759D01*
X187536Y-394810D01*
X186587Y-394081D01*
X185482Y-393624D01*
X184296Y-393467D01*
D02*
G37*
G36*
X-41261Y-393633D02*
X-42447Y-393789D01*
X-43553Y-394247D01*
X-44502Y-394975D01*
X-45230Y-395924D01*
X-45688Y-397029D01*
X-45844Y-398215D01*
X-45688Y-399401D01*
X-45230Y-400506D01*
X-44502Y-401456D01*
X-43553Y-402184D01*
X-42447Y-402642D01*
X-41261Y-402798D01*
X-40075Y-402642D01*
X-38970Y-402184D01*
X-38021Y-401456D01*
X-37293Y-400506D01*
X-36835Y-399401D01*
X-36679Y-398215D01*
X-36835Y-397029D01*
X-37293Y-395924D01*
X-38021Y-394975D01*
X-38970Y-394247D01*
X-40075Y-393789D01*
X-41261Y-393633D01*
D02*
G37*
G36*
X153422Y-421746D02*
X152287Y-421895D01*
X151230Y-422333D01*
X150322Y-423030D01*
X149626Y-423938D01*
X149188Y-424995D01*
X149038Y-426130D01*
X149188Y-427264D01*
X149626Y-428322D01*
X150322Y-429230D01*
X151230Y-429926D01*
X152287Y-430364D01*
X153422Y-430514D01*
X154557Y-430364D01*
X155614Y-429926D01*
X156522Y-429230D01*
X157219Y-428322D01*
X157657Y-427264D01*
X157806Y-426130D01*
X157657Y-424995D01*
X157219Y-423938D01*
X156522Y-423030D01*
X155614Y-422333D01*
X154557Y-421895D01*
X153422Y-421746D01*
D02*
G37*
G36*
X133737D02*
X132602Y-421895D01*
X131545Y-422333D01*
X130637Y-423030D01*
X129940Y-423938D01*
X129502Y-424995D01*
X129353Y-426130D01*
X129502Y-427264D01*
X129940Y-428322D01*
X130637Y-429230D01*
X131545Y-429926D01*
X132602Y-430364D01*
X133737Y-430514D01*
X134872Y-430364D01*
X135929Y-429926D01*
X136837Y-429230D01*
X137534Y-428322D01*
X137971Y-427264D01*
X138121Y-426130D01*
X137971Y-424995D01*
X137534Y-423938D01*
X136837Y-423030D01*
X135929Y-422333D01*
X134872Y-421895D01*
X133737Y-421746D01*
D02*
G37*
G36*
X117043Y-421796D02*
X115908Y-421945D01*
X114851Y-422383D01*
X113943Y-423080D01*
X113246Y-423988D01*
X112808Y-425045D01*
X112659Y-426180D01*
X112808Y-427314D01*
X113246Y-428372D01*
X113943Y-429280D01*
X114851Y-429976D01*
X115908Y-430414D01*
X117043Y-430564D01*
X118177Y-430414D01*
X119235Y-429976D01*
X120142Y-429280D01*
X120839Y-428372D01*
X121277Y-427314D01*
X121426Y-426180D01*
X121277Y-425045D01*
X120839Y-423988D01*
X120142Y-423080D01*
X119235Y-422383D01*
X118177Y-421945D01*
X117043Y-421796D01*
D02*
G37*
G36*
X107200D02*
X106065Y-421945D01*
X105008Y-422383D01*
X104100Y-423080D01*
X103403Y-423988D01*
X102965Y-425045D01*
X102816Y-426180D01*
X102965Y-427314D01*
X103403Y-428372D01*
X104100Y-429280D01*
X105008Y-429976D01*
X106065Y-430414D01*
X107200Y-430564D01*
X108335Y-430414D01*
X109392Y-429976D01*
X110300Y-429280D01*
X110997Y-428372D01*
X111434Y-427314D01*
X111584Y-426180D01*
X111434Y-425045D01*
X110997Y-423988D01*
X110300Y-423080D01*
X109392Y-422383D01*
X108335Y-421945D01*
X107200Y-421796D01*
D02*
G37*
G36*
X184296Y-421934D02*
X183161Y-422083D01*
X182104Y-422521D01*
X181196Y-423218D01*
X180499Y-424126D01*
X180061Y-425183D01*
X179912Y-426318D01*
X180061Y-427452D01*
X180499Y-428510D01*
X181196Y-429418D01*
X182104Y-430114D01*
X183161Y-430552D01*
X184296Y-430702D01*
X185430Y-430552D01*
X186488Y-430114D01*
X187396Y-429418D01*
X188092Y-428510D01*
X188530Y-427452D01*
X188680Y-426318D01*
X188530Y-425183D01*
X188092Y-424126D01*
X187396Y-423218D01*
X186488Y-422521D01*
X185430Y-422083D01*
X184296Y-421934D01*
D02*
G37*
G36*
X174453D02*
X173319Y-422083D01*
X172261Y-422521D01*
X171353Y-423218D01*
X170657Y-424126D01*
X170219Y-425183D01*
X170069Y-426318D01*
X170219Y-427452D01*
X170657Y-428510D01*
X171353Y-429418D01*
X172261Y-430114D01*
X173319Y-430552D01*
X174453Y-430702D01*
X175588Y-430552D01*
X176645Y-430114D01*
X177553Y-429418D01*
X178250Y-428510D01*
X178688Y-427452D01*
X178837Y-426318D01*
X178688Y-425183D01*
X178250Y-424126D01*
X177553Y-423218D01*
X176645Y-422521D01*
X175588Y-422083D01*
X174453Y-421934D01*
D02*
G37*
G36*
X-41261Y-422099D02*
X-42396Y-422249D01*
X-43453Y-422686D01*
X-44361Y-423383D01*
X-45058Y-424291D01*
X-45496Y-425348D01*
X-45645Y-426483D01*
X-45496Y-427618D01*
X-45058Y-428675D01*
X-44361Y-429583D01*
X-43453Y-430280D01*
X-42396Y-430718D01*
X-41261Y-430867D01*
X-40127Y-430718D01*
X-39069Y-430280D01*
X-38161Y-429583D01*
X-37465Y-428675D01*
X-37027Y-427618D01*
X-36877Y-426483D01*
X-37027Y-425348D01*
X-37465Y-424291D01*
X-38161Y-423383D01*
X-39069Y-422686D01*
X-40127Y-422249D01*
X-41261Y-422099D01*
D02*
G37*
G36*
X-60946D02*
X-62081Y-422249D01*
X-63138Y-422686D01*
X-64046Y-423383D01*
X-64743Y-424291D01*
X-65181Y-425348D01*
X-65330Y-426483D01*
X-65181Y-427618D01*
X-64743Y-428675D01*
X-64046Y-429583D01*
X-63138Y-430280D01*
X-62081Y-430718D01*
X-60946Y-430867D01*
X-59812Y-430718D01*
X-58754Y-430280D01*
X-57846Y-429583D01*
X-57150Y-428675D01*
X-56712Y-427618D01*
X-56562Y-426483D01*
X-56712Y-425348D01*
X-57150Y-424291D01*
X-57846Y-423383D01*
X-58754Y-422686D01*
X-59812Y-422249D01*
X-60946Y-422099D01*
D02*
G37*
G36*
X274660Y-421244D02*
X273152Y-421393D01*
X271702Y-421833D01*
X270365Y-422547D01*
X269194Y-423509D01*
X268232Y-424680D01*
X267518Y-426017D01*
X267078Y-427467D01*
X266930Y-428975D01*
X267078Y-430483D01*
X267518Y-431933D01*
X268232Y-433269D01*
X269194Y-434441D01*
X270365Y-435402D01*
X271702Y-436116D01*
X273152Y-436556D01*
X274660Y-436705D01*
X276168Y-436556D01*
X277618Y-436116D01*
X278955Y-435402D01*
X280126Y-434441D01*
X281087Y-433269D01*
X281802Y-431933D01*
X282242Y-430483D01*
X282390Y-428975D01*
X282242Y-427467D01*
X281802Y-426017D01*
X281087Y-424680D01*
X280126Y-423509D01*
X278955Y-422547D01*
X277618Y-421833D01*
X276168Y-421393D01*
X274660Y-421244D01*
D02*
G37*
G36*
X-101718D02*
X-103226Y-421393D01*
X-104676Y-421833D01*
X-106013Y-422547D01*
X-107184Y-423509D01*
X-108145Y-424680D01*
X-108860Y-426017D01*
X-109300Y-427467D01*
X-109448Y-428975D01*
X-109300Y-430483D01*
X-108860Y-431933D01*
X-108145Y-433269D01*
X-107184Y-434441D01*
X-106013Y-435402D01*
X-104676Y-436116D01*
X-103226Y-436556D01*
X-101718Y-436705D01*
X-100210Y-436556D01*
X-98760Y-436116D01*
X-97423Y-435402D01*
X-96252Y-434441D01*
X-95291Y-433269D01*
X-94576Y-431933D01*
X-94136Y-430483D01*
X-93988Y-428975D01*
X-94136Y-427467D01*
X-94576Y-426017D01*
X-95291Y-424680D01*
X-96252Y-423509D01*
X-97423Y-422547D01*
X-98760Y-421833D01*
X-100210Y-421393D01*
X-101718Y-421244D01*
D02*
G37*
G36*
X147234Y257549D02*
X145997Y257386D01*
X144844Y256909D01*
X143854Y256149D01*
X143094Y255159D01*
X142616Y254006D01*
X142454Y252768D01*
X142616Y251531D01*
X143094Y250378D01*
X143854Y249388D01*
X144844Y248628D01*
X145997Y248150D01*
X147234Y247987D01*
X148472Y248150D01*
X149625Y248628D01*
X150615Y249388D01*
X151375Y250378D01*
X151853Y251531D01*
X152016Y252768D01*
X151853Y254006D01*
X151375Y255159D01*
X150615Y256149D01*
X149625Y256909D01*
X148472Y257386D01*
X147234Y257549D01*
D02*
G37*
G36*
X253597Y249425D02*
X252462Y249276D01*
X251405Y248838D01*
X250497Y248141D01*
X249800Y247233D01*
X249362Y246176D01*
X249213Y245041D01*
X249362Y243906D01*
X249800Y242849D01*
X250497Y241941D01*
X251405Y241245D01*
X252462Y240807D01*
X253597Y240657D01*
X254732Y240807D01*
X255789Y241245D01*
X256697Y241941D01*
X257394Y242849D01*
X257832Y243906D01*
X257981Y245041D01*
X257832Y246176D01*
X257394Y247233D01*
X256697Y248141D01*
X255789Y248838D01*
X254732Y249276D01*
X253597Y249425D01*
D02*
G37*
G36*
X243754D02*
X242620Y249276D01*
X241562Y248838D01*
X240654Y248141D01*
X239958Y247233D01*
X239520Y246176D01*
X239370Y245041D01*
X239520Y243906D01*
X239958Y242849D01*
X240654Y241941D01*
X241562Y241245D01*
X242620Y240807D01*
X243754Y240657D01*
X244889Y240807D01*
X245946Y241245D01*
X246854Y241941D01*
X247551Y242849D01*
X247989Y243906D01*
X248138Y245041D01*
X247989Y246176D01*
X247551Y247233D01*
X246854Y248141D01*
X245946Y248838D01*
X244889Y249276D01*
X243754Y249425D01*
D02*
G37*
G36*
X274660Y255133D02*
X273152Y254985D01*
X271702Y254545D01*
X270365Y253831D01*
X269194Y252869D01*
X268233Y251698D01*
X267518Y250361D01*
X267078Y248911D01*
X266930Y247403D01*
X267078Y245895D01*
X267518Y244445D01*
X268233Y243109D01*
X269194Y241937D01*
X270365Y240976D01*
X271702Y240262D01*
X273152Y239822D01*
X274660Y239673D01*
X276168Y239822D01*
X277618Y240262D01*
X278955Y240976D01*
X280126Y241937D01*
X281087Y243109D01*
X281802Y244445D01*
X282242Y245895D01*
X282390Y247403D01*
X282242Y248911D01*
X281802Y250361D01*
X281087Y251698D01*
X280126Y252869D01*
X278955Y253831D01*
X277618Y254545D01*
X276168Y254985D01*
X274660Y255133D01*
D02*
G37*
G36*
X-101718D02*
X-103226Y254985D01*
X-104676Y254545D01*
X-106013Y253831D01*
X-107184Y252869D01*
X-108145Y251698D01*
X-108860Y250361D01*
X-109300Y248911D01*
X-109448Y247403D01*
X-109300Y245895D01*
X-108860Y244445D01*
X-108145Y243109D01*
X-107184Y241937D01*
X-106013Y240976D01*
X-104676Y240262D01*
X-103226Y239822D01*
X-101718Y239673D01*
X-100210Y239822D01*
X-98760Y240262D01*
X-97423Y240976D01*
X-96252Y241937D01*
X-95291Y243109D01*
X-94576Y244445D01*
X-94137Y245895D01*
X-93988Y247403D01*
X-94137Y248911D01*
X-94576Y250361D01*
X-95291Y251698D01*
X-96252Y252869D01*
X-97423Y253831D01*
X-98760Y254545D01*
X-100210Y254985D01*
X-101718Y255133D01*
D02*
G37*
G36*
X188967Y251833D02*
X187613Y251700D01*
X186311Y251305D01*
X185112Y250664D01*
X184060Y249801D01*
X183197Y248749D01*
X182556Y247550D01*
X182161Y246248D01*
X182028Y244894D01*
X182161Y243541D01*
X182556Y242239D01*
X183197Y241039D01*
X184060Y239988D01*
X185112Y239125D01*
X186311Y238484D01*
X187613Y238089D01*
X188967Y237955D01*
X190321Y238089D01*
X191622Y238484D01*
X192822Y239125D01*
X193873Y239988D01*
X194736Y241039D01*
X195378Y242239D01*
X195772Y243541D01*
X195906Y244894D01*
X195772Y246248D01*
X195378Y247550D01*
X194736Y248749D01*
X193873Y249801D01*
X192822Y250664D01*
X191622Y251305D01*
X190321Y251700D01*
X188967Y251833D01*
D02*
G37*
G36*
X137392Y247896D02*
X136038Y247763D01*
X134737Y247368D01*
X133537Y246727D01*
X132485Y245864D01*
X131622Y244812D01*
X130981Y243613D01*
X130586Y242311D01*
X130453Y240957D01*
X130586Y239604D01*
X130981Y238302D01*
X131622Y237102D01*
X132485Y236051D01*
X133537Y235188D01*
X134737Y234547D01*
X136038Y234152D01*
X137392Y234018D01*
X138746Y234152D01*
X140047Y234547D01*
X141247Y235188D01*
X142298Y236051D01*
X143161Y237102D01*
X143803Y238302D01*
X144197Y239604D01*
X144331Y240957D01*
X144197Y242311D01*
X143803Y243613D01*
X143161Y244812D01*
X142298Y245864D01*
X141247Y246727D01*
X140047Y247368D01*
X138746Y247763D01*
X137392Y247896D01*
D02*
G37*
G36*
Y232148D02*
X136038Y232015D01*
X134737Y231620D01*
X133537Y230979D01*
X132485Y230116D01*
X131622Y229064D01*
X130981Y227865D01*
X130586Y226563D01*
X130453Y225209D01*
X130586Y223856D01*
X130981Y222554D01*
X131622Y221354D01*
X132485Y220303D01*
X133537Y219440D01*
X134737Y218799D01*
X136038Y218404D01*
X137392Y218270D01*
X138746Y218404D01*
X140047Y218799D01*
X141247Y219440D01*
X142298Y220303D01*
X143161Y221354D01*
X143803Y222554D01*
X144197Y223856D01*
X144331Y225209D01*
X144197Y226563D01*
X143803Y227865D01*
X143161Y229064D01*
X142298Y230116D01*
X141247Y230979D01*
X140047Y231620D01*
X138746Y232015D01*
X137392Y232148D01*
D02*
G37*
G36*
X188967Y228211D02*
X187613Y228078D01*
X186311Y227683D01*
X185112Y227042D01*
X184060Y226179D01*
X183197Y225127D01*
X182556Y223928D01*
X182161Y222626D01*
X182028Y221272D01*
X182161Y219919D01*
X182556Y218617D01*
X183197Y217417D01*
X184060Y216366D01*
X185112Y215503D01*
X186311Y214862D01*
X187613Y214467D01*
X188967Y214333D01*
X190321Y214467D01*
X191622Y214862D01*
X192822Y215503D01*
X193873Y216366D01*
X194736Y217417D01*
X195378Y218617D01*
X195772Y219919D01*
X195906Y221272D01*
X195772Y222626D01*
X195378Y223928D01*
X194736Y225127D01*
X193873Y226179D01*
X192822Y227042D01*
X191622Y227683D01*
X190321Y228078D01*
X188967Y228211D01*
D02*
G37*
G36*
X253597Y221356D02*
X252411Y221200D01*
X251306Y220742D01*
X250357Y220014D01*
X249628Y219065D01*
X249171Y217959D01*
X249014Y216773D01*
X249171Y215587D01*
X249628Y214482D01*
X250357Y213533D01*
X251306Y212805D01*
X252411Y212347D01*
X253597Y212191D01*
X254783Y212347D01*
X255888Y212805D01*
X256837Y213533D01*
X257565Y214482D01*
X258023Y215587D01*
X258179Y216773D01*
X258023Y217959D01*
X257565Y219065D01*
X256837Y220014D01*
X255888Y220742D01*
X254783Y221200D01*
X253597Y221356D01*
D02*
G37*
G36*
X243754D02*
X242568Y221200D01*
X241463Y220742D01*
X240514Y220014D01*
X239786Y219065D01*
X239328Y217959D01*
X239172Y216773D01*
X239328Y215587D01*
X239786Y214482D01*
X240514Y213533D01*
X241463Y212805D01*
X242568Y212347D01*
X243754Y212191D01*
X244940Y212347D01*
X246046Y212805D01*
X246995Y213533D01*
X247723Y214482D01*
X248181Y215587D01*
X248337Y216773D01*
X248181Y217959D01*
X247723Y219065D01*
X246995Y220014D01*
X246046Y220742D01*
X244940Y221200D01*
X243754Y221356D01*
D02*
G37*
G36*
X147234Y218179D02*
X145997Y218017D01*
X144844Y217539D01*
X143854Y216779D01*
X143094Y215789D01*
X142616Y214636D01*
X142454Y213398D01*
X142616Y212161D01*
X143094Y211008D01*
X143854Y210018D01*
X144844Y209258D01*
X145997Y208780D01*
X147234Y208617D01*
X148472Y208780D01*
X149625Y209258D01*
X150615Y210018D01*
X151375Y211008D01*
X151853Y212161D01*
X152016Y213398D01*
X151853Y214636D01*
X151375Y215789D01*
X150615Y216779D01*
X149625Y217539D01*
X148472Y218017D01*
X147234Y218179D01*
D02*
G37*
G36*
X-28671Y206607D02*
X-39332D01*
Y195946D01*
X-28671D01*
Y206607D01*
D02*
G37*
G36*
X-63923Y206653D02*
X-65314Y206470D01*
X-66611Y205933D01*
X-67725Y205078D01*
X-68579Y203965D01*
X-69116Y202668D01*
X-69299Y201276D01*
X-69116Y199885D01*
X-68579Y198588D01*
X-67725Y197474D01*
X-66611Y196620D01*
X-65314Y196083D01*
X-63923Y195900D01*
X-62531Y196083D01*
X-61234Y196620D01*
X-60121Y197474D01*
X-59266Y198588D01*
X-58729Y199885D01*
X-58546Y201276D01*
X-58729Y202668D01*
X-59266Y203965D01*
X-60121Y205078D01*
X-61234Y205933D01*
X-62531Y206470D01*
X-63923Y206653D01*
D02*
G37*
G36*
X108951Y202138D02*
X107816Y201988D01*
X106759Y201550D01*
X105851Y200854D01*
X105154Y199946D01*
X104717Y198888D01*
X104567Y197754D01*
X104717Y196619D01*
X105154Y195562D01*
X105851Y194654D01*
X106759Y193957D01*
X107816Y193519D01*
X108951Y193370D01*
X110086Y193519D01*
X111143Y193957D01*
X112051Y194654D01*
X112748Y195562D01*
X113186Y196619D01*
X113335Y197754D01*
X113186Y198888D01*
X112748Y199946D01*
X112051Y200854D01*
X111143Y201550D01*
X110086Y201988D01*
X108951Y202138D01*
D02*
G37*
G36*
X58951D02*
X57816Y201988D01*
X56759Y201550D01*
X55851Y200854D01*
X55154Y199946D01*
X54716Y198888D01*
X54567Y197754D01*
X54716Y196619D01*
X55154Y195562D01*
X55851Y194654D01*
X56759Y193957D01*
X57816Y193519D01*
X58951Y193370D01*
X60086Y193519D01*
X61143Y193957D01*
X62051Y194654D01*
X62748Y195562D01*
X63186Y196619D01*
X63335Y197754D01*
X63186Y198888D01*
X62748Y199946D01*
X62051Y200854D01*
X61143Y201550D01*
X60086Y201988D01*
X58951Y202138D01*
D02*
G37*
G36*
X68951Y122138D02*
X67816Y121988D01*
X66759Y121550D01*
X65851Y120854D01*
X65154Y119946D01*
X64717Y118888D01*
X64567Y117754D01*
X64717Y116619D01*
X65154Y115562D01*
X65851Y114654D01*
X66759Y113957D01*
X67816Y113519D01*
X68951Y113370D01*
X70086Y113519D01*
X71143Y113957D01*
X72051Y114654D01*
X72748Y115562D01*
X73186Y116619D01*
X73335Y117754D01*
X73186Y118888D01*
X72748Y119946D01*
X72051Y120854D01*
X71143Y121550D01*
X70086Y121988D01*
X68951Y122138D01*
D02*
G37*
G36*
X28951D02*
X27816Y121988D01*
X26759Y121550D01*
X25851Y120854D01*
X25154Y119946D01*
X24716Y118888D01*
X24567Y117754D01*
X24716Y116619D01*
X25154Y115562D01*
X25851Y114654D01*
X26759Y113957D01*
X27816Y113519D01*
X28951Y113370D01*
X30086Y113519D01*
X31143Y113957D01*
X32051Y114654D01*
X32748Y115562D01*
X33186Y116619D01*
X33335Y117754D01*
X33186Y118888D01*
X32748Y119946D01*
X32051Y120854D01*
X31143Y121550D01*
X30086Y121988D01*
X28951Y122138D01*
D02*
G37*
G36*
X-48962Y96811D02*
X-50354Y96627D01*
X-51650Y96090D01*
X-52764Y95236D01*
X-53618Y94122D01*
X-54156Y92826D01*
X-54339Y91434D01*
X-54156Y90042D01*
X-53618Y88746D01*
X-52764Y87632D01*
X-51650Y86778D01*
X-50354Y86240D01*
X-48962Y86057D01*
X-47570Y86240D01*
X-46274Y86778D01*
X-45160Y87632D01*
X-44306Y88746D01*
X-43769Y90042D01*
X-43585Y91434D01*
X-43769Y92826D01*
X-44306Y94122D01*
X-45160Y95236D01*
X-46274Y96090D01*
X-47570Y96627D01*
X-48962Y96811D01*
D02*
G37*
G36*
X-63923D02*
X-65314Y96627D01*
X-66611Y96090D01*
X-67725Y95236D01*
X-68579Y94122D01*
X-69116Y92826D01*
X-69299Y91434D01*
X-69116Y90042D01*
X-68579Y88746D01*
X-67725Y87632D01*
X-66611Y86778D01*
X-65314Y86240D01*
X-63923Y86057D01*
X-62531Y86240D01*
X-61234Y86778D01*
X-60121Y87632D01*
X-59266Y88746D01*
X-58729Y90042D01*
X-58546Y91434D01*
X-58729Y92826D01*
X-59266Y94122D01*
X-60121Y95236D01*
X-61234Y96090D01*
X-62531Y96627D01*
X-63923Y96811D01*
D02*
G37*
G36*
X-34001Y97878D02*
X-35259Y97755D01*
X-36468Y97388D01*
X-37582Y96792D01*
X-38558Y95991D01*
X-39360Y95014D01*
X-39955Y93900D01*
X-40322Y92691D01*
X-40446Y91434D01*
X-40322Y90177D01*
X-39955Y88968D01*
X-39360Y87854D01*
X-38558Y86877D01*
X-37582Y86076D01*
X-36468Y85480D01*
X-35259Y85113D01*
X-34001Y84990D01*
X-32744Y85113D01*
X-31535Y85480D01*
X-30421Y86076D01*
X-29445Y86877D01*
X-28643Y87854D01*
X-28048Y88968D01*
X-27681Y90177D01*
X-27557Y91434D01*
X-27681Y92691D01*
X-28048Y93900D01*
X-28643Y95014D01*
X-29445Y95991D01*
X-30421Y96792D01*
X-31535Y97388D01*
X-32744Y97755D01*
X-34001Y97878D01*
D02*
G37*
G36*
X24551Y73944D02*
X23637Y73824D01*
X22786Y73472D01*
X22055Y72911D01*
X21494Y72179D01*
X21141Y71328D01*
X21021Y70414D01*
X21141Y69501D01*
X21494Y68649D01*
X22055Y67918D01*
X22786Y67357D01*
X23637Y67004D01*
X24551Y66884D01*
X25465Y67004D01*
X26316Y67357D01*
X27047Y67918D01*
X27608Y68649D01*
X27961Y69501D01*
X28081Y70414D01*
X27961Y71328D01*
X27608Y72179D01*
X27047Y72911D01*
X26316Y73472D01*
X25465Y73824D01*
X24551Y73944D01*
D02*
G37*
G36*
X79241Y64974D02*
X78327Y64854D01*
X77476Y64502D01*
X76745Y63941D01*
X76184Y63209D01*
X75831Y62358D01*
X75711Y61444D01*
X75831Y60531D01*
X76184Y59679D01*
X76745Y58948D01*
X77476Y58387D01*
X78327Y58034D01*
X79241Y57914D01*
X80155Y58034D01*
X81006Y58387D01*
X81737Y58948D01*
X82298Y59679D01*
X82651Y60531D01*
X82771Y61444D01*
X82651Y62358D01*
X82298Y63209D01*
X81737Y63941D01*
X81006Y64502D01*
X80155Y64854D01*
X79241Y64974D01*
D02*
G37*
%LPD*%
D12*
X68543Y-297716D02*
X70512Y-295748D01*
X114252D01*
X165000Y-244999D01*
X126146Y-293853D02*
X165000Y-254999D01*
X126146Y-390271D02*
Y-293853D01*
Y-390271D02*
X133737Y-397862D01*
X-26702Y-6672D02*
X-5029Y15001D01*
X-26702Y-60970D02*
Y-6672D01*
X143579Y-306391D02*
X164971Y-284999D01*
X154004Y-305966D02*
X164971Y-294999D01*
X154004Y-387438D02*
Y-305966D01*
X143579Y-388019D02*
Y-306391D01*
D58*
X117043Y-388070D02*
Y-368765D01*
X69737Y-321459D02*
X117043Y-368765D01*
D59*
X-23783Y-244999D02*
X-5029D01*
X-33112Y-254329D02*
X-23783Y-244999D01*
X-59316Y-244486D02*
X-33248D01*
D60*
X-20000Y235000D02*
D03*
X210000D02*
D03*
D61*
X117043Y-388070D02*
D03*
X153422Y-388019D02*
D03*
X243754Y206931D02*
D03*
D62*
X174453Y-398050D02*
D03*
X244189Y-27701D02*
D03*
Y-37544D02*
D03*
X243644Y-147781D02*
D03*
X-67802Y-192736D02*
D03*
X-59316Y-244486D02*
D03*
X-69159Y-234644D02*
D03*
Y-264172D02*
D03*
X-51104Y-398215D02*
D03*
X-60946D02*
D03*
X133737Y-397862D02*
D03*
X143579D02*
D03*
Y-388019D02*
D03*
X244214Y-314417D02*
D03*
Y-304575D02*
D03*
X253597Y206931D02*
D03*
D63*
X108951Y117754D02*
D03*
X78951Y197754D02*
D03*
D65*
X-5000Y-244999D02*
D03*
X5001Y-214999D02*
D03*
X165000Y-294999D02*
D03*
Y-284999D02*
D03*
Y-254999D02*
D03*
Y-244999D02*
D03*
X-5000Y15001D02*
D03*
X5001Y35001D02*
D03*
D66*
X-59316Y-264172D02*
D03*
D67*
X-81820Y-60970D02*
D03*
X-26702D02*
D03*
X-58198Y-147584D02*
D03*
D68*
X-93844Y201276D02*
D03*
D70*
Y91434D02*
D03*
D73*
X68543Y-297716D02*
D03*
X245855Y18893D02*
D03*
X143110Y-241063D02*
D03*
X245832Y73137D02*
D03*
X245887Y65288D02*
D03*
X245888Y26722D02*
D03*
X245921Y22849D02*
D03*
X245866Y69139D02*
D03*
X-33112Y-254329D02*
D03*
X-33112Y-244486D02*
D03*
X-99419Y232628D02*
D03*
X69737Y-321459D02*
D03*
X74868Y-350189D02*
D03*
X134807Y-208618D02*
D03*
X-30677Y-104130D02*
D03*
X-60192Y24848D02*
D03*
X-35101Y34705D02*
D03*
X-5585Y132668D02*
D03*
X48631Y236864D02*
D03*
X28161Y246424D02*
D03*
X-62653Y49027D02*
D03*
X-62499Y69894D02*
D03*
M02*
