G04*
G04 #@! TF.GenerationSoftware,Altium Limited,Altium Designer,18.1.9 (240)*
G04*
G04 Layer_Color=16711935*
%FSLAX25Y25*%
%MOIN*%
G70*
G01*
G75*
%ADD16C,0.00800*%
D16*
X-610896Y-472665D02*
Y-466667D01*
X-608896Y-468666D01*
X-606897Y-466667D01*
Y-472665D01*
X-601899D02*
X-603898D01*
X-604898Y-471665D01*
Y-469666D01*
X-603898Y-468666D01*
X-601899D01*
X-600899Y-469666D01*
Y-470666D01*
X-604898D01*
X-594901Y-468666D02*
X-597900D01*
X-598900Y-469666D01*
Y-471665D01*
X-597900Y-472665D01*
X-594901D01*
X-592902Y-466667D02*
Y-472665D01*
Y-469666D01*
X-591902Y-468666D01*
X-589902D01*
X-588903Y-469666D01*
Y-472665D01*
X-585904Y-468666D02*
X-583904D01*
X-582905Y-469666D01*
Y-472665D01*
X-585904D01*
X-586903Y-471665D01*
X-585904Y-470666D01*
X-582905D01*
X-580905Y-472665D02*
Y-468666D01*
X-577906D01*
X-576907Y-469666D01*
Y-472665D01*
X-574907D02*
X-572908D01*
X-573908D01*
Y-468666D01*
X-574907D01*
X-565910D02*
X-568909D01*
X-569909Y-469666D01*
Y-471665D01*
X-568909Y-472665D01*
X-565910D01*
X-562911Y-468666D02*
X-560912D01*
X-559912Y-469666D01*
Y-472665D01*
X-562911D01*
X-563911Y-471665D01*
X-562911Y-470666D01*
X-559912D01*
X-557913Y-472665D02*
X-555913D01*
X-556913D01*
Y-466667D01*
X-557913D01*
X-546916Y-472665D02*
X-544917D01*
X-545917D01*
Y-466667D01*
X-546916Y-467666D01*
X-541918Y-466667D02*
X-537919D01*
Y-467666D01*
X-541918Y-471665D01*
Y-472665D01*
M02*
