G04*
G04 #@! TF.GenerationSoftware,Altium Limited,Altium Designer,18.1.9 (240)*
G04*
G04 Layer_Color=65535*
%FSLAX25Y25*%
%MOIN*%
G70*
G01*
G75*
%ADD10C,0.01181*%
%ADD11C,0.00600*%
%ADD12C,0.00787*%
%ADD13C,0.01000*%
%ADD14C,0.00500*%
%ADD15C,0.02953*%
D10*
X158674Y55007D02*
G03*
X158674Y55007I-551J0D01*
G01*
X273801Y55365D02*
G03*
X273801Y55365I-551J0D01*
G01*
X309596Y55366D02*
G03*
X309596Y55366I-551J0D01*
G01*
D11*
X201860Y38216D02*
G03*
X201860Y38216I-300J0D01*
G01*
X281003Y67372D02*
G03*
X281003Y67372I-300J0D01*
G01*
X291721Y68642D02*
G03*
X291721Y68642I-300J0D01*
G01*
X152018Y66349D02*
G03*
X152018Y66349I-300J0D01*
G01*
X347805Y682283D02*
G03*
X347805Y682283I-300J0D01*
G01*
X141690Y544910D02*
G03*
X141690Y544910I-300J0D01*
G01*
X105930Y533750D02*
G03*
X105930Y533750I-300J0D01*
G01*
X361951Y478641D02*
Y482913D01*
X354651Y478641D02*
Y482913D01*
X259644Y83321D02*
Y87593D01*
X252344Y83321D02*
Y87593D01*
X282507Y97999D02*
X286779D01*
X282507Y90699D02*
X286779D01*
X282507Y100988D02*
X286779D01*
X282507Y108288D02*
X286779D01*
X316461Y329039D02*
X320733D01*
X316461Y336339D02*
X320733D01*
X281977Y323870D02*
Y328142D01*
X289277Y323870D02*
Y328142D01*
X335565Y685933D02*
X338845D01*
X335565Y678633D02*
X338845D01*
X145040Y532970D02*
Y536250D01*
X137740Y532970D02*
Y536250D01*
X101980Y521810D02*
Y525090D01*
X109280Y521810D02*
Y525090D01*
X203387Y678070D02*
Y681010D01*
X172887Y678070D02*
X203387D01*
X172887Y693830D02*
Y696770D01*
X203387D01*
Y693830D02*
Y696770D01*
X172887Y678070D02*
Y681010D01*
X172887Y656760D02*
Y659700D01*
X203387Y672520D02*
Y675460D01*
X172887D02*
X203387D01*
X172887Y672520D02*
Y675460D01*
Y656760D02*
X203387D01*
Y659700D01*
X160490Y505150D02*
X163430D01*
X160490D02*
Y535650D01*
X176250D02*
X179190D01*
Y505150D02*
Y535650D01*
X176250Y505150D02*
X179190D01*
X160490Y535650D02*
X163430D01*
X209080Y535780D02*
X212020D01*
X224840Y505280D02*
X227780D01*
Y535780D01*
X224840D02*
X227780D01*
X209080Y505280D02*
Y535780D01*
Y505280D02*
X212020D01*
X25740Y693430D02*
Y696370D01*
X56240D01*
Y677670D02*
Y680610D01*
X25740Y677670D02*
X56240D01*
X25740D02*
Y680610D01*
X56240Y693430D02*
Y696370D01*
X13020Y490970D02*
Y493910D01*
X43520Y506730D02*
Y509670D01*
X13020D02*
X43520D01*
X13020Y506730D02*
Y509670D01*
Y490970D02*
X43520D01*
Y493910D01*
X59600Y507060D02*
Y510000D01*
X90100D01*
Y491300D02*
Y494240D01*
X59600Y491300D02*
X90100D01*
X59600D02*
Y494240D01*
X90100Y507060D02*
Y510000D01*
X55970Y671800D02*
Y674740D01*
X25470Y656040D02*
Y658980D01*
Y656040D02*
X55970D01*
Y658980D01*
X25470Y674740D02*
X55970D01*
X25470Y671800D02*
Y674740D01*
X112591Y591098D02*
X116863D01*
X112591Y583798D02*
X116863D01*
X298251Y74822D02*
Y80000D01*
X305751Y74822D02*
Y80000D01*
X104729Y614939D02*
Y619211D01*
X112029Y614939D02*
Y619211D01*
D12*
X237068Y52913D02*
G03*
X237068Y52913I-394J0D01*
G01*
X54133Y107620D02*
G03*
X54133Y107620I-394J0D01*
G01*
X348097Y162983D02*
G03*
X348097Y162983I-394J0D01*
G01*
X54803Y169528D02*
G03*
X54803Y169528I-394J0D01*
G01*
X347611Y245804D02*
G03*
X347611Y245804I-394J0D01*
G01*
X351575Y647520D02*
G03*
X351575Y647520I-394J0D01*
G01*
X357370Y298556D02*
G03*
X357370Y298556I-394J0D01*
G01*
X278226Y367919D02*
X288463D01*
X276455Y366147D02*
X278226Y367919D01*
X276455Y353549D02*
X278226Y351758D01*
X307163Y351777D02*
X317793D01*
X307163Y367919D02*
X317793D01*
Y351777D02*
Y367919D01*
X276455Y353549D02*
Y366147D01*
X278226Y351777D02*
X288463D01*
X199424Y76705D02*
X200999D01*
X199424D02*
Y78674D01*
Y87335D02*
Y88516D01*
X199425Y88517D02*
X200998D01*
D13*
X205742Y75603D02*
G03*
X205742Y75603I-176J0D01*
G01*
X344287Y278422D02*
Y294170D01*
X318303Y278422D02*
Y294170D01*
X231054Y136749D02*
X232786D01*
X232786Y134781D02*
Y136749D01*
X230031D02*
X231054D01*
X232786Y124781D02*
Y126749D01*
X230030Y124781D02*
X232786D01*
X163336Y689878D02*
X162336Y690878D01*
X160337D01*
X159337Y689878D01*
Y685880D01*
X160337Y684880D01*
X162336D01*
X163336Y685880D01*
X165336Y684880D02*
X167335D01*
X166335D01*
Y690878D01*
X165336Y689878D01*
X354850Y493227D02*
Y499225D01*
X357849D01*
X358849Y498225D01*
Y496226D01*
X357849Y495226D01*
X354850D01*
X356849D02*
X358849Y493227D01*
X360848D02*
X362847D01*
X361848D01*
Y499225D01*
X360848Y498225D01*
X368846Y493227D02*
Y499225D01*
X365846Y496226D01*
X369845D01*
X217614Y64725D02*
X216281D01*
X216947D01*
Y61392D01*
X216281Y60726D01*
X215614D01*
X214948Y61392D01*
X221613Y64725D02*
X218947D01*
Y62725D01*
X220280Y63392D01*
X220946D01*
X221613Y62725D01*
Y61392D01*
X220946Y60726D01*
X219613D01*
X218947Y61392D01*
X222945Y62725D02*
X225611D01*
X226944Y60726D02*
Y64725D01*
X228277Y63392D01*
X229610Y64725D01*
Y60726D01*
X233609Y64058D02*
X232942Y64725D01*
X231609D01*
X230943Y64058D01*
Y61392D01*
X231609Y60726D01*
X232942D01*
X233609Y61392D01*
X234942Y60726D02*
X236274D01*
X235608D01*
Y64725D01*
X234942Y64058D01*
X67159Y672818D02*
X66159Y673818D01*
X64160D01*
X63160Y672818D01*
Y668820D01*
X64160Y667820D01*
X66159D01*
X67159Y668820D01*
X73157Y673818D02*
X71157Y672818D01*
X69158Y670819D01*
Y668820D01*
X70158Y667820D01*
X72157D01*
X73157Y668820D01*
Y669819D01*
X72157Y670819D01*
X69158D01*
X292083Y345920D02*
Y339922D01*
X295082D01*
X296082Y340922D01*
Y344920D01*
X295082Y345920D01*
X292083D01*
X302080D02*
X300080Y344920D01*
X298081Y342921D01*
Y340922D01*
X299081Y339922D01*
X301080D01*
X302080Y340922D01*
Y341921D01*
X301080Y342921D01*
X298081D01*
X318488Y385664D02*
X317488Y386664D01*
X315489D01*
X314489Y385664D01*
Y381666D01*
X315489Y380666D01*
X317488D01*
X318488Y381666D01*
X320487Y380666D02*
X322486D01*
X321487D01*
Y386664D01*
X320487Y385664D01*
X328485Y380666D02*
Y386664D01*
X325485Y383665D01*
X329484D01*
X291438Y314455D02*
X290938Y314955D01*
X289939D01*
X289439Y314455D01*
Y312456D01*
X289939Y311956D01*
X290938D01*
X291438Y312456D01*
X292438Y311956D02*
X293438D01*
X292938D01*
Y314955D01*
X292438Y314455D01*
X294937D02*
X295437Y314955D01*
X296437D01*
X296937Y314455D01*
Y313955D01*
X296437Y313456D01*
X295937D01*
X296437D01*
X296937Y312956D01*
Y312456D01*
X296437Y311956D01*
X295437D01*
X294937Y312456D01*
X314640Y340425D02*
Y343424D01*
X316140D01*
X316639Y342924D01*
Y341925D01*
X316140Y341425D01*
X314640D01*
X315640D02*
X316639Y340425D01*
X317639D02*
X318639D01*
X318139D01*
Y343424D01*
X317639Y342924D01*
X320138D02*
X320638Y343424D01*
X321638D01*
X322138Y342924D01*
Y342424D01*
X321638Y341925D01*
X321138D01*
X321638D01*
X322138Y341425D01*
Y340925D01*
X321638Y340425D01*
X320638D01*
X320138Y340925D01*
X7413Y140108D02*
X5414D01*
X6414D01*
Y135110D01*
X5414Y134110D01*
X4414D01*
X3415Y135110D01*
X9413Y134110D02*
X11412D01*
X10413D01*
Y140108D01*
X9413Y139108D01*
X14411D02*
X15411Y140108D01*
X17410D01*
X18410Y139108D01*
Y135110D01*
X17410Y134110D01*
X15411D01*
X14411Y135110D01*
Y139108D01*
X20409Y137109D02*
X24408D01*
X26407Y140108D02*
X28407D01*
X27407D01*
Y134110D01*
X26407D01*
X28407D01*
X31406D02*
Y140108D01*
X33405Y138109D01*
X35404Y140108D01*
Y134110D01*
X37404Y140108D02*
Y135110D01*
X38403Y134110D01*
X40403D01*
X41402Y135110D01*
Y140108D01*
X270680Y324863D02*
Y327862D01*
X272180D01*
X272679Y327362D01*
Y326362D01*
X272180Y325863D01*
X270680D01*
X271680D02*
X272679Y324863D01*
X273679D02*
X274679D01*
X274179D01*
Y327862D01*
X273679Y327362D01*
X278178Y324863D02*
X276178D01*
X278178Y326862D01*
Y327362D01*
X277678Y327862D01*
X276678D01*
X276178Y327362D01*
X8119Y233745D02*
X6119D01*
X7119D01*
Y228746D01*
X6119Y227747D01*
X5120D01*
X4120Y228746D01*
X10118D02*
X11118Y227747D01*
X13117D01*
X14117Y228746D01*
Y232745D01*
X13117Y233745D01*
X11118D01*
X10118Y232745D01*
Y231745D01*
X11118Y230746D01*
X14117D01*
X16116D02*
X20115D01*
X26113Y232745D02*
X25113Y233745D01*
X23114D01*
X22114Y232745D01*
Y228746D01*
X23114Y227747D01*
X25113D01*
X26113Y228746D01*
X28112Y227747D02*
Y231745D01*
X30112Y233745D01*
X32111Y231745D01*
Y227747D01*
Y230746D01*
X28112D01*
X34110Y227747D02*
Y233745D01*
X38109Y227747D01*
Y233745D01*
X269650Y283806D02*
X269150Y284306D01*
X268151D01*
X267651Y283806D01*
Y281807D01*
X268151Y281307D01*
X269150D01*
X269650Y281807D01*
X270650Y284306D02*
Y281307D01*
Y282806D01*
X272649D01*
Y284306D01*
Y281307D01*
X273649D02*
X274649D01*
X274149D01*
Y284306D01*
X273649Y283806D01*
X278398Y251198D02*
X276398D01*
X277398D01*
Y246200D01*
X276398Y245200D01*
X275399D01*
X274399Y246200D01*
X280397Y251198D02*
Y245200D01*
X283396D01*
X284396Y246200D01*
Y250198D01*
X283396Y251198D01*
X280397D01*
X108398D02*
X106398D01*
X107398D01*
Y246200D01*
X106398Y245200D01*
X105399D01*
X104399Y246200D01*
X114396Y250198D02*
X113396Y251198D01*
X111397D01*
X110397Y250198D01*
Y246200D01*
X111397Y245200D01*
X113396D01*
X114396Y246200D01*
X278398Y501198D02*
X276398D01*
X277398D01*
Y496200D01*
X276398Y495200D01*
X275399D01*
X274399Y496200D01*
X280397Y501198D02*
Y495200D01*
X283396D01*
X284396Y496200D01*
Y497199D01*
X283396Y498199D01*
X280397D01*
X283396D01*
X284396Y499199D01*
Y500198D01*
X283396Y501198D01*
X280397D01*
X108398D02*
X106398D01*
X107398D01*
Y496200D01*
X106398Y495200D01*
X105399D01*
X104399Y496200D01*
X110397Y495200D02*
Y499199D01*
X112396Y501198D01*
X114396Y499199D01*
Y495200D01*
Y498199D01*
X110397D01*
X372301Y181008D02*
X370968D01*
X371634D01*
Y177675D01*
X370968Y177009D01*
X370302D01*
X369635Y177675D01*
X373634Y181008D02*
X376300D01*
Y180341D01*
X373634Y177675D01*
Y177009D01*
X377632Y179008D02*
X380298D01*
X381631Y181008D02*
Y177009D01*
X384297D01*
X388296Y181008D02*
X385630D01*
Y177009D01*
X388296D01*
X385630Y179008D02*
X386963D01*
X389629Y181008D02*
Y177009D01*
X391628D01*
X392294Y177675D01*
Y180341D01*
X391628Y181008D01*
X389629D01*
X119728Y643711D02*
X118728Y644711D01*
X116729D01*
X115729Y643711D01*
Y642711D01*
X116729Y641712D01*
X118728D01*
X119728Y640712D01*
Y639712D01*
X118728Y638713D01*
X116729D01*
X115729Y639712D01*
X121727Y638713D02*
X123726D01*
X122727D01*
Y644711D01*
X121727Y643711D01*
X263926Y92802D02*
Y95801D01*
X265425D01*
X265925Y95301D01*
Y94301D01*
X265425Y93802D01*
X263926D01*
X264926D02*
X265925Y92802D01*
X266925D02*
X267925D01*
X267425D01*
Y95801D01*
X266925Y95301D01*
X269424D02*
X269924Y95801D01*
X270924D01*
X271424Y95301D01*
Y93302D01*
X270924Y92802D01*
X269924D01*
X269424Y93302D01*
Y95301D01*
X265191Y103746D02*
Y106745D01*
X266690D01*
X267190Y106245D01*
Y105245D01*
X266690Y104746D01*
X265191D01*
X266191D02*
X267190Y103746D01*
X268190Y104246D02*
X268690Y103746D01*
X269690D01*
X270189Y104246D01*
Y106245D01*
X269690Y106745D01*
X268690D01*
X268190Y106245D01*
Y105745D01*
X268690Y105245D01*
X270189D01*
X122134Y596972D02*
Y602970D01*
X125133D01*
X126133Y601970D01*
Y599971D01*
X125133Y598971D01*
X122134D01*
X124133D02*
X126133Y596972D01*
X128132Y602970D02*
X132131D01*
Y601970D01*
X128132Y597972D01*
Y596972D01*
X103088Y629507D02*
Y635505D01*
X106087D01*
X107087Y634505D01*
Y632506D01*
X106087Y631506D01*
X103088D01*
X105087D02*
X107087Y629507D01*
X113085Y635505D02*
X111085Y634505D01*
X109086Y632506D01*
Y630507D01*
X110086Y629507D01*
X112085D01*
X113085Y630507D01*
Y631506D01*
X112085Y632506D01*
X109086D01*
X263787Y83809D02*
Y86808D01*
X265286D01*
X265786Y86308D01*
Y85308D01*
X265286Y84809D01*
X263787D01*
X264787D02*
X265786Y83809D01*
X266786Y86308D02*
X267286Y86808D01*
X268286D01*
X268785Y86308D01*
Y85808D01*
X268286Y85308D01*
X268785Y84809D01*
Y84309D01*
X268286Y83809D01*
X267286D01*
X266786Y84309D01*
Y84809D01*
X267286Y85308D01*
X266786Y85808D01*
Y86308D01*
X267286Y85308D02*
X268286D01*
X228898Y141200D02*
Y145198D01*
X227898Y146198D01*
X225899D01*
X224899Y145198D01*
Y141200D01*
X225899Y140200D01*
X227898D01*
X226898Y142199D02*
X228898Y140200D01*
X227898D02*
X228898Y141200D01*
X233896Y140200D02*
Y146198D01*
X230897Y143199D01*
X234896D01*
X187709Y81828D02*
Y83827D01*
X187209Y84327D01*
X186210D01*
X185710Y83827D01*
Y81828D01*
X186210Y81328D01*
X187209D01*
X186710Y82328D02*
X187709Y81328D01*
X187209D02*
X187709Y81828D01*
X188709Y83827D02*
X189209Y84327D01*
X190208D01*
X190708Y83827D01*
Y83327D01*
X190208Y82828D01*
X189709D01*
X190208D01*
X190708Y82328D01*
Y81828D01*
X190208Y81328D01*
X189209D01*
X188709Y81828D01*
X31262Y65270D02*
Y59272D01*
Y61271D01*
X35261Y65270D01*
X32262Y62271D01*
X35261Y59272D01*
X40260D02*
Y65270D01*
X37260Y62271D01*
X41259D01*
X170378Y144420D02*
Y138422D01*
Y140421D01*
X174377Y144420D01*
X171378Y141421D01*
X174377Y138422D01*
X176376Y143420D02*
X177376Y144420D01*
X179375D01*
X180375Y143420D01*
Y142421D01*
X179375Y141421D01*
X178375D01*
X179375D01*
X180375Y140421D01*
Y139422D01*
X179375Y138422D01*
X177376D01*
X176376Y139422D01*
X170594Y268766D02*
Y262768D01*
Y264767D01*
X174593Y268766D01*
X171594Y265767D01*
X174593Y262768D01*
X180591D02*
X176592D01*
X180591Y266767D01*
Y267766D01*
X179591Y268766D01*
X177592D01*
X176592Y267766D01*
X252373Y639362D02*
Y633364D01*
Y635363D01*
X256372Y639362D01*
X253373Y636363D01*
X256372Y633364D01*
X258371D02*
X260370D01*
X259371D01*
Y639362D01*
X258371Y638362D01*
X31658Y393901D02*
X29658D01*
X30658D01*
Y388903D01*
X29658Y387903D01*
X28659D01*
X27659Y388903D01*
X33657Y387903D02*
X35656D01*
X34657D01*
Y393901D01*
X33657Y392901D01*
X38655Y387903D02*
X40655D01*
X39655D01*
Y393901D01*
X38655Y392901D01*
X43654Y390902D02*
X47653D01*
X49652Y393901D02*
X53651Y387903D01*
Y393901D02*
X49652Y387903D01*
X55650Y393901D02*
Y387903D01*
X58649D01*
X59649Y388903D01*
Y389902D01*
X58649Y390902D01*
X55650D01*
X58649D01*
X59649Y391902D01*
Y392901D01*
X58649Y393901D01*
X55650D01*
X65647D02*
X61648D01*
Y387903D01*
X65647D01*
X61648Y390902D02*
X63647D01*
X71645Y393901D02*
X67646D01*
Y387903D01*
X71645D01*
X67646Y390902D02*
X69645D01*
X246431Y64783D02*
X245098D01*
X245764D01*
Y61450D01*
X245098Y60784D01*
X244431D01*
X243765Y61450D01*
X247764Y64116D02*
X248430Y64783D01*
X249763D01*
X250430Y64116D01*
Y63450D01*
X249763Y62783D01*
X250430Y62117D01*
Y61450D01*
X249763Y60784D01*
X248430D01*
X247764Y61450D01*
Y62117D01*
X248430Y62783D01*
X247764Y63450D01*
Y64116D01*
X248430Y62783D02*
X249763D01*
X251763D02*
X254428D01*
X255761Y64783D02*
Y60784D01*
X257761D01*
X258427Y61450D01*
Y64116D01*
X257761Y64783D01*
X255761D01*
X259760Y60784D02*
Y63450D01*
X261093Y64783D01*
X262426Y63450D01*
Y60784D01*
Y62783D01*
X259760D01*
X266424Y64116D02*
X265758Y64783D01*
X264425D01*
X263759Y64116D01*
Y63450D01*
X264425Y62783D01*
X265758D01*
X266424Y62117D01*
Y61450D01*
X265758Y60784D01*
X264425D01*
X263759Y61450D01*
X267757Y64783D02*
Y60784D01*
Y62783D01*
X270423D01*
Y64783D01*
Y60784D01*
X127218Y64082D02*
X125885D01*
X126551D01*
Y60750D01*
X125885Y60083D01*
X125218D01*
X124552Y60750D01*
X131217Y64082D02*
X129884Y63415D01*
X128551Y62082D01*
Y60750D01*
X129217Y60083D01*
X130550D01*
X131217Y60750D01*
Y61416D01*
X130550Y62082D01*
X128551D01*
X132549D02*
X135215D01*
X136548Y60083D02*
Y64082D01*
X137881Y62749D01*
X139214Y64082D01*
Y60083D01*
X143213Y63415D02*
X142546Y64082D01*
X141213D01*
X140547Y63415D01*
Y60750D01*
X141213Y60083D01*
X142546D01*
X143213Y60750D01*
X147211Y60083D02*
X144546D01*
X147211Y62749D01*
Y63415D01*
X146545Y64082D01*
X145212D01*
X144546Y63415D01*
X351901Y312432D02*
X349901D01*
X350901D01*
Y307433D01*
X349901Y306434D01*
X348902D01*
X347902Y307433D01*
X356899Y306434D02*
Y312432D01*
X353900Y309433D01*
X357899D01*
X359898D02*
X363897D01*
X365896Y306434D02*
Y312432D01*
X368895D01*
X369895Y311432D01*
Y309433D01*
X368895Y308433D01*
X365896D01*
X371894Y312432D02*
Y307433D01*
X372894Y306434D01*
X374893D01*
X375893Y307433D01*
Y312432D01*
X377892Y306434D02*
Y312432D01*
X379892Y310433D01*
X381891Y312432D01*
Y306434D01*
X383890D02*
Y312432D01*
X386889D01*
X387889Y311432D01*
Y309433D01*
X386889Y308433D01*
X383890D01*
X284263Y64807D02*
X282930D01*
X283597D01*
Y61475D01*
X282930Y60809D01*
X282264D01*
X281597Y61475D01*
X285596Y64141D02*
X286262Y64807D01*
X287595D01*
X288262Y64141D01*
Y63475D01*
X287595Y62808D01*
X286929D01*
X287595D01*
X288262Y62142D01*
Y61475D01*
X287595Y60809D01*
X286262D01*
X285596Y61475D01*
X289595Y62808D02*
X292261D01*
X293594Y64807D02*
Y60809D01*
X295593D01*
X296259Y61475D01*
Y62142D01*
X295593Y62808D01*
X293594D01*
X295593D01*
X296259Y63475D01*
Y64141D01*
X295593Y64807D01*
X293594D01*
X297592Y60809D02*
Y64807D01*
X298925Y63475D01*
X300258Y64807D01*
Y60809D01*
X304257Y64141D02*
X303590Y64807D01*
X302257D01*
X301591Y64141D01*
Y63475D01*
X302257Y62808D01*
X303590D01*
X304257Y62142D01*
Y61475D01*
X303590Y60809D01*
X302257D01*
X301591Y61475D01*
X356775Y102875D02*
X355442D01*
X356108D01*
Y99542D01*
X355442Y98876D01*
X354775D01*
X354109Y99542D01*
X360773Y98876D02*
X358107D01*
X360773Y101542D01*
Y102208D01*
X360107Y102875D01*
X358774D01*
X358107Y102208D01*
X362106Y100875D02*
X364772D01*
X368771Y102208D02*
X368104Y102875D01*
X366771D01*
X366105Y102208D01*
Y101542D01*
X366771Y100875D01*
X368104D01*
X368771Y100209D01*
Y99542D01*
X368104Y98876D01*
X366771D01*
X366105Y99542D01*
X370104Y102875D02*
Y98876D01*
X371437Y100209D01*
X372769Y98876D01*
Y102875D01*
X374102D02*
X375435D01*
X374769D01*
Y98876D01*
X374102D01*
X375435D01*
X377435Y102875D02*
X380100D01*
X378767D01*
Y98876D01*
X384099Y102208D02*
X383433Y102875D01*
X382100D01*
X381433Y102208D01*
Y99542D01*
X382100Y98876D01*
X383433D01*
X384099Y99542D01*
X385432Y102875D02*
Y98876D01*
Y100875D01*
X388098D01*
Y102875D01*
Y98876D01*
X392096Y102875D02*
X389431D01*
Y98876D01*
X392096D01*
X389431Y100875D02*
X390764D01*
X396095Y102208D02*
X395429Y102875D01*
X394096D01*
X393429Y102208D01*
Y101542D01*
X394096Y100875D01*
X395429D01*
X396095Y100209D01*
Y99542D01*
X395429Y98876D01*
X394096D01*
X393429Y99542D01*
X349084Y637302D02*
X347084D01*
X348084D01*
Y632303D01*
X347084Y631304D01*
X346085D01*
X345085Y632303D01*
X351083Y631304D02*
X353082D01*
X352083D01*
Y637302D01*
X351083Y636302D01*
X356081Y634303D02*
X360080D01*
X362080Y637302D02*
Y631304D01*
X365078D01*
X366078Y632303D01*
Y633303D01*
X365078Y634303D01*
X362080D01*
X365078D01*
X366078Y635302D01*
Y636302D01*
X365078Y637302D01*
X362080D01*
X368077Y631304D02*
Y635302D01*
X370077Y637302D01*
X372076Y635302D01*
Y631304D01*
Y634303D01*
X368077D01*
X374076Y637302D02*
X378074D01*
X376075D01*
Y631304D01*
X158105Y75893D02*
X156772D01*
Y74894D01*
X157438D01*
X156772D01*
Y73894D01*
X158771D02*
X159438D01*
X159105D01*
Y75893D01*
X158771Y75560D01*
X160438Y73894D02*
X161104D01*
X160771D01*
Y75893D01*
X160438Y75560D01*
X192806Y46722D02*
X191473D01*
Y45723D01*
X192139D01*
X191473D01*
Y44723D01*
X193472D02*
X194139D01*
X193806D01*
Y46722D01*
X193472Y46389D01*
X195139D02*
X195472Y46722D01*
X196138D01*
X196471Y46389D01*
Y45056D01*
X196138Y44723D01*
X195472D01*
X195139Y45056D01*
Y46389D01*
X280025Y86452D02*
X278692D01*
Y85453D01*
X279358D01*
X278692D01*
Y84453D01*
X282024Y86452D02*
X281358Y86119D01*
X280691Y85453D01*
Y84786D01*
X281025Y84453D01*
X281691D01*
X282024Y84786D01*
Y85119D01*
X281691Y85453D01*
X280691D01*
X300402Y93023D02*
X298403D01*
Y91523D01*
X299403D01*
X298403D01*
Y90024D01*
X303401Y93023D02*
X301402D01*
Y91523D01*
X302402Y92023D01*
X302902D01*
X303401Y91523D01*
Y90524D01*
X302902Y90024D01*
X301902D01*
X301402Y90524D01*
X291065Y87096D02*
X289732D01*
Y86097D01*
X290399D01*
X289732D01*
Y85097D01*
X292731D02*
Y87096D01*
X291731Y86097D01*
X293064D01*
X105299Y542968D02*
X101300D01*
Y539969D01*
X103299D01*
X101300D01*
Y536970D01*
X107298Y541968D02*
X108298Y542968D01*
X110297D01*
X111297Y541968D01*
Y540969D01*
X110297Y539969D01*
X109297D01*
X110297D01*
X111297Y538969D01*
Y537970D01*
X110297Y536970D01*
X108298D01*
X107298Y537970D01*
X125632Y537195D02*
X121633D01*
Y534196D01*
X123632D01*
X121633D01*
Y531197D01*
X131630D02*
X127631D01*
X131630Y535196D01*
Y536195D01*
X130630Y537195D01*
X128631D01*
X127631Y536195D01*
X336932Y697340D02*
X332934D01*
Y694342D01*
X334933D01*
X332934D01*
Y691342D01*
X338932D02*
X340931D01*
X339932D01*
Y697340D01*
X338932Y696341D01*
X304787Y289104D02*
Y283106D01*
X307786D01*
X308786Y284106D01*
Y288104D01*
X307786Y289104D01*
X304787D01*
X310785Y288104D02*
X311785Y289104D01*
X313784D01*
X314784Y288104D01*
Y287105D01*
X313784Y286105D01*
X314784Y285105D01*
Y284106D01*
X313784Y283106D01*
X311785D01*
X310785Y284106D01*
Y285105D01*
X311785Y286105D01*
X310785Y287105D01*
Y288104D01*
X311785Y286105D02*
X313784D01*
X73710Y516914D02*
X73211Y517414D01*
X72211D01*
X71711Y516914D01*
Y514915D01*
X72211Y514415D01*
X73211D01*
X73710Y514915D01*
X74710Y516914D02*
X75210Y517414D01*
X76210D01*
X76709Y516914D01*
Y516414D01*
X76210Y515914D01*
X76709Y515415D01*
Y514915D01*
X76210Y514415D01*
X75210D01*
X74710Y514915D01*
Y515415D01*
X75210Y515914D01*
X74710Y516414D01*
Y516914D01*
X75210Y515914D02*
X76210D01*
X26338Y515958D02*
X25839Y516458D01*
X24839D01*
X24339Y515958D01*
Y513959D01*
X24839Y513459D01*
X25839D01*
X26338Y513959D01*
X27338Y516458D02*
X29337D01*
Y515958D01*
X27338Y513959D01*
Y513459D01*
X66642Y694849D02*
X65643Y695848D01*
X63643D01*
X62643Y694849D01*
Y690850D01*
X63643Y689850D01*
X65643D01*
X66642Y690850D01*
X72640Y695848D02*
X68642D01*
Y692849D01*
X70641Y693849D01*
X71641D01*
X72640Y692849D01*
Y690850D01*
X71641Y689850D01*
X69641D01*
X68642Y690850D01*
X197159Y522559D02*
X196159Y523559D01*
X194160D01*
X193160Y522559D01*
Y518561D01*
X194160Y517561D01*
X196159D01*
X197159Y518561D01*
X202157Y517561D02*
Y523559D01*
X199158Y520560D01*
X203157D01*
X149540Y521936D02*
X148540Y522936D01*
X146541D01*
X145541Y521936D01*
Y517938D01*
X146541Y516938D01*
X148540D01*
X149540Y517938D01*
X151539Y521936D02*
X152539Y522936D01*
X154538D01*
X155538Y521936D01*
Y520937D01*
X154538Y519937D01*
X153538D01*
X154538D01*
X155538Y518937D01*
Y517938D01*
X154538Y516938D01*
X152539D01*
X151539Y517938D01*
X161046Y668318D02*
X160046Y669318D01*
X158047D01*
X157047Y668318D01*
Y664320D01*
X158047Y663320D01*
X160046D01*
X161046Y664320D01*
X167044Y663320D02*
X163045D01*
X167044Y667319D01*
Y668318D01*
X166044Y669318D01*
X164045D01*
X163045Y668318D01*
X2045Y655671D02*
X4044D01*
X3045D01*
Y661669D01*
X2045Y660669D01*
X11042Y655671D02*
X7043D01*
X11042Y659670D01*
Y660669D01*
X10042Y661669D01*
X8043D01*
X7043Y660669D01*
X13041Y661669D02*
Y657670D01*
X15041Y655671D01*
X17040Y657670D01*
Y661669D01*
X251003Y557518D02*
X247004D01*
Y554519D01*
X249003Y555519D01*
X250003D01*
X251003Y554519D01*
Y552520D01*
X250003Y551520D01*
X248004D01*
X247004Y552520D01*
X253002Y557518D02*
Y553519D01*
X255001Y551520D01*
X257001Y553519D01*
Y557518D01*
X268997Y556518D02*
X267997Y557518D01*
X265998D01*
X264998Y556518D01*
Y552520D01*
X265998Y551520D01*
X267997D01*
X268997Y552520D01*
X271996Y551520D02*
X273995D01*
X274995Y552520D01*
Y554519D01*
X273995Y555519D01*
X271996D01*
X270996Y554519D01*
Y552520D01*
X271996Y551520D01*
X276994D02*
Y555519D01*
X279993D01*
X280993Y554519D01*
Y551520D01*
X282992Y555519D02*
X284992Y551520D01*
X286991Y555519D01*
X291989Y551520D02*
X289990D01*
X288990Y552520D01*
Y554519D01*
X289990Y555519D01*
X291989D01*
X292989Y554519D01*
Y553519D01*
X288990D01*
X294988Y555519D02*
Y551520D01*
Y553519D01*
X295988Y554519D01*
X296988Y555519D01*
X297988D01*
X301986Y556518D02*
Y555519D01*
X300987D01*
X302986D01*
X301986D01*
Y552520D01*
X302986Y551520D01*
X308984D02*
X306985D01*
X305985Y552520D01*
Y554519D01*
X306985Y555519D01*
X308984D01*
X309984Y554519D01*
Y553519D01*
X305985D01*
X311983Y555519D02*
Y551520D01*
Y553519D01*
X312983Y554519D01*
X313982Y555519D01*
X314982D01*
D14*
X125367Y35007D02*
X158596D01*
Y1700D02*
Y35007D01*
X125367Y1700D02*
X158596D01*
X125367D02*
Y35007D01*
X213957Y2008D02*
Y35315D01*
Y2008D02*
X237343D01*
Y35315D01*
X213957D02*
X237343D01*
X2834Y130336D02*
X36141D01*
X2834Y106950D02*
Y130336D01*
Y106950D02*
X36141D01*
Y130336D01*
X398609Y107786D02*
Y164636D01*
X365302Y107786D02*
Y164636D01*
Y107786D02*
X398609D01*
X365302Y164636D02*
X398609D01*
X3504Y167874D02*
X36811D01*
X3504Y224724D02*
X36811D01*
Y167874D02*
Y224724D01*
X3504Y167874D02*
Y224724D01*
X398280Y183678D02*
Y246434D01*
X364973Y183678D02*
Y246434D01*
Y183678D02*
X398280D01*
X364973Y246434D02*
X398280D01*
X240494Y2058D02*
Y35365D01*
Y2058D02*
X273723D01*
Y35365D01*
X240494D02*
X273723D01*
X276289Y2059D02*
Y35366D01*
Y2059D02*
X309518D01*
Y35366D01*
X276289D02*
X309518D01*
X350512Y665118D02*
X373898D01*
X350512D02*
Y698425D01*
X373898D01*
Y665118D02*
Y698425D01*
X364732Y276391D02*
X398039D01*
Y299777D01*
X364732D02*
X398039D01*
X364732Y276391D02*
Y299777D01*
D15*
X239274Y194747D02*
Y201834D01*
X168015Y149472D02*
Y201834D01*
X239274D01*
Y149472D02*
Y194747D01*
X168015Y149472D02*
X239274D01*
X167750Y206608D02*
Y213694D01*
X239010Y206608D02*
Y258970D01*
X167750Y206608D02*
X239010D01*
X167750Y213694D02*
Y258970D01*
X239010D01*
X139395Y548689D02*
Y648689D01*
Y548689D02*
X239395D01*
Y648689D01*
X139395D02*
X239395D01*
X94488Y522377D02*
Y646786D01*
X4331Y522377D02*
X94488D01*
X4331Y522377D02*
Y651905D01*
X89370D01*
X94488Y646786D01*
X250590Y644834D02*
X321850D01*
Y690110D01*
X250590Y697196D02*
X321850D01*
X250590Y644834D02*
Y697196D01*
X321850Y690110D02*
Y697196D01*
X31698Y54805D02*
X102958D01*
X31698Y9530D02*
Y54805D01*
Y2443D02*
X102958D01*
Y54805D01*
X31698Y2443D02*
Y9530D01*
M02*
