G04*
G04 #@! TF.GenerationSoftware,Altium Limited,Altium Designer,18.1.9 (240)*
G04*
G04 Layer_Color=32896*
%FSLAX25Y25*%
%MOIN*%
G70*
G01*
G75*
%ADD14C,0.00500*%
D14*
X167682Y-405609D02*
X191067D01*
Y-438916D02*
Y-405609D01*
X167682Y-438916D02*
X191067D01*
X167682D02*
Y-405609D01*
X191067D01*
Y-438916D02*
Y-405609D01*
X167682Y-438916D02*
X191067D01*
X167682D02*
Y-405609D01*
X284751Y-237423D02*
Y-214037D01*
X251444Y-194352D02*
X284751D01*
X251444Y-257108D02*
Y-194352D01*
X284751Y-257108D02*
Y-194352D01*
X251444D02*
X284751D01*
X251444Y-257108D02*
Y-194352D01*
Y-257108D02*
X284751D01*
X100428Y-438778D02*
Y-405471D01*
Y-438778D02*
X123814D01*
Y-405471D01*
X100428D02*
X123814D01*
X100428Y-438778D02*
Y-405471D01*
Y-438778D02*
X123814D01*
Y-405471D01*
X100428D02*
X123814D01*
X251203Y-164395D02*
X284510D01*
Y-141009D01*
X251203D02*
X284510D01*
X251203Y-164395D02*
Y-141009D01*
Y-164395D02*
X284510D01*
Y-141009D01*
X251203D02*
X284510D01*
X251203Y-164395D02*
Y-141009D01*
X-108668Y-176122D02*
X-75361D01*
X-108668Y-199508D02*
Y-176122D01*
Y-199508D02*
X-75361D01*
Y-176122D01*
X-108668D02*
X-75361D01*
X-108668Y-199508D02*
Y-176122D01*
Y-199508D02*
X-75361D01*
Y-176122D01*
X-110025Y-216061D02*
X-76718D01*
Y-272912D02*
Y-216061D01*
X-110025Y-272912D02*
X-76718D01*
X-110025D02*
Y-216061D01*
X-76718Y-272912D02*
Y-216061D01*
X-110025Y-272912D02*
X-76718D01*
X-109907Y-256849D02*
Y-233463D01*
X284962Y-315598D02*
Y-292213D01*
X251773Y-276150D02*
X285080D01*
X251773Y-333000D02*
Y-276150D01*
X285080Y-333000D02*
Y-276150D01*
X251773D02*
X285080D01*
X251773Y-333000D02*
Y-276150D01*
Y-333000D02*
X285080D01*
X236983Y224332D02*
X260368D01*
X236983D02*
Y257640D01*
X260368D01*
Y224332D02*
Y257640D01*
X236983Y224332D02*
X260368D01*
X236983D02*
Y257640D01*
X260368D01*
Y224332D02*
Y257640D01*
M02*
