G04*
G04 #@! TF.GenerationSoftware,Altium Limited,Altium Designer,18.1.9 (240)*
G04*
G04 Layer_Color=8388736*
%FSLAX25Y25*%
%MOIN*%
G70*
G01*
G75*
%ADD95C,0.00394*%
%ADD96C,0.00700*%
D95*
X103780Y139784D02*
X123280D01*
X103780D02*
Y241784D01*
X123280Y139784D02*
Y241784D01*
X293280Y139784D02*
Y241784D01*
X273780Y139784D02*
Y241784D01*
Y139784D02*
X293280D01*
Y389784D02*
Y491784D01*
X273780Y389784D02*
Y491784D01*
Y389784D02*
X293280D01*
X103780D02*
X123280D01*
X103780D02*
Y491784D01*
X123280Y389784D02*
Y491784D01*
D96*
X111531Y194118D02*
Y195451D01*
Y194785D01*
X114863D01*
X115530Y195451D01*
Y196118D01*
X114863Y196784D01*
X112197Y190120D02*
X111531Y190786D01*
Y192119D01*
X112197Y192785D01*
X114863D01*
X115530Y192119D01*
Y190786D01*
X114863Y190120D01*
X281531Y194118D02*
Y195451D01*
Y194785D01*
X284863D01*
X285530Y195451D01*
Y196118D01*
X284863Y196784D01*
X281531Y192785D02*
X285530D01*
Y190786D01*
X284863Y190120D01*
X282197D01*
X281531Y190786D01*
Y192785D01*
Y444118D02*
Y445451D01*
Y444785D01*
X284863D01*
X285530Y445451D01*
Y446118D01*
X284863Y446784D01*
X281531Y442785D02*
X285530D01*
Y440786D01*
X284863Y440120D01*
X284197D01*
X283530Y440786D01*
Y442785D01*
Y440786D01*
X282864Y440120D01*
X282197D01*
X281531Y440786D01*
Y442785D01*
X111531Y444118D02*
Y445451D01*
Y444785D01*
X114863D01*
X115530Y445451D01*
Y446118D01*
X114863Y446784D01*
X115530Y442785D02*
X112864D01*
X111531Y441452D01*
X112864Y440120D01*
X115530D01*
X113530D01*
Y442785D01*
M02*
