G04*
G04 #@! TF.GenerationSoftware,Altium Limited,Altium Designer,18.1.9 (240)*
G04*
G04 Layer_Color=16711935*
%FSLAX25Y25*%
%MOIN*%
G70*
G01*
G75*
%ADD16R,0.06299X0.05906*%
%ADD18R,0.04737X0.04343*%
%ADD19R,0.03800X0.04000*%
%ADD21R,0.05906X0.06299*%
%ADD23R,0.14147X0.12611*%
%ADD31R,0.07887X0.07887*%
%ADD32C,0.07887*%
%ADD33C,0.07493*%
%ADD34R,0.07887X0.07887*%
%ADD35C,0.12611*%
%ADD36C,0.08280*%
%ADD37C,0.06800*%
G04:AMPARAMS|DCode=38|XSize=69.02mil|YSize=69.02mil|CornerRadius=5.83mil|HoleSize=0mil|Usage=FLASHONLY|Rotation=270.000|XOffset=0mil|YOffset=0mil|HoleType=Round|Shape=RoundedRectangle|*
%AMROUNDEDRECTD38*
21,1,0.06902,0.05736,0,0,270.0*
21,1,0.05736,0.06902,0,0,270.0*
1,1,0.01166,-0.02868,-0.02868*
1,1,0.01166,-0.02868,0.02868*
1,1,0.01166,0.02868,0.02868*
1,1,0.01166,0.02868,-0.02868*
%
%ADD38ROUNDEDRECTD38*%
%ADD39C,0.06902*%
%ADD40C,0.09461*%
%ADD41R,0.09461X0.09461*%
%ADD42C,0.11627*%
%ADD43C,0.05800*%
%ADD71R,0.06417X0.08000*%
%ADD72R,0.04000X0.03800*%
%ADD73R,0.04000X0.07100*%
%ADD74R,0.05906X0.09843*%
%ADD75R,0.09843X0.05906*%
%ADD77R,0.01900X0.05600*%
%ADD78R,0.02200X0.05600*%
%ADD83R,0.04000X0.03000*%
%ADD84R,0.04000X0.02400*%
%ADD85R,0.08280X0.10642*%
%ADD86R,0.03162X0.06312*%
%ADD87R,0.04343X0.04737*%
G36*
X97827Y324226D02*
X95627D01*
Y322190D01*
X93127Y319690D01*
Y311390D01*
X100327D01*
Y319690D01*
X97827Y322190D01*
Y324226D01*
D02*
G37*
G36*
X63797Y454482D02*
X61597D01*
Y452446D01*
X59097Y449946D01*
Y441646D01*
X66297D01*
Y449946D01*
X63797Y452446D01*
Y454482D01*
D02*
G37*
D16*
X264217Y185586D02*
D03*
X264216Y172594D02*
D03*
X263508Y225924D02*
D03*
X263507Y212932D02*
D03*
D18*
X92954Y342757D02*
D03*
X98466D02*
D03*
X96665Y334927D02*
D03*
X91153D02*
D03*
X98997Y361287D02*
D03*
X93485D02*
D03*
X99255Y371116D02*
D03*
X93743D02*
D03*
D19*
X176043Y133448D02*
D03*
Y126550D02*
D03*
D21*
X191544Y137159D02*
D03*
X204536Y137158D02*
D03*
X203134Y565941D02*
D03*
X216126Y565940D02*
D03*
X173826D02*
D03*
X160834Y565941D02*
D03*
D23*
X142117Y115268D02*
D03*
Y146370D02*
D03*
D31*
X151824Y52408D02*
D03*
X230572Y52716D02*
D03*
X266951Y52766D02*
D03*
X302746Y52767D02*
D03*
X357283Y647717D02*
D03*
D32*
X141982Y52408D02*
D03*
X132139D02*
D03*
X151824Y42566D02*
D03*
X141982D02*
D03*
X132139D02*
D03*
X230572Y42874D02*
D03*
X220729D02*
D03*
Y52716D02*
D03*
X43700Y113722D02*
D03*
Y123565D02*
D03*
X53542D02*
D03*
X357743Y155896D02*
D03*
X347901Y126369D02*
D03*
Y116526D02*
D03*
Y146054D02*
D03*
Y136211D02*
D03*
X357743Y126369D02*
D03*
Y116526D02*
D03*
Y136211D02*
D03*
Y146054D02*
D03*
X54213Y186457D02*
D03*
Y196299D02*
D03*
X44370Y186457D02*
D03*
Y196299D02*
D03*
Y215984D02*
D03*
Y206142D02*
D03*
X54213Y215984D02*
D03*
Y206142D02*
D03*
X44370Y176614D02*
D03*
X347572Y210134D02*
D03*
Y200292D02*
D03*
Y190449D02*
D03*
Y229819D02*
D03*
Y219977D02*
D03*
X357414D02*
D03*
Y210134D02*
D03*
Y200292D02*
D03*
Y190449D02*
D03*
Y229819D02*
D03*
Y239662D02*
D03*
X247266Y42924D02*
D03*
X257109D02*
D03*
X266951D02*
D03*
X247266Y52766D02*
D03*
X257109D02*
D03*
X283061Y42925D02*
D03*
X292903D02*
D03*
X302746D02*
D03*
X283061Y52767D02*
D03*
X292903D02*
D03*
X367126Y647717D02*
D03*
Y657559D02*
D03*
X357283D02*
D03*
X357173Y293005D02*
D03*
Y283162D02*
D03*
D33*
X151824Y14298D02*
D03*
X132139D02*
D03*
X230572Y14606D02*
D03*
X220729D02*
D03*
X15432Y113722D02*
D03*
Y123565D02*
D03*
X386011Y155896D02*
D03*
Y116526D02*
D03*
X16102Y215984D02*
D03*
Y176614D02*
D03*
X229394Y638689D02*
D03*
X179394D02*
D03*
X149394Y558689D02*
D03*
X229394D02*
D03*
X189394D02*
D03*
X199394Y638689D02*
D03*
X385682Y239662D02*
D03*
Y190449D02*
D03*
X247266Y14656D02*
D03*
X266951D02*
D03*
X283061Y14657D02*
D03*
X302746D02*
D03*
X367126Y685827D02*
D03*
X357283D02*
D03*
X385441Y293005D02*
D03*
Y283162D02*
D03*
D34*
X53542Y113722D02*
D03*
X347901Y155896D02*
D03*
X54213Y176614D02*
D03*
X347572Y239662D02*
D03*
D35*
X177857Y167779D02*
D03*
Y183527D02*
D03*
X229432Y187464D02*
D03*
Y163842D02*
D03*
X229168Y240663D02*
D03*
Y224915D02*
D03*
X177593Y220978D02*
D03*
Y244600D02*
D03*
X312008Y659204D02*
D03*
Y682826D02*
D03*
X260433Y678889D02*
D03*
Y663141D02*
D03*
X41541Y40435D02*
D03*
Y16813D02*
D03*
X93115Y20750D02*
D03*
Y36498D02*
D03*
D36*
X187700Y155968D02*
D03*
Y195338D02*
D03*
X219325Y252474D02*
D03*
Y213104D02*
D03*
X270276Y690700D02*
D03*
Y651330D02*
D03*
X83273Y8939D02*
D03*
Y48309D02*
D03*
D37*
X31709Y379816D02*
D03*
X39583D02*
D03*
X47457D02*
D03*
X55331D02*
D03*
X63205D02*
D03*
X71079D02*
D03*
X78953D02*
D03*
X86827D02*
D03*
X94701D02*
D03*
X102575D02*
D03*
Y293202D02*
D03*
X94701D02*
D03*
X86827D02*
D03*
X78953D02*
D03*
X71079D02*
D03*
X63205D02*
D03*
X55331D02*
D03*
X47457D02*
D03*
X39583D02*
D03*
X31709D02*
D03*
X388189Y11811D02*
D03*
X11811D02*
D03*
X11811Y688189D02*
D03*
X388189D02*
D03*
D38*
X108500Y485787D02*
D03*
X278500D02*
D03*
X108500Y235787D02*
D03*
X278500D02*
D03*
D39*
X108500Y475787D02*
D03*
Y465787D02*
D03*
Y455787D02*
D03*
Y445787D02*
D03*
Y435787D02*
D03*
Y425787D02*
D03*
Y415787D02*
D03*
Y405787D02*
D03*
Y395787D02*
D03*
X118500Y485787D02*
D03*
Y475787D02*
D03*
Y465787D02*
D03*
Y455787D02*
D03*
Y445787D02*
D03*
Y435787D02*
D03*
Y425787D02*
D03*
Y415787D02*
D03*
Y405787D02*
D03*
Y395787D02*
D03*
X288500D02*
D03*
Y405787D02*
D03*
Y415787D02*
D03*
Y425787D02*
D03*
Y435787D02*
D03*
Y445787D02*
D03*
Y455787D02*
D03*
Y465787D02*
D03*
Y475787D02*
D03*
Y485787D02*
D03*
X278500Y395787D02*
D03*
Y405787D02*
D03*
Y415787D02*
D03*
Y425787D02*
D03*
Y435787D02*
D03*
Y445787D02*
D03*
Y455787D02*
D03*
Y465787D02*
D03*
Y475787D02*
D03*
X108500Y225787D02*
D03*
Y215787D02*
D03*
Y205787D02*
D03*
Y195787D02*
D03*
Y185787D02*
D03*
Y175787D02*
D03*
Y165787D02*
D03*
Y155787D02*
D03*
Y145787D02*
D03*
X118500Y235787D02*
D03*
Y225787D02*
D03*
Y215787D02*
D03*
Y205787D02*
D03*
Y195787D02*
D03*
Y185787D02*
D03*
Y175787D02*
D03*
Y165787D02*
D03*
Y155787D02*
D03*
Y145787D02*
D03*
X288500D02*
D03*
Y155787D02*
D03*
Y165787D02*
D03*
Y175787D02*
D03*
Y185787D02*
D03*
Y195787D02*
D03*
Y205787D02*
D03*
Y215787D02*
D03*
Y225787D02*
D03*
Y235787D02*
D03*
X278500Y145787D02*
D03*
Y155787D02*
D03*
Y165787D02*
D03*
Y175787D02*
D03*
Y185787D02*
D03*
Y195787D02*
D03*
Y205787D02*
D03*
Y215787D02*
D03*
Y225787D02*
D03*
D40*
X49606Y642062D02*
D03*
X19685D02*
D03*
X49606Y532220D02*
D03*
X64567D02*
D03*
D41*
X79528Y642062D02*
D03*
D42*
Y532220D02*
D03*
X19685D02*
D03*
D43*
X358276Y455978D02*
D03*
X358401Y513857D02*
D03*
X14110Y673414D02*
D03*
X163915Y89546D02*
D03*
X141982Y18392D02*
D03*
X183266Y119326D02*
D03*
X188397Y90597D02*
D03*
X258865Y196650D02*
D03*
X248336Y232168D02*
D03*
X266546Y294575D02*
D03*
X82852Y336656D02*
D03*
X104026Y307173D02*
D03*
X89847Y307027D02*
D03*
X53337Y465634D02*
D03*
X78428Y475491D02*
D03*
X62537Y433754D02*
D03*
X138080Y511200D02*
D03*
X192770Y502230D02*
D03*
X107944Y573454D02*
D03*
X162160Y677650D02*
D03*
X141690Y687210D02*
D03*
X50876Y489813D02*
D03*
X51030Y510680D02*
D03*
D71*
X286811Y666493D02*
D03*
Y684493D02*
D03*
X203365Y223524D02*
D03*
Y241524D02*
D03*
X203891Y169013D02*
D03*
Y187013D02*
D03*
X67472Y15175D02*
D03*
Y33175D02*
D03*
D72*
X135800Y25724D02*
D03*
X142698D02*
D03*
X261123Y25766D02*
D03*
X268021D02*
D03*
X198206Y62118D02*
D03*
X205104D02*
D03*
D73*
X89137Y351911D02*
D03*
X102537D02*
D03*
D74*
X238387Y690551D02*
D03*
X250985D02*
D03*
X28229Y547449D02*
D03*
X40828D02*
D03*
D75*
X238229Y677757D02*
D03*
Y665158D02*
D03*
D77*
X68603Y457282D02*
D03*
X56792D02*
D03*
X90821Y327026D02*
D03*
X102632D02*
D03*
D78*
X62697Y457282D02*
D03*
X96727Y327026D02*
D03*
D83*
X194556Y96924D02*
D03*
D84*
X204356D02*
D03*
D85*
X62737Y445939D02*
D03*
X96766Y315683D02*
D03*
D86*
X248058Y194732D02*
D03*
X244318Y186070D02*
D03*
X251798D02*
D03*
X248319Y221465D02*
D03*
X244579Y212803D02*
D03*
X252059D02*
D03*
D87*
X62637Y473466D02*
D03*
Y467954D02*
D03*
X68567Y467998D02*
D03*
Y473510D02*
D03*
M02*
