G04*
G04 #@! TF.GenerationSoftware,Altium Limited,Altium Designer,18.1.9 (240)*
G04*
G04 Layer_Color=16711935*
%FSLAX25Y25*%
%MOIN*%
G70*
G01*
G75*
%ADD17R,0.05906X0.06299*%
%ADD18R,0.04737X0.04343*%
%ADD22R,0.14147X0.12611*%
%ADD28R,0.06299X0.05906*%
%ADD29R,0.03800X0.04000*%
%ADD33C,0.15000*%
%ADD34R,0.07887X0.07887*%
%ADD35C,0.07887*%
%ADD36C,0.07493*%
G04:AMPARAMS|DCode=37|XSize=69.02mil|YSize=69.02mil|CornerRadius=5.83mil|HoleSize=0mil|Usage=FLASHONLY|Rotation=270.000|XOffset=0mil|YOffset=0mil|HoleType=Round|Shape=RoundedRectangle|*
%AMROUNDEDRECTD37*
21,1,0.06902,0.05736,0,0,270.0*
21,1,0.05736,0.06902,0,0,270.0*
1,1,0.01166,-0.02868,-0.02868*
1,1,0.01166,-0.02868,0.02868*
1,1,0.01166,0.02868,0.02868*
1,1,0.01166,0.02868,-0.02868*
%
%ADD37ROUNDEDRECTD37*%
%ADD38C,0.06902*%
%ADD39R,0.07887X0.07887*%
%ADD40C,0.06800*%
%ADD41C,0.09461*%
%ADD42R,0.09461X0.09461*%
%ADD43C,0.11627*%
%ADD44C,0.12611*%
%ADD45C,0.08280*%
%ADD46C,0.05800*%
%ADD76R,0.05906X0.09843*%
%ADD77R,0.04000X0.07100*%
%ADD79R,0.04000X0.03800*%
%ADD81R,0.01900X0.05600*%
%ADD82R,0.02200X0.05600*%
%ADD83R,0.06417X0.08000*%
%ADD89R,0.04343X0.04737*%
%ADD90R,0.03162X0.06312*%
%ADD91R,0.08280X0.10642*%
%ADD92R,0.04000X0.03000*%
%ADD93R,0.04000X0.02400*%
G36*
X-15702Y-116560D02*
X-17902D01*
Y-118596D01*
X-20402Y-121096D01*
Y-129396D01*
X-13202D01*
Y-121096D01*
X-15702Y-118596D01*
Y-116560D01*
D02*
G37*
G36*
X-49732Y13696D02*
X-51932D01*
Y11660D01*
X-54432Y9160D01*
Y860D01*
X-47232D01*
Y9160D01*
X-49732Y11660D01*
Y13696D01*
D02*
G37*
D17*
X128140Y252620D02*
D03*
X115148Y252620D02*
D03*
X78015Y-303627D02*
D03*
X91007Y-303628D02*
D03*
X56000Y125816D02*
D03*
X43008Y125816D02*
D03*
X81700Y126897D02*
D03*
X94692Y126897D02*
D03*
D18*
X-14274Y-69670D02*
D03*
X-19786D02*
D03*
X-14532Y-79499D02*
D03*
X-20044D02*
D03*
X-16864Y-105859D02*
D03*
X-22376D02*
D03*
X-20575Y-98029D02*
D03*
X-15063D02*
D03*
D22*
X28588Y-325518D02*
D03*
Y-294415D02*
D03*
D28*
X-85694Y-267358D02*
D03*
X-85694Y-254366D02*
D03*
X115187Y240021D02*
D03*
X115187Y227029D02*
D03*
X150688Y-255200D02*
D03*
X150687Y-268192D02*
D03*
X149978Y-214862D02*
D03*
X149978Y-227854D02*
D03*
D29*
X-77961Y-409831D02*
D03*
Y-402934D02*
D03*
X62514Y-307338D02*
D03*
Y-314236D02*
D03*
D33*
X210000Y235000D02*
D03*
X-20000D02*
D03*
D34*
X184296Y-388207D02*
D03*
X117043Y-388070D02*
D03*
X-41261Y-388373D02*
D03*
X153422Y-388019D02*
D03*
X243754Y206931D02*
D03*
D35*
X174453Y-388207D02*
D03*
Y-398050D02*
D03*
X184296D02*
D03*
X234043Y-230651D02*
D03*
Y-240494D02*
D03*
Y-250336D02*
D03*
Y-210966D02*
D03*
Y-220809D02*
D03*
X243885D02*
D03*
Y-230651D02*
D03*
Y-240494D02*
D03*
Y-250336D02*
D03*
Y-210966D02*
D03*
Y-201124D02*
D03*
X117043Y-397912D02*
D03*
X107200D02*
D03*
Y-388070D02*
D03*
X243644Y-147781D02*
D03*
Y-157623D02*
D03*
X-67802Y-192736D02*
D03*
Y-182894D02*
D03*
X-57960D02*
D03*
X-59316Y-254329D02*
D03*
Y-244486D02*
D03*
X-69159Y-254329D02*
D03*
Y-244486D02*
D03*
Y-224801D02*
D03*
Y-234644D02*
D03*
X-59316Y-224801D02*
D03*
Y-234644D02*
D03*
X-69159Y-264172D02*
D03*
X-51104Y-388373D02*
D03*
X-60946D02*
D03*
X-41261Y-398215D02*
D03*
X-51104D02*
D03*
X-60946D02*
D03*
X133737Y-397862D02*
D03*
X143579D02*
D03*
X153422D02*
D03*
X133737Y-388019D02*
D03*
X143579D02*
D03*
X244214Y-284890D02*
D03*
X234371Y-314417D02*
D03*
Y-324260D02*
D03*
Y-294732D02*
D03*
Y-304575D02*
D03*
X244214Y-314417D02*
D03*
Y-324260D02*
D03*
Y-304575D02*
D03*
Y-294732D02*
D03*
X253597Y206931D02*
D03*
Y216773D02*
D03*
X243754D02*
D03*
D36*
X174453Y-426318D02*
D03*
X184296D02*
D03*
X272153Y-201124D02*
D03*
Y-250336D02*
D03*
X108951Y197754D02*
D03*
X58951D02*
D03*
X28951Y117754D02*
D03*
X108951D02*
D03*
X68951D02*
D03*
X78951Y197754D02*
D03*
X117043Y-426180D02*
D03*
X107200D02*
D03*
X271912Y-147781D02*
D03*
Y-157623D02*
D03*
X-96070Y-192736D02*
D03*
Y-182894D02*
D03*
X-97427Y-224801D02*
D03*
Y-264172D02*
D03*
X-41261Y-426483D02*
D03*
X-60946D02*
D03*
X133737Y-426130D02*
D03*
X153422D02*
D03*
X272482Y-284890D02*
D03*
Y-324260D02*
D03*
X253597Y245041D02*
D03*
X243754D02*
D03*
D37*
X-5000Y-204999D02*
D03*
X165000D02*
D03*
Y45001D02*
D03*
X-5000D02*
D03*
D38*
Y-214999D02*
D03*
Y-224999D02*
D03*
Y-234999D02*
D03*
Y-244999D02*
D03*
Y-254999D02*
D03*
Y-264999D02*
D03*
Y-274999D02*
D03*
Y-284999D02*
D03*
Y-294999D02*
D03*
X5001Y-204999D02*
D03*
Y-214999D02*
D03*
Y-224999D02*
D03*
Y-234999D02*
D03*
Y-244999D02*
D03*
Y-254999D02*
D03*
Y-264999D02*
D03*
Y-274999D02*
D03*
Y-284999D02*
D03*
Y-294999D02*
D03*
X175001D02*
D03*
Y-284999D02*
D03*
Y-274999D02*
D03*
Y-264999D02*
D03*
Y-254999D02*
D03*
Y-244999D02*
D03*
Y-234999D02*
D03*
Y-224999D02*
D03*
Y-214999D02*
D03*
Y-204999D02*
D03*
X165000Y-294999D02*
D03*
Y-284999D02*
D03*
Y-274999D02*
D03*
Y-264999D02*
D03*
Y-254999D02*
D03*
Y-244999D02*
D03*
Y-234999D02*
D03*
Y-224999D02*
D03*
Y-214999D02*
D03*
X175001Y-44999D02*
D03*
Y-34999D02*
D03*
Y-24999D02*
D03*
Y-14999D02*
D03*
Y-4999D02*
D03*
Y5001D02*
D03*
Y15001D02*
D03*
Y25001D02*
D03*
Y35001D02*
D03*
Y45001D02*
D03*
X165000Y-44999D02*
D03*
Y-34999D02*
D03*
Y-24999D02*
D03*
Y-14999D02*
D03*
Y-4999D02*
D03*
Y5001D02*
D03*
Y15001D02*
D03*
Y25001D02*
D03*
Y35001D02*
D03*
X-5000D02*
D03*
Y25001D02*
D03*
Y15001D02*
D03*
Y5001D02*
D03*
Y-4999D02*
D03*
Y-14999D02*
D03*
Y-24999D02*
D03*
Y-34999D02*
D03*
Y-44999D02*
D03*
X5001Y45001D02*
D03*
Y35001D02*
D03*
Y25001D02*
D03*
Y15001D02*
D03*
Y5001D02*
D03*
Y-4999D02*
D03*
Y-14999D02*
D03*
Y-24999D02*
D03*
Y-34999D02*
D03*
Y-44999D02*
D03*
D39*
X234043Y-201124D02*
D03*
X-57960Y-192736D02*
D03*
X-59316Y-264172D02*
D03*
X234371Y-284890D02*
D03*
D40*
X-81820Y-60970D02*
D03*
X-73946D02*
D03*
X-66072D02*
D03*
X-58198D02*
D03*
X-50324D02*
D03*
X-42450D02*
D03*
X-34576D02*
D03*
X-26702D02*
D03*
X-18828D02*
D03*
X-10954D02*
D03*
Y-147584D02*
D03*
X-18828D02*
D03*
X-26702D02*
D03*
X-34576D02*
D03*
X-42450D02*
D03*
X-50324D02*
D03*
X-58198D02*
D03*
X-66072D02*
D03*
X-73946D02*
D03*
X-81820D02*
D03*
X274660Y-428975D02*
D03*
X-101718D02*
D03*
X-101718Y247403D02*
D03*
X274660D02*
D03*
D41*
X-63923Y201276D02*
D03*
X-93844D02*
D03*
X-63923Y91434D02*
D03*
X-48962D02*
D03*
D42*
X-34001Y201276D02*
D03*
D43*
Y91434D02*
D03*
X-93844D02*
D03*
D44*
X115638Y-200123D02*
D03*
Y-215871D02*
D03*
X64064Y-219808D02*
D03*
Y-196186D02*
D03*
X188967Y221272D02*
D03*
Y244894D02*
D03*
X137392Y240957D02*
D03*
Y225209D02*
D03*
X-100728Y-321950D02*
D03*
Y-345572D02*
D03*
X-49153Y-341635D02*
D03*
Y-325887D02*
D03*
X64328Y-273007D02*
D03*
Y-257259D02*
D03*
X115903Y-253322D02*
D03*
Y-276944D02*
D03*
D45*
X105796Y-188312D02*
D03*
Y-227682D02*
D03*
X147234Y252768D02*
D03*
Y213398D02*
D03*
X-58995Y-353446D02*
D03*
Y-314076D02*
D03*
X74171Y-284818D02*
D03*
Y-245448D02*
D03*
D46*
X-86049Y-280389D02*
D03*
X143110Y-241063D02*
D03*
X-15961Y-346934D02*
D03*
X244876Y68365D02*
D03*
X244931Y60516D02*
D03*
X244932Y21950D02*
D03*
X244965Y18077D02*
D03*
X244899Y14121D02*
D03*
X-16822Y-134680D02*
D03*
X244909Y64367D02*
D03*
X-33112Y-254329D02*
D03*
X-33112Y-244486D02*
D03*
X-99419Y232628D02*
D03*
X69737Y-321459D02*
D03*
X74868Y-350189D02*
D03*
X134807Y-208618D02*
D03*
X153017Y-146211D02*
D03*
X-30677Y-104130D02*
D03*
X-60192Y24848D02*
D03*
X-35101Y34705D02*
D03*
X-50992Y-7032D02*
D03*
X24551Y70414D02*
D03*
X79241Y61444D02*
D03*
X-5585Y132668D02*
D03*
X48631Y236864D02*
D03*
X28161Y246424D02*
D03*
X-62653Y49027D02*
D03*
X-62499Y69894D02*
D03*
D76*
X-85300Y106664D02*
D03*
X-72701D02*
D03*
D77*
X-24392Y-88875D02*
D03*
X-10992D02*
D03*
D79*
X147594Y-415019D02*
D03*
X154491D02*
D03*
X84677Y-378668D02*
D03*
X91575D02*
D03*
D81*
X-44926Y16496D02*
D03*
X-56737D02*
D03*
X-22708Y-113760D02*
D03*
X-10897D02*
D03*
D82*
X-50832Y16496D02*
D03*
X-16802Y-113760D02*
D03*
D83*
X-76282Y-347208D02*
D03*
Y-329208D02*
D03*
X89836Y-217262D02*
D03*
Y-199262D02*
D03*
X90362Y-271773D02*
D03*
Y-253773D02*
D03*
X163770Y228561D02*
D03*
Y246561D02*
D03*
D89*
X-50892Y32680D02*
D03*
Y27168D02*
D03*
X-44962Y27212D02*
D03*
Y32724D02*
D03*
D90*
X134790Y-219321D02*
D03*
X131050Y-227982D02*
D03*
X138530D02*
D03*
X134529Y-246054D02*
D03*
X130789Y-254715D02*
D03*
X138269D02*
D03*
D91*
X-50792Y5153D02*
D03*
X-16763Y-125103D02*
D03*
D92*
X81027Y-343862D02*
D03*
D93*
X90827D02*
D03*
M02*
